<svg xmlns="http://www.w3.org/2000/svg" viewBox="0 0 65 65"><defs><style>.cls-1{fill:#4cb32c;}.cls-2{fill:#1c2d45;}</style></defs><title>@mentionsAsset 1</title><g id="Layer_2" data-name="Layer 2"><g id="Capa_1" data-name="Capa 1"><circle class="cls-1" cx="32.5" cy="32.5" r="11.41"/><path class="cls-2" d="M28.78.21A32.5,32.5,0,0,0,35,64.9a33.47,33.47,0,0,0,20.15-9.11l.48-.44a1.35,1.35,0,0,0,.07-1.91l-1.85-2A1.35,1.35,0,0,0,52,51.39l-1,.92A27.08,27.08,0,1,1,33.3,5.43c14.76.43,26.28,13,26.28,27.8v2a5.42,5.42,0,0,1-6,5.39A5.58,5.58,0,0,1,48.75,35V23a1.35,1.35,0,0,0-1.35-1.35H44.69a1.35,1.35,0,0,0-1.22.79,14.88,14.88,0,1,0,1.44,18.27,10.79,10.79,0,0,0,10,5.29A11.09,11.09,0,0,0,65,34.83V32.5A32.54,32.54,0,0,0,28.78.21ZM32.5,42A9.48,9.48,0,1,1,42,32.5,9.49,9.49,0,0,1,32.5,42Z"/></g></g></svg>