<svg xmlns="http://www.w3.org/2000/svg" viewBox="0 0 65 65"><defs><style>.cls-1{fill:#4cb32c;}.cls-2{fill:#1c2d45;}</style></defs><title>Advance reportsAsset 1</title><g id="Layer_2" data-name="Layer 2"><g id="Layer_1-2" data-name="Layer 1"><circle class="cls-1" cx="39.92" cy="14.81" r="13.52"/><circle class="cls-1" cx="23.03" cy="42.86" r="1.42"/><circle class="cls-1" cx="13.66" cy="49.18" r="1.42"/><circle class="cls-1" cx="32.5" cy="49.18" r="1.42"/><circle class="cls-1" cx="43.01" cy="40.84" r="1.42"/><circle class="cls-1" cx="51.3" cy="47.09" r="1.42"/><path class="cls-2" d="M6.45,58.55H8.53v2.08H6.45Z"/><path class="cls-2" d="M10.62,58.55H12.7v2.08H10.62Z"/><path class="cls-2" d="M14.78,58.55h2.08v2.08H14.78Z"/><path class="cls-2" d="M50.22,58.55h8.34v2.08H50.22Z"/><path class="cls-2" d="M5.41,65A5.41,5.41,0,0,1,0,59.59V54.38a.2.2,0,0,1,.2-.2H2.08V20a5.41,5.41,0,0,1,5.41-5.41H25a14.78,14.78,0,0,1,29.57,0h2.93A5.41,5.41,0,0,1,62.92,20V54.19H64.8a.2.2,0,0,1,.2.2v5.21A5.41,5.41,0,0,1,59.59,65ZM2.47,59.59a2.93,2.93,0,0,0,2.93,2.93H59.59a2.93,2.93,0,0,0,2.93-2.93V56.66H56.47a.2.2,0,0,1-.2-.2V21.23H53.08a14.89,14.89,0,0,1-5.3,6,14.71,14.71,0,0,1-16,0,14.89,14.89,0,0,1-5.3-6H8.73v33H24.59a.2.2,0,0,1,.14.06l.3.3a5.84,5.84,0,0,0,4.16,1.72H35.8A5.84,5.84,0,0,0,40,54.55l.31-.31a.19.19,0,0,1,.14-.06h14a.2.2,0,0,1,.2.2v2.08a.2.2,0,0,1-.2.2H41.33a8.33,8.33,0,0,1-5.52,2.08H29.2a8.33,8.33,0,0,1-5.52-2.08H2.47Zm58-5.41V20a2.93,2.93,0,0,0-2.93-2.93H54.39A14.89,14.89,0,0,1,54,18.76h2.44A2.28,2.28,0,0,1,58.75,21V54.19Zm-54.19,0V21a2.28,2.28,0,0,1,2.28-2.28h17a14.51,14.51,0,0,1-.36-1.69H7.49A2.93,2.93,0,0,0,4.56,20V54.19ZM28,11.22A12.27,12.27,0,0,0,42.49,26.78L38.8,15.71ZM44.84,26A12.29,12.29,0,0,0,49.32,7l-8.11,8.11ZM39.51,13.32l8.07-8.07A12.28,12.28,0,0,0,29,8.94Z"/><path class="cls-2" d="M5.41,64.87A5.28,5.28,0,0,1,.13,59.59V54.38a.07.07,0,0,1,.07-.07h2V20a5.28,5.28,0,0,1,5.28-5.28H25.14a14.65,14.65,0,0,1,29.31,0h3.06A5.28,5.28,0,0,1,62.79,20V54.32h2a.07.07,0,0,1,.07.07v5.21a5.28,5.28,0,0,1-5.28,5.28ZM2.34,59.59a3.06,3.06,0,0,0,3.06,3.06H59.59a3.06,3.06,0,0,0,3.06-3.06V56.53H56.47a.07.07,0,0,1-.07-.07V21.1H53a14.76,14.76,0,0,1-5.29,6,14.58,14.58,0,0,1-15.83,0,14.76,14.76,0,0,1-5.29-6H8.6V54.32h16l0,0,.3.31a6,6,0,0,0,4.25,1.76H35.8a6,6,0,0,0,4.25-1.76l.31-.31,0,0h14a.07.07,0,0,1,.07.07v2.08a.07.07,0,0,1-.07.07H41.28a8.2,8.2,0,0,1-5.47,2.08H29.2a8.2,8.2,0,0,1-5.47-2.08H2.34Zm58.23-5.28V20a3.06,3.06,0,0,0-3.06-3.06H54.27a14.68,14.68,0,0,1-.42,2h2.61A2.15,2.15,0,0,1,58.62,21V54.32Zm-54.19,0V21a2.15,2.15,0,0,1,2.15-2.15h17.2a14.34,14.34,0,0,1-.42-2H7.49A3.06,3.06,0,0,0,4.43,20V54.32ZM27.94,11A12.4,12.4,0,0,0,42.66,26.88L38.9,15.61ZM44.76,26.19A12.42,12.42,0,0,0,49.33,6.81l-8.27,8.27ZM39.54,13.48l8.23-8.23A12.41,12.41,0,0,0,28.79,9Z"/><path class="cls-2" d="M62.72,54.38V20a5.22,5.22,0,0,0-5.21-5.21H54.38a14.59,14.59,0,0,0-29.18,0H7.49A5.22,5.22,0,0,0,2.28,20V54.38H.2v5.21A5.22,5.22,0,0,0,5.41,64.8H59.59a5.22,5.22,0,0,0,5.21-5.21V54.38ZM57.51,16.87A3.13,3.13,0,0,1,60.64,20V54.38H58.55V21A2.09,2.09,0,0,0,56.47,19h-2.7a14.49,14.49,0,0,0,.45-2.08ZM27.9,11,39,15.56l3.79,11.36A12.49,12.49,0,0,1,27.9,11ZM44.72,26.27,41,15.07l8.35-8.35a12.48,12.48,0,0,1-4.61,19.55Zm-4.93-24a12.45,12.45,0,0,1,8.07,3l-8.31,8.31L28.7,9A12.51,12.51,0,0,1,39.79,2.28ZM4.36,20a3.13,3.13,0,0,1,3.13-3.13H25.37A14.35,14.35,0,0,0,25.82,19H8.53A2.09,2.09,0,0,0,6.45,21V54.38H4.36Zm58.36,39.6a3.13,3.13,0,0,1-3.13,3.13H5.41a3.13,3.13,0,0,1-3.13-3.13V56.47H23.75a8.1,8.1,0,0,0,5.45,2.08h6.61a8.1,8.1,0,0,0,5.45-2.08H54.38V54.38h-14l-.31.31a6,6,0,0,1-4.3,1.78H29.19a6,6,0,0,1-4.3-1.78l-.3-.31H8.53V21h18.1A14.56,14.56,0,0,0,53,21h3.51V56.47h6.25Z"/><path class="cls-2" d="M51.26,44a3.11,3.11,0,0,0-1.73.53l-3.64-2.73a3.08,3.08,0,0,0,.16-.93,3.13,3.13,0,1,0-6.25,0,3.09,3.09,0,0,0,.18,1l-5.84,4.67a3.06,3.06,0,0,0-3.51.15l-4.49-3a3.06,3.06,0,0,0,.11-.76,3.13,3.13,0,0,0-6.25,0,3.06,3.06,0,0,0,.11.76l-4.49,3A3.09,3.09,0,0,0,13.74,46a3.13,3.13,0,1,0,3.13,3.13,3.06,3.06,0,0,0-.11-.76l4.49-3a3.07,3.07,0,0,0,3.73,0l4.49,3a3.06,3.06,0,0,0-.11.76,3.13,3.13,0,1,0,6.25,0,3.09,3.09,0,0,0-.18-1l5.84-4.67a3.09,3.09,0,0,0,3.37,0l3.64,2.73a3.08,3.08,0,0,0-.16.93A3.13,3.13,0,1,0,51.26,44ZM13.74,50.22a1,1,0,1,1,1-1A1,1,0,0,1,13.74,50.22ZM23.12,44a1,1,0,1,1,1-1A1,1,0,0,1,23.12,44Zm9.38,6.25a1,1,0,1,1,1-1A1,1,0,0,1,32.5,50.22Zm10.42-8.34a1,1,0,1,1,1-1A1,1,0,0,1,42.92,41.88Zm8.34,6.25a1,1,0,1,1,1-1A1,1,0,0,1,51.26,48.13Z"/><path class="cls-2" d="M27.29,23.12H10.62V37.71H27.29ZM25.21,35.63H12.7V25.21H25.21Z"/><path class="cls-2" d="M14.78,27.29h8.34v2.08H14.78Z"/><path class="cls-2" d="M14.78,31.46h8.34v2.08H14.78Z"/><path class="cls-2" d="M29.37,33.54h2.08v2.08H29.37Z"/><path class="cls-2" d="M33.54,33.54H54.38v2.08H33.54Z"/></g></g></svg>