<svg xmlns="http://www.w3.org/2000/svg" viewBox="0 0 65 65"><defs><style>.cls-1{fill:#4cb32c;}.cls-2{fill:#1c2d45;}</style></defs><title>Custom status Asset 1</title><g id="Layer_2" data-name="Layer 2"><g id="Layer_1-2" data-name="Layer 1"><rect class="cls-1" x="25.52" y="48.36" width="13.96" height="13.96"/><rect class="cls-1" x="25.52" y="2.91" width="13.96" height="13.96"/><path class="cls-2" d="M57.26,46V30.72H34.4V19.3H42V0H23V19.3H30.6V30.72H7.74V46H0V65H19.17V46H11.55V34.53h19V46H23V65H42V46H34.4V34.53h19V46H45.83V65H65V46ZM26.79,3.81H38.21V15.49H26.79ZM15.36,61.19H3.81V49.77H15.36Zm22.85,0H26.79V49.77H38.21Zm23,0H49.64V49.77H61.19Z"/></g></g></svg>