<svg xmlns="http://www.w3.org/2000/svg" viewBox="0 0 65 64.97"><defs><style>.cls-1{fill:#4cb32c;}.cls-2{fill:#1c2d45;}</style></defs><title>Custom fieldsAsset 1</title><g id="Layer_2" data-name="Layer 2"><g id="Isolation_Mode" data-name="Isolation Mode"><rect class="cls-1" x="31.81" y="39.85" width="24.82" height="7.25"/><path class="cls-2" d="M58.86,21.86a1.43,1.43,0,0,1-1.43-1.43V12H2.86v1.21a1.43,1.43,0,1,1-2.86,0V4.44A4.44,4.44,0,0,1,4.44,0H55.85a4.44,4.44,0,0,1,4.44,4.44v16A1.43,1.43,0,0,1,58.86,21.86ZM57.43,9.16V4.44a1.58,1.58,0,0,0-1.57-1.57H4.44A1.58,1.58,0,0,0,2.86,4.44V9.16Z"/><path class="cls-2" d="M1.43,14.17a.94.94,0,0,0,.94-.94v-1.7H57.92v8.9a.94.94,0,1,0,1.88,0v-16A4,4,0,0,0,55.85.49H4.44A4,4,0,0,0,.49,4.44v8.8a.94.94,0,0,0,.94.94Zm3-11.8H55.85a2.07,2.07,0,0,1,2.07,2.07V9.65H2.37V4.44A2.07,2.07,0,0,1,4.44,2.37Z"/><path class="cls-2" d="M4.44,60.29A4.44,4.44,0,0,1,0,55.85V17.24a1.43,1.43,0,1,1,2.86,0V55.85a1.58,1.58,0,0,0,1.57,1.57H21.19a1.43,1.43,0,0,1,0,2.86Z"/><path class="cls-2" d="M21.19,57.92H4.44a2.07,2.07,0,0,1-2.07-2.07V17.24a.94.94,0,1,0-1.88,0V55.85A4,4,0,0,0,4.44,59.8H21.19a.94.94,0,0,0,0-1.88Z"/><path class="cls-2" d="M28.42,65a4.91,4.91,0,0,1-4.91-4.91V43.86a1.43,1.43,0,0,1,2.86,0v16.2a2,2,0,0,0,2,2H60.1a2,2,0,0,0,2-2v-26H26.38v5.81a1.43,1.43,0,1,1-2.86,0V27.66a4.91,4.91,0,0,1,4.91-4.91H60.09A4.91,4.91,0,0,1,65,27.66V60.07A4.91,4.91,0,0,1,60.09,65ZM62.14,31.19V27.66a2,2,0,0,0-2-2H28.42a2,2,0,0,0-2,2v3.53Z"/><path class="cls-2" d="M60.1,23.25H28.42A4.42,4.42,0,0,0,24,27.66v12.2a.94.94,0,1,0,1.88,0v-6.3H62.63V60.07A2.54,2.54,0,0,1,60.1,62.6H28.42a2.54,2.54,0,0,1-2.53-2.53V43.86a.94.94,0,0,0-1.88,0V60.07a4.42,4.42,0,0,0,4.41,4.41H60.1a4.42,4.42,0,0,0,4.41-4.41V27.66a4.42,4.42,0,0,0-4.41-4.41ZM25.89,31.68v-4a2.54,2.54,0,0,1,2.53-2.53H60.1a2.54,2.54,0,0,1,2.53,2.53v4Z"/><path class="cls-1" d="M6.25,6.9H7A.94.94,0,1,0,7,5H6.25a.94.94,0,1,0,0,1.88Z"/><path class="cls-1" d="M12.78,6.9h.71a.94.94,0,0,0,0-1.88h-.71a.94.94,0,1,0,0,1.88Z"/><path class="cls-1" d="M19.31,6.9H20A.94.94,0,1,0,20,5h-.71a.94.94,0,0,0,0,1.88Z"/><path class="cls-2" d="M55.32,46.21h-4a.94.94,0,1,0,0,1.88h4a2.87,2.87,0,0,0,2.86-2.86v-4a2.87,2.87,0,0,0-2.86-2.86H33.2a2.87,2.87,0,0,0-2.86,2.86v4a2.87,2.87,0,0,0,2.86,2.86H47.36a.94.94,0,1,0,0-1.88H33.2a1,1,0,0,1-1-1v-4a1,1,0,0,1,1-1H55.32a1,1,0,0,1,1,1v4a1,1,0,0,1-1,1Z"/><path class="cls-2" d="M10.37,33.76a2.58,2.58,0,0,1-2.57-2.57V19.47a2.58,2.58,0,0,1,2.57-2.57H50.19a1.43,1.43,0,0,1,0,2.86H10.66V30.89h8.17a1.43,1.43,0,1,1,0,2.86Z"/><path class="cls-2" d="M10.37,19.27H50.19a.94.94,0,1,0,0-1.88H10.37a2.08,2.08,0,0,0-2.08,2.08V31.18a2.08,2.08,0,0,0,2.08,2.08h8.46a.94.94,0,1,0,0-1.88H10.37a.2.2,0,0,1-.2-.2V19.47A.2.2,0,0,1,10.37,19.27Z"/><path class="cls-1" d="M18.8,37.25H9.23a.94.94,0,1,0,0,1.88H18.8a.94.94,0,1,0,0-1.88Z"/><path class="cls-1" d="M18.8,44.29H9.23a.94.94,0,0,0,0,1.88H18.8a.94.94,0,1,0,0-1.88Z"/><path class="cls-2" d="M31.27,56.69a1.43,1.43,0,1,1,0-2.86h26a1.43,1.43,0,0,1,0,2.86Z"/><path class="cls-2" d="M31.27,56.2h26a.94.94,0,0,0,0-1.88h-26a.94.94,0,0,0,0,1.88Z"/></g></g></svg>