<svg xmlns="http://www.w3.org/2000/svg" viewBox="0 0 66 59.42"><defs><style>.cls-1{fill:#4cb32c;}.cls-2{fill:#1c2d45;}</style></defs><title>Custom admin Asset 1</title><g id="Layer_2" data-name="Layer 2"><g id="Layer_1-2" data-name="Layer 1"><rect class="cls-1" x="10.16" y="34.76" width="23" height="15.16" rx="0.63" ry="0.63"/><rect class="cls-1" x="10.66" y="35.26" width="22" height="14.16" rx="0.13" ry="0.13"/><rect class="cls-1" x="10.29" y="34.89" width="22.75" height="14.91" rx="0.5" ry="0.5"/><rect class="cls-1" x="10.79" y="35.39" width="21.75" height="13.91"/><rect class="cls-1" x="40.85" y="34.76" width="15.16" height="15.16" rx="0.63" ry="0.63"/><rect class="cls-1" x="41.35" y="35.26" width="14.16" height="14.16" rx="0.13" ry="0.13"/><rect class="cls-1" x="40.97" y="34.89" width="14.91" height="14.91" rx="0.5" ry="0.5"/><rect class="cls-1" x="41.47" y="35.39" width="13.91" height="13.91"/><circle class="cls-1" cx="20.35" cy="6.95" r="1.89"/><circle class="cls-1" cx="20.35" cy="6.95" r="1.39"/><circle class="cls-1" cx="20.35" cy="6.95" r="1.76"/><circle class="cls-1" cx="20.35" cy="6.95" r="1.26"/><circle class="cls-1" cx="15.3" cy="6.95" r="1.89"/><circle class="cls-1" cx="15.3" cy="6.95" r="1.39"/><circle class="cls-1" cx="15.3" cy="6.95" r="1.76"/><circle class="cls-1" cx="15.3" cy="6.95" r="1.26"/><circle class="cls-1" cx="10.24" cy="6.95" r="1.89"/><circle class="cls-1" cx="10.24" cy="6.95" r="1.39"/><circle class="cls-1" cx="10.24" cy="6.95" r="1.76"/><circle class="cls-1" cx="10.24" cy="6.95" r="1.26"/><path class="cls-2" d="M10.24,29.07a1.89,1.89,0,0,1-1.89-1.89V19.6a1.89,1.89,0,0,1,1.89-1.89H55.76a1.89,1.89,0,0,1,1.89,1.89v7.59a1.89,1.89,0,0,1-1.89,1.89Zm43.63-3.78V21.49H12.13v3.81Z"/><path class="cls-2" d="M10.24,28.57a1.39,1.39,0,0,1-1.39-1.39V19.6a1.39,1.39,0,0,1,1.39-1.39H55.76a1.39,1.39,0,0,1,1.39,1.39v7.59a1.39,1.39,0,0,1-1.39,1.39Zm44.13-2.78V21H11.63v4.81Z"/><path class="cls-2" d="M10.24,28.95a1.77,1.77,0,0,1-1.76-1.76V19.6a1.77,1.77,0,0,1,1.76-1.76H55.76a1.77,1.77,0,0,1,1.76,1.76v7.59a1.77,1.77,0,0,1-1.76,1.76ZM54,25.42V21.36H12v4.06Z"/><path class="cls-2" d="M55.76,18.33H10.24A1.26,1.26,0,0,0,9,19.6v7.59a1.26,1.26,0,0,0,1.26,1.26H55.76A1.26,1.26,0,0,0,57,27.18V19.6A1.26,1.26,0,0,0,55.76,18.33ZM54.5,25.92h-43V20.86h43Z"/><path class="cls-2" d="M10.24,51.84a1.89,1.89,0,0,1-1.89-1.89V34.77a1.89,1.89,0,0,1,1.89-1.89H33a1.89,1.89,0,0,1,1.89,1.89V49.95A1.89,1.89,0,0,1,33,51.84Zm20.87-3.78V36.66h-19V48.05Z"/><path class="cls-2" d="M10.24,51.34a1.39,1.39,0,0,1-1.39-1.39V34.77a1.39,1.39,0,0,1,1.39-1.39H33a1.39,1.39,0,0,1,1.39,1.39V49.95A1.39,1.39,0,0,1,33,51.34Zm21.37-2.78V36.16h-20V48.55Z"/><path class="cls-2" d="M10.24,51.71a1.77,1.77,0,0,1-1.76-1.76V34.77A1.77,1.77,0,0,1,10.24,33H33a1.77,1.77,0,0,1,1.76,1.76V49.95A1.77,1.77,0,0,1,33,51.71Zm21-3.53V36.54H12V48.18Z"/><path class="cls-2" d="M33,33.51H10.24A1.26,1.26,0,0,0,9,34.77V49.95a1.26,1.26,0,0,0,1.26,1.26H33a1.26,1.26,0,0,0,1.26-1.26V34.77A1.26,1.26,0,0,0,33,33.51ZM31.74,48.68H11.5V36H31.74Z"/><path class="cls-2" d="M40.59,51.84a1.89,1.89,0,0,1-1.89-1.89V34.77a1.89,1.89,0,0,1,1.89-1.89H55.76a1.89,1.89,0,0,1,1.89,1.89V49.95a1.89,1.89,0,0,1-1.89,1.89Zm13.28-3.78V36.66H42.48V48.05Z"/><path class="cls-2" d="M40.59,51.34a1.39,1.39,0,0,1-1.39-1.39V34.77a1.39,1.39,0,0,1,1.39-1.39H55.76a1.39,1.39,0,0,1,1.39,1.39V49.95a1.39,1.39,0,0,1-1.39,1.39Zm13.78-2.78V36.16H42V48.55Z"/><path class="cls-2" d="M40.59,51.71a1.77,1.77,0,0,1-1.76-1.76V34.77A1.77,1.77,0,0,1,40.59,33H55.76a1.77,1.77,0,0,1,1.76,1.76V49.95a1.77,1.77,0,0,1-1.76,1.76ZM54,48.18V36.54H42.35V48.18Z"/><path class="cls-2" d="M55.76,33.51H40.59a1.26,1.26,0,0,0-1.26,1.26V49.95a1.26,1.26,0,0,0,1.26,1.26H55.76A1.26,1.26,0,0,0,57,49.95V34.77A1.26,1.26,0,0,0,55.76,33.51ZM54.5,48.68H41.85V36H54.5Z"/><circle class="cls-2" cx="33" cy="1.89" r="1.89"/><circle class="cls-2" cx="33" cy="1.89" r="1.39"/><circle class="cls-2" cx="33" cy="1.89" r="1.76"/><circle class="cls-2" cx="33" cy="1.89" r="1.26"/><path class="cls-2" d="M4.42,59.42A4.42,4.42,0,0,1,0,55V4.42A4.43,4.43,0,0,1,4.42,0H27.31a1.89,1.89,0,0,1,0,3.78H4.42a.64.64,0,0,0-.64.64v5.7H62.22V4.42a.64.64,0,0,0-.64-.64H38.69a1.89,1.89,0,0,1,0-3.78H61.58A4.42,4.42,0,0,1,66,4.42V55a4.42,4.42,0,0,1-4.42,4.42ZM3.78,55a.64.64,0,0,0,.64.64H61.58a.64.64,0,0,0,.64-.64V13.9H3.78Z"/><path class="cls-2" d="M4.42,58.92A3.92,3.92,0,0,1,.5,55V4.42A3.92,3.92,0,0,1,4.42.5H27.31a1.39,1.39,0,1,1,0,2.78H4.42A1.14,1.14,0,0,0,3.28,4.42v6.2H62.72V4.42a1.14,1.14,0,0,0-1.14-1.14H38.69a1.39,1.39,0,1,1,0-2.78H61.58A3.92,3.92,0,0,1,65.5,4.42V55a3.92,3.92,0,0,1-3.92,3.92ZM3.28,55a1.14,1.14,0,0,0,1.14,1.14H61.58A1.14,1.14,0,0,0,62.72,55V13.4H3.28Z"/><path class="cls-2" d="M4.42,59.3A4.3,4.3,0,0,1,.13,55V4.42A4.3,4.3,0,0,1,4.42.13H27.31a1.76,1.76,0,0,1,0,3.53H4.42a.77.77,0,0,0-.76.76v5.82H62.34V4.42a.77.77,0,0,0-.76-.76H38.69a1.76,1.76,0,1,1,0-3.53H61.58a4.3,4.3,0,0,1,4.29,4.29V55a4.3,4.3,0,0,1-4.29,4.29ZM3.66,55a.77.77,0,0,0,.76.76H61.58a.77.77,0,0,0,.76-.76V13.77H3.66Z"/><path class="cls-2" d="M61.58.63H38.69a1.26,1.26,0,1,0,0,2.53H61.58a1.27,1.27,0,0,1,1.26,1.26v6.32H3.16V4.42A1.27,1.27,0,0,1,4.42,3.16H27.31a1.26,1.26,0,1,0,0-2.53H4.42A3.8,3.8,0,0,0,.63,4.42V55A3.8,3.8,0,0,0,4.42,58.8H61.58A3.8,3.8,0,0,0,65.37,55V4.42A3.8,3.8,0,0,0,61.58.63Zm0,55.64H4.42A1.27,1.27,0,0,1,3.16,55V13.27H62.84V55A1.27,1.27,0,0,1,61.58,56.27Z"/></g></g></svg>