<svg xmlns="http://www.w3.org/2000/svg" viewBox="0 0 58.01 65.4"><defs><style>.cls-1{fill:#4cb32c;}.cls-2{fill:#1c2d45;}</style></defs><title>Default user Asset 1</title><g id="Layer_2" data-name="Layer 2"><g id="Layer_1-2" data-name="Layer 1"><rect class="cls-1" x="21.51" y="38.65" width="29.06" height="4.5" rx="2.25" ry="2.25"/><circle class="cls-1" cx="19.07" cy="18.34" r="4.67"/><circle class="cls-1" cx="10.59" cy="40.77" r="3.81"/><circle class="cls-1" cx="10.59" cy="54.98" r="3.81"/><path class="cls-2" d="M5.56,65.4A5.57,5.57,0,0,1,0,59.83V5.56A5.57,5.57,0,0,1,5.56,0H23.31a1.47,1.47,0,0,1,0,2.94H5.56A2.63,2.63,0,0,0,2.94,5.56V59.83a2.63,2.63,0,0,0,2.63,2.63H52.45a2.63,2.63,0,0,0,2.63-2.63V5.56a2.63,2.63,0,0,0-2.63-2.63H34.71a1.47,1.47,0,1,1,0-2.94H52.45A5.57,5.57,0,0,1,58,5.56V59.83a5.57,5.57,0,0,1-5.57,5.57Z"/><path class="cls-2" d="M52.45.2H34.71a1.27,1.27,0,0,0,0,2.54H52.45a2.83,2.83,0,0,1,2.83,2.83V59.83a2.83,2.83,0,0,1-2.83,2.83H5.56a2.83,2.83,0,0,1-2.83-2.83V5.56A2.83,2.83,0,0,1,5.56,2.74H23.31a1.27,1.27,0,0,0,0-2.54H5.56A5.37,5.37,0,0,0,.2,5.56V59.83A5.37,5.37,0,0,0,5.56,65.2H52.45a5.37,5.37,0,0,0,5.36-5.37V5.56A5.37,5.37,0,0,0,52.45.2Z"/><path class="cls-2" d="M36.84,14.06a1.47,1.47,0,1,1,0-2.94h7.86a1.47,1.47,0,0,1,0,2.94Z"/><path class="cls-2" d="M36.84,13.86h7.86a1.27,1.27,0,0,0,0-2.54H36.84a1.27,1.27,0,1,0,0,2.54Z"/><path class="cls-2" d="M36.84,20.54a1.47,1.47,0,1,1,0-2.94H51.1a1.47,1.47,0,1,1,0,2.94Z"/><path class="cls-2" d="M36.84,20.34H51.1a1.27,1.27,0,0,0,0-2.54H36.84a1.27,1.27,0,1,0,0,2.54Z"/><path class="cls-2" d="M36.84,27a1.47,1.47,0,0,1,0-2.94H51.1a1.47,1.47,0,0,1,0,2.94Z"/><path class="cls-2" d="M36.84,26.81H51.1a1.27,1.27,0,0,0,0-2.54H36.84a1.27,1.27,0,1,0,0,2.54Z"/><path class="cls-2" d="M10.59,45.91a5.15,5.15,0,1,1,5.15-5.15A5.15,5.15,0,0,1,10.59,45.91Zm0-7.36a2.21,2.21,0,1,0,2.21,2.21A2.21,2.21,0,0,0,10.59,38.56Z"/><path class="cls-2" d="M10.59,35.82a4.95,4.95,0,1,0,4.95,4.95A5,5,0,0,0,10.59,35.82Zm0,7.36A2.41,2.41,0,1,1,13,40.77,2.41,2.41,0,0,1,10.59,43.17Z"/><path class="cls-2" d="M10.59,60a5.15,5.15,0,1,1,5.15-5.15A5.15,5.15,0,0,1,10.59,60Zm0-7.36a2.21,2.21,0,1,0,2.21,2.21A2.21,2.21,0,0,0,10.59,52.6Z"/><path class="cls-2" d="M10.59,49.86a4.95,4.95,0,1,0,4.95,4.95A5,5,0,0,0,10.59,49.86Zm0,7.36A2.41,2.41,0,1,1,13,54.81,2.41,2.41,0,0,1,10.59,57.22Z"/><path class="cls-2" d="M23.35,59.22a4.24,4.24,0,0,1,0-8.47h25a4.24,4.24,0,1,1,0,8.47Zm0-5.53a1.3,1.3,0,0,0,0,2.59h25a1.3,1.3,0,1,0,0-2.59Z"/><path class="cls-2" d="M48.33,50.95h-25a4,4,0,0,0,0,8.07h25a4,4,0,1,0,0-8.07Zm0,5.53h-25a1.5,1.5,0,0,1,0-3h25a1.5,1.5,0,1,1,0,3Z"/><path class="cls-2" d="M23.35,45.18a4.24,4.24,0,0,1,0-8.47h25a4.24,4.24,0,1,1,0,8.47Zm0-5.53a1.3,1.3,0,0,0,0,2.59h25a1.3,1.3,0,1,0,0-2.59Z"/><path class="cls-2" d="M19.32,40.94a4,4,0,0,0,4,4h25a4,4,0,1,0,0-8.07h-25a4,4,0,0,0-4,4Zm30.52,0a1.5,1.5,0,0,1-1.5,1.49h-25a1.5,1.5,0,0,1,0-3h25A1.5,1.5,0,0,1,49.83,40.94Z"/><path class="cls-2" d="M19.07,32.66a13.58,13.58,0,1,1,9.61-4A13.51,13.51,0,0,1,19.07,32.66ZM13.26,28a10.69,10.69,0,0,0,11.62,0,5.9,5.9,0,0,0-2.72-4.24,6.25,6.25,0,0,1-6.18,0A5.9,5.9,0,0,0,13.26,28ZM19.07,8.41a10.58,10.58,0,0,0-7.54,3.12,10.7,10.7,0,0,0-.74,14.24,8.9,8.9,0,0,1,3-4.07,6.26,6.26,0,1,1,10.54,0,8.9,8.9,0,0,1,3,4.07,10.69,10.69,0,0,0-.75-14.24A10.58,10.58,0,0,0,19.07,8.41Zm0,6.57a3.33,3.33,0,1,0,3.32,3.33A3.33,3.33,0,0,0,19.07,15Z"/><path class="cls-2" d="M19.07,5.67a13.39,13.39,0,1,0,9.47,3.92,13.31,13.31,0,0,0-9.47-3.92ZM13,28.1A6.08,6.08,0,0,1,16,23.53a6,6,0,0,0,6.19,0,6.09,6.09,0,0,1,2.93,4.57,10.89,10.89,0,0,1-12,0Zm6-6.26a3.53,3.53,0,1,1,3.52-3.52A3.53,3.53,0,0,1,19.07,21.84Zm8.2,4.33a8.65,8.65,0,0,0-3.21-4.43,6.06,6.06,0,1,0-10,0,8.65,8.65,0,0,0-3.2,4.43,10.85,10.85,0,1,1,16.41,0Z"/><path class="cls-2" d="M29,2.94a1.47,1.47,0,1,1,1.47-1.47A1.47,1.47,0,0,1,29,2.94Z"/><path class="cls-2" d="M29,2.74h0a1.27,1.27,0,1,0-1.28-1.27A1.27,1.27,0,0,0,29,2.74Z"/></g></g></svg>