<?xml version="1.0" encoding="utf-8"?>
<!-- Generator: Adobe Illustrator 21.0.2, SVG Export Plug-In . SVG Version: 6.00 Build 0)  -->
<svg version="1.1" id="Layer_1" xmlns="http://www.w3.org/2000/svg" xmlns:xlink="http://www.w3.org/1999/xlink" x="0px" y="0px"
	 viewBox="0 0 100.8 145.6" style="enable-background:new 0 0 100.8 145.6;" xml:space="preserve">
<style type="text/css">
	.st0{fill:#4CB32C;}
	.st1{fill:#3C9C1F;}
	.st2{fill:#6AD449;}
	.st3{fill:#429627;}
	.st4{fill:#FF6C4C;stroke:#FCFCFC;stroke-width:3;stroke-miterlimit:10;}
	.st5{fill:#FFFFFF;}
</style>
<g>
	<path class="st0" d="M97.3,145.6H0l0-95.9C0,28,17.6,10.4,39.3,10.4H58c21.7,0,39.3,17.6,39.3,39.3V145.6z"/>
	<path class="st1" d="M81.3,60.4H16.2V48.8c0-3.8,3.1-6.9,6.9-6.9h51.3c3.8,0,6.9,3.1,6.9,6.9V60.4z"/>
	<rect x="16.2" y="108.2" class="st2" width="65.2" height="9.3"/>
	<rect x="16.2" y="76.2" class="st2" width="65.2" height="11.4"/>
	<path class="st3" d="M78.1,82.6H19.4c-1.8,0-3.2-1.4-3.2-3.2v-3c0-0.1,0.1-0.2,0.2-0.2h65v3.2C81.3,81.1,79.9,82.6,78.1,82.6z"/>
	<circle class="st4" cx="83.3" cy="17.5" r="16"/>
	<g>
		<path class="st5" d="M83.3,23.3c-0.9,0-1.6-0.1-2.3-0.4c-0.7-0.3-1.2-0.7-1.6-1.2c-0.4-0.5-0.6-1.1-0.6-1.8H81
			c0,0.3,0.1,0.6,0.3,0.9c0.2,0.2,0.5,0.4,0.8,0.6c0.3,0.1,0.7,0.2,1.1,0.2c0.4,0,0.8-0.1,1.2-0.2c0.3-0.2,0.6-0.4,0.8-0.6
			c0.2-0.3,0.3-0.6,0.3-1c0-0.4-0.1-0.7-0.3-1c-0.2-0.3-0.5-0.5-0.9-0.7s-0.8-0.2-1.3-0.2H82V16h1.1c0.4,0,0.8-0.1,1.1-0.2
			c0.3-0.1,0.6-0.4,0.8-0.6c0.2-0.3,0.3-0.6,0.3-0.9c0-0.3-0.1-0.7-0.2-0.9c-0.2-0.3-0.4-0.5-0.7-0.6c-0.3-0.1-0.6-0.2-1-0.2
			c-0.4,0-0.7,0.1-1,0.2s-0.6,0.3-0.8,0.6s-0.3,0.5-0.3,0.9H79c0-0.7,0.2-1.3,0.6-1.8s0.9-0.9,1.5-1.2s1.4-0.4,2.2-0.4
			c0.8,0,1.5,0.2,2.1,0.5c0.6,0.3,1.1,0.7,1.4,1.2c0.3,0.5,0.5,1.1,0.5,1.7c0,0.7-0.2,1.3-0.6,1.7c-0.4,0.5-0.9,0.8-1.6,0.9v0.1
			c0.9,0.1,1.5,0.4,2,1c0.5,0.5,0.7,1.2,0.7,1.9c0,0.7-0.2,1.3-0.6,1.8c-0.4,0.5-0.9,1-1.6,1.3S84.2,23.3,83.3,23.3z"/>
	</g>
</g>
<g>
</g>
<g>
</g>
<g>
</g>
<g>
</g>
<g>
</g>
<g>
</g>
</svg>
