<svg xmlns="http://www.w3.org/2000/svg" viewBox="0 0 509.44 79.95"><defs><style>.cls-1{fill:#4cb32c;}</style></defs><title>os-new-logoAsset 5</title><g id="Layer_2" data-name="Layer 2"><g id="Layer_1-2" data-name="Layer 1"><path d="M54.64,33.75c0-4.1,0-7.7-.1-11.1h11.1c.1.9.3,5,.3,7.2,1.8-4.7,6.2-8.1,13.1-8.1v10.8c-8.2-.2-13.1,2-13.1,13.2v17.8H54.64Z"/><path d="M118.24,53a74.9,74.9,0,0,0,.6,10.5H108a16.76,16.76,0,0,1-.6-4c-1.5,2.3-4.3,4.9-11.5,4.9-9.8,0-14-6.5-14-12.8,0-9.3,7.5-13.6,19.4-13.6h5.8v-2.5c0-2.9-1-5.8-6.3-5.8-4.8,0-5.8,2-6.3,5H83.84c.6-7.3,5.1-13.1,17.5-13,10.9.2,16.9,4.5,16.9,14.2Zm-11-8h-4.6c-6.8,0-9.3,2.1-9.3,6,0,3,1.8,5.4,5.9,5.4,7.2,0,8.1-5,8.1-10.4V45Z"/><path d="M128.54,33c0-3.5,0-7.3-.1-10.3h10.9a42.23,42.23,0,0,1,.4,5.2c1.4-2.6,4.7-6.1,11.8-6.1,8.2,0,13.5,5.5,13.5,15.8v26h-11.3V38.85c0-4.6-1.5-7.9-6.5-7.9-4.8,0-7.5,2.7-7.5,9.9v22.7h-11.3V33Z"/><path d="M212.34,58.55c0,13.1-4.8,21.4-20.3,21.4-14.9,0-17.8-8.3-18.2-12.9h11.5c.8,2.8,2.9,4.7,7.2,4.7,7.3,0,8.7-4.5,8.7-12.5v-1.9c-2.1,3.5-5.5,5.7-11.5,5.7-10.7,0-16.9-8.8-16.9-19.8,0-12.8,7.6-21.5,17.8-21.5,7,0,9.9,3.3,10.5,5.2.1-1.1.4-3.6.4-4.3h10.7c-.1,3.6-.1,7.8-.1,11.7v24.2Zm-27.9-15.8c0,7,3.5,11.2,8.5,11.2,6.8,0,8.6-4.7,8.6-11.5s-1.2-11.6-8.4-11.6C188.34,30.85,184.44,34.55,184.44,42.75Z"/><path d="M231.64,45.55c0,5.1,2.6,10.1,8.2,10.1,4.7,0,6-1.9,7.1-4.4h11.3c-1.4,5-5.9,13.2-18.7,13.2-13.4,0-19.3-10-19.3-20.8,0-12.8,6.6-21.9,19.7-21.9,14,0,18.8,10.1,18.8,20.3,0,1.4,0,2.3-.1,3.4h-27Zm15.7-7c-.1-4.8-2-8.7-7.5-8.7s-7.6,3.7-8,8.7Z"/><path d="M274.84,51.25c.9,3.3,3.5,5.1,7.7,5.1s5.7-1.5,5.7-4-1.8-3.6-7.6-5.1c-13.3-3.3-15.5-7.4-15.5-13.1,0-6,4.2-12.4,16.5-12.4s16.6,6.8,16.9,12.3h-10.7c-.4-1.5-1.4-4.4-6.7-4.4-3.7,0-4.9,1.7-4.9,3.5,0,2,1.3,3,7.9,4.6,13.6,3.2,15.5,7.8,15.5,13.8,0,6.8-5.1,12.9-17.6,12.9s-17.5-6-18.4-13.2Z"/><path d="M342.74,50.35c-1.4,6.8-6.2,14.1-18.3,14.1-12.7,0-19.2-8.8-19.2-21,0-12,7.4-21.6,19.8-21.6,13.8,0,17.6,9.9,17.8,14.5h-11c-.7-3.3-2.6-5.6-7-5.6-5.2,0-8.1,4.5-8.1,12.4,0,8.7,3.1,12.6,8,12.6,3.9,0,6-2.3,7-5.4Z"/><path d="M349.94,33.75c0-4.1,0-7.7-.1-11.1h11.1c.1.9.3,5,.3,7.2,1.8-4.7,6.2-8.1,13.1-8.1v10.8c-8.2-.2-13.1,2-13.1,13.2v17.8h-11.3Z"/><path d="M416.84,51.65c0,3.9,0,8.2.1,11.9h-11.1c-.2-1.1-.2-3.3-.3-4.7-2.4,4.1-6,5.7-11.2,5.7-8.3,0-13.6-5.1-13.6-15.2V22.75H392v24.3c0,4.5,1.4,8.2,6.3,8.2,5.2,0,7.3-2.7,7.3-10.8V22.75h11.3v28.9Z"/><path d="M427,33.25c0-3.5,0-7-.1-10.5h10.8c.1,1,.4,3.3.4,4.9a12.89,12.89,0,0,1,11.3-5.8c5.9,0,9.1,3,10.5,6.2,2.4-3.3,5.9-6.2,12.6-6.2,7.1,0,12.9,4.4,12.9,15v26.8h-11V38.15c0-3.7-1.3-7.3-6-7.3s-6.7,3.1-6.7,9.4v23.3h-11.1v-25c0-4.2-1-7.6-5.9-7.6-4.6,0-6.8,2.8-6.8,9.8v22.8h-11.2V33.25Z"/><circle class="cls-1" cx="501.54" cy="55.55" r="7.9"/><path d="M24.1,15.36a24.1,24.1,0,1,0,24.1,24.1,24.1,24.1,0,0,0-24.1-24.1Zm0,35.77A11.68,11.68,0,1,1,35.77,39.45h0A11.69,11.69,0,0,1,24.1,51.13Z"/><path d="M23.34,13.26S22.57.51,40.19,0C40.19,0,40.19,13.6,23.34,13.26Z"/></g></g></svg>