<svg xmlns="http://www.w3.org/2000/svg" viewBox="0 0 65 65"><defs><style>.cls-1{fill:#1c2d45;}.cls-2{fill:#4cb32c;}</style></defs><title>Resource Asset 1</title><g id="Layer_2" data-name="Layer 2"><g id="Layer_1-2" data-name="Layer 1"><path class="cls-1" d="M60.18,50.72V42.66a2.54,2.54,0,0,0-2.54-2.54H35V35h7.62a2.54,2.54,0,0,0,2.47-3.12l-3.08-13a2.54,2.54,0,0,0-2.47-2H25.42a2.54,2.54,0,0,0-2.47,2l-3.08,13A2.54,2.54,0,0,0,22.34,35H30v5.08H7.36a2.54,2.54,0,0,0-2.54,2.54v8.07a7.36,7.36,0,1,0,5.08,0V45.2H30v5.53a7.36,7.36,0,1,0,5.08,0V45.2H55.1v5.53a7.36,7.36,0,1,0,5.08,0ZM7.36,59.92a2.29,2.29,0,1,1,2.29-2.29A2.29,2.29,0,0,1,7.36,59.92Zm25.14,0a2.29,2.29,0,1,1,2.29-2.29A2.29,2.29,0,0,1,32.5,59.92ZM25.56,30l1.87-7.9H37.57L39.44,30Zm32.08,30a2.29,2.29,0,1,1,2.29-2.29A2.29,2.29,0,0,1,57.64,59.92ZM32.5,14.73a7.36,7.36,0,1,0-7.36-7.36A7.37,7.37,0,0,0,32.5,14.73Zm0-9.65a2.29,2.29,0,1,1-2.29,2.29A2.29,2.29,0,0,1,32.5,5.08Z"/><circle class="cls-2" cx="32.5" cy="7.31" r="4.62"/><circle class="cls-2" cx="32.5" cy="57.72" r="3.81"/><circle class="cls-2" cx="57.75" cy="57.72" r="3.81"/><circle class="cls-2" cx="7.37" cy="57.72" r="3.81"/></g></g></svg>