<svg xmlns="http://www.w3.org/2000/svg" viewBox="0 0 65 65"><defs><style>.cls-1{fill:#4cb32c;}.cls-2{fill:#1c2d45;}</style></defs><title>timesheetAsset 1</title><g id="Layer_2" data-name="Layer 2"><g id="Capa_1" data-name="Capa 1"><circle class="cls-1" cx="49.64" cy="49.64" r="11.92"/><circle class="cls-1" cx="49" cy="26.66" r="2.54"/><path class="cls-2" d="M54.84,5.08h-3.3V2.54a2.54,2.54,0,0,0-5.08,0V5.08H34.91V2.54a2.54,2.54,0,0,0-5.08,0V5.08H18.41V2.54a2.54,2.54,0,0,0-5.08,0V5.08H10.16A10.17,10.17,0,0,0,0,15.23V54.84A10.17,10.17,0,0,0,10.16,65H29.58a2.54,2.54,0,0,0,0-5.08H10.16a5.08,5.08,0,0,1-5.08-5.08V15.23a5.08,5.08,0,0,1,5.08-5.08h3.17V12.7a2.54,2.54,0,0,0,5.08,0V10.16H29.83V12.7a2.54,2.54,0,0,0,5.08,0V10.16H46.46V12.7a2.54,2.54,0,0,0,5.08,0V10.16h3.3a5.08,5.08,0,0,1,5.08,5.08V29.71a2.54,2.54,0,0,0,5.08,0V15.23A10.17,10.17,0,0,0,54.84,5.08Z"/><path class="cls-2" d="M49.64,34.28A15.36,15.36,0,1,0,65,49.64,15.38,15.38,0,0,0,49.64,34.28Zm0,25.64A10.28,10.28,0,1,1,59.92,49.64,10.29,10.29,0,0,1,49.64,59.92Z"/><path class="cls-2" d="M53.32,47.1H52.18V44.43a2.54,2.54,0,0,0-5.08,0v5.21a2.54,2.54,0,0,0,2.54,2.54h3.68a2.54,2.54,0,0,0,0-5.08Z"/><circle class="cls-1" cx="37.96" cy="26.66" r="2.54"/><circle class="cls-2" cx="26.91" cy="37.71" r="2.54"/><circle class="cls-1" cx="15.87" cy="26.66" r="2.54"/><circle class="cls-1" cx="15.87" cy="37.71" r="2.54"/><circle class="cls-2" cx="15.87" cy="48.75" r="2.54"/><circle class="cls-2" cx="26.91" cy="48.75" r="2.54"/><circle class="cls-1" cx="26.91" cy="26.66" r="2.54"/></g></g></svg>