<svg xmlns="http://www.w3.org/2000/svg" viewBox="0 0 65 67.9"><defs><style>.cls-1{fill:#4cb32c;}.cls-2{fill:#1c2d45;}</style></defs><title>TimesheetAsset 1</title><g id="Layer_2" data-name="Layer 2"><g id="Capa_1" data-name="Capa 1"><circle class="cls-1" cx="49.97" cy="44.15" r="13.03"/><path class="cls-2" d="M16.55,30.26a4.92,4.92,0,1,1,4.92-4.92A4.92,4.92,0,0,1,16.55,30.26Zm0-6.8a1.88,1.88,0,1,0,1.88,1.88A1.88,1.88,0,0,0,16.55,23.45Z"/><path class="cls-2" d="M16.55,20.62a4.72,4.72,0,1,0,4.72,4.72A4.72,4.72,0,0,0,16.55,20.62Zm0,6.8a2.08,2.08,0,1,1,2.08-2.08A2.08,2.08,0,0,1,16.55,27.42Z"/><path class="cls-2" d="M16.55,55.3a4.92,4.92,0,1,1,4.92-4.92A4.92,4.92,0,0,1,16.55,55.3Zm0-6.8a1.88,1.88,0,1,0,1.88,1.88A1.88,1.88,0,0,0,16.55,48.5Z"/><path class="cls-2" d="M16.55,45.66a4.72,4.72,0,1,0,4.72,4.72A4.72,4.72,0,0,0,16.55,45.66Zm0,6.8a2.08,2.08,0,1,1,2.08-2.08A2.08,2.08,0,0,1,16.55,52.47Z"/><path class="cls-2" d="M16.55,42.78a4.91,4.91,0,1,1,4.92-4.92A4.92,4.92,0,0,1,16.55,42.78Zm0-6.8a1.88,1.88,0,1,0,1.88,1.88A1.88,1.88,0,0,0,16.55,36Z"/><path class="cls-2" d="M16.55,33.14a4.72,4.72,0,1,0,4.72,4.72,4.72,4.72,0,0,0-4.72-4.72Zm0,6.8a2.08,2.08,0,1,1,2.08-2.08,2.08,2.08,0,0,1-2.08,2.08Z"/><path class="cls-2" d="M25,26.86a1.52,1.52,0,0,1,0-3H38.34a1.52,1.52,0,1,1,0,3Z"/><path class="cls-2" d="M38.34,24H25a1.32,1.32,0,0,0,0,2.64H38.34a1.32,1.32,0,0,0,0-2.64Z"/><path class="cls-2" d="M4.26,67.9A4.27,4.27,0,0,1,0,63.64V11A4.27,4.27,0,0,1,4.26,6.75H18.59A7.2,7.2,0,0,1,33,6.75H47.3A4.27,4.27,0,0,1,51.56,11V29.11a15,15,0,0,1,0,29.87v4.91a4.2,4.2,0,0,1-4.26,4Zm0-58.11A1.23,1.23,0,0,0,3,11V63.64a1.23,1.23,0,0,0,1.23,1.23h43a1.22,1.22,0,0,0,1.23-1V59a14.84,14.84,0,0,1-2.87-.58v2.09A1.52,1.52,0,0,1,44.14,62H7.42A1.52,1.52,0,0,1,5.9,60.49V14.17a1.52,1.52,0,0,1,1.52-1.52h4.85V9.79ZM42.62,59v-1.9A15.11,15.11,0,0,1,37.3,51.9H25a1.52,1.52,0,1,1,0-3H35.88a15.07,15.07,0,0,1-.05-9.49H25a1.52,1.52,0,1,1,0-3h12.2A15.09,15.09,0,0,1,42.62,31V15.69H8.94V59ZM50,32.07A12,12,0,1,0,62,44,12,12,0,0,0,50,32.07Zm-5.9-19.42a1.52,1.52,0,0,1,1.52,1.52V29.69a14.83,14.83,0,0,1,2.87-.58V11A1.23,1.23,0,0,0,47.3,9.79h-8v2.86Zm-7.89,0V9.79H31.36A1.52,1.52,0,0,1,29.87,8a4.17,4.17,0,1,0-8.19,0,1.52,1.52,0,0,1-1.49,1.8H15.31v2.86Z"/><path class="cls-2" d="M64.8,44A14.81,14.81,0,0,0,51.36,29.29V11A4.07,4.07,0,0,0,47.3,7H32.78a7,7,0,0,0-14,0H4.26A4.07,4.07,0,0,0,.2,11V63.64A4.07,4.07,0,0,0,4.26,67.7h43a4,4,0,0,0,4.06-3.82V58.8A14.81,14.81,0,0,0,64.8,44ZM48.72,11V29.29a14.61,14.61,0,0,0-3.27.67V14.17a1.32,1.32,0,0,0-1.32-1.32H39.09V9.59H47.3A1.43,1.43,0,0,1,48.72,11ZM37.32,36.54H25a1.32,1.32,0,0,0,0,2.64H36.1a14.88,14.88,0,0,0,.06,9.89H25a1.32,1.32,0,1,0,0,2.64H37.42A14.89,14.89,0,0,0,42.82,57v2.21H8.74V15.49H42.82V31.13A14.9,14.9,0,0,0,37.32,36.54ZM20.2,9.59A1.32,1.32,0,0,0,21.49,8a4.37,4.37,0,1,1,8.58,0,1.32,1.32,0,0,0,1.29,1.57h5.09v3.26H15.11V9.59ZM47.3,65.07h-43a1.43,1.43,0,0,1-1.43-1.43V11A1.43,1.43,0,0,1,4.26,9.59h8.21v3.26H7.42A1.32,1.32,0,0,0,6.1,14.17V60.49A1.32,1.32,0,0,0,7.42,61.8H44.14a1.32,1.32,0,0,0,1.32-1.32V58.12a14.6,14.6,0,0,0,3.27.67v5.09a1.41,1.41,0,0,1-1.43,1.18ZM50,56.22A12.17,12.17,0,1,1,62.16,44,12.16,12.16,0,0,1,50,56.22Z"/><path class="cls-2" d="M52.67,43.45H51v-4a1.91,1.91,0,1,0-3.82,0v6a1.91,1.91,0,0,0,1.91,1.91h3.56a1.91,1.91,0,1,0,0-3.82Z"/><circle class="cls-1" cx="16.55" cy="25.34" r="3.01"/><circle class="cls-1" cx="16.55" cy="37.86" r="2.99"/><circle class="cls-1" cx="16.55" cy="50.38" r="2.9"/></g></g></svg>