<svg xmlns="http://www.w3.org/2000/svg" viewBox="0 0 65 78.03"><defs><style>.cls-1{fill:#1c2d45;}.cls-2{fill:#4cb32c;}</style></defs><title>timerAsset 1</title><g id="Layer_2" data-name="Layer 2"><g id="Layer_1-2" data-name="Layer 1"><path class="cls-1" d="M56.13,23.22l4.67-4.67L56.2,14l-5,5a32.29,32.29,0,0,0-15.46-5.78V6.5h6.5V0H22.75V6.5h6.5v6.66a32.29,32.29,0,0,0-15.46,5.78l-5-5-4.6,4.6,4.67,4.67a32.5,32.5,0,1,0,47.25,0ZM32.5,71.5a26,26,0,1,1,26-26A26,26,0,0,1,32.5,71.5Z"/><path class="cls-2" d="M32.5,26V45.5H13A19.5,19.5,0,1,0,32.5,26Z"/></g></g></svg>