<svg xmlns="http://www.w3.org/2000/svg" viewBox="0 0 53.32 65"><defs><style>.cls-1{fill:#4cb32c;}.cls-2{fill:#1c2d45;}</style></defs><title>User productivityAsset 1</title><g id="Layer_2" data-name="Layer 2"><g id="Capa_1" data-name="Capa 1"><circle class="cls-1" cx="26.66" cy="26.78" r="12.81"/><path class="cls-2" d="M51.27,0H2.05A2,2,0,0,0,0,1.9V63.1A2,2,0,0,0,2.05,65H51.27a2,2,0,0,0,2.05-1.9V1.9A2,2,0,0,0,51.27,0ZM49.22,61.19H4.1V3.81H49.22Z"/><path class="cls-2" d="M11.42,26.78A15.23,15.23,0,1,0,26.66,11.55,15.25,15.25,0,0,0,11.42,26.78Zm7.83,8.7,3-2.5A7.62,7.62,0,0,0,34,28.69h3.89a11.44,11.44,0,0,1-18.67,6.79ZM26.66,23a3.81,3.81,0,1,1-3.81,3.81A3.81,3.81,0,0,1,26.66,23Zm11.27,1.9H34a7.65,7.65,0,0,0-5.47-5.47V15.51A11.45,11.45,0,0,1,37.92,24.88ZM24.75,15.51V19.4a7.63,7.63,0,0,0-5,10.66l-3,2.5a11.44,11.44,0,0,1,7.95-17Z"/><path class="cls-2" d="M11.43,49.63h5.7a1.9,1.9,0,0,0,0-3.81h-5.7a1.9,1.9,0,0,0,0,3.81Z"/><path class="cls-2" d="M26.64,53.44H11.43a1.9,1.9,0,0,0,0,3.81H26.64a1.9,1.9,0,0,0,0-3.81Z"/><path class="cls-2" d="M24.76,45.82a1.9,1.9,0,0,0,0,3.81H41.89a1.9,1.9,0,0,0,0-3.81Z"/><path class="cls-1" d="M41.9,53.44H34.27a1.9,1.9,0,0,0,0,3.81H41.9a1.9,1.9,0,0,0,0-3.81Z"/><path class="cls-1" d="M11.42,11.55h3.82a1.9,1.9,0,1,0,0-3.81H11.42a1.9,1.9,0,1,0,0,3.81Z"/></g></g></svg>