<svg xmlns="http://www.w3.org/2000/svg" viewBox="0 0 66 66"><defs><style>.cls-1{fill:#4cb32c;}.cls-2{fill:#1c2d45;}</style></defs><title>User DashboardAsset 1</title><g id="Layer_2" data-name="Layer 2"><g id="light"><circle class="cls-1" cx="8.63" cy="57.38" r="6.58"/><circle class="cls-1" cx="8.63" cy="57.38" r="6.08"/><circle class="cls-1" cx="56.02" cy="7.27" r="5.83"/><circle class="cls-1" cx="56.02" cy="7.27" r="5.33"/><circle class="cls-1" cx="43.83" cy="37.06" r="3.17"/><circle class="cls-1" cx="43.83" cy="37.06" r="2.67"/><path class="cls-2" d="M56,14.54a7.27,7.27,0,1,1,7.27-7.27A7.28,7.28,0,0,1,56,14.54ZM56,3.71a3.56,3.56,0,1,0,3.56,3.56A3.57,3.57,0,0,0,56,3.71Z"/><path class="cls-2" d="M56,14a6.77,6.77,0,1,1,6.77-6.77A6.78,6.78,0,0,1,56,14ZM56,3.21a4.06,4.06,0,1,0,4.06,4.06A4.07,4.07,0,0,0,56,3.21Z"/><path class="cls-2" d="M64.15,17.25a1.85,1.85,0,0,1-1.31-.54l-4.06-4.06A1.85,1.85,0,1,1,61.39,10l4.06,4.06a1.85,1.85,0,0,1-1.31,3.16Z"/><path class="cls-2" d="M64.15,16.75a1.36,1.36,0,0,1-1-.4l-4.06-4.06A1.35,1.35,0,0,1,61,10.38l4.06,4.06a1.35,1.35,0,0,1-1,2.31Z"/><path class="cls-2" d="M4.56,17.25A4.57,4.57,0,0,1,0,12.69V4.56A4.57,4.57,0,0,1,4.56,0H39.77a4.57,4.57,0,0,1,4.56,4.56v8.13a4.57,4.57,0,0,1-4.56,4.56Zm0-13.54a.86.86,0,0,0-.85.85v8.13a.86.86,0,0,0,.85.85H39.77a.86.86,0,0,0,.85-.85V4.56a.86.86,0,0,0-.85-.85Z"/><path class="cls-2" d="M39.77,16.75H4.56A4.07,4.07,0,0,1,.5,12.69V4.56A4.07,4.07,0,0,1,4.56.5H39.77a4.07,4.07,0,0,1,4.06,4.06v8.13A4.07,4.07,0,0,1,39.77,16.75ZM4.56,3.21A1.36,1.36,0,0,0,3.21,4.56v8.13A1.36,1.36,0,0,0,4.56,14H39.77a1.36,1.36,0,0,0,1.35-1.35V4.56a1.36,1.36,0,0,0-1.35-1.35Z"/><path class="cls-2" d="M8.63,66a8.63,8.63,0,1,1,8.63-8.62A8.63,8.63,0,0,1,8.63,66Zm0-13.54a4.92,4.92,0,1,0,4.92,4.92A4.92,4.92,0,0,0,8.63,52.46Z"/><path class="cls-2" d="M8.63,65.5a8.13,8.13,0,1,1,8.13-8.12A8.13,8.13,0,0,1,8.63,65.5ZM8.63,52A5.42,5.42,0,1,0,14,57.38,5.42,5.42,0,0,0,8.63,52Z"/><path class="cls-2" d="M1.85,36.21a1.85,1.85,0,0,1,0-3.71H15.4a1.85,1.85,0,0,1,0,3.71Z"/><path class="cls-2" d="M15.4,35.71H1.85a1.35,1.35,0,1,1,0-2.71H15.4a1.35,1.35,0,1,1,0,2.71Z"/><path class="cls-2" d="M1.85,44.33a1.85,1.85,0,1,1,0-3.71H15.4a1.85,1.85,0,1,1,0,3.71Z"/><path class="cls-2" d="M15.4,43.83H1.85a1.35,1.35,0,1,1,0-2.71H15.4a1.35,1.35,0,1,1,0,2.71Z"/><path class="cls-2" d="M1.85,28.08a1.85,1.85,0,0,1,0-3.71H15.4a1.85,1.85,0,0,1,0,3.71Z"/><path class="cls-2" d="M15.4,27.58H1.85a1.35,1.35,0,1,1,0-2.71H15.4a1.35,1.35,0,1,1,0,2.71Z"/><path class="cls-2" d="M26.23,66a4.57,4.57,0,0,1-4.56-4.56V26.23a4.57,4.57,0,0,1,4.56-4.56H61.44A4.57,4.57,0,0,1,66,26.23V61.44A4.57,4.57,0,0,1,61.44,66Zm0-40.63a.86.86,0,0,0-.85.85V61.44a.85.85,0,0,0,.85.85H61.44a.86.86,0,0,0,.85-.85V26.23a.86.86,0,0,0-.85-.85Z"/><path class="cls-2" d="M61.44,65.5H26.23a4.07,4.07,0,0,1-4.06-4.06V26.23a4.07,4.07,0,0,1,4.06-4.06H61.44a4.07,4.07,0,0,1,4.06,4.06V61.44A4.07,4.07,0,0,1,61.44,65.5ZM26.23,24.88a1.36,1.36,0,0,0-1.35,1.35V61.44a1.36,1.36,0,0,0,1.35,1.35H61.44a1.36,1.36,0,0,0,1.35-1.35V26.23a1.36,1.36,0,0,0-1.35-1.35Z"/><path class="cls-2" d="M43.83,41.63a4.56,4.56,0,1,1,4.56-4.56A4.57,4.57,0,0,1,43.83,41.63Zm0-6.77a2.2,2.2,0,1,0,2.2,2.2A2.21,2.21,0,0,0,43.83,34.86Z"/><path class="cls-2" d="M50.6,52.46a1.86,1.86,0,0,1-1.85-1.85V49.25A2.21,2.21,0,0,0,46.54,47H41.13a2.21,2.21,0,0,0-2.21,2.21V50.6a1.85,1.85,0,0,1-3.71,0V49.25a5.92,5.92,0,0,1,5.92-5.92h5.42a5.92,5.92,0,0,1,5.92,5.92V50.6A1.86,1.86,0,0,1,50.6,52.46Z"/><path class="cls-2" d="M50.6,52a1.35,1.35,0,0,1-1.35-1.35V49.25a2.71,2.71,0,0,0-2.71-2.71H41.13a2.71,2.71,0,0,0-2.71,2.71V50.6a1.35,1.35,0,0,1-2.71,0V49.25a5.42,5.42,0,0,1,5.42-5.42h5.42A5.42,5.42,0,0,1,52,49.25V50.6A1.35,1.35,0,0,1,50.6,52Z"/></g></g></svg>