<?xml version="1.0" standalone="no"?>
<!DOCTYPE svg PUBLIC "-//W3C//DTD SVG 1.1//EN" "http://www.w3.org/Graphics/SVG/1.1/DTD/svg11.dtd" >
<svg>
<metadata>
Created by FontForge 20090914 at Tue Jun 25 07:42:12 2013
 By www-data
Copyright (c) 2011, Pablo Impallari (www.impallari.com|impallari@gmail.com),Copyright (c) 2011, Igino Marini. (www.ikern.com|mail@iginomarini.com),with Reserved Font Name Kaushan Script.
</metadata>
<defs>
<font id="KaushanScript-Regular" horiz-adv-x="723" >
  <font-face 
    font-family="Kaushan Script"
    font-weight="400"
    font-stretch="normal"
    units-per-em="1000"
    panose-1="3 6 6 2 4 7 5 8 2 5"
    ascent="800"
    descent="-200"
    x-height="468.998"
    cap-height="714.002"
    bbox="-207.997 -367.005 1156 1084"
    underline-thickness="47"
    underline-position="-49"
    unicode-range="U+000D-U+FB04"
  />
<missing-glyph horiz-adv-x="444" 
d="M60 714h324v-714h-324v714zM96 30h252v654h-252v-654z" />
    <glyph glyph-name="f_f" unicode="ff" horiz-adv-x="596" 
d="M793 722c-11.333 0 -23.665 -7.00391 -36.998 -21.0039s-27.5 -33.5 -42.5 -58.5s-30 -54.833 -45 -89.5s-29.5 -73 -43.5 -115c15.333 -0.666992 31.5 -1.5 48.5 -2.5s31.5 -2.5 43.5 -4.5c1.33301 -2.66699 2 -7.33398 2 -14.001
c0 -7.33301 -0.833008 -15.333 -2.5 -24s-4.16699 -15.334 -7.5 -20.001c-16.667 1.33301 -33.167 2.83301 -49.5 4.5s-33.166 3.16699 -50.499 4.5l-89.5 -275c-26.333 -78 -50.666 -144.833 -72.999 -200.5s-43.166 -101.167 -62.499 -136.5s-39 -63.166 -59 -83.499
s-40.833 -34.333 -62.5 -42s-45.5 -11.5 -71.5 -11.5c-30 0 -55.167 4.5 -75.5 13.5s-39.166 21.167 -56.499 36.5c-20 -18.667 -40.833 -31.667 -62.5 -39s-45.834 -11 -72.501 -11c-47.333 0 -87.666 16 -120.999 48c0 4.66699 1.33301 9.66699 4 15s5.66699 9 9 11
c9.33301 -11.333 21.666 -20.166 36.999 -26.499s31.333 -9.5 48 -9.5c17.333 0 33.166 3.83301 47.499 11.5s28.333 20.5 42 38.5s27.334 41.667 41.001 71s28.5 65.666 44.5 108.999c24.667 66.667 48.667 138.667 72 216l77 259l-45 -4
c-14.667 -1.33301 -28.334 -2.66602 -41.001 -3.99902c-2.66699 2.66699 -4.83398 6.33398 -6.50098 11.001s-2.5 9 -2.5 13c8.66699 2.66699 22.167 5.83398 40.5 9.50098s40.166 7.5 65.499 11.5c15.333 50 32 95 50 135s37.667 74.333 59 103s44.5 50.667 69.5 66
s52.167 23 81.5 23c26 0 50.833 -6.66699 74.5 -20s45.5 -27.666 65.5 -42.999c22 23.333 45.167 42 69.5 56s48.166 21 71.499 21c7.33301 0 14.833 -0.5 22.5 -1.5s13.5 -1.5 17.5 -1.5c6 4.66699 14 8.83398 24 12.501s18.667 5.5 26 5.5c8 0 18.333 -4.33301 31 -13
c-5.33301 -9.33301 -11 -22 -17 -38s-11 -31.667 -15 -47c-16.667 -49.333 -34.334 -81.333 -53.001 -96c-7.33301 0 -11.333 9.66699 -12 29c-1.33301 14.667 -3.83301 27.5 -7.5 38.5s-5.5 23.167 -5.5 36.5c0 4 0.333008 8.83301 1 14.5s2 15.167 4 28.5z
M335.001 -99.0039c11.333 30.667 23.335 65.334 36.002 104.001l38.5 121l39.5 129.5l38 130.5h-19c-17.333 0 -35.833 -0.166992 -55.5 -0.5s-39.834 -0.833008 -60.501 -1.5l-83.5 -261.5c-25 -75 -48.333 -140 -70 -195s-42.334 -100.667 -62.001 -137
s-39.167 -65.833 -58.5 -88.5c10 -9.33301 22.5 -16.833 37.5 -22.5s29.833 -8.5 44.5 -8.5c16.667 0 32.167 3.83301 46.5 11.5s28.333 20.5 42 38.5s27.5 41.667 41.5 71s29 65.666 45 108.999zM501.003 436.996c12 39.333 27.5029 77.001 46.5029 113.001
s40.167 68.667 63.5 98c-14.667 9.33301 -28.334 15.666 -41.001 18.999s-21.667 5 -27 5c-17.333 0 -33.333 -5.16699 -48 -15.5s-29 -25.833 -43 -46.5s-27.833 -46 -41.5 -76s-28.167 -65 -43.5 -105c21.333 2 43.166 3.66699 65.499 5s45.166 2.33301 68.499 3z" />
    <glyph glyph-name="f_i" unicode="fi" horiz-adv-x="582" 
d="M529 439c3.33301 0 10.4932 -0.168945 21.4932 -0.501953s23.5 -0.666016 37.5 -0.999023s28.167 -1.16602 42.5 -2.49902s26.5 -3 36.5 -5c6.66699 -7.33301 11.667 -14.333 15 -21c-15.333 -20 -30 -42.667 -44 -68s-27 -51.5 -39 -78.5s-22.833 -53.667 -32.5 -80
s-18 -50.666 -25 -72.999s-12.667 -41.833 -17 -58.5s-6.83301 -28.667 -7.5 -36c-1.33301 -12 -1.83301 -20.5 -1.5 -25.5s-1.16699 -7.5 -4.5 -7.5c-2.66699 0 -8 1.66699 -16 5s-16.167 8.5 -24.5 15.5s-15.833 15.833 -22.5 26.5s-10 23.334 -10 38.001
c0 18.667 2.66699 42.167 8 70.5s12.333 57.5 21 87.5s18.667 58.833 30 86.5s23 50.167 35 67.5c-21.333 1.33301 -42.666 2.5 -63.999 3.5s-42.666 1.5 -63.999 1.5h-22c-7.33301 0 -14.666 -0.333008 -21.999 -1l-89.5 -274c-26.333 -78 -50.666 -144.833 -72.999 -200.5
s-43.666 -101.334 -63.999 -137.001s-40.666 -63.667 -60.999 -84s-41.833 -34.5 -64.5 -42.5s-47.667 -12 -75 -12c-47.333 0 -87.666 16 -120.999 48c0 4.66699 1.33301 9.66699 4 15s5.66699 9 9 11c9.33301 -11.333 21.666 -20.166 36.999 -26.499s31.333 -9.5 48 -9.5
c17.333 0 33.166 3.83301 47.499 11.5s28.333 20.5 42 38.5s27.334 41.667 41.001 71s28.5 65.666 44.5 108.999c23.333 64 47.5 136.667 72.5 218l76.5 258c-25.333 -1.33301 -46.333 -3 -63 -5l-33 -4c-2.66699 2.66699 -4.83398 6.33398 -6.50098 11.001s-2.5 9 -2.5 13
c10.667 3.33301 25.834 7.16602 45.501 11.499s43.5 8.83301 71.5 13.5c16 48 33.667 91.5 53 130.5s40.166 72.167 62.499 99.5s46.333 48.333 72 63s53.5 22 83.5 22c10.667 0 22.5 -2.16699 35.5 -6.5s25.667 -9 38 -14l33.5 -14c10 -4.33301 17.667 -6.5 23 -6.5
c8 4.66699 19.167 8.83398 33.5 12.501s26.5 5.5 36.5 5.5c8 0 18.333 -4.33301 31 -13c-6 -9.33301 -12 -22 -18 -38s-10.667 -31.667 -14 -47c-16.667 -49.333 -34.334 -81.333 -53.001 -96c-3.33301 0 -6.16602 2.16699 -8.49902 6.5s-3.5 11.833 -3.5 22.5
c0 7.33301 -1.66699 14 -5 20s-7.16602 12 -11.499 18s-8.16602 12 -11.499 18s-5 12.333 -5 19c0 4 0.333008 8.83301 1 14.5s2 15.167 4 28.5c-8 0.666992 -15.833 1.16699 -23.5 1.5s-15.167 0.5 -22.5 0.5c-26 0 -49.167 -6.33301 -69.5 -19
s-38.5 -29.834 -54.5 -51.501s-30.333 -46.334 -43 -74.001s-24 -56.5 -34 -86.5l72.5 4c25 1.33301 51.833 2 80.5 2z" />
    <glyph glyph-name="f_l" unicode="fl" horiz-adv-x="587" 
d="M447 64c0 29.333 6.99707 70.502 20.9971 123.502s33.667 114.833 59 185.5c20.667 56.667 40.5 108.167 59.5 154.5s37.833 88.5 56.5 126.5c-12 3.33301 -24.5 5.83301 -37.5 7.5s-22.5 2.5 -28.5 2.5c-26 0 -49.167 -6.33301 -69.5 -19s-38.5 -29.834 -54.5 -51.501
s-30.333 -46.334 -43 -74.001s-24 -56.5 -34 -86.5c14 1.33301 28.5 2.33301 43.5 3l46.5 2c-8 -7.33301 -15 -16.833 -21 -28.5s-9.66699 -20.167 -11 -25.5h-30h-22c-7.33301 0 -14.666 -0.333008 -21.999 -1l-89.5 -274c-26.333 -78 -50.666 -144.833 -72.999 -200.5
s-43.666 -101.334 -63.999 -137.001s-40.666 -63.667 -60.999 -84s-41.833 -34.5 -64.5 -42.5s-47.667 -12 -75 -12c-47.333 0 -87.666 16 -120.999 48c0 4.66699 1.33301 9.66699 4 15s5.66699 9 9 11c9.33301 -11.333 21.666 -20.166 36.999 -26.499s31.333 -9.5 48 -9.5
c17.333 0 33.166 3.83301 47.499 11.5s28.333 20.5 42 38.5s27.334 41.667 41.001 71s28.5 65.666 44.5 108.999c23.333 64 47.5 136.667 72.5 218l76.5 258c-25.333 -1.33301 -46.333 -3 -63 -5l-33 -4c-2.66699 2.66699 -4.83398 6.33398 -6.50098 11.001s-2.5 9 -2.5 13
c10.667 3.33301 25.667 7.33301 45 12s43.333 9.33398 72 14.001c16 48 33.667 91.5 53 130.5s40.166 72 62.499 99s46.333 47.833 72 62.5s53.5 22 83.5 22c8.66699 0 19.334 -1.66699 32.001 -5s25.667 -7.5 39 -12.5s26.333 -10.167 39 -15.5
s23.334 -9.66602 32.001 -12.999c31.333 61.333 61.666 109.333 90.999 144c8 -1.33301 17.833 -4.66602 29.5 -9.99902s23.167 -11.166 34.5 -17.499s21.5 -12.833 30.5 -19.5s14.833 -12 17.5 -16c-52 -61.333 -97.667 -127.333 -137 -198s-75.333 -151.667 -108 -243
c-28 -78.667 -49.333 -149.5 -64 -212.5s-22 -115.5 -22 -157.5v-21c0 -2.66699 0.333008 -5.33398 1 -8.00098c-9.33301 1.33301 -17.333 3.66602 -24 6.99902s-11 7.33301 -13 12c-1.33301 3.33301 -5 8.16602 -11 14.499s-11.333 11.166 -16 14.499
c-6 4 -11 14.5 -15 31.5s-6 36.167 -6 57.5z" />
    <glyph glyph-name="f_f_i" unicode="ffi" horiz-adv-x="858" 
d="M125 375c15.333 3.33301 32.4961 6.83594 51.4961 10.5029s39.167 7.16699 60.5 10.5c16 52 33.167 99.167 51.5 141.5s38.333 78.5 60 108.5s45.167 53.167 70.5 69.5s53 24.5 83 24.5c25.333 0 49.666 -6.5 72.999 -19.5s45 -27.167 65 -42.5
c19.333 24.667 40 43.5 62 56.5s45.667 19.5 71 19.5c12 0 25.5 -3.33301 40.5 -10s29.5 -13.834 43.5 -21.501l39 -21.5c12 -6.66699 21 -10 27 -10c8 4.66699 19.167 8.83398 33.5 12.501s26.5 5.5 36.5 5.5c8 0 18.333 -4.33301 31 -13c-6 -9.33301 -12 -22 -18 -38
s-10.667 -31.667 -14 -47c-16.667 -49.333 -34.334 -81.333 -53.001 -96c-3.33301 0 -6.16602 2.16699 -8.49902 6.5s-3.5 11.833 -3.5 22.5c0 7.33301 -1.66699 14 -5 20s-7.16602 12 -11.499 18s-8.16602 12 -11.499 18s-5 12.333 -5 19c0 4 0.333008 8.83301 1 14.5
s2 15.167 4 28.5c-24 16 -46 24 -66 24c-21.333 0 -40.666 -7 -57.999 -21s-33.333 -32.5 -48 -55.5s-28.167 -49.5 -40.5 -79.5s-23.5 -60.667 -33.5 -92c19.333 0.666992 38.5 1.16699 57.5 1.5s38.5 0.5 58.5 0.5c26.667 0 54.334 -0.666992 83.001 -2s59 -4 91 -8
c6.66699 -7.33301 11.667 -14.333 15 -21c-15.333 -20 -30 -42.667 -44 -68s-27 -51.5 -39 -78.5s-22.833 -53.667 -32.5 -80s-18 -50.666 -25 -72.999s-12.667 -41.833 -17 -58.5s-6.83301 -28.667 -7.5 -36c-1.33301 -12 -1.83301 -20.5 -1.5 -25.5
s-1.16699 -7.5 -4.5 -7.5c-2.66699 0 -8 1.66699 -16 5s-16.167 8.5 -24.5 15.5s-15.833 15.833 -22.5 26.5s-10 23.334 -10 38.001c0 18.667 2.66699 42.167 8 70.5s12.333 57.5 21 87.5s18.667 58.833 30 86.5s23 50.167 35 67.5c-30 2 -59.167 3.16699 -87.5 3.5
s-56.5 0.5 -84.5 0.5l-86.5 -275c-25.667 -78 -49.667 -144.667 -72 -200s-43.833 -100.833 -64.5 -136.5s-41.5 -63.834 -62.5 -84.501s-43 -34.834 -66 -42.501s-48.167 -11.5 -75.5 -11.5c-25.333 0 -49.5 5.16699 -72.5 15.5s-43.167 25.166 -60.5 44.499
c-22 -22.667 -44.667 -38.334 -68 -47.001s-49.333 -13 -78 -13c-47.333 0 -87.666 16 -120.999 48c0 4.66699 1.33301 9.66699 4 15s5.66699 9 9 11c9.33301 -11.333 21.666 -20.166 36.999 -26.499s31.333 -9.5 48 -9.5c17.333 0 33.166 3.83301 47.499 11.5
s28.333 20.5 42 38.5s27.334 41.667 41.001 71s28.5 65.666 44.5 108.999c24 64.667 47.333 134.167 70 208.5l74 248.5c-17.333 -2.66699 -33.666 -5.33398 -48.999 -8.00098s-29.666 -5.66699 -42.999 -9c-2.66699 2.66699 -4.83398 8 -6.50098 16s-2.5 14 -2.5 18z
M510.996 381.003c-28 -0.666992 -54.999 -1.66504 -80.999 -2.99805s-51.333 -3 -76 -5l-79.5 -249c-23.667 -72 -46 -134.667 -67 -188s-40.833 -98.333 -59.5 -135s-37.334 -66.334 -56.001 -89.001c9.33301 -11.333 21 -21 35 -29s33.667 -12 59 -12
c17.333 0 33.166 3.83301 47.499 11.5s28.333 20.5 42 38.5s27.334 41.667 41.001 71s28.5 65.666 44.5 108.999c23.333 64.667 47.5 138 72.5 220zM367.997 415.005c24.667 3.33301 50.1689 6.33398 76.502 9.00098s53.5 5 81.5 7c13.333 44 27.666 84.167 42.999 120.5
s31.666 68.166 48.999 95.499c-15.333 9.33301 -29.333 15.833 -42 19.5s-21.667 5.5 -27 5.5c-18 0 -34.5 -5.5 -49.5 -16.5s-29.5 -27.333 -43.5 -49s-28.167 -48.5 -42.5 -80.5s-29.5 -69 -45.5 -111z" />
    <glyph glyph-name="f_f_l" unicode="ffl" horiz-adv-x="861" 
d="M721 64c0 29.333 7.00195 70.5078 21.002 123.508s33.667 114.833 59 185.5c41.333 113.333 80.666 208 117.999 284c-18.667 12.667 -34.834 20.667 -48.501 24s-26.167 5 -37.5 5c-21.333 0 -40.666 -7 -57.999 -21s-33.333 -32.5 -48 -55.5s-28.167 -49.5 -40.5 -79.5
s-23.5 -60.667 -33.5 -92c16.667 0.666992 33.5 1.16699 50.5 1.5s34.167 0.5 51.5 0.5l-33 -58c-14.667 0.666992 -29.167 1 -43.5 1h-42.5l-86.5 -275c-25.667 -78 -49.667 -144.667 -72 -200s-43.833 -100.833 -64.5 -136.5s-41.5 -63.834 -62.5 -84.501
s-43 -34.834 -66 -42.501s-48.167 -11.5 -75.5 -11.5c-25.333 0 -49.5 5.16699 -72.5 15.5s-43.167 25.166 -60.5 44.499c-22 -22.667 -44.667 -38.334 -68 -47.001s-49.333 -13 -78 -13c-47.333 0 -87.666 16 -120.999 48c0 4.66699 1.33301 9.66699 4 15s5.66699 9 9 11
c9.33301 -11.333 21.666 -20.166 36.999 -26.499s31.333 -9.5 48 -9.5c17.333 0 33.166 3.83301 47.499 11.5s28.333 20.5 42 38.5s27.334 41.667 41.001 71s28.5 65.666 44.5 108.999c24 64.667 47.333 134.167 70 208.5l74 248.5
c-17.333 -2.66699 -33.666 -5.33398 -48.999 -8.00098s-29.666 -5.66699 -42.999 -9c-2.66699 2.66699 -4.83398 8 -6.50098 16s-2.5 14 -2.5 18l51.5 11c19 4 39.167 7.66699 60.5 11c16 52 33.167 99.167 51.5 141.5s38.333 78.333 60 108s45.167 52.667 70.5 69
s53 24.5 83 24.5c25.333 0 49.666 -6.5 72.999 -19.5s45 -27.167 65 -42.5c19.333 24.667 40 43.5 62 56.5s45.667 19.5 71 19.5c10.667 0 22.667 -1.83301 36 -5.5s27.333 -8.5 42 -14.5s29 -13.167 43 -21.5s27 -17.5 39 -27.5
c31.333 61.333 61.666 109.666 90.999 144.999c8 -1.33301 17.833 -4.66602 29.5 -9.99902s23.167 -11.166 34.5 -17.499s21.5 -12.833 30.5 -19.5s14.833 -12 17.5 -16c-52 -61.333 -97.667 -127.333 -137 -198s-75.333 -151.667 -108 -243
c-28 -78.667 -49.333 -149.5 -64 -212.5s-22 -115.5 -22 -157.5v-21c0 -2.66699 0.333008 -5.33398 1 -8.00098c-9.33301 1.33301 -17.333 3.66602 -24 6.99902s-11 7.33301 -13 12c-1.33301 3.33301 -5 8.16602 -11 14.499s-11.333 11.166 -16 14.499
c-6 4 -11 14.5 -15 31.5s-6 36.167 -6 57.5zM511.002 381.008c-28 -0.666992 -54.999 -1.66504 -80.999 -2.99805s-51.333 -3 -76 -5l-79.5 -249c-23.667 -72 -46 -134.667 -67 -188s-40.833 -98.333 -59.5 -135s-37.334 -66.334 -56.001 -89.001
c9.33301 -11.333 21 -21 35 -29s33.667 -12 59 -12c17.333 0 33.166 3.83301 47.499 11.5s28.333 20.5 42 38.5s27.334 41.667 41.001 71s28.5 65.666 44.5 108.999c23.333 64.667 47.5 138 72.5 220zM368.003 415.01c24.667 3.33301 50.1689 6.33398 76.502 9.00098
s53.5 5 81.5 7c13.333 44 27.666 84.167 42.999 120.5s31.666 68.166 48.999 95.499c-15.333 9.33301 -29.333 15.833 -42 19.5s-21.667 5.5 -27 5.5c-18 0 -34.5 -5.5 -49.5 -16.5s-29.5 -27.333 -43.5 -49s-28.167 -48.5 -42.5 -80.5s-29.5 -69 -45.5 -111z" />
    <glyph glyph-name=".notdef" horiz-adv-x="444" 
d="M60 714h324v-714h-324v714zM96 30h252v654h-252v-654z" />
    <glyph glyph-name="NULL" horiz-adv-x="0" 
 />
    <glyph glyph-name="NULL" horiz-adv-x="0" 
 />
    <glyph glyph-name="nonmarkingreturn" unicode="&#xd;" horiz-adv-x="444" 
 />
    <glyph glyph-name="space" unicode=" " horiz-adv-x="238" 
 />
    <glyph glyph-name="exclam" unicode="!" horiz-adv-x="300" 
d="M143 188c0 18 4.83105 44.1729 14.498 78.5059s22.167 72.333 37.5 114s32.666 84.667 51.999 129s38.833 85.833 58.5 124.5s38.5 72.167 56.5 100.5s33.667 47.166 47 56.499c10.667 -2 22.167 -6.83301 34.5 -14.5s23.833 -16.334 34.5 -26.001s20 -19.834 28 -30.501
s12.667 -20 14 -28c-34 -28 -67.667 -62.833 -101 -104.5s-64.166 -87.834 -92.499 -138.501s-53.166 -104.834 -74.499 -162.501s-37.333 -116.5 -48 -176.5c-8 2 -15.833 4.5 -23.5 7.5s-14.167 7.16699 -19.5 12.5s-9.66602 12.666 -12.999 21.999s-5 21.333 -5 36z
M120.998 -76.9941c-8 0 -15.667 1.83301 -23 5.5s-13.833 8 -19.5 13s-10.167 10.333 -13.5 16s-5 10.167 -5 13.5c0 8 1 18.333 3 31s5 24.834 9 36.501s9 21.667 15 30s12.667 12.5 20 12.5c18.667 0 37.5 -6.5 56.5 -19.5s33.167 -27.5 42.5 -43.5
c-8 -8.66699 -15 -18.5 -21 -29.5s-12 -21.333 -18 -31s-12.667 -17.834 -20 -24.501s-16 -10 -26 -10z" />
    <glyph glyph-name="quotedbl" unicode="&#x22;" horiz-adv-x="367" 
d="M245 507c-4 3.33301 -7.66699 8.67285 -11 16.0059s-5 14.666 -5 21.999c8 23.333 15.5 50.166 22.5 80.499s10.5 64.166 10.5 101.499c0 16.667 -0.833008 33.667 -2.5 51s-4.83398 35.666 -9.50098 54.999c32 -2 61.167 -8.83301 87.5 -20.5
s43.833 -25.834 52.5 -42.501c-11.333 -60.667 -28.666 -113.334 -51.999 -158.001s-54.333 -79.667 -93 -105zM425 507.007c-4 3.33301 -7.66699 8.67285 -11 16.0059s-5 14.666 -5 21.999c8 23.333 15.5 50.166 22.5 80.499s10.5 64.166 10.5 101.499
c0 16.667 -0.833008 33.667 -2.5 51s-4.83398 35.666 -9.50098 54.999c32 -2 61.167 -8.83301 87.5 -20.5s43.833 -25.834 52.5 -42.501c-11.333 -60.667 -28.666 -113.334 -51.999 -158.001s-54.333 -79.667 -93 -105z" />
    <glyph glyph-name="numbersign" unicode="#" horiz-adv-x="676" 
d="M250 344c-20 0 -34.8301 4.16699 -44.4971 12.5s-14.5 19.833 -14.5 34.5c0 10.667 2.33301 22 7 34l31 -4c10 -1.33301 23 -2 39 -2h44.5c16.333 0 33.166 0.666992 50.499 2l57.5 187c19 64 36.5 128.333 52.5 193c16 0 32.5 -4.33301 49.5 -13s30.5 -23.667 40.5 -45
l-58.5 -162.5l-58.5 -156.5l90 5c19.333 60 38 121.167 56 183.5s35 125.166 51 188.499c16 0 32.5 -4.33301 49.5 -13s30.5 -23.667 40.5 -45l-57 -157l-56 -152l63 3.5c17.333 1 29 1.5 35 1.5c12.667 0 23.334 -4.83301 32.001 -14.5s13.667 -28.5 15 -56.5
c-16.667 2 -30.334 3.33301 -41.001 4s-20 1 -28 1c-14 0 -29.5 -0.333008 -46.5 -1s-35.167 -1.66699 -54.5 -3c-7.33301 -17.333 -14.166 -34.5 -20.499 -51.5s-13.166 -33.833 -20.499 -50.5c22 1.33301 40.667 2.33301 56 3s25.666 1 30.999 1
c12.667 0 23.167 -4.83301 31.5 -14.5s13.166 -28.5 14.499 -56.5c-16 2 -29.333 3.33301 -40 4s-20 1 -28 1c-12.667 0 -26.667 -0.333008 -42 -1s-31.666 -1.66699 -48.999 -3c-32.667 -78.667 -63.834 -148.5 -93.501 -209.5s-57.167 -109.833 -82.5 -146.5
c-14.667 8 -23.334 22.333 -26.001 43c15.333 28 34.333 68.5 57 121.5s47 115.167 73 186.5l-52 -4l-52 -4c-31.333 -75.333 -61.333 -142.333 -90 -201s-55.334 -106 -80.001 -142c-14.667 8 -23.334 22.333 -26.001 43c14.667 26.667 32.834 65.334 54.501 116.001
s45.167 110 70.5 178c-23.333 -2 -44.333 -3.5 -63 -4.5s-33.667 -1.5 -45 -1.5c-20 0 -35 4.16699 -45 12.5s-15 19.833 -15 34.5c0 5.33301 0.666992 10.666 2 15.999s3 11.333 5 18c11.333 -1.33301 22 -2.66602 32 -3.99902s23 -2 39 -2h54c20 0 40.667 0.666992 62 2
l16 47l16 48c-18.667 -1.33301 -35.667 -2.33301 -51 -3s-28 -1 -38 -1zM419.003 355l-19.5 -50.502c-6.33301 -16.333 -12.833 -32.166 -19.5 -47.499l51 2c16.667 0.666992 33 1.66699 49 3c5.33301 16.667 11 33.334 17 50.001s11.667 33.667 17 51l-48 -4z" />
    <glyph glyph-name="dollar" unicode="$" horiz-adv-x="668" 
d="M595 703c22 -7.33301 44.001 -16.165 66.001 -26.498s43.667 -21.833 65 -34.5c1.33301 -9.33301 2.16602 -16.166 2.49902 -20.499s0.5 -8.83301 0.5 -13.5c0 -23.333 -5.33301 -45 -16 -65s-24 -33.667 -40 -41c-12 21.333 -27.833 39.666 -47.5 54.999
s-41.167 28 -64.5 38l-36 -111.5l-35 -107.5l12 -6c55.333 -30 97.333 -61.833 126 -95.5s43 -75.5 43 -125.5c0 -33.333 -5.66699 -63.333 -17 -90s-27 -49.5 -47 -68.5s-44 -33.667 -72 -44s-59 -15.5 -93 -15.5s-70.333 6.66699 -109 20l-32.5 -67.5
c-10.333 -21 -20.5 -40.167 -30.5 -57.5c-16.667 3.33301 -27.334 15.333 -32.001 36c7.33301 11.333 15.333 26 24 44s17.667 38.667 27 62c-24 10.667 -47.167 23.167 -69.5 37.5s-42 29.833 -59 46.5s-30.5 34.167 -40.5 52.5s-15 37.166 -15 56.499
c0 13.333 4 30.666 12 51.999s22.667 43.666 44 66.999c0 -20 7.66699 -44.333 23 -73s40 -55.667 74 -81c23.333 -18 47.666 -32.667 72.999 -44l37 113c12.667 39.333 24.667 80 36 122c-56.667 32 -97.834 63.333 -123.501 94s-38.5 65.667 -38.5 105
c0 28.667 5.5 55.667 16.5 81s26.833 47.333 47.5 66s45.5 33.334 74.5 44.001s61.5 16 97.5 16c4.66699 0 9.33398 -0.166992 14.001 -0.5s9.66699 -0.833008 15 -1.5c4.66699 21.333 8.83398 41.5 12.501 60.5s6.83398 36.167 9.50098 51.5c14 -4 30.333 -9.66699 49 -17
s33 -17.333 43 -30zM618.001 138.001c0 12.667 -3.83301 25.3311 -11.5 37.998s-18.5 25.334 -32.5 38.001s-30.667 25.167 -50 37.5s-40.333 24.5 -63 36.5l-41 -116.5l-40 -106.5c17.333 -5.33301 34.333 -9.16602 51 -11.499s32.667 -3.5 48 -3.5c28 0 51 3.33301 69 10
s32.167 14.5 42.5 23.5s17.5 18.5 21.5 28.5s6 18.667 6 26zM292.001 555.998c0 -11.333 3.83105 -23.002 11.498 -35.002s17.834 -24.167 30.501 -36.5s27.334 -24.666 44.001 -36.999s34 -24.166 52 -35.499l27.5 105l25.5 100c-10 1.33301 -19.833 2.5 -29.5 3.5
s-19.167 1.5 -28.5 1.5c-18 0 -35 -1.66699 -51 -5s-30.167 -7.83301 -42.5 -13.5s-22 -12.5 -29 -20.5s-10.5 -17 -10.5 -27z" />
    <glyph glyph-name="percent" unicode="%" horiz-adv-x="619" 
d="M563 265c12.667 0 23.668 -2.83496 33.001 -8.50195s17.166 -13 23.499 -22s11 -19 14 -30s4.5 -22.167 4.5 -33.5c0 -10 -2.33301 -19.333 -7 -28s-10.667 -16.167 -18 -22.5s-15.333 -11.333 -24 -15s-17 -5.5 -25 -5.5c-9.33301 0 -18.666 2.16699 -27.999 6.5
s-17.666 10.333 -24.999 18s-13.5 16.334 -18.5 26.001s-7.5 19.834 -7.5 30.501c0 8 2.16699 17 6.5 27s10.166 19.167 17.499 27.5s15.666 15.333 24.999 21s19 8.5 29 8.5zM305.001 648.998c12.667 0 23.668 -2.83398 33.001 -8.50098s17.166 -13 23.499 -22
s11 -19.167 14 -30.5s4.5 -22.666 4.5 -33.999c0 -10 -2.33301 -19.167 -7 -27.5s-10.667 -15.666 -18 -21.999s-15.333 -11.333 -24 -15s-17 -5.5 -25 -5.5c-9.33301 0 -18.666 2.16699 -27.999 6.5s-17.833 10.166 -25.5 17.499s-13.834 15.833 -18.501 25.5
s-7 20.167 -7 31.5c0 8 2.16699 17 6.5 27s10 19.167 17 27.5s15.333 15.333 25 21s19.5 8.5 29.5 8.5zM739.002 712.997l-105.499 -150.999l-112 -148.5l-112 -140l-106.5 -126l-95.5 -106c-29.667 -31.667 -55.834 -58.5 -78.501 -80.5
c-7.33301 1.33301 -15.5 6.5 -24.5 15.5s-14.833 19.167 -17.5 30.5c26 23.333 55 52.833 87 88.5s65.167 75 99.5 118l104 136l101.5 143.5c32.667 48 63 95 91 141s52.333 88.333 73 127c8 0 17 -1.5 27 -4.5s19.833 -6.83301 29.5 -11.5s18.167 -9.83398 25.5 -15.501
s12 -11.167 14 -16.5z" />
    <glyph glyph-name="ampersand" unicode="&#x26;" horiz-adv-x="667" 
d="M591 332c-24 0 -41.3359 3.83105 -52.0029 11.498s-16 19.834 -16 36.501c0 10.667 2 23 6 37c12.667 -2 24.834 -3.33301 36.501 -4s25.834 -1 42.501 -1c21.333 0 39.166 0.166992 53.499 0.5s26.333 0.833008 36 1.5s17.334 1.16699 23.001 1.5s10.834 0.5 15.501 0.5
c16 0 27.667 -5.83301 35 -17.5s14.333 -31.5 21 -59.5c-19.333 2 -35.166 3.33301 -47.499 4s-23.166 1 -32.499 1c-6.66699 0 -12.667 -0.166992 -18 -0.5s-10.333 -0.5 -15 -0.5c-23.333 -37.333 -50.166 -77.5 -80.499 -120.5s-63 -83.833 -98 -122.5
s-71.5 -73.167 -109.5 -103.5s-76 -51.5 -114 -63.5c-26 2.66699 -49.667 9 -71 19s-40 22.5 -56 37.5s-28.667 32.333 -38 52s-14.666 40.834 -15.999 63.501c0.666992 31.333 7.16699 62.5 19.5 93.5s28.166 59.833 47.499 86.5s41.166 50.667 65.499 72
s48.833 38.333 73.5 51c-24.667 10.667 -42.167 23.334 -52.5 38.001s-15.5 30.667 -15.5 48c0 24 8.5 49.167 25.5 75.5s38.167 50.833 63.5 73.5s52.5 42.167 81.5 58.5s55.5 26.5 79.5 30.5c6.66699 -1.33301 16.167 -5.5 28.5 -12.5s24.5 -15.5 36.5 -25.5
s22.833 -20.167 32.5 -30.5s15.167 -19.166 16.5 -26.499c-1.33301 -8 -4.16602 -17 -8.49902 -27s-9.83301 -19.833 -16.5 -29.5s-13.667 -18.834 -21 -27.501s-14.666 -15.667 -21.999 -21c-6.66699 2 -10.667 5.33301 -12 10c8 8 15.667 19.5 23 34.5s11 29.167 11 42.5
c0 7.33301 -1.66699 12.166 -5 14.499s-8.66602 3.5 -15.999 3.5c-18.667 0 -39.334 -7.33301 -62.001 -22s-43.834 -33 -63.501 -55s-36.167 -45.5 -49.5 -70.5s-20 -47.833 -20 -68.5c7.33301 -0.666992 16.166 -2.83398 26.499 -6.50098s20.5 -8.16699 30.5 -13.5
s18.833 -11 26.5 -17s12.5 -11.333 14.5 -16c-32.667 -8 -62.834 -23.667 -90.501 -47s-51.5 -50 -71.5 -80s-35.5 -61.333 -46.5 -94s-16.5 -62 -16.5 -88c0 -23.333 5 -42.5 15 -57.5s25.667 -22.5 47 -22.5c18 0 37.5 5.83301 58.5 17.5s42.667 27.334 65 47.001
s44.666 42 66.999 67s44 50.667 65 77s40.667 52.333 59 78l49.5 70.5c-6 -1.33301 -12.5 -2.33301 -19.5 -3s-15.167 -1 -24.5 -1z" />
    <glyph glyph-name="quotesingle" unicode="'" horiz-adv-x="187" 
d="M245 507c-4 3.33301 -7.66699 8.67285 -11 16.0059s-5 14.666 -5 21.999c8 23.333 15.5 50.166 22.5 80.499s10.5 64.166 10.5 101.499c0 16.667 -0.833008 33.667 -2.5 51s-4.83398 35.666 -9.50098 54.999c32 -2 61.167 -8.83301 87.5 -20.5
s43.833 -25.834 52.5 -42.501c-11.333 -60.667 -28.666 -113.334 -51.999 -158.001s-54.333 -79.667 -93 -105z" />
    <glyph glyph-name="parenleft" unicode="(" horiz-adv-x="319" 
d="M240 -144c-15.333 18 -29.1699 37.5029 -41.5029 58.5029s-23 44.333 -32 70s-15.833 54.334 -20.5 86.001s-7 67.167 -7 106.5c0 81.333 10 158.166 30 230.499s46.333 137.666 79 195.999s69.834 108.833 111.501 151.5s83.834 75 126.501 97
c9.33301 -4 19.166 -11 29.499 -21s20 -20.667 29 -32s16.5 -22 22.5 -32s9.33301 -17 10 -21c-52.667 -9.33301 -101.167 -33.333 -145.5 -72s-82.666 -85.667 -114.999 -141s-57.666 -115.333 -75.999 -180s-27.5 -127.667 -27.5 -189
c0 -26.667 0.833008 -54.167 2.5 -82.5s4.16699 -55.833 7.5 -82.5s7.5 -51.334 12.5 -74.001s10.5 -41.334 16.5 -56.001z" />
    <glyph glyph-name="parenright" unicode=")" horiz-adv-x="322" 
d="M295 802c15.333 -18 29.1699 -37.499 41.5029 -58.499s23 -44.333 32 -70s15.833 -54.334 20.5 -86.001s7 -67.167 7 -106.5c0 -81.333 -10 -158.166 -30 -230.499s-46.333 -137.833 -79 -196.5s-69.834 -109.167 -111.501 -151.5s-83.834 -74.5 -126.501 -96.5
c-9.33301 4 -19.166 11 -29.499 21s-20 20.667 -29 32s-16.5 22 -22.5 32s-9.33301 17 -10 21c52.667 9.33301 101.167 33.333 145.5 72s82.666 85.667 114.999 141s57.666 115.333 75.999 180s27.5 127.667 27.5 189c0 26.667 -0.833008 54.167 -2.5 82.5
s-4.16699 55.833 -7.5 82.5s-7.5 51.167 -12.5 73.5s-10.5 41.166 -16.5 56.499z" />
    <glyph glyph-name="asterisk" unicode="*" horiz-adv-x="455" 
d="M435 832c32.667 -0.666992 55.334 -6.66699 68.001 -18s19 -25 19 -41c0 -16.667 -5 -34.167 -15 -52.5s-21.333 -34.166 -34 -47.499c19.333 0.666992 39.166 4 59.499 10s41.5 13.667 63.5 23c2 -10 3 -23.333 3 -40c0 -7.33301 -0.166992 -14.666 -0.5 -21.999
s-2 -14 -5 -20s-7.5 -11 -13.5 -15s-14.667 -6 -26 -6c-16 0 -32 1.16699 -48 3.5s-32.333 7.16602 -49 14.499c6.66699 -18 15.667 -35.5 27 -52.5s25.333 -35.167 42 -54.5c-12.667 -7.33301 -25.5 -13 -38.5 -17s-25.167 -6 -36.5 -6s-20.333 4.16699 -27 12.5
s-11.667 18.333 -15 30s-5.5 23.834 -6.5 36.501s-1.5 23.334 -1.5 32.001v9.5c0 3 0.333008 6.16699 1 9.5c-15.333 -12 -29.166 -26 -41.499 -42s-24.833 -35.333 -37.5 -58c-4.66699 4 -9.66699 8.83301 -15 14.5s-10.5 12 -15.5 19s-9.16699 14.667 -12.5 23
s-5 17.166 -5 26.499c0 8 4.66699 15.833 14 23.5s20.166 14.667 32.499 21s24.666 11.666 36.999 15.999s21.166 7.16602 26.499 8.49902c-15.333 10 -32.666 18.5 -51.999 25.5s-41.666 13.167 -66.999 18.5c7.33301 25.333 16.666 43 27.999 53s23 15 35 15
c9.33301 0 18.833 -2.33301 28.5 -7s18.834 -11 27.501 -19s16.667 -16.833 24 -26.5s13.666 -19.5 18.999 -29.5c4.66699 11.333 7.83398 23 9.50098 35s2.5 24 2.5 36c0 10 -0.5 19.667 -1.5 29s-2.16699 19 -3.5 29z" />
    <glyph glyph-name="plus" unicode="+" horiz-adv-x="557" 
d="M321 39c-13.333 2 -27.1748 7.33203 -41.5078 15.999s-28.166 19 -41.499 31l16 57.5l16 56.5c-11.333 -1.33301 -22.666 -2.33301 -33.999 -3s-22.666 -1 -33.999 -1c-24 0 -43.167 5.83301 -57.5 17.5s-21.5 27.834 -21.5 48.501c0 3.33301 0.833008 8.5 2.5 15.5
s3.16699 12.167 4.5 15.5c12.667 -2 24.834 -3.33301 36.501 -4s26.834 -1 45.501 -1h45.5c15 0 29.5 0.666992 43.5 2c15.333 42 30.833 79.5 46.5 112.5s31.167 59.167 46.5 78.5c8 -1.33301 18.333 -4.66602 31 -9.99902s25.167 -11.166 37.5 -17.499
s23.5 -12.833 33.5 -19.5s16.333 -12 19 -16c-15.333 -16.667 -29.666 -34.834 -42.999 -54.501s-26.666 -41.167 -39.999 -64.5c24 2 44.833 4 62.5 6s31.167 3 40.5 3c14.667 0 27.667 -7.66699 39 -23s19.666 -37.333 24.999 -66c-19.333 2 -35.166 3.33301 -47.499 4
s-23.166 1 -32.499 1c-24 0 -46.833 -0.833008 -68.5 -2.5s-42.167 -3.83398 -61.5 -6.50098c-12.667 -28 -24.667 -56.667 -36 -86s-22 -59.333 -32 -90z" />
    <glyph glyph-name="comma" unicode="," horiz-adv-x="240" 
d="M17 -169c-4 3.33301 -7.66504 8.8291 -10.998 16.4961s-5 14.834 -5 21.501c33.333 28.667 57.166 56 71.499 82s21.5 54.333 21.5 85c0 20 -0.833008 37.167 -2.5 51.5s-4.83398 30.833 -9.50098 49.5c16.667 -1.33301 33.167 -4.16602 49.5 -8.49902
s31 -9.66602 44 -15.999s23.833 -13.666 32.5 -21.999s14 -16.5 16 -24.5c-31.333 -110.667 -100.333 -189 -207 -235z" />
    <glyph glyph-name="hyphen" unicode="-" horiz-adv-x="526" 
d="M204 186c-20.667 0 -37.165 5.83203 -49.498 17.499s-18.5 27.834 -18.5 48.501c0 3.33301 0.666992 8.33301 2 15s2.66602 11.667 3.99902 15c11.333 -2 22 -3.16699 32 -3.5s23 -0.5 39 -0.5c34 0 65.833 1 95.5 3s56.5 4.33301 80.5 7l62 7
c17.333 2 30.666 3 39.999 3c12.667 0 23.834 -7.66699 33.501 -23s16.834 -37.333 21.501 -66c-16.667 2 -30.334 3.33301 -41.001 4s-20 1 -28 1c-28.667 0 -55.334 -1.5 -80.001 -4.5s-48 -6.16699 -70 -9.5l-63 -9.5c-20 -3 -40 -4.5 -60 -4.5z" />
    <glyph glyph-name="period" unicode="." horiz-adv-x="241" 
d="M125 -38c-10.667 1.33301 -21.832 5.83301 -33.499 13.5s-19.167 16.167 -22.5 25.5c0 8 1.16699 18.333 3.5 31s5.16602 25.5 8.49902 38.5s6.66602 25.333 9.99902 37s5.66602 20.5 6.99902 26.5c8 0 18.167 -2 30.5 -6s25 -9.5 38 -16.5s25.333 -15 37 -24
s20.5 -18.167 26.5 -27.5c-6 -13.333 -13.667 -26 -23 -38s-19.166 -22.5 -29.499 -31.5s-20.166 -16 -29.499 -21s-17 -7.5 -23 -7.5z" />
    <glyph glyph-name="slash" unicode="/" horiz-adv-x="545" 
d="M740 743c-56 -98 -114.668 -193.334 -176.001 -286.001s-123 -179 -185 -259s-122.667 -152 -182 -216s-114.666 -116 -165.999 -156c-7.33301 1.33301 -15.5 6.5 -24.5 15.5s-14.833 19.167 -17.5 30.5c24.667 14.667 51.5 36.334 80.5 65.001s59.333 62 91 100
s64 79.667 97 125s65.167 92 96.5 140l90.5 144.5c29 48.333 55.333 94.5 79 138.5s44.167 84.5 61.5 121.5s30.333 68.5 39 94.5c8 0 18.167 -2 30.5 -6s24.5 -9 36.5 -15s22.667 -12.333 32 -19s15 -12.667 17 -18z" />
    <glyph glyph-name="zero" unicode="0" horiz-adv-x="646" 
d="M298 -36c-24 4.66699 -46.167 11.8311 -66.5 21.498s-37.666 23 -51.999 40s-25.666 38 -33.999 63s-12.5 55.5 -12.5 91.5c0 40.667 5.66699 82.667 17 126s27.166 85.5 47.499 126.5s44.333 80 72 117s57.834 69.333 90.501 97s67.167 49.667 103.5 66
s73.166 24.5 110.499 24.5c28 0 52.167 -5.16699 72.5 -15.5s37.333 -24.666 51 -42.999s23.834 -40.333 30.501 -66s10 -53.5 10 -83.5c0 -39.333 -4.83301 -80.666 -14.5 -123.999s-23.5 -85.666 -41.5 -126.999s-39.833 -80.833 -65.5 -118.5
s-54.834 -70.834 -87.501 -99.501s-68.334 -51.667 -107.001 -69s-80 -26.333 -124 -27zM258 138.997c0 -45.333 7.99902 -77.334 23.999 -96.001s39.333 -30.667 70 -36c30 1.33301 58.5 12.666 85.5 33.999s51.833 48.5 74.5 81.5s43.167 69.667 61.5 110
s33.833 80.5 46.5 120.5s22.334 77.833 29.001 113.5s10 65.167 10 88.5c0 36.667 -4.16699 66.5 -12.5 89.5s-22.166 36.833 -41.499 41.5c-30.667 -4 -60.5 -16.167 -89.5 -36.5s-56.333 -45.833 -82 -76.5s-49.167 -65.167 -70.5 -103.5s-39.833 -77.166 -55.5 -116.499
s-27.834 -77.666 -36.501 -114.999s-13 -70.333 -13 -99z" />
    <glyph glyph-name="one" unicode="1" horiz-adv-x="438" 
d="M374 72c22 0 39.1719 -5.49609 51.5049 -16.4961s18.5 -26.167 18.5 -45.5c0 -5.33301 -0.5 -10.833 -1.5 -16.5s-2.16699 -10.5 -3.5 -14.5c-8.66699 1.33301 -18.334 2.5 -29.001 3.5s-23.334 1.5 -38.001 1.5c-20 0 -40.5 -1.33301 -61.5 -4s-41.5 -5.5 -61.5 -8.5
l-58 -8.5c-18.667 -2.66699 -36 -4 -52 -4c-26 0 -48.333 5 -67 15s-31.334 23.667 -38.001 41c2.66699 2.66699 9.16699 5.5 19.5 8.5s23 6.33301 38 10s32 7.16699 51 10.5l58.5 10c9.33301 40 19.833 81.167 31.5 123.5l36 127
c12.333 42.333 25.166 84.166 38.499 125.499l40 120c-22.667 -10.667 -46.167 -24.834 -70.5 -42.501s-45.166 -34.167 -62.499 -49.5c-7.33301 4 -11 13 -11 27c24.667 33.333 49.667 63 75 89l84 83c7.33301 7.33301 16.166 17.666 26.499 30.999
s19.166 26.666 26.499 39.999c9.33301 -2.66699 21 -5.5 35 -8.5s27.833 -6.66699 41.5 -11s26 -9.5 37 -15.5s18.5 -13 22.5 -21c-8.66699 -7.33301 -16.5 -15 -23.5 -23s-13.167 -16.667 -18.5 -26c-13.333 -24 -28.833 -57.5 -46.5 -100.5s-35.667 -90 -54 -141l-55 -159
l-49.5 -154.5c14 1.33301 26.833 2.33301 38.5 3s22.167 1 31.5 1z" />
    <glyph glyph-name="two" unicode="2" horiz-adv-x="564" 
d="M645 558c0 -32 -7.16699 -62.9961 -21.5 -92.9961s-34.166 -60 -59.499 -90s-55.5 -60.833 -90.5 -92.5l-113.5 -100.5c-18.667 -16 -34.5 -30.333 -47.5 -43s-24.167 -24.834 -33.5 -36.501s-17.5 -23 -24.5 -34s-13.5 -22.833 -19.5 -35.5
c53.333 3.33301 106.5 15.333 159.5 36s98.5 47.667 136.5 81c2.66699 -3.33301 6 -8.5 10 -15.5s7.5 -15 10.5 -24s5.66699 -18.667 8 -29s3.5 -20.5 3.5 -30.5c0 -16.667 -3.66699 -31 -11 -43c-6.66699 -7.33301 -16.167 -13 -28.5 -17s-26.833 -7 -43.5 -9
s-34.667 -3.33301 -54 -4s-39.333 -1 -60 -1c-20 0 -40 -0.5 -60 -1.5s-39.167 -2.66699 -57.5 -5s-35.333 -5.83301 -51 -10.5s-28.834 -11 -39.501 -19c-16 7.33301 -30.5 18.166 -43.5 32.499s-22.167 29.833 -27.5 46.5c4 19.333 11 37.333 21 54s23.5 34 40.5 52
s38.167 37.5 63.5 58.5l90 74.5l105 90c31.333 28 57.833 54.833 79.5 80.5s38.334 51 50.001 76s17.5 50.5 17.5 76.5c0 32.667 -8.33301 58.334 -25 77.001s-38.667 28 -66 28c-19.333 0 -38 -4.5 -56 -13.5s-34 -21.333 -48 -37s-25.333 -33.667 -34 -54
s-13 -41.833 -13 -64.5c0 -16.667 2.5 -31.5 7.5 -44.5s12.833 -26.167 23.5 -39.5c-9.33301 -2 -18 -3 -26 -3c-16 0 -30.667 2.66699 -44 8s-24.833 12.666 -34.5 21.999s-17.167 20.333 -22.5 33s-8 26.667 -8 42c0 25.333 7.33301 49.5 22 72.5s34 43.167 58 60.5
s51.167 31.166 81.5 41.499s61.166 15.5 92.499 15.5c27.333 0 52.333 -4 75 -12s42 -19.5 58 -34.5s28.333 -32.833 37 -53.5s13 -43.334 13 -68.001z" />
    <glyph glyph-name="three" unicode="3" horiz-adv-x="555" 
d="M232 662c10 6.66699 23.668 13.1689 41.001 19.502s36 11.833 56 16.5s40.167 8.33398 60.5 11.001s38.5 4 54.5 4c27.333 0 50.666 -3.83301 69.999 -11.5s35 -17.667 47 -30s20.667 -26.166 26 -41.499s8 -31 8 -47c0 -16.667 -3.16699 -34.334 -9.5 -53.001
s-15.5 -37.334 -27.5 -56.001s-26.5 -36.834 -43.5 -54.501s-35.833 -33.5 -56.5 -47.5c44 -5.33301 76 -18.666 96 -39.999s30 -50 30 -86c0 -34 -6.33301 -64.5 -19 -91.5s-29.834 -51 -51.501 -72s-46.5 -39 -74.5 -54s-57.5 -27.333 -88.5 -37s-62.5 -16.667 -94.5 -21
s-62.333 -6.5 -91 -6.5c-24.667 5.33301 -43.334 18.333 -56.001 39s-19 46 -19 76c0 2 0.166992 4 0.5 6s0.5 4.33301 0.5 7c20.667 -6.66699 47.334 -10 80.001 -10c34 0 70.667 4 110 12s75.666 19.667 108.999 35s61 34.333 83 57s33 49 33 79
c0 22 -7.16699 40.167 -21.5 54.5s-36.833 23.5 -67.5 27.5c-20 -12 -39.167 -20.5 -57.5 -25.5s-32.166 -7.5 -41.499 -7.5c-15.333 0 -28.333 6.66699 -39 20s-16 33.666 -16 60.999c30 0 61.833 3.33301 95.5 10s64.5 18.167 92.5 34.5s51.5 38 70.5 65
s29.167 61.167 30.5 102.5c-3.33301 13.333 -11.166 23 -23.499 29s-27.166 9 -44.499 9c-16 0 -33.5 -2.33301 -52.5 -7s-38 -11.167 -57 -19.5s-37.333 -18.333 -55 -30s-32.834 -24.167 -45.501 -37.5c-13.333 8 -23.833 20.167 -31.5 36.5s-11.5 35.166 -11.5 56.499v9
c0 2.66699 0.333008 5.66699 1 9z" />
    <glyph glyph-name="four" unicode="4" horiz-adv-x="570" 
d="M620 688c20 -4.66699 40.498 -12.167 61.498 -22.5s37.167 -24.166 48.5 -41.499c-35.333 -48.667 -68.333 -99 -99 -151s-60 -105.667 -88 -161l49 10c6 -6.66699 9.33301 -14 10 -22l-79 -29c-24 -49.333 -45 -98.833 -63 -148.5s-32.667 -100.834 -44 -153.501
c-20 0.666992 -39.333 3.16699 -58 7.5s-35 14.166 -49 29.499c12 40 25.333 79.167 40 117.5s30.667 76.833 48 115.5l-43.5 -4.5c-16.333 -1.66699 -31.166 -2.5 -44.499 -2.5c-18 0 -36.667 0.833008 -56 2.5s-38 5 -56 10s-35 11.833 -51 20.5s-30 20.334 -42 35.001
c52.667 60 101.334 125 146.001 195s84 141.667 118 215c23.333 -7.33301 46.5 -16.333 69.5 -27s44.167 -24 63.5 -40l-72.5 -84.5l-76 -90.5l-70 -86c-21.667 -27.333 -39.834 -51.333 -54.501 -72c17.333 -7.33301 35.166 -12.5 53.499 -15.5s36.833 -4.5 55.5 -4.5
c12.667 0 26.834 0.333008 42.501 1s29.834 1.66699 42.501 3l98 199.5z" />
    <glyph glyph-name="five" unicode="5" horiz-adv-x="538" 
d="M175 381c8.66699 24 20.498 51.665 35.498 82.998s30.667 62.5 47 93.5s32.5 60.167 48.5 87.5s29.667 48.666 41 63.999c13.333 -5.33301 28 -12.5 44 -21.5s30.667 -19.833 44 -32.5c9.33301 0.666992 22.5 2.5 39.5 5.5s34.5 6.33301 52.5 10
s35.167 7.33398 51.5 11.001s28.5 6.83398 36.5 9.50098c22.667 -10.667 40.334 -26.667 53.001 -48s24.334 -47.333 35.001 -78c-40.667 10.667 -83.834 19 -129.501 25s-90.167 9 -133.5 9c-14 -12 -27.5 -26.333 -40.5 -43s-25.167 -33.834 -36.5 -51.501
s-21.5 -34.5 -30.5 -50.5l-22.5 -41c23.333 9.33301 47.333 14 72 14c22.667 0 43.334 -4.33301 62.001 -13s34.667 -20.667 48 -36s23.666 -33.166 30.999 -53.499s11 -42.5 11 -66.5c0 -36.667 -11.333 -72.5 -34 -107.5s-52 -66.167 -88 -93.5
s-76.167 -49.5 -120.5 -66.5s-88.5 -25.833 -132.5 -26.5c-16 3.33301 -32.333 12.666 -49 27.999s-28.667 36.333 -36 63c24.667 0.666992 51.334 3.83398 80.001 9.50098s57.5 13.834 86.5 24.501s56.833 23.5 83.5 38.5s50.334 31.5 71.001 49.5s37.167 37.5 49.5 58.5
s18.5 43.167 18.5 66.5c0 40.667 -23 61 -69 61c-21.333 0 -43.333 -3.33301 -66 -10s-44 -16.667 -64 -30c-14.667 5.33301 -30.834 13 -48.501 23s-31.167 21.667 -40.5 35z" />
    <glyph glyph-name="six" unicode="6" horiz-adv-x="565" 
d="M550 732c7.33301 0 17.001 -2.33398 29.001 -7.00098s24.5 -10.834 37.5 -18.501s25.333 -16.334 37 -26.001s21.167 -19.5 28.5 -29.5c-23.333 -3.33301 -52.833 -14.166 -88.5 -32.499s-72.5 -42.333 -110.5 -72s-74.833 -64 -110.5 -103s-65.5 -80.5 -89.5 -124.5
c16 16.667 33 32.5 51 47.5s36.167 28.333 54.5 40s36.666 21.167 54.999 28.5s35.833 11.333 52.5 12c14 -7.33301 28 -16.833 42 -28.5s26.667 -24.334 38 -38.001s20.666 -28.167 27.999 -43.5s11 -30.666 11 -45.999c0 -20 -5.5 -42.333 -16.5 -67
s-25.5 -49.5 -43.5 -74.5s-38.667 -49.167 -62 -72.5s-47.166 -44.166 -71.499 -62.499s-48.5 -33 -72.5 -44s-45.333 -16.5 -64 -16.5c-52 10.667 -94.5 30 -127.5 58s-49.5 65.333 -49.5 112c0 38.667 6.5 79 19.5 121s30.5 83.667 52.5 125s47.667 81.5 77 120.5
s60.5 74.5 93.5 106.5s66.5 59.833 100.5 83.5s67 40.834 99 51.501zM494.001 399.999c-41.333 -13.333 -79 -31.166 -113 -53.499s-63.167 -47 -87.5 -74s-43.333 -55.167 -57 -84.5s-20.5 -57.666 -20.5 -84.999c0 -10 1.66699 -20.333 5 -31s8 -20.667 14 -30
s13 -17.833 21 -25.5s16.333 -12.834 25 -15.501c26.667 12.667 54.5 32 83.5 58s55.667 54.5 80 85.5s44.5 62.667 60.5 95s24 61.5 24 87.5c0 13.333 -2.66699 26.666 -8 39.999s-14.333 24.333 -27 33z" />
    <glyph glyph-name="seven" unicode="7" horiz-adv-x="557" 
d="M241 364c15.333 2.66699 30.667 4.66406 46 5.99707s30.666 2 45.999 2c7.33301 0 14.5 -0.166992 21.5 -0.5s14.167 -0.833008 21.5 -1.5c24.667 42 51.667 84 81 126s61 82.667 95 122c-23.333 8.66699 -46.333 15.167 -69 19.5s-43 6.5 -61 6.5
c-62.667 0 -102.334 -24 -119.001 -72c-25.333 4.66699 -47 14.834 -65 30.501s-30 34.5 -36 56.5c24 48.667 68.333 73 133 73c18.667 0 38.834 -2.5 60.501 -7.5s43.334 -11.333 65.001 -19s43 -16.167 64 -25.5s40.5 -18.666 58.5 -27.999l21 22l21 22
c17.333 -7.33301 33.5 -19 48.5 -35s25.167 -32.667 30.5 -50c-40 -21.333 -78.667 -55.333 -116 -102s-71 -100 -101 -160c31.333 -10 58.333 -22.667 81 -38s39.667 -33 51 -53l-7 -7c-16 9.33301 -37.333 17.333 -64 24s-56 12.334 -88 17.001
c-28 -62.667 -50 -125.667 -66 -189s-24 -120.666 -24 -171.999c-30.667 5.33301 -58.334 14.5 -83.001 27.5s-41 26.833 -49 41.5c1.33301 37.333 10.666 82.166 27.999 134.499s41.333 108.166 72 167.499c-27.333 0 -51.5 -0.666992 -72.5 -2s-41.833 -3.33301 -62.5 -6
c0 1.33301 -0.166992 2 -0.5 2s-0.5 0.666992 -0.5 2c0 4.66699 1.33301 10.334 4 17.001s5.83398 13.167 9.50098 19.5s7.83398 12.333 12.501 18s9 9.5 13 11.5z" />
    <glyph glyph-name="eight" unicode="8" horiz-adv-x="569" 
d="M584 207c0 -37.333 -7.83105 -71.332 -23.498 -101.999s-36 -57.167 -61 -79.5s-53.167 -39.666 -84.5 -51.999s-62.333 -18.5 -93 -18.5c-29.333 0 -57 3 -83 9s-48.833 15.667 -68.5 29s-35.167 31.166 -46.5 53.499s-17 49.833 -17 82.5c0 30 5.5 57.333 16.5 82
s26.333 47.334 46 68.001s43 39.5 70 56.5s56.5 32.5 88.5 46.5c-23.333 21.333 -43.5 44.5 -60.5 69.5s-25.5 54.167 -25.5 87.5c0 28 7.16699 53.833 21.5 77.5s32.666 44.167 54.999 61.5s47.5 31.5 75.5 42.5s55.667 18.167 83 21.5c50 -16 90.833 -36.667 122.5 -62
s47.5 -54 47.5 -86c0 -17.333 -5 -34.5 -15 -51.5s-23.5 -33.333 -40.5 -49s-36.333 -30.334 -58 -44.001s-43.834 -25.834 -66.501 -36.501l42 -42.5c14 -14.333 26.5 -29.833 37.5 -46.5s20 -34.5 27 -53.5s10.5 -40.167 10.5 -63.5zM212.002 108.001
c0 -18.667 2.66699 -34.834 8 -48.501s12.5 -25 21.5 -34s19.333 -15.667 31 -20s23.5 -6.5 35.5 -6.5c16.667 0 33.667 4.16699 51 12.5s33 20.5 47 36.5s25.333 35.667 34 59s13 50 13 80c0 32 -7.66699 59.833 -23 83.5s-33.666 45.834 -54.999 66.501
c-30 -17.333 -55.5 -35.666 -76.5 -54.999s-37.833 -38.833 -50.5 -58.5s-21.834 -39.334 -27.501 -59.001s-8.5 -38.5 -8.5 -56.5zM557.002 617.001c0 21.333 -5.16797 38.334 -15.501 51.001s-23.166 20.334 -38.499 23.001c-14 -2.66699 -28.667 -7.83398 -44 -15.501
s-29.5 -17.167 -42.5 -28.5s-23.667 -23.833 -32 -37.5s-12.5 -27.5 -12.5 -41.5c0 -23.333 5.33301 -44.333 16 -63s24 -36.667 40 -54c12.667 8 26.5 18.667 41.5 32s29 27.666 42 42.999s23.833 30.833 32.5 46.5s13 30.5 13 44.5z" />
    <glyph glyph-name="nine" unicode="9" horiz-adv-x="554" 
d="M231 -60c-9.33301 2.66699 -20.3281 6.99902 -32.9951 12.999s-25 12.667 -37 20s-22.833 15.166 -32.5 23.499s-15.5 15.833 -17.5 22.5c23.333 2.66699 51.833 14.334 85.5 35.001s68.5 46.834 104.5 78.501s71 67.667 105 108s62.667 81.833 86 124.5
c-14.667 -15.333 -30.834 -30.666 -48.501 -45.999s-35.667 -29.333 -54 -42s-36.5 -23 -54.5 -31s-34.667 -12.333 -50 -13c-14 7.33301 -27.667 17.333 -41 30s-25.333 26.5 -36 41.5s-19.334 30.667 -26.001 47s-10 32.166 -10 47.499c0 20 5.66699 42 17 66
s26.166 48.167 44.499 72.5s39.166 47.833 62.499 70.5s47.333 42.834 72 60.501s48.667 31.834 72 42.501s44.333 16 63 16c52 -10.667 93.667 -31.167 125 -61.5s47 -68.833 47 -115.5c0 -26.667 -6.5 -58.834 -19.5 -96.501s-30.667 -77.334 -53 -119.001
s-48.333 -83.667 -78 -126s-60.834 -81.666 -93.501 -117.999s-66.167 -67.833 -100.5 -94.5s-67.5 -45.334 -99.5 -56.001zM292.005 289.999c32.667 6.66699 65.8301 20.835 99.4971 42.502s63.834 46.834 90.501 75.501s48.5 59 65.5 91s25.5 62 25.5 90
c0 9.33301 -2.5 19.166 -7.5 29.499s-11.5 20.166 -19.5 29.499s-17.167 17.5 -27.5 24.5s-20.833 12.167 -31.5 15.5c-16 -8.66699 -32.667 -20.167 -50 -34.5s-34.166 -30.5 -50.499 -48.5s-31.666 -37.333 -45.999 -58s-27 -41.334 -38 -62.001s-19.667 -41 -26 -61
s-9.5 -38.333 -9.5 -55c0 -15.333 1.83301 -30 5.5 -44s10.167 -25.667 19.5 -35z" />
    <glyph glyph-name="colon" unicode=":" horiz-adv-x="285" 
d="M143 -38c-10.667 1.33301 -21.832 5.83301 -33.499 13.5s-19.167 16.167 -22.5 25.5c0 8 1.16699 18.333 3.5 31s5.16602 25.5 8.49902 38.5s6.66602 25.333 9.99902 37s5.66602 20.5 6.99902 26.5c8 0 18.167 -2 30.5 -6s25 -9.5 38 -16.5s25.333 -15 37 -24
s20.5 -18.167 26.5 -27.5c-6 -13.333 -13.667 -26 -23 -38s-19.166 -22.5 -29.499 -31.5s-20.166 -16 -29.499 -21s-17 -7.5 -23 -7.5zM243.002 280c-10.667 1.33301 -21.832 5.83301 -33.499 13.5s-19.167 16.167 -22.5 25.5c0 8 1.16699 18.333 3.5 31
s5.16602 25.5 8.49902 38.5s6.66602 25.333 9.99902 37s5.66602 20.5 6.99902 26.5c8 0 18.167 -2 30.5 -6s25 -9.5 38 -16.5s25.333 -15 37 -24s20.5 -18.167 26.5 -27.5c-6 -13.333 -13.667 -26 -23 -38s-19.166 -22.5 -29.499 -31.5s-20.166 -16 -29.499 -21
s-17 -7.5 -23 -7.5z" />
    <glyph glyph-name="semicolon" unicode=";" horiz-adv-x="284" 
d="M39 -169c-4 3.33301 -7.66504 8.8291 -10.998 16.4961s-5 14.834 -5 21.501c33.333 28.667 57.166 56 71.499 82s21.5 54.333 21.5 85c0 20 -0.833008 37.167 -2.5 51.5s-4.83398 30.833 -9.50098 49.5c16.667 -1.33301 33.167 -4.16602 49.5 -8.49902
s31 -9.66602 44 -15.999s23.833 -13.666 32.5 -21.999s14 -16.5 16 -24.5c-31.333 -110.667 -100.333 -189 -207 -235zM239.002 279.996c-10.667 1.33301 -21.832 5.83301 -33.499 13.5s-19.167 16.167 -22.5 25.5c0 8 1.16699 18.333 3.5 31s5.16602 25.5 8.49902 38.5
s6.66602 25.333 9.99902 37s5.66602 20.5 6.99902 26.5c8 0 18.167 -2 30.5 -6s25 -9.5 38 -16.5s25.333 -15 37 -24s20.5 -18.167 26.5 -27.5c-6 -13.333 -13.667 -26 -23 -38s-19.166 -22.5 -29.499 -31.5s-20.166 -16 -29.499 -21s-17 -7.5 -23 -7.5z" />
    <glyph glyph-name="less" unicode="&#x3c;" horiz-adv-x="516" 
d="M533 191c-40.667 -9.33301 -78.668 -17.168 -114.001 -23.501s-72 -9.5 -110 -9.5c-16 0 -33.333 0.833008 -52 2.5s-37 5.5 -55 11.5s-34.667 14.333 -50 25s-28 25 -38 43c2.66699 9.33301 8.83398 19.333 18.501 30s20.834 21.834 33.501 33.501
s26.167 23.167 40.5 34.5s27.833 22.666 40.5 33.999c18.667 16.667 35.5 33.167 50.5 49.5s29.667 33.666 44 51.999s29.166 39 44.499 62l52 80.5c16 0 31 -2.5 45 -7.5s26.167 -11.333 36.5 -19s18.5 -16.167 24.5 -25.5s9 -18.666 9 -27.999
c0 -7.33301 -0.666992 -14.666 -2 -21.999l-4 -21c-4 3.33301 -8.66699 5 -14 5c-6.66699 0 -17 -5 -31 -15s-30 -22.833 -48 -38.5s-37.167 -33.5 -57.5 -53.5l-60.5 -59.5l-56 -55.5l-44 -43c4.66699 -3.33301 10 -6.33301 16 -9s13.667 -5 23 -7s21 -3.5 35 -4.5
s31.333 -1.5 52 -1.5c13.333 0 28.5 0.666992 45.5 2s33.833 3 50.5 5s32.5 4 47.5 6s27.5 4 37.5 6c0.666992 -2 1 -4.66699 1 -8c0 -5.33301 -1.16699 -11 -3.5 -17s-4.83301 -10.667 -7.5 -14z" />
    <glyph glyph-name="equal" unicode="=" horiz-adv-x="570" 
d="M196 93c-22.667 0 -39.998 5.83105 -51.998 17.498s-18 26.167 -18 43.5c0 6 0.5 12.167 1.5 18.5s3.16699 12.833 6.5 19.5c11.333 -1.33301 21.833 -2.66602 31.5 -3.99902s22.5 -2 38.5 -2c34 0 66 1 96 3s57 4 81 6s44.667 4 62 6s30.666 3 39.999 3
c12.667 0 23.667 -7.66699 33 -23s16.333 -36.666 21 -63.999c-16.667 1.33301 -30.167 2.33301 -40.5 3s-19.5 1 -27.5 1c-28.667 0 -55.334 -1.5 -80.001 -4.5s-48 -6.16699 -70 -9.5l-63 -9.5c-20 -3 -40 -4.5 -60 -4.5zM258.002 287.998
c-20.667 0 -37.165 5.83105 -49.498 17.498s-18.5 27.167 -18.5 46.5c0 4.66699 0.666992 10.334 2 17.001s2.66602 12 3.99902 16c11.333 -1.33301 22 -2.66602 32 -3.99902s23 -2 39 -2c34 0 65.833 1 95.5 3s56.5 4.33301 80.5 7l62 7c17.333 2 30.666 3 39.999 3
c12.667 0 23.834 -7.5 33.501 -22.5s16.834 -36.5 21.501 -64.5c-16.667 2 -30.334 3.33301 -41.001 4s-20 1 -28 1c-28.667 0 -55.334 -1.5 -80.001 -4.5s-48 -6.33301 -70 -10s-43 -7 -63 -10s-40 -4.5 -60 -4.5z" />
    <glyph glyph-name="greater" unicode="&#x3e;" horiz-adv-x="623" 
d="M318 550c28.667 -8 55.6709 -18.166 81.0039 -30.499s49.166 -26 71.499 -41s43.666 -31.333 63.999 -49s40.166 -35.834 59.499 -54.501c14.667 -14.667 28.667 -33.5 42 -56.5s20 -47.833 20 -74.5c0 -10 -1 -19.333 -3 -28
c-8.66699 -5.33301 -19.834 -8.83301 -33.501 -10.5s-28.834 -2.5 -45.501 -2.5c-19.333 0 -39.333 0.5 -60 1.5s-40 1.5 -58 1.5c-24 0 -46.5 -1 -67.5 -3s-42.833 -5.16699 -65.5 -9.5s-46.834 -9.83301 -72.501 -16.5l-89.5 -24c-22 30.667 -33 57 -33 79
c0 20 9.16699 34.833 27.5 44.5s42.833 15.167 73.5 16.5l80.5 2.5l96 3c32.333 1 63 1.83301 92 2.5s52.167 1 69.5 1c-1.33301 6 -3.16602 11.667 -5.49902 17s-6.33301 11.5 -12 18.5s-13 15.333 -22 25l-34.5 35.5c-13.333 12.667 -28.166 25.5 -44.499 38.5
s-33.5 25.167 -51.5 36.5s-36.667 21.666 -56 30.999s-38.333 17 -57 23c2 5.33301 6.83301 10.333 14.5 15s14.167 7.33398 19.5 8.00098z" />
    <glyph glyph-name="question" unicode="?" horiz-adv-x="480" 
d="M413 777c26 -2 51.165 -8.66992 75.498 -20.0029s45.833 -25.666 64.5 -42.999s33.667 -37.333 45 -60s17 -46.334 17 -71.001c0 -25.333 -4.5 -49 -13.5 -71s-22.167 -44.333 -39.5 -67s-38.666 -46.167 -63.999 -70.5l-86 -82.5
c-31.333 -29.333 -55 -59.166 -71 -89.499s-24 -57.833 -24 -82.5c0 -3.33301 0.166992 -6.66602 0.5 -9.99902s0.833008 -7 1.5 -11c-11.333 0.666992 -23.333 3.33398 -36 8.00098s-24.834 10.834 -36.501 18.501s-22 16 -31 25s-15.5 18.167 -19.5 27.5
c0 15.333 3.66699 33.833 11 55.5s18.5 44.334 33.5 68.001s34.333 47.5 58 71.5s51.834 45.667 84.501 65c52.667 31.333 92 61.666 118 90.999s39 55.666 39 78.999c0 10.667 -2.16699 21 -6.5 31s-9.83301 19 -16.5 27s-14.5 14.5 -23.5 19.5s-17.833 7.5 -26.5 7.5
c-10 0 -21.167 -5 -33.5 -15s-23.833 -22.333 -34.5 -37s-19.667 -30.667 -27 -48s-11 -33 -11 -47c0 -9.33301 1 -15.333 3 -18c-5.33301 -1.33301 -9.66602 -2 -12.999 -2h-10c-13.333 0 -26.5 1.33301 -39.5 4s-25 6 -36 10s-20.333 8.83301 -28 14.5
s-12.5 11.5 -14.5 17.5c4.66699 22 14 44.667 28 68s30 44.833 48 64.5s37 36.167 57 49.5s39 21 57 23zM191.998 -77.0029c-5.33301 0 -11.502 1.16895 -18.502 3.50195s-13.667 5.83301 -20 10.5s-11.833 10.667 -16.5 18s-7 16 -7 26c0 6 1 14.5 3 25.5
s5.16699 22 9.5 33s9.83301 20.667 16.5 29s15 12.5 25 12.5c6 0 13.5 -1.83301 22.5 -5.5s17.833 -8.33398 26.5 -14.001s17 -12.334 25 -20.001s14 -15.5 18 -23.5c-7.33301 -8 -14.166 -17.5 -20.499 -28.5l-18.5 -31.5c-6 -10 -12.667 -18.333 -20 -25
s-15.666 -10 -24.999 -10z" />
    <glyph glyph-name="at" unicode="@" horiz-adv-x="655" 
d="M277 472c30.667 25.333 62.8369 44.9961 96.5039 58.9961s67.5 21 101.5 21c30.667 0 59.834 -5.66699 87.501 -17s52 -26.166 73 -44.499s37.833 -39 50.5 -62s19 -45.833 19 -68.5c0 -18 -3.83301 -37.167 -11.5 -57.5s-17.834 -40.666 -30.501 -60.999
s-27.334 -39.833 -44.001 -58.5s-33.834 -35.167 -51.501 -49.5s-35.5 -25.666 -53.5 -33.999s-34.333 -12.5 -49 -12.5c-14 0 -28 3.5 -42 10.5s-26.667 16 -38 27s-20.5 23.333 -27.5 37s-10.5 27.5 -10.5 41.5c0 16 3 32.5 9 49.5s15 33 27 48s27 28.667 45 41
s39 22.166 63 29.499c12 -4.66699 23.5 -11 34.5 -19s20.833 -17 29.5 -27s15.667 -20.5 21 -31.5s8.33301 -21.833 9 -32.5c-12.667 5.33301 -26 8 -40 8s-27.167 -3 -39.5 -9s-23 -13.667 -32 -23s-16.167 -20.166 -21.5 -32.499s-8 -24.833 -8 -37.5
c0 -18.667 9.33301 -28 28 -28c17.333 0 37.333 8.33301 60 25s44 37.334 64 62.001s37 50.5 51 77.5s21 51.167 21 72.5c0 14 -3.16699 27 -9.5 39s-15 22.5 -26 31.5s-23.833 16 -38.5 21s-30.334 7.5 -47.001 7.5c-34.667 0 -70 -10.5 -106 -31.5s-68.833 -48 -98.5 -81
s-53.834 -69.833 -72.501 -110.5s-28 -80.667 -28 -120c0 -24.667 3.66699 -47.667 11 -69s17.5 -40 30.5 -56s28.333 -28.667 46 -38s36.834 -14 57.501 -14c29.333 0 61.833 10.667 97.5 32s79.5 56 131.5 104c3.33301 -6 5.5 -10.333 6.5 -13s1.5 -5.66699 1.5 -9
l-61 -59c-20.667 -19.333 -41.834 -36.5 -63.501 -51.5s-44 -27 -67 -36s-46.5 -13.5 -70.5 -13.5c-33.333 0 -64.5 8.66699 -93.5 26s-54.333 39.166 -76 65.499s-38.834 55.333 -51.501 87s-19 61.834 -19 90.501c0 19.333 3.16699 41.5 9.5 66.5s15.833 50.667 28.5 77
s28.834 52.5 48.501 78.5s42.5 50 68.5 72z" />
    <glyph glyph-name="A" unicode="A" horiz-adv-x="642" 
d="M146 -76c-32 9.33301 -54.1699 18.6729 -66.5029 28.0059s-18.5 21 -18.5 35c0 10.667 3 25.667 9 45s14.833 42.166 26.5 68.499s25.667 55.5 42 87.5s34.833 66.333 55.5 103c-17.333 0.666992 -32.833 1.16699 -46.5 1.5s-24.834 0.5 -33.501 0.5
c4 10 15.333 18.667 34 26s43.334 13.666 74.001 18.999c26 43.333 53.833 84.666 83.5 123.999s59.5 75.5 89.5 108.5s60 62 90 87s58.667 44.833 86 59.5c0.666992 4.66699 1.16699 8.66699 1.5 12s0.5 5.66602 0.5 6.99902c9.33301 0 21.833 -2.33301 37.5 -7
s31 -10.334 46 -17.001s28.333 -13.5 40 -20.5s18.167 -12.833 19.5 -17.5c-22 -38.667 -43.667 -96.5 -65 -173.5s-39 -169.167 -53 -276.5c-3.33301 -26.667 -6.16602 -57 -8.49902 -91s-3.5 -72 -3.5 -114v-45c0 -15.333 0.666992 -31.333 2 -48
c-1.33301 -0.666992 -2.66602 -1 -3.99902 -1h-8c-9.33301 0 -20.166 1.5 -32.499 4.5s-24.333 6.66699 -36 11s-21.667 9.16602 -30 14.499s-13.5 10 -15.5 14c-0.666992 8.66699 -1 17.167 -1 25.5v26.5c0 41.333 1.5 83.333 4.5 126s8.16699 86.667 15.5 132
c-9.33301 0.666992 -21.666 1.5 -36.999 2.5s-32.5 1.83301 -51.5 2.5s-39.333 1.5 -61 2.5s-42.834 1.83301 -63.501 2.5c-16 -30 -31 -59.833 -45 -89.5s-26 -59.5 -36 -89.5c-11.333 -32 -20.5 -64 -27.5 -96s-11.5 -62 -13.5 -90zM531.997 525.007
c2.66699 9.33301 5.83496 22.167 9.50195 38.5s7.16699 33.5 10.5 51.5c-16.667 -6 -35.167 -17 -55.5 -33s-41.333 -35.833 -63 -59.5s-43.667 -50.334 -66 -80.001s-43.833 -61.167 -64.5 -94.5c56 4.66699 119.667 7.66699 191 9c5.33301 28 11.166 55.833 17.499 83.5
s13.166 55.834 20.499 84.501z" />
    <glyph glyph-name="B" unicode="B" horiz-adv-x="719" 
d="M790 551c0 -41.333 -11.3311 -78.1699 -33.998 -110.503s-53.667 -59.166 -93 -80.499c25.333 -17.333 45.5 -38.5 60.5 -63.5s22.5 -52.5 22.5 -82.5c0 -36 -10.833 -71.5 -32.5 -106.5s-50.5 -66 -86.5 -93s-77 -48.833 -123 -65.5s-93 -25 -141 -25
c-52 0 -97.5 9.83301 -136.5 29.5s-69.5 47.5 -91.5 83.5c6.66699 20 15.5 44.833 26.5 74.5l36.5 94l40.5 98.5c13.667 32.667 26.5 62 38.5 88c25.333 56.667 48 103.667 68 141s38.333 67 55 89c-36.667 -11.333 -70 -24.166 -100 -38.499s-52 -28.166 -66 -41.499
c-6 4 -12.167 10 -18.5 18s-12.333 16.833 -18 26.5s-10.334 19.5 -14.001 29.5s-5.83398 19 -6.50098 27c17.333 12 39.833 23.5 67.5 34.5s57.834 20.5 90.501 28.5s66.167 14.333 100.5 19s67.166 7 98.499 7c80 0 142.667 -16 188 -48s68 -76.333 68 -133z
M409.002 311.996c-12.667 6 -24.3281 14.999 -34.9951 26.999l-43.5 -100c-13.667 -32.667 -25.834 -63 -36.501 -91s-19.334 -52.333 -26.001 -73s-10.334 -35.667 -11.001 -45c9.33301 -5.33301 20.5 -9.33301 33.5 -12s29.167 -4 48.5 -4
c45.333 0 88.666 6.33301 129.999 19s77.666 29.834 108.999 51.501s56.333 46.5 75 74.5s28 57.333 28 88c0 44 -19 75.667 -57 95c-52 -21.333 -110.667 -32 -176 -32h-21.5c-5 0 -10.833 0.666992 -17.5 2zM603.008 658.995c-14 0 -28.833 -0.834961 -44.5 -2.50195
s-32.167 -4.16699 -49.5 -7.5c2.66699 -2.66699 4.83398 -5.5 6.50098 -8.5s3.16699 -6.16699 4.5 -9.5c-6 -8 -13.333 -19.667 -22 -35l-29 -53.5c-10.667 -20.333 -21.834 -42.833 -33.501 -67.5l-35.5 -76c11.333 2.66699 25.166 4.83398 41.499 6.50098
s32.5 2.5 48.5 2.5c8.66699 0 17.167 -0.333008 25.5 -1s16.5 -1.66699 24.5 -3c32 5.33301 60.833 13.166 86.5 23.499s47.834 22.333 66.501 36s33 28.834 43 45.501s15 34.334 15 53.001c0 32 -12.667 56.167 -38 72.5s-62 24.5 -110 24.5z" />
    <glyph glyph-name="C" unicode="C" horiz-adv-x="604" 
d="M142 196c0 46.667 5.50293 92.4951 16.5029 137.495s26.5 87.667 46.5 128s43.833 77.333 71.5 111s58 62.834 91 87.501s68.167 43.834 105.5 57.501s75.666 20.5 114.999 20.5c46 0 81.833 -9.66699 107.5 -29s38.5 -46.333 38.5 -81c0 -13.333 -1.83301 -27 -5.5 -41
s-9 -27.833 -16 -41.5s-15.167 -26.834 -24.5 -39.501s-19.666 -23.667 -30.999 -33c-17.333 2.66699 -32.333 10.5 -45 23.5s-20.667 28.167 -24 45.5c23.333 19.333 41.833 39.5 55.5 60.5s20.5 40.167 20.5 57.5c0 29.333 -18.333 44 -55 44
c-15.333 0 -31.166 -3.16699 -47.499 -9.5s-32.833 -15.166 -49.5 -26.499s-32.834 -25 -48.501 -41s-30.167 -33.667 -43.5 -53c-92.667 -133.333 -139 -269.666 -139 -408.999c0 -49.333 7.66699 -89 23 -119s35.666 -47.667 60.999 -53c28.667 6.66699 65 25 109 55
s92 69 144 117c6.66699 -6.66699 10.667 -13.667 12 -21c-19.333 -25.333 -39.333 -49.666 -60 -72.999s-41.167 -44.666 -61.5 -63.999s-40.333 -36.333 -60 -51s-37.834 -26 -54.501 -34c-82.667 1.33301 -145.334 25 -188.001 71s-64 113.667 -64 203z" />
    <glyph glyph-name="D" unicode="D" horiz-adv-x="778" 
d="M168 52c10 22 22 50.3281 36 84.9951l44 112.5l47 124l45 120.5l36.5 102c10.333 30 17.833 53 22.5 69c-42 -17.333 -78 -43.666 -108 -78.999s-52.667 -79.666 -68 -132.999c-15.333 5.33301 -29.333 14.833 -42 28.5s-21 30.834 -25 51.501
c6.66699 30.667 19.167 58.667 37.5 84s41.5 47 69.5 65s60.333 31.833 97 41.5s76 14.5 118 14.5c53.333 0 102.333 -7.83301 147 -23.5s83 -37.5 115 -65.5s57 -61.667 75 -101s27 -83 27 -131c0 -65.333 -12 -127.666 -36 -186.999s-56.5 -111.666 -97.5 -156.999
s-88.5 -81.5 -142.5 -108.5s-110.667 -40.5 -170 -40.5c-54.667 0 -101.5 10.833 -140.5 32.5s-68.167 53.5 -87.5 95.5zM521 687.995c-33.333 0 -64.9951 -4.66406 -94.9951 -13.9971c29.333 -10.667 53.666 -21.834 72.999 -33.501s32.666 -20.834 39.999 -27.501
c-5.33301 -7.33301 -13.166 -20.333 -23.499 -39l-36 -68l-43.5 -87.5l-45 -97.5c-38 -84.667 -65.5 -151.334 -82.5 -200.001s-25.5 -82.334 -25.5 -101.001c9.33301 -3.33301 20.666 -5.66602 33.999 -6.99902s27.666 -2 42.999 -2c54 0 105.167 12.5 153.5 37.5
s90.666 58.5 126.999 100.5s65 90.833 86 146.5s31.5 114.167 31.5 175.5c0 68.667 -21.333 122 -64 160s-100.334 57 -173.001 57z" />
    <glyph glyph-name="E" unicode="E" horiz-adv-x="609" 
d="M514 426c22 0 39.1748 -5.99902 51.5078 -17.999s18.5 -28.667 18.5 -50c0 -5.33301 -0.5 -10.833 -1.5 -16.5s-2.16699 -10.5 -3.5 -14.5c-8.66699 1.33301 -18.334 2.5 -29.001 3.5s-23.334 1.5 -38.001 1.5c-28.667 0 -57.667 -2.5 -87 -7.5
s-57.333 -9.16699 -84 -12.5c-15.333 -35.333 -29.333 -69.5 -42 -102.5s-23.5 -63.167 -32.5 -90.5s-16 -51 -21 -71s-7.83301 -35 -8.5 -45c54 11.333 108.5 21 163.5 29s112.833 14 173.5 18c7.33301 -11.333 13.5 -23.666 18.5 -36.999s7.5 -27.666 7.5 -42.999v-13
c0 -4.66699 -0.666992 -9.33398 -2 -14.001c-18.667 0.666992 -38.334 1.16699 -59.001 1.5s-47.667 0.5 -81 0.5c-22 0 -42.833 -0.5 -62.5 -1.5s-39.5 -2.5 -59.5 -4.5s-41.167 -4.66699 -63.5 -8s-47.5 -7.33301 -75.5 -12c-30.667 12 -60.334 41.333 -89.001 88
c11.333 24 27.166 60.5 47.499 109.5l77.5 196.5c-30 9.33301 -49.667 26 -59 50c3.33301 3.33301 13 7.5 29 12.5s35.667 10.167 59 15.5l25.5 68c7 19.333 13.167 37.5 18.5 54.5s10.166 33.667 14.499 50s8.5 34.166 12.5 53.499
c-23.333 1.33301 -41.666 7.83301 -54.999 19.5s-20 26.834 -20 45.501c0 5.33301 0.833008 11.666 2.5 18.999s3.5 13.666 5.5 18.999c13.333 -2 26.166 -3.33301 38.499 -4s28.5 -1 48.5 -1c42 0 81.333 1.16699 118 3.5s69.834 4.83301 99.501 7.5
s55.167 5.16699 76.5 7.5s37.666 3.5 48.999 3.5c15.333 0 29 -8 41 -24s21 -38.667 27 -68c-20.667 2 -37.5 3.33301 -50.5 4s-24.5 1 -34.5 1c-36.667 0 -70.167 -1.83301 -100.5 -5.5s-59.5 -7.5 -87.5 -11.5c-4 -6 -8.5 -13.667 -13.5 -23s-11.5 -22.333 -19.5 -39
l-29.5 -63l-42.5 -95c25.333 4 49.166 7.16699 71.499 9.5s41.166 3.5 56.499 3.5z" />
    <glyph glyph-name="F" unicode="F" horiz-adv-x="551" 
d="M520 417c21.333 0 38.167 -5.99512 50.5 -17.9951s18.5 -28.667 18.5 -50c0 -5.33301 -0.333008 -10.833 -1 -16.5s-2 -10.5 -4 -14.5c-8.66699 1.33301 -18.334 2.5 -29.001 3.5s-23.334 1.5 -38.001 1.5c-30 0 -60 -2.66699 -90 -8s-58.667 -9.66602 -86 -12.999
c-30 -70.667 -54.667 -137 -74 -199s-34.333 -123.333 -45 -184c-22.667 5.33301 -42.667 15 -60 29s-33.666 33.667 -48.999 59l17 38.5c6.66699 15 14.667 34 24 57l33.5 84l46.5 118.5c-28 9.33301 -46.333 25.666 -55 48.999
c3.33301 3.33301 12.666 7.16602 27.999 11.499s34 9.16602 56 14.499l26 69.5c7.33301 20.333 14 39.666 20 57.999s11.5 36.333 16.5 54s9.5 36.5 13.5 56.5h-5c-25.333 0 -45.833 6 -61.5 18s-23.5 27.667 -23.5 47c0 5.33301 0.833008 11.666 2.5 18.999
s3.83398 13.666 6.50098 18.999c12.667 -2 25.167 -3.33301 37.5 -4s28.5 -1 48.5 -1c42 0 81.333 1.16699 118 3.5s69.834 4.83301 99.501 7.5s55.167 5.16699 76.5 7.5s37.666 3.5 48.999 3.5c15.333 0 29 -8 41 -24s21.333 -38.667 28 -68
c-21.333 2 -38.5 3.33301 -51.5 4s-24.5 1 -34.5 1c-34 0 -65.167 -1.5 -93.5 -4.5s-55.166 -6.5 -80.499 -10.5c-4 -6 -8.5 -13.667 -13.5 -23s-11.5 -22.5 -19.5 -39.5l-30.5 -66.5l-46.5 -104c26 4 50.833 7.33301 74.5 10s43.5 4 59.5 4z" />
    <glyph glyph-name="G" unicode="G" horiz-adv-x="650" 
d="M655 318c17.333 0 31 -6.00488 41 -18.0049s15 -28.667 15 -50c0 -5.33301 -0.333008 -10.833 -1 -16.5s-1.66699 -10.5 -3 -14.5c-14 3.33301 -29.333 5.33301 -46 6c-4 -29.333 -14.667 -60.166 -32 -92.499s-38.333 -62.666 -63 -90.999s-51.667 -53.166 -81 -74.499
s-58.333 -35.666 -87 -42.999c-89.333 2 -154.5 25.167 -195.5 69.5s-61.5 113.5 -61.5 207.5c0 68.667 12.667 135.167 38 199.5s59 121.5 101 171.5s90.167 90.167 144.5 120.5s110.833 45.5 169.5 45.5c46 0 81.833 -9.66699 107.5 -29s38.5 -46.666 38.5 -81.999
c0 -23.333 -5.5 -45 -16.5 -65s-29.167 -41.667 -54.5 -65c-15.333 4.66699 -28.666 12.834 -39.999 24.501s-18.333 25.167 -21 40.5c22.667 16.667 38.667 32 48 46s14 30.667 14 50c0 30.667 -18.333 46 -55 46c-30 0 -62.167 -11.167 -96.5 -33.5
s-68.833 -54.5 -103.5 -96.5c-49.333 -59.333 -85.333 -120.5 -108 -183.5s-34 -133.833 -34 -212.5c0 -29.333 3 -56 9 -80s14 -45 24 -63s21.833 -32.333 35.5 -43s28.5 -16.667 44.5 -18c21.333 4.66699 42.666 15.5 63.999 32.5s40.833 37 58.5 60s32.667 47.667 45 74
s19.833 51.5 22.5 75.5l-53.5 -11.5c-17 -3.66699 -33.167 -5.5 -48.5 -5.5c-20 0 -37.5 5 -52.5 15s-25.167 23.667 -30.5 41c12 6.66699 29.5 13.667 52.5 21s47.5 14.166 73.5 20.499s51.5 11.5 76.5 15.5s45.5 6 61.5 6z" />
    <glyph glyph-name="H" unicode="H" horiz-adv-x="675" 
d="M491 58c0 28 4.66895 63.9961 14.002 107.996s21.666 91 36.999 141c-44 -3.33301 -88.167 -7.66602 -132.5 -12.999s-82.833 -8.33301 -115.5 -9c-30 -70 -53.833 -134.5 -71.5 -193.5s-31.5 -116.5 -41.5 -172.5c-25.333 6 -46.333 16.5 -63 31.5s-32 33.833 -46 56.5
c5.33301 10.667 11.5 24.334 18.5 41.001l25 60.5l33 83l42.5 110.5c-22 9.33301 -36.667 22.333 -44 39c3.33301 2.66699 10.833 5.5 22.5 8.5s26.167 6.16699 43.5 9.5l13 32l34.5 91c9 24.667 16.667 48.834 23 72.501s12.333 49.834 18 78.501l20.5 109
c28 -5.33301 53.5 -17.666 76.5 -36.999s42.833 -42.666 59.5 -69.999c-6 -8 -13.333 -20 -22 -36s-18.167 -35.167 -28.5 -57.5l-33.5 -75l-39 -87.5c41.333 5.33301 83.166 10.333 125.499 15s79.833 8 112.5 10c12 34.667 24.5 68.5 37.5 101.5s25.833 63.167 38.5 90.5
s24.834 51.333 36.501 72s22.167 36 31.5 46c6.66699 -0.666992 15.5 -3.16699 26.5 -7.5s22.167 -9.5 33.5 -15.5s21.666 -12.5 30.999 -19.5s15.666 -13.5 18.999 -19.5c-12 -11.333 -24 -26 -36 -44s-23.833 -38.667 -35.5 -62s-23.167 -48.666 -34.5 -75.999
s-22 -55.666 -32 -84.999c13.333 -12 20 -27 20 -45c0 -12.667 -2.66699 -24.334 -8 -35.001c-6 1.33301 -12 2.16602 -18 2.49902s-12.333 0.833008 -19 1.5c-11.333 -36 -21.666 -71.667 -30.999 -107s-17.166 -69 -23.499 -101s-11.333 -61.333 -15 -88
s-5.5 -49 -5.5 -67c0 -6.66699 0.166992 -12 0.5 -16s0.833008 -7.33301 1.5 -10c-14.667 0.666992 -25.334 3.16699 -32.001 7.5s-11.667 9 -15 14s-6.33301 10 -9 15s-7 8.83301 -13 11.5c-4.66699 2 -9 6.66699 -13 14s-7.33301 15.666 -10 24.999
s-4.66699 18.666 -6 27.999s-2 17 -2 23z" />
    <glyph glyph-name="I" unicode="I" horiz-adv-x="315" 
d="M131 57c0 24 3.83203 55.1699 11.499 93.5029s17.667 79.666 30 123.999s26.5 89.666 42.5 135.999s32.333 89.833 49 130.5s33 76.334 49 107.001s30.333 52.667 43 66c6.66699 -0.666992 15.5 -3.16699 26.5 -7.5s22.167 -9.5 33.5 -15.5s21.666 -12.5 30.999 -19.5
s15.333 -13.5 18 -19.5c-19.333 -17.333 -38.5 -43.5 -57.5 -78.5s-37.333 -74.833 -55 -119.5s-34.167 -91.834 -49.5 -141.501s-28.666 -97.834 -39.999 -144.501s-20.166 -90 -26.499 -130s-9.5 -72.333 -9.5 -97c0 -11.333 1 -18.333 3 -21
c-14.667 0.666992 -25.334 3.16699 -32.001 7.5s-11.834 9 -15.501 14s-7 10 -10 15s-7.5 8.83301 -13.5 11.5c-4.66699 2 -8.66699 6.66699 -12 14s-6.16602 15.5 -8.49902 24.5s-4.16602 18.167 -5.49902 27.5s-2 17 -2 23z" />
    <glyph glyph-name="J" unicode="J" horiz-adv-x="512" 
d="M476 739c25.333 0 51.6641 -4.66699 78.9971 -14s51.333 -21.333 72 -36l-18.5 -92l-15.5 -74.5c-4.66699 -22.333 -9.16699 -42.666 -13.5 -60.999l-12.5 -51.5c-16 -60 -32.5 -114.167 -49.5 -162.5s-35 -91.833 -54 -130.5s-39 -73 -60 -103s-43.5 -56.333 -67.5 -79
c-23.333 -22 -46.666 -40 -69.999 -54s-45 -23 -65 -27c-26.667 0 -51.334 3 -74.001 9s-42.167 14.167 -58.5 24.5s-29 22.666 -38 36.999s-13.5 30.166 -13.5 47.499c0 18.667 4.66699 42.167 14 70.5s23.666 61.833 42.999 100.5c8 -0.666992 17.333 -2.66699 28 -6
s21.334 -7.33301 32.001 -12s20.334 -9.83398 29.001 -15.501s15 -11.167 19 -16.5c-21.333 -22 -38.666 -46.167 -51.999 -72.5s-20 -49.166 -20 -68.499c0 -11.333 2.16699 -21.5 6.5 -30.5s11.833 -17.167 22.5 -24.5c40.667 15.333 80.334 43.833 119.001 85.5
s73 93.5 103 155.5c18 36.667 34.333 78.667 49 126s27.167 94.833 37.5 142.5s18.333 93.334 24 137.001s8.5 80.5 8.5 110.5c0 4.66699 -0.166992 11.167 -0.5 19.5l-1 26c-0.333008 9 -0.833008 17.167 -1.5 24.5s-1 12.333 -1 15z" />
    <glyph glyph-name="K" unicode="K" horiz-adv-x="653" 
d="M334 317c41.333 61.333 82.1621 117.835 122.495 169.502s78.833 96.167 115.5 133.5s70.334 66.333 101.001 87s57.334 31 80.001 31c8.66699 0 18.167 -3.33301 28.5 -10s20 -15.334 29 -26.001s16.5 -22.167 22.5 -34.5s9 -24.166 9 -35.499
c-41.333 -13.333 -81.833 -30.833 -121.5 -52.5s-77.667 -46.667 -114 -75s-71 -59.833 -104 -94.5s-62.833 -71.667 -89.5 -111c10.667 -27.333 23.834 -56.5 39.501 -87.5s32.834 -61 51.501 -90s38.667 -55.833 60 -80.5s43 -44.334 65 -59.001
c-3.33301 -7.33301 -9 -14.333 -17 -21s-16.667 -12.834 -26 -18.501s-19.166 -10.167 -29.499 -13.5s-19.833 -5 -28.5 -5c-17.333 0 -33.333 8.16699 -48 24.5s-29.5 41 -44.5 74s-30.667 74 -47 123zM182.996 -80.998c-25.333 6 -46.333 16.4951 -63 31.4951
s-32 33.833 -46 56.5c6 12.667 13.167 29.334 21.5 50.001l30.5 76.5l43 109l58 148.5l34.5 91c9 24.667 16.667 48.834 23 72.501s12.5 49.834 18.5 78.501s13 65 21 109c28 -5.33301 53.5 -17.666 76.5 -36.999s42.833 -42.666 59.5 -69.999
c-7.33301 -9.33301 -15.833 -23.5 -25.5 -42.5s-20.5 -41.833 -32.5 -68.5l-40 -89l-46 -104c-36 -80 -64.333 -153.167 -85 -219.5s-36.667 -130.5 -48 -192.5z" />
    <glyph glyph-name="L" unicode="L" horiz-adv-x="500" 
d="M473 57c16.667 -28.667 24.9971 -56.3369 24.9971 -83.0039c0 -6 -0.5 -11.5 -1.5 -16.5s-2.16699 -10.167 -3.5 -15.5c-11.333 1.33301 -23.166 2.33301 -35.499 3s-25.166 1 -38.499 1c-16 0 -32.167 -0.5 -48.5 -1.5s-34.5 -2.5 -54.5 -4.5s-42.333 -4.66699 -67 -8
s-53.334 -7.66602 -86.001 -12.999c-15.333 5.33301 -30.666 15.833 -45.999 31.5s-29.666 34.5 -42.999 56.5l25 54.5l35 79c13.333 31 28.166 67.333 44.499 109s33.833 89.834 52.5 144.501l31 95c8.66699 27.333 16.5 53.833 23.5 79.5s13.833 52.5 20.5 80.5l22 97
c26.667 -5.33301 49.834 -15.166 69.501 -29.499s38.5 -34.833 56.5 -61.5c-5.33301 -8.66699 -12.333 -22.667 -21 -42l-30.5 -70.5l-38.5 -94l-44 -112.5l-43 -111l-37.5 -94c-11 -28 -19.833 -52 -26.5 -72s-10 -35 -10 -45
c10.667 0.666992 20.334 1.33398 29.001 2.00098s17.667 1.83398 27 3.50098s19.5 3.66699 30.5 6s24.167 5.5 39.5 9.5c13.333 3.33301 25.666 6.16602 36.999 8.49902s22.5 4.33301 33.5 6s22.333 3 34 4z" />
    <glyph glyph-name="M" unicode="M" horiz-adv-x="942" 
d="M514 -74c-1.33301 -0.666992 -2.66992 -0.99707 -4.00293 -0.99707h-8c-9.33301 0 -20.166 1.5 -32.499 4.5s-24.333 6.66699 -36 11s-21.667 9.16602 -30 14.499s-13.5 10 -15.5 14c-0.666992 9.33301 -1 19 -1 29v29c0 74.667 5.5 152.667 16.5 234
s29.167 169.333 54.5 264c2.66699 9.33301 5.5 21.166 8.5 35.499l9.5 46.5c-16 -12.667 -35 -32.834 -57 -60.501s-45.167 -60.334 -69.5 -98.001s-48.666 -79 -72.999 -124s-46.5 -90.667 -66.5 -137s-37.167 -92.166 -51.5 -137.499s-23.166 -87.333 -26.499 -126
c-32 9.33301 -54.167 18.666 -66.5 27.999s-18.5 20.666 -18.5 33.999c0 12 3.66699 29 11 51s17.666 48 30.999 78s29.666 63.5 48.999 100.5l64 119.5l78.5 137c25.667 42.667 50.834 81.334 75.501 116.001s48.834 64.667 72.501 90s47.167 44.666 70.5 57.999
c9.33301 0 21.833 -2.33301 37.5 -7s31 -10.334 46 -17.001s28.333 -13.5 40 -20.5s18.167 -12.833 19.5 -17.5c-9.33301 -18.667 -20.333 -46.667 -33 -84s-25.5 -79.666 -38.5 -126.999s-25.333 -97.5 -37 -150.5s-20.834 -103.833 -27.501 -152.5
c15.333 36.667 33.166 74.834 53.499 114.501s41.833 79 64.5 118s45.834 76.833 69.501 113.5s46.834 70.167 69.501 100.5s43.834 56.833 63.501 79.5s37.167 39.334 52.5 50.001c9.33301 0 21.833 -2.33301 37.5 -7s31 -10.334 46 -17.001s28.333 -13.5 40 -20.5
s18.167 -12.833 19.5 -17.5c-21.333 -38 -40 -84.333 -56 -139s-29.5 -112 -40.5 -172s-19.333 -119.5 -25 -178.5s-8.5 -111.833 -8.5 -158.5v-48c0 -16.667 0.666992 -34 2 -52c-9.33301 0 -20.5 1.16699 -33.5 3.5s-25.667 5.5 -38 9.5s-23.5 8.5 -33.5 13.5
s-17 10.5 -21 16.5c-0.666992 9.33301 -1 19 -1 29v29c0 74.667 5.5 152.667 16.5 234s29.167 169.333 54.5 264c2.66699 9.33301 5.66699 22 9 38l10 50c-18.667 -9.33301 -39.834 -27.166 -63.501 -53.499s-47.667 -58.333 -72 -96s-48.333 -79.5 -72 -125.5
s-45 -92.833 -64 -140.5s-35 -95 -48 -142s-20.833 -90.167 -23.5 -129.5z" />
    <glyph glyph-name="N" unicode="N" horiz-adv-x="683" 
d="M190 -76c-38 11.333 -63.6689 22.168 -77.002 32.501s-20 24.5 -20 42.5c0 20 4.66699 48.167 14 84.5s21.5 76.833 36.5 121.5s32.167 91.334 51.5 140.001s39 95.334 59 140.001s39.5 85.5 58.5 122.5s35.833 65.833 50.5 86.5l-7 42c9.33301 0 22.333 -2.33301 39 -7
s33.5 -10.334 50.5 -17.001s32 -13.5 45 -20.5s20.167 -12.833 21.5 -17.5c-3.33301 -16 -6 -40.167 -8 -72.5s-3 -66.833 -3 -103.5c0 -72.667 2.83301 -143.834 8.5 -213.501s18.834 -140.5 39.501 -212.5c10.667 53.333 22.167 106.5 34.5 159.5
s25.166 103.667 38.499 152s26.666 93.166 39.999 134.499s26.166 77.5 38.499 108.5s23.833 55.333 34.5 73s20.334 27.167 29.001 28.5c7.33301 -1.33301 15.333 -4.16602 24 -8.49902s17 -9.5 25 -15.5s15.333 -12.667 22 -20s12 -14.666 16 -21.999
c-21.333 -8.66699 -42.5 -29 -63.5 -61s-41 -70.833 -60 -116.5s-36.667 -95.167 -53 -148.5s-30.666 -105.833 -42.999 -157.5s-22 -99.5 -29 -143.5s-10.833 -79.333 -11.5 -106c0 -1.33301 0.333008 -2.33301 1 -3c-2 -0.666992 -4.16699 -1 -6.5 -1h-6.5
c-30.667 0 -57.834 3.83301 -81.501 11.5s-39.167 18.5 -46.5 32.5c-14 56 -25.667 110 -35 162s-17.166 104 -23.499 156s-11.333 104.5 -15 157.5s-6.5 108.5 -8.5 166.5c-12.667 -20 -26 -46.167 -40 -78.5s-27.667 -67.833 -41 -106.5s-26.166 -79.334 -38.499 -122.001
s-23.166 -84.334 -32.499 -125.001s-16.666 -79.167 -21.999 -115.5s-8 -67.833 -8 -94.5c0 -14 0.166992 -24 0.5 -30s1.16602 -11 2.49902 -15z" />
    <glyph glyph-name="O" unicode="O" 
d="M562 728c12.667 -5.33301 25.6689 -12.168 39.002 -20.501s25.666 -16.833 36.999 -25.5s20.833 -17.167 28.5 -25.5s11.834 -15.166 12.501 -20.499c-11.333 2.66699 -22.666 4.5 -33.999 5.5s-21.666 1.5 -30.999 1.5c-30 0 -59.833 -7.33301 -89.5 -22
s-57.834 -34.667 -84.501 -60s-51.334 -55 -74.001 -89s-42.167 -70.333 -58.5 -109s-29.166 -78.667 -38.499 -120s-14 -82 -14 -122c0 -52 8.66699 -90.667 26 -116s42.666 -38 75.999 -38c16 0 33.333 3.16699 52 9.5s37.667 15.166 57 26.499s38.333 25 57 41
s36 33.667 52 53c23.333 28 44.333 59.833 63 95.5s34.5 73.5 47.5 113.5s23 81.167 30 123.5s10.5 83.833 10.5 124.5c0 16 -0.333008 29.5 -1 40.5s-1.5 20.333 -2.5 28s-1.83301 13.834 -2.5 18.501s-1.33398 8.66699 -2.00098 12c8 -4 16.833 -8.83301 26.5 -14.5
s18.667 -14 27 -25s15.333 -25.5 21 -43.5s8.5 -41.333 8.5 -70c0 -46.667 -5.5 -92.5 -16.5 -137.5s-26.333 -87.833 -46 -128.5s-42.834 -78.667 -69.501 -114s-55.334 -66.333 -86.001 -93c-40 -35.333 -82.667 -62.666 -128 -81.999s-89 -29 -131 -29
c-61.333 0 -108.166 19.5 -140.499 58.5s-48.5 96.5 -48.5 172.5c0 40.667 4.5 83.667 13.5 129s21.667 90 38 134s35.833 85.833 58.5 125.5s47.5 74.667 74.5 105s56 54.5 87 72.5s62.833 27 95.5 27c10.667 0 20.667 -0.833008 30 -2.5s19.333 -4.83398 30 -9.50098z" />
    <glyph glyph-name="P" unicode="P" horiz-adv-x="642" 
d="M782 539c0 -36.667 -9.16797 -71.666 -27.501 -104.999s-43 -62.5 -74 -87.5s-67.333 -44.833 -109 -59.5s-85.834 -22 -132.501 -22c-16.667 0 -29.834 2.16699 -39.501 6.5s-20.5 12.833 -32.5 25.5c-33.333 -72.667 -60.5 -139.5 -81.5 -200.5
s-37.5 -120.167 -49.5 -177.5c-25.333 6 -46 16.5 -62 31.5s-30.667 33.833 -44 56.5c6.66699 12.667 14.667 29.334 24 50.001l34 76.5l46.5 109l62.5 148.5l28 68c8 19.333 15 37.5 21 54.5s11.5 33.833 16.5 50.5s10.167 35 15.5 55
c-31.333 -10 -60.166 -21.667 -86.499 -35s-48.166 -27.333 -65.499 -42c-6 4 -12.167 10 -18.5 18s-12.166 16.833 -17.499 26.5s-10 19.5 -14 29.5s-6.33301 19 -7 27c19.333 13.333 43.333 25.666 72 36.999s59.334 21.166 92.001 29.499s66.5 14.833 101.5 19.5
s68.5 7 100.5 7c38 0 72.333 -4.83301 103 -14.5s56.667 -23.167 78 -40.5s37.666 -38 48.999 -62s17 -50.667 17 -80zM603.999 659.001c-25.333 0 -51.333 -2.00098 -78 -6.00098l12 -18c-6.66699 -8.66699 -15 -21.667 -25 -39s-21 -38.166 -33 -62.499l-39.5 -81.5
l-45.5 -95c52 0 99.333 4.83301 142 14.5s79.167 23 109.5 40s54 36.833 71 59.5s25.5 47 25.5 73c0 34.667 -11.667 62.5 -35 83.5s-58 31.5 -104 31.5z" />
    <glyph glyph-name="Q" unicode="Q" horiz-adv-x="719" 
d="M597 728c11.333 -5.33301 23.332 -12.1709 35.999 -20.5039s24.334 -17 35.001 -26s19.667 -17.667 27 -26s11 -14.833 11 -19.5c-9.33301 2 -19.5 3.66699 -30.5 5s-21.5 2 -31.5 2c-36 0 -71 -7.83301 -105 -23.5s-66.333 -38.167 -97 -67.5
s-58.834 -65.166 -84.501 -107.499s-47.834 -90.166 -66.501 -143.499c-15.333 -44.667 -27.666 -88.834 -36.999 -132.501s-14 -80.167 -14 -109.5c0 -37.333 7.66699 -56.666 23 -57.999c4 0 10.833 -0.833008 20.5 -2.5s20 -3.83398 31 -6.50098s22 -5.5 33 -8.5
s20.167 -5.83301 27.5 -8.5c25.333 1.33301 55 13 89 35s67.333 51.333 100 88c28.667 32 54.5 67.167 77.5 105.5s42.5 78.666 58.5 120.999s28.167 85.833 36.5 130.5s12.5 89 12.5 133c0 13.333 -0.333008 26.333 -1 39s-1.66699 21.334 -3 26.001
c27.333 -13.333 46.666 -29 57.999 -47s17 -41 17 -69c0 -40 -6.33301 -83 -19 -129s-30.167 -92 -52.5 -138s-48.833 -90.167 -79.5 -132.5s-64 -80.166 -100 -113.499c-47.333 -44 -86 -68.667 -116 -74c18 -9.33301 38.667 -19.5 62 -30.5l68 -31
c22 -9.66699 41.667 -17.834 59 -24.501s29 -10.334 35 -11.001c6.66699 0.666992 15.334 4.83398 26.001 12.501s19.667 16.834 27 27.501c3.33301 -4 6.5 -9.33301 9.5 -16s4.83301 -11.667 5.5 -15c-2.66699 -9.33301 -8.16699 -20.166 -16.5 -32.499
s-17.833 -24.333 -28.5 -36s-21.5 -21.834 -32.5 -30.501s-20.5 -14 -28.5 -16c-11.333 0.666992 -21.833 2.16699 -31.5 4.5s-20.167 6 -31.5 11s-24 12 -38 21l-52 34.5c-36.667 25.333 -68.667 46.333 -96 63s-52.333 30 -75 40s-44 17 -64 21s-40.667 6 -62 6
c-74.667 0 -116 -25 -124 -75c-10 4.66699 -15.667 11 -17 19c4 34 16.5 60 37.5 78s53.5 29.667 97.5 35c-30.667 26.667 -46 73.334 -46 140.001c0 46.667 5.5 93.834 16.5 141.501s26 93.5 45 137.5s41.333 85.167 67 123.5s53.334 71.833 83.001 100.5
s60.5 51.167 92.5 67.5s63.667 24.5 95 24.5c11.333 0 21.833 -1 31.5 -3s19.5 -5 29.5 -9z" />
    <glyph glyph-name="R" unicode="R" horiz-adv-x="691" 
d="M781 551c0 -32 -7.16992 -62.1631 -21.5029 -90.4961s-34.166 -53.666 -59.499 -75.999s-55 -41.166 -89 -56.499s-71 -25.666 -111 -30.999c10 -30 22.167 -60.833 36.5 -92.5s29.833 -62.167 46.5 -91.5s34 -56.333 52 -81s35.667 -45 53 -61
c-3.33301 -6.66699 -8.16602 -13.334 -14.499 -20.001s-13.666 -12.834 -21.999 -18.501s-17 -10.334 -26 -14.001s-17.5 -5.5 -25.5 -5.5c-14.667 0 -28.667 7 -42 21s-26.833 36.167 -40.5 66.5s-28 69.666 -43 117.999s-31.5 106.5 -49.5 174.5h-22
c-7.33301 0 -13 0.666992 -17 2c-4.66699 2.66699 -9.66699 7.33398 -15 14.001c-18 -38.667 -34 -75 -48 -109s-26.5 -66.833 -37.5 -98.5s-20.667 -62.334 -29 -92.001s-15.5 -59.834 -21.5 -90.501c-22.667 5.33301 -42.334 15 -59.001 29s-32.334 33.667 -47.001 59
c2.66699 6 5.5 11.833 8.5 17.5s6.83301 13.667 11.5 24l17.5 39.5l28 64l42 98l59.5 141l27.5 65c7.66699 18.667 14.5 36.5 20.5 53.5s11.5 34 16.5 51s10.167 36.5 15.5 58.5c-30.667 -10.667 -59.167 -22.5 -85.5 -35.5s-48.166 -26.833 -65.499 -41.5
c-6 4 -12.167 10 -18.5 18s-12.166 16.833 -17.499 26.5s-10 19.5 -14 29.5s-6.33301 19 -7 27c20 13.333 44.5 25.666 73.5 36.999s59.833 21.166 92.5 29.499s66 14.833 100 19.5s65.667 7 95 7c80 0 142 -16.5 186 -49.5s66 -78.167 66 -135.5zM536.997 635.004
c-4.66699 -6 -12.001 -18 -22.001 -36l-34.5 -64.5l-41 -81.5l-41.5 -87c50 0 96 4.66699 138 14s78.333 22.5 109 39.5s54.5 37 71.5 60s25.5 48.5 25.5 76.5c0 33.333 -12 58.833 -36 76.5s-61 26.5 -111 26.5c-11.333 0 -22.666 -0.5 -33.999 -1.5
s-23.333 -2.16699 -36 -3.5z" />
    <glyph glyph-name="S" unicode="S" horiz-adv-x="702" 
d="M753 674c2 -11.333 3.50586 -19.1699 4.50586 -23.5029s1.5 -10.166 1.5 -17.499c0 -22 -4.83301 -42.5 -14.5 -61.5s-22.834 -32.5 -39.501 -40.5c-13.333 18 -29.666 33.5 -48.999 46.5s-40.5 23.667 -63.5 32s-46.833 14.5 -71.5 18.5s-48.667 6 -72 6
s-45.166 -1.83301 -65.499 -5.5s-38.333 -8.66699 -54 -15s-28 -14.166 -37 -23.499s-13.5 -20 -13.5 -32c2 -14.667 11 -29.5 27 -44.5s35.667 -29.667 59 -44s49.166 -28.5 77.499 -42.5l83.5 -40c34 -16 63.333 -30.833 88 -44.5s45 -28.667 61 -45s28 -34.833 36 -55.5
s12 -45.667 12 -75c0 -34 -5.66699 -65.833 -17 -95.5s-27.833 -55.5 -49.5 -77.5s-47.834 -39.167 -78.501 -51.5s-65 -18.5 -103 -18.5c-37.333 0 -77.666 5.66699 -120.999 17s-83.833 26.833 -121.5 46.5s-69 42.334 -94 68.001s-37.5 52.834 -37.5 81.501
c0 13.333 3.83301 30.333 11.5 51s21.5 42.334 41.5 65.001c2 -20 12.833 -43.667 32.5 -71s49.167 -52.666 88.5 -75.999c36.667 -21.333 74.5 -36.833 113.5 -46.5s75.5 -14.5 109.5 -14.5c37.333 0 67.666 4.66699 90.999 14s41.666 20.5 54.999 33.5
s22.666 26.167 27.999 39.5s8.33301 24 9 32c-0.666992 13.333 -6.83398 26.166 -18.501 38.499s-27.334 24.333 -47.001 36s-42.5 23.5 -68.5 35.5l-81 36c-42 18.667 -78.167 36.167 -108.5 52.5s-55.333 33 -75 50s-34 34.833 -43 53.5s-13.5 40 -13.5 64
c0 37.333 11.333 72.666 34 105.999s55.334 58.666 98.001 75.999c21.333 9.33301 44.166 16 68.499 20s48.166 6 71.499 6c44 0 87 -6 129 -18s84 -27.333 126 -46z" />
    <glyph glyph-name="T" unicode="T" horiz-adv-x="588" 
d="M299 606c-26.667 0 -47.1689 7.49805 -61.502 22.498s-21.5 33.167 -21.5 54.5c0 5.33301 0.833008 11.666 2.5 18.999s3.83398 13.666 6.50098 18.999c8.66699 -4 21.5 -6.83301 38.5 -8.5s36.833 -2.5 59.5 -2.5c34 0 72.5 1.5 115.5 4.5s84.167 6.16699 123.5 9.5
s74 6.5 104 9.5s49.333 4.5 58 4.5c24.667 0 42.5 -9.16699 53.5 -27.5s19.167 -42.833 24.5 -73.5c-17.333 1.33301 -34.5 2.5 -51.5 3.5s-31.5 1.5 -43.5 1.5c-21.333 0 -42.833 -0.666992 -64.5 -2s-43.5 -3.33301 -65.5 -6
c-9.33301 -19.333 -19.666 -42.166 -30.999 -68.499s-22.5 -53.833 -33.5 -82.5l-31.5 -85.5c-10 -28.333 -18.667 -53.833 -26 -76.5c-14.667 -44 -27.5 -84.667 -38.5 -122s-20.667 -72.166 -29 -104.499s-15.5 -63.166 -21.5 -92.499s-11.333 -58 -16 -86
c-44.667 6.66699 -82 34.667 -112 84c5.33301 20.667 11.833 43.167 19.5 67.5l27 83l36.5 105.5l48 134l21 58.5l21.5 60.5c7 20 13.333 39.333 19 58s10.5 35.667 14.5 51c-28 -3.33301 -54.5 -6.16602 -79.5 -8.49902s-47.167 -3.5 -66.5 -3.5z" />
    <glyph glyph-name="U" unicode="U" horiz-adv-x="697" 
d="M485 673c-29.333 -39.333 -55.998 -82.6641 -79.998 -129.997s-44.5 -95.833 -61.5 -145.5s-30 -98.667 -39 -147s-13.5 -93.5 -13.5 -135.5c0 -52 7.66699 -89.667 23 -113s41.666 -35 78.999 -35c43.333 0 81.333 15.167 114 45.5s63.334 72.166 92.001 125.499
c18.667 34.667 34.667 72.667 48 114s24.166 83.833 32.499 127.5s14.5 87.667 18.5 132s6 86.833 6 127.5c0 26 -0.333008 45 -1 57s-1.66699 21.667 -3 29c2 0 7 -0.666992 15 -2s17.167 -3 27.5 -5s20.666 -4.66699 30.999 -8s19.166 -7 26.499 -11
c-3.33301 -50.667 -9.5 -103 -18.5 -157s-20.833 -107.333 -35.5 -160s-31.667 -103.334 -51 -152.001s-41 -92.334 -65 -131.001c-35.333 -57.333 -75 -102.166 -119 -134.499s-96 -48.5 -156 -48.5c-61.333 0 -109 17.833 -143 53.5s-51 89.834 -51 162.501
c0 42 4.66699 89.5 14 142.5s21.833 107 37.5 162s33.834 108.667 54.501 161s42.334 99.166 65.001 140.499c11.333 -0.666992 24.666 -3 39.999 -7s30.333 -9.16699 45 -15.5s28.167 -13.333 40.5 -21s21.5 -14.834 27.5 -21.501z" />
    <glyph glyph-name="V" unicode="V" horiz-adv-x="617" 
d="M419 -64c-15.333 -8 -31.667 -12 -49 -12c-21.333 2.66699 -41.833 8 -61.5 16s-34.167 17.667 -43.5 29c-5.33301 32.667 -9.66602 62.667 -12.999 90s-6 53.166 -8 77.499s-3.33301 47.666 -4 69.999s-1 44.833 -1 67.5c0 30 0.333008 61.667 1 95
s1.5 68.833 2.5 106.5s1.83301 78 2.5 121s1 89.833 1 140.5c8.66699 0 21.667 -2.5 39 -7.5s34.5 -10.833 51.5 -17.5s32.167 -13.5 45.5 -20.5s20.666 -12.833 21.999 -17.5c-6.66699 -18.667 -12.5 -43 -17.5 -73s-9 -63.333 -12 -100s-5.16699 -75.334 -6.5 -116.001
s-2 -81 -2 -121c0 -30 0.333008 -56.833 1 -80.5s1.5 -45 2.5 -64s2.5 -36.667 4.5 -53s4.33301 -32.5 7 -48.5c18.667 56.667 39.167 113.334 61.5 170.001s45.333 111.167 69 163.5s47.167 101.166 70.5 146.499s45.5 84.833 66.5 118.5s39.833 60.334 56.5 80.001
s30.334 30.167 41.001 31.5c7.33301 -1.33301 15.166 -4.16602 23.499 -8.49902s16.166 -9.5 23.499 -15.5s14 -12.667 20 -20s10.667 -14.666 14 -21.999c-24.667 -8.66699 -51.167 -29 -79.5 -61s-56.833 -70.5 -85.5 -115.5s-56.5 -94 -83.5 -147
s-51.333 -104.833 -73 -155.5s-40.167 -98 -55.5 -142s-25.666 -79 -30.999 -105z" />
    <glyph glyph-name="W" unicode="W" horiz-adv-x="953" 
d="M229 -31c-3.33301 27.333 -5.83301 57.167 -7.5 89.5s-2.5 62.5 -2.5 90.5c0 44.667 1.5 87.5 4.5 128.5s6.66699 84 11 129l14.5 147c5.33301 53 10 114.167 14 183.5c8.66699 0 21.167 -2.5 37.5 -7.5s32.833 -10.833 49.5 -17.5s31.334 -13.5 44.001 -20.5
s20 -12.833 22 -17.5c-11.333 -26 -21.5 -60.167 -30.5 -102.5s-16.5 -88.5 -22.5 -138.5s-10.667 -101.333 -14 -154s-5 -102 -5 -148c0 -21.333 0.333008 -42.333 1 -63s1.66699 -39.667 3 -57c14 20.667 30.167 50.167 48.5 88.5s37.333 81.166 57 128.499l59 148.5
l54.5 148c16.667 47 30.834 89.333 42.501 127s19.834 66.167 24.501 85.5c8.66699 0 21.5 -2.5 38.5 -7.5s33.667 -10.833 50 -17.5s30.833 -13.5 43.5 -20.5s19.667 -12.833 21 -17.5c-11.333 -26 -21.5 -60.167 -30.5 -102.5s-16.5 -88.5 -22.5 -138.5
s-10.667 -101.333 -14 -154s-5 -102 -5 -148c0 -19.333 0.166992 -38.5 0.5 -57.5s1.16602 -36.167 2.49902 -51.5l66.5 164.5l68.5 156l66 139l59 115c18 33.667 33.667 61.5 47 83.5s23.666 36.667 30.999 44c15.333 -2 31.166 -7.5 47.499 -16.5s30.833 -20.5 43.5 -34.5
c-19.333 -15.333 -41.333 -40.5 -66 -75.5s-50 -75.5 -76 -121.5s-52.167 -95 -78.5 -147s-50.833 -102.667 -73.5 -152s-42.834 -95.333 -60.501 -138s-31.167 -77 -40.5 -103c-17.333 -8 -34.333 -12 -51 -12c-21.333 2.66699 -41.5 8 -60.5 16s-32.5 17.667 -40.5 29
c-2 10.667 -3.66699 23.167 -5 37.5s-2.33301 28.5 -3 42.5s-1.16699 27.5 -1.5 40.5s-0.5 24.167 -0.5 33.5c0 59.333 2.33301 119.833 7 181.5s10.334 127.834 17.001 198.501l-51 -146c-18.667 -52 -38.167 -103.5 -58.5 -154.5s-41 -99.667 -62 -146
s-41.5 -86.5 -61.5 -120.5c-17.333 -8 -34.333 -12 -51 -12c-21.333 2.66699 -41.5 8 -60.5 16s-32.5 17.667 -40.5 29z" />
    <glyph glyph-name="X" unicode="X" horiz-adv-x="637" 
d="M647 -4c-6 -6 -14.8291 -12.8281 -26.4961 -20.4951s-24.167 -14.667 -37.5 -21s-26.833 -12 -40.5 -17s-24.834 -7.83301 -33.501 -8.5c-8.66699 0 -16.334 3.33301 -23.001 10s-13.667 21.834 -21 45.501s-15.833 58 -25.5 103s-21.834 106.167 -36.501 183.5
l-106 -114c-32.667 -36.667 -60.667 -70.667 -84 -102s-41.666 -58.666 -54.999 -81.999s-20 -41 -20 -53c-8 0.666992 -16.167 3.66699 -24.5 9s-15.833 11.666 -22.5 18.999s-12.167 15.333 -16.5 24s-6.5 17 -6.5 25c2 7.33301 7 17.666 15 30.999s18 27.666 30 42.999
c25.333 32.667 61.5 70.5 108.5 113.5s103.833 90.5 170.5 142.5c-43.333 215.333 -104.666 323 -183.999 323c8 19.333 20.833 36.333 38.5 51s36.5 23.667 56.5 27c22 0 40 -2.83301 54 -8.5s26.667 -19.834 38 -42.501s22.666 -56.834 33.999 -102.501
s25.666 -108.167 42.999 -187.5c22 23.333 43.167 47.166 63.5 71.499l56.5 70.5c17.333 22.667 32.666 43.667 45.999 63s23.666 36 30.999 50c7.33301 12.667 11 25.667 11 39c0 12 -3.66699 27.667 -11 47c21.333 -12.667 37.5 -24.5 48.5 -35.5s20.5 -26.167 28.5 -45.5
c-1.33301 -16 -5.83301 -32 -13.5 -48s-21 -35.167 -40 -57.5s-45.167 -49.833 -78.5 -82.5s-77 -73.334 -131 -122.001c12.667 -60 25 -110.667 37 -152s24.333 -75.166 37 -101.499s26.334 -46.333 41.001 -60s31 -22.834 49 -27.501z" />
    <glyph glyph-name="Y" unicode="Y" horiz-adv-x="613" 
d="M470 345c50 54.667 94.8359 112.663 134.503 173.996s76.5 130.333 110.5 207c17.333 -2 34 -6.66699 50 -14s28.667 -15.666 38 -24.999l-99.5 -120l-81.5 -101.5l-68.5 -91l-61.5 -87.5c-10 -34 -19.333 -68.333 -28 -103s-16.334 -67.834 -23.001 -99.501
s-11.834 -61 -15.501 -88s-5.5 -50.167 -5.5 -69.5c-7.33301 0 -19 1.5 -35 4.5s-32.333 6.5 -49 10.5s-31.834 8 -45.501 12s-21.834 7.33301 -24.501 10c10.667 18 21.167 40.167 31.5 66.5s20.5 54 30.5 83l29 88l26 82.5l-48.5 146.5
c-15.667 45.667 -30.834 87 -45.501 124s-28.667 68.833 -42 95.5s-26 47 -38 61c6.66699 2.66699 16.834 5.33398 30.501 8.00098s28.667 5.33398 45 8.00098s33 4.83398 50 6.50098s32.167 2.83398 45.5 3.50098c0 -16.667 1.5 -37 4.5 -61s7 -49.667 12 -77
s10.833 -55 17.5 -83s13.334 -53.667 20.001 -77s13.167 -43.5 19.5 -60.5s11.833 -28.167 16.5 -33.5z" />
    <glyph glyph-name="Z" unicode="Z" horiz-adv-x="698" 
d="M272 564c-2.66699 9.33301 -4.83594 20.1709 -6.50293 32.5039s-2.5 30.5 -2.5 54.5c0 15.333 0.333008 30.833 1 46.5s3.66699 29.167 9 40.5c32.667 -6 67.5 -11.5 104.5 -16.5s74.833 -9.5 113.5 -13.5s77.334 -7.16699 116.001 -9.5s76 -3.5 112 -3.5
c49.333 0 89 2 119 6c10.667 -14.667 17.334 -32 20.001 -52s4 -38.667 4 -56c-76.667 -31.333 -149.334 -71.166 -218.001 -119.499s-131 -98.833 -187 -151.5s-104.333 -104.667 -145 -156s-71 -96 -91 -134c12 2 24.333 3.83301 37 5.5s26.334 3.16699 41.001 4.5
s31 2.66602 49 3.99902s38.667 2.66602 62 3.99902c32.667 2 61.334 5.5 86.001 10.5s45.667 10.333 63 16s31.166 11 41.499 16s17.833 9.16699 22.5 12.5c2.66699 -6 5.83398 -15 9.50098 -27s7 -25.167 10 -39.5s5.5 -29 7.5 -44s3 -28.833 3 -41.5
c0 -6.66699 -0.166992 -11.167 -0.5 -13.5s-0.833008 -4.83301 -1.5 -7.5c-30 2 -60.167 4.33301 -90.5 7s-60.5 4 -90.5 4c-40 0 -81.5 -2.16699 -124.5 -6.5s-84.333 -11 -124 -20s-76 -20.5 -109 -34.5s-59.5 -30.667 -79.5 -50
c-5.33301 17.333 -10.833 32.166 -16.5 44.499s-8.5 27.166 -8.5 44.499s3.5 31.166 10.5 41.499s16.5 18.833 28.5 25.5c40 57.333 85.5 114.166 136.5 170.499s105.5 110.833 163.5 163.5s118 102.834 180 150.501s124 91.167 186 130.5c-40 2 -82.333 3 -127 3
c-31.333 0 -62.333 -0.666992 -93 -2s-59.667 -3.5 -87 -6.5s-52.5 -7.33301 -75.5 -13s-42.5 -12.5 -58.5 -20.5z" />
    <glyph glyph-name="bracketleft" unicode="[" horiz-adv-x="386" 
d="M522 791c28.667 0 47.1699 -4.50098 55.5029 -13.501s12.5 -19.833 12.5 -32.5c0 -3.33301 -0.333008 -6.16602 -1 -8.49902l-3 -10.5c-20 2 -40.667 3 -62 3h-22c-8.66699 0 -17.667 -0.166992 -27 -0.5s-18.833 -0.833008 -28.5 -1.5
s-17.834 -1.33398 -24.501 -2.00098c-2.66699 -11.333 -7.83398 -30 -15.501 -56l-28 -92c-11 -35.333 -23.667 -73.666 -38 -114.999s-29.833 -83.333 -46.5 -126l-56 -144l-47.5 -128c-13.667 -38.667 -24.834 -71.667 -33.501 -99s-13 -46.333 -13 -57l36 9.5
c14 3.66699 28.667 7.16699 44 10.5s30.666 6.16602 45.999 8.49902s29 3.5 41 3.5c23.333 0 39 -4.33301 47 -13s12 -19.334 12 -32.001c0 -3.33301 -0.333008 -6.16602 -1 -8.49902l-3 -10.5c-20 2 -40 3 -60 3c-28.667 0 -57.834 -1.83301 -87.501 -5.5
s-60.5 -8.16699 -92.5 -13.5c-15.333 5.33301 -29.333 16.333 -42 33s-25.667 36 -39 58c5.33301 12 14.333 33.833 27 65.5l42.5 110.5l49.5 133.5l48 132.5c24 67.333 43.333 123.5 58 168.5l35 110c8.66699 28.333 14.834 50 18.501 65s6.16699 26.167 7.5 33.5
c16.667 3.33301 34.5 6.33301 53.5 9s37.167 4.83398 54.5 6.50098s33.333 3 48 4s26.334 1.5 35.001 1.5z" />
    <glyph glyph-name="backslash" unicode="\" horiz-adv-x="660" 
d="M265 743c2 5.33301 7.66602 11.334 16.999 18.001s20 13 32 19s24.167 11 36.5 15s22.5 6 30.5 6c9.33301 -64.667 20 -129.167 32 -193.5s24.667 -127 38 -188s27 -119.167 41 -174.5s27.667 -106.166 41 -152.499s25.833 -87 37.5 -122s22.167 -62.5 31.5 -82.5
c-2.66699 -11.333 -8.5 -21.5 -17.5 -30.5s-17.167 -14.167 -24.5 -15.5c-22 36.667 -45.167 86.167 -69.5 148.5s-49.166 133.166 -74.499 212.499s-50.833 165.166 -76.5 257.499s-50.5 186.5 -74.5 282.5z" />
    <glyph glyph-name="bracketright" unicode="]" horiz-adv-x="385" 
d="M75 -140c-28.667 0 -47.168 4.50098 -55.501 13.501s-12.5 19.833 -12.5 32.5c0 3.33301 0.333008 6.16602 1 8.49902l3 10.5c20 -2 40.667 -3 62 -3h22c8.66699 0 17.667 0.166992 27 0.5s18.666 0.833008 27.999 1.5s17.666 1.33398 24.999 2.00098
c2.66699 11.333 7.83398 30 15.501 56l28 92c11 35.333 23.667 73.666 38 114.999s29.833 83.333 46.5 126l56 144l47.5 128c13.667 38.667 24.834 71.667 33.501 99s13 46.333 13 57l-36 -9.5c-14 -3.66699 -28.667 -7.16699 -44 -10.5s-30.666 -6.16602 -45.999 -8.49902
s-29 -3.5 -41 -3.5c-23.333 0 -39 4.33301 -47 13s-12 19.334 -12 32.001c0 3.33301 0.333008 6.16602 1 8.49902l3 10.5c20 -2 40 -3 60 -3c28.667 0 57.834 1.83301 87.501 5.5s60.5 8.16699 92.5 13.5c15.333 -5.33301 29.333 -16.333 42 -33s25.667 -36 39 -58
c-5.33301 -12 -14.333 -33.833 -27 -65.5l-42.5 -110.5l-49.5 -133.5l-48 -132.5l-58.5 -168.5c-15 -45 -26.667 -81.667 -35 -110s-14.333 -50 -18 -65s-6.16699 -26.167 -7.5 -33.5c-17.333 -3.33301 -35.333 -6.33301 -54 -9s-36.667 -4.83398 -54 -6.50098
s-33.333 -3 -48 -4s-26.334 -1.5 -35.001 -1.5z" />
    <glyph glyph-name="asciicircum" unicode="^" horiz-adv-x="361" 
d="M259 713c2.66699 -39.333 5.66699 -73.168 9 -101.501s7.5 -52.833 12.5 -73.5s10.667 -38 17 -52s14.166 -26.333 23.499 -37c0 -0.666992 -1.66699 -1 -5 -1h-4c-19.333 0 -39.166 13.167 -59.499 39.5s-38.166 59.5 -53.499 99.5c-17.333 -26 -35.5 -47.667 -54.5 -65
s-35.833 -26 -50.5 -26c-10 0 -19.5 2.33301 -28.5 7s-17.5 11 -25.5 19c25.333 14.667 49 34.334 71 59.001s43 56 63 94l-4 25c13.333 9.33301 33.666 14 60.999 14h17.5c3.66699 0 7.16699 -0.333008 10.5 -1z" />
    <glyph glyph-name="underscore" unicode="_" horiz-adv-x="569" 
d="M125 -102c-25.333 0 -45.6641 5.83203 -60.9971 17.499s-23 27.834 -23 48.501c0 3.33301 0.833008 8.5 2.5 15.5s3.16699 12.167 4.5 15.5c14 -2 27.333 -3.33301 40 -4s28.667 -1 48 -1c42 0 81.5 1 118.5 3s70.5 4.33301 100.5 7l77 7c21.333 2 37.666 3 48.999 3
c15.333 0 29.166 -7.66699 41.499 -23s21.166 -37.333 26.499 -66c-20.667 2 -37.5 3.33301 -50.5 4s-24.5 1 -34.5 1c-36 0 -69.167 -1.5 -99.5 -4.5s-59 -6.16699 -86 -9.5l-78.5 -9.5c-25.333 -3 -50.333 -4.5 -75 -4.5z" />
    <glyph glyph-name="grave" unicode="`" horiz-adv-x="285" 
d="M78 729c14 -23.333 28.8311 -44.999 44.498 -64.999s31.667 -38 48 -54s32.5 -29.667 48.5 -41s31.333 -19.666 46 -24.999c-15.333 -12.667 -33.666 -19 -54.999 -19c-10.667 0 -21.667 1.5 -33 4.5s-24.5 8 -39.5 15s-32 16.167 -51 27.5s-41.167 25.666 -66.5 42.999
c0 9.33301 1.66699 19.666 5 30.999s7.83301 22.5 13.5 33.5s11.834 21 18.501 30s13.667 15.5 21 19.5z" />
    <glyph glyph-name="a" unicode="a" horiz-adv-x="470" 
d="M442 404c6.66699 0 14.499 -1.16504 23.499 -3.49805s17.167 -5.33301 24.5 -9s13.5 -7.5 18.5 -11.5s7.5 -7.66699 7.5 -11c-13.333 -28 -25.666 -56.167 -36.999 -84.5s-21 -55.5 -29 -81.5s-14.167 -50.333 -18.5 -73s-6.5 -42.334 -6.5 -59.001
c0 -18.667 2 -34.167 6 -46.5s10.667 -21.166 20 -26.499c-8 -5.33301 -18.333 -9.66602 -31 -12.999s-24 -5 -34 -5c-36 0 -54 24.667 -54 74c0 38 12.667 90 38 156c-13.333 -30.667 -28.666 -59.5 -45.999 -86.5s-35 -50.833 -53 -71.5s-36.167 -37.5 -54.5 -50.5
s-35.166 -20.833 -50.499 -23.5c-24.667 1.33301 -44.667 13.166 -60 35.499s-23 50.833 -23 85.5c0 37.333 8 76.666 24 117.999s36.5 79.666 61.5 114.999s52.167 64.833 81.5 88.5s57.666 36.167 84.999 37.5c6.66699 -2 14.167 -6 22.5 -12s16.333 -13 24 -21
s14.167 -16.167 19.5 -24.5s8.33301 -15.5 9 -21.5c-26.667 -4 -54.167 -17 -82.5 -39s-54 -48.5 -77 -79.5s-41.833 -64.167 -56.5 -99.5s-22 -68.333 -22 -99c0 -12.667 4.66699 -20.667 14 -24c19.333 4 41.666 20.5 66.999 49.5s56 73.833 92 134.5l22.5 40l25.5 46
l25.5 48.5z" />
    <glyph glyph-name="b" unicode="b" horiz-adv-x="472" 
d="M189 -7c30.667 20.667 60.667 47.167 90 79.5s56 67.333 80 105s44.333 76.834 61 117.501s28 79.667 34 117c0 8 -4.33301 13.333 -13 16c-9.33301 0 -22.166 -8.16699 -38.499 -24.5s-34.333 -37.166 -54 -62.499s-39.667 -53.666 -60 -84.999
s-38.833 -62.5 -55.5 -93.5s-30.834 -60 -42.501 -87s-18.167 -48.833 -19.5 -65.5c-6.66699 0 -12.334 6.66699 -17.001 20c-1.33301 3.33301 -3.66602 6.83301 -6.99902 10.5s-8.66602 8.16699 -15.999 13.5c-3.33301 2.66699 -6.66602 5.83398 -9.99902 9.50098
s-5.66602 6.83398 -6.99902 9.50098c-2.66699 5.33301 -4 14 -4 26c0 39.333 5 83.666 15 132.999s23.167 99.666 39.5 150.999s35.5 101.833 57.5 151.5s44.833 95.167 68.5 136.5s47.5 76.333 71.5 105s46.667 47.667 68 57c6.66699 -2 14.667 -5.33301 24 -10
s18.666 -10 27.999 -16s18.166 -12 26.499 -18s14.5 -11.333 18.5 -16c-73.333 -59.333 -136.833 -135.5 -190.5 -228.5s-97.5 -202.833 -131.5 -329.5c18.667 34.667 39.667 68.167 63 100.5s46.5 60.833 69.5 85.5s45 44.334 66 59.001s38.5 22 52.5 22
c10.667 -2.66699 21 -7.33398 31 -14.001s19 -14.834 27 -24.501s14.667 -20 20 -31s8.66602 -22.5 9.99902 -34.5c-0.666992 -28 -5.5 -57.833 -14.5 -89.5s-21 -62.834 -36 -93.501s-32 -60 -51 -88s-39 -52.5 -60 -73.5s-42 -37.833 -63 -50.5s-40.833 -19 -59.5 -19
c-8 0 -16.167 0.833008 -24.5 2.5s-16 4 -23 7s-12.667 6.16699 -17 9.5s-6.5 6.66602 -6.5 9.99902z" />
    <glyph glyph-name="c" unicode="c" horiz-adv-x="420" 
d="M103 176c0 38 7.83008 74.8291 23.4971 110.496s36.334 67.334 62.001 95.001s55 50 88 67s67.167 25.5 102.5 25.5c34.667 0 61.334 -8.66699 80.001 -26s28 -42 28 -74c0 -15.333 -2.16699 -30.166 -6.5 -44.499s-10 -27.166 -17 -38.499s-15.167 -20.5 -24.5 -27.5
s-18.666 -10.5 -27.999 -10.5c-8 0 -16.167 2.5 -24.5 7.5s-15.166 11.5 -20.499 19.5c44.667 40.667 67 77.667 67 111c0 19.333 -7.66699 29 -23 29c-13.333 0 -30 -6.33301 -50 -19s-39.333 -29.334 -58 -50.001c-28.667 -32 -50.5 -67.5 -65.5 -106.5
s-22.5 -79.833 -22.5 -122.5c0 -54 12 -86.333 36 -97c10 1.33301 21.667 4.33301 35 9s27.666 10.834 42.999 18.501s31.166 16.5 47.499 26.5s32.166 20.667 47.499 32c2.66699 -2 5 -5 7 -9s3 -7.66699 3 -11c-11.333 -14 -24.333 -27.667 -39 -41s-30 -25.5 -46 -36.5
s-31.5 -20.333 -46.5 -28s-28.167 -12.5 -39.5 -14.5c-22 2 -42.667 8.83301 -62 20.5s-36.166 26.834 -50.499 45.501s-25.666 40 -33.999 64s-12.5 49 -12.5 75z" />
    <glyph glyph-name="d" unicode="d" horiz-adv-x="433" 
d="M315 467c13.333 0 28.665 -3.99805 45.998 -11.998s32.666 -18.333 45.999 -31c-3.33301 26.667 -7.5 51.834 -12.5 75.501s-12.333 48.167 -22 73.5s-22.5 53 -38.5 83s-36 64.333 -60 103c2 6 6.5 13 13.5 21s15 15.5 24 22.5s18.333 13.167 28 18.5
s18.834 8.66602 27.501 9.99902c18.667 -20.667 36.334 -46.5 53.001 -77.5s31.334 -64.333 44.001 -100s22.5 -72.5 29.5 -110.5s10.5 -74.333 10.5 -109s-3.83301 -70.334 -11.5 -107.001s-18.334 -72.5 -32.001 -107.5s-29.5 -68.167 -47.5 -99.5
s-37.5 -59.333 -58.5 -84s-42.833 -44.834 -65.5 -60.501s-45.334 -25.5 -68.001 -29.5c-46 5.33301 -81.167 20.166 -105.5 44.499s-36.5 57.833 -36.5 100.5c0 22.667 3.5 47.334 10.5 74.001s16.333 53.167 28 79.5s25.334 52 41.001 77s32.334 47.5 50.001 67.5
s35.5 37 53.5 51s35.667 23 53 27zM212.999 -13.998c23.333 8 46.666 25.6689 69.999 53.002s44.333 59.5 63 96.5s33.834 76.667 45.501 119s17.5 83.166 17.5 122.499v21c0 2.66699 -0.333008 5.33398 -1 8.00098c-16 -6.66699 -33 -18 -51 -34s-36 -34.5 -54 -55.5
s-35 -43.833 -51 -68.5s-30.333 -49.334 -43 -74.001s-22.667 -48.334 -30 -71.001s-11 -42.667 -11 -60c0 -33.333 15 -52.333 45 -57z" />
    <glyph glyph-name="e" unicode="e" horiz-adv-x="404" 
d="M455 414c-2.66699 -41.333 -10.0029 -76.8301 -22.0029 -106.497s-29.167 -55.667 -51.5 -78s-49.5 -42.5 -81.5 -60.5s-69.333 -35.333 -112 -52c0 -4 -0.166992 -8.16699 -0.5 -12.5s-0.5 -8.83301 -0.5 -13.5c0 -8.66699 0.666992 -17.667 2 -27
s3.66602 -18 6.99902 -26s8 -14.5 14 -19.5s13.667 -7.5 23 -7.5c18 0 35.667 4 53 12s33.833 17.833 49.5 29.5s30.334 24.334 44.001 38.001l36.5 37.5c6.66699 -6 12.334 -11.667 17.001 -17c-30 -40 -62.833 -73.167 -98.5 -99.5s-69.5 -43.166 -101.5 -50.499
c-46 5.33301 -81.833 22.166 -107.5 50.499s-38.5 62.5 -38.5 102.5c0 27.333 3.83301 55.166 11.5 83.499s18.334 55.666 32.001 81.999s29.667 51.166 48 74.499s38 43.666 59 60.999s42.667 31 65 41s44.5 15 66.5 15c30.667 -4 59.334 -23 86.001 -57zM385.997 381.003
c-18 -2.66699 -36.666 -9.99902 -55.999 -21.999s-37.5 -28 -54.5 -48s-32.5 -43.333 -46.5 -70s-25 -55.334 -33 -86.001c53.333 26.667 97.666 59.5 132.999 98.5s54.333 81.5 57 127.5z" />
    <glyph glyph-name="f" unicode="f" horiz-adv-x="342" 
d="M152 -289c-16.667 6.66699 -26.668 19.333 -30.001 38c-2.66699 18 -14 32.667 -34 44c5.33301 34 11.333 68.333 18 103s15.167 74.167 25.5 118.5s23.333 96 39 155l59.5 214.5c-22 0 -39.333 -0.333008 -52 -1s-25 -2 -37 -4
c-2.66699 2.66699 -4.83398 6.33398 -6.50098 11.001s-2.5 9 -2.5 13c6.66699 2.66699 20.334 6.16699 41.001 10.5s43.334 8.16602 68.001 11.499c16 50.667 34.333 96.167 55 136.5s43 74.833 67 103.5s49.333 50.667 76 66s53.667 23 81 23c8 0 15.667 -0.5 23 -1.5
s13 -1.5 17 -1.5c6 4.66699 14 8.83398 24 12.501s18.667 5.5 26 5.5c8 0 18.333 -4.33301 31 -13c-5.33301 -9.33301 -11 -22 -17 -38s-11 -31.667 -15 -47c-16.667 -49.333 -34.334 -81.333 -53.001 -96c-7.33301 0 -11.333 9.66699 -12 29
c-0.666992 14 -2.66699 27.667 -6 41c-2.66699 6 -4.5 11.333 -5.5 16s-1.5 10.667 -1.5 18c0 4 0.333008 8.83301 1 14.5s2 15.167 4 28.5c-11.333 0 -23.833 -7 -37.5 -21s-28 -33.833 -43 -59.5s-30.167 -56.167 -45.5 -91.5s-30 -74.333 -44 -117l84 3
c3.33301 -3.33301 6.16602 -10.833 8.49902 -22.5s3.83301 -23.834 4.5 -36.501l-110 6l-71 -216l-59 -190c-17.333 -58 -32.166 -109.833 -44.499 -155.5s-21.166 -82.5 -26.499 -110.5z" />
    <glyph glyph-name="g" unicode="g" horiz-adv-x="450" 
d="M-105 -298c0 4 1.33105 7.67676 3.99805 11.0098s5.66699 6.66602 9 9.99902c8 -7.33301 14.833 -13 20.5 -17s11 -7.33301 16 -10s10.167 -4.33398 15.5 -5.00098s11.666 -1 18.999 -1c34.667 0 67.667 9.16699 99 27.5s60.833 44.833 88.5 79.5s52.834 77 75.501 127
s42.667 106.667 60 170c-8 -8 -17.833 -16.833 -29.5 -26.5s-23.834 -18.834 -36.501 -27.501s-25.167 -16.667 -37.5 -24s-22.833 -12.666 -31.5 -15.999c-11.333 2 -21.833 6.83301 -31.5 14.5s-18.167 17.167 -25.5 28.5s-13 24.166 -17 38.499s-6 29.5 -6 45.5
c0 26 4.83301 52.667 14.5 80s22.5 54.166 38.5 80.499s34.833 51.166 56.5 74.499s44.667 43.666 69 60.999s49 31.166 74 41.499s49.5 15.5 73.5 15.5c23.333 0 40.833 -4.83301 52.5 -14.5s20.167 -26.167 25.5 -49.5c-7.33301 4 -16.666 6 -27.999 6
c-16 0 -34.5 -6.33301 -55.5 -19s-42.333 -29.167 -64 -49.5s-43.167 -43.666 -64.5 -69.999s-40.166 -53.166 -56.499 -80.499s-29.666 -54 -39.999 -80s-15.5 -49.333 -15.5 -70c0 -4.66699 0.333008 -7.5 1 -8.5s1.66699 -1.5 3 -1.5c6 0 14.167 3.33301 24.5 10
s22 15.167 35 25.5s26.5 22.333 40.5 36s27.333 27.5 40 41.5c28.667 32 54.834 67.833 78.501 107.5s42.5 78.167 56.5 115.5c18 -1.33301 34 -4.33301 48 -9s23.667 -9.66699 29 -15c-22.667 -52 -40.834 -95.667 -54.501 -131l-35.5 -94l-50.5 -131.5
c-15.667 -39.667 -31.667 -76.334 -48 -110.001s-34 -65 -53 -94s-40.5 -56.833 -64.5 -83.5c-11.333 -12.667 -24.166 -23.834 -38.499 -33.501s-29 -17.834 -44 -24.501s-29.667 -11.667 -44 -15s-27.5 -5 -39.5 -5c-16 0 -32.333 1.83301 -49 5.5
s-32.167 8.66699 -46.5 15s-26.833 13.666 -37.5 21.999s-18.334 17.166 -23.001 26.499z" />
    <glyph glyph-name="h" unicode="h" horiz-adv-x="517" 
d="M96 17c0 23.333 2.33203 50.833 6.99902 82.5s11.5 65.5 20.5 101.5s19.667 73.667 32 113s26.166 78.666 41.499 117.999c13.333 35.333 28.833 71 46.5 107s36.834 71.333 57.501 106s42.167 67.667 64.5 99s44.833 60 67.5 86c10.667 0 22.167 -1.33301 34.5 -4
s24.333 -6.16699 36 -10.5s22.334 -9.5 32.001 -15.5s17.5 -12 23.5 -18c-50 -51.333 -95 -103.166 -135 -155.499s-71.667 -101.5 -95 -147.5l-34.5 -71c-10.333 -22 -19.833 -43.833 -28.5 -65.5s-16.5 -43.334 -23.5 -65.001s-13.5 -44.5 -19.5 -68.5
c128 163.333 223 245 285 245c17.333 0 36 -5.66699 56 -17s37.667 -26.666 53 -45.999c-20.667 -22.667 -42 -50 -64 -82s-42.167 -64.167 -60.5 -96.5s-33.333 -62.333 -45 -90s-17.5 -48.167 -17.5 -61.5c0 -6.66699 1 -11.167 3 -13.5s6.33301 -3.5 13 -3.5
c10 0 18 1.33301 24 4s9.66699 4 11 4c3.33301 -5.33301 5.33301 -9 6 -11s1 -3.66699 1 -5c0 -2.66699 -4 -6.5 -12 -11.5s-17.5 -10 -28.5 -15s-21.833 -9.5 -32.5 -13.5s-18.667 -6 -24 -6c-6.66699 0 -13.334 1.83301 -20.001 5.5s-12.5 8.5 -17.5 14.5
s-9 12.667 -12 20s-4.5 15 -4.5 23c0 10 2.83301 24.833 8.5 44.5s13.5 42.667 23.5 69s22 55.166 36 86.499l45 96c0 2.66699 -1.33301 4 -4 4c-2 0 -7.16699 -2.66699 -15.5 -8s-16.166 -10.666 -23.499 -15.999c-24 -18 -48.167 -40.167 -72.5 -66.5
s-48 -55.166 -71 -86.499s-44.667 -64.5 -65 -99.5s-37.833 -70.167 -52.5 -105.5c-2 -4.66699 -5 -9 -9 -13s-7.33301 -6 -10 -6c-2 0 -4.83301 2.33301 -8.5 7s-7 10.5 -10 17.5s-5.83301 14.167 -8.5 21.5s-4 13.666 -4 18.999z" />
    <glyph glyph-name="i" unicode="i" horiz-adv-x="236" 
d="M98 67c0 6 0.496094 13.501 1.49609 22.501s2.83301 21 5.5 36s6.16699 33.167 10.5 54.5s9.83301 47 16.5 77c1.33301 6.66699 4.33301 17.334 9 32.001s10.834 30.167 18.501 46.5s17 32.166 28 47.499s24.167 26.666 39.5 33.999
c11.333 -2.66699 26.333 -9.5 45 -20.5s34.667 -26.167 48 -45.5c-15.333 -17.333 -28.166 -34.666 -38.499 -51.999s-19.666 -35.333 -27.999 -54s-16 -38 -23 -58s-14.833 -41 -23.5 -63c-7.33301 -18.667 -14 -37.834 -20 -57.501s-9.33301 -36.834 -10 -51.501
c0 -12 -0.166992 -20.5 -0.5 -25.5s-2.16602 -7.5 -5.49902 -7.5c-2.66699 0 -8 1.66699 -16 5s-16.167 8.5 -24.5 15.5s-15.833 15.833 -22.5 26.5s-10 23.334 -10 38.001zM288.996 501.001c0 4 0.998047 9.99902 2.99805 17.999
c-3.33301 3.33301 -6.16602 8.33301 -8.49902 15s-3.5 12.667 -3.5 18c0 6 0.833008 14.167 2.5 24.5s3.83398 21.5 6.50098 33.5s6 24.5 10 37.5s8 24.833 12 35.5c8 0 17.833 -2.16699 29.5 -6.5s23.5 -10 35.5 -17s23 -14.667 33 -23s17.667 -16.166 23 -23.499
l-29 -30.5c-12 -13 -23.667 -26.667 -35 -41l-31 -40.5c-9.33301 -12.667 -15.333 -21.667 -18 -27c-8 1.33301 -15 4.83301 -21 10.5s-9 11.167 -9 16.5z" />
    <glyph glyph-name="j" unicode="j" horiz-adv-x="236" 
d="M119 187c24.667 98.667 48.835 170.831 72.502 216.498s48.5 68.5 74.5 68.5c18.667 0 41 -9 67 -27c-21.333 -38 -37.833 -69.5 -49.5 -94.5s-20.167 -47.833 -25.5 -68.5l-36 -124.5l-37.5 -123.5l-34 -106.5c-10.333 -31.667 -18.5 -55.834 -24.5 -72.501
c-14.667 -39.333 -29.167 -72.666 -43.5 -99.999s-29.166 -49.666 -44.499 -66.999s-31.5 -30 -48.5 -38s-35.5 -12 -55.5 -12c-14.667 0 -29.167 1.5 -43.5 4.5s-27.833 7 -40.5 12s-24 11.167 -34 18.5s-18 15 -24 23c0.666992 4.66699 2.83398 9.16699 6.50098 13.5
s7.16699 6.83301 10.5 7.5c11.333 -12 23.166 -20.667 35.499 -26s27.166 -8 44.499 -8c21.333 0 40.166 6.33301 56.499 19s32.833 37.167 49.5 73.5s34.667 87.333 54 153s42.666 151.834 69.999 258.501zM282.001 550.997c0 3.33301 1 8.99609 3 16.9961
c-8 8 -12 19.333 -12 34c0 6 0.833008 14.333 2.5 25s4 22.167 7 34.5s6.33301 24.833 10 37.5s7.5 23.667 11.5 33c8 0 17.833 -2.16699 29.5 -6.5s23.5 -10 35.5 -17s23 -14.667 33 -23s17.667 -16.166 23 -23.499c-8 -7.33301 -18 -17.666 -30 -30.999
s-23.667 -27.166 -35 -41.499l-31 -40c-9.33301 -12.333 -15 -21.166 -17 -26.499c-8 1.33301 -15 4.83301 -21 10.5s-9 11.5 -9 17.5z" />
    <glyph glyph-name="k" unicode="k" horiz-adv-x="516" 
d="M99 94c0 24 6.17188 57.3262 18.5049 99.9932s28.5 89.334 48.5 140.001s42.667 103 68 157s50.833 104.333 76.5 151s50.334 87 74.001 121s43.834 57 60.501 69c9.33301 -0.666992 19.5 -4.66699 30.5 -12s21.167 -16.166 30.5 -26.499s17.166 -21.166 23.499 -32.499
s9.5 -21.666 9.5 -30.999c-30 -24 -60.5 -54.833 -91.5 -92.5s-60.5 -79 -88.5 -124s-53.833 -92.667 -77.5 -143s-43.5 -99.833 -59.5 -148.5c21.333 36.667 43.666 70 66.999 100s46.666 55.667 69.999 77s46.166 37.833 68.499 49.5s43.5 17.834 63.5 18.501
c29.333 -21.333 44 -49.666 44 -84.999c0 -21.333 -4.33301 -42.833 -13 -64.5s-20.167 -41.667 -34.5 -60s-30.666 -34 -48.999 -47s-37.5 -21.5 -57.5 -25.5c6.66699 -23.333 15.167 -47 25.5 -71s22.666 -47.333 36.999 -70s30.666 -43.667 48.999 -63
s39.166 -35.666 62.499 -48.999c-3.33301 -6.66699 -8.33301 -13.334 -15 -20.001s-14.667 -12.5 -24 -17.5s-19.5 -9 -30.5 -12s-21.833 -4.5 -32.5 -4.5c-18 0 -34.833 9 -50.5 27s-29.834 44 -42.501 78c-10 27.333 -19.667 60 -29 98s-17.666 77.667 -24.999 119
c9.33301 6 21 14.833 35 26.5s28.667 25.167 44 40.5c58.667 56.667 88 105.667 88 147c0 5.33301 -3.66699 8 -11 8c-13.333 -0.666992 -29 -7 -47 -19s-37.167 -28.667 -57.5 -50s-41 -46.333 -62 -75s-41.167 -59.667 -60.5 -93c-8 -13.333 -15.333 -28.666 -22 -45.999
s-12.5 -35.166 -17.5 -53.499s-8.83301 -36.5 -11.5 -54.5s-4 -34.667 -4 -50c0 -9.33301 1 -17 3 -23c-20.667 2 -33.334 7.33301 -38.001 16c-5.33301 8 -9.83301 14.5 -13.5 19.5s-7.5 9.16699 -11.5 12.5c-6 4.66699 -11 14.667 -15 30s-6 34.666 -6 57.999z" />
    <glyph glyph-name="l" unicode="l" horiz-adv-x="236" 
d="M96 64c0 29.333 7.00098 70.502 21.001 123.502s33.667 114.833 59 185.5c41.333 112.667 80.166 206.5 116.499 281.5s71.833 133.5 106.5 175.5c8 -1.33301 17.833 -4.66602 29.5 -9.99902s23.167 -11.166 34.5 -17.499s21.5 -12.833 30.5 -19.5s14.833 -12 17.5 -16
c-52 -61.333 -97.667 -127.333 -137 -198s-75.333 -151.667 -108 -243c-28 -78.667 -49.333 -149.5 -64 -212.5s-22 -115.5 -22 -157.5v-21c0 -2.66699 0.333008 -5.33398 1 -8.00098c-9.33301 1.33301 -17.333 3.66602 -24 6.99902s-11 7.33301 -13 12
c-1.33301 3.33301 -5 8.16602 -11 14.499s-11.333 11.166 -16 14.499c-6 4 -11 14.5 -15 31.5s-6 36.167 -6 57.5z" />
    <glyph glyph-name="m" unicode="m" horiz-adv-x="765" 
d="M675 307c-10.667 -0.666992 -23.665 -7.49609 -38.998 -20.4961s-31.833 -29.667 -49.5 -50s-36 -42.833 -55 -67.5l-55 -73.5l-49.5 -68.5c-15.333 -21.333 -28.333 -38.333 -39 -51c-14.667 6 -27.334 14.833 -38.001 26.5s-18.334 26.167 -23.001 43.5
c3.33301 20.667 8 42.167 14 64.5s13.833 45.5 23.5 69.5s21.667 49.167 36 75.5s31.833 54.166 52.5 83.499c-10 -0.666992 -23.667 -7.83398 -41 -21.501s-36 -31.334 -56 -53.001s-40.667 -46 -62 -73s-41.333 -53.5 -60 -79.5c-24.667 -34.667 -45.167 -65 -61.5 -91
s-28.166 -41.333 -35.499 -46c-17.333 12.667 -29.333 26.334 -36 41.001s-11.667 31 -15 49c0.666992 16 3.16699 36 7.5 60s10.5 48.667 18.5 74c15.333 48.667 35.166 97 59.499 145s47.833 92 70.5 132c18.667 -4 35.5 -10.333 50.5 -19s30.833 -21.334 47.5 -38.001
c-6.66699 -20.667 -17 -42.5 -31 -65.5l-44 -72.5c-15.333 -25.333 -29.333 -51.333 -42 -78s-21 -53.667 -25 -81l66.5 92c25.667 34.667 52 67.334 79 98.001s53.833 56.667 80.5 78s50.667 32 72 32c8 0 16.667 -1.33301 26 -4s18 -6 26 -10s14.667 -7.83301 20 -11.5
s8.33301 -6.5 9 -8.5c-3.33301 -13.333 -11.166 -31.5 -23.499 -54.5l-39.5 -72.5l-39 -73.5c-12 -23.667 -19 -42.5 -21 -56.5l92 121.5c28.667 36.333 55.667 67.5 81 93.5s48.833 46 70.5 60s42.167 21 61.5 21c13.333 0 25.833 -3.5 37.5 -10.5
s19.834 -17.167 24.501 -30.5c-6 -20 -15.833 -44 -29.5 -72l-41.5 -88.5c-14 -31 -26.5 -61.5 -37.5 -91.5s-16.5 -57 -16.5 -81c0 -14 2 -23.167 6 -27.5s9.66699 -6.5 17 -6.5c8 0 15.5 1.5 22.5 4.5s12.167 4.5 15.5 4.5c4 -2.66699 6.33301 -6 7 -10s1 -7.66699 1 -11
c-13.333 -10.667 -27 -19.5 -41 -26.5s-29.667 -10.5 -47 -10.5c-16 0 -29.167 2.66699 -39.5 8s-18.833 12.666 -25.5 21.999s-11.334 20 -14.001 32s-4 25 -4 39c0 22.667 3 45.167 9 67.5s13.167 43.666 21.5 63.999s17.166 39.333 26.499 57s17.333 33.5 24 47.5z" />
    <glyph glyph-name="n" unicode="n" horiz-adv-x="540" 
d="M259 485c17.333 -5.33301 33.665 -17.1689 48.998 -35.502s26.666 -38.5 33.999 -60.5c-7.33301 -18 -18.666 -39.667 -33.999 -65l-46 -77.5c-15.333 -26.333 -29.166 -51.333 -41.499 -75s-19.5 -43.167 -21.5 -58.5l35.5 39.5l38 45l34.5 41
c10.667 12.333 19 21.5 25 27.5l45 46.5c17.333 17.667 35.5 34.334 54.5 50.001s38.167 29 57.5 40s37 16.5 53 16.5c17.333 0 31.833 -5.83301 43.5 -17.5s20.834 -23.834 27.501 -36.501c0 -1.33301 -2.5 -3.16602 -7.5 -5.49902s-12.167 -8.83301 -21.5 -19.5
c-9.33301 -12 -19.833 -28.5 -31.5 -49.5s-23 -43.667 -34 -68s-20.167 -49.166 -27.5 -74.499s-11 -48.333 -11 -69c0 -16.667 2.16699 -27.334 6.5 -32.001s10.5 -7 18.5 -7c7.33301 0 15 1.66699 23 5s14.333 5 19 5c2.66699 -1.33301 4.83398 -4.16602 6.50098 -8.49902
s2.5 -8.16602 2.5 -11.499c-5.33301 -4.66699 -11.666 -9.33398 -18.999 -14.001s-15 -9 -23 -13s-15.833 -7.33301 -23.5 -10s-14.5 -4 -20.5 -4c-19.333 0 -35.166 2.83301 -47.499 8.5s-22 13.167 -29 22.5s-11.833 20.5 -14.5 33.5s-4 26.833 -4 41.5
c0 8 0.666992 17 2 27s4 21.833 8 35.5s9.66699 30 17 49s16.666 41.833 27.999 68.5c-1.33301 0 -10.333 -4.66699 -27 -14s-34.667 -23.666 -54 -42.999c-31.333 -30 -59.5 -59.667 -84.5 -89s-50.5 -62 -76.5 -98l-38.5 -52.5c-11 -14.333 -20.5 -23.833 -28.5 -28.5
c-14 8 -24.333 19.167 -31 33.5s-11.667 29.166 -15 44.499c0 12.667 1.83301 28.667 5.5 48s8.66699 40.833 15 64.5s14.166 48.5 23.499 74.5s19.666 52 30.999 78c25.333 58.667 48.5 104.667 69.5 138s34.167 51.333 39.5 54z" />
    <glyph glyph-name="o" unicode="o" horiz-adv-x="441" 
d="M215 -35c-38 4 -68.333 20.668 -91 50.001s-34 66.666 -34 111.999c0 26.667 4 54.334 12 83.001s19.333 56.5 34 83.5s32 52.5 52 76.5s41.667 44.667 65 62c36.667 27.333 71 41 103 41c21.333 -11.333 42.333 -35 63 -71c3.33301 0 6.33301 0.166992 9 0.5
s5.66699 0.5 9 0.5c35.333 0 53 -31.333 53 -94c0 -42 -6.83301 -81.833 -20.5 -119.5s-32.667 -71.834 -57 -102.501s-53.333 -56.5 -87 -77.5s-70.5 -35.833 -110.5 -44.5zM266 280.001c-11.333 -15.333 -21.999 -32 -31.999 -50s-18.667 -36.167 -26 -54.5
s-13 -36 -17 -53s-6 -32.167 -6 -45.5c0 -16 2.66699 -31.333 8 -46s11.333 -23 18 -25c30 6.66699 57.5 19.167 82.5 37.5s46.667 41.166 65 68.499s32.666 58.333 42.999 93s15.5 71.667 15.5 111c0 17.333 -1 31 -3 41s-5.33301 18.667 -10 26
c-29.333 -8.66699 -55.5 -22.667 -78.5 -42s-42.833 -39.666 -59.5 -60.999z" />
    <glyph glyph-name="p" unicode="p" horiz-adv-x="498" 
d="M24 -331c-9.33301 2.66699 -14.6738 12.6699 -16.0068 30.0029c-2.66699 8.66699 -4.5 19 -5.5 31s-1.5 25.667 -1.5 41c0 14 2.33301 33.167 7 57.5s11.167 51.833 19.5 82.5s18.5 63.834 30.5 99.501s25.333 71.834 40 108.501l47 119.5l33.5 87.5l22 61
c5.66699 16 10.167 29.667 13.5 41c2.66699 8 6.66699 17.667 12 29s11.5 22.833 18.5 34.5s14.167 22.667 21.5 33s14 18.166 20 23.499c23.333 -3.33301 45.333 -9.33301 66 -18s33.334 -17 38.001 -25c-9.33301 -8.66699 -20 -22.167 -32 -40.5s-23.667 -38.333 -35 -60
s-21.666 -43.834 -30.999 -66.501s-16.333 -42.667 -21 -60c6.66699 11.333 15.334 23.666 26.001 36.999s27 31.666 49 54.999c24.667 25.333 47.834 44.833 69.501 58.5s40.5 20.5 56.5 20.5c25.333 0 46.166 -7 62.499 -21s24.5 -32 24.5 -54c0 -48 -8 -95.5 -24 -142.5
s-39 -89.5 -69 -127.5c-11.333 -14.667 -24.666 -28.667 -39.999 -42s-31.333 -25.166 -48 -35.499s-33 -18.5 -49 -24.5s-30.333 -9 -43 -9c-12 0 -22.5 2.5 -31.5 7.5s-15.167 11.167 -18.5 18.5c26 15.333 51.333 36.666 76 63.999s47.5 58.833 68.5 94.5
s39.333 74.167 55 115.5s27.5 83.333 35.5 126c-25.333 -13.333 -48.166 -27.833 -68.499 -43.5s-40.5 -36.167 -60.5 -61.5l-57 -71c-14 -18 -25.5 -33.333 -34.5 -46s-16.333 -24.5 -22 -35.5s-11.834 -24.5 -18.501 -40.5c-9.33301 -21.333 -20.166 -49.5 -32.499 -84.5
s-25 -74.167 -38 -117.5s-26 -89.5 -39 -138.5l-37.5 -146.5c-7.33301 1.33301 -13.666 6.66602 -18.999 15.999l-11.5 13c-2.33301 2.66699 -5.16602 4.66699 -8.49902 6z" />
    <glyph glyph-name="q" unicode="q" horiz-adv-x="452" 
d="M497 444c10.667 0 21.835 -2.49902 33.502 -7.49902s20.167 -11.167 25.5 -18.5l-62.5 -127l-44 -91.5l-32.5 -70.5l-28 -64c-16 -37.333 -31 -75.166 -45 -113.499s-26.5 -76 -37.5 -113s-20.667 -72.667 -29 -107s-14.5 -65.833 -18.5 -94.5
c-2.66699 -2.66699 -8.66699 -4 -18 -4c-4 0 -7.83301 1 -11.5 3s-5.83398 4.33301 -6.50098 7c-1.33301 3.33301 -3.83301 6.66602 -7.5 9.99902s-8.16699 5.66602 -13.5 6.99902s-9.83301 4.5 -13.5 9.5s-6.16699 10.5 -7.5 16.5c7.33301 117.333 42.333 250 105 398
c-23.333 -23.333 -43.5 -41.833 -60.5 -55.5s-29.833 -21.167 -38.5 -22.5c-9.33301 0 -19.5 4.83301 -30.5 14.5s-21.333 21.5 -31 35.5s-17.667 29.167 -24 45.5s-9.5 31.166 -9.5 44.499c0 17.333 4.66699 40.5 14 69.5s21 57.833 35 86.5
c53.333 106 132.666 168.667 237.999 188c9.33301 -1.33301 18.833 -4.16602 28.5 -8.49902s18.5 -9.83301 26.5 -16.5s14.833 -14 20.5 -22s9.16699 -15.667 10.5 -23c1.33301 4 6 9 14 15s14 9 18 9zM318.001 177.001c22 30 41.334 58.6689 58.001 86.002
s30.667 51.666 42 72.999c13.333 24.667 25 48 35 70c-2 2 -7.5 4 -16.5 6s-17.167 3 -24.5 3c-17.333 0 -37.833 -8.66699 -61.5 -26s-44.834 -39 -63.501 -65c-33.333 -46 -58.833 -91.667 -76.5 -137s-26.5 -87.333 -26.5 -126c0 -4.66699 3 -7 9 -7
c24 17.333 46 35.666 66 54.999s39.667 42 59 68z" />
    <glyph glyph-name="r" unicode="r" horiz-adv-x="403" 
d="M73 20c3.33301 19.333 9.16699 44.8301 17.5 76.4971s18.166 65.334 29.499 101.001s23.333 71.5 36 107.5s25 68.333 37 97c8.66699 20.667 16.334 36.834 23.001 48.501s14 21.5 22 29.5c9.33301 -1.33301 19 -3.66602 29 -6.99902s19.667 -7.33301 29 -12
s17.666 -9.5 24.999 -14.5s13 -9.83301 17 -14.5c-18 -21.333 -33.833 -45.666 -47.5 -72.999s-27.5 -62.333 -41.5 -105c36 32 67.833 62.667 95.5 92s53.5 62 77.5 98c4 3.33301 11 5 21 5c9.33301 0 18.333 -1.5 27 -4.5s14.667 -7.16699 18 -12.5
c-12 -32 -18 -63.667 -18 -95c0 -29.333 4.33301 -51.333 13 -66c-0.666992 -4 -5.16699 -11.667 -13.5 -23s-17.5 -22 -27.5 -32c-18 9.33301 -34 22.166 -48 38.499s-24.333 34.166 -31 53.499c-31.333 -22 -58 -43.5 -80 -64.5s-40.833 -44.333 -56.5 -70
s-29 -55.167 -40 -88.5s-21.5 -73 -31.5 -119c-6 0.666992 -13.167 2.83398 -21.5 6.50098s-16.666 8.16699 -24.999 13.5s-15.833 11 -22.5 17s-11 11.667 -13 17z" />
    <glyph glyph-name="s" unicode="s" horiz-adv-x="346" 
d="M442 398c-0.666992 -12.667 -2.83301 -25.834 -6.5 -39.501s-8.16699 -26 -13.5 -37s-11 -20.167 -17 -27.5s-11.667 -11 -17 -11c-7.33301 0.666992 -11.666 5.66699 -12.999 15c0 2 0.833008 5.16699 2.5 9.5l5.5 14.5c2 5.33301 3.83301 10.666 5.5 15.999
s2.5 10 2.5 14c0 9.33301 -2.16699 17.166 -6.5 23.499s-10.166 9.5 -17.499 9.5c-26.667 0 -47 -16.667 -61 -50s-21 -82.333 -21 -147c0 -6.66699 0.333008 -10.667 1 -12c14 0.666992 26.5 1.16699 37.5 1.5s21.833 0.5 32.5 0.5c0.666992 -1.33301 1 -4 1 -8
c0 -6 -1.33301 -10.333 -4 -13c-15.333 -3.33301 -27.5 -6.16602 -36.5 -8.49902s-15.833 -4.5 -20.5 -6.5s-7.5 -4.16699 -8.5 -6.5s-1.5 -5.5 -1.5 -9.5c0 -5.33301 0.166992 -10.666 0.5 -15.999s0.5 -12 0.5 -20c0 -56 -15.167 -101 -45.5 -135
s-72.5 -53.667 -126.5 -59c-9.33301 0.666992 -19 3.33398 -29 8.00098s-19.5 10.667 -28.5 18s-16.833 15.5 -23.5 24.5s-11.334 18.167 -14.001 27.5c0 25.333 5.33301 49.5 16 72.5s25.167 43.333 43.5 61s40 32 65 43s52.167 17.5 81.5 19.5c0 16.667 -1.66699 33 -5 49
s-6.83301 31.5 -10.5 46.5l-10.5 44c-3.33301 14.333 -5 28.5 -5 42.5c0 18 3.66699 35.833 11 53.5s17 34 29 49s26 27.833 42 38.5s32.667 18 50 22c7.33301 -2 17.166 -7.83301 29.499 -17.5s24.5 -20.5 36.5 -32.5s22.667 -24.167 32 -36.5s15 -22.5 17 -30.5z
M112.001 -58c16 6.66699 31.167 16.3301 45.5 28.9971s26.833 27 37.5 43s19.167 33 25.5 51s9.5 35.667 9.5 53c-13.333 -2 -28 -8.16699 -44 -18.5s-31 -22.666 -45 -36.999s-25.667 -29.166 -35 -44.499s-14 -28.666 -14 -39.999c0 -14.667 6.66699 -26.667 20 -36z" />
    <glyph glyph-name="t" unicode="t" horiz-adv-x="352" 
d="M156 383c-3.33301 4 -6.33105 12.501 -8.99805 25.501s-4 24.167 -4 33.5c17.333 -1.33301 34 -2.5 50 -3.5s30.667 -1.83301 44 -2.5c10 20 20.833 39.833 32.5 59.5s23 37.667 34 54s21.333 30.166 31 41.499s17.167 18.666 22.5 21.999
c6.66699 0 15.167 -1.16699 25.5 -3.5s20.833 -5.33301 31.5 -9s20.334 -7.5 29.001 -11.5s14.667 -8 18 -12c-20 -25.333 -37.167 -48.833 -51.5 -70.5s-29.833 -46.5 -46.5 -74.5c13.333 0 26.833 0.333008 40.5 1s27.5 1.66699 41.5 3c3.33301 -3.33301 6 -7.5 8 -12.5
s3 -10.167 3 -15.5c-32.667 -12 -72.334 -18.667 -119.001 -20c-16.667 -32 -31.5 -63.833 -44.5 -95.5s-24 -62.167 -33 -91.5s-16 -57 -21 -83s-7.5 -49.333 -7.5 -70c0 -29.333 11 -45.666 33 -48.999c20 2.66699 39 7.66699 57 15s34 16.666 48 27.999
c4 -6 6.33301 -11 7 -15c-4 -6 -10.833 -13 -20.5 -21s-20.167 -15.833 -31.5 -23.5s-22.333 -14.167 -33 -19.5s-18.667 -8.33301 -24 -9c-16.667 0.666992 -33.334 4.33398 -50.001 11.001s-31.834 15 -45.501 25s-24.834 21.167 -33.501 33.5s-13 24.5 -13 36.5
c0 16 2.16699 36.167 6.5 60.5s10.5 50.833 18.5 79.5s17.333 58.667 28 90s22.334 62.333 35.001 93h-57z" />
    <glyph glyph-name="u" unicode="u" horiz-adv-x="494" 
d="M369 22c-12.667 10.667 -21.1543 23.998 -25.4873 39.998s-6.5 29.667 -6.5 41c0 14 1.66699 26 5 36c-2.66699 0 -8.66699 -5.33301 -18 -16s-19.5 -23.334 -30.5 -38.001l-32.5 -43l-24 -31c-8.66699 -9.33301 -16.834 -16.666 -24.501 -21.999
s-13.834 -8.33301 -18.501 -9c-10.667 0.666992 -21.834 2.83398 -33.501 6.50098s-22.667 8.83398 -33 15.501s-19.333 14.667 -27 24s-12.834 20 -15.501 32c0 18.667 0.5 34 1.5 46s3.16699 25 6.5 39c6 25.333 14.833 54 26.5 86s25.167 63.5 40.5 94.5s32.5 60 51.5 87
s39.167 48.167 60.5 63.5c6 0 13 -0.5 21 -1.5s16.167 -2.83301 24.5 -5.5s16.333 -5.83398 24 -9.50098s14.167 -8.5 19.5 -14.5c-6 -6.66699 -21.167 -29 -45.5 -67s-51.5 -92.667 -81.5 -164c-3.33301 -7.33301 -7.33301 -18 -12 -32l-14 -44
c-4.66699 -15.333 -8.5 -30.333 -11.5 -45s-4.5 -26.334 -4.5 -35.001c0 -5.33301 0.833008 -9.33301 2.5 -12s3.16699 -4.66699 4.5 -6c10 4 22.667 15 38 33s36.666 45.667 63.999 83l23.5 32l27.5 38.5c9.33301 13.667 18.166 27.834 26.499 42.501
s15.166 29.334 20.499 44.001c2.66699 8 6.16699 17.5 10.5 28.5s9.66602 22.5 15.999 34.5s13.666 24.167 21.999 36.5s18.166 23.833 29.499 34.5c8.66699 0 18 -1 28 -3s19.5 -4.5 28.5 -7.5s16.833 -6.33301 23.5 -10s11.667 -7.5 15 -11.5
c-12 -29.333 -25.333 -58.333 -40 -87s-28.334 -56.834 -41.001 -84.501s-23.334 -55.167 -32.001 -82.5s-13 -54 -13 -80c0 -14 1.16699 -26.167 3.5 -36.5s4.83301 -19 7.5 -26s5.16699 -12.833 7.5 -17.5s3.5 -8.66699 3.5 -12c0 -0.666992 -0.666992 -1.66699 -2 -3
c-0.666992 -0.666992 -1.33398 -1 -2.00098 -1c-4.66699 0 -10.667 1 -18 3s-15.5 4.83301 -24.5 8.5s-18 7.83398 -27 12.501s-17.5 9.66699 -25.5 15z" />
    <glyph glyph-name="v" unicode="v" horiz-adv-x="448" 
d="M152 354c0 12 0.833008 23.3301 2.5 33.9971s5.16699 19.834 10.5 27.501s12.666 13.667 21.999 18s21.666 6.5 36.999 6.5c9.33301 0 19.833 -1 31.5 -3s20.167 -5.66699 25.5 -11c-2.66699 -11.333 -4.83398 -21.333 -6.50098 -30s-3 -18.167 -4 -28.5
s-1.83301 -22.666 -2.5 -36.999s-1.33398 -32.833 -2.00098 -55.5c-1.33301 -45.333 -3.5 -85.833 -6.5 -121.5s-9.83301 -71.167 -20.5 -106.5c0 -2.66699 1 -4 3 -4c10 7.33301 21.333 18 34 32s26 29.833 40 47.5s28 36.5 42 56.5s27 39.667 39 59
c16 28 33.667 63 53 105s35.333 87 48 135c4 0 9.16699 -0.833008 15.5 -2.5s12.666 -3.66699 18.999 -6s12 -4.83301 17 -7.5s8.5 -5 10.5 -7c-1.33301 -28.667 -8.16602 -58 -20.499 -88s-27.166 -59 -44.499 -87s-35.666 -54.333 -54.999 -79s-37 -46 -53 -64
c-32 -37.333 -64.167 -70.666 -96.5 -99.999s-70.833 -57.666 -115.5 -84.999c-17.333 6.66699 -31 15.5 -41 26.5s-15 22.5 -15 34.5c0 8 1.83301 17.167 5.5 27.5s7.83398 23.666 12.501 39.999s8.83398 36.833 12.501 61.5s5.5 56 5.5 94c0 22 -0.5 44.167 -1.5 66.5
s-1.5 39.5 -1.5 51.5z" />
    <glyph glyph-name="w" unicode="w" horiz-adv-x="635" 
d="M106 41c0 13.333 1.49707 32.0049 4.49707 56.0049s7 50 12 78s10.667 56.667 17 86s12.833 55.666 19.5 78.999c8.66699 31.333 22.167 55.5 40.5 72.5s41.166 25.5 68.499 25.5c14.667 0 29.167 -2.33301 43.5 -7s22.833 -10.667 25.5 -18
c-19.333 -16 -34.833 -35.833 -46.5 -59.5s-21 -49 -28 -76s-12.333 -54.667 -16 -83s-7.5 -54.833 -11.5 -79.5c22 29.333 42.833 55.833 62.5 79.5s37.167 42.5 52.5 56.5c20.667 19.333 34.667 35.5 42 48.5s13.666 27.167 18.999 42.5l14.5 42
c5.66699 16 15.167 30.667 28.5 44c2.66699 0.666992 8.33398 1 17.001 1c6.66699 0 13.834 -0.333008 21.501 -1s14.834 -2 21.501 -4s12.334 -4.33301 17.001 -7s7.33398 -6 8.00098 -10c-10.667 -14 -20.667 -35.833 -30 -65.5s-17.666 -62.167 -24.999 -97.5
s-14 -70.5 -20 -105.5s-11.333 -64.5 -16 -88.5c2.66699 1.33301 8.66699 6.66602 18 15.999s19.833 21 31.5 35l37 46c13 16.667 24.5 33 34.5 49c12.667 19.333 23.167 37.5 31.5 54.5s15.666 35.167 21.999 54.5s12.166 40.833 17.499 64.5s11 51.834 17 84.501
c4 5.33301 12.833 9.83301 26.5 13.5s26.167 5.5 37.5 5.5c10 0 17.333 -1.66699 22 -5c-3.33301 -37.333 -9.5 -70.666 -18.5 -99.999s-21.167 -57.833 -36.5 -85.5s-34.333 -55.334 -57 -83.001s-49.334 -57.834 -80.001 -90.501l-41.5 -44
c-15 -16 -29.667 -30.833 -44 -44.5s-27.666 -25.167 -39.999 -34.5s-21.833 -14 -28.5 -14c-15.333 0 -28 6 -38 18s-15 27.333 -15 46c0 19.333 0.833008 36.166 2.5 50.499s4.5 29.5 8.5 45.5c4 14.667 7.16699 27 9.5 37l6 26
c1.66699 7.33301 2.83398 13.666 3.50098 18.999l2 16c-5.33301 -2.66699 -12.333 -8.16699 -21 -16.5s-17.667 -18 -27 -29l-28 -33.5c-9.33301 -11.333 -17 -21 -23 -29l-33 -46l-26.5 -38l-24.5 -36.5c-8 -12.333 -17.333 -25.5 -28 -39.5
c-21.333 6.66699 -36.5 16.667 -45.5 30s-13.5 29.666 -13.5 48.999z" />
    <glyph glyph-name="x" unicode="x" horiz-adv-x="426" 
d="M408 6c-7.33301 -11.333 -18.8311 -20.501 -34.498 -27.501s-30.5 -11.167 -44.5 -12.5c-11.333 13.333 -24 31.5 -38 54.5s-27.333 49.833 -40 80.5c-34 -30.667 -68 -58.5 -102 -83.5s-65.667 -46.167 -95 -63.5c-7.33301 1.33301 -13.333 5.33301 -18 12
s-7.33398 15.334 -8.00098 26.001c13.333 7.33301 29.166 17 47.499 29s37 25.167 56 39.5s37.333 29.333 55 45s32.834 30.834 45.501 45.501c-11.333 26.667 -21.833 54.167 -31.5 82.5s-18 55.666 -25 81.999s-12.5 50.333 -16.5 72s-6 39.167 -6 52.5
c0 9.33301 1.16699 15.5 3.5 18.5s7.83301 4.5 16.5 4.5c6.66699 0 14.834 -0.666992 24.501 -2s19.5 -3 29.5 -5s20 -4.16699 30 -6.5s18.667 -4.83301 26 -7.5c-1.33301 -7.33301 -2 -13.666 -2 -18.999v-23c0 -26 2.16699 -52.5 6.5 -79.5s11.5 -56.167 21.5 -87.5
c27.333 31.333 52.666 66.166 75.999 104.499s47 84.166 71 137.499c16.667 -3.33301 31 -8.16602 43 -14.499s19.667 -13.166 23 -20.499c-7.33301 -30.667 -28 -69.334 -62 -116.001s-77.333 -96.334 -130 -149.001c9.33301 -25.333 20.666 -52.166 33.999 -80.499
s28 -57.833 44 -88.5z" />
    <glyph glyph-name="y" unicode="y" horiz-adv-x="489" 
d="M473 155c-15.333 -48.667 -30.6689 -92.999 -46.002 -132.999s-31.666 -76.833 -48.999 -110.5s-36 -64.667 -56 -93s-42 -55.166 -66 -80.499c-30.667 -32 -62.334 -56.5 -95.001 -73.5s-65.334 -25.5 -98.001 -25.5c-16.667 0 -33.167 1.83301 -49.5 5.5
s-31.666 8.66699 -45.999 15s-27 13.666 -38 21.999s-18.833 17.166 -23.5 26.499c0 8 4.66699 15 14 21c8 -7.33301 14.667 -13 20 -17s10.5 -7.33301 15.5 -10s10.333 -4.33398 16 -5.00098s12.167 -1 19.5 -1c38 0 75.167 11.167 111.5 33.5s70.666 54 102.999 95
s61.833 90.667 88.5 149s49.334 123.5 68.001 195.5l-32 -49c-12.667 -19.333 -26.667 -38.5 -42 -57.5s-31.166 -36.167 -47.499 -51.5s-32.166 -25.666 -47.499 -30.999c-10.667 0.666992 -21.834 2.83398 -33.501 6.50098s-22.667 8.83398 -33 15.501
s-19.5 14.667 -27.5 24s-13.333 20 -16 32c0 19.333 0.666992 34.833 2 46.5s3.66602 24.5 6.99902 38.5c6 25.333 14.833 54 26.5 86s25.334 63.5 41.001 94.5s33 60 52 87s38.833 48.167 59.5 63.5c5.33301 0 12 -0.5 20 -1.5s16.333 -2.83301 25 -5.5
s17 -5.83398 25 -9.50098s15 -8.5 21 -14.5c-7.33301 -6.66699 -23.333 -29 -48 -67s-52 -92.667 -82 -164c-3.33301 -7.33301 -7.33301 -18 -12 -32s-9.16699 -28.667 -13.5 -44s-8.16602 -30.333 -11.499 -45s-5 -26.334 -5 -35.001c0 -5.33301 0.833008 -9.33301 2.5 -12
s3.16699 -4.66699 4.5 -6c12 2 28 11.833 48 29.5s42.667 45.167 68 82.5c16 24 30.667 47.833 44 71.5l39.5 71.5l40.5 74l45 78c8.66699 0 18 -1 28 -3s19.667 -4.5 29 -7.5s17.5 -6.33301 24.5 -10s12.167 -7.5 15.5 -11.5l-58 -129c-18 -42 -34 -85 -48 -129z" />
    <glyph glyph-name="z" unicode="z" horiz-adv-x="472" 
d="M61 14c0 10.667 9.33301 27.8301 28 51.4971s43.5 50.667 74.5 81s66.667 62.333 107 96s82.166 66.167 125.499 97.5c-28 6 -50.167 10.333 -66.5 13s-29.5 4 -39.5 4c-19.333 0 -36.666 -2.66699 -51.999 -8s-30.333 -14 -45 -26c-30.667 26.667 -46 57.334 -46 92.001
c0 10.667 0.333008 17 1 19c11.333 11.333 24.833 20 40.5 26s32.167 9 49.5 9c18.667 0 37.667 -3 57 -9s38.333 -12.5 57 -19.5l52.5 -19.5c16.333 -6 30.833 -9 43.5 -9c7.33301 0 15.5 1 24.5 3s16.5 4.66699 22.5 8c6 -4.66699 11.5 -14 16.5 -28s7.5 -27.667 7.5 -41
c-20.667 -8 -45.5 -22 -74.5 -42s-58.5 -43 -88.5 -69s-59.167 -53.667 -87.5 -83s-51.833 -57 -70.5 -83c14 -6 33 -9 57 -9c15.333 0 31 1.33301 47 4s31.5 6.33398 46.5 11.001s28.833 10.167 41.5 16.5s23.334 13.166 32.001 20.499c31.333 -20 47 -49.333 47 -88
c0 -5.33301 -0.166992 -9.66602 -0.5 -12.999s-0.833008 -7.33301 -1.5 -12c-30.667 -19.333 -64 -29 -100 -29c-18 0 -36 1.83301 -54 5.5s-35.5 7.5 -52.5 11.5l-48 11.5c-15 3.66699 -28.833 5.5 -41.5 5.5c-32 0 -58 -15 -78 -45
c-8.66699 3.33301 -15.834 9.33301 -21.501 18s-9.16699 18.334 -10.5 29.001z" />
    <glyph glyph-name="braceleft" unicode="{" horiz-adv-x="335" 
d="M448 812c11.333 0 21.999 -2.66992 31.999 -8.00293s22.667 -16 38 -32c-20.667 -10 -37.667 -22.167 -51 -36.5s-24.333 -30.166 -33 -47.499s-15.834 -36 -21.501 -56s-10.834 -40.667 -15.501 -62c-5.33301 -22 -11.166 -44.167 -17.499 -66.5
s-15.166 -43.5 -26.499 -63.5s-25.666 -37.833 -42.999 -53.5s-39.666 -28.167 -66.999 -37.5c23.333 -14 41.666 -31.5 54.999 -52.5s20 -45.833 20 -74.5c0 -26 -5 -53.333 -15 -82s-20.833 -56.667 -32.5 -84l-32.5 -76c-10 -23.333 -15 -43 -15 -59
c0 -19.333 7.83301 -33.833 23.5 -43.5s36.834 -17.5 63.501 -23.5l-8 -16c-16.667 2.66699 -34.834 6.5 -54.501 11.5s-37.834 12.167 -54.501 21.5s-30.667 21.166 -42 35.499s-17 31.833 -17 52.5c0 20 4.83301 42.167 14.5 66.5s20.167 49.5 31.5 75.5
s21.833 52.167 31.5 78.5s14.5 51.166 14.5 74.499c0 30.667 -8.5 51.334 -25.5 62.001s-38.5 16 -64.5 16c-4.66699 2.66699 -8.16699 5.83398 -10.5 9.50098s-3.83301 7.16699 -4.5 10.5l35 16c28.667 12.667 50.334 29.834 65.001 51.501s26.167 45.834 34.5 72.501
s15.5 55.167 21.5 85.5s15 60.833 27 91.5c8 20.667 17 39.667 27 57s21 32.333 33 45s25 22.667 39 30s29 11 45 11z" />
    <glyph glyph-name="bar" unicode="|" horiz-adv-x="276" 
d="M98 -88c0.666992 40 5.66797 87.166 15.001 141.499s21.333 111.5 36 171.5s31.5 120.833 50.5 182.5s38.667 119.667 59 174s40.833 103.333 61.5 147s40 77.5 58 101.5c8 -1.33301 17.833 -4.66602 29.5 -9.99902s23.167 -11.166 34.5 -17.499s21.5 -12.833 30.5 -19.5
s14.833 -12 17.5 -16c-28 -30.667 -54.333 -68.334 -79 -113.001s-47.5 -93.167 -68.5 -145.5s-40.167 -107 -57.5 -164s-32.833 -113.667 -46.5 -170s-25.334 -110.5 -35.001 -162.5s-17.5 -99.333 -23.5 -142z" />
    <glyph glyph-name="braceright" unicode="}" horiz-adv-x="335" 
d="M98 -162c-11.333 0 -21.9971 2.66699 -31.9971 8s-22.667 16 -38 32c20.667 10 37.667 22.167 51 36.5s24.333 30.166 33 47.499s15.667 36 21 56l16 62c5.33301 22 11.166 44.167 17.499 66.5s15.166 43.5 26.499 63.5s25.666 37.833 42.999 53.5
s39.666 28.167 66.999 37.5c-23.333 14 -41.666 31.5 -54.999 52.5s-20 45.833 -20 74.5c0 26 5 53.333 15 82s20.833 56.667 32.5 84l32.5 76c10 23.333 15 43 15 59c0 19.333 -7.83301 33.833 -23.5 43.5s-36.834 17.5 -63.501 23.5l8 16
c16.667 -2.66699 34.834 -6.5 54.501 -11.5s37.834 -12.167 54.501 -21.5s30.667 -21.166 42 -35.499s17 -31.833 17 -52.5c0 -20 -4.83301 -42.167 -14.5 -66.5s-20.167 -49.5 -31.5 -75.5s-21.833 -52.167 -31.5 -78.5s-14.5 -51.166 -14.5 -74.499
c0 -30.667 8.5 -51.334 25.5 -62.001s38.5 -16 64.5 -16c4.66699 -2.66699 8.16699 -5.83398 10.5 -9.50098s3.83301 -7.16699 4.5 -10.5l-35 -16c-28.667 -13.333 -50.334 -30.666 -65.001 -51.999s-26.167 -45.333 -34.5 -72s-15.5 -55.167 -21.5 -85.5
s-15 -60.833 -27 -91.5c-15.333 -41.333 -35.333 -75.5 -60 -102.5s-52.667 -40.5 -84 -40.5z" />
    <glyph glyph-name="asciitilde" unicode="~" horiz-adv-x="441" 
d="M138 269c15.333 9.33301 30.168 15.333 44.501 18s29.166 4 44.499 4c19.333 0 38.333 -1.5 57 -4.5s37 -4.5 55 -4.5c16.667 0 33 1.16699 49 3.5s30 7.16602 42 14.499c9.33301 -9.33301 17.166 -21.5 23.499 -36.5s10.833 -29.167 13.5 -42.5
c-13.333 -10.667 -27.166 -18.167 -41.499 -22.5s-29.166 -6.5 -44.499 -6.5c-19.333 0 -36 2 -50 6s-28 8.5 -42 13.5s-29.167 9.5 -45.5 13.5s-36.833 6 -61.5 6h-16.5c-5.66699 0 -11.834 -0.333008 -18.501 -1c-3.33301 4.66699 -5.33301 10.334 -6 17.001
s-1.66699 14 -3 22z" />
    <glyph glyph-name="uni00A0" unicode="&#xa0;" horiz-adv-x="238" 
 />
    <glyph glyph-name="exclamdown" unicode="&#xa1;" horiz-adv-x="274" 
d="M290 254c0 -18 -4.83105 -44.1719 -14.498 -78.5049s-22.167 -72.333 -37.5 -114s-32.666 -84.667 -51.999 -129s-38.833 -85.833 -58.5 -124.5s-38.667 -72.167 -57 -100.5s-33.833 -47.166 -46.5 -56.499c-10.667 2 -22.167 6.83301 -34.5 14.5
s-23.833 16.334 -34.5 26.001s-20 19.834 -28 30.501s-12.667 20 -14 28c34 28 67.667 62.833 101 104.5s64.166 87.834 92.499 138.501s53.166 104.834 74.499 162.501s37.333 116.5 48 176.5c8 -2 15.833 -4.5 23.5 -7.5s14.167 -7.33301 19.5 -13s9.66602 -13 12.999 -22
s5 -20.833 5 -35.5zM301.002 368.995c-8 0 -15.667 1.83301 -23 5.5s-13.833 8 -19.5 13s-10.167 10.333 -13.5 16s-5 10.167 -5 13.5c0 8 1 18.333 3 31s5 24.834 9 36.501s9 21.667 15 30s12.667 12.5 20 12.5c18.667 0 37.5 -6.5 56.5 -19.5s33.167 -27.5 42.5 -43.5
c-8 -8.66699 -15 -18.5 -21 -29.5s-12 -21.333 -18 -31s-12.667 -17.834 -20 -24.501s-16 -10 -26 -10z" />
    <glyph glyph-name="cent" unicode="&#xa2;" horiz-adv-x="505" 
d="M554 702l-15.001 -49.0029c-4.66699 -15.333 -9.66699 -30.666 -15 -45.999c27.333 -5.33301 50.166 -16.333 68.499 -33s27.5 -38.334 27.5 -65.001c0 -15.333 -2.16699 -30.166 -6.5 -44.499s-10 -27.166 -17 -38.499s-15.167 -20.5 -24.5 -27.5
s-18.666 -10.5 -27.999 -10.5c-7.33301 0 -15.166 2.5 -23.499 7.5s-15.5 11.5 -21.5 19.5c44.667 40.667 67 77.667 67 111c0 13.333 -5.5 22.833 -16.5 28.5s-24.167 8.5 -39.5 8.5l-39.5 -124.5l-35 -104.5l-32 -89.5c-10.333 -27.667 -20.5 -53.5 -30.5 -77.5
c20 7.33301 42.833 17.833 68.5 31.5s50.5 29.5 74.5 47.5c2.66699 -2 5 -5 7 -9s3 -7.66699 3 -11c-9.33301 -12 -21.333 -23.833 -36 -35.5s-30.334 -22.5 -47.001 -32.5s-33.167 -19 -49.5 -27s-31.166 -14.333 -44.499 -19c-11.333 -25.333 -23.333 -50 -36 -74
s-26.334 -48.333 -41.001 -73c-10 2 -16 7 -18 15c7.33301 14.667 15.666 32.667 24.999 54s19 46 29 74c-25.333 4 -47.333 12.167 -66 24.5s-34.5 27.5 -47.5 45.5s-22.667 38.333 -29 61s-9.5 46.667 -9.5 72c0 35.333 6.83301 70 20.5 104s33.334 64.667 59.001 92
s57 50 94 68s79.167 29 126.5 33c12.667 52.667 22.334 99.334 29.001 140.001c14 -4 26.5 -9.5 37.5 -16.5s21.5 -16.833 31.5 -29.5zM266.999 256.997c0 -49.333 20.333 -80.332 61 -92.999c20 57.333 40 119.666 60 186.999s38 133.333 54 198
c-28.667 -11.333 -54 -28 -76 -50s-40.333 -46.5 -55 -73.5s-25.667 -55.167 -33 -84.5s-11 -57.333 -11 -84z" />
    <glyph glyph-name="sterling" unicode="&#xa3;" horiz-adv-x="648" 
d="M249 286c-26.667 0 -45.4961 4.99805 -56.4961 14.998s-16.5 24.667 -16.5 44c0 10.667 1.33301 20.334 4 29.001c7.33301 -1.33301 13.666 -2.33301 18.999 -3s10.666 -1.16699 15.999 -1.5s11.166 -0.666016 17.499 -0.999023s14.5 -0.5 24.5 -0.5h24.5
c8.33301 0 16.5 0.333008 24.5 1l13 49c13.333 50 27.666 94 42.999 132s33.666 70.333 54.999 97s47 47.334 77 62.001s66 23.667 108 27c34.667 -13.333 61 -29.166 79 -47.499s27 -41.166 27 -68.499c0 -20 -5.16699 -41.667 -15.5 -65s-25.833 -50.666 -46.5 -81.999
c-10.667 3.33301 -21.334 10.333 -32.001 21s-18.334 22.667 -23.001 36c27.333 18.667 46.333 36.334 57 53.001s16 33.334 16 50.001c0 11.333 -2.83301 22.333 -8.5 33s-18.167 20.334 -37.5 29.001c-26 -4 -48.333 -16 -67 -36s-35.167 -44.667 -49.5 -74
s-27.333 -62 -39 -98l-35.5 -109l63 7c17.333 2 29.666 3 36.999 3c13.333 0 24.833 -5.5 34.5 -16.5s17.167 -31.5 22.5 -61.5c-16.667 2 -30.334 3.33301 -41.001 4s-21 1 -31 1c-19.333 0 -38.166 -0.833008 -56.499 -2.5s-36.166 -3.83398 -53.499 -6.50098
c-18.667 -48.667 -36.5 -87.667 -53.5 -117s-32.667 -52 -47 -68s-27.333 -27.333 -39 -34s-21.5 -11.334 -29.5 -14.001c26.667 0 56 -3 88 -9s64.333 -9 97 -9c30 0 59.667 4.5 89 13.5s57.666 25.5 84.999 49.5c7.33301 -11.333 13.666 -25.333 18.999 -42s8 -34 8 -52
c0 -10.667 -1 -20.334 -3 -29.001c-30 -19.333 -58.5 -32.833 -85.5 -40.5s-53.5 -11.5 -79.5 -11.5c-27.333 0 -53.833 3.16699 -79.5 9.5s-50.667 13.166 -75 20.499s-48.166 14.166 -71.499 20.499s-47 9.5 -71 9.5c-12.667 0 -24 -1.66699 -34 -5
s-17.333 -10.666 -22 -21.999c-7.33301 0 -14.666 6.5 -21.999 19.5s-11.666 27.5 -12.999 43.5c31.333 10.667 58.5 24.167 81.5 40.5s43 35.166 60 56.499s31.5 44.666 43.5 69.999s23 52.666 33 81.999c-5.33301 -0.666992 -10.666 -1.16699 -15.999 -1.5
s-10.666 -0.5 -15.999 -0.5z" />
    <glyph glyph-name="currency" unicode="&#xa4;" horiz-adv-x="619" 
d="M600 440c0 -42.667 -8.16699 -82.3281 -24.5 -118.995s-37.166 -69 -62.499 -97c20.667 -29.333 38.834 -52.333 54.501 -69s32.167 -30.667 49.5 -42c-2 -8 -5.5 -14.667 -10.5 -20s-11.167 -8.33301 -18.5 -9l-26.5 23c-8.33301 7.33301 -16.5 15.333 -24.5 24
l-25 28.5c-8.66699 10.333 -18 22.166 -28 35.499c-22 -19.333 -44.667 -34.5 -68 -45.5s-45 -16.5 -65 -16.5c-20.667 0 -39.667 6.33301 -57 19c-19.333 -14.667 -39 -28.834 -59 -42.501s-36.333 -24.167 -49 -31.5c-7.33301 1.33301 -13 5.16602 -17 11.499
s-6.33301 13.833 -7 22.5c11.333 5.33301 26.833 14.166 46.5 26.499s39.167 26.166 58.5 41.499c-8 11.333 -14.5 25 -19.5 41s-7.5 34.333 -7.5 55c0 30 6.16699 62.333 18.5 97s29.166 67.334 50.499 98.001c-13.333 24 -26 48.167 -38 72.5s-23.667 49.166 -35 74.499
c8 15.333 23.667 23 47 23c2.66699 0 5.33398 -0.166992 8.00098 -0.5s5.66699 -0.833008 9 -1.5c5.33301 -34 19.666 -76 42.999 -126c19.333 21.333 40.666 38.666 63.999 51.999s47 20 71 20c23.333 0 44 -6.16699 62 -18.5s32.333 -29.166 43 -50.499
c12 18 22.333 35.333 31 52s15 31.667 19 45c30.667 0 50.667 -10.667 60 -32l-46.5 -64l-47.5 -64c0.666992 -2 1 -4.16699 1 -6.5v-6.5zM505 509.006c-25.333 0 -48.8301 -8.66797 -70.4971 -26.001s-40.667 -39.5 -57 -66.5s-29.166 -56.833 -38.499 -89.5
s-14 -64.667 -14 -96c0 -23.333 3.83301 -40.166 11.5 -50.499s16.5 -15.5 26.5 -15.5c12.667 0 26.167 5 40.5 15s28.166 23.167 41.499 39.5s26.166 35 38.499 56s23.166 42.333 32.499 64s16.666 42.667 21.999 63s8 38.5 8 54.5c0 34.667 -13.667 52 -41 52z" />
    <glyph glyph-name="yen" unicode="&#xa5;" horiz-adv-x="681" 
d="M342 250c-23.333 0 -40.1748 5.49316 -50.5078 16.4932s-15.5 25.167 -15.5 42.5c0 10.667 1.33301 20.334 4 29.001c11.333 -1.33301 22 -2.66602 32 -3.99902s23 -2 39 -2h28.5c9.66699 0 19.167 0.333008 28.5 1l-44 129.5c-14 40.333 -27.5 76.666 -40.5 108.999
s-25.667 60.5 -38 84.5s-24.166 42.333 -35.499 55c6.66699 2.66699 16.834 5.33398 30.501 8.00098s28.667 5.33398 45 8.00098s33 4.83398 50 6.50098s32.167 2.83398 45.5 3.50098c0 -16.667 1.5 -37 4.5 -61s7 -49.667 12 -77s10.833 -55 17.5 -83
s13.334 -53.667 20.001 -77s13.167 -43.5 19.5 -60.5s11.833 -28.167 16.5 -33.5c50 54.667 94.833 112.667 134.5 174s76.5 130.333 110.5 207c17.333 -2 34 -6.66699 50 -14s28.667 -15.666 38 -24.999l-84 -101l-71 -87l-61 -78.5l-54 -73.5l32.5 3.5
c9 1 16.5 1.5 22.5 1.5c12.667 0 23.834 -6 33.501 -18s16.834 -32 21.501 -60c-16.667 2 -30.334 3.33301 -41.001 4s-20 1 -28 1c-15.333 0 -30.166 -0.5 -44.499 -1.5s-28.166 -2.16699 -41.499 -3.5c-4.66699 -15.333 -9 -30.833 -13 -46.5l-12 -46.5
c18 2 33.5 3.83301 46.5 5.5s23.167 2.5 30.5 2.5c12.667 0 23.834 -6 33.501 -18s16.834 -32 21.501 -60c-16.667 2 -30.334 3.33301 -41.001 4s-20 1 -28 1c-14.667 0 -28.5 -0.5 -41.5 -1.5s-25.833 -2.16699 -38.5 -3.5c-8 -37.333 -14.333 -71.833 -19 -103.5
s-7 -58.5 -7 -80.5c-7.33301 0 -19 1.5 -35 4.5s-32.333 6.5 -49 10.5s-31.834 8 -45.501 12s-21.834 7.33301 -24.501 10c9.33301 16 18.5 35 27.5 57s18.167 45.667 27.5 71c-11.333 -1.33301 -22.666 -2.5 -33.999 -3.5s-22.666 -1.5 -33.999 -1.5
c-23.333 0 -40.166 5.5 -50.499 16.5s-15.5 25.167 -15.5 42.5c0 10.667 1.33301 20.334 4 29.001c11.333 -1.33301 22 -2.66602 32 -3.99902s23 -2 39 -2c15.333 0 30 0.166992 44 0.5s27.667 0.833008 41 1.5c5.33301 14.667 10 29.167 14 43.5s8.33301 28.166 13 41.499
l-36.5 -4c-12.333 -1.33301 -24.5 -2 -36.5 -2z" />
    <glyph glyph-name="brokenbar" unicode="&#xa6;" horiz-adv-x="268" 
d="M212 435c10.667 42.667 22.4971 83.9971 35.4971 123.997s26.333 77.333 40 112s27.334 65.5 41.001 92.5s26.834 49.167 39.501 66.5c8 -1.33301 18.333 -4.66602 31 -9.99902s25.167 -11.166 37.5 -17.499s23.5 -12.833 33.5 -19.5s16.333 -12 19 -16
c-19.333 -21.333 -38 -46 -56 -74s-35.167 -58.167 -51.5 -90.5s-31.666 -66.666 -45.999 -102.999s-27.833 -73.5 -40.5 -111.5zM154.997 333.997c6.66699 0 15.499 -1.66602 26.499 -4.99902s22.5 -7.5 34.5 -12.5s23.5 -10.5 34.5 -16.5s19.833 -11.667 26.5 -17
c-31.333 -76 -54.666 -147.167 -69.999 -213.5s-24.666 -132.833 -27.999 -199.5l-80 39c0 17.333 0.666992 38 2 62s3.16602 49.5 5.49902 76.5s5 54.667 8 83s6.5 55.333 10.5 81s8.5 49.167 13.5 70.5s10.5 38.666 16.5 51.999z" />
    <glyph glyph-name="section" unicode="&#xa7;" horiz-adv-x="415" 
d="M392 629c21.333 -1.33301 41.8379 -7.99805 61.5049 -19.998s35.834 -26.667 48.501 -44c-18 -2.66699 -35.667 -7.83398 -53 -15.501s-32.833 -17 -46.5 -28s-24.834 -23.5 -33.501 -37.5s-13 -28.333 -13 -43c0 -16 4.66699 -30.5 14 -43.5s19.666 -25.667 30.999 -38
s21.666 -25.166 30.999 -38.499s14 -28.333 14 -45c0 -15.333 -4.33301 -30 -13 -44s-20.167 -26.667 -34.5 -38s-30.666 -21 -48.999 -29s-36.833 -13.667 -55.5 -17c-3.33301 3.33301 -6.33301 7.33301 -9 12s-4 10 -4 16l23 17.5c9.33301 7 18.166 15 26.499 24
s15.666 18.833 21.999 29.5s9.5 22.667 9.5 36s-3.5 25 -10.5 35s-15.833 19.167 -26.5 27.5s-22.334 16.166 -35.001 23.499s-24.334 15.5 -35.001 24.5s-19.5 19 -26.5 30s-10.5 24.167 -10.5 39.5c0 21.333 6.5 41.166 19.5 59.499s28.667 34.5 47 48.5
s37.5 25.833 57.5 35.5s36.667 17.167 50 22.5zM252.005 347.002c10 -2.66699 21.6641 -8.16895 34.9971 -16.502s26 -18.166 38 -29.499c-10 -4 -20.667 -9.66699 -32 -17s-21.5 -15.666 -30.5 -24.999s-16.5 -19.5 -22.5 -30.5s-9 -22.167 -9 -33.5
c0 -18 7.16699 -33.5 21.5 -46.5s30 -25.667 47 -38s32.667 -25.333 47 -39s21.5 -30.5 21.5 -50.5c0 -18.667 -6.66699 -37.5 -20 -56.5s-30.5 -36.167 -51.5 -51.5s-44.167 -27.833 -69.5 -37.5s-50 -14.5 -74 -14.5c-24.667 0 -42 4.83301 -52 14.5s-15 21.167 -15 34.5
c0 11.333 3 22.666 9 33.999s14.667 21.666 26 30.999c-2 -7.33301 -3.33301 -13.666 -4 -18.999s-1 -10.333 -1 -15c0 -14.667 3.16699 -24.667 9.5 -30s14.166 -8 23.499 -8c12.667 0 26.334 4.16699 41.001 12.5s28.167 18.5 40.5 30.5s22.5 25 30.5 39s12 27 12 39
c0 11.333 -4 20.666 -12 27.999s-17.833 13.833 -29.5 19.5s-24.5 11.334 -38.5 17.001s-26.833 12.5 -38.5 20.5s-21.5 17.833 -29.5 29.5s-12 26.834 -12 45.501c0 18 3.83301 35.5 11.5 52.5s17.834 32.833 30.501 47.5s27.334 27.5 44.001 38.5
s34.334 19.167 53.001 24.5z" />
    <glyph glyph-name="dieresis" unicode="&#xa8;" horiz-adv-x="305" 
d="M20 605c0 10 0.663086 20.499 1.99609 31.499s4 21 8 30s9.83301 16.667 17.5 23s17.834 9.83301 30.501 10.5c8.66699 -1.33301 20.5 -6.16602 35.5 -14.499s25.833 -18.166 32.5 -29.499l-10 -16l-22.5 -35.5c-8.33301 -13 -16.666 -25.333 -24.999 -37
s-14.166 -18.834 -17.499 -21.501c-14 6 -25.167 14.333 -33.5 25s-14.166 22 -17.499 34zM150.996 582.999c0 10.667 0.667969 21.501 2.00098 32.501s4 21 8 30s9.66699 16.5 17 22.5s17 9.33301 29 10c4 0 9.16699 -1.33301 15.5 -4s12.833 -6 19.5 -10
s13 -8.66699 19 -14s11 -10.666 15 -15.999c0 -0.666992 -3.16699 -6.33398 -9.5 -17.001s-13.833 -22.334 -22.5 -35.001s-17.334 -24.667 -26.001 -36s-15 -18 -19 -20c-13.333 5.33301 -23.833 13.333 -31.5 24s-13.167 21.667 -16.5 33z" />
    <glyph glyph-name="copyright" unicode="&#xa9;" horiz-adv-x="667" 
d="M536 467c24 0 41.998 -7.33008 53.998 -21.9971s18 -31 18 -49c0 -17.333 -6 -33.333 -18 -48s-31.667 -22.334 -59 -23.001c1.33301 2 4.33301 5.66699 9 11s9.5 11.166 14.5 17.499s9.5 12.833 13.5 19.5s6 12.667 6 18s-1.5 9.66602 -4.5 12.999
s-9.16699 5.66602 -18.5 6.99902c-14.667 -3.33301 -29.667 -10.666 -45 -21.999s-29.166 -24.5 -41.499 -39.5s-22.333 -30.333 -30 -46s-11.5 -28.834 -11.5 -39.501c0 -18.667 10 -28 30 -28c8 0 16 1.5 24 4.5s16 6.33301 24 10l23.5 10.5
c7.66699 3.33301 14.834 5.33301 21.501 6c4 0 6.66699 -3 8 -9c-0.666992 -2 -5.5 -6 -14.5 -12s-19.667 -12.5 -32 -19.5s-25.5 -13.667 -39.5 -20s-26.333 -10.166 -37 -11.499c-26 3.33301 -45.333 11.333 -58 24s-19 29 -19 49c0 19.333 5.33301 40.5 16 63.5
s24.5 44.5 41.5 64.5s36.5 36.833 58.5 50.5s44 20.5 66 20.5zM678.998 248.003c-16 -28.667 -35.166 -55.501 -57.499 -80.501s-47.5 -46.667 -75.5 -65s-58.333 -32.833 -91 -43.5s-67.334 -16 -104.001 -16c-34 0 -63.833 4.66699 -89.5 14s-47 22.166 -64 38.499
s-29.833 35.5 -38.5 57.5s-13 45.667 -13 71c0 27.333 4.5 55.833 13.5 85.5s21.333 58.834 37 87.501s34.167 55.834 55.5 81.501s44.666 48.334 69.999 68.001s51.833 35.334 79.5 47.001s55.5 17.5 83.5 17.5c28.667 0 57.334 -6.16699 86.001 -18.5s54.5 -29 77.5 -50
s41.833 -45.833 56.5 -74.5s22 -59.334 22 -92.001c0 -16 -2.5 -33.167 -7.5 -51.5s-14.833 -38.166 -29.5 -59.499l-2 7c5.33301 12.667 9.16602 27.167 11.499 43.5s3.5 29.833 3.5 40.5c0 26 -5.5 50.833 -16.5 74.5s-25 44.5 -42 62.5s-35.667 32.333 -56 43
s-39.833 16 -58.5 16s-38.5 -5.33301 -59.5 -16s-41.833 -24.667 -62.5 -42s-40.5 -37.5 -59.5 -60.5s-35.667 -46.833 -50 -71.5s-25.666 -49.334 -33.999 -74.001s-12.5 -47.334 -12.5 -68.001c0 -32.667 11.5 -59.334 34.5 -80.001s58.833 -31 107.5 -31
c24 0 48.5 2.83301 73.5 8.5s49.833 14.334 74.5 26.001s48.167 26.5 70.5 44.5s42.833 39.333 61.5 64z" />
    <glyph glyph-name="ordfeminine" unicode="&#xaa;" horiz-adv-x="371" 
d="M469 682c4.66699 0 10.166 -0.829102 16.499 -2.49609s12.333 -3.5 18 -5.5s10.167 -4.33301 13.5 -7s5 -5 5 -7c-19.333 -34.667 -35 -68.834 -47 -102.501s-18 -61.167 -18 -82.5c0 -24 6.33301 -39 19 -45c-5.33301 -3.33301 -12.666 -6 -21.999 -8
s-17.666 -3 -24.999 -3c-26 0 -39 15.333 -39 46c0 24 9 56 27 96c-10.667 -18.667 -22.5 -36.334 -35.5 -53.001s-26.333 -31.5 -40 -44.5s-27.334 -23.5 -41.001 -31.5s-26.5 -12.667 -38.5 -14c-17.333 0.666992 -31.5 8 -42.5 22s-16.5 31.667 -16.5 53
c0 22.667 5.83301 46.834 17.5 72.501s26.667 49.5 45 71.5s38.333 40.167 60 54.5s42.5 22.166 62.5 23.499c4.66699 -1.33301 10.167 -3.83301 16.5 -7.5s12.166 -7.83398 17.499 -12.501s9.83301 -9.66699 13.5 -15s5.83398 -10 6.50098 -14
c-20 -2.66699 -40.333 -10.834 -61 -24.501s-39.5 -30 -56.5 -49s-30.833 -39.5 -41.5 -61.5s-16 -42.333 -16 -61c0 -8.66699 3.33301 -13.667 10 -15c14 2.66699 31.167 12.834 51.5 30.501s43.833 45.5 70.5 83.5l35.5 53.5c13 20.333 24.5 40.166 34.5 59.499z" />
    <glyph glyph-name="guillemotleft" unicode="&#xab;" horiz-adv-x="1074" 
d="M470 52c-48 10.667 -92.3301 22.3301 -132.997 34.9971s-81 30.667 -121 54c-15.333 9.33301 -29.5 19.5 -42.5 30.5s-25.167 25.167 -36.5 42.5c-5.33301 8 -10.166 17.5 -14.499 28.5s-6.83301 22.833 -7.5 35.5c6.66699 7.33301 16.667 13.833 30 19.5
s28.166 10.834 44.499 15.501s33.5 9 51.5 13s35 8.33301 51 13c24.667 6.66699 47.167 14 67.5 22s41 17.333 62 28s43.333 22.834 67 36.501l81.5 49.5c9.33301 -4 18.5 -10 27.5 -18s17.167 -16.5 24.5 -25.5s13.166 -18.167 17.499 -27.5s6.5 -17.333 6.5 -24
c0 -12 -3.33301 -23.333 -10 -34s-13.667 -20.334 -21 -29.001c-4.66699 8.66699 -12 13 -22 13c-7.33301 0 -15.833 -1 -25.5 -3l-24.5 -5c-21.333 -5.33301 -47 -12.666 -77 -21.999l-91.5 -29.5l-87.5 -30c-27.333 -9.66699 -49.333 -16.834 -66 -21.501
c2.66699 -5.33301 6.16699 -10.333 10.5 -15s10 -9.66699 17 -15s16.167 -11.333 27.5 -18s25.666 -14.667 42.999 -24c7.33301 -4 16.833 -8.5 28.5 -13.5s24 -10 37 -15s26 -9.66699 39 -14l34.5 -11.5c4 -1.33301 10.5 -3.16602 19.5 -5.49902
s15.167 -4.16602 18.5 -5.49902c-0.666992 -6 -3.83398 -12 -9.50098 -18s-11.167 -10 -16.5 -12zM980.003 51.9961c-48 10.667 -92.3301 22.3301 -132.997 34.9971s-81 30.667 -121 54c-15.333 9.33301 -29.5 19.5 -42.5 30.5s-25.167 25.167 -36.5 42.5
c-5.33301 8 -10.166 17.5 -14.499 28.5s-6.83301 22.833 -7.5 35.5c6.66699 7.33301 16.667 13.833 30 19.5s28.166 10.834 44.499 15.501s33.5 9 51.5 13s35 8.33301 51 13c24.667 6.66699 47.167 14 67.5 22s41 17.333 62 28s43.333 22.834 67 36.501l81.5 49.5
c9.33301 -4 18.5 -10 27.5 -18s17.167 -16.5 24.5 -25.5s13.166 -18.167 17.499 -27.5s6.5 -17.333 6.5 -24c0 -12 -3.33301 -23.333 -10 -34s-13.667 -20.334 -21 -29.001c-4.66699 8.66699 -12 13 -22 13c-7.33301 0 -15.833 -1 -25.5 -3l-24.5 -5
c-21.333 -5.33301 -47 -12.666 -77 -21.999l-91.5 -29.5l-87.5 -30c-27.333 -9.66699 -49.333 -16.834 -66 -21.501c2.66699 -5.33301 6.16699 -10.333 10.5 -15s10 -9.66699 17 -15s16.167 -11.333 27.5 -18s25.666 -14.667 42.999 -24c7.33301 -4 16.833 -8.5 28.5 -13.5
s24 -10 37 -15s26 -9.66699 39 -14l34.5 -11.5c4 -1.33301 10.5 -3.16602 19.5 -5.49902s15.167 -4.16602 18.5 -5.49902c-0.666992 -6 -3.83398 -12 -9.50098 -18s-11.167 -10 -16.5 -12z" />
    <glyph glyph-name="logicalnot" unicode="&#xac;" horiz-adv-x="602" 
d="M581 328c0 -11.333 1.00195 -23.998 3.00195 -37.998l6.5 -43.5c2.33301 -15 4.5 -30.333 6.5 -46s3 -30.5 3 -44.5c0 -22.667 -3.83301 -41.5 -11.5 -56.5s-22.834 -22.5 -45.501 -22.5c-3.33301 0 -8.33301 0.666992 -15 2s-11.667 2.66602 -15 3.99902
c4.66699 23.333 7 49.333 7 78c0 23.333 -1.5 46.833 -4.5 70.5s-6.83301 46.5 -11.5 68.5c-28.667 0 -56.5 -1.5 -83.5 -4.5s-52.667 -6.5 -77 -10.5s-46.833 -7.5 -67.5 -10.5s-39.334 -4.5 -56.001 -4.5c-22.667 0 -40.334 4.66699 -53.001 14s-19 27.333 -19 54
c0 3.33301 0.666992 8.33301 2 15s2.66602 11.667 3.99902 15c11.333 -2 22 -3.16699 32 -3.5s23 -0.5 39 -0.5c51.333 0 95.5 0.833008 132.5 2.5s69.333 4 97 7s51.834 6.5 72.501 10.5s40.334 8.33301 59.001 13c-2 -16.667 -3.33301 -30.334 -4 -41.001s-1 -20 -1 -28z
" />
    <glyph glyph-name="uni00AD" unicode="&#xad;" horiz-adv-x="526" 
d="M204 186c-20.667 0 -37.165 5.83203 -49.498 17.499s-18.5 27.834 -18.5 48.501c0 3.33301 0.666992 8.33301 2 15s2.66602 11.667 3.99902 15c11.333 -2 22 -3.16699 32 -3.5s23 -0.5 39 -0.5c34 0 65.833 1 95.5 3s56.5 4.33301 80.5 7l62 7
c17.333 2 30.666 3 39.999 3c12.667 0 23.834 -7.66699 33.501 -23s16.834 -37.333 21.501 -66c-16.667 2 -30.334 3.33301 -41.001 4s-20 1 -28 1c-28.667 0 -55.334 -1.5 -80.001 -4.5s-48 -6.16699 -70 -9.5l-63 -9.5c-20 -3 -40 -4.5 -60 -4.5z" />
    <glyph glyph-name="registered" unicode="&#xae;" horiz-adv-x="666" 
d="M679 248c-16 -28.667 -35.3311 -55.501 -57.998 -80.501s-48 -46.667 -76 -65s-58.333 -32.833 -91 -43.5s-67.334 -16 -104.001 -16c-34 0 -63.833 4.66699 -89.5 14s-47 22.166 -64 38.499s-29.667 35.5 -38 57.5s-12.5 45.667 -12.5 71c0 27.333 4.5 55.833 13.5 85.5
s21.333 58.834 37 87.501s34.167 55.834 55.5 81.501s44.666 48.334 69.999 68.001s51.833 35.334 79.5 47.001s55.5 17.5 83.5 17.5c28.667 0 57.334 -6.16699 86.001 -18.5s54.5 -29 77.5 -50s41.833 -45.833 56.5 -74.5s22 -59.334 22 -92.001
c0 -16 -2.5 -33.167 -7.5 -51.5s-15.167 -38.166 -30.5 -59.499l-2 7c6 12.667 10.167 27.167 12.5 43.5s3.5 29.833 3.5 40.5c0 26 -5.5 50.833 -16.5 74.5s-25 44.5 -42 62.5s-35.667 32.333 -56 43s-39.833 16 -58.5 16s-38.667 -5.33301 -60 -16
s-42.333 -24.667 -63 -42s-40.334 -37.5 -59.001 -60.5s-35.167 -46.833 -49.5 -71.5s-25.833 -49.334 -34.5 -74.001s-13 -47.334 -13 -68.001c0 -32.667 11.667 -59.334 35 -80.001s59.333 -31 108 -31c24 0 48.5 2.83301 73.5 8.5s49.833 14.334 74.5 26.001
s48.167 26.5 70.5 44.5s42.833 39.333 61.5 64zM430.002 276.999c-12 -10.667 -22.834 -22.6689 -32.501 -36.002s-16.167 -28.666 -19.5 -45.999c-11.333 0 -21.833 2 -31.5 6s-18.167 12.333 -25.5 25c16 12.667 31.333 27.167 46 43.5s28.667 33 42 50l38.5 50l33.5 44.5
c-11.333 -1.33301 -21.666 -4 -30.999 -8s-17.333 -9.33301 -24 -16c-7.33301 2.66699 -14.333 7.83398 -21 15.501s-10.667 16.167 -12 25.5c12 10 26.5 17.5 43.5 22.5s34.833 7.5 53.5 7.5c28 0 54.167 -6 78.5 -18s40.833 -30.667 49.5 -56
c-1.33301 -19.333 -7 -35.166 -17 -47.499s-22.167 -22.166 -36.5 -29.499s-29.666 -12.333 -45.999 -15s-31.166 -4 -44.499 -4c9.33301 -10.667 20.5 -19.334 33.5 -26.001s26.833 -10 41.5 -10c7.33301 0 14.666 1 21.999 3s14.666 5.66699 21.999 11
c0 -16.667 -5 -30.834 -15 -42.501s-25.333 -17.5 -46 -17.5c-14.667 0 -26 2.83301 -34 8.5s-15 12.167 -21 19.5l-19 22.5c-6.66699 7.66699 -16 13.5 -28 17.5zM466.001 315.997c0.666992 -0.666992 2.33105 -0.99707 4.99805 -0.99707c8 0 17.667 0.5 29 1.5
s22.666 3.16699 33.999 6.5s22 8.66602 32 15.999s17.667 17.333 23 30c-1.33301 7.33301 -5.66602 14.666 -12.999 21.999s-16.666 13.666 -27.999 18.999c-7.33301 -6.66699 -15.166 -14.167 -23.499 -22.5s-16.333 -16.833 -24 -25.5s-14.5 -17 -20.5 -25
s-10.667 -15 -14 -21z" />
    <glyph glyph-name="macron" unicode="&#xaf;" horiz-adv-x="346" 
d="M22 628c30 -2 60.3311 -2.99902 90.998 -2.99902c70.667 0 135.667 6.66699 195 20c4.66699 -8.66699 8.83398 -21.834 12.501 -39.501s5.5 -33.5 5.5 -47.5c-49.333 -6 -100.666 -9 -153.999 -9c-62 0 -112.667 4.33301 -152 13c0.666992 6.66699 1.16699 14.667 1.5 24
s0.5 23.333 0.5 42z" />
    <glyph glyph-name="degree" unicode="&#xb0;" horiz-adv-x="384" 
d="M327 403c-37.333 0 -66.001 9.50293 -86.001 28.5029s-30 46.167 -30 81.5c0 27.333 5 54.166 15 80.499s23.333 49.666 40 69.999s35.5 36.833 56.5 49.5s42.5 19 64.5 19c19.333 0 37.833 -4 55.5 -12s33.334 -18.833 47.001 -32.5s24.5 -29.334 32.5 -47.001
s12 -36.167 12 -55.5c0 -24 -5.66699 -47 -17 -69s-26.5 -41.333 -45.5 -58s-41 -30 -66 -40s-51.167 -15 -78.5 -15zM474.999 595.003c0 24 -7 43.501 -21 58.501s-32.667 22.5 -56 22.5c-16 0 -31.333 -4.33301 -46 -13s-27.834 -20.167 -39.501 -34.5
s-20.834 -30.833 -27.501 -49.5s-10 -38.334 -10 -59.001c0 -44.667 20.667 -67 62 -67c18 0 35.333 3.83301 52 11.5s31.334 18 44.001 31s22.834 28.167 30.501 45.5s11.5 35.333 11.5 54z" />
    <glyph glyph-name="plusminus" unicode="&#xb1;" horiz-adv-x="617" 
d="M376 169c-13.333 2 -27.1709 7.33105 -41.5039 15.998s-28.166 19 -41.499 31l14 48c4.66699 16 9.66699 31.667 15 47c-13.333 -1.33301 -26.333 -2.5 -39 -3.5s-25.334 -1.5 -38.001 -1.5c-24 0 -43.167 5.83301 -57.5 17.5s-21.5 27.834 -21.5 48.501
c0 3.33301 0.833008 8.5 2.5 15.5s3.16699 12.167 4.5 15.5c12.667 -2 24.834 -3.33301 36.501 -4s26.834 -1 45.501 -1c17.333 0 34.5 0.166992 51.5 0.5s33.5 0.833008 49.5 1.5c15.333 38 30.833 71.667 46.5 101s31.167 52.666 46.5 69.999
c8 -1.33301 18.333 -4.66602 31 -9.99902s25.167 -11.166 37.5 -17.499s23.5 -12.833 33.5 -19.5s16.333 -12 19 -16c-14 -15.333 -27.333 -31 -40 -47s-25 -32.667 -37 -50c19.333 1.33301 36.166 2.83301 50.499 4.5s25.833 2.5 34.5 2.5c14.667 0 27.667 -7.66699 39 -23
s19.666 -37.333 24.999 -66c-19.333 2 -35.166 3.33301 -47.499 4s-23.166 1 -32.499 1c-21.333 0 -41.833 -0.666992 -61.5 -2s-38.5 -3 -56.5 -5c-11.333 -22 -22.666 -46 -33.999 -72s-22.666 -54.667 -33.999 -86zM204.995 45.998
c-24 0 -43.1709 5.83203 -57.5039 17.499s-21.5 27.834 -21.5 48.501c0 3.33301 0.833008 8.5 2.5 15.5s3.16699 12.167 4.5 15.5c12.667 -2 24.834 -3.33301 36.501 -4s26.834 -1 45.501 -1c39.333 0 76.333 1 111 3s66 4.33301 94 7l72 7c20 2 35.333 3 46 3
c14.667 0 27.667 -7.66699 39 -23s19.666 -37.333 24.999 -66c-19.333 2 -35.166 3.33301 -47.499 4s-23.166 1 -32.499 1c-33.333 0 -64.333 -1.5 -93 -4.5s-55.667 -6.16699 -81 -9.5l-73 -9.5c-23.333 -3 -46.666 -4.5 -69.999 -4.5z" />
    <glyph glyph-name="twosuperior" unicode="&#xb2;" horiz-adv-x="360" 
d="M508 639c0 -12.667 -4.16797 -24.998 -12.501 -36.998s-19.833 -24.167 -34.5 -36.5s-31.667 -25 -51 -38l-63 -40.5l-35.5 -24.5c-9.66699 -7 -17.5 -14.167 -23.5 -21.5c26.667 2 53.167 7.16699 79.5 15.5s49.5 19.166 69.5 32.499
c5.33301 -4.66699 11 -11.667 17 -21s9 -18.333 9 -27c0 -14.667 -9 -24 -27 -28s-39.5 -6.16699 -64.5 -6.5s-50.333 -0.833008 -76 -1.5s-46.5 -5 -62.5 -13c-11.333 3.33301 -21.666 8.33301 -30.999 15s-15.666 14.334 -18.999 23.001c2.66699 8 7 15.333 13 22
s14 13.667 24 21s22 15.333 36 24l50 30c39.333 23.333 71.166 44.666 95.499 63.999s36.5 38.333 36.5 57c0 10.667 -3.66699 19.167 -11 25.5s-17 9.5 -29 9.5c-18.667 0 -35.5 -5.83301 -50.5 -17.5s-22.5 -25.834 -22.5 -42.501c0 -10.667 7.66699 -22.667 23 -36
c-10 -2 -16.833 -3.16699 -20.5 -3.5s-6.5 -0.5 -8.5 -0.5c-20 0 -36.667 4.5 -50 13.5s-20 20.167 -20 33.5c0 10.667 4.33301 20.834 13 30.501s20 18.167 34 25.5s29.833 13.166 47.5 17.499s35.5 6.5 53.5 6.5c34 0 61 -6.5 81 -19.5s30 -30.167 30 -51.5z" />
    <glyph glyph-name="threesuperior" unicode="&#xb3;" horiz-adv-x="342" 
d="M265 682c6.66699 3.33301 15.1689 6.49609 25.502 9.49609s21.166 5.5 32.499 7.5s22.833 3.5 34.5 4.5s21.834 1.5 30.501 1.5c34 0 58 -6 72 -18s21 -24.667 21 -38c0 -12.667 -5.66699 -26.167 -17 -40.5s-27 -27.166 -47 -38.499
c21.333 -3.33301 36.333 -9.33301 45 -18s13 -20.334 13 -35.001c0 -21.333 -7.83301 -39.333 -23.5 -54s-35.5 -26.5 -59.5 -35.5s-50 -15.667 -78 -20s-54.333 -6.5 -79 -6.5c-16 2.66699 -28.167 8.83398 -36.5 18.501s-12.5 21.167 -12.5 34.5
c0 0.666992 0.166992 2.5 0.5 5.5s0.5 4.83301 0.5 5.5c8.66699 -1.33301 17.834 -2.66602 27.501 -3.99902s18.167 -2 25.5 -2c17.333 0 36.166 1.5 56.499 4.5s39.166 7.16699 56.499 12.5s31.666 12.166 42.999 20.499s17 17.833 17 28.5c0 12.667 -12 21 -36 25
c-11.333 -4 -22.166 -7 -32.499 -9s-18.5 -3 -24.5 -3c-10.667 0 -20 3.5 -28 10.5s-12 18.167 -12 33.5c16.667 0 34 1.16699 52 3.5s34.833 6.33301 50.5 12s28.667 13.334 39 23.001s15.833 21.834 16.5 36.501c-4.66699 6.66699 -13.667 10 -27 10
c-16.667 0 -35.834 -3.66699 -57.501 -11s-40.167 -16.666 -55.5 -27.999c-23.333 9.33301 -35 24 -35 44c0 4 0.666992 7.33301 2 10z" />
    <glyph glyph-name="acute" unicode="&#xb4;" horiz-adv-x="285" 
d="M207 729c6.66699 -4 13.499 -10.501 20.499 -19.501s13.333 -19 19 -30s10.167 -22.167 13.5 -33.5s5 -21.666 5 -30.999c-25.333 -17.333 -47.5 -31.666 -66.5 -42.999s-36 -20.5 -51 -27.5s-28.167 -12 -39.5 -15s-22.333 -4.5 -33 -4.5
c-21.333 0 -39.666 6.33301 -54.999 19c14.667 5.33301 30 13.666 46 24.999s32.167 25 48.5 41s32.333 34 48 54s30.5 41.667 44.5 65z" />
    <glyph glyph-name="mu" unicode="&#xb5;" horiz-adv-x="519" 
d="M384 22c-12.667 10.667 -21.1582 23.9971 -25.4912 39.9971s-6.5 29.667 -6.5 41c0 14 1.66699 26 5 36c-2.66699 0 -8.66699 -5.5 -18 -16.5s-19.5 -23.667 -30.5 -38l-32 -43c-10.333 -14.333 -18.5 -24.5 -24.5 -30.5c-8 -9.33301 -16.167 -16.666 -24.5 -21.999
s-14.5 -8.33301 -18.5 -9c-7.33301 0.666992 -15.5 3 -24.5 7s-14.833 11.667 -17.5 23c-11.333 -34 -19.833 -64.333 -25.5 -91s-8.5 -49.667 -8.5 -69c0 -23.333 4.16699 -42.5 12.5 -57.5s21.5 -24.833 39.5 -29.5c-0.666992 -3.33301 -1.66699 -7.16602 -3 -11.499
s-2.66602 -8.16602 -3.99902 -11.499c-42.667 7.33301 -73.834 19.666 -93.501 36.999s-29.5 44 -29.5 80c0 8.66699 2.5 26.834 7.5 54.501s12 60.834 21 99.501s20.167 80.5 33.5 125.5s28.333 89 45 132s34.834 82.667 54.501 119s40.834 65.166 63.501 86.499
c6 0 13.333 -0.5 22 -1.5s17.667 -2.83301 27 -5.5s18.166 -5.83398 26.499 -9.50098s15.166 -8.5 20.499 -14.5c-6 -6.66699 -21.167 -29 -45.5 -67s-51.5 -92.667 -81.5 -164c-3.33301 -7.33301 -7.33301 -18 -12 -32l-14 -44c-4.66699 -15.333 -8.5 -30.333 -11.5 -45
s-4.5 -26.334 -4.5 -35.001c0 -5.33301 0.833008 -9.33301 2.5 -12s3.16699 -4.66699 4.5 -6c10 4 22.667 15 38 33s36.666 45.667 63.999 83l23.5 32l27.5 38.5c9.33301 13.667 18.166 27.834 26.499 42.501s15.166 29.334 20.499 44.001c2.66699 8 6.16699 17.5 10.5 28.5
s9.66602 22.5 15.999 34.5s13.666 24.167 21.999 36.5s18.166 23.833 29.499 34.5c8.66699 0 18 -1 28 -3s19.5 -4.5 28.5 -7.5s16.833 -6.33301 23.5 -10s11.667 -7.5 15 -11.5c-12 -29.333 -25.333 -58.333 -40 -87s-28.334 -56.834 -41.001 -84.501
s-23.334 -55.167 -32.001 -82.5s-13 -54 -13 -80c0 -14 1.16699 -26.167 3.5 -36.5s4.83301 -19 7.5 -26s5.16699 -12.833 7.5 -17.5s3.5 -8.66699 3.5 -12c0 -0.666992 -0.666992 -1.66699 -2 -3c-0.666992 -0.666992 -1.33398 -1 -2.00098 -1c-4.66699 0 -10.667 1 -18 3
s-15.5 4.83301 -24.5 8.5s-18 7.83398 -27 12.501s-17.5 9.66699 -25.5 15z" />
    <glyph glyph-name="paragraph" unicode="&#xb6;" horiz-adv-x="610" 
d="M500 512c21.333 0 38.666 -2.16797 51.999 -6.50098s24 -8.83301 32 -13.5c-16 -32 -32.167 -67.333 -48.5 -106s-32.166 -78.334 -47.499 -119.001s-29.666 -81 -42.999 -121s-25 -77.333 -35 -112s-17.833 -65.167 -23.5 -91.5s-8.5 -46.166 -8.5 -59.499
c0 -5.33301 0.333008 -11.666 1 -18.999s1.66699 -12 3 -14c-23.333 4 -42.833 10 -58.5 18s-27.5 20.333 -35.5 37c0 3.33301 2.33301 12.333 7 27s11 33.167 19 55.5l28 75.5l33 88l34.5 93l33.5 90c-32 -21.333 -60.333 -37.666 -85 -48.999s-47.667 -17 -69 -17
c-12.667 0 -25.5 2.16699 -38.5 6.5s-25 11.5 -36 21.5s-20 23.333 -27 40s-10.5 37 -10.5 61c0 35.333 6.5 68.166 19.5 98.499s30.5 57.833 52.5 82.5s47.667 46.5 77 65.5s60.5 35.333 93.5 49s66.5 24.334 100.5 32.001s67 12.5 99 14.5c18 0 34.5 -3.16699 49.5 -9.5
s27.667 -14.833 38 -25.5s18.333 -23.167 24 -37.5s8.5 -29.833 8.5 -46.5c0 -14.667 -1.66699 -27.334 -5 -38.001s-10 -16 -20 -16c-1.33301 16 -5.16602 27.167 -11.499 33.5s-17.5 9.5 -33.5 9.5c-21.333 0 -46 -3.33301 -74 -10s-56.833 -16 -86.5 -28
s-58.834 -26 -87.501 -42s-54.167 -33.333 -76.5 -52s-40.333 -38.167 -54 -58.5s-20.5 -40.833 -20.5 -61.5c0 -16 4.5 -26 13.5 -30s17.833 -6 26.5 -6c24.667 0 50.167 5 76.5 15s49.166 20.333 68.499 31c13.333 36 24 67.167 32 93.5s12.333 43.5 13 51.5zM698 510.999
c-7.33301 -22 -16.6699 -47.5029 -28.0029 -76.5029l-37 -91l-40 -97.5c-13.333 -33.333 -25.5 -65.166 -36.5 -95.499s-19.833 -58.5 -26.5 -84.5s-10 -47.667 -10 -65c0 -14.667 2 -27 6 -37c-9.33301 0 -18.666 1.5 -27.999 4.5s-17.666 7.33301 -24.999 13
s-13.333 12.667 -18 21s-7 17.833 -7 28.5c0 14.667 3.33301 34.5 10 59.5s15.334 52.5 26.001 82.5s22.5 61.667 35.5 95l38 97.5c12.333 31.667 23.5 61.834 33.5 90.501s17.333 53.334 22 74.001c18 0 34.333 -2.16699 49 -6.5s26.667 -8.5 36 -12.5z" />
    <glyph glyph-name="periodcentered" unicode="&#xb7;" horiz-adv-x="227" 
d="M184 191c-8.66699 1.33301 -17.999 5.33008 -27.999 11.9971s-16.333 13.667 -19 21c0 6.66699 1 15.334 3 26.001s4.5 21.334 7.5 32.001l8.5 30.5l6 21.5c6 0 14.167 -1.66699 24.5 -5s21 -7.83301 32 -13.5s21.167 -12.167 30.5 -19.5s16.666 -15 21.999 -23
c-4.66699 -11.333 -11 -22 -19 -32s-16.167 -18.667 -24.5 -26s-16.5 -13.166 -24.5 -17.499s-14.333 -6.5 -19 -6.5z" />
    <glyph glyph-name="cedilla" unicode="&#xb8;" horiz-adv-x="255" 
d="M159 14c-16.667 -19.333 -32.834 -40.834 -48.501 -64.501s-26.834 -43.834 -33.501 -60.501c6 3.33301 13.5 6.5 22.5 9.5s18.167 5.83301 27.5 8.5s18.5 4.66699 27.5 6s16.5 2 22.5 2c2.66699 0 7.33398 -2.16699 14.001 -6.5s13.167 -9.16602 19.5 -14.499
s12 -10.666 17 -15.999s7.5 -9.33301 7.5 -12c0 -4.66699 -4 -12 -12 -22s-18.167 -21 -30.5 -33s-26.166 -24.667 -41.499 -38s-30 -25.333 -44 -36s-26.833 -19.5 -38.5 -26.5s-20.167 -10.5 -25.5 -10.5c-1.33301 0 -3.16602 1.5 -5.49902 4.5
s-4.66602 6.5 -6.99902 10.5s-4.33301 8 -6 12s-2.5 7 -2.5 9c15.333 12.667 28.666 24.334 39.999 35.001s21.666 21 30.999 31s18 20.667 26 32s16.333 24 25 38l-23 -5.5c-10 -2.33301 -20.5 -5.33301 -31.5 -9l-33 -11l-28.5 -9.5
c-2 1.33301 -3.66699 3.16602 -5 5.49902s-2.33301 4.5 -3 6.5c2.66699 7.33301 7.66699 17.666 15 30.999s16.166 27.833 26.499 43.5s21.833 31.834 34.5 48.501s25.334 31.667 38.001 45z" />
    <glyph glyph-name="onesuperior" unicode="&#xb9;" horiz-adv-x="312" 
d="M365 455c15.333 0 27.167 -2.50098 35.5 -7.50098s12.5 -12.167 12.5 -21.5c0 -1.33301 -0.666992 -4.16602 -2 -8.49902s-2.33301 -8.16602 -3 -11.499l-22.5 2c-7.66699 0.666992 -14.834 1 -21.501 1c-21.333 0 -43 -1.66699 -65 -5s-42.667 -5 -62 -5
c-16 0 -30.167 2.66699 -42.5 8s-20.833 12.666 -25.5 21.999c3.33301 2.66699 14.166 5.5 32.499 8.5l60.5 9.5c9.33301 29.333 20.166 58.666 32.499 87.999s25.166 58.333 38.499 87c-9.33301 -4 -18.666 -8.5 -27.999 -13.5s-17.666 -10.167 -24.999 -15.5
c-12 2.66699 -18 9 -18 19c10 10 20.667 18.833 32 26.5l33 22.5c10.667 7.33301 20.834 15.166 30.501 23.499s17.834 17.5 24.501 27.5c21.333 -4 40.333 -8.16699 57 -12.5s28.334 -10.166 35.001 -17.499c-8.66699 -4 -18.5 -13.5 -29.5 -28.5
s-22.5 -33.167 -34.5 -54.5s-24 -44.666 -36 -69.999l-34 -75c4.66699 0 9.16699 0.166992 13.5 0.5s8.16602 0.5 11.499 0.5z" />
    <glyph glyph-name="ordmasculine" unicode="&#xba;" horiz-adv-x="336" 
d="M296 411c-27.333 2 -49.166 12.165 -65.499 30.498s-24.5 41.5 -24.5 69.5c0 16.667 3 33.834 9 51.501s14.167 34.834 24.5 51.501s22.666 32.5 36.999 47.5s30.166 27.833 47.499 38.5c25.333 16.667 50 25 74 25c15.333 -6 30.333 -20.667 45 -44
c2 0 4.16699 0.166992 6.5 0.5s4.5 0.5 6.5 0.5c25.333 0 38 -19.333 38 -58c0 -26 -5 -50.667 -15 -74s-23.667 -44.5 -41 -63.5s-38.166 -35 -62.499 -48s-50.833 -22.167 -79.5 -27.5zM333 605.998c-16.667 -19.333 -30.4971 -41 -41.4971 -65s-16.5 -44.333 -16.5 -61
c0 -10 1.83301 -19.5 5.5 -28.5s7.83398 -14.167 12.501 -15.5c21.333 4 41.166 11.667 59.499 23s34.166 25.5 47.499 42.5s23.666 36.333 30.999 58s11 44.5 11 68.5c0 19.333 -3.33301 33.333 -10 42c-20.667 -5.33301 -39.334 -14 -56.001 -26s-31 -24.667 -43 -38z" />
    <glyph glyph-name="guillemotright" unicode="&#xbb;" horiz-adv-x="1043" 
d="M193 437c30 0 58.6641 -2.49805 85.9971 -7.49805s53.833 -11.833 79.5 -20.5s50.667 -18.334 75 -29.001s48.833 -22 73.5 -34c10.667 -6 21.667 -13.5 33 -22.5s22 -19.167 32 -30.5s18.333 -24 25 -38s10.334 -29.333 11.001 -46
c-6.66699 -7.33301 -16.667 -13.833 -30 -19.5s-28.166 -10.834 -44.499 -15.501s-33.5 -9 -51.5 -13s-35 -8.33301 -51 -13c-24.667 -7.33301 -47.167 -14.833 -67.5 -22.5s-41 -16.834 -62 -27.501s-43.333 -23 -67 -37l-81.5 -49c-19.333 15.333 -33.5 29.833 -42.5 43.5
s-13.5 26.5 -13.5 38.5c0 15.333 7.66699 29 23 41s35.333 22 60 30l76 25l91.5 29.5l88 27.5l66.5 21c-3.33301 5.33301 -7 10.333 -11 15s-9.5 9.66699 -16.5 15s-16.167 11.333 -27.5 18s-25.666 14.667 -42.999 24c-16 8.66699 -33.833 16.834 -53.5 24.501
s-39.834 14.5 -60.501 20.5s-41.5 10.833 -62.5 14.5s-41.167 5.5 -60.5 5.5c0.666992 6 3.83398 12.333 9.50098 19s11.167 11 16.5 13zM672.997 437.002c30 0 58.6641 -2.49805 85.9971 -7.49805s53.833 -11.833 79.5 -20.5s50.667 -18.334 75 -29.001
s48.833 -22 73.5 -34c10.667 -6 21.667 -13.5 33 -22.5s22 -19.167 32 -30.5s18.333 -24 25 -38s10.334 -29.333 11.001 -46c-6.66699 -7.33301 -16.667 -13.833 -30 -19.5s-28.166 -10.834 -44.499 -15.501s-33.5 -9 -51.5 -13s-35 -8.33301 -51 -13
c-24.667 -7.33301 -47.167 -14.833 -67.5 -22.5s-41 -16.834 -62 -27.501s-43.333 -23 -67 -37l-81.5 -49c-19.333 15.333 -33.5 29.833 -42.5 43.5s-13.5 26.5 -13.5 38.5c0 15.333 7.66699 29 23 41s35.333 22 60 30l76 25l91.5 29.5l88 27.5l66.5 21
c-3.33301 5.33301 -7 10.333 -11 15s-9.5 9.66699 -16.5 15s-16.167 11.333 -27.5 18s-25.666 14.667 -42.999 24c-16 8.66699 -33.833 16.834 -53.5 24.501s-39.834 14.5 -60.501 20.5s-41.5 10.833 -62.5 14.5s-41.167 5.5 -60.5 5.5
c0.666992 6 3.83398 12.333 9.50098 19s11.167 11 16.5 13z" />
    <glyph glyph-name="onequarter" unicode="&#xbc;" horiz-adv-x="787" 
d="M827 713l-105.499 -150.999l-112 -148.5l-112 -140l-106.5 -126l-95.5 -106c-29.667 -31.667 -55.834 -58.5 -78.501 -80.5c-7.33301 1.33301 -15.5 6.5 -24.5 15.5s-14.833 19.167 -17.5 30.5c26 23.333 55 52.833 87 88.5s65.167 75 99.5 118l104 136l101.5 143.5
c32.667 48 63 95 91 141s52.333 88.333 73 127c8 0 17 -1.5 27 -4.5s19.833 -6.83301 29.5 -11.5s18.167 -9.83398 25.5 -15.501s12 -11.167 14 -16.5zM373.001 455.001c15.333 0 27.167 -2.50098 35.5 -7.50098s12.5 -12.167 12.5 -21.5
c0 -1.33301 -0.666992 -4.16602 -2 -8.49902s-2.33301 -8.16602 -3 -11.499l-22.5 2c-7.66699 0.666992 -14.834 1 -21.501 1c-21.333 0 -43 -1.66699 -65 -5s-42.667 -5 -62 -5c-16 0 -30.167 2.66699 -42.5 8s-20.833 12.666 -25.5 21.999
c3.33301 2.66699 14.166 5.5 32.499 8.5l60.5 9.5c9.33301 29.333 20.166 58.666 32.499 87.999s25.166 58.333 38.499 87c-9.33301 -4 -18.666 -8.5 -27.999 -13.5s-17.666 -10.167 -24.999 -15.5c-12 2.66699 -18 9 -18 19c10 10 20.667 18.833 32 26.5l33 22.5
c10.667 7.33301 20.834 15.166 30.501 23.499s17.834 17.5 24.501 27.5c21.333 -4 40.333 -8.16699 57 -12.5s28.334 -10.166 35.001 -17.499c-8.66699 -4 -18.5 -13.5 -29.5 -28.5s-22.5 -33.167 -34.5 -54.5s-24 -44.666 -36 -69.999l-34 -75
c4.66699 0 9.16699 0.166992 13.5 0.5s8.16602 0.5 11.499 0.5zM749.002 244c16.667 -1.33301 31.8359 -4.33398 45.5029 -9.00098s24.5 -11.667 32.5 -21c-36.667 -36.667 -69 -74.334 -97 -113.001c5.33301 1.33301 10.333 2 15 2c6.66699 -4.66699 11 -10.667 13 -18
l-47 -13c-23.333 -36 -42.333 -75.667 -57 -119c-14.667 0.666992 -28.667 2 -42 4s-25 7.33301 -35 16c12 28.667 26.333 56.334 43 83.001c-19.333 0 -35.833 0.333008 -49.5 1s-26.334 2.33398 -38.001 5.00098s-22.834 6 -33.501 10s-22.334 9.66699 -35.001 17
c30 23.333 57.833 49.5 83.5 78.5s48.167 58.5 67.5 88.5c14.667 -3.33301 29.5 -7.5 44.5 -12.5s29.5 -12.167 43.5 -21.5l-39.5 -32.5l-40.5 -34.5l-37.5 -32.5c-11.667 -10.333 -21.5 -19.5 -29.5 -27.5c8 -1.33301 15.833 -2.33301 23.5 -3s15.167 -1 22.5 -1h20
c6.66699 0 13.667 0.333008 21 1l52 76z" />
    <glyph glyph-name="onehalf" unicode="&#xbd;" horiz-adv-x="810" 
d="M827 713l-105.499 -150.999l-112 -148.5l-112 -140l-106.5 -126l-95.5 -106c-29.667 -31.667 -55.834 -58.5 -78.501 -80.5c-7.33301 1.33301 -15.5 6.5 -24.5 15.5s-14.833 19.167 -17.5 30.5c26 23.333 55 52.833 87 88.5s65.167 75 99.5 118l104 136l101.5 143.5
c32.667 48 63 95 91 141s52.333 88.333 73 127c8 0 17 -1.5 27 -4.5s19.833 -6.83301 29.5 -11.5s18.167 -9.83398 25.5 -15.501s12 -11.167 14 -16.5zM373.001 455.001c15.333 0 27.167 -2.50098 35.5 -7.50098s12.5 -12.167 12.5 -21.5
c0 -1.33301 -0.666992 -4.16602 -2 -8.49902s-2.33301 -8.16602 -3 -11.499l-22.5 2c-7.66699 0.666992 -14.834 1 -21.501 1c-21.333 0 -43 -1.66699 -65 -5s-42.667 -5 -62 -5c-16 0 -30.167 2.66699 -42.5 8s-20.833 12.666 -25.5 21.999
c3.33301 2.66699 14.166 5.5 32.499 8.5l60.5 9.5c9.33301 29.333 20.166 58.666 32.499 87.999s25.166 58.333 38.499 87c-9.33301 -4 -18.666 -8.5 -27.999 -13.5s-17.666 -10.167 -24.999 -15.5c-12 2.66699 -18 9 -18 19c10 10 20.667 18.833 32 26.5l33 22.5
c10.667 7.33301 20.834 15.166 30.501 23.499s17.834 17.5 24.501 27.5c21.333 -4 40.333 -8.16699 57 -12.5s28.334 -10.166 35.001 -17.499c-8.66699 -4 -18.5 -13.5 -29.5 -28.5s-22.5 -33.167 -34.5 -54.5s-24 -44.666 -36 -69.999l-34 -75
c4.66699 0 9.16699 0.166992 13.5 0.5s8.16602 0.5 11.499 0.5zM820.002 189c0 -12.667 -4.16797 -24.998 -12.501 -36.998s-19.833 -24.167 -34.5 -36.5s-31.667 -25 -51 -38l-63 -40.5l-35.5 -24.5c-9.66699 -7 -17.5 -14.167 -23.5 -21.5
c26.667 2 53.167 7.16699 79.5 15.5s49.5 19.166 69.5 32.499c5.33301 -4.66699 11 -11.667 17 -21s9 -18.333 9 -27c0 -14.667 -9 -24 -27 -28s-39.5 -6.16699 -64.5 -6.5s-50.333 -0.833008 -76 -1.5s-46.5 -5 -62.5 -13c-11.333 3.33301 -21.666 8.33301 -30.999 15
s-15.666 14.334 -18.999 23.001c2.66699 8 7 15.333 13 22s14 13.667 24 21s22 15.333 36 24l50 30c39.333 23.333 71.166 44.666 95.499 63.999s36.5 38.333 36.5 57c0 10.667 -3.66699 19.167 -11 25.5s-17 9.5 -29 9.5c-18.667 0 -35.5 -5.83301 -50.5 -17.5
s-22.5 -25.834 -22.5 -42.501c0 -10.667 7.66699 -22.667 23 -36c-10 -2 -16.833 -3.16699 -20.5 -3.5s-6.5 -0.5 -8.5 -0.5c-20 0 -36.667 4.5 -50 13.5s-20 20.167 -20 33.5c0 10.667 4.33301 20.834 13 30.501s20 18.167 34 25.5s29.833 13.166 47.5 17.499
s35.5 6.5 53.5 6.5c34 0 61 -6.5 81 -19.5s30 -30.167 30 -51.5z" />
    <glyph glyph-name="threequarters" unicode="&#xbe;" horiz-adv-x="797" 
d="M837 713l-105.999 -150.999l-111.5 -148.5l-112 -140l-106.5 -126l-95.5 -106c-29.667 -31.667 -55.834 -58.5 -78.501 -80.5c-7.33301 1.33301 -15.5 6.5 -24.5 15.5s-14.833 19.167 -17.5 30.5c26 23.333 55 52.833 87 88.5s65.167 75 99.5 118l104 136l101.5 143.5
c32.667 48 63 95 91 141s52.333 88.333 73 127c8 0 17 -1.5 27 -4.5s19.833 -6.83301 29.5 -11.5s18.167 -9.83398 25.5 -15.501s12 -11.167 14 -16.5zM269.001 682.001c6.66699 3.33301 15.1689 6.49609 25.502 9.49609s21.166 5.5 32.499 7.5s22.833 3.5 34.5 4.5
s21.834 1.5 30.501 1.5c34 0 58 -6 72 -18s21 -24.667 21 -38c0 -12.667 -5.66699 -26.167 -17 -40.5s-27 -27.166 -47 -38.499c21.333 -3.33301 36.333 -9.33301 45 -18s13 -20.334 13 -35.001c0 -21.333 -7.83301 -39.333 -23.5 -54s-35.5 -26.5 -59.5 -35.5
s-50 -15.667 -78 -20s-54.333 -6.5 -79 -6.5c-16 2.66699 -28.167 8.83398 -36.5 18.501s-12.5 21.167 -12.5 34.5c0 0.666992 0.166992 2.5 0.5 5.5s0.5 4.83301 0.5 5.5c8.66699 -1.33301 17.834 -2.66602 27.501 -3.99902s18.167 -2 25.5 -2
c17.333 0 36.166 1.5 56.499 4.5s39.166 7.16699 56.499 12.5s31.666 12.166 42.999 20.499s17 17.833 17 28.5c0 12.667 -12 21 -36 25c-11.333 -4 -22.166 -7 -32.499 -9s-18.5 -3 -24.5 -3c-10.667 0 -20 3.5 -28 10.5s-12 18.167 -12 33.5c16.667 0 34 1.16699 52 3.5
s34.833 6.33301 50.5 12s28.667 13.334 39 23.001s15.833 21.834 16.5 36.501c-4.66699 6.66699 -13.667 10 -27 10c-16.667 0 -35.834 -3.66699 -57.501 -11s-40.167 -16.666 -55.5 -27.999c-23.333 9.33301 -35 24 -35 44c0 4 0.666992 7.33301 2 10zM759.003 243.997
c16.667 -1.33301 31.8359 -4.33398 45.5029 -9.00098s24.5 -11.667 32.5 -21c-36.667 -36.667 -69 -74.334 -97 -113.001c5.33301 1.33301 10.333 2 15 2c6.66699 -4.66699 11 -10.667 13 -18l-47 -13c-23.333 -36 -42.333 -75.667 -57 -119
c-14.667 0.666992 -28.667 2 -42 4s-25 7.33301 -35 16c12 28.667 26.333 56.334 43 83.001c-19.333 0 -35.833 0.333008 -49.5 1s-26.334 2.33398 -38.001 5.00098s-22.834 6 -33.501 10s-22.334 9.66699 -35.001 17c30 23.333 57.833 49.5 83.5 78.5
s48.167 58.5 67.5 88.5c14.667 -3.33301 29.5 -7.5 44.5 -12.5s29.5 -12.167 43.5 -21.5l-39.5 -32.5l-40.5 -34.5l-37.5 -32.5c-11.667 -10.333 -21.5 -19.5 -29.5 -27.5c8 -1.33301 15.833 -2.33301 23.5 -3s15.167 -1 22.5 -1h20c6.66699 0 13.667 0.333008 21 1l52 76z
" />
    <glyph glyph-name="questiondown" unicode="&#xbf;" horiz-adv-x="472" 
d="M199 -363c-26 2 -51.166 8.66992 -75.499 20.0029s-45.833 25.666 -64.5 42.999s-33.667 37.333 -45 60s-17 46.334 -17 71.001c0 25.333 4.5 49 13.5 71s22.167 44.333 39.5 67s38.666 46.167 63.999 70.5l86 82.5c31.333 29.333 55 59.166 71 89.499s24 57.833 24 82.5
c0 3.33301 -0.166992 6.66602 -0.5 9.99902s-0.833008 7 -1.5 11c11.333 -0.666992 23.333 -3.33398 36 -8.00098s24.834 -10.834 36.501 -18.501s22 -16 31 -25s15.5 -18.167 19.5 -27.5c0 -15.333 -3.66699 -33.833 -11 -55.5s-18.5 -44.334 -33.5 -68.001
s-34.333 -47.5 -58 -71.5s-51.834 -45.667 -84.501 -65c-52.667 -31.333 -92 -61.666 -118 -90.999s-39 -55.666 -39 -78.999c0 -10.667 2.16699 -21 6.5 -31s9.83301 -19 16.5 -27s14.334 -14.5 23.001 -19.5s17.667 -7.5 27 -7.5c10 0 21.167 5 33.5 15
s23.833 22.333 34.5 37s19.667 30.667 27 48s11 33 11 47c0 8.66699 -1 14.667 -3 18c5.33301 1.33301 9.66602 2 12.999 2h10c12.667 0 25.667 -1.33301 39 -4s25.5 -6 36.5 -10s20.333 -8.83301 28 -14.5s12.5 -11.5 14.5 -17.5c-5.33301 -22 -14.833 -44.667 -28.5 -68
s-29.5 -44.833 -47.5 -64.5s-37 -36.167 -57 -49.5s-39 -21 -57 -23zM414.001 369.003c-8 0 -15.667 1.83301 -23 5.5s-13.833 8 -19.5 13s-10.167 10.333 -13.5 16s-5 10.167 -5 13.5c0 8 1 18.333 3 31s5 24.834 9 36.501s9 21.667 15 30s12.667 12.5 20 12.5
c18.667 0 37.5 -6.5 56.5 -19.5s33.167 -27.5 42.5 -43.5c-8 -8.66699 -15 -18.5 -21 -29.5s-12 -21.333 -18 -31s-12.667 -17.834 -20 -24.501s-16 -10 -26 -10z" />
    <glyph glyph-name="Agrave" unicode="&#xc0;" horiz-adv-x="642" 
d="M146 -76c-32 9.33301 -54.1699 18.6729 -66.5029 28.0059s-18.5 21 -18.5 35c0 10.667 3 25.667 9 45s14.833 42.166 26.5 68.499s25.667 55.5 42 87.5s34.833 66.333 55.5 103c-17.333 0.666992 -32.833 1.16699 -46.5 1.5s-24.834 0.5 -33.501 0.5
c4 10 15.333 18.667 34 26s43.334 13.666 74.001 18.999c26 43.333 53.833 84.666 83.5 123.999s59.5 75.5 89.5 108.5s60 62 90 87s58.667 44.833 86 59.5c0.666992 4.66699 1.16699 8.66699 1.5 12s0.5 5.66602 0.5 6.99902c9.33301 0 21.833 -2.33301 37.5 -7
s31 -10.334 46 -17.001s28.333 -13.5 40 -20.5s18.167 -12.833 19.5 -17.5c-22 -38.667 -43.667 -96.5 -65 -173.5s-39 -169.167 -53 -276.5c-3.33301 -26.667 -6.16602 -57 -8.49902 -91s-3.5 -72 -3.5 -114v-45c0 -15.333 0.666992 -31.333 2 -48
c-1.33301 -0.666992 -2.66602 -1 -3.99902 -1h-8c-9.33301 0 -20.166 1.5 -32.499 4.5s-24.333 6.66699 -36 11s-21.667 9.16602 -30 14.499s-13.5 10 -15.5 14c-0.666992 8.66699 -1 17.167 -1 25.5v26.5c0 41.333 1.5 83.333 4.5 126s8.16699 86.667 15.5 132
c-9.33301 0.666992 -21.666 1.5 -36.999 2.5s-32.5 1.83301 -51.5 2.5s-39.333 1.5 -61 2.5s-42.834 1.83301 -63.501 2.5c-16 -30 -31 -59.833 -45 -89.5s-26 -59.5 -36 -89.5c-11.333 -32 -20.5 -64 -27.5 -96s-11.5 -62 -13.5 -90zM531.997 525.007
c2.66699 9.33301 5.83496 22.167 9.50195 38.5s7.16699 33.5 10.5 51.5c-16.667 -6 -35.167 -17 -55.5 -33s-41.333 -35.833 -63 -59.5s-43.667 -50.334 -66 -80.001s-43.833 -61.167 -64.5 -94.5c56 4.66699 119.667 7.66699 191 9c5.33301 28 11.166 55.833 17.499 83.5
s13.166 55.834 20.499 84.501zM574.998 883.008c28 -24.667 58.665 -45.832 91.998 -63.499s65 -29.834 95 -36.501c-15.333 -12.667 -33.666 -19 -54.999 -19c-10.667 0 -21.667 0.833008 -33 2.5s-24.5 4.66699 -39.5 9s-32 10 -51 17s-41.167 15.833 -66.5 26.5
c0 6 1.66699 12.333 5 19s7.83301 13 13.5 19s11.834 11.333 18.501 16s13.667 8 21 10z" />
    <glyph glyph-name="Aacute" unicode="&#xc1;" horiz-adv-x="642" 
d="M146 -76c-32 9.33301 -54.1699 18.6729 -66.5029 28.0059s-18.5 21 -18.5 35c0 10.667 3 25.667 9 45s14.833 42.166 26.5 68.499s25.667 55.5 42 87.5s34.833 66.333 55.5 103c-17.333 0.666992 -32.833 1.16699 -46.5 1.5s-24.834 0.5 -33.501 0.5
c4 10 15.333 18.667 34 26s43.334 13.666 74.001 18.999c26 43.333 53.833 84.666 83.5 123.999s59.5 75.5 89.5 108.5s60 62 90 87s58.667 44.833 86 59.5c0.666992 4.66699 1.16699 8.66699 1.5 12s0.5 5.66602 0.5 6.99902c9.33301 0 21.833 -2.33301 37.5 -7
s31 -10.334 46 -17.001s28.333 -13.5 40 -20.5s18.167 -12.833 19.5 -17.5c-22 -38.667 -43.667 -96.5 -65 -173.5s-39 -169.167 -53 -276.5c-3.33301 -26.667 -6.16602 -57 -8.49902 -91s-3.5 -72 -3.5 -114v-45c0 -15.333 0.666992 -31.333 2 -48
c-1.33301 -0.666992 -2.66602 -1 -3.99902 -1h-8c-9.33301 0 -20.166 1.5 -32.499 4.5s-24.333 6.66699 -36 11s-21.667 9.16602 -30 14.499s-13.5 10 -15.5 14c-0.666992 8.66699 -1 17.167 -1 25.5v26.5c0 41.333 1.5 83.333 4.5 126s8.16699 86.667 15.5 132
c-9.33301 0.666992 -21.666 1.5 -36.999 2.5s-32.5 1.83301 -51.5 2.5s-39.333 1.5 -61 2.5s-42.834 1.83301 -63.501 2.5c-16 -30 -31 -59.833 -45 -89.5s-26 -59.5 -36 -89.5c-11.333 -32 -20.5 -64 -27.5 -96s-11.5 -62 -13.5 -90zM531.997 525.007
c2.66699 9.33301 5.83496 22.167 9.50195 38.5s7.16699 33.5 10.5 51.5c-16.667 -6 -35.167 -17 -55.5 -33s-41.333 -35.833 -63 -59.5s-43.667 -50.334 -66 -80.001s-43.833 -61.167 -64.5 -94.5c56 4.66699 119.667 7.66699 191 9c5.33301 28 11.166 55.833 17.499 83.5
s13.166 55.834 20.499 84.501zM754.998 883.008c14 -4 27.166 -12.6689 39.499 -26.002s18.5 -26 18.5 -38c-25.333 -10.667 -47.5 -19.5 -66.5 -26.5s-36 -12.667 -51 -17s-28.167 -7.33301 -39.5 -9s-22.333 -2.5 -33 -2.5c-21.333 0 -39.666 6.33301 -54.999 19
c30 6.66699 61.667 18.834 95 36.501s64 38.834 92 63.501z" />
    <glyph glyph-name="Acircumflex" unicode="&#xc2;" horiz-adv-x="642" 
d="M146 -76c-32 9.33301 -54.1699 18.6729 -66.5029 28.0059s-18.5 21 -18.5 35c0 10.667 3 25.667 9 45s14.833 42.166 26.5 68.499s25.667 55.5 42 87.5s34.833 66.333 55.5 103c-17.333 0.666992 -32.833 1.16699 -46.5 1.5s-24.834 0.5 -33.501 0.5
c4 10 15.333 18.667 34 26s43.334 13.666 74.001 18.999c26 43.333 53.833 84.666 83.5 123.999s59.5 75.5 89.5 108.5s60 62 90 87s58.667 44.833 86 59.5c0.666992 4.66699 1.16699 8.66699 1.5 12s0.5 5.66602 0.5 6.99902c9.33301 0 21.833 -2.33301 37.5 -7
s31 -10.334 46 -17.001s28.333 -13.5 40 -20.5s18.167 -12.833 19.5 -17.5c-22 -38.667 -43.667 -96.5 -65 -173.5s-39 -169.167 -53 -276.5c-3.33301 -26.667 -6.16602 -57 -8.49902 -91s-3.5 -72 -3.5 -114v-45c0 -15.333 0.666992 -31.333 2 -48
c-1.33301 -0.666992 -2.66602 -1 -3.99902 -1h-8c-9.33301 0 -20.166 1.5 -32.499 4.5s-24.333 6.66699 -36 11s-21.667 9.16602 -30 14.499s-13.5 10 -15.5 14c-0.666992 8.66699 -1 17.167 -1 25.5v26.5c0 41.333 1.5 83.333 4.5 126s8.16699 86.667 15.5 132
c-9.33301 0.666992 -21.666 1.5 -36.999 2.5s-32.5 1.83301 -51.5 2.5s-39.333 1.5 -61 2.5s-42.834 1.83301 -63.501 2.5c-16 -30 -31 -59.833 -45 -89.5s-26 -59.5 -36 -89.5c-11.333 -32 -20.5 -64 -27.5 -96s-11.5 -62 -13.5 -90zM531.997 525.007
c2.66699 9.33301 5.83496 22.167 9.50195 38.5s7.16699 33.5 10.5 51.5c-16.667 -6 -35.167 -17 -55.5 -33s-41.333 -35.833 -63 -59.5s-43.667 -50.334 -66 -80.001s-43.833 -61.167 -64.5 -94.5c56 4.66699 119.667 7.66699 191 9c5.33301 28 11.166 55.833 17.499 83.5
s13.166 55.834 20.499 84.501zM718.998 882.008c4.66699 -37.333 10.668 -65.6699 18.001 -85.0029s18.666 -33.666 33.999 -42.999c-1.33301 -0.666992 -4.33301 -1 -9 -1c-16.667 0 -33.834 5.16699 -51.501 15.5s-33.5 23.833 -47.5 40.5
c-18 -13.333 -37.333 -24.166 -58 -32.499s-38.667 -12.5 -54 -12.5c-10 0 -19.5 1.5 -28.5 4.5s-17.5 8.83301 -25.5 17.5c50.667 12.667 96.334 36.334 137.001 71.001c-1.33301 2.66699 -2.66602 6.66699 -3.99902 12c13.333 9.33301 33.666 14 60.999 14h17.5
c3.66699 0 7.16699 -0.333008 10.5 -1z" />
    <glyph glyph-name="Atilde" unicode="&#xc3;" horiz-adv-x="642" 
d="M146 -76c-32 9.33301 -54.1699 18.6729 -66.5029 28.0059s-18.5 21 -18.5 35c0 10.667 3 25.667 9 45s14.833 42.166 26.5 68.499s25.667 55.5 42 87.5s34.833 66.333 55.5 103c-17.333 0.666992 -32.833 1.16699 -46.5 1.5s-24.834 0.5 -33.501 0.5
c4 10 15.333 18.667 34 26s43.334 13.666 74.001 18.999c26 43.333 53.833 84.666 83.5 123.999s59.5 75.5 89.5 108.5s60 62 90 87s58.667 44.833 86 59.5c0.666992 4.66699 1.16699 8.66699 1.5 12s0.5 5.66602 0.5 6.99902c9.33301 0 21.833 -2.33301 37.5 -7
s31 -10.334 46 -17.001s28.333 -13.5 40 -20.5s18.167 -12.833 19.5 -17.5c-22 -38.667 -43.667 -96.5 -65 -173.5s-39 -169.167 -53 -276.5c-3.33301 -26.667 -6.16602 -57 -8.49902 -91s-3.5 -72 -3.5 -114v-45c0 -15.333 0.666992 -31.333 2 -48
c-1.33301 -0.666992 -2.66602 -1 -3.99902 -1h-8c-9.33301 0 -20.166 1.5 -32.499 4.5s-24.333 6.66699 -36 11s-21.667 9.16602 -30 14.499s-13.5 10 -15.5 14c-0.666992 8.66699 -1 17.167 -1 25.5v26.5c0 41.333 1.5 83.333 4.5 126s8.16699 86.667 15.5 132
c-9.33301 0.666992 -21.666 1.5 -36.999 2.5s-32.5 1.83301 -51.5 2.5s-39.333 1.5 -61 2.5s-42.834 1.83301 -63.501 2.5c-16 -30 -31 -59.833 -45 -89.5s-26 -59.5 -36 -89.5c-11.333 -32 -20.5 -64 -27.5 -96s-11.5 -62 -13.5 -90zM531.997 525.007
c2.66699 9.33301 5.83496 22.167 9.50195 38.5s7.16699 33.5 10.5 51.5c-16.667 -6 -35.167 -17 -55.5 -33s-41.333 -35.833 -63 -59.5s-43.667 -50.334 -66 -80.001s-43.833 -61.167 -64.5 -94.5c56 4.66699 119.667 7.66699 191 9c5.33301 28 11.166 55.833 17.499 83.5
s13.166 55.834 20.499 84.501zM483.998 853.008c31.333 -10.667 62.002 -16 92.002 -16c25.333 0 51.666 3.66699 78.999 11s58 19 92 35c8 -8 15 -20.333 21 -37s10.333 -31 13 -43c-30 -14 -57.667 -22.833 -83 -26.5s-49 -5.5 -71 -5.5
c-41.333 0 -74.333 7.83301 -99 23.5s-39.334 35.167 -44.001 58.5z" />
    <glyph glyph-name="Adieresis" unicode="&#xc4;" horiz-adv-x="642" 
d="M146 -76c-32 9.33301 -54.1699 18.6729 -66.5029 28.0059s-18.5 21 -18.5 35c0 10.667 3 25.667 9 45s14.833 42.166 26.5 68.499s25.667 55.5 42 87.5s34.833 66.333 55.5 103c-17.333 0.666992 -32.833 1.16699 -46.5 1.5s-24.834 0.5 -33.501 0.5
c4 10 15.333 18.667 34 26s43.334 13.666 74.001 18.999c26 43.333 53.833 84.666 83.5 123.999s59.5 75.5 89.5 108.5s60 62 90 87s58.667 44.833 86 59.5c0.666992 4.66699 1.16699 8.66699 1.5 12s0.5 5.66602 0.5 6.99902c9.33301 0 21.833 -2.33301 37.5 -7
s31 -10.334 46 -17.001s28.333 -13.5 40 -20.5s18.167 -12.833 19.5 -17.5c-22 -38.667 -43.667 -96.5 -65 -173.5s-39 -169.167 -53 -276.5c-3.33301 -26.667 -6.16602 -57 -8.49902 -91s-3.5 -72 -3.5 -114v-45c0 -15.333 0.666992 -31.333 2 -48
c-1.33301 -0.666992 -2.66602 -1 -3.99902 -1h-8c-9.33301 0 -20.166 1.5 -32.499 4.5s-24.333 6.66699 -36 11s-21.667 9.16602 -30 14.499s-13.5 10 -15.5 14c-0.666992 8.66699 -1 17.167 -1 25.5v26.5c0 41.333 1.5 83.333 4.5 126s8.16699 86.667 15.5 132
c-9.33301 0.666992 -21.666 1.5 -36.999 2.5s-32.5 1.83301 -51.5 2.5s-39.333 1.5 -61 2.5s-42.834 1.83301 -63.501 2.5c-16 -30 -31 -59.833 -45 -89.5s-26 -59.5 -36 -89.5c-11.333 -32 -20.5 -64 -27.5 -96s-11.5 -62 -13.5 -90zM531.997 525.007
c2.66699 9.33301 5.83496 22.167 9.50195 38.5s7.16699 33.5 10.5 51.5c-16.667 -6 -35.167 -17 -55.5 -33s-41.333 -35.833 -63 -59.5s-43.667 -50.334 -66 -80.001s-43.833 -61.167 -64.5 -94.5c56 4.66699 119.667 7.66699 191 9c5.33301 28 11.166 55.833 17.499 83.5
s13.166 55.834 20.499 84.501zM566.998 788.008c0 10 0.666016 20.499 1.99902 31.499s4 21 8 30s9.83301 16.667 17.5 23s17.834 9.83301 30.501 10.5c8.66699 -1.33301 20.5 -6.16602 35.5 -14.499s25.833 -18.166 32.5 -29.499l-8.5 -11
c-5.66699 -7.33301 -12.334 -15.333 -20.001 -24l-22 -25c-7 -8 -11.833 -13 -14.5 -15c-16.667 3.33301 -30.167 6.66602 -40.5 9.99902s-17.166 8 -20.499 14zM697.997 788.007c0 10.667 0.666016 21.499 1.99902 32.499s4 21 8 30s9.66699 16.5 17 22.5s17 9.33301 29 10
c4 0 9.16699 -1.33301 15.5 -4s12.833 -6 19.5 -10s13 -8.66699 19 -14s11 -10.666 15 -15.999c0 -0.666992 -2.83301 -4.66699 -8.5 -12l-19.5 -24.5c-7.33301 -9 -14.666 -17.5 -21.999 -25.5s-13 -12.667 -17 -14c-15.333 2 -27.833 5.33301 -37.5 10
s-16.5 9.66699 -20.5 15z" />
    <glyph glyph-name="Aring" unicode="&#xc5;" horiz-adv-x="644" 
d="M740 766c-9.33301 -14.667 -21.002 -26.8223 -35.002 -36.4893s-29.667 -15.834 -47 -18.501c15.333 -6.66699 28.666 -13.334 39.999 -20.001s17.666 -12.334 18.999 -17.001c-22 -38.667 -43.667 -96.5 -65 -173.5s-39 -169.167 -53 -276.5
c-3.33301 -26.667 -6.16602 -57 -8.49902 -91s-3.5 -72 -3.5 -114v-45c0 -15.333 0.666992 -31.333 2 -48c-1.33301 -0.666992 -2.66602 -1 -3.99902 -1h-8c-9.33301 0 -20.166 1.5 -32.499 4.5s-24.333 6.66699 -36 11s-21.667 9.16602 -30 14.499s-13.5 10 -15.5 14
c-0.666992 8.66699 -1 17.167 -1 25.5v26.5c0 41.333 1.5 83.333 4.5 126s8.16699 86.667 15.5 132c-9.33301 0.666992 -21.666 1.5 -36.999 2.5s-32.5 1.83301 -51.5 2.5s-39.333 1.5 -61 2.5s-42.834 1.83301 -63.501 2.5c-16 -30 -31 -59.833 -45 -89.5
s-26 -59.5 -36 -89.5c-11.333 -32 -20.5 -64 -27.5 -96s-11.5 -62 -13.5 -90c-32 9.33301 -54.167 18.666 -66.5 27.999s-18.5 21 -18.5 35c0 10.667 3 25.667 9 45s14.833 42.166 26.5 68.499s25.667 55.5 42 87.5s34.833 66.333 55.5 103
c-17.333 0.666992 -32.833 1.16699 -46.5 1.5s-24.834 0.5 -33.501 0.5c4 10 15.333 18.667 34 26s43.334 13.666 74.001 18.999c26.667 46.667 55.667 90.167 87 130.5s62.833 77.333 94.5 111s62 63.5 91 89.5s55.167 47.667 78.5 65c-10 7.33301 -18 16.166 -24 26.499
s-9 21.166 -9 32.499c0 13.333 3.33301 25.5 10 36.5s15.334 20.5 26.001 28.5s22.5 14.167 35.5 18.5s25.833 6.5 38.5 6.5c14 0 27 -2.16699 39 -6.5s22.5 -10 31.5 -17s16.167 -15.333 21.5 -25s8 -19.834 8 -30.501c0 -12.667 -3.66699 -25.334 -11 -38.001z
M532.998 525.012c2.66699 9.33301 5.83496 22.167 9.50195 38.5s7.16699 33.5 10.5 51.5c-16.667 -6 -35.167 -17 -55.5 -33s-41.333 -35.833 -63 -59.5s-43.667 -50.334 -66 -80.001s-43.833 -61.167 -64.5 -94.5c56 4.66699 119.667 7.66699 191 9
c5.33301 28 11.166 55.833 17.499 83.5s13.166 55.834 20.499 84.501zM708.999 813.013c0 10.667 -3.33301 20 -10 28s-16.334 12 -29.001 12c-7.33301 0 -15.166 -2 -23.499 -6s-16 -9.16699 -23 -15.5s-12.833 -14 -17.5 -23s-7 -18.5 -7 -28.5
c0 -12.667 2.66699 -23.5 8 -32.5s14 -13.5 26 -13.5s22.667 2.5 32 7.5s17.333 11.5 24 19.5s11.667 16.667 15 26s5 18 5 26z" />
    <glyph glyph-name="AE" unicode="&#xc6;" horiz-adv-x="914" 
d="M777 418c35.333 0 62.832 -6.00098 82.499 -18.001s29.5 -28.667 29.5 -50c0 -5.33301 -0.666992 -10.833 -2 -16.5s-3.33301 -10.5 -6 -14.5c-13.333 1.33301 -28.666 2.5 -45.999 3.5s-37.666 1.5 -60.999 1.5c-17.333 0 -36.666 -0.5 -57.999 -1.5
s-43.666 -2.16699 -66.999 -3.5c-16 -36 -30.5 -70.833 -43.5 -104.5s-24.167 -64.5 -33.5 -92.5s-16.666 -52.333 -21.999 -73s-8.33301 -36 -9 -46c54 11.333 108.5 21 163.5 29s112.833 14 173.5 18c7.33301 -11.333 13.5 -23.666 18.5 -36.999s7.5 -27.666 7.5 -42.999
v-13c0 -4.66699 -0.666992 -9.33398 -2 -14.001c-18.667 0.666992 -38.334 1.16699 -59.001 1.5s-47.667 0.5 -81 0.5c-22 0 -42.833 -0.5 -62.5 -1.5s-39.5 -2.5 -59.5 -4.5s-41.167 -4.66699 -63.5 -8s-47.5 -7.33301 -75.5 -12c-30.667 12 -60.334 41.333 -89.001 88
c11.333 24 27.166 60.5 47.499 109.5s45.833 114.167 76.5 195.5c-46.667 -3.33301 -91 -6.33301 -133 -9s-76 -4 -102 -4h-22c-15.333 -28.667 -29.833 -58.834 -43.5 -90.501s-26.5 -64.5 -38.5 -98.5c-11.333 -32 -20.5 -64 -27.5 -96s-11.5 -62 -13.5 -90
c-32 9.33301 -54.167 18.666 -66.5 27.999s-18.5 21 -18.5 35c0 8.66699 3.5 23.334 10.5 44.001s16.833 45.5 29.5 74.5s27.834 60.833 45.501 95.5s37.5 70.334 59.5 107.001c-41.333 9.33301 -69 25 -83 47c40.667 2 79.667 5 117 9
c28.667 44.667 59.167 88.334 91.5 131.001s65.666 80.667 99.999 114s69 60 104 80s69.167 30 102.5 30c18 0 36.5 -0.5 55.5 -1.5s37.5 -1.5 55.5 -1.5c28 0 55.667 1.16699 83 3.5s52 4.66602 74 6.99902s40.5 4.66602 55.5 6.99902s24.5 3.5 28.5 3.5
c15.333 0 29 -9.66699 41 -29s21 -45.333 27 -78c-8.66699 2.66699 -21 5.33398 -37 8.00098s-34.5 4.83398 -55.5 6.50098s-43.833 3 -68.5 4s-50 1.5 -76 1.5h-21.5c-7 0 -14.167 -0.333008 -21.5 -1l10 -14l-13 -20.5c-4.66699 -7.66699 -10.834 -19.334 -18.501 -35.001
l-30 -62.5l-46.5 -103c15.333 0.666992 30.333 1.5 45 2.5s28.667 1.5 42 1.5zM641.999 639.999c-54 -8 -108.998 -35.5 -164.998 -82.5s-108.333 -109.5 -157 -187.5c48 5.33301 92.5 10.5 133.5 15.5l115.5 14.5l26 70c7.33301 20 13.666 38.833 18.999 56.5
s10.166 35.5 14.499 53.5s8.83301 38 13.5 60z" />
    <glyph glyph-name="Ccedilla" unicode="&#xc7;" horiz-adv-x="605" 
d="M142 196c0 46.667 5.49805 92.4951 16.498 137.495s26.5 87.667 46.5 128s43.833 77.333 71.5 111s58 62.834 91 87.501s68.167 43.834 105.5 57.501s75.666 20.5 114.999 20.5c46 0 81.833 -9.66699 107.5 -29s38.5 -46.333 38.5 -81c0 -13.333 -1.83301 -27 -5.5 -41
s-9 -27.833 -16 -41.5s-15.167 -26.834 -24.5 -39.501s-19.666 -23.667 -30.999 -33c-17.333 2.66699 -32.333 10.5 -45 23.5s-20.667 28.167 -24 45.5c23.333 19.333 41.833 39.5 55.5 60.5s20.5 40.167 20.5 57.5c0 29.333 -18.333 44 -55 44
c-15.333 0 -31.166 -3.16699 -47.499 -9.5s-32.833 -15.166 -49.5 -26.499s-32.834 -25 -48.501 -41s-30.167 -33.667 -43.5 -53c-92.667 -133.333 -139 -269.666 -139 -408.999c0 -49.333 7.66699 -89 23 -119s35.666 -47.667 60.999 -53c28.667 6.66699 65 25 109 55
s92 69 144 117c6.66699 -6.66699 10.667 -13.667 12 -21c-19.333 -25.333 -39.333 -49.666 -60 -72.999s-41.167 -44.666 -61.5 -63.999s-40.333 -36.333 -60 -51s-37.834 -26 -54.501 -34c-9.33301 -11.333 -17.166 -22.5 -23.499 -33.5s-11.166 -21.167 -14.499 -30.5
c6 3.33301 13.5 6.5 22.5 9.5s18.167 5.83301 27.5 8.5s18.5 4.66699 27.5 6s16.5 2 22.5 2c2.66699 0 7.33398 -2.16699 14.001 -6.5s13.167 -9.16602 19.5 -14.499s12 -10.666 17 -15.999s7.5 -9.33301 7.5 -12c0 -4.66699 -4 -12 -12 -22s-18.167 -21 -30.5 -33
s-26.166 -24.667 -41.499 -38s-30 -25.333 -44 -36s-26.833 -19.5 -38.5 -26.5s-20.167 -10.5 -25.5 -10.5c-1.33301 0 -3.16602 1.5 -5.49902 4.5s-4.66602 6.5 -6.99902 10.5s-4.33301 8 -6 12s-2.5 7 -2.5 9c15.333 12.667 28.666 24.334 39.999 35.001
s21.666 21 30.999 31s18 20.667 26 32s16.333 24 25 38l-23 -5.5c-10 -2.33301 -20.5 -5.33301 -31.5 -9l-33 -11l-28.5 -9.5c-2 1.33301 -3.66699 3.16602 -5 5.49902s-2.33301 4.5 -3 6.5c3.33301 9.33301 10.833 24 22.5 44s25.167 40.667 40.5 62
c-72.667 7.33301 -127.5 33.666 -164.5 78.999s-55.5 109.666 -55.5 192.999z" />
    <glyph glyph-name="Egrave" unicode="&#xc8;" horiz-adv-x="609" 
d="M514 426c22 0 39.1748 -5.99902 51.5078 -17.999s18.5 -28.667 18.5 -50c0 -5.33301 -0.5 -10.833 -1.5 -16.5s-2.16699 -10.5 -3.5 -14.5c-8.66699 1.33301 -18.334 2.5 -29.001 3.5s-23.334 1.5 -38.001 1.5c-28.667 0 -57.667 -2.5 -87 -7.5
s-57.333 -9.16699 -84 -12.5c-15.333 -35.333 -29.333 -69.5 -42 -102.5s-23.5 -63.167 -32.5 -90.5s-16 -51 -21 -71s-7.83301 -35 -8.5 -45c54 11.333 108.5 21 163.5 29s112.833 14 173.5 18c7.33301 -11.333 13.5 -23.666 18.5 -36.999s7.5 -27.666 7.5 -42.999v-13
c0 -4.66699 -0.666992 -9.33398 -2 -14.001c-18.667 0.666992 -38.334 1.16699 -59.001 1.5s-47.667 0.5 -81 0.5c-22 0 -42.833 -0.5 -62.5 -1.5s-39.5 -2.5 -59.5 -4.5s-41.167 -4.66699 -63.5 -8s-47.5 -7.33301 -75.5 -12c-30.667 12 -60.334 41.333 -89.001 88
c11.333 24 27.166 60.5 47.499 109.5l77.5 196.5c-30 9.33301 -49.667 26 -59 50c3.33301 3.33301 13 7.5 29 12.5s35.667 10.167 59 15.5l25.5 68c7 19.333 13.167 37.5 18.5 54.5s10.166 33.667 14.499 50s8.5 34.166 12.5 53.499
c-23.333 1.33301 -41.666 7.83301 -54.999 19.5s-20 26.834 -20 45.501c0 5.33301 0.833008 11.666 2.5 18.999s3.5 13.666 5.5 18.999c13.333 -2 26.166 -3.33301 38.499 -4s28.5 -1 48.5 -1c42 0 81.333 1.16699 118 3.5s69.834 4.83301 99.501 7.5
s55.167 5.16699 76.5 7.5s37.666 3.5 48.999 3.5c15.333 0 29 -8 41 -24s21 -38.667 27 -68c-20.667 2 -37.5 3.33301 -50.5 4s-24.5 1 -34.5 1c-36.667 0 -70.167 -1.83301 -100.5 -5.5s-59.5 -7.5 -87.5 -11.5c-4 -6 -8.5 -13.667 -13.5 -23s-11.5 -22.333 -19.5 -39
l-29.5 -63l-42.5 -95c25.333 4 49.166 7.16699 71.499 9.5s41.166 3.5 56.499 3.5zM454.008 883.001c28 -24.667 58.665 -45.832 91.998 -63.499s65 -29.834 95 -36.501c-15.333 -12.667 -33.666 -19 -54.999 -19c-10.667 0 -21.667 0.833008 -33 2.5s-24.5 4.66699 -39.5 9
s-32 10 -51 17s-41.167 15.833 -66.5 26.5c0 6 1.66699 12.333 5 19s7.83301 13 13.5 19s11.834 11.333 18.501 16s13.667 8 21 10z" />
    <glyph glyph-name="Eacute" unicode="&#xc9;" horiz-adv-x="609" 
d="M514 426c22 0 39.1748 -5.99902 51.5078 -17.999s18.5 -28.667 18.5 -50c0 -5.33301 -0.5 -10.833 -1.5 -16.5s-2.16699 -10.5 -3.5 -14.5c-8.66699 1.33301 -18.334 2.5 -29.001 3.5s-23.334 1.5 -38.001 1.5c-28.667 0 -57.667 -2.5 -87 -7.5
s-57.333 -9.16699 -84 -12.5c-15.333 -35.333 -29.333 -69.5 -42 -102.5s-23.5 -63.167 -32.5 -90.5s-16 -51 -21 -71s-7.83301 -35 -8.5 -45c54 11.333 108.5 21 163.5 29s112.833 14 173.5 18c7.33301 -11.333 13.5 -23.666 18.5 -36.999s7.5 -27.666 7.5 -42.999v-13
c0 -4.66699 -0.666992 -9.33398 -2 -14.001c-18.667 0.666992 -38.334 1.16699 -59.001 1.5s-47.667 0.5 -81 0.5c-22 0 -42.833 -0.5 -62.5 -1.5s-39.5 -2.5 -59.5 -4.5s-41.167 -4.66699 -63.5 -8s-47.5 -7.33301 -75.5 -12c-30.667 12 -60.334 41.333 -89.001 88
c11.333 24 27.166 60.5 47.499 109.5l77.5 196.5c-30 9.33301 -49.667 26 -59 50c3.33301 3.33301 13 7.5 29 12.5s35.667 10.167 59 15.5l25.5 68c7 19.333 13.167 37.5 18.5 54.5s10.166 33.667 14.499 50s8.5 34.166 12.5 53.499
c-23.333 1.33301 -41.666 7.83301 -54.999 19.5s-20 26.834 -20 45.501c0 5.33301 0.833008 11.666 2.5 18.999s3.5 13.666 5.5 18.999c13.333 -2 26.166 -3.33301 38.499 -4s28.5 -1 48.5 -1c42 0 81.333 1.16699 118 3.5s69.834 4.83301 99.501 7.5
s55.167 5.16699 76.5 7.5s37.666 3.5 48.999 3.5c15.333 0 29 -8 41 -24s21 -38.667 27 -68c-20.667 2 -37.5 3.33301 -50.5 4s-24.5 1 -34.5 1c-36.667 0 -70.167 -1.83301 -100.5 -5.5s-59.5 -7.5 -87.5 -11.5c-4 -6 -8.5 -13.667 -13.5 -23s-11.5 -22.333 -19.5 -39
l-29.5 -63l-42.5 -95c25.333 4 49.166 7.16699 71.499 9.5s41.166 3.5 56.499 3.5zM634.008 883.001c14 -4 27.166 -12.6689 39.499 -26.002s18.5 -26 18.5 -38c-25.333 -10.667 -47.5 -19.5 -66.5 -26.5s-36 -12.667 -51 -17s-28.167 -7.33301 -39.5 -9
s-22.333 -2.5 -33 -2.5c-21.333 0 -39.666 6.33301 -54.999 19c30 6.66699 61.667 18.834 95 36.501s64 38.834 92 63.501z" />
    <glyph glyph-name="Ecircumflex" unicode="&#xca;" horiz-adv-x="609" 
d="M514 426c22 0 39.1748 -5.99902 51.5078 -17.999s18.5 -28.667 18.5 -50c0 -5.33301 -0.5 -10.833 -1.5 -16.5s-2.16699 -10.5 -3.5 -14.5c-8.66699 1.33301 -18.334 2.5 -29.001 3.5s-23.334 1.5 -38.001 1.5c-28.667 0 -57.667 -2.5 -87 -7.5
s-57.333 -9.16699 -84 -12.5c-15.333 -35.333 -29.333 -69.5 -42 -102.5s-23.5 -63.167 -32.5 -90.5s-16 -51 -21 -71s-7.83301 -35 -8.5 -45c54 11.333 108.5 21 163.5 29s112.833 14 173.5 18c7.33301 -11.333 13.5 -23.666 18.5 -36.999s7.5 -27.666 7.5 -42.999v-13
c0 -4.66699 -0.666992 -9.33398 -2 -14.001c-18.667 0.666992 -38.334 1.16699 -59.001 1.5s-47.667 0.5 -81 0.5c-22 0 -42.833 -0.5 -62.5 -1.5s-39.5 -2.5 -59.5 -4.5s-41.167 -4.66699 -63.5 -8s-47.5 -7.33301 -75.5 -12c-30.667 12 -60.334 41.333 -89.001 88
c11.333 24 27.166 60.5 47.499 109.5l77.5 196.5c-30 9.33301 -49.667 26 -59 50c3.33301 3.33301 13 7.5 29 12.5s35.667 10.167 59 15.5l25.5 68c7 19.333 13.167 37.5 18.5 54.5s10.166 33.667 14.499 50s8.5 34.166 12.5 53.499
c-23.333 1.33301 -41.666 7.83301 -54.999 19.5s-20 26.834 -20 45.501c0 5.33301 0.833008 11.666 2.5 18.999s3.5 13.666 5.5 18.999c13.333 -2 26.166 -3.33301 38.499 -4s28.5 -1 48.5 -1c42 0 81.333 1.16699 118 3.5s69.834 4.83301 99.501 7.5
s55.167 5.16699 76.5 7.5s37.666 3.5 48.999 3.5c15.333 0 29 -8 41 -24s21 -38.667 27 -68c-20.667 2 -37.5 3.33301 -50.5 4s-24.5 1 -34.5 1c-36.667 0 -70.167 -1.83301 -100.5 -5.5s-59.5 -7.5 -87.5 -11.5c-4 -6 -8.5 -13.667 -13.5 -23s-11.5 -22.333 -19.5 -39
l-29.5 -63l-42.5 -95c25.333 4 49.166 7.16699 71.499 9.5s41.166 3.5 56.499 3.5zM598.008 882.001c4.66699 -37.333 10.668 -65.6699 18.001 -85.0029s18.666 -33.666 33.999 -42.999c-1.33301 -0.666992 -4.33301 -1 -9 -1c-16.667 0 -33.834 5.16699 -51.501 15.5
s-33.5 23.833 -47.5 40.5c-18 -13.333 -37.333 -24.166 -58 -32.499s-38.667 -12.5 -54 -12.5c-10 0 -19.5 1.5 -28.5 4.5s-17.5 8.83301 -25.5 17.5c50.667 12.667 96.334 36.334 137.001 71.001c-1.33301 2.66699 -2.66602 6.66699 -3.99902 12
c13.333 9.33301 33.666 14 60.999 14h17.5c3.66699 0 7.16699 -0.333008 10.5 -1z" />
    <glyph glyph-name="Edieresis" unicode="&#xcb;" horiz-adv-x="609" 
d="M514 426c22 0 39.1748 -5.99902 51.5078 -17.999s18.5 -28.667 18.5 -50c0 -5.33301 -0.5 -10.833 -1.5 -16.5s-2.16699 -10.5 -3.5 -14.5c-8.66699 1.33301 -18.334 2.5 -29.001 3.5s-23.334 1.5 -38.001 1.5c-28.667 0 -57.667 -2.5 -87 -7.5
s-57.333 -9.16699 -84 -12.5c-15.333 -35.333 -29.333 -69.5 -42 -102.5s-23.5 -63.167 -32.5 -90.5s-16 -51 -21 -71s-7.83301 -35 -8.5 -45c54 11.333 108.5 21 163.5 29s112.833 14 173.5 18c7.33301 -11.333 13.5 -23.666 18.5 -36.999s7.5 -27.666 7.5 -42.999v-13
c0 -4.66699 -0.666992 -9.33398 -2 -14.001c-18.667 0.666992 -38.334 1.16699 -59.001 1.5s-47.667 0.5 -81 0.5c-22 0 -42.833 -0.5 -62.5 -1.5s-39.5 -2.5 -59.5 -4.5s-41.167 -4.66699 -63.5 -8s-47.5 -7.33301 -75.5 -12c-30.667 12 -60.334 41.333 -89.001 88
c11.333 24 27.166 60.5 47.499 109.5l77.5 196.5c-30 9.33301 -49.667 26 -59 50c3.33301 3.33301 13 7.5 29 12.5s35.667 10.167 59 15.5l25.5 68c7 19.333 13.167 37.5 18.5 54.5s10.166 33.667 14.499 50s8.5 34.166 12.5 53.499
c-23.333 1.33301 -41.666 7.83301 -54.999 19.5s-20 26.834 -20 45.501c0 5.33301 0.833008 11.666 2.5 18.999s3.5 13.666 5.5 18.999c13.333 -2 26.166 -3.33301 38.499 -4s28.5 -1 48.5 -1c42 0 81.333 1.16699 118 3.5s69.834 4.83301 99.501 7.5
s55.167 5.16699 76.5 7.5s37.666 3.5 48.999 3.5c15.333 0 29 -8 41 -24s21 -38.667 27 -68c-20.667 2 -37.5 3.33301 -50.5 4s-24.5 1 -34.5 1c-36.667 0 -70.167 -1.83301 -100.5 -5.5s-59.5 -7.5 -87.5 -11.5c-4 -6 -8.5 -13.667 -13.5 -23s-11.5 -22.333 -19.5 -39
l-29.5 -63l-42.5 -95c25.333 4 49.166 7.16699 71.499 9.5s41.166 3.5 56.499 3.5zM446.008 788.001c0 10 0.666016 20.499 1.99902 31.499s4 21 8 30s9.83301 16.667 17.5 23s17.834 9.83301 30.501 10.5c8.66699 -1.33301 20.5 -6.16602 35.5 -14.499
s25.833 -18.166 32.5 -29.499l-8.5 -11c-5.66699 -7.33301 -12.334 -15.333 -20.001 -24l-22 -25c-7 -8 -11.833 -13 -14.5 -15c-16.667 3.33301 -30.167 6.66602 -40.5 9.99902s-17.166 8 -20.499 14zM577.007 788c0 10.667 0.666016 21.499 1.99902 32.499s4 21 8 30
s9.66699 16.5 17 22.5s17 9.33301 29 10c4 0 9.16699 -1.33301 15.5 -4s12.833 -6 19.5 -10s13 -8.66699 19 -14s11 -10.666 15 -15.999c0 -0.666992 -2.83301 -4.66699 -8.5 -12l-19.5 -24.5c-7.33301 -9 -14.666 -17.5 -21.999 -25.5s-13 -12.667 -17 -14
c-15.333 2 -27.833 5.33301 -37.5 10s-16.5 9.66699 -20.5 15z" />
    <glyph glyph-name="Igrave" unicode="&#xcc;" horiz-adv-x="315" 
d="M131 57c0 24 3.83203 55.1699 11.499 93.5029s17.667 79.666 30 123.999s26.5 89.666 42.5 135.999s32.333 89.833 49 130.5s33 76.334 49 107.001s30.333 52.667 43 66c6.66699 -0.666992 15.5 -3.16699 26.5 -7.5s22.167 -9.5 33.5 -15.5s21.666 -12.5 30.999 -19.5
s15.333 -13.5 18 -19.5c-19.333 -17.333 -38.5 -43.5 -57.5 -78.5s-37.333 -74.833 -55 -119.5s-34.167 -91.834 -49.5 -141.501s-28.666 -97.834 -39.999 -144.501s-20.166 -90 -26.499 -130s-9.5 -72.333 -9.5 -97c0 -11.333 1 -18.333 3 -21
c-14.667 0.666992 -25.334 3.16699 -32.001 7.5s-11.834 9 -15.501 14s-7 10 -10 15s-7.5 8.83301 -13.5 11.5c-4.66699 2 -8.66699 6.66699 -12 14s-6.16602 15.5 -8.49902 24.5s-4.16602 18.167 -5.49902 27.5s-2 17 -2 23zM378.999 883.003
c28 -24.667 58.665 -45.832 91.998 -63.499s65 -29.834 95 -36.501c-15.333 -12.667 -33.666 -19 -54.999 -19c-10.667 0 -21.667 0.833008 -33 2.5s-24.5 4.66699 -39.5 9s-32 10 -51 17s-41.167 15.833 -66.5 26.5c0 6 1.66699 12.333 5 19s7.83301 13 13.5 19
s11.834 11.333 18.501 16s13.667 8 21 10z" />
    <glyph glyph-name="Iacute" unicode="&#xcd;" horiz-adv-x="315" 
d="M131 57c0 24 3.83203 55.1699 11.499 93.5029s17.667 79.666 30 123.999s26.5 89.666 42.5 135.999s32.333 89.833 49 130.5s33 76.334 49 107.001s30.333 52.667 43 66c6.66699 -0.666992 15.5 -3.16699 26.5 -7.5s22.167 -9.5 33.5 -15.5s21.666 -12.5 30.999 -19.5
s15.333 -13.5 18 -19.5c-19.333 -17.333 -38.5 -43.5 -57.5 -78.5s-37.333 -74.833 -55 -119.5s-34.167 -91.834 -49.5 -141.501s-28.666 -97.834 -39.999 -144.501s-20.166 -90 -26.499 -130s-9.5 -72.333 -9.5 -97c0 -11.333 1 -18.333 3 -21
c-14.667 0.666992 -25.334 3.16699 -32.001 7.5s-11.834 9 -15.501 14s-7 10 -10 15s-7.5 8.83301 -13.5 11.5c-4.66699 2 -8.66699 6.66699 -12 14s-6.16602 15.5 -8.49902 24.5s-4.16602 18.167 -5.49902 27.5s-2 17 -2 23zM558.999 883.003
c14 -4 27.166 -12.6689 39.499 -26.002s18.5 -26 18.5 -38c-25.333 -10.667 -47.5 -19.5 -66.5 -26.5s-36 -12.667 -51 -17s-28.167 -7.33301 -39.5 -9s-22.333 -2.5 -33 -2.5c-21.333 0 -39.666 6.33301 -54.999 19c30 6.66699 61.667 18.834 95 36.501
s64 38.834 92 63.501z" />
    <glyph glyph-name="Icircumflex" unicode="&#xce;" horiz-adv-x="315" 
d="M131 57c0 24 3.83203 55.1699 11.499 93.5029s17.667 79.666 30 123.999s26.5 89.666 42.5 135.999s32.333 89.833 49 130.5s33 76.334 49 107.001s30.333 52.667 43 66c6.66699 -0.666992 15.5 -3.16699 26.5 -7.5s22.167 -9.5 33.5 -15.5s21.666 -12.5 30.999 -19.5
s15.333 -13.5 18 -19.5c-19.333 -17.333 -38.5 -43.5 -57.5 -78.5s-37.333 -74.833 -55 -119.5s-34.167 -91.834 -49.5 -141.501s-28.666 -97.834 -39.999 -144.501s-20.166 -90 -26.499 -130s-9.5 -72.333 -9.5 -97c0 -11.333 1 -18.333 3 -21
c-14.667 0.666992 -25.334 3.16699 -32.001 7.5s-11.834 9 -15.501 14s-7 10 -10 15s-7.5 8.83301 -13.5 11.5c-4.66699 2 -8.66699 6.66699 -12 14s-6.16602 15.5 -8.49902 24.5s-4.16602 18.167 -5.49902 27.5s-2 17 -2 23zM522.999 882.003
c4.66699 -37.333 10.668 -65.6699 18.001 -85.0029s18.666 -33.666 33.999 -42.999c-1.33301 -0.666992 -4.33301 -1 -9 -1c-16.667 0 -33.834 5.16699 -51.501 15.5s-33.5 23.833 -47.5 40.5c-18 -13.333 -37.333 -24.166 -58 -32.499s-38.667 -12.5 -54 -12.5
c-10 0 -19.5 1.5 -28.5 4.5s-17.5 8.83301 -25.5 17.5c50.667 12.667 96.334 36.334 137.001 71.001c-1.33301 2.66699 -2.66602 6.66699 -3.99902 12c13.333 9.33301 33.666 14 60.999 14h17.5c3.66699 0 7.16699 -0.333008 10.5 -1z" />
    <glyph glyph-name="Idieresis" unicode="&#xcf;" horiz-adv-x="315" 
d="M131 57c0 24 3.83203 55.1699 11.499 93.5029s17.667 79.666 30 123.999s26.5 89.666 42.5 135.999s32.333 89.833 49 130.5s33 76.334 49 107.001s30.333 52.667 43 66c6.66699 -0.666992 15.5 -3.16699 26.5 -7.5s22.167 -9.5 33.5 -15.5s21.666 -12.5 30.999 -19.5
s15.333 -13.5 18 -19.5c-19.333 -17.333 -38.5 -43.5 -57.5 -78.5s-37.333 -74.833 -55 -119.5s-34.167 -91.834 -49.5 -141.501s-28.666 -97.834 -39.999 -144.501s-20.166 -90 -26.499 -130s-9.5 -72.333 -9.5 -97c0 -11.333 1 -18.333 3 -21
c-14.667 0.666992 -25.334 3.16699 -32.001 7.5s-11.834 9 -15.501 14s-7 10 -10 15s-7.5 8.83301 -13.5 11.5c-4.66699 2 -8.66699 6.66699 -12 14s-6.16602 15.5 -8.49902 24.5s-4.16602 18.167 -5.49902 27.5s-2 17 -2 23zM370.999 788.003
c0 10 0.666016 20.499 1.99902 31.499s4 21 8 30s9.83301 16.667 17.5 23s17.834 9.83301 30.501 10.5c8.66699 -1.33301 20.5 -6.16602 35.5 -14.499s25.833 -18.166 32.5 -29.499l-8.5 -11c-5.66699 -7.33301 -12.334 -15.333 -20.001 -24l-22 -25
c-7 -8 -11.833 -13 -14.5 -15c-16.667 3.33301 -30.167 6.66602 -40.5 9.99902s-17.166 8 -20.499 14zM501.998 788.002c0 10.667 0.666016 21.499 1.99902 32.499s4 21 8 30s9.66699 16.5 17 22.5s17 9.33301 29 10c4 0 9.16699 -1.33301 15.5 -4s12.833 -6 19.5 -10
s13 -8.66699 19 -14s11 -10.666 15 -15.999c0 -0.666992 -2.83301 -4.66699 -8.5 -12l-19.5 -24.5c-7.33301 -9 -14.666 -17.5 -21.999 -25.5s-13 -12.667 -17 -14c-15.333 2 -27.833 5.33301 -37.5 10s-16.5 9.66699 -20.5 15z" />
    <glyph glyph-name="Eth" unicode="&#xd0;" horiz-adv-x="778" 
d="M168 52c11.333 25.333 24.998 57.8262 40.998 97.4932l50 128.5c-17.333 1.33301 -33.666 2.83301 -48.999 4.5s-29.666 3.83398 -42.999 6.50098c1.33301 6.66699 2.16602 14.667 2.49902 24s0.5 23.333 0.5 42c18 -1.33301 36.333 -2.16602 55 -2.49902
s39.334 -0.5 62.001 -0.5l36.5 97.5l32.5 90l26 74l17 51.5c-42 -17.333 -78 -43.666 -108 -78.999s-52.667 -79.666 -68 -132.999c-15.333 5.33301 -29.333 14.833 -42 28.5s-21 30.834 -25 51.501c6.66699 30.667 19.167 58.667 37.5 84s41.5 47 69.5 65
s60.333 31.833 97 41.5s76 14.5 118 14.5c53.333 0 102.333 -7.83301 147 -23.5s83 -37.5 115 -65.5s57 -61.667 75 -101s27 -83 27 -131c0 -65.333 -12 -127.666 -36 -186.999s-56.5 -111.666 -97.5 -156.999s-88.5 -81.5 -142.5 -108.5s-110.667 -40.5 -170 -40.5
c-54.667 0 -101.5 10.833 -140.5 32.5s-68.167 53.5 -87.5 95.5zM520.998 687.993c-33.333 0 -64.9941 -4.66602 -94.9941 -13.999c29.333 -10.667 53.666 -21.834 72.999 -33.501s32.666 -20.834 39.999 -27.501c-4.66699 -6.66699 -11.5 -18.167 -20.5 -34.5l-31.5 -58.5
l-38.5 -76l-41.5 -87c36 4 71.333 9 106 15c5.33301 -8.66699 10.333 -21.834 15 -39.501s7 -33.5 7 -47.5c-53.333 -6 -108 -9 -164 -9c-31.333 -70.667 -53.833 -126.667 -67.5 -168s-20.5 -70.666 -20.5 -87.999c9.33301 -3.33301 20.666 -5.66602 33.999 -6.99902
s27.666 -2 42.999 -2c54 0 105.167 12.5 153.5 37.5s90.666 58.5 126.999 100.5s65 90.833 86 146.5s31.5 114.167 31.5 175.5c0 68.667 -21.333 122 -64 160s-100.334 57 -173.001 57z" />
    <glyph glyph-name="Ntilde" unicode="&#xd1;" horiz-adv-x="683" 
d="M190 -76c-38 11.333 -63.6689 22.168 -77.002 32.501s-20 24.5 -20 42.5c0 20 4.66699 48.167 14 84.5s21.5 76.833 36.5 121.5s32.167 91.334 51.5 140.001s39 95.334 59 140.001s39.5 85.5 58.5 122.5s35.833 65.833 50.5 86.5l-7 42c9.33301 0 22.333 -2.33301 39 -7
s33.5 -10.334 50.5 -17.001s32 -13.5 45 -20.5s20.167 -12.833 21.5 -17.5c-3.33301 -16 -6 -40.167 -8 -72.5s-3 -66.833 -3 -103.5c0 -72.667 2.83301 -143.834 8.5 -213.501s18.834 -140.5 39.501 -212.5c10.667 53.333 22.167 106.5 34.5 159.5
s25.166 103.667 38.499 152s26.666 93.166 39.999 134.499s26.166 77.5 38.499 108.5s23.833 55.333 34.5 73s20.334 27.167 29.001 28.5c7.33301 -1.33301 15.333 -4.16602 24 -8.49902s17 -9.5 25 -15.5s15.333 -12.667 22 -20s12 -14.666 16 -21.999
c-21.333 -8.66699 -42.5 -29 -63.5 -61s-41 -70.833 -60 -116.5s-36.667 -95.167 -53 -148.5s-30.666 -105.833 -42.999 -157.5s-22 -99.5 -29 -143.5s-10.833 -79.333 -11.5 -106c0 -1.33301 0.333008 -2.33301 1 -3c-2 -0.666992 -4.16699 -1 -6.5 -1h-6.5
c-30.667 0 -57.834 3.83301 -81.501 11.5s-39.167 18.5 -46.5 32.5c-14 56 -25.667 110 -35 162s-17.166 104 -23.499 156s-11.333 104.5 -15 157.5s-6.5 108.5 -8.5 166.5c-12.667 -20 -26 -46.167 -40 -78.5s-27.667 -67.833 -41 -106.5s-26.166 -79.334 -38.499 -122.001
s-23.166 -84.334 -32.499 -125.001s-16.666 -79.167 -21.999 -115.5s-8 -67.833 -8 -94.5c0 -14 0.166992 -24 0.5 -30s1.16602 -11 2.49902 -15zM442.998 853.002c31.333 -10.667 62.002 -16 92.002 -16c25.333 0 51.666 3.66699 78.999 11s58 19 92 35
c8 -8 15 -20.333 21 -37s10.333 -31 13 -43c-30 -14 -57.667 -22.833 -83 -26.5s-49 -5.5 -71 -5.5c-41.333 0 -74.333 7.83301 -99 23.5s-39.334 35.167 -44.001 58.5z" />
    <glyph glyph-name="Ograve" unicode="&#xd2;" 
d="M562 728c12.667 -5.33301 25.6689 -12.168 39.002 -20.501s25.666 -16.833 36.999 -25.5s20.833 -17.167 28.5 -25.5s11.834 -15.166 12.501 -20.499c-11.333 2.66699 -22.666 4.5 -33.999 5.5s-21.666 1.5 -30.999 1.5c-30 0 -59.833 -7.33301 -89.5 -22
s-57.834 -34.667 -84.501 -60s-51.334 -55 -74.001 -89s-42.167 -70.333 -58.5 -109s-29.166 -78.667 -38.499 -120s-14 -82 -14 -122c0 -52 8.66699 -90.667 26 -116s42.666 -38 75.999 -38c16 0 33.333 3.16699 52 9.5s37.667 15.166 57 26.499s38.333 25 57 41
s36 33.667 52 53c23.333 28 44.333 59.833 63 95.5s34.5 73.5 47.5 113.5s23 81.167 30 123.5s10.5 83.833 10.5 124.5c0 16 -0.333008 29.5 -1 40.5s-1.5 20.333 -2.5 28s-1.83301 13.834 -2.5 18.501s-1.33398 8.66699 -2.00098 12c8 -4 16.833 -8.83301 26.5 -14.5
s18.667 -14 27 -25s15.333 -25.5 21 -43.5s8.5 -41.333 8.5 -70c0 -46.667 -5.5 -92.5 -16.5 -137.5s-26.333 -87.833 -46 -128.5s-42.834 -78.667 -69.501 -114s-55.334 -66.333 -86.001 -93c-40 -35.333 -82.667 -62.666 -128 -81.999s-89 -29 -131 -29
c-61.333 0 -108.166 19.5 -140.499 58.5s-48.5 96.5 -48.5 172.5c0 40.667 4.5 83.667 13.5 129s21.667 90 38 134s35.833 85.833 58.5 125.5s47.5 74.667 74.5 105s56 54.5 87 72.5s62.833 27 95.5 27c10.667 0 20.667 -0.833008 30 -2.5s19.333 -4.83398 30 -9.50098z
M606.002 882.998c28 -24.667 58.665 -45.832 91.998 -63.499s65 -29.834 95 -36.501c-15.333 -12.667 -33.666 -19 -54.999 -19c-10.667 0 -21.667 0.833008 -33 2.5s-24.5 4.66699 -39.5 9s-32 10 -51 17s-41.167 15.833 -66.5 26.5c0 6 1.66699 12.333 5 19
s7.83301 13 13.5 19s11.834 11.333 18.501 16s13.667 8 21 10z" />
    <glyph glyph-name="Oacute" unicode="&#xd3;" 
d="M562 728c12.667 -5.33301 25.6689 -12.168 39.002 -20.501s25.666 -16.833 36.999 -25.5s20.833 -17.167 28.5 -25.5s11.834 -15.166 12.501 -20.499c-11.333 2.66699 -22.666 4.5 -33.999 5.5s-21.666 1.5 -30.999 1.5c-30 0 -59.833 -7.33301 -89.5 -22
s-57.834 -34.667 -84.501 -60s-51.334 -55 -74.001 -89s-42.167 -70.333 -58.5 -109s-29.166 -78.667 -38.499 -120s-14 -82 -14 -122c0 -52 8.66699 -90.667 26 -116s42.666 -38 75.999 -38c16 0 33.333 3.16699 52 9.5s37.667 15.166 57 26.499s38.333 25 57 41
s36 33.667 52 53c23.333 28 44.333 59.833 63 95.5s34.5 73.5 47.5 113.5s23 81.167 30 123.5s10.5 83.833 10.5 124.5c0 16 -0.333008 29.5 -1 40.5s-1.5 20.333 -2.5 28s-1.83301 13.834 -2.5 18.501s-1.33398 8.66699 -2.00098 12c8 -4 16.833 -8.83301 26.5 -14.5
s18.667 -14 27 -25s15.333 -25.5 21 -43.5s8.5 -41.333 8.5 -70c0 -46.667 -5.5 -92.5 -16.5 -137.5s-26.333 -87.833 -46 -128.5s-42.834 -78.667 -69.501 -114s-55.334 -66.333 -86.001 -93c-40 -35.333 -82.667 -62.666 -128 -81.999s-89 -29 -131 -29
c-61.333 0 -108.166 19.5 -140.499 58.5s-48.5 96.5 -48.5 172.5c0 40.667 4.5 83.667 13.5 129s21.667 90 38 134s35.833 85.833 58.5 125.5s47.5 74.667 74.5 105s56 54.5 87 72.5s62.833 27 95.5 27c10.667 0 20.667 -0.833008 30 -2.5s19.333 -4.83398 30 -9.50098z
M786.002 882.998c14 -4 27.166 -12.6689 39.499 -26.002s18.5 -26 18.5 -38c-25.333 -10.667 -47.5 -19.5 -66.5 -26.5s-36 -12.667 -51 -17s-28.167 -7.33301 -39.5 -9s-22.333 -2.5 -33 -2.5c-21.333 0 -39.666 6.33301 -54.999 19c30 6.66699 61.667 18.834 95 36.501
s64 38.834 92 63.501z" />
    <glyph glyph-name="Ocircumflex" unicode="&#xd4;" 
d="M562 728c12.667 -5.33301 25.6689 -12.168 39.002 -20.501s25.666 -16.833 36.999 -25.5s20.833 -17.167 28.5 -25.5s11.834 -15.166 12.501 -20.499c-11.333 2.66699 -22.666 4.5 -33.999 5.5s-21.666 1.5 -30.999 1.5c-30 0 -59.833 -7.33301 -89.5 -22
s-57.834 -34.667 -84.501 -60s-51.334 -55 -74.001 -89s-42.167 -70.333 -58.5 -109s-29.166 -78.667 -38.499 -120s-14 -82 -14 -122c0 -52 8.66699 -90.667 26 -116s42.666 -38 75.999 -38c16 0 33.333 3.16699 52 9.5s37.667 15.166 57 26.499s38.333 25 57 41
s36 33.667 52 53c23.333 28 44.333 59.833 63 95.5s34.5 73.5 47.5 113.5s23 81.167 30 123.5s10.5 83.833 10.5 124.5c0 16 -0.333008 29.5 -1 40.5s-1.5 20.333 -2.5 28s-1.83301 13.834 -2.5 18.501s-1.33398 8.66699 -2.00098 12c8 -4 16.833 -8.83301 26.5 -14.5
s18.667 -14 27 -25s15.333 -25.5 21 -43.5s8.5 -41.333 8.5 -70c0 -46.667 -5.5 -92.5 -16.5 -137.5s-26.333 -87.833 -46 -128.5s-42.834 -78.667 -69.501 -114s-55.334 -66.333 -86.001 -93c-40 -35.333 -82.667 -62.666 -128 -81.999s-89 -29 -131 -29
c-61.333 0 -108.166 19.5 -140.499 58.5s-48.5 96.5 -48.5 172.5c0 40.667 4.5 83.667 13.5 129s21.667 90 38 134s35.833 85.833 58.5 125.5s47.5 74.667 74.5 105s56 54.5 87 72.5s62.833 27 95.5 27c10.667 0 20.667 -0.833008 30 -2.5s19.333 -4.83398 30 -9.50098z
M750.002 881.998c4.66699 -37.333 10.668 -65.6699 18.001 -85.0029s18.666 -33.666 33.999 -42.999c-1.33301 -0.666992 -4.33301 -1 -9 -1c-16.667 0 -33.834 5.16699 -51.501 15.5s-33.5 23.833 -47.5 40.5c-18 -13.333 -37.333 -24.166 -58 -32.499
s-38.667 -12.5 -54 -12.5c-10 0 -19.5 1.5 -28.5 4.5s-17.5 8.83301 -25.5 17.5c50.667 12.667 96.334 36.334 137.001 71.001c-1.33301 2.66699 -2.66602 6.66699 -3.99902 12c13.333 9.33301 33.666 14 60.999 14h17.5c3.66699 0 7.16699 -0.333008 10.5 -1z" />
    </font>
</defs>
</svg>
