<svg xmlns="http://www.w3.org/2000/svg" xmlns:xlink="http://www.w3.org/1999/xlink" width="172" height="77" viewBox="0 0 172 77">
  <defs>
    <clipPath id="clip-path">
      <path id="Path_248" data-name="Path 248" d="M0,0H172V77H0Z" fill="#fff"/>
    </clipPath>
  </defs>
  <g id="Group_48" data-name="Group 48" transform="translate(-258.484 -565)">
    <g id="Group_38" data-name="Group 38" transform="translate(0 126)">
      <g id="review-site-capterra" transform="translate(258.484 439)" clip-path="url(#clip-path)">
        <path id="Path_239" data-name="Path 239" d="M3,16.4l15.125,0,9.2,0V7.3Z" fill="#ff9d28"/>
        <path id="Path_240" data-name="Path 240" d="M27.324,7.3V39.431L38.81,3Z" fill="#68c5ed"/>
        <path id="Path_241" data-name="Path 241" d="M27.322,16.4l-9.2,0,9.2,23.033V16.4Z" fill="#044d80"/>
        <path id="Path_242" data-name="Path 242" d="M3,16.4l17.484,5.913L18.126,16.4Z" fill="#e54747"/>
        <path id="Path_243" data-name="Path 243" d="M58.719,30.972a4.288,4.288,0,0,1-.666.5,7.246,7.246,0,0,1-1.216.6,10.656,10.656,0,0,1-1.832.516,12.691,12.691,0,0,1-2.482.216,11.509,11.509,0,0,1-4.664-.865,8.69,8.69,0,0,1-3.248-2.413,9.892,9.892,0,0,1-1.882-3.661,16.956,16.956,0,0,1-.6-4.642,16.072,16.072,0,0,1,.65-4.675,10.505,10.505,0,0,1,1.949-3.711,8.937,8.937,0,0,1,3.248-2.446,11.025,11.025,0,0,1,4.581-.882,10.893,10.893,0,0,1,2.349.233,11.724,11.724,0,0,1,1.832.549,6.905,6.905,0,0,1,1.3.666l.783.582a2.65,2.65,0,0,1,.516.632,1.546,1.546,0,0,1,.216.8,2.212,2.212,0,0,1-.5,1.331,9.689,9.689,0,0,1-1.1,1.231l-.9-.815a6.078,6.078,0,0,0-1.116-.732,7.348,7.348,0,0,0-1.4-.532,6.57,6.57,0,0,0-1.749-.216,5.508,5.508,0,0,0-2.849.682A5.438,5.438,0,0,0,48.092,15.7a7.565,7.565,0,0,0-1,2.512,13.85,13.85,0,0,0-.3,2.879,14.563,14.563,0,0,0,.3,3,7.138,7.138,0,0,0,1.033,2.529,5.525,5.525,0,0,0,1.916,1.764,6.7,6.7,0,0,0,4.664.433,6.885,6.885,0,0,0,1.383-.566,7.127,7.127,0,0,0,1.049-.7l.75-.633.466.566a8,8,0,0,1,.5.7,6.071,6.071,0,0,1,.4.732,1.627,1.627,0,0,1,.166.665,1.5,1.5,0,0,1-.166.732,3.151,3.151,0,0,1-.533.666h0ZM75.887,28.42a7.366,7.366,0,0,0,.771,3.85,6.577,6.577,0,0,1-1.123.335,5.72,5.72,0,0,1-1.089.1,2.993,2.993,0,0,1-1.826-.469,2.109,2.109,0,0,1-.788-1.339A6.047,6.047,0,0,1,69.888,32.2a7.256,7.256,0,0,1-2.949.535,6.8,6.8,0,0,1-1.81-.25,4.731,4.731,0,0,1-1.642-.817,4.231,4.231,0,0,1-1.206-1.519,5.215,5.215,0,0,1-.469-2.319,4.413,4.413,0,0,1,.821-2.77,5.857,5.857,0,0,1,2.061-1.686,9.351,9.351,0,0,1,2.681-.851l2.648-.3.788-.034h.721v-.609a2.194,2.194,0,0,0-.687-1.828,3.624,3.624,0,0,0-2.229-.542,6.594,6.594,0,0,0-2.564.469,20.961,20.961,0,0,0-2.195,1.071A4.906,4.906,0,0,1,63.1,19.5a3.048,3.048,0,0,1-.285-1.021,1.208,1.208,0,0,1,.52-.9,5.121,5.121,0,0,1,1.424-.787,11.534,11.534,0,0,1,2.078-.569A13.59,13.59,0,0,1,69.32,16a11.054,11.054,0,0,1,3.067.368A4.784,4.784,0,0,1,74.431,17.5a4.321,4.321,0,0,1,1.123,1.925,9.694,9.694,0,0,1,.335,2.695v6.294h0ZM71.6,24.537h-.469a3.36,3.36,0,0,0-.469.034l-1.659.2a4.76,4.76,0,0,0-1.458.469,3.056,3.056,0,0,0-1.039.87,2.224,2.224,0,0,0-.4,1.373,2.425,2.425,0,0,0,.536,1.59,2.22,2.22,0,0,0,1.81.653,4.24,4.24,0,0,0,1.207-.168,4.085,4.085,0,0,0,1-.435,2.617,2.617,0,0,0,.687-.586.973.973,0,0,0,.251-.586V24.536h0Zm12.635-6.595A6.231,6.231,0,0,1,85.9,16.653,5.708,5.708,0,0,1,88.776,16a6.7,6.7,0,0,1,2.356.418,5.132,5.132,0,0,1,1.988,1.356,6.779,6.779,0,0,1,1.387,2.477,11.954,11.954,0,0,1,.518,3.783,13.017,13.017,0,0,1-.6,4.3,7.373,7.373,0,0,1-1.553,2.679A5.339,5.339,0,0,1,90.748,32.4a7.156,7.156,0,0,1-2.339.4,5.84,5.84,0,0,1-1.687-.218A6.834,6.834,0,0,1,85.5,32.1a3.229,3.229,0,0,1-.768-.536L84.4,31.2v8.23H79.842V16.468l.4-.067q.235-.036.473-.05l.642-.017a4.4,4.4,0,0,1,1.891.368,1.732,1.732,0,0,1,.98,1.239h0Zm6.033,6.193A9.979,9.979,0,0,0,90.1,22.26a4.543,4.543,0,0,0-.55-1.506,2.679,2.679,0,0,0-1.033-.988,3.28,3.28,0,0,0-1.583-.351,2.784,2.784,0,0,0-1.95.535,1.611,1.611,0,0,0-.55,1.172v7.1a4.3,4.3,0,0,0,.949.636,3.278,3.278,0,0,0,1.583.368,2.7,2.7,0,0,0,2.5-1.339,7.334,7.334,0,0,0,.8-3.75h0Zm8.277,5.759a5.817,5.817,0,0,1-.3-1.406l-.067-1.473V11.48l.5-.067.5-.05.536-.017a5.9,5.9,0,0,1,1.073.1,2.487,2.487,0,0,1,.972.4,2.21,2.21,0,0,1,.7.82,2.951,2.951,0,0,1,.268,1.356V16.4h4.692v3.382h-4.692v7.139q0,2.335,1.91,2.335a2.6,2.6,0,0,0,.889-.151,5.29,5.29,0,0,0,.754-.335,4.1,4.1,0,0,0,.586-.385l.352-.3a11.259,11.259,0,0,1,.771,1.276,2.279,2.279,0,0,1,.268,1.011,1.338,1.338,0,0,1-.352.862,3.476,3.476,0,0,1-.989.777,6.144,6.144,0,0,1-1.541.574,8.4,8.4,0,0,1-1.978.22,5.614,5.614,0,0,1-3.234-.8,4.266,4.266,0,0,1-1.625-2.109h0Zm20.425-.435a5.352,5.352,0,0,0,1.48-.184,5.956,5.956,0,0,0,1.144-.452,4.734,4.734,0,0,0,.874-.586l.673-.586a9.32,9.32,0,0,1,.841,1.289,2.854,2.854,0,0,1,.437,1.289,1.679,1.679,0,0,1-.838,1.339,6.29,6.29,0,0,1-1.994.921,10.649,10.649,0,0,1-3.033.385,12.1,12.1,0,0,1-3.1-.4,6.86,6.86,0,0,1-2.715-1.406,7.208,7.208,0,0,1-1.927-2.695,10.735,10.735,0,0,1-.738-4.269,9.171,9.171,0,0,1,.654-3.632,7.271,7.271,0,0,1,1.743-2.527,6.9,6.9,0,0,1,2.463-1.473A8.652,8.652,0,0,1,117.747,16a7.766,7.766,0,0,1,3.183.586,5.8,5.8,0,0,1,2.129,1.574,6.185,6.185,0,0,1,1.189,2.26,9.57,9.57,0,0,1,.369,2.678v.469l-.017.569-.033.586-.05.452h-9.888a5.284,5.284,0,0,0,1.144,3.064,3.907,3.907,0,0,0,3.194,1.222h0Zm1.528-6.8a4.894,4.894,0,0,0-.624-2.611,2.426,2.426,0,0,0-2.242-1,2.771,2.771,0,0,0-2.207.954,3.939,3.939,0,0,0-.826,2.661h5.9Zm12.054-4.636a5.893,5.893,0,0,1,.536-.664,3.786,3.786,0,0,1,.821-.664,5.257,5.257,0,0,1,1.073-.5,3.9,3.9,0,0,1,1.257-.2,5.92,5.92,0,0,1,.854.066,2.966,2.966,0,0,1,.838.249,1.62,1.62,0,0,1,.62.5,1.272,1.272,0,0,1,.235.78,4.711,4.711,0,0,1-.369,1.678,13.608,13.608,0,0,1-.737,1.617,4.992,4.992,0,0,0-1.14-.72,3.293,3.293,0,0,0-1.34-.251,2.58,2.58,0,0,0-1.743.6,1.845,1.845,0,0,0-.7,1.444V32.805h-4.558V16.468l.4-.067c.134-.022.291-.039.469-.05l.637-.017a3.945,3.945,0,0,1,1.86.415,1.859,1.859,0,0,1,.989,1.277h0Zm12.959,0a5.8,5.8,0,0,1,.537-.664,3.811,3.811,0,0,1,.821-.664,5.25,5.25,0,0,1,1.072-.5A3.88,3.88,0,0,1,149.2,16a5.92,5.92,0,0,1,.854.066,2.966,2.966,0,0,1,.838.249,1.63,1.63,0,0,1,.621.5,1.272,1.272,0,0,1,.234.78,4.711,4.711,0,0,1-.369,1.678,13.608,13.608,0,0,1-.737,1.617,4.991,4.991,0,0,0-1.14-.72,3.29,3.29,0,0,0-1.34-.251,2.58,2.58,0,0,0-1.743.6,1.845,1.845,0,0,0-.7,1.444V32.805h-4.558V16.468l.4-.067q.233-.036.469-.05l.636-.017a3.945,3.945,0,0,1,1.86.415,1.859,1.859,0,0,1,.989,1.277ZM167.26,28.42a7.366,7.366,0,0,0,.771,3.85,6.631,6.631,0,0,1-1.123.335,5.728,5.728,0,0,1-1.089.1,3,3,0,0,1-1.827-.469A2.109,2.109,0,0,1,163.2,30.9a6.031,6.031,0,0,1-1.943,1.306,7.258,7.258,0,0,1-2.95.535,6.79,6.79,0,0,1-1.81-.25,4.775,4.775,0,0,1-1.642-.817,4.231,4.231,0,0,1-1.206-1.519,5.215,5.215,0,0,1-.469-2.319,4.413,4.413,0,0,1,.821-2.77,5.84,5.84,0,0,1,2.061-1.686,9.34,9.34,0,0,1,2.681-.851l2.648-.3.788-.034h.72v-.609a2.194,2.194,0,0,0-.687-1.828,3.624,3.624,0,0,0-2.229-.542,6.6,6.6,0,0,0-2.564.469,21.173,21.173,0,0,0-2.2,1.071,4.9,4.9,0,0,1-.754-1.255,3.024,3.024,0,0,1-.285-1.021,1.208,1.208,0,0,1,.52-.9,5.121,5.121,0,0,1,1.424-.787,11.511,11.511,0,0,1,2.078-.569,13.6,13.6,0,0,1,2.48-.218,11.059,11.059,0,0,1,3.067.368A4.784,4.784,0,0,1,165.8,17.5a4.321,4.321,0,0,1,1.123,1.925,9.694,9.694,0,0,1,.335,2.695v6.294h0Zm-4.29-3.883H162.5a3.35,3.35,0,0,0-.469.034l-1.66.2a4.751,4.751,0,0,0-1.457.469,3.065,3.065,0,0,0-1.039.87,2.224,2.224,0,0,0-.4,1.373,2.42,2.42,0,0,0,.537,1.59,2.221,2.221,0,0,0,1.81.653,4.21,4.21,0,0,0,1.206-.168,4.13,4.13,0,0,0,1.006-.435,2.633,2.633,0,0,0,.687-.586.973.973,0,0,0,.251-.586V24.537h0Z" fill="#044d80"/>
        <g id="Group_17" data-name="Group 17">
          <path id="Path_244" data-name="Path 244" d="M27,53.493l3.955,6.565,7.473,1.729L33.4,67.573l.663,7.634L27,72.218l-7.063,2.989.663-7.634-5.028-5.786,7.473-1.729L27,53.493Z" fill="#ffbf00"/>
          <path id="Path_245" data-name="Path 245" d="M56.463,53.493l3.955,6.565,7.473,1.729-5.028,5.786.663,7.634-7.063-2.989L49.4,75.207l.663-7.634-5.028-5.786,7.473-1.729,3.955-6.565Zm29.459,0,3.955,6.565,7.473,1.729-5.028,5.786.663,7.634-7.063-2.989-7.063,2.989.663-7.634-5.028-5.786,7.473-1.729Zm29.46,0,3.955,6.565,7.473,1.729-5.028,5.786.663,7.634-7.063-2.989-7.063,2.989.663-7.634-5.028-5.786,7.473-1.729Zm29.46,0,3.955,6.565,7.473,1.729-5.029,5.786.664,7.634-7.063-2.989-7.063,2.989.663-7.634-5.029-5.786,7.473-1.729,3.956-6.565Z" fill="#ffbf00"/>
        </g>
        <path id="Path_246" data-name="Path 246" d="M144.756,54.615l3.416,5.669.137.228.26.06,6.452,1.493-4.341,5-.175.2.023.266.573,6.591L145,71.539l-.245-.1-.246.1-6.1,2.581.573-6.591.023-.266-.175-.2-4.342-4.995,6.453-1.493.259-.06.138-.228,3.416-5.669Z" fill="#fff" stroke="#ffbf00" stroke-width="1.26"/>
        <path id="Path_247" data-name="Path 247" d="M137.86,75.108l7.063-2.989V53.394l-3.955,6.565-7.473,1.729,5.028,5.786Z" fill="#ffbf00"/>
      </g>
    </g>
  </g>
</svg>
