<svg xmlns="http://www.w3.org/2000/svg" xmlns:xlink="http://www.w3.org/1999/xlink" width="175.474" height="77" viewBox="0 0 175.474 77">
  <defs>
    <clipPath id="clip-path">
      <path id="Path_313" data-name="Path 313" d="M0,0H175.474V77H0Z" transform="translate(929.203 565)" fill="#fff"/>
    </clipPath>
  </defs>
  <g id="Group_51" data-name="Group 51" transform="translate(-929.203 -565)">
    <g id="Mask_Group_6" data-name="Mask Group 6" clip-path="url(#clip-path)">
      <g id="Group_43" data-name="Group 43" transform="translate(0 -117.382)">
        <g id="Group_26" data-name="Group 26" transform="translate(930.665 681.793)">
          <path id="Path_291" data-name="Path 291" d="M57.833,26.766h3.119a6.811,6.811,0,0,1-2.62,4,7.959,7.959,0,0,1-4.866,1.432,6.946,6.946,0,0,1-5.551-2.307,9.359,9.359,0,0,1-2-6.427,9.261,9.261,0,0,1,1.933-6.239,6.954,6.954,0,0,1,5.554-2.307,7.464,7.464,0,0,1,5.8,2.25,8.56,8.56,0,0,1,1.622,3.181H56.46a3.646,3.646,0,0,0-.624-.935,3.006,3.006,0,0,0-2.307-.873,3.031,3.031,0,0,0-2.25.873,6.1,6.1,0,0,0-1.123,4.118q0,2.868,1.123,4.054a2.953,2.953,0,0,0,2.432,1,3.52,3.52,0,0,0,1.81-.438.84.84,0,0,0,.342-.217l.344-.344a2.78,2.78,0,0,1,.5-.5,1.72,1.72,0,0,1,1.127-.315Zm3.806,5.116V23.835a10.327,10.327,0,0,1,.716-4.091,6.79,6.79,0,0,1,1.966-2.659A7.73,7.73,0,0,1,67.1,15.712a12.35,12.35,0,0,1,3.273-.436H71v4.441H69.564a3.645,3.645,0,0,0-2.682.874,3.772,3.772,0,0,0-.875,2.749v8.546l-4.367,0Zm11.852-1.5a6.18,6.18,0,0,1-1.87-3.027,13.91,13.91,0,0,1-.562-3.96,12.5,12.5,0,0,1,.468-3.369,6.966,6.966,0,0,1,1.465-2.809,6.48,6.48,0,0,1,4.181-2.215,9.618,9.618,0,0,1,4.617.409,6.37,6.37,0,0,1,3.494,3.242,10.36,10.36,0,0,1,1.06,4.8,11.88,11.88,0,0,1-.436,3.43,8.86,8.86,0,0,1-1.123,2.434,6.235,6.235,0,0,1-3.807,2.557,8.47,8.47,0,0,1-4.148.094,7.266,7.266,0,0,1-3.338-1.589Zm3-10.98A5.748,5.748,0,0,0,75.3,23.679a6.762,6.762,0,0,0,1.06,3.956,2.772,2.772,0,0,0,1.311.843,2.98,2.98,0,0,0,1.9.063,3.2,3.2,0,0,0,1.716-1.405,7.044,7.044,0,0,0,.818-3.616,6.343,6.343,0,0,0-.716-3.369,3.245,3.245,0,0,0-1.655-1.432,3.04,3.04,0,0,0-1.872-.031,3.25,3.25,0,0,0-1.381.718ZM87.03,31.882V28.576l8.92-9.857h-6.3a2.09,2.09,0,0,1-1.5-.593,1.93,1.93,0,0,1-.624-1.465V15.288h13.6v3.551l-8.795,9.419h9.108v3.618l-14.412,0Zm26.077-21.523h2.122a2.005,2.005,0,0,1,1.5.655,2.09,2.09,0,0,1,.614,1.467V24.647q0,4.427-2.559,5.989a10.48,10.48,0,0,1-5.552,1.559,9.87,9.87,0,0,1-3.164-.53,5.24,5.24,0,0,1-2.5-1.716,9.948,9.948,0,0,1-1.808-6.3,10.129,10.129,0,0,1,1.808-6.3,6.11,6.11,0,0,1,7.55-1.818,5.95,5.95,0,0,1,2,1.933l-.009-7.1Zm-7.112,13.1a6.505,6.505,0,0,0,.935,3.805,3.108,3.108,0,0,0,2.684,1.311,3.041,3.041,0,0,0,2.62-1.311,6.877,6.877,0,0,0,.873-3.805,5.993,5.993,0,0,0-.936-3.555,3.252,3.252,0,0,0-2.682-1.247,2.98,2.98,0,0,0-2.559,1.309,5.732,5.732,0,0,0-.935,3.494Zm23.644,3.306h3.119a6.8,6.8,0,0,1-2.62,3.995,7.967,7.967,0,0,1-4.866,1.432,6.955,6.955,0,0,1-5.554-2.307,9.381,9.381,0,0,1-1.994-6.425,9.261,9.261,0,0,1,1.933-6.239,6.948,6.948,0,0,1,5.551-2.307,7.47,7.47,0,0,1,5.8,2.25,9.521,9.521,0,0,1,2,6.425v.687a1.06,1.06,0,0,1-.064.436H122.153a4.255,4.255,0,0,0,.936,2.864,2.952,2.952,0,0,0,2.432,1,3.52,3.52,0,0,0,1.809-.438.844.844,0,0,0,.343-.217l.344-.344a1.35,1.35,0,0,1,.468-.5,1.86,1.86,0,0,1,1.154-.311h0Zm-7.486-4.858h6.363a4.067,4.067,0,0,0-.873-2.5,3.3,3.3,0,0,0-4.56,0,3.618,3.618,0,0,0-.93,2.5Zm11.166,4.486h4.246a2.283,2.283,0,0,0,.935,1.87,4.426,4.426,0,0,0,2.495.626,4,4,0,0,0,1.933-.438,1.327,1.327,0,0,0,.749-1.186q0-1.119-2.62-1.683a11.97,11.97,0,0,1-1.684-.374,9.969,9.969,0,0,1-4.43-1.933,3.831,3.831,0,0,1-1.248-2.994,4.97,4.97,0,0,1,1.81-3.931,7.787,7.787,0,0,1,4.866-1.432,8.5,8.5,0,0,1,5.177,1.432,5.486,5.486,0,0,1,1.935,4.056H144.8a1.98,1.98,0,0,1-1.808-1.062l-.5-.5a3.363,3.363,0,0,0-2.059-.56,3.719,3.719,0,0,0-1.872.374,1.265,1.265,0,0,0-.56,1.123q0,1,3.244,1.683a6.426,6.426,0,0,0,.654.188,2.49,2.49,0,0,0,.53.061,11.688,11.688,0,0,1,4.431,1.872,3.936,3.936,0,0,1,1.184,2.995,4.992,4.992,0,0,1-2,4.242,9.472,9.472,0,0,1-5.615,1.373,8.249,8.249,0,0,1-5.3-1.432,5.011,5.011,0,0,1-1.81-4.181V26.4Zm19.777-11.1V21.4l5.3-6.114h5.241l-5.932,6.363L163.7,31.879h-5.234L155.4,26.266q-.937-1.683-1.622-1.432c-.456.168-.686.409-.686.749v6.3h-4.367V10.423h2.25a2.046,2.046,0,0,1,1.5.613,1.971,1.971,0,0,1,.613,1.432l.006,2.821Zm11.549-.049V12.581h-.957v-.233a.32.32,0,0,1,.025-.13.352.352,0,0,1,.073-.11.326.326,0,0,1,.11-.073.337.337,0,0,1,.129-.025h2.234v.573h-.947v2.659l-.667,0Z" fill="#05314f"/>
          <path id="Path_292" data-name="Path 292" d="M166.382,15.24V12.348a.32.32,0,0,1,.024-.13.324.324,0,0,1,.074-.109.36.36,0,0,1,.239-.108h.649l.638,2.469L168.644,12h.986v3.24h-.614v-2.61l-.663,2.61h-.685L167,12.631v2.61h-.619Z" fill="#05314f"/>
        </g>
        <path id="Path_293" data-name="Path 293" d="M19.078,4.1A4,4,0,0,1,23,4.1l14.221,8a4,4,0,0,1,2.039,3.486V31.41A4,4,0,0,1,37.221,34.9L23,42.9a4,4,0,0,1-3.922,0l-14.221-8A4,4,0,0,1,2.818,31.41V15.589A4,4,0,0,1,4.857,12.1l14.221-8Z" transform="translate(930.665 681.793)" fill="#2061e1"/>
        <path id="Path_294" data-name="Path 294" d="M30.819,29.079l-4.811-2.825a1.147,1.147,0,0,0-1.294,0l-3.042,1.794a.78.78,0,0,1-.693.123l-3.226-1.806a.99.99,0,0,1-.575-1.006V22a.78.78,0,0,1,.489-.8l3.056-1.782a1.123,1.123,0,0,0,.648-1.121l-.014-5.633c0-.648-.288-.818-.835-.505l-8.873,5.114a1.15,1.15,0,0,0-.632.906c0,.029-.014.057-.014.086v10.6a1.17,1.17,0,0,0,.646,1.123l9,5.2a1.22,1.22,0,0,0,.486.191,1.206,1.206,0,0,0,.521-.031,1.4,1.4,0,0,0,.36-.16l4.271-2.473a1.29,1.29,0,0,0,.143-.086l4.428-2.559c.524-.325.524-.657-.039-.986Z" transform="translate(930.665 681.793)" fill="#fff"/>
      </g>
      <g id="Group_42" data-name="Group 42" transform="translate(932.99 565)">
        <path id="Path_309" data-name="Path 309" d="M27,53.493l3.955,6.565,7.473,1.729L33.4,67.573l.663,7.634L27,72.218l-7.063,2.989.663-7.634-5.028-5.786,7.473-1.729L27,53.493Z" fill="#ffbf00"/>
        <path id="Path_310" data-name="Path 310" d="M56.463,53.493l3.955,6.565,7.473,1.729-5.028,5.786.663,7.634-7.063-2.989L49.4,75.207l.663-7.634-5.028-5.786,7.473-1.729,3.955-6.565Zm29.459,0,3.955,6.565,7.473,1.729-5.028,5.786.663,7.634-7.063-2.989-7.063,2.989.663-7.634-5.028-5.786,7.473-1.729Zm29.46,0,3.955,6.565,7.473,1.729-5.028,5.786.663,7.634-7.063-2.989-7.063,2.989.663-7.634-5.028-5.786,7.473-1.729Zm29.46,0,3.955,6.565,7.473,1.729-5.029,5.786.664,7.634-7.063-2.989-7.063,2.989.663-7.634-5.029-5.786,7.473-1.729,3.956-6.565Z" fill="#ffbf00"/>
      </g>
      <path id="Path_311" data-name="Path 311" d="M144.756,54.615l3.416,5.669.137.228.26.06,6.452,1.493-4.341,5-.175.2.023.266.573,6.591L145,71.539l-.245-.1-.246.1-6.1,2.581.573-6.591.023-.266-.175-.2-4.342-4.995,6.453-1.493.259-.06.138-.228,3.416-5.669Z" transform="translate(932.99 565)" fill="#fff" stroke="#ffbf00" stroke-width="1.26"/>
      <path id="Path_312" data-name="Path 312" d="M137.86,75.108l7.063-2.989V53.394l-3.955,6.565-7.473,1.729,5.028,5.786Z" transform="translate(932.99 565)" fill="#ffbf00"/>
    </g>
  </g>
</svg>
