<svg xmlns="http://www.w3.org/2000/svg" xmlns:xlink="http://www.w3.org/1999/xlink" width="172" height="77" viewBox="0 0 172 77">
  <defs>
    <clipPath id="clip-path">
      <path id="Path_248" data-name="Path 248" d="M0,0H172V77H0Z" transform="translate(496.484 565)" fill="#fff"/>
    </clipPath>
  </defs>
  <g id="Group_49" data-name="Group 49" transform="translate(-496.484 -565)">
    <g id="Mask_Group_4" data-name="Mask Group 4" clip-path="url(#clip-path)">
      <g id="Group_17" data-name="Group 17" transform="translate(496.484 565)">
        <path id="Path_244" data-name="Path 244" d="M27,53.493l3.955,6.565,7.473,1.729L33.4,67.573l.663,7.634L27,72.218l-7.063,2.989.663-7.634-5.028-5.786,7.473-1.729L27,53.493Z" fill="#ffbf00"/>
        <path id="Path_245" data-name="Path 245" d="M56.463,53.493l3.955,6.565,7.473,1.729-5.028,5.786.663,7.634-7.063-2.989L49.4,75.207l.663-7.634-5.028-5.786,7.473-1.729,3.955-6.565Zm29.459,0,3.955,6.565,7.473,1.729-5.028,5.786.663,7.634-7.063-2.989-7.063,2.989.663-7.634-5.028-5.786,7.473-1.729Zm29.46,0,3.955,6.565,7.473,1.729-5.028,5.786.663,7.634-7.063-2.989-7.063,2.989.663-7.634-5.028-5.786,7.473-1.729Zm29.46,0,3.955,6.565,7.473,1.729-5.029,5.786.664,7.634-7.063-2.989-7.063,2.989.663-7.634-5.029-5.786,7.473-1.729,3.956-6.565Z" fill="#ffbf00"/>
      </g>
      <path id="Path_246" data-name="Path 246" d="M144.756,54.615l3.416,5.669.137.228.26.06,6.452,1.493-4.341,5-.175.2.023.266.573,6.591L145,71.539l-.245-.1-.246.1-6.1,2.581.573-6.591.023-.266-.175-.2-4.342-4.995,6.453-1.493.259-.06.138-.228,3.416-5.669Z" transform="translate(496.484 565)" fill="#fff" stroke="#ffbf00" stroke-width="1.26"/>
      <path id="Path_247" data-name="Path 247" d="M137.86,75.108l7.063-2.989V53.394l-3.955,6.565-7.473,1.729,5.028,5.786Z" transform="translate(496.484 565)" fill="#ffbf00"/>
      <g id="Group_19" data-name="Group 19" transform="translate(496.369 564.653)">
        <path id="Path_254" data-name="Path 254" d="M65.238,6h1.1V38.641h-1.1ZM81.2,30.108a6.689,6.689,0,0,1-3.5.863,7.578,7.578,0,0,1-3.554-.726,3.65,3.65,0,0,1-1.865-2.021,12.73,12.73,0,0,1-.452-3.884V19.181l.138-2.864a3.917,3.917,0,0,1,.844-1.844,4.617,4.617,0,0,1,1.924-1.393,7.479,7.479,0,0,1,2.828-.51,7.274,7.274,0,0,1,3.594.785,3.969,3.969,0,0,1,1.865,1.962,3.664,3.664,0,0,1,.353,2.2v1.373l-4.006-.059v-1.2a2.874,2.874,0,0,0-.314-1.707,1.985,1.985,0,0,0-1.355-.333c-.805,0-1.3.137-1.512.412a3.2,3.2,0,0,0-.314,1.765V25.83a3.045,3.045,0,0,0,.314,1.707c.216.275.687.392,1.453.392a1.9,1.9,0,0,0,1.414-.392c.216-.275.334-.628.334-1.608l-.02-1.275H83.4v.275a8.241,8.241,0,0,1-.334,3.158A4.328,4.328,0,0,1,81.2,30.108ZM92.651,17.24a1.428,1.428,0,0,0-.805-1.373,8.466,8.466,0,0,0-2.631-.255v5a10.327,10.327,0,0,0,2.592-.216c.55-.137.825-1.412.825-2.2V17.24h.02Zm0,7.905c0-.942-.2-1.511-.589-1.746a6.72,6.72,0,0,0-2.828-.333V30.7H85.287l.059-17.733H88.9a28.785,28.785,0,0,1,4.831.255,3.376,3.376,0,0,1,2.062,1.275,5.419,5.419,0,0,1,.805,3.3,6.211,6.211,0,0,1-.589,3.08,3.055,3.055,0,0,1-2.18.863,3.964,3.964,0,0,1,1.983.9,2.616,2.616,0,0,1,.628,1.04,9.192,9.192,0,0,1,.177,2.275V30.6l-3.927.1V25.145h-.039Zm14.061-7.631a2.19,2.19,0,0,0-.393-1.569,2.576,2.576,0,0,0-1.61-.333,3.79,3.79,0,0,0-1.591.275c-.373.177-.55.726-.55,1.628v8.2a3.065,3.065,0,0,0,.354,1.883,2.6,2.6,0,0,0,1.669.353,2.461,2.461,0,0,0,1.728-.412,3.228,3.228,0,0,0,.373-1.962V17.514h.02Zm3.083,11.554a4.818,4.818,0,0,1-2.023,1.412,8.147,8.147,0,0,1-2.985.49,8.436,8.436,0,0,1-2.906-.471,4.589,4.589,0,0,1-2.062-1.393,3.8,3.8,0,0,1-.923-2.02,32.624,32.624,0,0,1-.157-3.825V20.24l.138-3.766a3.864,3.864,0,0,1,.9-2.021,4.928,4.928,0,0,1,2.022-1.412,8.147,8.147,0,0,1,2.985-.49,8.446,8.446,0,0,1,2.907.471,4.575,4.575,0,0,1,2.061,1.393,3.953,3.953,0,0,1,.923,2.02,32.459,32.459,0,0,1,.157,3.805v3.04l-.137,3.766a3.857,3.857,0,0,1-.9,2.02Zm14.649,1.53c-.569-2.707-1.9-9.357-2.356-12.829-.2,1.491-1.768,8.141-2.494,12.829h-4.32l-3.358-17.654h3.79l1.08,6.159.785,7.317c.177-3.08,1.748-8.494,2.494-13.476h4.4a34.028,34.028,0,0,1,1.1,5.826l1.1,7.532c.295-4.276,1.3-9.278,1.964-13.358h3.515L128.529,30.6h-4.085Zm16.594-12.554a4.126,4.126,0,0,0-.177-1.53,1.248,1.248,0,0,0-.864-.49,13.664,13.664,0,0,0-2.514-.157V27.656a6.86,6.86,0,0,0,3.005-.392c.373-.255.569-.981.569-2.158V18.044h-.019Zm3.593,10.494a2.308,2.308,0,0,1-.864,1.255,3.78,3.78,0,0,1-1.512.628,11.778,11.778,0,0,1-2.435.176h-6.343V12.944h3.771a21.119,21.119,0,0,1,4.654.314,3.8,3.8,0,0,1,1.963,1,3.118,3.118,0,0,1,.845,1.55,20.925,20.925,0,0,1,.157,3.354v6.179a11.929,11.929,0,0,1-.236,3.2Z" fill="#ef492d" fill-rule="evenodd"/>
        <path id="Path_255" data-name="Path 255" d="M43.559,38.847A16.355,16.355,0,0,1,27.781,27.319a15.891,15.891,0,0,1,3.3-15.66,15.794,15.794,0,0,1,9.143-5.314,16.13,16.13,0,0,1,6.18-.05c.229.042.231.1.142.288l-3,6.28a.316.316,0,0,1-.33.2,9.363,9.363,0,0,0-3.245,18.061,9.148,9.148,0,0,0,9.4-1.438c.146-.11.207-.132.311.049l3.326,5.753c.1.168.063.244-.082.345a16.35,16.35,0,0,1-7.278,2.854,19.721,19.721,0,0,1-2.088.157h0Zm11.372-4.753c-.09-.048-.115-.147-.162-.227l-3.737-6.484a.47.47,0,0,0-.479-.266H42.8a.37.37,0,0,1,.1-.258L46.68,20.3a.392.392,0,0,1,.158-.172.38.38,0,0,1,.229-.048h7.619a.38.38,0,0,1,.384.22L58.888,26.9a.34.34,0,0,1,.011.394l-3.839,6.64c-.034.056-.05.133-.129.155ZM49.58,10.869,48.261,9.552c-.136-.132-.041-.229.017-.329a3.955,3.955,0,0,1,2.289-1.816,4.43,4.43,0,0,1,3.567.351,2.966,2.966,0,0,1,.659,4.666,6.29,6.29,0,0,1-1.456,1.046l-1.638.878a1.959,1.959,0,0,0-.957,1.121c-.066.206-.026.26.194.258l4.361-.009c.22,0,.3.042.293.281v1.537c0,.162-.045.22-.212.22q-3.5-.007-7.008,0c-.11,0-.212,0-.213-.159a5.375,5.375,0,0,1,1.565-4.274,8.37,8.37,0,0,1,2.01-1.317,5.833,5.833,0,0,0,1.154-.665,1.29,1.29,0,0,0,.538-.955c.033-.636-.47-1.108-1.231-1.157a2.479,2.479,0,0,0-2.434,1.327l-.181.314h0Z" fill="#ef492d"/>
      </g>
    </g>
  </g>
</svg>
