<svg xmlns="http://www.w3.org/2000/svg" xmlns:xlink="http://www.w3.org/1999/xlink" width="171.092" height="77" viewBox="0 0 171.092 77">
  <defs>
    <clipPath id="clip-path">
      <path id="Path_301" data-name="Path 301" d="M0,0H171.092V77H0Z" transform="translate(700.697 565)" fill="#fff"/>
    </clipPath>
  </defs>
  <g id="Group_50" data-name="Group 50" transform="translate(-700.697 -565)">
    <g id="Mask_Group_5" data-name="Mask Group 5" clip-path="url(#clip-path)">
      <g id="Group_40" data-name="Group 40" transform="translate(0 -145.087)">
        <path id="Path_265" data-name="Path 265" d="M45.867,22.244,34.875,11.264a.936.936,0,0,0-1.3,0L31.4,13.433l8.821,8.811a.932.932,0,0,1,0,1.3L31.13,32.627,33.3,34.8a.936.936,0,0,0,1.3,0L45.84,23.573a.94.94,0,0,0,.027-1.328Z" transform="translate(699.484 707.772)" fill="#009c9c"/>
        <path id="Path_266" data-name="Path 266" d="M27.14,12.078l-.787-.786a.934.934,0,0,0-1.3,0l-2.171,2.169L24.317,14.9l2.823,2.82,2.823-2.82L27.14,12.079ZM26.9,28.4l-2.823,2.819-1.438,1.437,2.171,2.169a.936.936,0,0,0,1.3,0l.787-.786,2.823-2.82Z" transform="translate(699.484 707.772)" fill="#40e3e3"/>
        <path id="Path_267" data-name="Path 267" d="M31.727,22.245a.931.931,0,0,1,0,1.3L26.9,28.372l2.823,2.819,7.654-7.645a.932.932,0,0,0,0-1.3L29.99,14.87l-2.85,2.82Z" transform="translate(699.484 707.772)" fill="#1abab8"/>
        <path id="Path_268" data-name="Path 268" d="M13.787,22.515l7.654-7.645-2.823-2.82-.814-.786a.936.936,0,0,0-1.3,0L5.265,22.515a.932.932,0,0,0,0,1.3L16.257,34.8a.936.936,0,0,0,1.3,0l.814-.786L21.2,31.19l-7.382-7.374a.907.907,0,0,1-.027-1.3Z" transform="translate(699.484 707.772)" fill="#87f0f0"/>
        <path id="Path_269" data-name="Path 269" d="M22.309,22.515l3.365-3.362-2.823-2.82L21.412,14.9l-7.6,7.645a.932.932,0,0,0,0,1.3l7.355,7.347,1.438-1.437,2.823-2.82-3.121-3.118a.931.931,0,0,1,0-1.3Z" transform="translate(699.484 707.772)" fill="#40e3e3"/>
        <path id="Path_270" data-name="Path 270" d="M22.309,23.817l3.121,3.118L28.8,23.573a.932.932,0,0,0,0-1.3l-3.121-3.118L22.31,22.516a.987.987,0,0,0,0,1.3Z" transform="translate(699.484 707.772)" fill="#17cfcf"/>
        <path id="Path_271" data-name="Path 271" d="M54.688,19.94a10.43,10.43,0,0,1,.733-3.633,8.358,8.358,0,0,1,1.9-2.82,8.71,8.71,0,0,1,3.094-1.816A12.873,12.873,0,0,1,64.7,11.02a12.96,12.96,0,0,1,4.777.732,9.317,9.317,0,0,1,2.985,1.789,6.023,6.023,0,0,1,1.547,2.142,6.39,6.39,0,0,1,.516,1.871.74.74,0,0,1-.244.651.97.97,0,0,1-.651.244H70.946a.85.85,0,0,1-.57-.19.976.976,0,0,1-.3-.38l-.353-.569a3.62,3.62,0,0,0-.9-.922,6.32,6.32,0,0,0-4.1-1.248,5.79,5.79,0,0,0-3.99,1.329,5.007,5.007,0,0,0-1.6,3.606l-.054,2.711.054,2.711a5.045,5.045,0,0,0,1.6,3.985A6.166,6.166,0,0,0,64.7,30.729a8.982,8.982,0,0,0,2.253-.271,4.67,4.67,0,0,0,1.764-.867,3.746,3.746,0,0,0,1.167-1.572,5.97,5.97,0,0,0,.407-2.386v-.271H66.25a.786.786,0,0,1-.624-.271.883.883,0,0,1-.271-.624V22.108a.9.9,0,0,1,.9-.9H73.9a.9.9,0,0,1,.9.9v3.633a9.9,9.9,0,0,1-.624,3.66,7.81,7.81,0,0,1-1.9,2.874,8.9,8.9,0,0,1-3.148,1.9,14.737,14.737,0,0,1-8.794,0,8.377,8.377,0,0,1-3.067-1.817,8.11,8.11,0,0,1-1.873-2.874,11.265,11.265,0,0,1-.706-3.66l-.054-1.383V21.322l.054-1.383M85.031,20.97a4.336,4.336,0,0,0-1.656.271,3.18,3.18,0,0,0-1.14.732,2.925,2.925,0,0,0-.706,1,2.82,2.82,0,0,0-.3,1.03h7.491a6.365,6.365,0,0,0-.244-1.03,2.9,2.9,0,0,0-.6-1,2.96,2.96,0,0,0-1.086-.732,4.375,4.375,0,0,0-1.764-.271Zm-8.115,4.961a10.98,10.98,0,0,1,.57-3.5,8.4,8.4,0,0,1,1.629-2.874,7.41,7.41,0,0,1,2.578-1.9,8.378,8.378,0,0,1,3.338-.7,7.912,7.912,0,0,1,3.338.678,8,8,0,0,1,2.605,1.844,8.55,8.55,0,0,1,1.656,2.684,8.7,8.7,0,0,1,.57,3.226V26.88a.9.9,0,0,1-.9.9H81.231a3.17,3.17,0,0,0,.3,1.328,2.838,2.838,0,0,0,.841.949,4.245,4.245,0,0,0,1.221.6,5.094,5.094,0,0,0,1.438.19,5.453,5.453,0,0,0,1.737-.217,3.4,3.4,0,0,0,1.086-.542,4.46,4.46,0,0,1,.6-.38,1.6,1.6,0,0,1,.624-.108h2.66a.95.95,0,0,1,.651.271.69.69,0,0,1,.244.624,2.754,2.754,0,0,1-.516,1.193,5.18,5.18,0,0,1-1.438,1.437,8.96,8.96,0,0,1-2.388,1.193,9.6,9.6,0,0,1-3.257.488,8.82,8.82,0,0,1-3.338-.651,7.193,7.193,0,0,1-2.578-1.816,8.27,8.27,0,0,1-1.629-2.847,9.763,9.763,0,0,1-.57-3.552Zm24.236,2.386a2.324,2.324,0,0,0,.543,1.627,2.64,2.64,0,0,0,2.036.624h2.008a.9.9,0,0,1,.9.9v2.2a.9.9,0,0,1-.9.9h-2.47a6.866,6.866,0,0,1-4.776-1.518,6.018,6.018,0,0,1-1.683-4.609V21.3h-2.2a.786.786,0,0,1-.624-.271.882.882,0,0,1-.271-.623v-2.2a.786.786,0,0,1,.271-.624.883.883,0,0,1,.624-.271h2.2v-5.4a.9.9,0,0,1,.9-.9h2.525a.9.9,0,0,1,.895.9v5.4h4.288a.917.917,0,0,1,.869.9v2.2a.9.9,0,0,1-.9.9H101.1l.054,7.022ZM122.947,25.9l-3.664-9.435L115.646,25.9ZM121.1,11.346a1.04,1.04,0,0,1,.787.271,2.63,2.63,0,0,1,.489.841l8.115,20.957a.677.677,0,0,1,.027.217.9.9,0,0,1-.9.9h-2.388a1.247,1.247,0,0,1-.923-.271,1.7,1.7,0,0,1-.353-.542l-1.438-3.687H114.044l-1.438,3.687a1.846,1.846,0,0,1-.353.542,1.171,1.171,0,0,1-.923.271h-2.388a.9.9,0,0,1-.9-.9.514.514,0,0,1,.028-.217l8.115-20.957a2.62,2.62,0,0,1,.488-.841,1.078,1.078,0,0,1,.787-.271H121.1ZM144.74,26.853a10.32,10.32,0,0,0,0-1.844,4.335,4.335,0,0,0-1.33-3.091,4.433,4.433,0,0,0-5.482,0,3.948,3.948,0,0,0-1.276,2.738A6.433,6.433,0,0,0,136.6,25.9l.054,1.247a4,4,0,0,0,1.276,2.711,3.947,3.947,0,0,0,2.741,1,4.164,4.164,0,0,0,2.741-.949,4.322,4.322,0,0,0,1.33-3.063Zm-3.067,8.025a8.332,8.332,0,0,1-1.845-.19,6.94,6.94,0,0,1-1.439-.488,6.207,6.207,0,0,1-1.031-.678,5.371,5.371,0,0,1-.706-.651V39.92a.9.9,0,0,1-.9.9h-2.5a.9.9,0,0,1-.9-.9V18.2a.9.9,0,0,1,.9-.9h2.524a.9.9,0,0,1,.9.9v.759a4.037,4.037,0,0,1,.705-.651,6.177,6.177,0,0,1,2.5-1.139,8.341,8.341,0,0,1,1.846-.19,6.849,6.849,0,0,1,5.292,2.386,8.03,8.03,0,0,1,1.493,2.494,9.894,9.894,0,0,1,.624,2.928c.027.325.027.7.027,1.166l-.027,1.166a8.962,8.962,0,0,1-.624,2.928,8.019,8.019,0,0,1-1.493,2.494,7.17,7.17,0,0,1-2.28,1.735,7.606,7.606,0,0,1-3.067.6Zm21.821-8.025a10.32,10.32,0,0,0,0-1.844,4.335,4.335,0,0,0-1.33-3.091,4.433,4.433,0,0,0-5.482,0,3.948,3.948,0,0,0-1.276,2.738,6.433,6.433,0,0,0-.054,1.247l.054,1.247a4,4,0,0,0,1.276,2.711,3.947,3.947,0,0,0,2.741,1,4.164,4.164,0,0,0,2.741-.949,4.322,4.322,0,0,0,1.33-3.063Zm-3.094,8a8.332,8.332,0,0,1-1.845-.19,6.93,6.93,0,0,1-1.439-.488,5.57,5.57,0,0,1-1.031-.651,5.31,5.31,0,0,1-.706-.651V39.92a.927.927,0,0,1-.895.9H151.96a.9.9,0,0,1-.9-.9V18.2a.9.9,0,0,1,.9-.9h2.524a.9.9,0,0,1,.9.9v.759a5.308,5.308,0,0,1,.706-.651,8.308,8.308,0,0,1,1.031-.651,6.9,6.9,0,0,1,1.439-.488,8.332,8.332,0,0,1,1.845-.19,6.849,6.849,0,0,1,5.293,2.386,8.05,8.05,0,0,1,1.493,2.494,9.957,9.957,0,0,1,.624,2.928c.027.325.027.7.027,1.166l-.027,1.166a9.013,9.013,0,0,1-.624,2.928,8.038,8.038,0,0,1-1.493,2.494,7.493,7.493,0,0,1-2.28,1.735,7.26,7.26,0,0,1-3.013.651" transform="translate(699.484 707.772)" fill="#424a52"/>
      </g>
      <g id="Group_39" data-name="Group 39" transform="translate(704.484 565)">
        <path id="Path_295" data-name="Path 295" d="M27,53.493l3.955,6.565,7.473,1.729L33.4,67.573l.663,7.634L27,72.218l-7.063,2.989.663-7.634-5.028-5.786,7.473-1.729L27,53.493Z" fill="#ffbf00"/>
        <path id="Path_296" data-name="Path 296" d="M56.463,53.493l3.955,6.565,7.473,1.729-5.028,5.786.663,7.634-7.063-2.989L49.4,75.207l.663-7.634-5.028-5.786,7.473-1.729,3.955-6.565Zm29.459,0,3.955,6.565,7.473,1.729-5.028,5.786.663,7.634-7.063-2.989-7.063,2.989.663-7.634-5.028-5.786,7.473-1.729Zm29.46,0,3.955,6.565,7.473,1.729-5.028,5.786.663,7.634-7.063-2.989-7.063,2.989.663-7.634-5.028-5.786,7.473-1.729Zm29.46,0,3.955,6.565,7.473,1.729-5.029,5.786.664,7.634-7.063-2.989-7.063,2.989.663-7.634-5.029-5.786,7.473-1.729,3.956-6.565Z" fill="#ffbf00"/>
      </g>
      <path id="Path_297" data-name="Path 297" d="M144.756,54.615l3.416,5.669.137.228.26.06,6.452,1.493-4.341,5-.175.2.023.266.573,6.591L145,71.539l-.245-.1-.246.1-6.1,2.581.573-6.591.023-.266-.175-.2-4.342-4.995,6.453-1.493.259-.06.138-.228,3.416-5.669Z" transform="translate(704.484 565)" fill="#fff" stroke="#ffbf00" stroke-width="1.26"/>
      <path id="Path_298" data-name="Path 298" d="M137.86,75.108l7.063-2.989V53.394l-3.955,6.565-7.473,1.729,5.028,5.786Z" transform="translate(704.484 565)" fill="#ffbf00"/>
    </g>
  </g>
</svg>
