<svg xmlns="http://www.w3.org/2000/svg" xmlns:xlink="http://www.w3.org/1999/xlink" width="203.962" height="77" viewBox="0 0 203.962 77">
  <defs>
    <clipPath id="clip-path">
      <path id="Path_322" data-name="Path 322" d="M0,0H203.962V77H0Z" transform="translate(1162.091 565)" fill="#fff"/>
    </clipPath>
  </defs>
  <g id="Group_52" data-name="Group 52" transform="translate(-1162.091 -565)">
    <g id="Mask_Group_7" data-name="Mask Group 7" clip-path="url(#clip-path)">
      <g id="Group_47" data-name="Group 47" transform="translate(-2 -118.6)">
        <path id="Path_256" data-name="Path 256" d="M155.472,13.863A1.862,1.862,0,0,1,157.336,12h13.871a1.862,1.862,0,0,1,1.864,1.863v6.8a1.862,1.862,0,0,1-1.864,1.863h-1.44a8.845,8.845,0,0,0-3.533.915l-5.038,2.81c-.916.49-1.276.131-.851-.784l.59-1.274a1.114,1.114,0,0,0-1.113-1.7H157.3a1.862,1.862,0,0,1-1.865-1.863V13.863" transform="translate(1190.656 680)" fill="#ffbf00"/>
        <g id="Group_20" data-name="Group 20" transform="translate(1167.485 694.942)">
          <path id="Path_257" data-name="Path 257" d="M179.643,31.177a.624.624,0,0,0,.261-.065c.065-.032.1-.1.1-.229,0-.065,0-.131-.034-.163l-.1-.1a.2.2,0,0,0-.132-.032h-.49v.555l.393.032Zm0-.981a.92.92,0,0,1,.653.2.71.71,0,0,1,.229.523.646.646,0,0,1-.163.458.752.752,0,0,1-.393.2l.556.947h-.556l-.555-.915h-.2v.915h-.492V30.229Zm-1.44,1.732a1.228,1.228,0,0,0,.294.49,1.48,1.48,0,0,0,.459.327,1.921,1.921,0,0,0,.589.131,1.12,1.12,0,0,0,.589-.131,1.154,1.154,0,0,0,.458-.327,1.226,1.226,0,0,0,.294-.49,1.87,1.87,0,0,0,.1-.589,1.839,1.839,0,0,0-.1-.589,1.234,1.234,0,0,0-.294-.49,1.49,1.49,0,0,0-.458-.327,1.936,1.936,0,0,0-.589-.131,1.117,1.117,0,0,0-.589.131,1.178,1.178,0,0,0-.459.327,1.208,1.208,0,0,0-.294.49,1.87,1.87,0,0,0-.1.589A1.576,1.576,0,0,0,178.2,31.929Zm-.589-1.405a2.1,2.1,0,0,1,1.145-1.143,2.3,2.3,0,0,1,.818-.163,2.269,2.269,0,0,1,.818.163,2.1,2.1,0,0,1,1.145,1.143,2.112,2.112,0,0,1,0,1.633,1.938,1.938,0,0,1-.458.686,2.573,2.573,0,0,1-.687.458,2.269,2.269,0,0,1-.818.163,2.294,2.294,0,0,1-.818-.163,1.927,1.927,0,0,1-.687-.458,1.963,1.963,0,0,1-.458-.686,2.112,2.112,0,0,1,0-1.633Zm-5.005-5.556h-3.075a.259.259,0,0,1-.295-.294l.032-.392a1.674,1.674,0,0,1,1.833-1.405,1.7,1.7,0,0,1,1.832,1.373l.032.392c0,.2-.066.327-.36.327Zm-1.6-5.295a5.386,5.386,0,0,0-5.692,5.1V28.4c0,3.039,2.258,5.13,5.692,5.13a5.752,5.752,0,0,0,4.154-1.568,6.905,6.905,0,0,0,1.113-1.5c.163-.294.1-.589-.1-.686l-2.78-1.405c-.164-.1-.327-.032-.426.229a2.007,2.007,0,0,1-2,1.438,1.628,1.628,0,0,1-1.766-1.6v-.621c0-.2.1-.294.327-.294h6.8a.274.274,0,0,0,.294-.294V24.773a5.387,5.387,0,0,0-5.626-5.1ZM158.835,23.1c.884,0,1.506.555,2,1.7.1.2.229.261.426.163L164,23.724a.352.352,0,0,0,.131-.49,7.205,7.205,0,0,0-.884-1.568,5.06,5.06,0,0,0-4.449-1.928c-3.5,0-5.594,2.091-5.594,5.13V28.3c0,3.039,2.093,5.1,5.594,5.1a5.183,5.183,0,0,0,4.188-1.634,6.125,6.125,0,0,0,1.145-1.9A.316.316,0,0,0,164,29.41l-2.748-1.274c-.2-.1-.327-.032-.426.163-.49,1.111-1.113,1.7-2,1.7a1.6,1.6,0,0,1-1.7-1.634V24.7a1.629,1.629,0,0,1,1.7-1.6Zm-8.079-3.038h-3.338a.254.254,0,0,0-.294.294V32.844a.254.254,0,0,0,.294.294h3.338c.163,0,.261-.1.261-.294V20.36c-.032-.229-.131-.294-.261-.294Zm-1.7-5.522a1.96,1.96,0,1,0,1.963,1.96A1.946,1.946,0,0,0,149.055,14.544Zm-3.7,5.522h-3.566a.316.316,0,0,0-.295.229L139.4,26.34a8.775,8.775,0,0,0-.327,1.405h-.1a10.633,10.633,0,0,0-.327-1.405l-2.192-6.079a.285.285,0,0,0-.294-.2H132.6c-.261,0-.327.163-.261.392l5.038,12.451a.316.316,0,0,0,.295.2h2.617a.286.286,0,0,0,.294-.2l5.071-12.451c.066-.229-.032-.392-.295-.392Zm-18.419,8.2A1.663,1.663,0,0,1,125.2,29.9a1.6,1.6,0,0,1-1.7-1.634V24.9a1.566,1.566,0,0,1,1.7-1.568,1.612,1.612,0,0,1,1.734,1.568v3.365Zm3.6-12.843h-3.3a.292.292,0,0,0-.295.294v3.889q.022.623.1,1.242a3.648,3.648,0,0,0-2.159-.784,4.953,4.953,0,0,0-5.267,5.1v2.843c0,3.268,1.9,5.1,5.333,5.1a3.771,3.771,0,0,0,2.29-.752c.163-.131.36-.1.36.131v.424a.218.218,0,0,0,.229.2h2.715a.274.274,0,0,0,.294-.294V15.687A.267.267,0,0,0,130.538,15.425ZM112.282,27.092h-1.7c-.295,0-.392-.163-.327-.327l.589-2.288a18.808,18.808,0,0,0,.556-3.007h.1a21.789,21.789,0,0,0,.49,3.007l.589,2.288c.066.131-.066.327-.295.327Zm.655-11.47a.287.287,0,0,0-.295-.2h-2.519a.287.287,0,0,0-.295.2l-5.463,17.125c-.1.229.032.36.295.36h3.533c.131,0,.2-.065.261-.2l.818-2.549c.065-.131.1-.163.294-.163h3.7c.2,0,.261.032.295.163l.785,2.549c.066.131.1.2.295.2H118.2c.295,0,.361-.131.295-.36l-5.562-17.123Zm-18.68,9.346H91.181a.259.259,0,0,1-.295-.294l.032-.392a1.673,1.673,0,0,1,1.832-1.405,1.7,1.7,0,0,1,1.832,1.373l.032.392c-.032.2-.066.327-.36.327Zm-1.635-5.295a5.386,5.386,0,0,0-5.692,5.1V28.4c0,3.039,2.258,5.13,5.692,5.13a5.757,5.757,0,0,0,4.155-1.568,6.9,6.9,0,0,0,1.113-1.5c.163-.294.1-.589-.1-.686l-2.78-1.405c-.163-.1-.327-.032-.426.229a2.006,2.006,0,0,1-1.995,1.438,1.629,1.629,0,0,1-1.767-1.6v-.621c0-.2.1-.294.327-.294h6.773a.275.275,0,0,0,.295-.294V24.773a5.3,5.3,0,0,0-5.594-5.1Zm-7.361.458a4.212,4.212,0,0,0-.719-.065,3.254,3.254,0,0,0-2.519,1.079c-.131.131-.36.1-.36-.131v-.653a.26.26,0,0,0-.295-.294H78.684a.274.274,0,0,0-.294.294V32.845a.26.26,0,0,0,.294.294h3.3a.275.275,0,0,0,.295-.294V25.393a1.63,1.63,0,0,1,1.7-1.7,5.47,5.47,0,0,1,1.113.131c.261.065.426-.032.426-.294v-3.17a.253.253,0,0,0-.261-.229ZM70.375,30.1H69.328c-.589,0-.916-.36-.916-1.144a.91.91,0,0,1,.948-.947h2.388c.163,0,.229.294.229.392A1.738,1.738,0,0,1,70.375,30.1Zm-.1-10.359a5.646,5.646,0,0,0-3.991,1.438,7.2,7.2,0,0,0-1.309,1.667c-.163.294-.1.589.1.686l2.78,1.405c.163.1.327.032.426-.229a2.006,2.006,0,0,1,1.995-1.438,1.591,1.591,0,0,1,1.7,1.6V25a.26.26,0,0,1-.295.294H69.195c-2.487,0-4.481,1.34-4.481,3.693v.294c0,2.386,1.8,3.823,4.22,3.823h.982a3.738,3.738,0,0,0,2.192-.719.182.182,0,0,1,.295.032l.1.49a.287.287,0,0,0,.295.229h2.748a.275.275,0,0,0,.295-.294V24.9c0-3.039-2.127-5.164-5.562-5.164Zm-6.674.327H60.2c-.164,0-.295.1-.295.229l-1.276,5.261a14.4,14.4,0,0,0-.295,2.026h-.1a12,12,0,0,0-.295-2.026L56.665,20.3a.287.287,0,0,0-.295-.229H53.59a.287.287,0,0,0-.295.229l-1.243,5.261a13.346,13.346,0,0,0-.295,1.9h-.066a9.823,9.823,0,0,0-.295-1.9L50.087,20.3a.264.264,0,0,0-.295-.229H46.325c-.261,0-.327.131-.261.36l3.959,12.483a.287.287,0,0,0,.295.2H52.8a.265.265,0,0,0,.295-.2l1.538-5.817c.163-.653.295-1.732.295-1.732h.1a16.53,16.53,0,0,0,.295,1.732l1.5,5.785a.264.264,0,0,0,.295.229h2.454a.316.316,0,0,0,.295-.2L63.9,20.426c.066-.2-.032-.36-.295-.36Zm-18.941,0h-1.9c-.261,0-.327-.1-.327-.294V18.008c0-.2-.066-.261-.261-.261H40.407a.578.578,0,0,0-.327.131l-3.5,3.5v1.9c0,.2.1.261.295.261H38.28c.261,0,.327.1.327.294V28.2c0,3.367,2.093,5.1,4.776,5.1h1.177c.261,0,.36-.1.36-.294V30.13a.275.275,0,0,0-.295-.294h-.458c-1.145,0-1.7-.686-1.7-1.9V23.856c0-.2.1-.294.327-.294h1.9c.2,0,.261-.066.261-.261V20.328c-.032-.2-.1-.261-.295-.261Zm-8.408-4.772a11.091,11.091,0,0,0-2-.2c-4.155,0-5.725,2.876-5.725,5.164v.686a.26.26,0,0,1-.295.294h-.655a.274.274,0,0,0-.294.294v2.941a.254.254,0,0,0,.294.294h.655c.261,0,.295.1.295.294v7.81a.26.26,0,0,0,.295.294h3.3a.26.26,0,0,0,.295-.294v-7.81a.26.26,0,0,1,.295-.294h1.832a.26.26,0,0,0,.295-.294v-2.94a.26.26,0,0,0-.295-.294H32.721a.243.243,0,0,1-.295-.294V20.2a1.576,1.576,0,0,1,1.766-1.6,5.679,5.679,0,0,1,1.079.131.243.243,0,0,0,.36-.163l.884-2.876a.3.3,0,0,0-.261-.392ZM21.727,28.431a1.635,1.635,0,0,1-1.7,1.634,1.653,1.653,0,0,1-1.766-1.634v-3.66a1.672,1.672,0,0,1,1.766-1.634,1.635,1.635,0,0,1,1.7,1.634Zm-1.7-8.692c-3.435,0-5.692,2.091-5.692,5.13V28.3c0,3.039,2.258,5.1,5.692,5.1,3.37,0,5.628-2.059,5.628-5.1V24.869C25.653,21.83,23.4,19.739,20.026,19.739ZM8.314,22.549c-1.538-.589-3.206-1.013-3.206-2.288a1.657,1.657,0,0,1,1.734-1.7h.426a2.01,2.01,0,0,1,2,1.438c.1.261.261.294.426.229l2.78-1.405a.514.514,0,0,0,.1-.686,5.081,5.081,0,0,0-.85-1.21,5.737,5.737,0,0,0-4.449-1.9H6.843c-3.5,0-5.692,2.092-5.692,5.261,0,3.235,2.093,4.444,4.678,5.49,1.7.686,3.141,1.045,3.141,2.451a1.678,1.678,0,0,1-1.9,1.667H6.385a2.01,2.01,0,0,1-2-1.438c-.1-.261-.261-.294-.426-.229L1.183,29.64a.514.514,0,0,0-.1.686A8.528,8.528,0,0,0,2,31.633a5.512,5.512,0,0,0,4.351,1.8h.884c3.566,0,5.66-2.059,5.66-5.229,0-3.3-1.93-4.608-4.58-5.653Z" transform="translate(-1.001 -14.544)" fill="#2d2e2c"/>
        </g>
      </g>
      <g id="Group_46" data-name="Group 46" transform="translate(1172.878 565)">
        <path id="Path_318" data-name="Path 318" d="M27,53.493l3.955,6.565,7.473,1.729L33.4,67.573l.663,7.634L27,72.218l-7.063,2.989.663-7.634-5.028-5.786,7.473-1.729L27,53.493Z" fill="#ffbf00"/>
        <path id="Path_319" data-name="Path 319" d="M56.463,53.493l3.955,6.565,7.473,1.729-5.028,5.786.663,7.634-7.063-2.989L49.4,75.207l.663-7.634-5.028-5.786,7.473-1.729,3.955-6.565Zm29.459,0,3.955,6.565,7.473,1.729-5.028,5.786.663,7.634-7.063-2.989-7.063,2.989.663-7.634-5.028-5.786,7.473-1.729Zm29.46,0,3.955,6.565,7.473,1.729-5.028,5.786.663,7.634-7.063-2.989-7.063,2.989.663-7.634-5.028-5.786,7.473-1.729Zm29.46,0,3.955,6.565,7.473,1.729-5.029,5.786.664,7.634-7.063-2.989-7.063,2.989.663-7.634-5.029-5.786,7.473-1.729,3.956-6.565Z" fill="#ffbf00"/>
      </g>
      <path id="Path_320" data-name="Path 320" d="M144.756,54.615l3.416,5.669.137.228.26.06,6.452,1.493-4.341,5-.175.2.023.266.573,6.591L145,71.539l-.245-.1-.246.1-6.1,2.581.573-6.591.023-.266-.175-.2-4.342-4.995,6.453-1.493.259-.06.138-.228,3.416-5.669Z" transform="translate(1172.878 565)" fill="#fff" stroke="#ffbf00" stroke-width="1.26"/>
      <path id="Path_321" data-name="Path 321" d="M137.86,75.108l7.063-2.989V53.394l-3.955,6.565-7.473,1.729,5.028,5.786Z" transform="translate(1172.878 565)" fill="#ffbf00"/>
    </g>
  </g>
</svg>
