<?xml version="1.0" encoding="UTF-8" standalone="no"?>
<svg width="199px" height="59px" viewBox="0 0 199 59" version="1.1" xmlns="http://www.w3.org/2000/svg" xmlns:xlink="http://www.w3.org/1999/xlink">
    <!-- Generator: Sketch 40.2 (33826) - http://www.bohemiancoding.com/sketch -->
    <title>Group 2</title>
    <desc>Created with Sketch.</desc>
    <defs>
        <rect id="path-1" x="0" y="0" width="199" height="59" rx="7.15187817"></rect>
        <mask id="mask-2" maskContentUnits="userSpaceOnUse" maskUnits="objectBoundingBox" x="0" y="0" width="199" height="59" fill="white">
            <use xlink:href="#path-1"></use>
        </mask>
    </defs>
    <g id="Page-1" stroke="none" stroke-width="1" fill="none" fill-rule="evenodd">
        <g id="App-Store">
            <g id="Group-2">
                <use id="background" stroke="#979797" mask="url(#mask-2)" stroke-width="1.01015228" fill="#000000" xlink:href="#path-1"></use>
                <g id="Group" transform="translate(16.000000, 7.000000)" fill="#FFFFFF">
                    <g id="icon" transform="translate(0.683947, 0.968000)">
                        <path d="M26.8805844,20.4753753 C26.837226,15.6112847 30.8261967,13.2448888 31.0086009,13.1347186 C28.74948,9.80999267 25.2479172,9.35572917 24.0174364,9.31950882 C21.0765423,9.00710834 18.2238601,11.0958149 16.7257535,11.0958149 C15.1977444,11.0958149 12.8907798,9.34969244 10.4044011,9.4010046 C7.20485188,9.45080757 4.21162874,11.3206829 2.56999088,14.2243473 C-0.817943008,20.1448646 1.7088038,28.8452935 4.95470162,33.6309066 C6.57839809,35.976174 8.47570087,38.5915848 10.9590893,38.4995247 C13.3886535,38.3999188 14.2961892,36.9360132 17.2281126,36.9360132 C20.1331239,36.9360132 20.9853402,38.4995247 23.5180675,38.4391575 C26.1255506,38.3999188 27.7671885,36.0863442 29.3340705,33.7199483 C31.2104417,31.0366244 31.9639804,28.3880116 31.9938827,28.2521853 C31.934078,28.232566 26.9314184,26.3053417 26.8805844,20.4753753" id="Fill-2"></path>
                        <path d="M22.0962118,6.17135711 C23.4029435,4.52182221 24.2970232,2.27766996 24.0488339,0.000315732532 C22.1575115,0.0848298723 19.7922373,1.32084917 18.4301862,2.93416373 C17.2251224,4.35581229 16.1486385,6.68598786 16.4267302,8.87731877 C18.5512907,9.03729196 20.7326656,7.79523594 22.0962118,6.17135711" id="Fill-3"></path>
                    </g>
                    <g id="App-Store" transform="translate(45.818706, 18.622095)">
                        <path d="M16.9363811,20.5088821 L13.5409717,20.5088821 L11.6810468,14.6094933 L5.21616324,14.6094933 L3.44445024,20.5088821 L0.138747762,20.5088821 L6.54532177,0.424700494 L10.5013999,0.424700494 L16.9363811,20.5088821 L16.9363811,20.5088821 Z M11.1203781,12.1344364 L9.4383721,6.89154137 C9.26045325,6.35427291 8.92554716,5.09259753 8.43514896,3.10651525 L8.37534431,3.10651525 C8.17798893,3.96071173 7.86251936,5.22238711 7.43043071,6.89154137 L5.77683191,12.1344364 L11.1203781,12.1344364 L11.1203781,12.1344364 Z" id="Fill-4"></path>
                        <path d="M33.3796719,13.089748 C33.3796719,15.5527315 32.7173353,17.4995751 31.391167,18.9287696 C30.2040445,20.2010092 28.7283646,20.8363744 26.9686125,20.8363744 C25.0683195,20.8363744 23.7017831,20.1527154 22.8719934,18.7808698 L22.8719934,26.3795965 L19.6844052,26.3795965 L19.6844052,10.7867377 C19.6844052,9.23982711 19.644037,7.6536778 19.566291,6.02678061 L22.3696343,6.02678061 L22.5475532,8.3237542 L22.6073578,8.3237542 C23.6703856,6.59272351 25.2836163,5.72796276 27.4485449,5.72796276 C29.1410167,5.72796276 30.5539018,6.4025667 31.6842098,7.75328376 C32.8130227,9.10701917 33.3796719,10.8848345 33.3796719,13.089748 L33.3796719,13.089748 Z M30.1322789,13.2074641 C30.1322789,11.797889 29.8183045,10.6358196 29.1873653,9.72125587 C28.4981167,8.76896261 27.5726396,8.29055221 26.4124292,8.29055221 C25.625998,8.29055221 24.9113323,8.55616808 24.2729176,9.08136309 C23.6330077,9.60806729 23.2143751,10.297763 23.0185149,11.1534687 C22.9198372,11.5503833 22.8704983,11.8748572 22.8704983,12.131418 L22.8704983,14.5491261 C22.8704983,15.5995161 23.1904532,16.4884238 23.8303631,17.215849 C24.4702729,17.940256 25.3015577,18.3039686 26.3242173,18.3039686 C27.5247958,18.3039686 28.4592436,17.8346133 29.1275607,16.9034486 C29.7973729,15.9692655 30.1322789,14.7377737 30.1322789,13.2074641 L30.1322789,13.2074641 Z" id="Fill-5"></path>
                        <path d="M49.8812722,13.089748 C49.8812722,15.5527315 49.2189356,17.4995751 47.8927673,18.9287696 C46.7041497,20.2010092 45.2299649,20.8363744 43.4687177,20.8363744 C41.5699198,20.8363744 40.2033834,20.1527154 39.3720986,18.7808698 L39.3720986,26.3795965 L36.1845103,26.3795965 L36.1845103,10.7867377 C36.1845103,9.23982711 36.1441422,7.6536778 36.0663961,6.02678061 L38.8697395,6.02678061 L39.0476584,8.3237542 L39.107463,8.3237542 C40.1689957,6.59272351 41.7822263,5.72796276 43.9486501,5.72796276 C45.6396268,5.72796276 47.054007,6.4025667 48.1858101,7.75328376 C49.3131279,9.10701917 49.8812722,10.8848345 49.8812722,13.089748 L49.8812722,13.089748 Z M46.6323841,13.2074641 C46.6323841,11.797889 46.3169146,10.6358196 45.6859754,9.72125587 C44.9982218,8.76896261 44.0742399,8.29055221 42.9140295,8.29055221 C42.1275983,8.29055221 41.4129326,8.55616808 40.7715276,9.08136309 C40.1331129,9.60806729 39.7144803,10.297763 39.51862,11.1534687 C39.4214375,11.5503833 39.3691084,11.8748572 39.3691084,12.131418 L39.3691084,14.5491261 C39.3691084,15.5995161 39.6905584,16.4884238 40.327478,17.215849 C40.9673879,17.9387468 41.7986726,18.3039686 42.8243225,18.3039686 C44.0263961,18.3039686 44.9608439,17.8346133 45.6276659,16.9034486 C46.297478,15.9692655 46.6323841,14.7377737 46.6323841,13.2074641 L46.6323841,13.2074641 Z" id="Fill-6"></path>
                        <path d="M68.3310092,14.8766184 C68.3310092,16.5850114 67.7404382,17.9749671 66.5622865,19.0479949 C65.2675156,20.2191194 63.4599198,20.8061908 61.1424893,20.8061908 C59.0014825,20.8061908 57.2850889,20.3896568 55.990318,19.5550797 L56.7274104,16.8732649 C58.1253443,17.7078421 59.6608289,18.1258852 61.3323691,18.1258852 C62.5344427,18.1258852 63.4688905,17.8512143 64.1357125,17.3063999 C64.8055246,16.7585672 65.1419258,16.0296327 65.1419258,15.1180874 C65.1419258,14.3016204 64.8638342,13.6164522 64.3136313,13.0595644 C63.7619333,12.5056949 62.8499123,11.9865366 61.5700926,11.5126538 C58.0864713,10.2011754 56.3431655,8.28149713 56.3431655,5.75965557 C56.3431655,4.11162984 56.9591535,2.76242197 58.1866441,1.7075044 C59.4156298,0.654096017 61.0453067,0.127391824 63.0726847,0.127391824 C64.8832707,0.127391824 66.3918432,0.445829029 67.5894315,1.08119426 L66.7895442,3.70415095 C65.6622263,3.08840508 64.3898822,2.78053214 62.9665314,2.78053214 C61.8422038,2.78053214 60.95859,3.05973064 60.329146,3.61510927 C59.7983796,4.11162984 59.5277635,4.71681145 59.5277635,5.43518164 C59.5277635,6.2275017 59.8342624,6.88550464 60.445765,7.40013539 C60.9750363,7.8770366 61.9408815,8.39468571 63.3373203,8.95006434 C65.0507237,9.64730599 66.3081167,10.4592454 67.1154795,11.3919193 C67.9273278,12.3245932 68.3310092,13.4881718 68.3310092,14.8766184" id="Fill-7"></path>
                        <path d="M78.8969972,8.44147032 L75.3834735,8.44147032 L75.3834735,15.4727449 C75.3834735,17.2611245 76.0024517,18.1530505 77.2433984,18.1530505 C77.8130378,18.1530505 78.2854946,18.1047567 78.6592737,18.0036416 L78.7474856,20.4470057 C78.1195366,20.6839471 77.2927372,20.8031724 76.2700776,20.8031724 C75.0096944,20.8031724 74.0274029,20.4138037 73.3157275,19.6395938 C72.6070423,18.8638748 72.2526997,17.5644699 72.2526997,15.7353424 L72.2526997,8.4354336 L70.1610318,8.4354336 L70.1610318,6.02074389 L72.2526997,6.02074389 L72.2526997,3.36911276 L75.3834735,2.41531032 L75.3834735,6.02074389 L78.8969972,6.02074389 L78.8969972,8.44147032" id="Fill-8"></path>
                        <path d="M94.7183195,13.1486061 C94.7183195,15.3746481 94.0888755,17.2022664 92.8284923,18.6314609 C91.5112947,20.1014032 89.7590182,20.8363744 87.5746531,20.8363744 C85.4665389,20.8363744 83.7905134,20.1315869 82.540596,18.7220117 C81.2906786,17.3124366 80.66572,15.5346213 80.66572,13.390075 C80.66572,11.1459228 81.3131054,9.30774025 82.5989055,7.87854578 C83.8876959,6.44935131 85.6250212,5.73249031 87.8093864,5.73249031 C89.9160055,5.73249031 91.6054871,6.44029623 92.8868019,7.84836216 C94.1098071,9.21718939 94.7183195,10.9814221 94.7183195,13.1486061 L94.7183195,13.1486061 Z M91.4141121,13.2225559 C91.4141121,11.8959858 91.13004,10.7580633 90.5604007,9.80577001 C89.8920836,8.65577403 88.933714,8.08228523 87.6957575,8.08228523 C86.4204232,8.08228523 85.4381317,8.65577403 84.7728049,9.80577001 C84.2001753,10.7580633 83.9175983,11.9156051 83.9175983,13.2829232 C83.9175983,14.6110025 84.2001753,15.7519434 84.7728049,16.6997091 C85.4620535,17.8512143 86.4234134,18.4262123 87.6703405,18.4262123 C88.8873653,18.4262123 89.8427448,17.8376316 90.5349837,16.6725439 C91.1195742,15.6976129 91.4141121,14.5521445 91.4141121,13.2225559 L91.4141121,13.2225559 Z" id="Fill-9"></path>
                        <path d="M105.083962,8.85649512 C104.768492,8.79763705 104.430596,8.76896261 104.079244,8.76896261 C102.957906,8.76896261 102.090739,9.19304249 101.480731,10.0502573 C100.949965,10.8048479 100.685329,11.7586503 100.685329,12.9101555 L100.685329,20.5088821 L97.497741,20.5088821 L97.497741,10.5875258 C97.497741,8.91988072 97.4663436,7.39711702 97.4050438,6.0282898 L100.181475,6.0282898 L100.298094,8.79914623 L100.386306,8.79914623 C100.724202,7.84685298 101.253474,7.07867982 101.9801,6.50519101 C102.691776,5.98603273 103.457275,5.72796276 104.284075,5.72796276 C104.578613,5.72796276 104.844743,5.75060048 105.080972,5.78682083 L105.083962,8.85649512" id="Fill-10"></path>
                        <path d="M119.339897,12.5826632 C119.339897,13.1591703 119.302519,13.6451266 119.223278,14.0420413 L109.662008,14.0420413 C109.696396,15.4727449 110.161377,16.5684104 111.047981,17.3230009 C111.853849,17.9960957 112.89744,18.3341522 114.175765,18.3341522 C115.59164,18.3341522 116.883421,18.1077751 118.045126,17.648984 L118.544495,19.882572 C117.18693,20.4786985 115.58267,20.7775164 113.734706,20.7775164 C111.509972,20.7775164 109.763676,20.1164951 108.492827,18.7974708 C107.226464,17.4769374 106.589544,15.7006313 106.589544,13.4791167 C106.589544,11.2968409 107.17862,9.47827771 108.362752,8.02795471 C109.600709,6.47953493 111.273744,5.70532505 113.378868,5.70532505 C115.446614,5.70532505 117.012001,6.47953493 118.073534,8.02795471 C118.916779,9.25491892 119.339897,10.7761734 119.339897,12.5826632 L119.339897,12.5826632 Z M116.300326,11.748086 C116.322752,10.7927744 116.113436,9.97177992 115.681347,9.27453827 C115.129649,8.37808472 114.280423,7.93136712 113.14264,7.93136712 C112.099048,7.93136712 111.251317,8.36752045 110.605427,9.24284547 C110.074661,9.93857794 109.759191,10.7761734 109.662008,11.7450677 L116.300326,11.748086 L116.300326,11.748086 Z" id="Fill-11"></path>
                    </g>
                    <g id="Available-on-the" transform="translate(47.031299, 1.350095)">
                        <path d="M8.37080531,10.5084711 L6.70076023,10.5084711 L5.78724407,7.60933424 L2.61012161,7.60933424 L1.73846872,10.5084711 L0.113277132,10.5084711 L3.26199238,0.636917715 L5.20564377,0.636917715 L8.37080531,10.5084711 L8.37080531,10.5084711 Z M5.51214265,6.3929343 L4.68534325,3.81525304 C4.59862649,3.55114635 4.43864903,2.93690966 4.19195482,1.95594197 L4.16205249,1.95594197 C4.06038457,2.38002185 3.91535827,2.99576772 3.69707127,3.81525304 L2.88522304,6.3929343 L5.51214265,6.3929343 L5.51214265,6.3929343 Z" id="Fill-12"></path>
                        <path d="M16.2440886,3.39117316 L13.5738106,10.5084711 L12.0502869,10.5084711 L9.46672567,3.39117316 L11.1502268,3.39117316 L12.3552907,7.15507074 C12.5586265,7.78439925 12.73206,8.38505331 12.8621351,8.95552376 L12.9054935,8.95552376 C13.0221126,8.44391137 13.1955461,7.84325731 13.412338,7.15507074 L14.6024507,3.39117316 L16.2440886,3.39117316" id="Fill-13"></path>
                        <path d="M21.9285213,10.5084711 L21.8119022,9.68898575 L21.7685438,9.68898575 C21.2901066,10.3484979 20.5933823,10.6699534 19.7082734,10.6699534 C18.4463951,10.6699534 17.546335,9.77651826 17.546335,8.57521013 C17.546335,6.81852336 19.0549075,5.90999636 21.6668759,5.90999636 L21.6668759,5.77869761 C21.6668759,4.84149617 21.1734875,4.37214086 20.2016618,4.37214086 C19.5049375,4.37214086 18.89493,4.54871504 18.3596783,4.90035423 L18.0412185,3.86052847 C18.6945844,3.45003122 19.5064327,3.2447826 20.4648023,3.2447826 C22.3067858,3.2447826 23.2367482,4.22575029 23.2367482,6.18919486 L23.2367482,8.81064237 C23.2367482,9.52901256 23.2666505,10.0859004 23.3384161,10.5099803 L21.9285213,10.5084711 L21.9285213,10.5084711 Z M21.7102343,6.96340475 C19.9684236,6.96340475 19.0982659,7.38899381 19.0982659,8.39863594 C19.0982659,9.14568057 19.5482959,9.51090239 20.1717595,9.51090239 C20.9701517,9.51090239 21.7102343,8.89666569 21.7102343,8.06208856 L21.7102343,6.96340475 L21.7102343,6.96340475 Z" id="Fill-14"></path>
                        <path d="M26.72635,2.21853947 C26.2045544,2.21853947 25.7978827,1.80804222 25.7978827,1.26624622 C25.7978827,0.724450216 26.2180104,0.329044777 26.7562523,0.329044777 C27.2929991,0.329044777 27.728078,0.724450216 27.7131269,1.26624622 C27.7131269,1.83822584 27.3079503,2.21853947 26.72635,2.21853947 L26.72635,2.21853947 Z M25.9728113,3.39117316 L27.5396934,3.39117316 L27.5396934,10.5084711 L25.9728113,10.5084711 L25.9728113,3.39117316 Z" id="Fill-15"></path>
                        <polygon id="Fill-16" points="30.3236002 0.125305333 31.8904822 0.125305333 31.8904822 10.5084711 30.3236002 10.5084711"></polygon>
                        <path d="M38.5497309,10.5084711 L38.4316167,9.68898575 L38.3897535,9.68898575 C37.9113162,10.3484979 37.2145919,10.6699534 36.329483,10.6699534 C35.0676047,10.6699534 34.1675446,9.77651826 34.1675446,8.57521013 C34.1675446,6.81852336 35.6761171,5.90999636 38.2880855,5.90999636 L38.2880855,5.77869761 C38.2880855,4.84149617 37.7946971,4.37214086 36.8228714,4.37214086 C36.1261472,4.37214086 35.5161396,4.54871504 34.980888,4.90035423 L34.660933,3.85901929 C35.3142989,3.44852204 36.1261472,3.24327342 37.0845168,3.24327342 C38.9265003,3.24327342 39.8579578,4.22424111 39.8579578,6.18768568 L39.8579578,8.80913319 C39.8579578,9.52750338 39.8878602,10.0843912 39.9566355,10.5084711 L38.5497309,10.5084711 L38.5497309,10.5084711 Z M38.3314439,6.96340475 C36.5896333,6.96340475 35.7194755,7.38899381 35.7194755,8.39863594 C35.7194755,9.14568057 36.1695055,9.51090239 36.7929691,9.51090239 C37.5913613,9.51090239 38.3314439,8.89666569 38.3314439,8.06208856 L38.3314439,6.96340475 L38.3314439,6.96340475 Z" id="Fill-17"></path>
                        <path d="M46.2047272,10.6699534 C45.2044943,10.6699534 44.4659067,10.2443644 43.9859744,9.40978726 L43.956072,9.40978726 L43.866365,10.5084711 L42.5327212,10.5084711 C42.5745844,9.93800063 42.5895356,9.29207113 42.5895356,8.59030194 L42.5895356,0.125305333 L44.1594079,0.125305333 L44.1594079,4.4325081 L44.1878151,4.4325081 C44.6527963,3.64169722 45.406335,3.24629178 46.4364702,3.24629178 C48.1349225,3.24629178 49.3250352,4.7117066 49.3250352,6.84870699 C49.3250352,9.05814807 48.0033523,10.6699534 46.2047272,10.6699534 L46.2047272,10.6699534 Z M45.8862674,4.4883478 C44.9847121,4.4883478 44.1594079,5.27915868 44.1594079,6.37784249 L44.1594079,7.62291687 C44.1594079,8.60388457 44.9009856,9.40978726 45.8578602,9.40978726 C47.0315266,9.40978726 47.7312411,8.44391137 47.7312411,6.90605587 C47.729746,5.47082467 47.0031194,4.4883478 45.8862674,4.4883478 L45.8862674,4.4883478 Z" id="Fill-18"></path>
                        <polygon id="Fill-19" points="51.6439608 0.125305333 53.2093478 0.125305333 53.2093478 10.5084711 51.6439608 10.5084711"></polygon>
                        <path d="M61.737492,7.33013575 L57.0338556,7.33013575 C57.0652531,8.67783444 57.9473718,9.4384617 59.2526085,9.4384617 C59.9508278,9.4384617 60.5892426,9.32074557 61.1543966,9.10191432 L61.3981006,10.2005981 C60.7312786,10.4933793 59.9478376,10.6397698 59.0343215,10.6397698 C56.8275296,10.6397698 55.5222929,9.23321307 55.5222929,7.05244643 C55.5222929,4.87017061 56.858927,3.22969079 58.8593928,3.22969079 C60.6565228,3.22969079 61.7913162,4.57738948 61.7913162,6.61327474 C61.7958016,6.89096406 61.7823455,7.13997893 61.737492,7.33013575 L61.737492,7.33013575 Z M60.3021802,6.20277749 C60.3021802,5.10409367 59.7489871,4.3283746 58.7472591,4.3283746 C57.847199,4.3283746 57.1385138,5.11918548 57.0338556,6.20277749 L60.3021802,6.20277749 L60.3021802,6.20277749 Z" id="Fill-20"></path>
                        <path d="M71.2344717,10.6699534 C69.1742012,10.6699534 67.8390623,9.11700613 67.8390623,7.00868018 C67.8390623,4.81131255 69.2026085,3.2447826 71.3525859,3.2447826 C73.381459,3.2447826 74.7479954,4.72378004 74.7479954,6.89247324 C74.7479954,9.11700613 73.3395957,10.6699534 71.2344717,10.6699534 L71.2344717,10.6699534 Z M71.2942764,4.4008153 C70.1624732,4.4008153 69.4373417,5.46931549 69.4373417,6.96340475 C69.4373417,8.42881956 70.1774244,9.49731976 71.2793252,9.49731976 C72.381226,9.49731976 73.1213087,8.35486969 73.1213087,6.93322113 C73.1213087,5.4844073 72.3961772,4.4008153 71.2942764,4.4008153 L71.2942764,4.4008153 Z" id="Fill-21"></path>
                        <path d="M83.1714815,10.5084711 L81.6075897,10.5084711 L81.6075897,6.42160874 C81.6075897,5.16295173 81.1276573,4.53211405 80.1842388,4.53211405 C79.2557715,4.53211405 78.6158617,5.33801674 78.6158617,6.27521818 L78.6158617,10.5084711 L77.0519698,10.5084711 L77.0519698,5.42554924 C77.0519698,4.79622073 77.0340284,4.1216168 76.9921652,3.38966398 L78.3706626,3.38966398 L78.4439233,4.4883478 L78.4887768,4.4883478 C78.9059142,3.72772054 79.7641111,3.24327342 80.7224807,3.24327342 C82.1996558,3.24327342 83.1714815,4.38572348 83.1714815,6.24503456 L83.1714815,10.5084711" id="Fill-22"></path>
                        <path d="M93.423495,4.57738948 L91.6996257,4.57738948 L91.6996257,8.03341412 C91.6996257,8.91326669 92.0031344,9.35243838 92.6116468,9.35243838 C92.8867482,9.35243838 93.1214815,9.32225475 93.308371,9.2784885 L93.3517294,10.4797966 C93.0467257,10.5975128 92.6385589,10.6563708 92.1347046,10.6563708 C90.8982433,10.6563708 90.162646,9.96818425 90.162646,8.16622206 L90.162646,4.57738948 L89.135501,4.57738948 L89.135501,3.39117316 L90.162646,3.39117316 L90.162646,2.08724072 L91.6996257,1.61788541 L91.6996257,3.38966398 L93.423495,3.38966398 L93.423495,4.57738948" id="Fill-23"></path>
                        <path d="M101.721391,10.5084711 L100.153014,10.5084711 L100.153014,6.45179237 C100.153014,5.17804354 99.6730818,4.53362323 98.7311584,4.53362323 C97.9193102,4.53362323 97.1657715,5.09051104 97.1657715,6.2178693 L97.1657715,10.5084711 L95.5973943,10.5084711 L95.5973943,0.125305333 L97.1657715,0.125305333 L97.1657715,4.4008153 L97.1956738,4.4008153 C97.6875671,3.62509623 98.4007377,3.24327342 99.3142538,3.24327342 C100.807875,3.24327342 101.721391,4.41439792 101.721391,6.27521818 L101.721391,10.5084711" id="Fill-24"></path>
                        <path d="M109.72774,7.33013575 L105.025599,7.33013575 C105.055501,8.67783444 105.93762,9.4384617 107.244352,9.4384617 C107.944066,9.4384617 108.580986,9.32074557 109.143149,9.10191432 L109.388349,10.2005981 C108.723022,10.4933793 107.938086,10.6397698 107.023074,10.6397698 C104.817778,10.6397698 103.512541,9.23321307 103.512541,7.05244643 C103.512541,4.87017061 104.84768,3.22969079 106.848146,3.22969079 C108.646771,3.22969079 109.780069,4.57738948 109.780069,6.61327474 C109.786049,6.89096406 109.771098,7.13997893 109.72774,7.33013575 L109.72774,7.33013575 Z M108.290933,6.20277749 C108.290933,5.10409367 107.74073,4.3283746 106.739002,4.3283746 C105.838942,4.3283746 105.128762,5.11918548 105.025599,6.20277749 L108.290933,6.20277749 L108.290933,6.20277749 Z" id="Fill-25"></path>
                    </g>
                </g>
            </g>
        </g>
    </g>
</svg>