<svg xmlns="http://www.w3.org/2000/svg" viewBox="0 0 534 96.4"><defs><style>.cls-1{fill:#fff;}.cls-2{fill:#f47722;}</style></defs><title>os-cloud-logo-white-1Asset 1</title><g id="Layer_2" data-name="Layer 2"><g id="Layer_1-2" data-name="Layer 1"><path class="cls-1" d="M79.2,50.2c0-4.1,0-7.7-.1-11.1H90.2c.1.9.3,5,.3,7.2,1.8-4.7,6.2-8.1,13.1-8.1V49c-8.2-.2-13.1,2-13.1,13.2V80H79.2Z"/><path class="cls-1" d="M142.8,69.4a74.9,74.9,0,0,0,.6,10.5H132.6a16.76,16.76,0,0,1-.6-4c-1.5,2.3-4.3,4.9-11.5,4.9-9.8,0-14-6.5-14-12.8,0-9.3,7.5-13.6,19.4-13.6h5.8V51.9c0-2.9-1-5.8-6.3-5.8-4.8,0-5.8,2-6.3,5H108.4c.6-7.3,5.1-13.1,17.5-13,10.9.2,16.9,4.5,16.9,14.2Zm-11-8h-4.6c-6.8,0-9.3,2.1-9.3,6,0,3,1.8,5.4,5.9,5.4,7.2,0,8.1-5,8.1-10.4v-1Z"/><path class="cls-1" d="M153.1,49.4c0-3.5,0-7.3-.1-10.3h10.9a42.23,42.23,0,0,1,.4,5.2c1.4-2.6,4.7-6.1,11.8-6.1,8.2,0,13.5,5.5,13.5,15.8V80H178.3V55.3c0-4.6-1.5-7.9-6.5-7.9-4.8,0-7.5,2.7-7.5,9.9V80H153V49.4Z"/><path class="cls-1" d="M236.9,75c0,13.1-4.8,21.4-20.3,21.4-14.9,0-17.8-8.3-18.2-12.9h11.5c.8,2.8,2.9,4.7,7.2,4.7,7.3,0,8.7-4.5,8.7-12.5V73.8c-2.1,3.5-5.5,5.7-11.5,5.7-10.7,0-16.9-8.8-16.9-19.8,0-12.8,7.6-21.5,17.8-21.5,7,0,9.9,3.3,10.5,5.2.1-1.1.4-3.6.4-4.3h10.7c-.1,3.6-.1,7.8-.1,11.7V75ZM209,59.2c0,7,3.5,11.2,8.5,11.2,6.8,0,8.6-4.7,8.6-11.5s-1.2-11.6-8.4-11.6C212.9,47.3,209,51,209,59.2Z"/><path class="cls-1" d="M256.2,62c0,5.1,2.6,10.1,8.2,10.1,4.7,0,6-1.9,7.1-4.4h11.3c-1.4,5-5.9,13.2-18.7,13.2-13.4,0-19.3-10-19.3-20.8,0-12.8,6.6-21.9,19.7-21.9,14,0,18.8,10.1,18.8,20.3,0,1.4,0,2.3-.1,3.4h-27Zm15.7-7c-.1-4.8-2-8.7-7.5-8.7s-7.6,3.7-8,8.7Z"/><path class="cls-1" d="M299.4,67.7c.9,3.3,3.5,5.1,7.7,5.1s5.7-1.5,5.7-4-1.8-3.6-7.6-5.1c-13.3-3.3-15.5-7.4-15.5-13.1,0-6,4.2-12.4,16.5-12.4s16.6,6.8,16.9,12.3H312.4c-.4-1.5-1.4-4.4-6.7-4.4-3.7,0-4.9,1.7-4.9,3.5,0,2,1.3,3,7.9,4.6,13.6,3.2,15.5,7.8,15.5,13.8,0,6.8-5.1,12.9-17.6,12.9s-17.5-6-18.4-13.2Z"/><path class="cls-1" d="M367.3,66.8c-1.4,6.8-6.2,14.1-18.3,14.1-12.7,0-19.2-8.8-19.2-21,0-12,7.4-21.6,19.8-21.6,13.8,0,17.6,9.9,17.8,14.5h-11c-.7-3.3-2.6-5.6-7-5.6-5.2,0-8.1,4.5-8.1,12.4,0,8.7,3.1,12.6,8,12.6,3.9,0,6-2.3,7-5.4Z"/><path class="cls-1" d="M374.5,50.2c0-4.1,0-7.7-.1-11.1h11.1c.1.9.3,5,.3,7.2,1.8-4.7,6.2-8.1,13.1-8.1V49c-8.2-.2-13.1,2-13.1,13.2V80H374.5Z"/><path class="cls-1" d="M441.4,68.1c0,3.9,0,8.2.1,11.9H430.4c-.2-1.1-.2-3.3-.3-4.7-2.4,4.1-6,5.7-11.2,5.7-8.3,0-13.6-5.1-13.6-15.2V39.2h11.3V63.5c0,4.5,1.4,8.2,6.3,8.2,5.2,0,7.3-2.7,7.3-10.8V39.2h11.3V68.1Z"/><path class="cls-1" d="M451.6,49.7c0-3.5,0-7-.1-10.5h10.8c.1,1,.4,3.3.4,4.9A12.89,12.89,0,0,1,474,38.3c5.9,0,9.1,3,10.5,6.2,2.4-3.3,5.9-6.2,12.6-6.2,7.1,0,12.9,4.4,12.9,15V80.1H499V54.6c0-3.7-1.3-7.3-6-7.3s-6.7,3.1-6.7,9.4V80H475.2V55c0-4.2-1-7.6-5.9-7.6-4.6,0-6.8,2.8-6.8,9.8V80H451.3V49.7Z"/><circle class="cls-2" cx="526.1" cy="72" r="7.9"/><path class="cls-1" d="M34.1,20.1A34.1,34.1,0,1,0,68.2,54.2,34.08,34.08,0,0,0,34.1,20.1Zm0,57.5A23.4,23.4,0,1,1,57.5,54.2,23.43,23.43,0,0,1,34.1,77.6Z"/><path class="cls-1" d="M35.1,15.5S34.2.6,54.8,0C54.8,0,54.8,15.9,35.1,15.5Z"/></g></g></svg>