<?xml version="1.0" encoding="utf-8"?>
<!-- Generator: Adobe Illustrator 21.0.2, SVG Export Plug-In . SVG Version: 6.00 Build 0)  -->
<svg version="1.1" id="Layer_1" xmlns="http://www.w3.org/2000/svg" xmlns:xlink="http://www.w3.org/1999/xlink" x="0px" y="0px"
	 viewBox="0 0 547 161" style="enable-background:new 0 0 547 161;" xml:space="preserve">
<style type="text/css">
	.st0{fill-rule:evenodd;clip-rule:evenodd;fill:#FF7A59;}
	.st1{fill-rule:evenodd;clip-rule:evenodd;fill:#FF7A59;stroke:#FF7A59;stroke-width:0.216;stroke-miterlimit:2.6131;}
	.st2{fill-rule:evenodd;clip-rule:evenodd;fill:#33475B;stroke:#33475B;stroke-width:0.216;stroke-miterlimit:2.6131;}
	.st3{fill:#C6C6C6;}
</style>
<g>
	<path class="st0" d="M63.5,28.5C62.8,33.6,62,38.8,62,39.8c0,4.2-3.4,7.5-7.5,7.5c-4.2,0-7.5-3.4-7.5-7.5c0.8-3.1,1.5-7.3,2.7-10.9
		c-20,4-35,21.8-35,43c0,24.2,19.5,43.7,43.7,43.7c24.2,0,43.7-19.5,43.7-43.7C101.8,49.6,85,31.1,63.5,28.5L63.5,28.5L63.5,28.5z
		 M68.8,39.1c14,4.6,23.7,17.6,23.7,32.7c0,18.9-15.4,34.3-34.3,34.3c-18.9,0-34.3-15.4-34.3-34.3c0-12.5,6.9-23.9,17.3-29.9
		c0.1,7.4,6.1,13.4,13.6,13.4s13.4-6,13.6-13.3C68.4,41.6,68.5,40.4,68.8,39.1z"/>
	<path class="st0" d="M6.8,57.7c0,0-0.8-9.1,10.6-23.6c11.4-14.4,14.2-2.8,23.2-8.7C40.5,25.6,8.9,46.8,6.8,57.7z"/>
	<path class="st0" d="M23.6,13.2C16,17.8,13.5,28.8,13.2,36.5c1.1-1.7,2.4-3.5,3.8-5.3c11-14,13.8-2.7,22.5-8.4l0,0
		c1.3-1.5,2.4-3.5,1.5-5.7C41.2,17.1,36.4,5.4,23.6,13.2z"/>
	<path class="st0" d="M51.1,38.5c0,0,0.3,2.7,2.5,3.2c2.1,0.4,3.5-0.4,4.2-2c0.6-1.4-0.3-6.4-0.3-16.1c0-10.6,5.4-11,5.4-11
		s-4.6-2.1-4-7c0,0-4,8.4-4.9,14.5c0,0-4.5-3.5-10.8-3.4c0,0,0.6,2.5,0,3.1c0,0,7.1-0.6,10.2,3.9C53.6,23.7,56.4,31.2,51.1,38.5z"/>
	<path class="st0" d="M60.3,5.8c0,0-1.1,0.7,0.7,3.9c0.8,1.4,2.8,2.8,3.1,1.1C64.4,9.1,61.6,4.7,60.3,5.8z"/>
	<path class="st1" d="M304.4,89.1c1.8-0.4,3.3-0.9,4.7-1.5l0.5-0.2l0.1,0.5l1.5,6.6l0.1,0.3L311,95c-1.7,0.8-3.9,1.5-6.5,2
		c-2.3,0.4-4.8,0.7-7.7,0.7c-6.7,0-12-2.2-15.6-6.1c-3.7-4-5.8-9.7-5.8-16.6c0-6.9,2-13,5.7-17.4c3.5-4.1,8.4-6.6,14.6-6.6
		c5.8,0,10.1,2.2,13,5.8c3.4,4.1,4.8,9.9,4.8,15.9c0,0.8,0,1.5-0.1,2.1c0,0.7-0.1,1.3-0.2,1.8l-0.1,0.4h-0.4h-27.5
		c0.2,4.2,1.5,7.3,3.5,9.3c2.4,2.4,5.8,3.5,9.4,3.5C300.6,89.7,302.6,89.5,304.4,89.1L304.4,89.1z M288.6,61.4
		c-1.9,2.2-2.9,5.3-3.2,8h18.4c0-2.5-0.6-5.2-1.9-7.3c-1.3-2.1-3.5-3.6-6.7-3.7l-0.2,0v0C292.2,58.4,290.1,59.6,288.6,61.4z"/>
	<path class="st1" d="M258.2,57l0.3-4.8l0-0.4h0.4h8.2h0.5l0,0.5c-0.1,1.6-0.2,3.3-0.3,5.3c-0.1,2-0.1,4.4-0.1,7.4v25.1
		c0,4.4-0.2,10.8-3,16c-2.9,5.3-8.4,9.4-19,9.4c-2.6,0-5.4-0.3-7.8-0.9c-2.4-0.5-4.6-1.4-6.3-2.4l-0.3-0.2l0.1-0.3l2.1-7.2l0.2-0.5
		l0.5,0.3c1.5,0.9,3.4,1.7,5.6,2.3c1.8,0.5,3.9,0.8,6.1,0.8c3.7,0,6.7-1.1,8.9-3.4c1.9-2.2,3-5.5,3-10.1v-3c-1.2,1.6-2.7,3-4.6,4
		c-2.1,1.1-4.6,1.8-7.4,1.8c-5.3,0-9.8-2.3-12.9-6.2c-3.2-3.9-5-9.4-5-15.7c0-7.2,2.1-12.9,5.3-16.8v0c3.6-4.5,8.6-6.9,13.8-6.9
		c3,0,5.5,0.7,7.4,1.8C255.7,53.9,257.1,55.4,258.2,57L258.2,57z M254.5,85.6c1.5-1.8,2.5-4.3,2.5-7.6v-8.6c0-2.9-1-5.5-2.6-7.3
		c-1.6-1.8-3.8-2.9-6.5-2.9c-3.1,0-5.7,1.5-7.5,4.1c-1.8,2.6-2.9,6.4-2.9,11c0,4.3,1,8,2.9,10.6c1.8,2.4,4.3,3.8,7.5,3.8
		C250.3,88.6,252.8,87.6,254.5,85.6z"/>
	<path class="st1" d="M166.8,55.6c3.2,3.5,4.3,8.5,4.3,13.7v16.6c0,1.9,0,3.8,0.1,5.5c0.1,1.8,0.2,3.4,0.5,4.8l0.1,0.5h-0.5h-8.4
		h-0.4l0-0.4l-0.5-4.3c-1.3,1.6-3,3-5,4c-2.1,1-4.5,1.6-7.2,1.6c-4.1,0-7.3-1.4-9.6-3.7c-2.5-2.5-3.8-5.9-3.8-9.6
		c0-5.5,2.3-9.7,6.6-12.5c4.3-2.8,10.5-4.3,18.1-4.3c0-1.6-0.1-3.7-1.1-5.5c-1-1.9-3.1-3.5-7.4-3.5c-1.9,0-3.8,0.3-5.6,0.8
		c-1.8,0.5-3.5,1.3-4.9,2.2l-0.5,0.3l-0.2-0.5l-1.9-6.2l-0.1-0.3l0.3-0.2c1.7-1.1,4-2.1,6.6-2.8c2.4-0.6,5-1,7.8-1
		C160.1,50.9,164.1,52.7,166.8,55.6L166.8,55.6z M158.6,87.5c1.6-1.5,2.5-3.6,2.5-6v-6.8c-3.5,0-7.1,0.4-10,1.6
		c-2.9,1.3-4.8,3.4-4.8,7.1c0,2.2,0.6,3.8,1.6,4.8c1.1,1.2,2.7,1.8,4.4,1.8C154.8,90,157,89.1,158.6,87.5z"/>
	<path class="st1" d="M215.2,56c2.3,2.9,3.9,7.3,3.9,13.4v26.9v0.4h-0.4h-9.3H209v-0.4V70.5c0-3.3-0.6-6.3-2.1-8.3
		c-1.2-1.7-3.1-2.8-5.9-2.8c-2.3,0-4.7,1-6.5,3c-1.5,1.7-2.5,4.2-2.5,7.3v26.5v0.4h-0.4h-9.3h-0.4v-0.4V64.7c0-4.9-0.2-8.6-0.3-12.3
		v0l0-0.1l0-0.4h0.4h8.1h0.4l0,0.4l0.4,5.6c1.2-1.8,3-3.6,5.3-4.9c2.2-1.2,4.9-2,8-2C208.1,50.9,212.3,52.4,215.2,56z"/>
	<path class="st1" d="M131.5,51c0.4,0,0.8,0.1,1.2,0.2l0.3,0.1v0.4v8.9V61l-0.5-0.1c-0.4-0.1-0.8-0.1-1.2-0.2
		c-0.4,0-0.9-0.1-1.4-0.1c-3,0-5.4,1.2-7,3.3c-1.7,2.2-2.7,5.3-2.7,9v23.3v0.4h-0.4h-9.3H110v-0.4V65.7c0-2.6,0-4.9-0.1-7.1
		c0-2.2-0.1-4.3-0.3-6.3l0-0.5h0.5h8.1h0.4l0,0.4l0.3,6.8c1-2.3,2.5-4.2,4.3-5.6c2.1-1.7,4.6-2.6,7.1-2.6
		C130.7,50.9,131.1,50.9,131.5,51z"/>
	<path class="st2" d="M528.9,56.1c2.2,3,3.7,7.4,3.7,13.7v26.6v0.4h-0.4h-9.1h-0.4v-0.4V71.2c0-3.7-0.6-6.8-2-8.9
		c-1.2-1.9-3.1-2.9-5.6-2.9c-2.1,0-4.3,1-5.8,2.9c-1.4,1.7-2.3,4-2.3,6.9v27.2v0.4h-0.4h-9.1H497v-0.4V69.8c0-3.2-0.6-5.9-1.9-7.8
		c-1.2-1.7-2.9-2.6-5.3-2.6c-2.1,0-4.4,1-6.1,3c-1.4,1.7-2.4,4.2-2.4,7.2v26.7v0.4h-0.4h-9.1h-0.4v-0.4V64.7c0-4.9-0.2-8.5-0.3-12.1
		l0-0.2l0-0.4h0.5h8h0.4l0,0.4l0.4,5.5c1.2-1.8,2.9-3.6,5.1-4.9c2.1-1.2,4.6-2,7.6-2c2.9,0,5.4,0.8,7.4,2.2c1.9,1.3,3.4,3.2,4.4,5.5
		c1.4-2.2,3.2-4.1,5.3-5.4c2.3-1.5,5-2.3,8.3-2.3C522.2,50.9,526.2,52.4,528.9,56.1L528.9,56.1z"/>
	<path class="st2" d="M450.5,51.9h9.3h0.4v0.4v31.5c0,4.2,0.2,7.8,0.3,11l0.1,1.6l0,0.5h-0.5h-8.2h-0.4l0-0.4l-0.4-5.5
		c-1.1,1.6-2.9,3.5-5.3,4.8c-2.1,1.2-4.7,1.9-7.8,1.9c-4.2,0-8.2-1.4-10.9-5c-2.3-3-3.7-7.6-3.7-14.2V52.3v-0.4h0.4h9.3h0.4v0.4
		v24.6c0,3.7,0.5,6.8,1.8,8.9c1.2,2.1,3.2,3.3,6,3.3c2.2,0,4.6-0.9,6.3-2.8c1.5-1.6,2.4-3.8,2.4-6.7V52.3v-0.4H450.5z"/>
	<path class="st2" d="M415.7,51c0.4,0,0.8,0.1,1.2,0.2l0.3,0.1v0.4v8.9V61l-0.5-0.1c-0.4-0.1-0.8-0.1-1.2-0.2
		c-0.4,0-0.9-0.1-1.4-0.1c-3,0-5.4,1.2-7,3.3c-1.7,2.2-2.7,5.3-2.7,9v23.3v0.4h-0.4h-9.3h-0.4v-0.4V65.8c0-2.6,0-4.9-0.1-7.1
		c0-2.2-0.1-4.3-0.3-6.3l0-0.5h0.5h8.1h0.4l0,0.4l0.3,6.8c1-2.3,2.5-4.2,4.3-5.6c2.1-1.7,4.6-2.6,7.1-2.6
		C414.9,50.9,415.3,50.9,415.7,51z"/>
	<path class="st2" d="M381.4,88.9c1.3-0.3,2.5-0.8,3.5-1.2l0.5-0.2l0.1,0.5l1.3,7l0.1,0.3l-0.3,0.1c-1.2,0.6-3.1,1.2-5.5,1.7
		c-1.8,0.4-3.8,0.6-6.1,0.6c-6.5,0-11.9-2.2-15.6-6.3c-3.7-4-5.8-9.7-5.8-16.7c0-6.9,2.3-13,6.5-17.3c4-4.1,9.7-6.6,16.8-6.6
		c1.9,0,3.8,0.2,5.4,0.5h0c2,0.4,3.6,1,4.7,1.5l0.3,0.2l-0.1,0.3l-1.8,7.1l-0.1,0.5l-0.5-0.2c-0.8-0.4-1.8-0.8-3.1-1.1
		c-1.3-0.3-2.8-0.6-4.7-0.6c-4,0-7.2,1.6-9.4,4.1c-2.4,2.8-3.6,6.7-3.6,11.1c0,4.6,1.3,8.3,3.5,10.9c2.3,2.7,5.6,4.1,9.4,4.1
		C378.5,89.4,380.1,89.2,381.4,88.9z"/>
	<path class="st2" d="M341.2,51.6c2,0.5,3.7,1.2,5,1.9l0.3,0.2l-0.1,0.3l-2.1,6.7l-0.2,0.5l-0.5-0.3c-1-0.6-2.3-1.3-4-1.8
		c-1.3-0.4-2.7-0.6-4.2-0.6c-1.9,0-3.3,0.5-4.3,1.4c-1.1,0.9-1.6,2.2-1.6,3.6c0,1.4,0.5,2.4,1.5,3.4h0c1.1,1,2.9,2,5.6,3.1l0,0
		c3.7,1.5,6.5,3.3,8.5,5.5c1.9,2.2,2.9,4.9,2.9,8.2c0,4.3-1.7,7.8-4.6,10.2c-2.9,2.4-7.2,3.7-12.3,3.7c-2.3,0-4.5-0.3-6.6-0.8
		c-2.2-0.5-4.1-1.3-5.6-2.2l-0.3-0.2l0.1-0.3l2.1-6.9l0.2-0.5l0.5,0.3c1.2,0.7,3,1.5,4.9,2.1c1.6,0.5,3.3,0.8,4.9,0.8
		c2.3,0,4-0.5,5.1-1.4c1.2-0.9,1.8-2.3,1.8-3.9c0-1.6-0.4-2.8-1.5-3.8c-1.1-1.1-2.8-2.1-5.4-3.2v0c-3.9-1.5-6.7-3.4-8.6-5.5h0
		c-2-2.3-2.9-4.8-2.9-7.5c0-3.9,1.6-7.4,4.5-9.8c2.7-2.4,6.6-3.8,11.2-3.8C337.6,50.9,339.5,51.2,341.2,51.6z"/>
	<g>
		<path class="st3" d="M437.4,137c-0.2,1-0.7,2.1-1.4,3.2c-0.7,1.2-1.8,2.3-3.1,3.4c-1.3,1.1-2.9,2-4.7,2.7c-1.8,0.7-3.8,1-6,1
			c-1.7,0-3.2-0.2-4.5-0.5s-2.4-0.8-3.4-1.5c-1-0.7-1.8-1.5-2.5-2.6c-0.6-1-1.1-2.1-1.4-3.3s-0.5-2.5-0.5-3.9c0-1.4,0.2-2.8,0.5-4.4
			c0.5-2.5,1.4-4.8,2.6-6.8s2.6-3.7,4.3-5.1c1.7-1.4,3.5-2.5,5.6-3.2c2-0.7,4.1-1.1,6.2-1.1c2.6,0,4.7,0.5,6.5,1.5s3.1,2.3,3.8,3.7
			s1,2.9,0.7,4.2c-0.2,0.7-0.5,1.4-1.2,1.9c-0.6,0.6-1.3,0.8-2.1,0.8c-0.8,0-1.4-0.2-1.7-0.6c-0.3-0.4-0.6-1-1-2
			c-0.5-1.5-1.2-2.7-2.2-3.5c-1-0.8-2.3-1.2-3.9-1.2c-2.6,0-4.9,1-6.9,3c-2,2-3.4,4.8-4.1,8.4c-0.5,2.4-0.6,4.5-0.3,6.1
			c0.3,1.6,1.1,2.8,2.2,3.6c1.1,0.8,2.5,1.2,4.2,1.2c1.8,0,3.5-0.5,5-1.4c1.5-0.9,2.7-2.2,3.7-4c0.4-0.8,0.9-1.5,1.4-2
			s1.2-0.8,2.1-0.8c0.8,0,1.4,0.3,1.8,0.8C437.5,135.5,437.6,136.2,437.4,137z"/>
		<path class="st3" d="M441.3,143.8l5.4-25.2c0.2-1.2,0.7-2,1.4-2.6s1.4-0.9,2.3-0.9c0.9,0,1.5,0.3,2,0.9c0.4,0.6,0.5,1.5,0.3,2.7
			l-5.4,25.2c-0.3,1.2-0.7,2.1-1.4,2.7c-0.7,0.6-1.5,0.9-2.3,0.9c-0.9,0-1.5-0.3-1.9-0.9C441.2,145.8,441.1,145,441.3,143.8z"/>
		<path class="st3" d="M477.2,135.5c-0.4,1.7-1,3.3-1.8,4.8c-0.9,1.5-1.9,2.7-3.2,3.8c-1.3,1.1-2.7,1.9-4.2,2.4
			c-1.6,0.6-3.2,0.8-5,0.8c-1.8,0-3.3-0.3-4.6-0.9c-1.3-0.6-2.4-1.4-3.2-2.4c-0.8-1.1-1.3-2.3-1.6-3.8c-0.2-1.4-0.2-3,0.2-4.8
			c0.4-1.8,1-3.4,1.9-4.8c0.9-1.5,1.9-2.7,3.2-3.8c1.2-1,2.7-1.8,4.2-2.4c1.6-0.6,3.2-0.8,5-0.8c1.8,0,3.3,0.3,4.7,0.9
			s2.4,1.4,3.2,2.4c0.8,1.1,1.3,2.3,1.6,3.8C477.6,132.2,477.6,133.8,477.2,135.5z M471.3,135.5c0.5-2.4,0.4-4.2-0.4-5.5
			c-0.8-1.3-2.1-2-3.8-2c-1.2,0-2.2,0.3-3.2,0.9c-1,0.6-1.9,1.5-2.6,2.6c-0.7,1.2-1.2,2.5-1.6,4c-0.3,1.5-0.4,2.8-0.1,4
			c0.2,1.1,0.7,2,1.5,2.6c0.7,0.6,1.7,0.9,2.9,0.9c1.8,0,3.4-0.7,4.7-2C469.8,139.7,470.8,137.9,471.3,135.5z"/>
		<path class="st3" d="M495.3,144.1l0.2-0.7c-0.9,0.9-1.8,1.6-2.7,2.2c-0.9,0.6-1.8,1-2.8,1.3c-1,0.3-2.1,0.4-3.3,0.4
			c-1.4,0-2.6-0.3-3.6-0.9c-1-0.6-1.7-1.4-2.1-2.4c-0.5-1.2-0.5-3,0-5.3l2.5-11.5c0.2-1.2,0.7-2,1.4-2.6c0.7-0.6,1.4-0.9,2.3-0.9
			c0.9,0,1.6,0.3,2,0.9c0.4,0.6,0.5,1.4,0.3,2.6l-2,9.3c-0.3,1.4-0.4,2.5-0.4,3.4c0,0.9,0.3,1.6,0.8,2.2c0.5,0.5,1.2,0.8,2.3,0.8
			c1,0,2-0.3,3-0.9c1-0.6,1.8-1.3,2.4-2.3c0.5-0.8,1.1-2.6,1.7-5.4l1.5-7.1c0.2-1.2,0.7-2,1.4-2.6c0.7-0.6,1.4-0.9,2.3-0.9
			s1.5,0.3,1.9,0.9c0.4,0.6,0.5,1.4,0.2,2.6l-3.6,16.9c-0.2,1.1-0.7,1.9-1.3,2.5c-0.6,0.6-1.3,0.8-2.2,0.8s-1.4-0.3-1.8-0.9
			C495.2,145.9,495.1,145.1,495.3,144.1z"/>
		<path class="st3" d="M522.9,144l0.1-0.6c-1,0.9-1.9,1.6-2.8,2.2c-0.9,0.6-1.8,1-2.8,1.3c-1,0.3-2,0.4-3,0.4
			c-1.4,0-2.7-0.3-3.7-0.9c-1.1-0.6-1.9-1.4-2.6-2.5c-0.6-1.1-1-2.4-1.2-3.9s0-3.1,0.3-4.8c0.8-3.6,2.3-6.5,4.5-8.5
			c2.2-2,4.8-3,7.8-3c1.7,0,3.1,0.3,4.1,0.9c1,0.6,2,1.5,2.8,2.7l1.8-8.6c0.3-1.2,0.7-2.1,1.3-2.7c0.6-0.6,1.4-0.9,2.3-0.9
			s1.5,0.3,1.9,0.8c0.4,0.6,0.4,1.4,0.2,2.5l-5.5,25.7c-0.2,1.1-0.7,1.9-1.3,2.5s-1.4,0.8-2.2,0.8c-0.8,0-1.4-0.3-1.8-0.9
			C522.8,145.9,522.7,145.1,522.9,144z M513.1,135.5c-0.3,1.6-0.4,2.9-0.1,4c0.3,1.1,0.8,1.9,1.5,2.5c0.7,0.6,1.6,0.8,2.7,0.8
			c1,0,2-0.3,3-0.8s1.8-1.3,2.6-2.5c0.7-1.1,1.3-2.5,1.6-4.1c0.3-1.5,0.4-2.9,0.1-4c-0.3-1.1-0.8-2-1.5-2.6
			c-0.7-0.6-1.6-0.9-2.7-0.9c-1.1,0-2.1,0.3-3.1,0.9s-1.8,1.5-2.5,2.6C514,132.7,513.5,134,513.1,135.5z"/>
	</g>
</g>
<g>
</g>
<g>
</g>
<g>
</g>
<g>
</g>
<g>
</g>
<g>
</g>
<g>
</g>
<g>
</g>
<g>
</g>
<g>
</g>
<g>
</g>
<g>
</g>
<g>
</g>
<g>
</g>
<g>
</g>
</svg>
