<?xml version="1.0" encoding="utf-8"?>
<!-- Generator: Adobe Illustrator 21.0.2, SVG Export Plug-In . SVG Version: 6.00 Build 0)  -->
<svg version="1.1" xmlns="http://www.w3.org/2000/svg" xmlns:xlink="http://www.w3.org/1999/xlink" x="0px" y="0px"
	 viewBox="0 0 78.8 91" style="enable-background:new 0 0 78.8 91;" xml:space="preserve">
<style type="text/css">
	.st0{fill:#FF7A59;}
</style>
<g id="Layer_1">
</g>
<g id="Isolation_Mode">
	<g>
		<path class="st0" d="M46.5,20.3c-0.5,4-1.2,8.1-1.2,8.9c0,3.3-2.7,5.9-5.9,5.9c-3.3,0-5.9-2.7-5.9-5.9c0.6-2.4,1.2-5.7,2.1-8.6
			C20,23.7,8.2,37.7,8.2,54.3c0,19,15.3,34.3,34.3,34.3s34.3-15.3,34.3-34.3C76.6,36.8,63.4,22.3,46.5,20.3L46.5,20.3L46.5,20.3z
			 M50.7,28.6c11,3.6,18.6,13.8,18.6,25.7c0,14.8-12.1,26.9-26.9,26.9S15.4,69.1,15.4,54.3c0-9.8,5.4-18.7,13.6-23.5
			c0.1,5.8,4.8,10.5,10.7,10.5s10.5-4.7,10.7-10.4C50.4,30.6,50.4,29.6,50.7,28.6z"/>
		<path class="st0" d="M2,43.2c0,0-0.6-7.1,8.3-18.5c8.9-11.3,11.1-2.2,18.2-6.8C28.5,18,3.7,34.7,2,43.2z"/>
		<path class="st0" d="M15.2,8.3c-6,3.6-7.9,12.2-8.2,18.3c0.9-1.3,1.9-2.7,3-4.2c8.6-11,10.8-2.1,17.7-6.6l0,0
			c1-1.2,1.9-2.7,1.2-4.5C29,11.4,25.3,2.2,15.2,8.3z"/>
		<path class="st0" d="M36.8,28.1c0,0,0.2,2.1,2,2.5c1.6,0.3,2.7-0.3,3.3-1.6c0.5-1.1-0.2-5-0.2-12.6c0-8.3,4.2-8.6,4.2-8.6
			s-3.6-1.6-3.1-5.5c0,0-3.1,6.6-3.8,11.4c0,0-3.5-2.7-8.5-2.7c0,0,0.5,2,0,2.4c0,0,5.6-0.5,8,3.1C38.7,16.5,40.9,22.4,36.8,28.1z"
			/>
		<path class="st0" d="M44,2.5c0,0-0.9,0.5,0.5,3.1c0.6,1.1,2.2,2.2,2.4,0.9C47.2,5.1,45,1.6,44,2.5z"/>
	</g>
	<g>
	</g>
	<g>
	</g>
	<g>
	</g>
	<g>
	</g>
	<g>
	</g>
	<g>
	</g>
	<g>
	</g>
	<g>
	</g>
	<g>
	</g>
	<g>
	</g>
	<g>
	</g>
	<g>
	</g>
	<g>
	</g>
	<g>
	</g>
	<g>
	</g>
</g>
</svg>
