<?xml version="1.0" encoding="utf-8"?>
<!-- Generator: Adobe Illustrator 21.0.2, SVG Export Plug-In . SVG Version: 6.00 Build 0)  -->
<svg version="1.1" id="Layer_1" xmlns="http://www.w3.org/2000/svg" xmlns:xlink="http://www.w3.org/1999/xlink" x="0px" y="0px"
	 viewBox="0 0 32 32" style="enable-background:new 0 0 32 32;" xml:space="preserve">
<style type="text/css">
	.st0{opacity:0.66;fill:url(#SVGID_1_);}
</style>
<linearGradient id="SVGID_1_" gradientUnits="userSpaceOnUse" x1="6.3847" y1="5.424" x2="25.0097" y2="29.174">
	<stop  offset="0.128" style="stop-color:#305FAC"/>
	<stop  offset="1" style="stop-color:#6AC181"/>
</linearGradient>
<path class="st0" d="M1.3,26.3c0-5.8,0-11.5,0-17.3c0,0,0-0.1,0.1-0.1C1.6,7.6,2.6,6.8,4,6.8c1.8,0,3.7,0,5.5,0c0.1,0,0.2,0,0.3,0
	c0-0.4,0-0.7,0-1.1c0-1.7,1.2-2.9,2.9-2.9c2.2,0,4.3,0,6.5,0c1.7,0,2.8,1.2,2.9,2.8c0,0.4,0,0.7,0,1.1c0.1,0,0.2,0,0.3,0
	c1.8,0,3.6,0,5.5,0c1.7,0,2.8,1.1,2.8,2.8c0,5.4,0,10.8,0,16.3c0,0.3,0,0.5-0.1,0.8c-0.3,1.3-1.4,2.1-2.8,2.1c-6.7,0-13.3,0-20,0
	c-1.3,0-2.5,0-3.8,0c-1.4,0-2.5-0.9-2.8-2.2C1.3,26.4,1.3,26.3,1.3,26.3z M20.7,20c0.1,0,0.1,0,0.1,0c2.4,0,4.8,0,7.2,0
	c0.7,0,1.3-0.6,1.3-1.3c0-3.1,0-6.2,0-9.3c0-0.7-0.5-1.2-1.3-1.2c-8,0-16,0-24.1,0c-0.8,0-1.3,0.5-1.3,1.3c0,3,0,6.1,0,9.1
	c0,0.9,0.5,1.5,1.5,1.5c2.3,0,4.6,0,6.9,0c0.1,0,0.2,0,0.3,0c0-0.5,0-0.9,0-1.4c0-0.4,0.2-0.6,0.6-0.7c0.2,0,0.3,0,0.5,0
	c2.4,0,4.8,0,7.2,0c0.2,0,0.3,0,0.5,0c0.4,0.1,0.6,0.3,0.6,0.7C20.7,19.1,20.7,19.6,20.7,20z M29.3,21.2c-0.5,0.3-1,0.4-1.5,0.4
	c-2.3,0-4.6,0-6.9,0c-0.1,0-0.2,0-0.3,0c0,0.6,0,1.2,0,1.8c0,0.8-0.3,1.1-1.1,1.1c-2.4,0-4.8,0-7.1,0c-0.8,0-1.1-0.3-1.1-1.1
	c0-0.6,0-1.2,0-1.8c-0.1,0-0.3,0-0.4,0c-2.2,0-4.3,0-6.5,0c-0.6,0-1.2,0-1.8-0.4c0,0.1,0,0.1,0,0.1c0,1.6,0,3.1,0,4.7
	c0,0.1,0,0.2,0,0.3c0.2,0.7,0.7,1,1.5,1c7.9,0,15.8,0,23.6,0c0.1,0,0.1,0,0.2,0c0.7,0,1.3-0.6,1.3-1.2
	C29.3,24.4,29.3,22.8,29.3,21.2z M19.2,19.4c-2.2,0-4.3,0-6.4,0c0,1.2,0,2.4,0,3.6c2.2,0,4.3,0,6.4,0C19.2,21.7,19.2,20.6,19.2,19.4
	z M11.3,6.7c3.1,0,6.2,0,9.3,0c0-0.4,0-0.8,0-1.2c0-0.7-0.6-1.3-1.3-1.3c-2.2,0-4.5,0-6.7,0c-0.7,0-1.2,0.5-1.3,1.1
	C11.3,5.8,11.3,6.3,11.3,6.7z"/>
</svg>
