<?xml version="1.0" encoding="utf-8"?>
<!-- Generator: Adobe Illustrator 16.0.0, SVG Export Plug-In . SVG Version: 6.00 Build 0)  -->
<!DOCTYPE svg PUBLIC "-//W3C//DTD SVG 1.1//EN" "http://www.w3.org/Graphics/SVG/1.1/DTD/svg11.dtd">
<svg version="1.1" id="Layer_1" xmlns="http://www.w3.org/2000/svg" xmlns:xlink="http://www.w3.org/1999/xlink" x="0px" y="0px"
	 width="325.179px" height="338px" viewBox="0 0 325.179 338" enable-background="new 0 0 325.179 338" xml:space="preserve">
<g>
	<path fill="#E1FAFF" d="M69.981,238.61c-6.74-16.515-20.472-21.253-34.736-31.961c-35.974-27.007-34.934-83.035-5.255-98.904
		c30.212-16.155-4.896-56.244,45.207-82.014c72.635-37.359,147.796-13.026,165.021,40.887
		c24.181,75.688,129.943,120.79,56.824,197.791c-42.409,44.663-16.939,12.261-77.585,17.518
		c-40.033,3.471-67.187,33.327-103.111,19.088C80.422,286.776,76.742,255.177,69.981,238.61z"/>
	<path fill="#41378C" d="M17.223,63.855c1.257,13.783,3.725,44.278,5.423,50.222c3.415,11.952,15.528,16.535,27.75,18.692
		c6.247,1.102,42.625-25.236,42.625-25.236c0-8.674-17.359-16.506-19.732-54.266c-0.667-10.608,2.174-15.482-6.908-22.451
		c-13.01-9.981-37.142,5.311-41.777,8.041C18.06,42.711,16.027,50.73,17.223,63.855z"/>
	<path fill="#5652AA" d="M78.176,77.164c-3.447-1.776-7.837-3.298-5.642-6.605c2.057-3.099,7.293-4.403,12.248-3.715
		c5.938,0.825,18.715,10.046,21.054,12.936c2.34,2.89,1.652,6.743-0.825,8.257c-2.478,1.513-5.23,1.376-8.395,0
		C93.451,86.66,82.717,79.504,78.176,77.164z"/>
	<path fill="#263364" d="M183.479,44.399c0,0,1.688,15.401-2.242,18.396c-3.93,2.994-19.337,9.125-19.65,23.043
		c-0.361,16.108,7.497,23.771,16.105,24.706c8.61,0.936,22.262-21.359,23.009-28.846c0.75-7.486-7.112-32.191-7.112-32.191
		L183.479,44.399z"/>
	<g>
		<path fill="#9E693E" d="M85.739,70.144c1.734,5.339-3.928,16.063-6.057,11.448c-2.327-2.46-4.224-4.597-4.931-5.716
			c-2.421-3.833-6.174-39.94-6.174-39.94C76.105,40.25,83.567,52.079,85.739,70.144z"/>
		<path fill="#7F512F" d="M77.774,72.568c-1.349-0.223-2.354,1.39-3.542,2.068c-2.402-7.419-5.654-38.7-5.654-38.7
			c7.181,4.116,14.299,15.077,16.825,31.763C84.563,69.496,79.57,72.864,77.774,72.568z"/>
		<path fill="#2896FF" d="M73.037,69.503c-2.16-11.453-4.458-33.567-4.458-33.567c6.7,3.84,14.709,12.745,17.921,27.395
			C82.722,69.034,77.841,69.217,73.037,69.503z"/>
		<path fill="#FFFFFF" d="M85.49,57.935c0.518,1.602,0.985,3.274,1.383,5.032c0.049,0.221,0.003,0.468-0.126,0.654
			c-3.859,5.587-8.749,6.02-13.615,6.312c-0.395,0.023-0.746-0.239-0.817-0.629c-0.314-1.714-0.629-3.628-0.94-5.65
			c-0.059-0.386,0.175-0.763,0.548-0.875c4.165-1.252,8.322-2.642,12.393-5.238C84.749,57.263,85.332,57.445,85.49,57.935z"/>
		<path fill="#2896FF" d="M58.139,36.055L34.351,49.363c-3.15,1.763-6.96,4.574-6.988,8.184
			c-0.168,21.285,2.867,19.277,4.232,53.682c0.089,2.244,1.397,4.273,3.423,5.244c3.896,1.866,10.895,4.413,19.003,3.671
			c7.617-0.698,21.673-8.317,29.809-15.88c1.476-1.373,2.259-3.336,2.137-5.348c-0.6-9.944-8.464-18.326-7.809-44.605
			C78.159,50.287,72.86,28.792,58.139,36.055z"/>
		<path fill="#1F8BE5" d="M24.52,76.943c-0.006-0.3,0.161-0.544,0.398-0.683c-0.159-11.797,1.279-20.909,6.661-23.283
			c3.881-1.711,8.728,4.476,10.076,8.755c0.815,2.586,0.697,9.98,0.477,15.427c0.203,0.152,0.341,0.39,0.33,0.665
			c-0.1,2.465-0.197,4.324-0.246,5.213c-0.02,0.352-0.257,0.649-0.6,0.727c-0.163,0.037-0.338,0.063-0.508,0.094
			c-0.205,4.587-0.685,9.086-1.384,12.331c7.525,2.789,27.447,10.028,32.106,10.247c1.608,1.986-0.017,6.907-1.186,7.147
			c0,0-26.365,1.368-43.664-10.915l-0.143,0.036c-0.845-6.447-0.58-13.94-0.397-19.815c-0.461-0.093-0.847-0.175-1.134-0.238
			c-0.354-0.078-0.605-0.389-0.622-0.75C24.604,80.207,24.55,78.554,24.52,76.943z"/>
		<ellipse fill="#FFFFFF" cx="53.585" cy="46.406" rx="9.289" ry="5.666"/>
		<g>
			<g>
				<g>
					<path fill="#9E693E" d="M58.356,48.254c-3.469,2.05-6.778,1.588-9.993-0.352c-1.001-0.604-1.63-1.677-1.63-2.846V28.78
						l13.634,2.902v12.951C60.367,46.105,59.624,47.505,58.356,48.254z"/>
				</g>
			</g>
			<path fill="#7F512F" d="M58.233,46.741c-3.251-0.384-6.907-2.976-10.112-7.188c-0.586-0.77-5.999-6.741-5.999-10.047
				c0-8.054,6.545-12.893,13.315-12.893c4.231,0,8.615,0.64,10.88,4.21c0.872,1.374,0.974,5.36,0.875,7.531
				C67.138,29.566,65.528,47.602,58.233,46.741z"/>
			<path fill="#9E693E" d="M59.098,45.874c-3.25-0.383-7.604-3.476-10.977-6.32c-0.74-0.624-5.999-6.741-5.999-10.047
				c0-8.054,6.545-12.893,13.315-12.893c4.231,0,8.615,0.64,10.88,4.21c0.872,1.374,0.974,5.36,0.875,7.531
				C67.138,29.566,66.394,46.734,59.098,45.874z"/>
			<path fill="#263364" d="M39.133,14.708c4.227-8.766,15.021-9.396,22.811-5.501c6.172,3.087,11.808,13.821,5.367,18.518
				c-6.057,4.416-18.192-3.805-18.192-3.805c1.528,1.378,1.236,5.639-1.504,8.113l-3.486-2.68l0.887,4.214
				c2.889,3.08,1.674,8.42,1.674,8.42c0-2.396-5.614-7.771-7.094-11.028C38.214,27.918,36.064,21.072,39.133,14.708z"/>
			<g>
				<path fill="#9E693E" d="M48.063,31.198c0,2.303-0.43,4.214-1.868,4.214c-1.438,0-3.532-2.749-3.532-5.052
					c0-2.302,0.824-3.451,2.261-3.451S48.063,28.896,48.063,31.198z"/>
			</g>
		</g>
		<g>
			<g>
				<path fill="#9E693E" d="M39.847,79.841c-0.488,7.857-1.878,16.39-3.579,19.449l-11.909,2.331
					c-0.629-7.831,0.438-17.142,0.861-23.258L39.847,79.841z"/>
			</g>
			<g>
				<path fill="#7F512F" d="M24.748,84.368c0.173-2.193,0.351-4.234,0.473-6.005l14.626,1.478c-0.094,1.499-0.22,3.021-0.374,4.527
					C34.039,86.258,28.981,86.795,24.748,84.368z"/>
			</g>
			<path fill="#FCE3C3" d="M67.767,106.593c0,0,4.59-2.416,5.556-2.464c0.966-0.048,2.512,0.483,2.512,0.483s0.29,0.193-0.097,0.386
				c-0.386,0.193-2.753,1.111-2.802,1.256c-0.049,0.145,5.99,0.242,5.99,0.242s-1.498,6.136-2.029,6.715
				c-0.531,0.58-4.798,1.163-5.765,0.729c-0.966-0.435-3.221-0.825-3.221-0.825L67.767,106.593z"/>
		</g>
	</g>
	<path fill="#41378C" d="M235.4,88.199c-5.504-3.526-24.029-13.526-24.029-13.526c-5.25-1.274-8.698,2.644-8.768,8.699
		c-0.104,9.167,0.937,30.243,0.937,30.243c0.144,4.769,2.67,9.144,6.723,11.662c6.731,4.185,14.221,8.621,22.469,12.502
		c4.873,2.294,10.479-1.238,10.479-6.625v-28.992C243.211,93.903,242.354,92.653,235.4,88.199z"/>
	<path fill="#5652AA" d="M18.863,112.09c-3.446-1.776-7.836-3.298-5.642-6.605c2.058-3.099,7.294-4.404,12.248-3.715
		c5.938,0.824,18.715,10.045,21.055,12.935c2.339,2.89,1.651,6.743-0.826,8.257c-2.478,1.513-5.229,1.376-8.395,0
		C34.138,121.586,23.405,114.43,18.863,112.09z"/>
	<path fill="#FCE3C3" d="M176.892,72.433c2.553-1.392,11.167,1.642,11.695,7.946c0.782,9.357-5.671,13.618-12.442,23.66
		c-2.988,4.431-6.614,11.761-12.577,13.097c-3.983,0.892-5.265-3.444-4.973-5.769C158.887,109.041,169.726,76.341,176.892,72.433z"
		/>
	<path fill="#263364" d="M215.486,49.881c0,0-1.152,15.892,3.811,22.271c15.854,20.383,35.091,56.393-4.204,69.187
		c-5.444,1.773-17.2-45.604-17.2-45.604l-2.432-35.373l4.492-10.855L215.486,49.881z"/>
	<path fill="#2896FF" d="M185.811,71.903l24.226,7.968c7.366,2.423,12.08,9.677,11.188,17.38
		c-1.594,13.736-2.79,37.668-10.985,72.179l-39.023-31.5c0,0,4.301-26.784,3.572-55.968
		C174.787,78.222,175.945,67.55,185.811,71.903z"/>
	<path fill="#EDCDAB" d="M191.643,72.307c0,0,0.387,2.798-0.55,3.172c-0.936,0.375-3.341-0.668-3.341-0.668s-1.648,4.08-0.901,6.513
		c0.75,2.433,3.135,6.89,4.912,6.852c11.829-0.254,14.365-8.242,14.365-8.242l-3.35-14.566L191.643,72.307z"/>
	<g>
		
			<ellipse transform="matrix(-0.8847 -0.4662 0.4662 -0.8847 190.64 538.287)" fill="#E1FAFF" cx="161.892" cy="245.566" rx="106.077" ry="54.146"/>
		<g>
			<polygon fill="#05CDFF" points="160.04,266.79 162.819,264.964 144.693,237.366 221.915,243.606 222.184,240.292 
				138.182,233.506 			"/>
		</g>
		<g>
			
				<rect x="112.957" y="188.281" transform="matrix(-0.5015 0.8652 -0.8652 -0.5015 362.6847 231.5981)" fill="#05CDFF" width="3.323" height="64.016"/>
		</g>
		<g>
			<path fill="#A0EBFF" d="M213.736,176.638l23.076,91.807c0,1.193-1.78,2.16-3.975,2.16s-3.975-0.967-3.975-2.16l-41.787-91.807
				H213.736z"/>
			<path fill="#A0EBFF" d="M165.034,185.035l9.171,119.424c0,1.194-1.779,2.16-3.975,2.16c-2.194,0-3.974-0.966-3.974-2.16
				l-27.884-119.424H165.034z"/>
			<g>
				<g>
					<polygon fill="#B6FFF6" points="73.407,225.252 72.645,178.693 69.454,179.619 68.668,220.853 11.136,208.715 10.449,211.967 
											"/>
				</g>
				<g>
					<polygon fill="#05CDFF" points="89.292,206.444 79.479,172.674 76.287,173.601 84.553,202.048 27.021,189.908 26.334,193.16 
											"/>
				</g>
			</g>
			<g>
				<path fill="#A0EBFF" d="M4.234,210.396l-0.013-0.003l0.053-0.066c0.031-0.045,0.066-0.09,0.103-0.131L61.77,137.65
					l16.113,19.697l-66.394,54.585h-0.003c-0.6,0.752-1.975,1.277-3.579,1.277c-2.155,0-3.903-0.951-3.903-2.122
					C4.003,210.845,4.094,210.613,4.234,210.396z"/>
			</g>
			<path fill="#A0EBFF" d="M66.067,178.499l-0.013-0.003l0.053-0.067c0.031-0.045,0.066-0.087,0.103-0.13l57.393-72.546
				l16.113,19.697l-66.395,54.584h-0.002c-0.6,0.752-1.975,1.277-3.579,1.277c-2.156,0-3.903-0.948-3.903-2.12
				C65.837,178.946,65.929,178.718,66.067,178.499z"/>
		</g>
	</g>
	<path fill="#2896FF" d="M169.898,99.767c2.136-2.988,4.537-6.175,5.622-9.408c1.662,1.629,3.188,3.407,4.8,5.111
		c1.021,1.079,2.06,2.138,3.086,3.206c-1.458,2.512-7.03,15.954-9.518,15.571c0.083-0.928-0.722-2.712-0.642-3.69
		C170.693,107.981,169.256,100.667,169.898,99.767z"/>
	<path fill="#FCE3C3" d="M185.916,46.325c0,0-4.158,16.37,0.935,24.705c1.573,2.575,9.513,2.168,13.289-1.123
		c3.704-3.229,11.06-11.039,8.983-16.657C205.941,44.641,185.916,46.325,185.916,46.325z"/>
	<g>
		<polygon fill="#05CDFF" points="112.152,85.563 14.282,133.743 14.197,140.826 179.635,237.313 277.788,181.726 		"/>
		<polygon fill="#FFFFFF" points="112.152,78.571 14.197,133.834 179.635,230.322 277.788,174.735 		"/>
	</g>
	<path fill="#3C82AF" d="M208.73,85.022c2.493-1.493,7.533,0.671,8.312,6.949c1.156,9.319-0.286,20.611-6.65,30.915
		c-2.809,4.547-13.24,16.004-20.067,14.333c-3.964-0.971,13.669-18.568,13.866-20.904C204.39,113.979,201.728,89.213,208.73,85.022z
		"/>
	<g>
		<path fill="#FCE3C3" d="M179.012,142.859c2.363-1.904,9.263-5.281,11.728-8.876c1.744-2.543,7.251-8.796,11.984-12.476
			c2.677-2.081,3.942-5.5,3.223-8.814c-2.191-10.089-0.746-19.497,0.46-24.186c1.307-5.082,7.938-7.609,11.818-2.612
			c5.759,7.417,4.193,14.068,3.995,26.177c-0.084,5.107-1.659,11.221-5.524,15.569c-0.519,0.782-1.182,1.565-2.035,2.302
			c-4.323,3.733-27.953,15.349-31.036,16.759S179.012,142.859,179.012,142.859z"/>
		<path fill="#FCE3C3" d="M184.657,145.522c0,0-2.895,3.73-4.908,4.703c-2.012,0.973-6.363,2.387-8.249,2.439
			c-1.884,0.052-3.7-1.439-4.015-1.745c-0.454-0.442-2.07-2.439-1.945-3.234c0.091-0.569,2.812-0.81,3.732-0.969
			c2.079-0.36,4.521-2.801,4.521-2.801s-4.808,0.375-4.26-0.425c0.549-0.8,3.662-2.14,5.119-1.813
			c1.457,0.326,5.859,0.329,5.859,0.329L184.657,145.522z"/>
	</g>
	<path fill="#263364" d="M184.044,40.149c-2.107,3.582-1.124,6.925,3.557,9.545c4.678,2.62,8.048,2.995,8.048,2.995l-1.123-2.246
		c0,0,3.181,2.995,6.362,3.743c3.183,0.749,14.49,3.349,14.49,3.349s0.857-6.157,0.108-10.461
		c-0.747-4.304-4.865-10.293-11.416-12.165C197.519,33.037,187.787,33.785,184.044,40.149z"/>
	<path fill="#263364" d="M198.456,51.94c0,0,1.587,2.913,2.341,5.949c0.338,1.361,2.093,1.741,2.978,0.654l3.852-4.731
		L198.456,51.94z"/>
	<path fill="#FFFFFF" d="M187.066,66.463c-0.053,0.816,0.766,2.331,1.807,2.399c1.04,0.069,2.156-0.972,2.21-1.789
		c0.054-0.816-0.976-1.098-2.017-1.167C188.026,65.838,187.12,65.646,187.066,66.463z"/>
	<ellipse fill="#FCE3C3" cx="207.925" cy="57.719" rx="2.841" ry="4.409"/>
	<g>
		<g>
			<g>
				<path fill="#FCE3C3" d="M249.474,180.775c0,0-28.697-14.615-33.738-16.717l0.2,6.195c0,0,13.362,13.109,31.8,20.854
					L249.474,180.775z"/>
				<path fill="#1E87DC" d="M252.645,171.096c-1.186,4.744-3.274,5.944-6.104,4.789c-7.43-3.04-16.378-7.313-23.252-8.771
					c-0.537-0.114-1.094-0.017-1.568,0.26c-1.906,1.119-3.378,2.701-3.966,4.477c-0.311,0.937-0.036,1.968,0.655,2.672
					c3.548,3.592,16.718,16.023,31.502,18.561L252.645,171.096z"/>
			</g>
		</g>
		<g>
			<ellipse fill="#E1FAFF" cx="249.466" cy="312.779" rx="33.022" ry="17.944"/>
		</g>
		<g>
			<g>
				<path fill="#FFFFFF" d="M230.297,300.166c1.555-0.894,1.757-2.917,0.271-3.918l-18.943-11.492
					c-0.165-0.1-0.371-0.109-0.545-0.024l-4.947,2.396c-1.804,0.874-1.719,3.484-0.198,4.792c2.725,2.346,6.27,5.338,13.6,8.516
					C223.185,302.015,226.392,302.411,230.297,300.166z"/>
			</g>
			<path fill="#38454C" d="M230.78,297.081c-0.143-0.65,0.405-7.209-1.909-9.126c-1.284-1.065-4.014-1.328-5.948-1.461
				c-4.119-0.283-13.257-5.951-16.491-2.402c-1.763,1.934-1.062,5.248-0.714,5.912c1.539,2.959,12.919,9.547,15.869,10.359
				C226.101,301.606,231.416,299.987,230.78,297.081z"/>
		</g>
		<g>
			<g>
				<path fill="#38454C" d="M235.327,296.433c-1.959-1.13-3.548-0.253-3.548,1.96s1.589,4.921,3.548,6.053
					c1.962,1.129,3.551,0.251,3.551-1.96C238.878,300.272,237.289,297.562,235.327,296.433z"/>
				<path fill="#38454C" d="M234.717,306.374c2.058-0.219,3.135-1.107,3.543-1.992L233.239,296c-1.12,0.271-3.141,1.226-3.69,2.473
					L234.717,306.374z"/>
			</g>
			<g>
				<path fill="#38454C" d="M232.806,297.894c-1.961-1.13-3.549-0.253-3.549,1.96c0,2.212,1.588,4.921,3.549,6.052
					c1.96,1.13,3.549,0.253,3.549-1.96C236.354,301.734,234.766,299.025,232.806,297.894z"/>
				<path fill="#FFFFFF" d="M232.806,298.913c-1.462-0.843-2.646-0.189-2.646,1.461c0,1.648,1.185,3.67,2.646,4.513
					c1.462,0.844,2.646,0.188,2.646-1.46C235.452,301.776,234.268,299.756,232.806,298.913z"/>
			</g>
		</g>
		<g>
			<g>
				<path fill="#38454C" d="M273.048,295.865c1.961-1.131,3.551-0.252,3.551,1.959c0,2.212-1.59,4.923-3.551,6.052
					c-1.96,1.13-3.549,0.253-3.549-1.96C269.499,299.704,271.088,296.995,273.048,295.865z"/>
				<path fill="#38454C" d="M273.661,305.806c-2.06-0.218-3.137-1.108-3.544-1.992l5.021-8.381c1.121,0.27,3.141,1.225,3.691,2.473
					L273.661,305.806z"/>
			</g>
			<g>
				<path fill="#38454C" d="M275.571,297.328c1.959-1.13,3.549-0.255,3.549,1.958s-1.59,4.922-3.549,6.051
					c-1.961,1.131-3.549,0.253-3.549-1.957C272.022,301.168,273.61,298.456,275.571,297.328z"/>
				<path fill="#FFFFFF" d="M275.571,298.555c1.358-0.783,2.461-0.175,2.461,1.358s-1.103,3.412-2.461,4.197
					c-1.36,0.784-2.461,0.176-2.461-1.36C273.11,301.217,274.211,299.339,275.571,298.555z"/>
			</g>
		</g>
		<g>
			<g>
				<path fill="#38454C" d="M228.569,320.488c1.961-1.131,3.55-0.253,3.55,1.96c0,2.21-1.589,4.92-3.55,6.049
					c-1.96,1.133-3.549,0.255-3.549-1.958C225.021,324.328,226.609,321.618,228.569,320.488z"/>
				<path fill="#38454C" d="M229.182,330.427c-2.06-0.216-3.136-1.106-3.544-1.991l5.021-8.382c1.12,0.271,3.139,1.229,3.69,2.475
					L229.182,330.427z"/>
			</g>
			<g>
				<path fill="#38454C" d="M231.092,321.949c1.961-1.13,3.55-0.253,3.55,1.96c0,2.212-1.589,4.921-3.55,6.052
					c-1.959,1.13-3.549,0.253-3.549-1.96C227.543,325.789,229.133,323.08,231.092,321.949z"/>
				<path fill="#FFFFFF" d="M231.092,323.198c1.349-0.776,2.441-0.174,2.441,1.349s-1.093,3.387-2.441,4.165
					c-1.349,0.776-2.441,0.173-2.441-1.349C228.65,325.841,229.743,323.977,231.092,323.198z"/>
			</g>
		</g>
		<g>
			<g>
				<path fill="#38454C" d="M276.932,317.613c-1.959-1.13-3.548-0.253-3.548,1.958c0,2.213,1.589,4.922,3.548,6.053
					c1.961,1.129,3.55,0.254,3.55-1.959C280.481,321.453,278.893,318.744,276.932,317.613z"/>
				<path fill="#38454C" d="M276.321,327.553c2.059-0.216,3.135-1.106,3.544-1.99l-5.021-8.384c-1.121,0.271-3.141,1.228-3.69,2.475
					L276.321,327.553z"/>
			</g>
			<g>
				<path fill="#38454C" d="M274.41,319.075c-1.96-1.131-3.549-0.253-3.549,1.96c0,2.21,1.589,4.922,3.549,6.051
					c1.961,1.131,3.55,0.253,3.55-1.96S276.371,320.205,274.41,319.075z"/>
				<path fill="#FFFFFF" d="M274.41,320.173c-1.423-0.822-2.577-0.186-2.577,1.42c0,1.609,1.154,3.575,2.577,4.396
					c1.424,0.821,2.578,0.184,2.578-1.424C276.988,322.96,275.834,320.992,274.41,320.173z"/>
			</g>
		</g>
		<g>
			<g>
				<g>
					<g>
						<path fill="#EDCDAB" d="M259.548,170.345c-3.354,3.095-7.096,3.276-11.066,1.746c-1.235-0.478-2.166-1.571-2.43-2.91
							l-3.645-18.648l15.642,0.394l2.899,14.836C261.277,167.45,260.773,169.214,259.548,170.345z"/>
					</g>
				</g>
				<path fill="#FCE3C3" d="M233.838,151.443c1.806,9.228,4.767,15.522,10.297,14.68c5.384-0.819,0.678-11.268,3.905-15.282
					c0.707-0.88,6.807-1.104,7.569-1.991c2.956-3.438-2.739-18.979-10.496-17.463c-4.847,0.948-9.726,2.663-11.521,7.259
					C232.901,140.417,233.597,150.205,233.838,151.443z"/>
				<path fill="#965028" d="M233.644,126.332c-4.984,2.882-7.052,8.462-3.667,14.104c1.182,1.969,4.189,3.931,6.579,4.594
					c2.389,0.663,2.765,6.585,2.941,8.376c0,0,1.212,0.546,1.618-1.662c0.405-2.209,2.778-5.628,3.72-2.596
					c0.94,3.031,4.564,7.284,5.978,9.18c1.413,1.896,8.81,2.118,11.157-2.772c-5.087-7.277,5.621-13.427-3.822-24.785
					C253.326,124.974,240.988,122.163,233.644,126.332z"/>
				<g>
					<path fill="#EDCDAB" d="M241.988,152.516c0.689,2.613,1.771,4.65,3.465,4.202c1.695-0.448,2.787-4.453,2.097-7.065
						c-0.69-2.614-1.454-3.429-3.149-2.981C242.707,147.119,241.298,149.903,241.988,152.516z"/>
					<path fill="#FCE3C3" d="M241.196,151.519c0.689,2.613,1.771,4.649,3.465,4.202c1.694-0.448,3.338-4.221,2.648-6.834
						c-0.69-2.612-2.006-3.66-3.701-3.212C241.915,146.121,240.507,148.905,241.196,151.519z"/>
				</g>
			</g>
			<g>
				<g>
					<path fill="#FFFFFF" d="M204.934,315.644c1.554-0.892,1.757-2.918,0.27-3.918l-18.943-11.49
						c-0.165-0.102-0.37-0.111-0.544-0.026l-4.947,2.397c-1.804,0.874-1.718,3.484-0.198,4.791c2.726,2.345,6.27,5.339,13.599,8.516
						C197.821,317.494,201.027,317.891,204.934,315.644z"/>
				</g>
				<path fill="#38454C" d="M205.417,312.559c-0.143-0.651,0.405-7.209-1.909-9.126c-1.284-1.063-4.015-1.328-5.948-1.462
					c-4.12-0.281-13.256-5.948-16.492-2.399c-1.763,1.934-1.061,5.245-0.713,5.912c1.539,2.959,12.919,9.547,15.869,10.359
					C200.736,317.085,206.052,315.465,205.417,312.559z"/>
			</g>
			<path fill="#FA870A" d="M193.865,303.433c0,0-4.305-49.357-2.584-59.113c1.723-9.757,8.896-12.625,14.061-12.339
				c5.167,0.285,4.019,24.104,4.019,24.104l-4.305,52.226C205.056,308.31,198.743,310.605,193.865,303.433z"/>
			<path fill="#FA870A" d="M215.45,245.013c0.648,17.909,2.805,42.637,2.805,42.637c4.879,7.175,11.192,4.877,11.192,4.877
				l3.915-47.514H215.45z"/>
			<path fill="#FA870A" d="M204.194,232.266c0,0,2.583-0.859,9.756,1.723c7.175,2.582,47.922,18.94,47.922,18.94l18.053-9.512
				c4.163,32.677-11.057,33.168-18.939,36.008c-3.752,1.35-30.392-6.698-36.991-9.28c-6.599-2.581-19.8-11.479-19.8-11.479V232.266z
				"/>
			<g>
				<path fill="#2896FF" d="M258.805,163.032c-20.22,5.447-25.765,17.255-25.765,17.255c-2.322,31.008-1.409,51.893-0.989,69.32
					c0.052,2.148,1.338,4.09,3.274,5.019c3.729,1.784,10.447,4.438,18.182,3.511c12.682-1.521,21.47-7.909,23.996-10.245
					c1.441-1.335,4.563-4.73,4.699-9.604c0.303-10.607,1.01-33.442-2.088-58.319C280.114,176.119,276.571,158.246,258.805,163.032z"
					/>
			</g>
			<g>
				<g>
					<path fill="#1E87DC" d="M241.851,176.901c-3.081-0.932-8.445,1.613-10.21,4.302c-1.312,1.581-2.604,3.172-0.089,2.538v35.131
						c5.914-7.423,11.212-20.646,16.02-29.622C250.113,184.506,247.002,178.458,241.851,176.901z"/>
				</g>
				<g>
					<g>
						<path fill="#FCE3C3" d="M211.748,214.876c0,0-26.244-11.751-30.239-15.575l-2.931,4.498c0,0,11.868,15.648,31.431,21.409
							L211.748,214.876z"/>
						<path fill="#2896FF" d="M214.918,205.199c-1.186,4.741-3.274,5.943-6.103,4.786c-7.72-3.157-19.919-6.172-24.043-8.927
							c-2.279,1.123-4.079,2.885-4.745,4.896c-0.31,0.934-0.034,1.968,0.657,2.669c3.548,3.595,16.718,16.023,31.501,18.561
							L214.918,205.199z"/>
					</g>
				</g>
				<g>
					<path fill="#2896FF" d="M212.571,211.021c2.624-8.643,10.454-19.435,19.069-29.817c1.765-2.688,7.129-5.233,10.21-4.302
						c5.151,1.557,8.263,7.604,5.721,12.349c-6.824,12.744-18.529,31.536-38.487,39.019
						C209.084,228.269,211.4,213.197,212.571,211.021z"/>
				</g>
				<path fill="#FCE3C3" d="M182.781,200.604c0,0,0.858-4.535,0.298-5.869c-0.177-0.421-0.503-1.267-2.316-0.187
					c-0.42,0.251-0.456-0.911-4.43-2.809c-0.528-0.255-2.361,0.057-2.478,1.226c-0.116,1.173-2.206,1.493-2.349,2.544
					c-0.13,0.948-0.794,1.029-1.423,1.725c-0.42,0.462,0.219,1.341,0,1.809c-0.199,0.429-0.101,1.347,0.087,1.66
					c0.701,1.172,5.486,3.555,8.765,3.438C182.213,204.023,182.781,200.604,182.781,200.604z"/>
			</g>
		</g>
		<path fill="#41378C" d="M280.157,316.716l-13.551-10.201c-1.665-1.252-1.56-3.786,0.204-4.896l11.506-7.237
			c0,0-0.243-1.458-2.609-1.64c-2.189-0.17-16.841,5.634-19.022,6.504c-1.019-0.302-2.186-0.472-3.426-0.472
			c-0.519,0-1.024,0.029-1.512,0.088l0.042-0.066c0,0-15.468-6.188-18.093-5.531s-2.998,2.812-2.998,2.812l10.251,5.153
			c1.973,0.992,2.217,3.71,0.453,5.038l-14.913,11.226c-0.897,1.216-0.527,2.942,0.791,3.683l0,0
			c0.955,0.539,2.151,0.391,2.951-0.359l17.064-7.894c4.506-2.083,9.704-2.062,14.191,0.06l14.928,7.058
			c0.801,0.752,1.994,0.896,2.95,0.36C280.683,319.661,281.056,317.932,280.157,316.716z"/>
		<g>
			<g>
				<g>
					<ellipse fill="#6EE1FF" cx="253.258" cy="301.841" rx="2.625" ry="1.427"/>
				</g>
				<rect x="250.636" y="282.583" fill="#6EE1FF" width="5.251" height="19.241"/>
			</g>
		</g>
		<path fill="#41378C" d="M247.882,276.321l-35.524-12.333c0,0,10.585,13.419,21.738,17.755c11.152,4.34,19.673,4.03,26.335,2.479
			c9.686-2.253,16.883-8.209,16.883-8.209L247.882,276.321z"/>
		<path fill="#41378C" d="M291.702,189.232c-4.818-2.395-16.992,2.404-30,12.386c-9.083,6.968-9.496,15.411-8.671,26.008
			c0.826,10.597,0.46,28.139,0.46,36.813c0,11.235-9.22,10.61-9.22,10.61c7.845,8.12,19.589,8.248,25.455,5.832
			c10.615-4.37,22.938-13.071,24.314-19.951c1.211-6.063,3.783-32.915,5.041-46.698
			C300.278,201.105,298.065,192.397,291.702,189.232z"/>
		<g>
			<path fill="#FFFFFF" d="M234.323,276.239l-5.701-2.317c-4.349-1.77-7.193-5.998-7.193-10.691v-22.142h3.687v22.142
				c0,3.194,1.936,6.072,4.897,7.279l2.283,0.927C234.182,272.204,235.089,274.355,234.323,276.239L234.323,276.239z"/>
		</g>
		<path fill="#5652AA" d="M212.206,235.367c-3.448-1.776-7.836-3.301-5.643-6.605c2.059-3.101,7.294-4.405,12.248-3.715
			c5.938,0.822,18.715,10.045,21.055,12.934c2.34,2.891,1.651,6.744-0.825,8.258c-2.478,1.513-5.229,1.376-8.396,0
			C227.48,244.862,216.748,237.706,212.206,235.367z"/>
	</g>
	<g>
		<path fill="#A0EBFF" d="M198.877,173.888l7.721-4.291l8.864,4.16c0,0-6.54,3.844-7.137,4.126
			c-2.509,1.192-6.535,1.364-10.091-0.497c-0.654-0.343-1.135-0.836-1.137-1.409C197.096,175.219,197.808,174.464,198.877,173.888z"
			/>
		<g>
			<path fill="#13E275" d="M203.803,160.248h13.187l0.006,11.771c0,0.726-0.792,1.4-1.959,1.955
				c-2.508,1.191-6.535,1.362-10.092-0.499c-0.653-0.341-1.137-0.837-1.139-1.408C203.806,172.035,203.803,160.248,203.803,160.248z
				"/>
			<path fill="#66FFBD" d="M205.801,158.081c2.57-1.27,6.659-1.208,9.322,0.186c1.077,0.564,1.866,1.244,1.866,1.975
				c0.001,0.727-0.792,1.399-1.959,1.954c-2.508,1.193-6.535,1.362-10.092-0.498c-0.653-0.341-1.136-0.837-1.136-1.409
				C203.801,159.479,204.607,158.67,205.801,158.081z"/>
			<path fill="#39AE96" d="M206.787,158.683c2.02-0.854,5.229-0.812,7.321,0.125c0.846,0.379,1.466,0.836,1.466,1.328
				c0,0.488-0.623,0.94-1.539,1.313c-1.969,0.802-5.132,0.917-7.925-0.334c-0.513-0.23-0.892-0.563-0.893-0.948
				C205.218,159.624,205.851,159.08,206.787,158.683z"/>
			<path fill="#6EE1FF" d="M206.417,161.243c0.117-0.06,0.24-0.118,0.37-0.173c2.02-0.854,5.229-0.813,7.321,0.125
				c0.086,0.038,0.166,0.077,0.246,0.116c-0.102,0.047-0.208,0.094-0.319,0.139C212.137,162.223,209.133,162.354,206.417,161.243z"
				/>
		</g>
		<polygon fill="#39AE96" points="206.902,163.662 203.946,163.772 203.946,171.675 206.902,173.396 		"/>
		<polygon fill="#13E275" points="204.823,164.933 203.325,163.992 203.325,171.494 204.823,172.376 		"/>
		<polygon fill="#66FFBD" points="204.823,164.933 203.325,163.992 205.403,162.783 206.902,163.662 		"/>
		<polygon fill="#55FFA2" points="206.902,163.662 206.902,165.027 205.573,165.801 205.573,170.61 206.902,169.8 206.902,171.165 
			205.573,171.938 204.823,172.376 204.823,164.933 		"/>
	</g>
	<g>
		<path fill="#A0EBFF" d="M129.192,111.614l7.721-4.29l8.863,4.159c0,0-6.54,3.844-7.137,4.128
			c-2.508,1.192-6.535,1.362-10.091-0.498c-0.653-0.342-1.135-0.837-1.136-1.409C127.412,112.946,128.123,112.191,129.192,111.614z"
			/>
		<g>
			<path fill="#13E275" d="M134.118,97.976h13.187l0.006,11.771c0,0.727-0.792,1.399-1.959,1.955
				c-2.509,1.192-6.535,1.362-10.091-0.498c-0.654-0.342-1.139-0.837-1.14-1.408C134.121,109.765,134.118,97.976,134.118,97.976z"/>
			<path fill="#66FFBD" d="M136.116,95.809c2.57-1.27,6.659-1.208,9.322,0.186c1.077,0.564,1.866,1.244,1.866,1.975
				c0,0.727-0.792,1.399-1.959,1.954c-2.509,1.193-6.535,1.363-10.092-0.497c-0.653-0.342-1.135-0.837-1.136-1.409
				C134.116,97.208,134.922,96.398,136.116,95.809z"/>
			<path fill="#39AE96" d="M137.102,96.412c2.02-0.854,5.23-0.813,7.322,0.125c0.846,0.379,1.466,0.836,1.466,1.328
				c0,0.488-0.623,0.941-1.539,1.314c-1.97,0.802-5.132,0.916-7.926-0.334c-0.513-0.229-0.891-0.563-0.892-0.947
				C135.532,97.352,136.165,96.808,137.102,96.412z"/>
			<path fill="#6EE1FF" d="M136.732,98.972c0.117-0.061,0.24-0.118,0.37-0.173c2.02-0.854,5.23-0.813,7.322,0.125
				c0.085,0.038,0.166,0.077,0.246,0.117c-0.102,0.047-0.208,0.093-0.319,0.139C142.452,99.952,139.448,100.082,136.732,98.972z"/>
		</g>
		<polygon fill="#39AE96" points="137.217,101.391 134.26,101.5 134.26,109.403 137.217,111.124 		"/>
		<polygon fill="#13E275" points="135.139,102.66 133.64,101.721 133.64,109.223 135.139,110.104 		"/>
		<polygon fill="#66FFBD" points="135.139,102.66 133.64,101.721 135.718,100.511 137.217,101.391 		"/>
		<polygon fill="#55FFA2" points="137.217,101.391 137.217,102.756 135.889,103.53 135.889,108.339 137.217,107.528 
			137.217,108.894 135.889,109.667 135.139,110.104 135.139,102.66 		"/>
	</g>
	<g>
		<path fill="#A0EBFF" d="M201.013,153.712c0-0.003-0.001-0.003-0.001-0.005c0.003-0.119-0.019-0.237-0.063-0.354
			c0.007-0.392-0.246-0.785-0.761-1.081l-6.862-3.951c-1.017-0.585-2.679-0.584-3.695,0.002l-17.394,10.042
			c-0.524,0.302-0.776,0.705-0.758,1.104c-0.037,0.094-0.059,0.189-0.063,0.285c-0.001,0-0.003-0.004-0.003-0.004s0,0.015,0,0.037
			c0,0.011,0,0.022,0,0.034c0,0.281,0.001,1.324-0.001,1.467c-0.006,0.393,0.249,0.786,0.765,1.083l6.88,3.972
			c1.02,0.589,2.689,0.589,3.709,0l16.28-9.398v0.001l0.263-0.154l0.941-0.544c0.501-0.289,0.762-0.669,0.765-1.051
			C201.016,154.939,201.013,154.044,201.013,153.712z"/>
		<g>
			<path fill="#3C82AF" d="M170.132,159.048c-0.286,0.166-0.764-0.48-0.764-0.48s0.002,1.373,0,1.538
				c-0.006,0.393,0.248,0.786,0.764,1.083l6.881,3.973c1.02,0.588,2.688,0.588,3.71,0l17.482-10.095
				c0.502-0.29,0.763-0.67,0.765-1.052c0.002-0.259-0.001-1.154-0.001-1.486c0-0.207-0.532,0.532-0.764,0.399l-6.894-3.968
				c-1.021-0.587-2.69-0.586-3.71,0.003L170.132,159.048z"/>
			<path fill="#A0EBFF" d="M170.132,157.551c-1.02,0.589-1.02,1.553,0,2.142l6.881,3.973c1.02,0.588,2.688,0.588,3.71,0
				l17.482-10.095c1.021-0.588,1.021-1.551,0-2.139l-6.894-3.967c-1.021-0.588-2.69-0.587-3.71,0.002L170.132,157.551z"/>
			<path fill="#FFFFFF" d="M170.192,157.183c-1.015,0.586-1.015,1.546,0,2.132l6.851,3.955c1.016,0.587,2.679,0.587,3.693,0
				l17.409-10.05c1.016-0.586,1.015-1.545-0.002-2.13l-6.862-3.951c-1.017-0.585-2.679-0.583-3.694,0.002L170.192,157.183z"/>
			<path fill="#41378C" d="M171.463,158.373l6.599,3.805c0.861,0.498,1.925,0.497,2.787-0.002l16.471-9.534
				c0.302-0.174,0.301-0.608-0.001-0.783l-6.599-3.806c-0.862-0.498-1.926-0.497-2.788,0.002l-16.469,9.534
				C171.16,157.763,171.16,158.198,171.463,158.373z"/>
			<polygon fill="#A0EBFF" points="197.349,155.562 197.001,155.765 197.001,154.159 197.349,153.956 			"/>
		</g>
	</g>
	<g>
		<g>
			<path fill="#A0EBFF" d="M93.529,98.881l-14.496,8.148c-0.424,0.238-0.429,0.847-0.009,1.092l17.76,10.376
				c0.467,0.273,1.046,0.278,1.518,0.011l14.726-8.313L93.529,98.881z"/>
			<polygon fill="#39AE96" points="115.726,107.66 80.773,105.033 80.773,106.137 100.237,117.509 115.726,108.765 			"/>
			<polygon fill="#13E275" points="96.227,96.346 80.773,105.033 100.237,116.404 115.726,107.66 			"/>
			<polygon fill="#A0EBFF" points="114.388,104.071 82.11,101.471 82.11,105.135 100.085,115.637 114.388,107.562 			"/>
			<polygon fill="#FFFFFF" points="100.06,102.917 114.388,104.071 114.388,107.562 100.085,115.637 100.06,115.622 			"/>
			<polygon fill="#297F58" points="114.801,108.182 114.028,107.765 114.028,103.647 114.801,104.169 			"/>
			<g>
				<polygon fill="#39AE96" points="115.726,103.316 80.773,100.689 80.773,101.794 100.237,113.166 115.726,104.421 				"/>
				<polygon fill="#13E275" points="96.227,92.003 80.773,100.689 100.237,112.061 115.726,103.316 				"/>
			</g>
			<polygon fill="#39AE96" points="114.801,108.607 115.726,108.607 115.726,103.664 114.801,104.169 			"/>
		</g>
	</g>
	<g>
		<path fill="#C8E6EB" d="M60.324,134.624l-7.126-1.153L40.1,136.997l-0.435,1.467c-0.485,1.641,0.266,3.394,1.79,4.173l4.038,2.064
			c1.088,0.557,2.388,0.515,3.438-0.112l9.94-5.931c0.901-0.538,1.452-1.509,1.452-2.559V134.624z"/>
		<path fill="#3C82AF" d="M60.259,133.318l-7.126-1.153l-13.098,3.526l-0.436,1.467c-0.485,1.641,0.267,3.394,1.79,4.173
			l4.038,2.064c1.089,0.557,2.388,0.515,3.438-0.112l9.94-5.931c0.901-0.537,1.453-1.509,1.453-2.559V133.318z"/>
		<path fill="#6EE1FF" d="M44.84,130.972c-1.472,1.021-2.912,2.324-4.329,3.847c-0.914,0.982-0.635,2.571,0.56,3.182l3.278,1.676
			c1.543,0.789,3.426,0.438,4.577-0.857c2.997-3.376,6.828-5.105,11.333-5.501l-4.684-2.748
			C52.224,128.604,48.034,128.757,44.84,130.972z"/>
		<g>
			<path fill="#3C82AF" d="M56.771,134.173l-8.662-4.682c0.303-0.077,0.64-0.141,0.999-0.195l8.501,4.61L56.771,134.173z"/>
		</g>
		<g>
			<path fill="#3C82AF" d="M52.77,131.596l-0.052-0.313c1.596-0.264,2.893-0.264,4.083,0.001l0.561,0.333
				C56.212,131.361,54.323,131.338,52.77,131.596z"/>
		</g>
	</g>
	<ellipse fill="#E1FAFF" cx="288.969" cy="69.697" rx="20.044" ry="25.333"/>
	<ellipse fill="#E1FAFF" cx="244.983" cy="12.071" rx="5.568" ry="7.238"/>
	<ellipse fill="#E1FAFF" cx="8.073" cy="75.543" rx="7.516" ry="11.136"/>
	<ellipse fill="#E1FAFF" cx="5.846" cy="280.159" rx="5.846" ry="6.402"/>
	<polygon fill="#A0EBFF" points="188.931,174.524 212.3,188.295 195.963,197.868 172.569,184.058 	"/>
	<polygon fill="#A0EBFF" points="165.565,121.478 142.196,135.25 158.533,144.823 181.928,131.012 	"/>
	<path fill="#9E693E" d="M85.739,70.144c0,0,14.356,10.878,20.736,23.395c0.989,1.94,8.294,3.594,8.992,9.707l-13.413-7.072
		L81.351,82.53L85.739,70.144z"/>
	<g>
		<path fill="#9E693E" d="M34.714,94.532c0,0,28.641,12.507,34.395,13.068c1.506,2.063-0.363,6.896-1.543,7.078
			c0,0-26.465,0.048-43.124-13.133L34.714,94.532z"/>
	</g>
	<path fill="#2896FF" d="M40.265,83.147c0,0,2.077-17.364,0.944-21.705s-5.664-10.763-9.626-9.248
		c-6.417,2.454-7.927,14.344-7.927,29.065C23.657,81.26,34.603,84.468,40.265,83.147z"/>
	<path fill="#FFFFFF" d="M41.209,77.555c-0.223,2.457-0.413,4.308-0.507,5.194c-0.037,0.35-0.288,0.635-0.635,0.696
		c-5.219,0.912-13.914-1.296-16.234-1.929c-0.349-0.095-0.584-0.418-0.583-0.78c0.006-1.695,0.033-3.349,0.084-4.959
		c0.015-0.467,0.423-0.813,0.887-0.758c2.796,0.33,11.45,1.408,16.239,1.664C40.912,76.706,41.25,77.104,41.209,77.555z"/>
	<path fill="#9E693E" d="M101.717,95.016c0,0-0.164,2.461,0.328,3.855c0.493,1.395,4.02,3.774,4.84,3.774s0.656-1.395-0.492-2.379
		s-0.821-3.364-0.821-3.364L101.717,95.016z"/>
	<path fill="#FCE3C3" d="M160.904,104.785c0,0-5.505,7.765-8.502,17.076c-0.828,2.57-6.408,5.42-5.604,10.662l7.653-4.508
		l3.443-4.812l12.805-11.125C170.699,112.079,163.44,103.359,160.904,104.785z"/>
	<path fill="#FCE3C3" d="M158.059,122.437c0,0,0.913,4.873-0.926,7.938c-1.839,3.065-2.82,3.8-3.433,3.678
		c-0.613-0.122,0.735-4.168,0.858-4.781s-2.33-5.149-2.33-5.149L158.059,122.437z"/>
	<g>
		<polygon fill="#A0EBFF" points="110.896,151.068 148.671,173.254 122.064,188.765 84.25,166.517 		"/>
		<polygon fill="#3C82AF" points="147.031,171.528 147.031,172.893 121.6,187.797 85.185,166.297 85.185,164.934 		"/>
		<polygon fill="#05CDFF" points="121.6,186.432 121.6,187.797 85.185,166.297 85.185,164.934 		"/>
		<polygon fill="#9CF6FF" points="110.653,150.092 147.031,171.528 121.6,186.432 85.185,164.934 		"/>
		<polygon fill="#05CDFF" points="110.186,152.004 143.776,171.797 130.286,179.703 96.661,159.852 		"/>
		<polygon fill="#05CDFF" points="106.965,167.098 119.476,174.47 111.31,179.256 98.787,171.863 		"/>
		<polygon fill="#6EE1FF" points="110.752,172.342 110.907,172.421 105.292,175.721 105.123,175.622 		"/>
		<g>
			<g>
				<polygon fill="#B6FFF6" points="110.653,119.638 111.696,119.206 111.696,113.151 110.653,113.794 				"/>
				<polygon fill="#B6FFF6" points="111.696,113.151 111.696,149.449 148.075,170.843 148.075,134.545 				"/>
				<polygon fill="#3C82AF" points="147.031,135.189 147.031,171.487 148.075,170.843 148.075,134.545 				"/>
				<polygon fill="#41378C" points="110.653,113.794 110.653,150.092 147.031,171.487 147.031,135.189 				"/>
				<path fill="#0091C8" d="M112.679,149.431l31.543,18.363c0.388,0.227,0.874-0.055,0.874-0.503v-29.133
					c0-0.207-0.109-0.398-0.288-0.502l-31.544-18.446c-0.388-0.227-0.875,0.053-0.875,0.502v29.217
					C112.39,149.136,112.5,149.327,112.679,149.431z"/>
				<g>
					<g>
						<path fill="#41378C" d="M130.108,176.965l-1.144,0.643c-0.161,0.089-0.16,0.325,0.002,0.419l1.23,0.726
							c0.138,0.08,0.308,0.082,0.443,0.003l1.125-0.643c0.159-0.091,0.158-0.322-0.003-0.417l-1.211-0.722
							C130.414,176.891,130.245,176.889,130.108,176.965z"/>
						<path fill="#41378C" d="M127.572,175.473l-1.144,0.643c-0.161,0.091-0.16,0.324,0.003,0.418l1.229,0.726
							c0.138,0.08,0.308,0.082,0.444,0.006l1.125-0.646c0.159-0.091,0.158-0.32-0.003-0.417l-1.211-0.722
							C127.877,175.397,127.708,175.396,127.572,175.473z"/>
						<path fill="#41378C" d="M125.035,173.98l-1.144,0.642c-0.161,0.092-0.16,0.324,0.002,0.42l1.229,0.724
							c0.139,0.082,0.308,0.085,0.444,0.007l1.125-0.643c0.16-0.093,0.158-0.324-0.002-0.42l-1.212-0.723
							C125.341,173.907,125.172,173.903,125.035,173.98z"/>
						<path fill="#41378C" d="M107.279,163.531l-1.144,0.642c-0.161,0.091-0.16,0.325,0.002,0.42l1.23,0.725
							c0.138,0.081,0.307,0.083,0.444,0.005l1.125-0.643c0.159-0.091,0.157-0.322-0.003-0.419l-1.211-0.722
							C107.585,163.457,107.416,163.454,107.279,163.531z"/>
						<path fill="#41378C" d="M104.743,162.039l-1.144,0.642c-0.161,0.091-0.16,0.323,0.003,0.42l1.229,0.724
							c0.138,0.082,0.308,0.083,0.444,0.006l1.125-0.644c0.159-0.091,0.158-0.322-0.003-0.418l-1.211-0.722
							C105.049,161.964,104.879,161.962,104.743,162.039z"/>
						<path fill="#41378C" d="M102.206,160.545l-1.144,0.642c-0.161,0.09-0.16,0.324,0.003,0.42l1.23,0.725
							c0.137,0.081,0.307,0.083,0.443,0.005l1.125-0.644c0.16-0.091,0.158-0.323-0.003-0.418l-1.211-0.722
							C102.512,160.472,102.343,160.469,102.206,160.545z"/>
						<path fill="#41378C" d="M99.669,159.053l-1.144,0.642c-0.162,0.09-0.16,0.324,0.002,0.419l1.23,0.725
							c0.138,0.081,0.308,0.083,0.444,0.005l1.125-0.644c0.159-0.091,0.158-0.322-0.003-0.418l-1.212-0.722
							C99.975,158.979,99.806,158.976,99.669,159.053z"/>
						<path fill="#41378C" d="M109.389,165.005l-1.144,0.643c-0.161,0.089-0.16,0.322,0.003,0.419l14.262,8.237
							c0.138,0.08,0.308,0.081,0.444,0.003l1.125-0.643c0.16-0.091,0.158-0.322-0.003-0.418l-14.244-8.233
							C109.695,164.931,109.525,164.928,109.389,165.005z"/>
					</g>
					<g>
						<path fill="#41378C" d="M132.645,175.405l-1.144,0.643c-0.161,0.089-0.16,0.322,0.002,0.419l1.229,0.726
							c0.138,0.08,0.308,0.082,0.444,0.003l1.125-0.643c0.16-0.091,0.158-0.321-0.003-0.417l-1.211-0.722
							C132.951,175.331,132.782,175.33,132.645,175.405z"/>
						<path fill="#41378C" d="M130.108,173.914l-1.144,0.641c-0.161,0.09-0.16,0.325,0.002,0.419l1.23,0.726
							c0.138,0.08,0.308,0.082,0.443,0.004l1.125-0.643c0.159-0.092,0.158-0.321-0.003-0.418l-1.211-0.721
							C130.414,173.838,130.245,173.837,130.108,173.914z"/>
						<path fill="#41378C" d="M127.572,172.421l-1.144,0.641c-0.161,0.091-0.16,0.325,0.003,0.419l1.229,0.726
							c0.138,0.081,0.308,0.082,0.444,0.007l1.125-0.646c0.159-0.09,0.158-0.321-0.003-0.416l-1.211-0.723
							C127.877,172.347,127.708,172.344,127.572,172.421z"/>
						<path fill="#41378C" d="M125.035,170.928l-1.144,0.643c-0.161,0.089-0.16,0.323,0.002,0.419l1.229,0.725
							c0.139,0.081,0.308,0.084,0.444,0.006l1.125-0.643c0.16-0.093,0.158-0.323-0.002-0.419l-1.212-0.723
							C125.341,170.854,125.172,170.851,125.035,170.928z"/>
						<path fill="#41378C" d="M122.499,169.435l-1.144,0.641c-0.161,0.091-0.16,0.325,0.002,0.421l1.23,0.725
							c0.138,0.081,0.308,0.083,0.444,0.006l1.125-0.645c0.16-0.091,0.158-0.321-0.002-0.417l-1.212-0.723
							C122.804,169.36,122.636,169.357,122.499,169.435z"/>
						<path fill="#41378C" d="M119.962,167.941l-1.144,0.643c-0.161,0.091-0.16,0.323,0.002,0.419l1.23,0.726
							c0.138,0.08,0.308,0.083,0.444,0.005l1.125-0.645c0.16-0.091,0.158-0.321-0.003-0.417l-1.211-0.722
							C120.268,167.869,120.099,167.866,119.962,167.941z"/>
						<path fill="#41378C" d="M117.425,166.45l-1.144,0.641c-0.161,0.091-0.159,0.323,0.003,0.419l1.229,0.726
							c0.138,0.082,0.308,0.084,0.444,0.005l1.125-0.643c0.16-0.093,0.158-0.322-0.003-0.419l-1.211-0.721
							C117.731,166.376,117.563,166.373,117.425,166.45z"/>
						<path fill="#41378C" d="M114.889,164.957l-1.144,0.643c-0.161,0.089-0.16,0.323,0.002,0.419l1.23,0.724
							c0.138,0.082,0.307,0.084,0.443,0.007l1.125-0.645c0.159-0.091,0.158-0.322-0.003-0.417l-1.212-0.723
							C115.194,164.883,115.026,164.88,114.889,164.957z"/>
						<path fill="#41378C" d="M112.353,163.464l-1.144,0.643c-0.161,0.089-0.16,0.323,0.002,0.419l1.23,0.725
							c0.138,0.081,0.308,0.084,0.444,0.006l1.125-0.645c0.159-0.091,0.158-0.321-0.003-0.417l-1.211-0.722
							C112.658,163.391,112.489,163.388,112.353,163.464z"/>
						<path fill="#41378C" d="M109.816,161.971l-1.145,0.642c-0.161,0.091-0.159,0.324,0.003,0.42l1.229,0.725
							c0.138,0.081,0.308,0.083,0.444,0.005l1.125-0.643c0.16-0.091,0.158-0.323-0.003-0.418l-1.211-0.722
							C110.122,161.898,109.953,161.895,109.816,161.971z"/>
						<path fill="#41378C" d="M107.279,160.479l-1.144,0.642c-0.161,0.09-0.16,0.324,0.002,0.419l1.23,0.725
							c0.138,0.081,0.307,0.083,0.444,0.005l1.125-0.643c0.159-0.091,0.157-0.322-0.003-0.418l-1.211-0.722
							C107.585,160.405,107.416,160.402,107.279,160.479z"/>
						<path fill="#41378C" d="M104.743,158.986l-1.144,0.643c-0.161,0.09-0.16,0.323,0.003,0.419l1.229,0.724
							c0.138,0.082,0.308,0.083,0.444,0.006l1.125-0.644c0.159-0.091,0.158-0.322-0.003-0.418l-1.211-0.722
							C105.049,158.913,104.879,158.909,104.743,158.986z"/>
						<path fill="#41378C" d="M102.206,157.493l-1.144,0.642c-0.161,0.09-0.16,0.324,0.003,0.42l1.23,0.725
							c0.137,0.081,0.307,0.083,0.443,0.005l1.125-0.644c0.16-0.091,0.158-0.323-0.003-0.418l-1.211-0.722
							C102.512,157.42,102.343,157.417,102.206,157.493z"/>
					</g>
					<g>
						<path fill="#41378C" d="M135.181,173.846l-1.144,0.642c-0.162,0.091-0.16,0.323,0.002,0.42l1.23,0.725
							c0.138,0.082,0.308,0.083,0.444,0.005l1.125-0.643c0.16-0.091,0.157-0.324-0.003-0.418l-1.211-0.721
							C135.487,173.772,135.318,173.769,135.181,173.846z"/>
						<path fill="#41378C" d="M132.645,172.353l-1.144,0.643c-0.161,0.09-0.16,0.324,0.002,0.419l1.229,0.727
							c0.138,0.08,0.308,0.081,0.444,0.003l1.125-0.643c0.16-0.091,0.158-0.322-0.003-0.418l-1.211-0.721
							C132.951,172.279,132.782,172.275,132.645,172.353z"/>
						<path fill="#41378C" d="M130.108,170.859l-1.144,0.643c-0.161,0.091-0.16,0.324,0.002,0.42l1.23,0.726
							c0.138,0.08,0.308,0.081,0.443,0.004l1.125-0.644c0.159-0.091,0.158-0.322-0.003-0.418l-1.211-0.721
							C130.414,170.786,130.245,170.784,130.108,170.859z"/>
						<path fill="#41378C" d="M127.572,169.367l-1.144,0.642c-0.161,0.092-0.16,0.324,0.003,0.42l1.229,0.726
							c0.138,0.081,0.308,0.083,0.444,0.006l1.125-0.644c0.159-0.092,0.158-0.324-0.003-0.418l-1.211-0.723
							C127.877,169.294,127.708,169.291,127.572,169.367z"/>
						<path fill="#41378C" d="M125.035,167.875l-1.144,0.642c-0.161,0.091-0.16,0.324,0.002,0.42l1.229,0.725
							c0.139,0.082,0.308,0.083,0.444,0.005l1.125-0.643c0.16-0.091,0.158-0.322-0.002-0.418l-1.212-0.723
							C125.341,167.801,125.172,167.798,125.035,167.875z"/>
						<path fill="#41378C" d="M122.499,166.382l-1.144,0.642c-0.161,0.092-0.16,0.325,0.002,0.42l1.23,0.725
							c0.138,0.082,0.308,0.083,0.444,0.006l1.125-0.644c0.16-0.091,0.158-0.322-0.002-0.418l-1.212-0.722
							C122.804,166.309,122.636,166.305,122.499,166.382z"/>
						<path fill="#41378C" d="M119.962,164.889l-1.144,0.643c-0.161,0.091-0.16,0.324,0.002,0.419l1.23,0.727
							c0.138,0.08,0.308,0.083,0.444,0.004l1.125-0.643c0.16-0.091,0.158-0.323-0.003-0.419l-1.211-0.721
							C120.268,164.816,120.099,164.813,119.962,164.889z"/>
						<path fill="#41378C" d="M117.425,163.397l-1.144,0.641c-0.161,0.091-0.159,0.325,0.003,0.42l1.229,0.726
							c0.138,0.081,0.308,0.083,0.444,0.004l1.125-0.642c0.16-0.092,0.158-0.322-0.003-0.42l-1.211-0.721
							C117.731,163.323,117.563,163.32,117.425,163.397z"/>
						<path fill="#41378C" d="M114.889,161.904l-1.144,0.643c-0.161,0.09-0.16,0.323,0.002,0.419l1.23,0.725
							c0.138,0.081,0.307,0.084,0.443,0.006l1.125-0.644c0.159-0.092,0.158-0.322-0.003-0.418l-1.212-0.722
							C115.194,161.831,115.026,161.827,114.889,161.904z"/>
						<path fill="#41378C" d="M112.353,160.411l-1.144,0.643c-0.161,0.091-0.16,0.324,0.002,0.419l1.23,0.725
							c0.138,0.082,0.308,0.083,0.444,0.005l1.125-0.644c0.159-0.091,0.158-0.322-0.003-0.418l-1.211-0.722
							C112.658,160.338,112.489,160.335,112.353,160.411z"/>
						<path fill="#41378C" d="M109.816,158.918l-1.145,0.642c-0.161,0.091-0.159,0.324,0.003,0.42l1.229,0.725
							c0.138,0.082,0.308,0.083,0.444,0.005l1.125-0.643c0.16-0.091,0.158-0.323-0.003-0.418l-1.211-0.722
							C110.122,158.845,109.953,158.842,109.816,158.918z"/>
						<path fill="#41378C" d="M107.279,157.426l-1.144,0.642c-0.161,0.091-0.16,0.325,0.002,0.42l1.23,0.724
							c0.138,0.082,0.307,0.084,0.444,0.006l1.125-0.643c0.159-0.091,0.157-0.322-0.003-0.418l-1.211-0.722
							C107.585,157.353,107.416,157.349,107.279,157.426z"/>
						<path fill="#41378C" d="M104.743,155.934l-1.144,0.642c-0.161,0.091-0.16,0.324,0.003,0.419l1.229,0.724
							c0.138,0.082,0.308,0.084,0.444,0.006l1.125-0.644c0.159-0.091,0.158-0.322-0.003-0.418l-1.211-0.722
							C105.049,155.86,104.879,155.857,104.743,155.934z"/>
					</g>
					<g>
						<path fill="#41378C" d="M137.718,172.285l-1.144,0.643c-0.162,0.091-0.16,0.323,0.002,0.421l1.23,0.724
							c0.138,0.082,0.308,0.083,0.444,0.005l1.125-0.643c0.159-0.091,0.158-0.323-0.003-0.418l-1.212-0.723
							C138.023,172.213,137.855,172.21,137.718,172.285z"/>
						<path fill="#41378C" d="M135.181,170.794l-1.144,0.643c-0.162,0.089-0.16,0.323,0.002,0.419l1.23,0.724
							c0.138,0.082,0.308,0.083,0.444,0.005l1.125-0.643c0.16-0.091,0.157-0.322-0.003-0.418l-1.211-0.723
							C135.487,170.72,135.318,170.717,135.181,170.794z"/>
						<path fill="#41378C" d="M132.645,169.301l-1.144,0.643c-0.161,0.089-0.16,0.323,0.002,0.419l1.229,0.724
							c0.138,0.082,0.308,0.084,0.444,0.007l1.125-0.645c0.16-0.091,0.158-0.322-0.003-0.417l-1.211-0.723
							C132.951,169.227,132.782,169.224,132.645,169.301z"/>
						<path fill="#41378C" d="M130.108,167.808l-1.144,0.643c-0.161,0.091-0.16,0.323,0.002,0.419l1.23,0.724
							c0.138,0.082,0.308,0.085,0.443,0.007l1.125-0.645c0.159-0.091,0.158-0.322-0.003-0.417l-1.211-0.722
							C130.414,167.735,130.245,167.731,130.108,167.808z"/>
						<path fill="#41378C" d="M127.572,166.315l-1.144,0.642c-0.161,0.091-0.16,0.323,0.003,0.419l1.229,0.726
							c0.138,0.082,0.308,0.083,0.444,0.005l1.125-0.643c0.159-0.093,0.158-0.323-0.003-0.418l-1.211-0.723
							C127.877,166.242,127.708,166.239,127.572,166.315z"/>
						<path fill="#41378C" d="M125.035,164.823l-1.144,0.642c-0.161,0.09-0.16,0.324,0.002,0.42l1.229,0.724
							c0.139,0.082,0.308,0.084,0.444,0.006l1.125-0.644c0.16-0.091,0.158-0.322-0.002-0.418l-1.212-0.723
							C125.341,164.749,125.172,164.746,125.035,164.823z"/>
						<path fill="#41378C" d="M122.499,163.33l-1.144,0.643c-0.161,0.091-0.16,0.323,0.002,0.419l1.23,0.724
							c0.138,0.082,0.308,0.084,0.444,0.007l1.125-0.645c0.16-0.091,0.158-0.322-0.002-0.418l-1.212-0.722
							C122.804,163.256,122.636,163.253,122.499,163.33z"/>
						<path fill="#41378C" d="M119.962,161.837l-1.144,0.642c-0.161,0.09-0.16,0.324,0.002,0.419l1.23,0.726
							c0.138,0.081,0.308,0.083,0.444,0.005l1.125-0.644c0.16-0.091,0.158-0.322-0.003-0.418l-1.211-0.722
							C120.268,161.764,120.099,161.761,119.962,161.837z"/>
						<path fill="#41378C" d="M117.425,160.345l-1.144,0.642c-0.161,0.091-0.159,0.324,0.003,0.419l1.229,0.725
							c0.138,0.082,0.308,0.083,0.444,0.005l1.125-0.643c0.16-0.091,0.158-0.323-0.003-0.419l-1.211-0.722
							C117.731,160.271,117.563,160.268,117.425,160.345z"/>
						<path fill="#41378C" d="M114.889,158.852l-1.144,0.642c-0.161,0.09-0.16,0.324,0.002,0.419l1.23,0.724
							c0.138,0.082,0.307,0.083,0.443,0.006l1.125-0.644c0.159-0.091,0.158-0.322-0.003-0.418l-1.212-0.722
							C115.194,158.778,115.026,158.775,114.889,158.852z"/>
						<path fill="#41378C" d="M112.353,157.359l-1.144,0.642c-0.161,0.09-0.16,0.324,0.002,0.42l1.23,0.725
							c0.138,0.081,0.308,0.083,0.444,0.005l1.125-0.644c0.159-0.091,0.158-0.323-0.003-0.418l-1.211-0.722
							C112.658,157.286,112.489,157.283,112.353,157.359z"/>
						<path fill="#41378C" d="M109.816,155.866l-1.145,0.642c-0.161,0.09-0.159,0.324,0.003,0.419l1.229,0.725
							c0.138,0.081,0.308,0.083,0.444,0.005l1.125-0.643c0.16-0.091,0.158-0.323-0.003-0.418l-1.211-0.722
							C110.122,155.793,109.953,155.79,109.816,155.866z"/>
						<path fill="#41378C" d="M107.279,154.374l-1.144,0.642c-0.161,0.09-0.16,0.324,0.002,0.419l1.23,0.724
							c0.138,0.082,0.307,0.084,0.444,0.005l1.125-0.643c0.159-0.092,0.157-0.323-0.003-0.418l-1.211-0.722
							C107.585,154.3,107.416,154.297,107.279,154.374z"/>
					</g>
					<g>
						<path fill="#41378C" d="M140.255,170.859l-1.145,0.643c-0.161,0.091-0.16,0.324,0.003,0.42l1.229,0.726
							c0.139,0.08,0.308,0.081,0.444,0.004l1.125-0.644c0.159-0.091,0.158-0.322-0.003-0.418l-1.211-0.721
							C140.56,170.786,140.392,170.784,140.255,170.859z"/>
						<path fill="#41378C" d="M137.718,169.367l-1.144,0.642c-0.162,0.092-0.16,0.324,0.002,0.42l1.23,0.726
							c0.138,0.081,0.308,0.083,0.444,0.006l1.125-0.644c0.159-0.092,0.158-0.324-0.003-0.418l-1.212-0.723
							C138.023,169.294,137.855,169.291,137.718,169.367z"/>
						<path fill="#41378C" d="M135.181,167.875l-1.144,0.642c-0.162,0.091-0.16,0.324,0.002,0.42l1.23,0.725
							c0.138,0.082,0.308,0.083,0.444,0.005l1.125-0.643c0.16-0.091,0.157-0.322-0.003-0.418l-1.211-0.723
							C135.487,167.801,135.318,167.798,135.181,167.875z"/>
						<path fill="#41378C" d="M132.645,166.382l-1.144,0.642c-0.161,0.092-0.16,0.325,0.002,0.42l1.229,0.725
							c0.138,0.082,0.308,0.083,0.444,0.006l1.125-0.644c0.16-0.091,0.158-0.322-0.003-0.418l-1.211-0.722
							C132.951,166.309,132.782,166.305,132.645,166.382z"/>
						<path fill="#41378C" d="M130.108,164.889l-1.144,0.643c-0.161,0.091-0.16,0.324,0.002,0.419l1.23,0.727
							c0.138,0.08,0.308,0.083,0.443,0.004l1.125-0.643c0.159-0.091,0.158-0.323-0.003-0.419l-1.211-0.721
							C130.414,164.816,130.245,164.813,130.108,164.889z"/>
						<path fill="#41378C" d="M127.572,163.397l-1.144,0.641c-0.161,0.091-0.16,0.325,0.003,0.42l1.229,0.726
							c0.138,0.081,0.308,0.083,0.444,0.004l1.125-0.642c0.159-0.092,0.158-0.322-0.003-0.42l-1.211-0.721
							C127.877,163.323,127.708,163.32,127.572,163.397z"/>
						<path fill="#41378C" d="M125.035,161.904l-1.144,0.643c-0.161,0.09-0.16,0.323,0.002,0.419l1.229,0.725
							c0.139,0.081,0.308,0.084,0.444,0.006l1.125-0.644c0.16-0.092,0.158-0.322-0.002-0.418l-1.212-0.722
							C125.341,161.831,125.172,161.827,125.035,161.904z"/>
						<path fill="#41378C" d="M122.499,160.411l-1.144,0.643c-0.161,0.091-0.16,0.324,0.002,0.419l1.23,0.725
							c0.138,0.082,0.308,0.083,0.444,0.005l1.125-0.644c0.16-0.091,0.158-0.322-0.002-0.418l-1.212-0.722
							C122.804,160.338,122.636,160.335,122.499,160.411z"/>
						<path fill="#41378C" d="M119.962,158.918l-1.144,0.642c-0.161,0.091-0.16,0.324,0.002,0.42l1.23,0.725
							c0.138,0.082,0.308,0.083,0.444,0.005l1.125-0.643c0.16-0.091,0.158-0.323-0.003-0.418l-1.211-0.722
							C120.268,158.845,120.099,158.842,119.962,158.918z"/>
						<path fill="#41378C" d="M117.425,157.426l-1.144,0.642c-0.161,0.091-0.159,0.325,0.003,0.42l1.229,0.724
							c0.138,0.082,0.308,0.084,0.444,0.006l1.125-0.643c0.16-0.091,0.158-0.322-0.003-0.418l-1.211-0.722
							C117.731,157.353,117.563,157.349,117.425,157.426z"/>
						<path fill="#41378C" d="M114.889,155.934l-1.144,0.642c-0.161,0.091-0.16,0.324,0.002,0.419l1.23,0.724
							c0.138,0.082,0.307,0.084,0.443,0.006l1.125-0.644c0.159-0.091,0.158-0.322-0.003-0.418l-1.212-0.722
							C115.194,155.86,115.026,155.857,114.889,155.934z"/>
						<path fill="#41378C" d="M112.353,154.44l-1.144,0.642c-0.161,0.091-0.16,0.324,0.002,0.42l1.23,0.725
							c0.138,0.082,0.308,0.083,0.444,0.005l1.125-0.643c0.159-0.091,0.158-0.323-0.003-0.418l-1.211-0.722
							C112.658,154.367,112.489,154.364,112.353,154.44z"/>
						<path fill="#41378C" d="M109.816,152.948l-1.145,0.642c-0.161,0.091-0.159,0.325,0.003,0.419l1.229,0.725
							c0.138,0.082,0.308,0.083,0.444,0.005l1.125-0.643c0.16-0.091,0.158-0.323-0.003-0.418l-1.211-0.722
							C110.122,152.875,109.953,152.871,109.816,152.948z"/>
					</g>
				</g>
			</g>
		</g>
		<g>
			<path fill="#05CDFF" d="M141.293,138.529l-25.192-14.521c-0.15-0.087-0.337,0.022-0.337,0.194v23.407
				c0,0.351,0.188,0.674,0.492,0.849l24.628,14.071c0.398,0.227,0.893-0.061,0.893-0.519v-22.644
				C141.777,139.021,141.592,138.702,141.293,138.529z"/>
			<polygon fill="#88EEFF" points="137.01,148.781 135.505,147.914 135.502,149.763 137.01,150.627 			"/>
			<polygon fill="#88EEFF" points="137.01,145.895 119.342,135.987 119.339,136.707 137.01,146.612 			"/>
			<polygon fill="#88EEFF" points="137.01,153.47 119.342,143.563 119.339,144.282 137.01,154.187 			"/>
			<polygon fill="#FFFFFF" points="137.01,155.017 119.342,145.109 119.339,145.829 137.01,155.733 			"/>
			<polygon fill="#09ABD1" points="137.01,156.604 119.342,146.697 119.339,147.417 137.01,157.321 			"/>
			<path fill="#09ABD1" d="M137.01,145.208c0,0,0.223-3.64-0.895-4.177c-0.803-0.385-0.706,0.686-2.357-0.108
				c-1.569-0.754-1.245-5.422-3.157-6.471c-1.438-0.79-1.993,2.458-3.736,1.673c-1.61-0.727-1.614-1.985-3.062-2.722
				c-0.853-0.435-2.419,1.862-2.955,1.617c-1.333-0.61-1.507,0.281-1.507,0.281l-0.003,0.72c0,0.002,17.671,9.904,17.671,9.904
				V145.208z"/>
			<path fill="#88EEFF" d="M137.01,145.208c0,0-0.39-1.854-1.508-2.391c-0.803-0.385-0.846-2.962-2.498-3.757
				c-1.568-0.754-1.48,0.734-3.392-0.315c-1.438-0.789-0.688-4.296-2.431-5.083c-1.609-0.726-2.872,3.347-4.293,2.557
				c-0.638-0.354-1.503-1.775-2.039-2.02c-1.333-0.61-1.507,1.102-1.507,1.102l-0.003,0.72c0,0.002,17.671,9.904,17.671,9.904
				V145.208z"/>
			<path fill="#FFFFFF" d="M137.01,145.208c0,0-0.104-1.642-0.99-2.015c-0.82-0.345-0.873,0.165-2.525-0.629
				c-1.568-0.754-2.422-4.794-4.401-5.713c-0.733-0.34-1.68,1.873-2.385,1.547c-0.679-0.313-1.326-2.115-2.747-2.904
				c-0.638-0.354-2.577,1.098-3.113,0.853c-1.333-0.611-1.507-1.045-1.507-1.045l-0.003,0.72c0,0.002,17.671,9.904,17.671,9.904
				V145.208z"/>
			<polygon fill="#88EEFF" points="133.758,146.903 132.253,146.036 132.251,147.885 133.758,148.75 			"/>
			<polygon fill="#88EEFF" points="130.602,145.088 129.097,144.221 129.094,146.069 130.602,146.934 			"/>
			<polygon fill="#88EEFF" points="127.462,143.289 125.957,142.421 125.955,144.27 127.462,145.135 			"/>
			<polygon fill="#88EEFF" points="124.101,141.348 122.595,140.479 122.593,142.329 124.101,143.193 			"/>
			<polygon fill="#88EEFF" points="120.849,139.454 119.344,138.586 119.342,140.435 120.849,141.299 			"/>
		</g>
	</g>
	<g>
		<g>
			<ellipse fill="#E1FAFF" cx="82.698" cy="306.761" rx="48.281" ry="26.239"/>
		</g>
		<g>
			<g>
				<g>
					<path fill="#263364" d="M58.2,293.622c-2.176-1.256-3.941-0.282-3.941,2.174c0,2.455,1.765,5.464,3.941,6.72
						c2.176,1.255,3.94,0.28,3.94-2.177C62.14,297.884,60.376,294.876,58.2,293.622z"/>
					<path fill="#263364" d="M57.521,304.657c2.286-0.24,3.481-1.229,3.935-2.209l-5.575-9.309
						c-1.245,0.301-3.487,1.362-4.098,2.746L57.521,304.657z"/>
				</g>
				<g>
					<path fill="#263364" d="M55.399,295.243c-2.177-1.254-3.94-0.28-3.94,2.177c0,2.455,1.764,5.464,3.94,6.72
						c2.176,1.253,3.94,0.279,3.94-2.177C59.34,299.508,57.576,296.499,55.399,295.243z"/>
					<path fill="#FFFFFF" d="M55.399,296.374c-1.623-0.936-2.939-0.208-2.939,1.622c0,1.832,1.316,4.076,2.939,5.011
						c1.623,0.938,2.939,0.21,2.939-1.62C58.338,299.555,57.022,297.311,55.399,296.374z"/>
				</g>
			</g>
			<g>
				<g>
					<path fill="#263364" d="M94.992,292.99c2.177-1.254,3.941-0.28,3.941,2.174c0,2.458-1.765,5.468-3.941,6.72
						c-2.176,1.256-3.94,0.282-3.94-2.174C91.052,297.255,92.816,294.246,94.992,292.99z"/>
					<path fill="#263364" d="M95.672,304.027c-2.286-0.242-3.482-1.228-3.935-2.211l5.575-9.309
						c1.245,0.302,3.487,1.365,4.099,2.747L95.672,304.027z"/>
				</g>
				<g>
					<path fill="#263364" d="M97.793,294.614c2.176-1.256,3.94-0.282,3.94,2.174s-1.764,5.464-3.94,6.72
						c-2.177,1.255-3.941,0.282-3.941-2.174C93.852,298.876,95.616,295.868,97.793,294.614z"/>
					<path fill="#FFFFFF" d="M97.793,295.977c1.509-0.871,2.732-0.194,2.732,1.51c0,1.701-1.223,3.787-2.732,4.659
						c-1.51,0.871-2.733,0.194-2.733-1.51C95.06,298.934,96.283,296.847,97.793,295.977z"/>
				</g>
			</g>
			<g>
				<g>
					<path fill="#263364" d="M51.132,318.636c2.176-1.256,3.94-0.281,3.94,2.175c0,2.454-1.764,5.464-3.94,6.72
						c-2.176,1.254-3.941,0.28-3.941-2.175C47.191,322.898,48.956,319.889,51.132,318.636z"/>
					<path fill="#263364" d="M51.812,329.672c-2.287-0.242-3.481-1.229-3.935-2.211l5.575-9.307c1.245,0.3,3.487,1.361,4.098,2.745
						L51.812,329.672z"/>
				</g>
				<g>
					<path fill="#263364" d="M53.933,320.257c2.176-1.254,3.94-0.278,3.94,2.176c0,2.456-1.764,5.464-3.94,6.722
						c-2.176,1.252-3.94,0.278-3.94-2.178S51.756,321.513,53.933,320.257z"/>
					<path fill="#FFFFFF" d="M53.933,321.646c1.497-0.864,2.711-0.192,2.711,1.498c0,1.687-1.214,3.758-2.711,4.62
						c-1.498,0.865-2.711,0.194-2.711-1.496S52.435,322.51,53.933,321.646z"/>
				</g>
			</g>
			<g>
				<g>
					<path fill="#263364" d="M101.194,317.137c-2.176-1.254-3.94-0.28-3.94,2.176s1.764,5.464,3.94,6.72
						c2.176,1.254,3.94,0.282,3.94-2.176C105.135,321.4,103.371,318.393,101.194,317.137z"/>
					<path fill="#263364" d="M100.515,328.174c2.286-0.24,3.482-1.229,3.935-2.209l-5.575-9.309
						c-1.244,0.299-3.486,1.362-4.098,2.747L100.515,328.174z"/>
				</g>
				<g>
					<path fill="#263364" d="M98.394,318.761c-2.176-1.254-3.941-0.282-3.941,2.174c0,2.458,1.765,5.466,3.941,6.72
						c2.177,1.256,3.941,0.281,3.941-2.174C102.335,323.024,100.571,320.017,98.394,318.761z"/>
					<path fill="#FFFFFF" d="M98.394,319.979c-1.581-0.911-2.861-0.204-2.861,1.579c0,1.784,1.281,3.969,2.861,4.878
						c1.581,0.912,2.862,0.205,2.862-1.579C101.256,323.075,99.975,320.891,98.394,319.979z"/>
				</g>
			</g>
		</g>
		<path fill="#2896FF" d="M101.062,290.255c-1.391-0.932-1.536-2.756-0.755-5.24c0.525-1.673,1.551-3.146,2.897-4.272
			c0.48-0.4,0.999-0.966,1.424-1.743c-0.094-13.137,8.39-53.943,8.39-53.943s18.231-16.473,20.602-10.523
			c6.465,16.225-4.86,41.227-7.669,51.229c-1.571,5.595-4.038,12.798-6.288,19.06c-0.607,1.692-0.879,3.479-0.857,5.274
			c0.075,6.09-1.877,14.365-1.877,14.365L101.062,290.255z"/>
		<g>
			<path fill="#BC723F" d="M101.109,290.3L101.109,290.3c-1.224,3.637-0.214,7.656,2.584,10.285l1.855,1.741
				c0,0,2.624,2.521,1.274,5.661c-3.391,7.896,7.237,16.28,11.114,12.678c6.36-5.91-3.274-23.776-3.274-23.776
				C110.487,290.985,106.13,287.049,101.109,290.3z"/>
			<path fill="#965224" d="M101.109,290.3L101.109,290.3c-1.224,3.637-0.214,7.656,2.584,10.285l1.855,1.741
				c0,0,2.624,2.521,1.274,5.661c-3.391,7.896,6.756,15.683,11.114,12.678c3.157-2.179-3.433-16.761-9.455-25.014
				C105.202,291.158,101.109,290.3,101.109,290.3z"/>
		</g>
		<g>
			<path fill="#2896FF" d="M60.556,278.788c-1.04-1.806-1.239-4.125,0.077-7.371l1.938-3.264l0.897-50.441
				c0,0,13.421-17.22,16.212-12.198c7.608,13.694,1.307,37.709-0.047,46.928c-1.697,11.55-6.466,30.8-6.466,30.8L60.556,278.788z"/>
			<path fill="#BC723F" d="M60.34,277.116L60.34,277.116c-0.672,3.378,0.686,6.836,3.476,8.854l1.851,1.338
				c0,0,2.622,1.941,1.782,4.889c-2.112,7.413,8.301,13.657,11.338,10.008c4.981-5.985-5.634-20.776-5.634-20.776
				C69.087,277.152,64.914,274.353,60.34,277.116z"/>
			<path fill="#965224" d="M60.341,277.116L60.341,277.116c-0.673,3.378,0.685,6.836,3.475,8.854l1.851,1.338
				c0,0,2.622,1.941,1.782,4.889c-2.112,7.413,7.806,13.181,11.338,10.008c2.734-2.456-5.644-16.497-11.992-23.085
				C63.964,276.182,60.341,277.116,60.341,277.116z"/>
		</g>
		<g>
			<path fill="#41378C" d="M82.313,306.87h0.022v-61.117H70.33v61.117h0.03c-0.005,0.051-0.03,0.098-0.03,0.148
				c0,1.63,2.689,2.95,6.007,2.95c3.317,0,6.006-1.32,6.006-2.95C82.344,306.968,82.318,306.921,82.313,306.87z"/>
			<path fill="#6E64C3" d="M82.313,283.058h0.022v-34.297H70.33v34.297h0.03c-0.005,0.05-0.03,0.096-0.03,0.148
				c0,1.63,2.689,2.95,6.007,2.95c3.317,0,6.006-1.32,6.006-2.95C82.344,283.153,82.318,283.107,82.313,283.058z"/>
			<path fill="#41378C" d="M82.335,261.033v-20.568H70.33v20.568h0.03c-0.005,0.051-0.03,0.097-0.03,0.147
				c0,1.632,2.689,2.951,6.007,2.951c3.317,0,6.006-1.319,6.006-2.951c0-0.051-0.025-0.097-0.03-0.147H82.335z"/>
			<g>
				<path fill="#41378C" d="M39.678,228.749v6.893c0,9.947,16.413,18.011,36.659,18.011c20.245,0,36.658-8.063,36.658-18.011v-6.893
					H39.678z"/>
				<ellipse fill="#6E64C3" cx="76.337" cy="228.749" rx="36.659" ry="18.01"/>
			</g>
		</g>
		<g>
			<path fill="#2896FF" d="M90.328,201.86l-39.402,7.61c0,0-2.764,11.553-1.063,16.644c2.505,7.503,22.167,13.677,32.449,13.683
				c16.673,0.011,42.639-9.44,42.639-9.44s15.14-5.795,7.552-18.021c-1.445-2.33-7.56-4.667-11.247-5.25
				c-3.759-0.592-14.712,1.056-17.054,0.157"/>
		</g>
		<g>
			<path fill="#FCE3C3" d="M131.085,172.701c0,0,0.995-3.41-0.297-5.709c-1.292-2.301-5.937-6.324-8.589-7.627
				c-2.652-1.303-1.807,4.448-4.375,4.436c-2.567-0.014-4.404,0.029-4.84-1.471c-0.436-1.501-2.02,0.029-1.612,1.895
				c0.408,1.864,8.141,8.692,8.141,8.692L131.085,172.701z"/>
			<g>
				<g>
					<g>
						<path fill="#EDCDAB" d="M75.964,151.178c-3.825,1.883-7.278,1.129-10.514-1.176c-1.007-0.719-1.584-1.9-1.489-3.134
							l1.312-17.172l14.149,4.161l-1.044,13.662C78.259,149.072,77.362,150.489,75.964,151.178z"/>
					</g>
				</g>
				<g>
					<path fill="#FCE3C3" d="M80.238,145.457c-3.394,0.692-8.269-4.083-11.597-7.355c-0.73-0.717,0.223-6.264-0.558-6.982
						c-3.023-2.782-7.749-0.813-7.482-4.301c0.649-8.497,7.944-13.073,15.086-12.528c4.464,0.341,9.037,1.369,11.139,5.317
						C87.634,121.128,88.102,143.852,80.238,145.457z"/>
					<path fill="#263364" d="M71.907,119.38c0,0,2.207,3.178,6.083,4.705c5.056,1.992,13.096-2.471,13.024-3.218
						c-0.213-2.245-4.296-7.53-7.851-10.103c-5.941-4.301-19.682-5.275-22.24,1.673c-5.063,5.499-3.4,12.605-2.188,15.925
						c1.3,3.556,5.713,9.729,5.52,12.255l1.939-4.904l0.573-4.943l2.676-0.48l2.769-0.366l1.439-3.488L71.907,119.38z"/>
					<path fill="#EDCDAB" d="M71.037,130.267c-0.186,2.442-0.816,4.436-2.399,4.314c-1.584-0.121-3.214-3.512-3.028-5.955
						s0.733-3.295,2.317-3.174C69.51,125.574,71.224,127.824,71.037,130.267z"/>
					<path fill="#FCE3C3" d="M71.579,129.247c-0.186,2.442-0.816,4.435-2.399,4.314c-1.584-0.121-3.668-3.215-3.481-5.657
						c0.186-2.443,1.187-3.593,2.771-3.472S71.766,126.804,71.579,129.247z"/>
				</g>
			</g>
			<path fill="#13E275" d="M96.658,200.851c-1.683-0.555-2.858-2.064-2.869-3.837c-0.068-11.009,1.268-36.851-1.993-41.108
				c-3.734-4.875-29.633-14.398-37.315-9.879c-10.051,5.912-10.887,27.454-12.524,39.406c-1.638,11.951-2.088,33.655,10.532,42.35
				c12.62,8.692,33.234,6.489,42.373-1.353c11.115-9.538,11.387-19.419,6.121-23.203C99.14,201.901,97.722,201.199,96.658,200.851z"
				/>
			<path fill="#39AE96" d="M88.202,182.845c-3.698-3.581-6.364-8.011-9.477-12.079c0.637-4.858,1.215-15.064,5.955-14.913
				c2.036,0.064,3.523-0.854,4.424-2.167c1.241,0.795,2.181,1.552,2.693,2.22c2.5,3.263,2.299,19.202,2.099,31.43
				C91.872,186.021,89.956,184.543,88.202,182.845z"/>
			<path fill="#13E275" d="M88.803,153.985c-3.869-1.361-11.311,6.221-12.176,11.228c-0.866,5.006,15.601,18.75,26.125,25.056
				c9.023,5.406,18.768,6.555,22.128,3.672c3.361-2.885,10.058-17.831,7.157-20.951c-2.902-3.12-8.661-4.123-11.399-2.563
				c-1.642,0.937-4.706,7.853-4.706,7.853S98.447,157.38,88.803,153.985z"/>
		</g>
		<g>
			<path fill="#6E64C3" d="M71.698,172.487c-5.505-3.525-24.029-13.526-24.029-13.526c-5.251-1.273-11.813,3.09-11.881,9.144
				c-0.105,9.167,4.049,29.797,4.049,29.797c0.145,4.771,2.67,9.146,6.723,11.664c6.732,4.184,12.917,10.687,21.164,14.566
				c4.875,2.296,11.786-3.304,11.786-8.689V186.45C79.508,178.191,78.652,176.941,71.698,172.487z"/>
			<path fill="#41378C" d="M67.963,174.729c-5.506-3.526-24.03-13.526-24.03-13.526c-5.25-1.273-8.698,2.645-8.768,8.699
				c-0.105,9.166,0.936,30.244,0.936,30.244c0.144,4.767,2.67,9.143,6.723,11.662c6.732,4.184,14.221,8.618,22.468,12.501
				c4.874,2.293,10.48-1.237,10.48-6.626V188.69C75.772,180.432,74.917,179.182,67.963,174.729z"/>
		</g>
		<path fill="#41378C" d="M51.254,292.599L51.254,292.599l54.774,31.344l0,0c0-5.941-3.182-11.43-8.339-14.382l-38.096-21.798
			C55.879,285.636,51.254,288.318,51.254,292.599z"/>
		<path fill="#41378C" d="M46.69,324.081L46.69,324.081c0-5.941,3.182-11.43,8.34-14.38l38.096-21.799
			c3.714-2.126,8.339,0.557,8.339,4.837l0,0L46.69,324.081z"/>
		<g>
			<path fill="#263364" d="M58.773,251.882h0.022v-61.117H46.79v61.117h0.031c-0.005,0.051-0.031,0.099-0.031,0.149
				c0,1.631,2.69,2.952,6.007,2.952s6.007-1.321,6.007-2.952C58.804,251.98,58.778,251.933,58.773,251.882z"/>
			<path fill="#6E64C3" d="M58.773,228.07h0.022v-34.295H46.79v34.295h0.031c-0.005,0.051-0.031,0.099-0.031,0.149
				c0,1.63,2.69,2.952,6.007,2.952s6.007-1.322,6.007-2.952C58.804,228.169,58.778,228.121,58.773,228.07z"/>
			<path fill="#263364" d="M58.795,206.047v-20.569H46.79v20.569h0.031c-0.005,0.051-0.031,0.099-0.031,0.149
				c0,1.628,2.69,2.95,6.007,2.95s6.007-1.322,6.007-2.95c0-0.051-0.025-0.099-0.03-0.149H58.795z"/>
			<path fill="#263364" d="M46.798,185.57v20.568h12.005V185.57h-0.03c0.005-0.051,0.03-0.099,0.03-0.149
				c0-1.629-2.689-2.951-6.007-2.951c-3.318,0-6.007,1.322-6.007,2.951c0,0.051,0.025,0.099,0.031,0.149H46.798z"/>
		</g>
	</g>
	<g>
		<path fill="#FA870A" d="M158.193,123.303c0,0,0.697-0.235,0.514-1.171c-0.121-0.621-0.867-2.618-3.453-2.8
			c-1.482-0.106-2.856,1.099-3.186,2.087c-0.189,0.568,0.056,1.209,0.056,1.209c0.923-0.931,1.896-1.358,2.843-1.3
			C156.772,121.456,158.182,123.285,158.193,123.303z"/>
	</g>
	<path fill="#6561BC" d="M155.64,119.126c0.062,0.352,0.023,1.619-0.412,1.837c-0.436,0.218-1.788,0.515-2.085,0.555
		c-0.297,0.039-0.334-0.432-0.294-0.65c0.04-0.217,0.159-1.069,0.376-1.287C153.442,119.364,155.541,118.552,155.64,119.126z"/>
	<path fill="#41378C" d="M155.278,119.117c0.046,0.269,0.017,1.236-0.316,1.403c-0.333,0.167-1.365,0.394-1.592,0.424
		c-0.227,0.03-0.255-0.33-0.225-0.496c0.03-0.166,0.121-0.816,0.287-0.983C153.599,119.298,155.202,118.678,155.278,119.117z"/>
	<path fill="#3C82AF" d="M175.451,111.374c0,0,9.077-0.89,17.442,7.653L175.451,111.374z"/>
	<ellipse fill="#6E64C3" cx="52.78" cy="184.86" rx="4.767" ry="1.436"/>
</g>
</svg>
