<?xml version="1.0"?>
<svg xmlns="http://www.w3.org/2000/svg" xmlns:xlink="http://www.w3.org/1999/xlink" xmlns:svgjs="http://svgjs.com/svgjs" version="1.1" width="512" height="512" x="0" y="0" viewBox="0 0 638.062 638.062" style="enable-background:new 0 0 512 512" xml:space="preserve" class=""><g>
<g xmlns="http://www.w3.org/2000/svg">
	<g id="_x35__40_">
		<g>
			<path d="M303.4,319.03c0.585-7.521-1.701-15.203-7.469-20.944L58.786,61.339c-10.472-10.445-27.43-10.445-37.902,0     c-10.473,10.446-10.473,27.378,0,37.85L241.098,319.03L20.884,538.872c-10.473,10.445-10.473,27.377,0,37.823     c10.473,10.445,27.431,10.445,37.902,0l237.146-236.747C301.699,334.207,303.959,326.553,303.4,319.03z M617.521,298.086     L326.765,7.834c-10.473-10.445-27.431-10.445-37.903,0c-10.473,10.446-10.473,27.404,0,37.823L562.687,319.03L288.861,592.377     c-10.473,10.446-10.473,27.377,0,37.85c10.473,10.446,27.431,10.446,37.903,0l290.729-290.251     c5.768-5.741,8.027-13.423,7.442-20.945C625.548,311.509,623.262,303.827,617.521,298.086z" fill="#00aeef" data-original="#000000" style=""/>
		</g>
	</g>
</g>
<g xmlns="http://www.w3.org/2000/svg">
</g>
<g xmlns="http://www.w3.org/2000/svg">
</g>
<g xmlns="http://www.w3.org/2000/svg">
</g>
<g xmlns="http://www.w3.org/2000/svg">
</g>
<g xmlns="http://www.w3.org/2000/svg">
</g>
<g xmlns="http://www.w3.org/2000/svg">
</g>
<g xmlns="http://www.w3.org/2000/svg">
</g>
<g xmlns="http://www.w3.org/2000/svg">
</g>
<g xmlns="http://www.w3.org/2000/svg">
</g>
<g xmlns="http://www.w3.org/2000/svg">
</g>
<g xmlns="http://www.w3.org/2000/svg">
</g>
<g xmlns="http://www.w3.org/2000/svg">
</g>
<g xmlns="http://www.w3.org/2000/svg">
</g>
<g xmlns="http://www.w3.org/2000/svg">
</g>
<g xmlns="http://www.w3.org/2000/svg">
</g>
</g></svg>
