<svg height="127" viewBox="0 0 90 127" width="90" xmlns="http://www.w3.org/2000/svg"><g fill="none" fill-rule="nonzero"><path d="m22.2 121c3.318 0 5.04-2.002 5.04-4.816s-1.722-4.816-5.04-4.816h-2.464c-.336 0-.504.168-.504.504v8.624c0 .336.168.504.504.504zm0-1.12h-1.68v-7.392h1.68c2.702 0 3.696 1.736 3.696 3.696s-.994 3.696-3.696 3.696zm7.448 1.12c.336 0 .504-.168.504-.504v-3.192c0-1.064.49-2.128 1.512-2.128.336 0 .504.112.728.112.112 0 .224-.07.28-.28l.112-.448c.07-.294-.098-.448-.364-.518-.14-.028-.308-.042-.476-.042-.868 0-1.47.434-1.806 1.176h-.042v-.532c0-.322-.154-.476-.476-.476h-.224c-.322 0-.476.154-.476.476v5.852c0 .336.168.504.504.504zm6.944.168c1.96 0 3.36-1.4 3.36-3.584s-1.288-3.584-3.36-3.584c-1.96 0-3.36 1.4-3.36 3.584s1.288 3.584 3.36 3.584zm0-1.064c-1.232 0-2.072-1.008-2.072-2.52s.84-2.52 2.072-2.52 2.072.952 2.072 2.52c0 1.512-.84 2.52-2.072 2.52zm5.712 3.976c.336 0 .504-.168.504-.504v-1.344c0-.462 0-1.4-.056-2.296h.056c.448.896 1.232 1.232 2.184 1.232 1.736 0 3.136-1.4 3.136-3.64s-1.288-3.528-3.024-3.528c-.952 0-1.848.336-2.296 1.232h-.056v-.588c0-.322-.154-.476-.476-.476h-.224c-.322 0-.476.154-.476.476v8.932c0 .336.168.504.504.504zm2.52-3.976c-1.12 0-2.016-.896-2.016-2.52s.896-2.52 2.016-2.52 2.016.84 2.016 2.464-.896 2.576-2.016 2.576zm8.344 1.064c1.736 0 3.136-1.4 3.136-3.64s-1.288-3.528-3.024-3.528c-.952 0-1.848.336-2.296 1.232h-.056c.056-.896.056-1.834.056-2.296v-1.68c0-.336-.168-.504-.504-.504h-.224c-.336 0-.504.168-.504.504v9.268c0 .322.154.476.476.476h.224c.322 0 .476-.154.476-.476v-.588h.056c.448.896 1.232 1.232 2.184 1.232zm-.168-1.064c-1.12 0-2.016-.896-2.016-2.52s.896-2.52 2.016-2.52 2.016.84 2.016 2.464-.896 2.576-2.016 2.576zm7.896 1.064c1.96 0 3.36-1.4 3.36-3.584s-1.288-3.584-3.36-3.584c-1.96 0-3.36 1.4-3.36 3.584s1.288 3.584 3.36 3.584zm0-1.064c-1.232 0-2.072-1.008-2.072-2.52s.84-2.52 2.072-2.52 2.072.952 2.072 2.52c0 1.512-.84 2.52-2.072 2.52zm4.704.896c.336 0 .476-.126.616-.336l1.596-2.24 1.596 2.24c.14.21.28.336.616.336h.336c.336 0 .518-.224.28-.56l-2.058-2.926 2.002-2.786c.238-.336.056-.56-.28-.56h-.224c-.336 0-.476.126-.616.336l-1.512 2.128-1.512-2.128c-.14-.21-.28-.336-.616-.336h-.336c-.336 0-.518.224-.28.56l1.974 2.814-2.086 2.898c-.238.336-.056.56.28.56z" fill="#727491"/><path d="m22.5.0098948-22.5 14.5010059 22.5 14.2877558 22.5-14.2877558zm45 0-22.5 14.5010059 22.5 14.2877558 22.5-14.2877558zm-67.5 43.2897675 22.5 14.5010059 22.5-14.5010059-22.5-14.5010058zm67.5-14.5010058-22.5 14.5010058 22.5 14.5010059 22.5-14.5010059zm-45 33.6935136 22.5 14.5010059 22.5-14.5010059-22.5-14.2877558z" fill="#0062ff" transform="translate(0 10)"/></g></svg>