<svg xmlns="http://www.w3.org/2000/svg" viewBox="0 0 56.99 65.77"><defs><style>.cls-1{fill:#ff7a59;fill-rule:evenodd;}</style></defs><g id="Layer_2" data-name="Layer 2"><g id="Layer_1-2" data-name="Layer 1"><path class="cls-1" d="M33.91,13.69c-.42,3-.9,6.16-.9,6.76a4.49,4.49,0,0,1-9,0c.48-1.85.9-4.37,1.62-6.52A26.18,26.18,0,1,0,57,39.64,26.49,26.49,0,0,0,33.91,13.69ZM37.08,20A20.53,20.53,0,1,1,10.23,39.58,20.79,20.79,0,0,1,20.58,21.7a8.13,8.13,0,0,0,16.26.06A9.23,9.23,0,0,1,37.08,20Z"/><path class="cls-1" d="M0,31.15S-.47,25.71,6.35,17s8.49-1.67,13.87-5.2C20.16,12,1.26,24.63,0,31.15Z"/><path class="cls-1" d="M10.05,4.54C5.51,7.29,4,13.87,3.83,18.48c.66-1,1.44-2.1,2.28-3.17,6.57-8.37,8.25-1.62,13.45-5h0a3.26,3.26,0,0,0,.9-3.4C20.58,6.88,17.71-.12,10.05,4.54Z"/><path class="cls-1" d="M26.49,19.67s.18,1.62,1.5,1.91a2,2,0,0,0,2.51-1.19c.36-.84-.18-3.83-.18-9.63,0-6.34,3.23-6.57,3.23-6.57A4.23,4.23,0,0,1,31.16,0a38.88,38.88,0,0,0-2.93,8.67,11.15,11.15,0,0,0-6.46-2s.36,1.49,0,1.85c0,0,4.25-.36,6.1,2.33A9.34,9.34,0,0,1,26.49,19.67Z"/><path class="cls-1" d="M32,.12s-.66.42.41,2.33c.48.84,1.68,1.68,1.86.66S32.77-.54,32,.12Z"/></g></g></svg>