<?xml version="1.0" encoding="utf-8"?>
<!-- Generator: Adobe Illustrator 24.3.0, SVG Export Plug-In . SVG Version: 6.00 Build 0)  -->
<svg version="1.1" id="Layer_1" xmlns="http://www.w3.org/2000/svg" xmlns:xlink="http://www.w3.org/1999/xlink" x="0px" y="0px"
	 viewBox="0 0 90 127" style="enable-background:new 0 0 90 127;" xml:space="preserve">
<style type="text/css">
	.st0{fill:#201F1F;}
	.st1{fill:#9BD9EF;}
	.st2{fill:#7CB9E5;}
	.st3{fill:#9CD9EF;}
	.st4{fill:#030303;}
	.st5{fill:#F3C9B0;}
	.st6{fill:#C39A85;}
	.st7{fill:#FEFEFE;}
	.st8{fill:#FCFCFC;}
	.st9{fill:#99D5EB;}
	.st10{fill:#98D4E9;}
	.st11{fill:#99D6EB;}
	.st12{fill:#98D4EA;}
	.st13{fill:#97D3E8;}
	.st14{fill:#95CFE4;}
	.st15{fill:#AC5C51;}
	.st16{fill:#AB5C51;}
	.st17{fill:#FDFCFC;}
	.st18{fill:#FDFBFB;}
	.st19{fill:#727491;}
</style>
<g>
	<path class="st0" d="M38.1,54.9c-1.1-0.2-2.2-0.4-3.2-0.6c-2.8-0.5-5.5-1.4-8-2.9c-2.1-1.3-3.7-2.9-4.9-5c-0.2-0.3-0.3-0.4-0.7-0.4
		c-6,0.3-11.9,0.9-17.8,2.5c-0.1,0-0.4,0.2-0.4-0.1c-0.1-0.3,0.2-0.2,0.3-0.3c3.6-1,7.3-1.6,11-2c2.2-0.2,4.4-0.4,6.6-0.5
		c0.5,0,0.4-0.2,0.3-0.6c-0.2-0.8-0.7-1-1.6-1.1C14.4,44.1,9,44.4,3.6,45.4c-0.2,0-0.6,0.3-0.6,0c-0.1-0.3,0.3-0.2,0.5-0.3
		c5.3-1,10.7-1.3,16.1-1.2c0.4,0,0.7,0,1.1,0c-0.3-1-0.6-2-0.8-3.1c-0.5-3.5-0.8-7,0.3-10.4c0.6-2,1.6-3.8,3-5.3
		c0.3-0.3,0.3-0.5,0.2-0.9c-1-3.3-0.7-6.5,0.5-9.7c0.1-0.3,0.4-0.3,0.6-0.3c1.4-0.1,2.6,0.3,3.9,0.7c2.2,0.8,4.1,1.9,6,3.2
		c0.3,0.2,0.5,0.2,0.9,0.2c6-1.5,11.9-1.6,17.9-0.2c0.4,0.1,0.7,0,1-0.2c2.2-1.4,4.5-2.7,7.1-3.4c0.8-0.2,1.7-0.3,2.5-0.3
		c0.3,0,0.5,0.1,0.6,0.5c1.1,3,1.4,6,0.6,9c-0.1,0.3,0,0.5,0.2,0.7c3,3.1,4.3,6.9,4.3,11.2c0,2.9-0.2,5.7-0.9,8.5c0.5,0,0.9,0,1.4,0
		c5.5-0.2,10.9,0.1,16.3,1.1c0.1,0,0.1,0,0.2,0c0.1,0.1,0.5,0,0.4,0.2c-0.1,0.3-0.3,0.1-0.5,0.1c-5.7-1-11.5-1.3-17.2-1.1
		c-0.5,0-0.8,0.2-0.9,0.7c-0.2,0.8-0.3,0.8,0.6,0.9c5.9,0.2,11.7,1,17.4,2.5c0.1,0,0.2,0.1,0.3,0.1c0.1,0,0.1,0.1,0.1,0.2
		c0,0.1-0.1,0.2-0.2,0.1c-0.2-0.1-0.5-0.1-0.7-0.2c-3.8-1-7.6-1.6-11.5-2c-2-0.2-4-0.3-6-0.4c-0.2,0-0.5-0.1-0.6,0.2
		c-1.6,3.6-4.5,5.6-8.1,6.9c-2.4,0.9-4.9,1.3-7.4,1.6c-0.1,0-0.3,0-0.4,0.1c-0.2,0.2-0.5,0.2-0.7,0.2c-3.9,0-7.9,0-11.8,0
		C38.9,55.1,38.5,55.1,38.1,54.9z"/>
	<path class="st0" d="M35.1,59.7c0.3-1.1,0.7-2.2,1.4-3.1c0.1-0.1,0.1-0.1,0.2-0.2c1-0.6,2.1-0.6,3.3-0.7c1.4-0.2,2.8,0,4.3-0.1
		c1.6-0.1,3.1,0,4.7,0.1c1.8,0.2,3.4,0.8,4.7,2.1c0.5,0.5,0.8,1.2,1.2,1.8c0.3,0.9,0.3,1.8,0.3,2.7c0,2.4,0,4.8,0,7.2
		c0,0.2,0,0.4,0,0.6c0.2,0.2,0.2,0.4,0.2,0.6c0,0.5,0,1,0,1.5c0.1,1.3,0.7,2.3,1.8,3c0.3,0.2,0.6,0.3,0.8,0.5
		c0.4,0.4,0.5,0.8,0.2,1.3c-0.6,0.5-1.3,0.3-2,0.3c-0.8-0.1-1.6-0.2-2.3-0.6c-1.9-0.8-2.8-2.2-2.8-4.2c0-1,0-1.9,0-2.9
		c0-1.7,0-3.4,0-5.1c0-0.9-0.1-1.7-0.4-2.5c-0.1-0.2-0.2-0.5-0.5-0.7c0,2.8,0,5.6,0,8.3c0,1.9,0,3.9,0,5.8c0,1.3,0.3,2.4,1.4,3.2
		c0.5,0.9,0.4,1.4-0.6,1.8c-0.1,0-0.3,0.1-0.5,0.1c-1.3-0.2-2.5-0.7-3.6-1.5c-1-0.9-1.5-2-1.5-3.4c0-4.8,0-9.6,0-14.4
		c0-0.3,0-0.6,0-0.8c-0.3-0.5-0.4-0.5-0.8-0.1c-0.1,0.3,0,0.5,0,0.8c0,4.8,0,9.7,0,14.5c0,1.4-0.5,2.5-1.5,3.5
		c-1.2,0.9-2.5,1.6-4.1,1.5c-0.1,0-0.1,0-0.2,0c-0.8-0.5-0.9-1-0.2-1.8c1.1-0.7,1.4-1.7,1.4-2.9c0-2,0-4,0-6c0-2.8,0-5.6,0-8.4
		c-0.3,0.1-0.4,0.4-0.5,0.6c-0.3,0.8-0.4,1.7-0.4,2.5c0,1.8,0,3.5,0,5.3c0,1,0,2,0,3c-0.1,2-1,3.4-2.8,4.2c-1.3,0.5-2.6,0.7-3.9,0.5
		c-0.4-0.1-0.7-0.3-0.7-0.7c0-0.4,0.2-0.7,0.6-1c0.3-0.2,0.6-0.3,0.9-0.5c1.1-0.6,1.6-1.5,1.6-2.8c0-0.5,0-1,0-1.6
		c0-0.2,0-0.5,0.2-0.6c0-1.9,0.1-3.9,0-5.8c-0.1-1.5-0.1-2.9,0.1-4.4C35,59.8,35,59.7,35.1,59.7z"/>
	<path class="st1" d="M58,76.8c0.2-0.5,0.1-1-0.5-1.2c-1.8-0.8-2.5-2.3-2.4-4.1c0-0.5,0-1,0-1.5c3.6,0.6,7,1.4,10.2,3.1
		c1.1,0.6,2.1,1.3,2.8,2.3c1.1,1.5,1,3.2-0.3,4.6c-1.3,1.4-2.8,2.2-4.5,2.9c-2.6,1.1-5.3,1.7-8,2.2c-0.1,0-0.1,0-0.2,0
		C55,84.9,55,84.7,55,84.4c0-1.2,0-2.5,0-3.7c0-1.5,1.1-3,2.5-3.5C57.7,77.1,57.9,77,58,76.8z"/>
	<path class="st1" d="M34.9,70.1c0.1,0.9,0.1,1.8,0,2.6c-0.1,1.3-0.9,2.1-2,2.7c-0.2,0.1-0.4,0.2-0.6,0.3c-0.3,0.2-0.5,0.4-0.5,0.8
		c0,0.4,0.3,0.5,0.6,0.6c1.7,0.6,2.7,2,2.7,3.8c0,1.1,0,2.2,0,3.4c0,0.2,0,0.5-0.2,0.7c-3.7-0.7-7.4-1.6-10.6-3.7
		c-0.7-0.5-1.3-1-1.8-1.7c-1.1-1.5-0.9-3.1,0.3-4.5c1.2-1.3,2.7-2.1,4.3-2.8C29.5,71.2,32.2,70.6,34.9,70.1z"/>
	<path class="st0" d="M34.6,64.3c-4.5,1-9,0.2-11.5-4.4c-0.3-0.6-0.7-1.2-1-1.7c-0.8-1.3-1.8-2.2-3.1-2.9c-0.5-0.2-0.9-0.5-1.3-0.9
		c-0.4-0.5-0.3-0.8,0.2-1c0.9-0.3,1.8-0.2,2.7,0.1c1.7,0.6,3,1.7,3.9,3.2c0.5,0.8,1.1,1.6,1.8,2.3c2.2,2,4.8,2.1,7.5,1.2
		c0.4-0.1,0.7-0.3,1-0.4c0.2,0.2,0.1,0.4,0,0.7c-0.7,0.4-0.7,0.4-0.1,1c0,0,0,0.1,0,0.1c0.1,0.8,0,1.6,0,2.4
		C34.8,64,34.7,64.2,34.6,64.3z"/>
	<path class="st2" d="M58,76.8c-0.1,0.3-0.4,0.5-0.6,0.6c-1.5,0.7-2.2,1.9-2.3,3.4c-0.1,1.4,0,2.8,0,4.2c-1.3,0.2-2.5,0.4-3.8,0.5
		c-0.5,0.1-0.4-0.3-0.4-0.6c0-0.9,0-1.7,0-2.6c0-0.8,0-1.5-0.1-2.3c0.9-0.4,1-0.7,0.6-1.5c0.5-1,1.4-1.6,2.4-2
		c1,0.4,2.1,0.6,3.2,0.6C57.3,77.1,57.7,77,58,76.8z"/>
	<path class="st2" d="M34.9,84.9c0-1.4,0-2.7,0-4.1c0-1.7-0.8-2.8-2.3-3.5c-0.1-0.1-0.2-0.1-0.2-0.2c1.3,0.1,2.7-0.1,3.9-0.6
		c1,0.4,1.9,1,2.4,2c-0.5,0.8-0.4,1.1,0.3,1.6c0.2,0.2,0.2,0.4,0.2,0.7c0,1.3,0,2.7,0,4c0,0.2,0,0.5-0.2,0.7
		C37.6,85.4,36.2,85.2,34.9,84.9z"/>
	<path class="st1" d="M43,78.7c1.1-1.1,1.5-2.4,1.5-3.9c0-4.8,0-9.6,0-14.4c0-0.2-0.1-0.4,0.1-0.6c0.3,0.3,0.2,0.6,0.2,0.9
		c0,2.5,0,5,0,7.6c0,0.2-0.1,0.7,0.2,0.7c0.4,0,0.3-0.4,0.3-0.7c0-2.5,0-5,0-7.5c0-0.3-0.1-0.6,0.2-0.9c0.1,0.2,0.1,0.4,0.1,0.7
		c0,4.8,0,9.6,0,14.4c0,1.5,0.4,2.8,1.5,3.8c0.1,0.3-0.1,0.5-0.2,0.7c-0.7,1-1,2.2-1,3.4c0,0.8,0,1.5,0,2.3c0,0.2,0,0.5-0.2,0.7
		c-1,0-2,0.1-2.9-0.1c0.3-0.3,0.7-0.2,1-0.2c0.3,0,0.6-0.1,0.5-0.5c-0.1-1.3,0-2.6-0.3-3.8c-0.2-0.7-0.4-1.3-0.8-1.9
		C43.1,79.2,42.9,79,43,78.7z"/>
	<path class="st2" d="M45.7,85.8c0-1.5-0.2-3.1,0.2-4.6c0.2-0.9,0.7-1.7,1.2-2.5c1,0.7,2.1,1.2,3.4,1.4c0.1,0.1,0.1,0.3,0,0.4
		C50,81.9,50,83.3,50,84.8c0,0.3,0,0.6-0.2,0.9C48.5,85.8,47.1,85.9,45.7,85.8z"/>
	<path class="st2" d="M43,78.7c0.9,1.2,1.4,2.6,1.4,4.1c0,0.8,0.1,1.6,0.1,2.4c0,0.4-0.1,0.5-0.5,0.5c-0.4,0-0.8,0-1.2,0
		c-0.9,0-1.7,0-2.6-0.1c-0.2-0.2-0.2-0.5-0.2-0.8c0-0.9,0.1-1.9-0.1-2.8c-0.1-0.7-0.2-1.5-0.9-1.9C40.5,80.1,41.8,79.6,43,78.7z"/>
	<path d="M54.8,59.5c-0.1,0.4-0.2,0-0.2,0c-0.5-0.9-1.1-1.8-2-2.4c-1.1-0.8-2.4-1.1-3.7-1.4c-1-0.2-2-0.2-3-0.2
		c-1.7,0.1-3.5,0-5.2,0.1c-1,0.1-2,0.2-2.9,0.4c-0.4,0.1-0.7,0.3-1,0.2c0.4-0.5,0.9-1,1.4-1.4c0.3-0.2,0.7,0,1,0c4.2,0,8.5,0,12.7,0
		C53.4,56.1,54.4,57.6,54.8,59.5z"/>
	<path class="st1" d="M49.8,85.6c0-1.4-0.1-2.9,0.2-4.3c0.1-0.4,0.2-0.8,0.3-1.2c0.1,0,0.3,0,0.4,0c0.3,0.1,0.2,0.3,0.2,0.5
		c0,1.4,0,2.9,0,4.3c0,0.2-0.1,0.5,0.2,0.5C50.8,85.7,50.3,85.6,49.8,85.6z"/>
	<path class="st1" d="M39,80.1c0.6,0,0.8,0.5,0.9,1c0.3,1.3,0.2,2.6,0.2,3.8c0,0.2,0,0.4,0,0.6c-0.4,0-0.8-0.1-1.3-0.1
		c0-1.8,0-3.6,0-5.4C39,80.1,39,80.1,39,80.1z"/>
	<path class="st3" d="M18.4,55.3c0.2,0.7,0.4,1.4,0.6,2.1c0.1,0.4,0.1,0.7-0.3,1c-0.3,0.2-0.5,0.1-0.8,0c-0.3-0.2-0.4-0.6-0.3-1
		c0.2-0.7,0.4-1.5,0.6-2.2C18.4,55.3,18.4,55.3,18.4,55.3z"/>
	<path class="st4" d="M34.7,60.5c0-0.2,0.1-0.5,0.1-0.7c0-0.1,0.1-0.1,0.2-0.1c-0.2,1.4-0.1,2.8-0.1,4.2c0,0.1-0.1,0.3-0.1,0.4
		c-0.1,0-0.2,0-0.2,0c0-1,0-2,0-2.9C34.4,61,34.5,60.7,34.7,60.5z"/>
	<path class="st5" d="M63.5,41.1c0.1,2.1-0.1,4.2-1,6.2c-1.3,3-3.9,4.3-6.9,5c-2.3,0.5-4.7,0.7-7.1,0.7c-4,0.1-8,0.1-11.9-0.5
		c-2-0.3-3.9-0.8-5.6-1.8c-2.8-1.5-4.4-4-4.8-7.1c-0.1-0.8-0.2-1.6-0.1-2.4c0.2-2.5,1.6-4.4,3.5-6c1.3-1.1,2.9-1.4,4.5-1.5
		c2.1-0.1,4.2,0.1,6.3,0.3c2.7,0.2,5.3,0.3,8,0.1c2.5-0.2,4.9-0.5,7.4-0.4c2,0.1,3.8,0.7,5.2,2.1C62.3,37.3,63.3,39,63.5,41.1z"/>
	<path class="st6" d="M63.5,41.1c-0.3-1.2-0.7-2.4-1.4-3.4c-1.3-1.8-2.8-3.2-5.1-3.6c-1.6-0.3-3.3-0.2-4.9-0.1c-1,0.1-2,0.2-3,0.2
		c-1.7,0.1-3.4,0.3-5.1,0.2c-1.8-0.1-3.7-0.2-5.5-0.4c-2.1-0.2-4.2-0.4-6.4,0.1c-1.9,0.4-3.3,1.6-4.5,3.1c-0.9,1.2-1.5,2.5-1.8,4
		c0-1.8,0.8-3.4,1.8-4.8c1.7-2.3,4-3.2,6.9-3.3c2.4,0,4.8,0.2,7.2,0.3c2.1,0.1,4.1,0.1,6.2,0c2.5-0.2,5.1-0.4,7.6-0.3
		c3.7,0.2,7.1,3.2,7.8,6.9C63.5,40.4,63.6,40.8,63.5,41.1z"/>
	<path class="st1" d="M38.7,78.5c-0.5-0.4-0.8-0.9-1.3-1.3c-0.4-0.2-0.8-0.4-1.2-0.7c2-0.9,2.8-2.5,2.7-4.6c0-0.8,0-1.6,0-2.4
		c0.4-0.2,0.8-0.3,1.2-0.1c0,2.2,0,4.4,0,6.7C40.1,77.2,39.6,78,38.7,78.5z"/>
	<path class="st1" d="M53.8,76.5c-0.2,0.4-0.6,0.4-0.9,0.6c-0.6,0.4-1,0.9-1.4,1.4c-1.2-0.6-1.5-1.7-1.5-2.9c-0.1-2.1,0-4.1,0-6.2
		c0.4-0.2,0.8-0.2,1.2,0.1c0,1,0,2,0,3C51.1,74.4,52,75.7,53.8,76.5z"/>
	<path class="st7" d="M40.1,69.4c-0.4,0-0.8,0.1-1.2,0.1c0-2.2-0.1-4.5,0.1-6.7c0.1-0.6,0.2-1.1,0.5-1.6c0.1-0.3,0.3-0.5,0.6-0.7
		C40.1,63.6,40.1,66.5,40.1,69.4z"/>
	<path class="st7" d="M51,69.5c-0.4-0.1-0.8-0.1-1.2-0.1c0-2.9,0-5.8,0-8.7c0.3,0.1,0.4,0.4,0.5,0.6c0.4,0.8,0.6,1.7,0.6,2.6
		C51.1,65.8,51,67.6,51,69.5z"/>
	<path class="st8" d="M45.5,59.9c0,2.9,0,5.9,0,8.8c0,0.3,0,0.5-0.4,0.6c-0.5,0-0.5-0.1-0.5-0.5c0-3,0-6,0-9
		C44.9,59.4,45.2,59.4,45.5,59.9z"/>
	<path class="st9" d="M25.1,58.5c0.4,0,0.8,0.4,0.8,0.8c0,0.3-0.1,0.4-0.4,0.4c-0.4,0-0.7-0.3-0.7-0.7
		C24.8,58.7,24.9,58.5,25.1,58.5z"/>
	<path class="st10" d="M27.4,61.2c-0.4-0.1-0.7-0.2-0.8-0.7c0-0.3,0.2-0.4,0.5-0.4c0.4,0,0.7,0.2,0.8,0.6
		C27.9,61.1,27.6,61.2,27.4,61.2z"/>
	<path class="st11" d="M29.6,61.9c-0.3,0-0.7-0.1-0.7-0.5c0-0.3,0.3-0.4,0.6-0.4c0.4,0,0.7,0.1,0.8,0.5
		C30.3,61.8,29.9,61.9,29.6,61.9z"/>
	<path class="st11" d="M32.1,62c-0.3,0-0.6-0.1-0.6-0.5c0-0.4,0.4-0.4,0.7-0.5c0.3,0,0.7,0.1,0.7,0.5C32.8,61.9,32.4,61.9,32.1,62z"
		/>
	<path class="st12" d="M23.7,56.6c0.3,0,0.7,0.4,0.7,0.8c0,0.2-0.1,0.4-0.4,0.4c-0.3,0-0.7-0.4-0.6-0.8
		C23.4,56.7,23.5,56.6,23.7,56.6z"/>
	<path class="st13" d="M22.3,55.1c0.3,0.1,0.6,0.2,0.6,0.6c0,0.2-0.1,0.3-0.3,0.3c-0.3,0-0.6-0.2-0.6-0.5
		C21.9,55.2,22.1,55.1,22.3,55.1z"/>
	<path class="st13" d="M34.7,60.5c0,0.3-0.1,0.6-0.1,0.9c-0.3,0-0.7,0-0.7-0.4C34,60.5,34.3,60.4,34.7,60.5z"/>
	<path class="st14" d="M21.5,54.6c0,0.2-0.2,0.3-0.4,0.3c-0.3,0-0.5-0.2-0.5-0.4c0-0.2,0.2-0.3,0.4-0.2
		C21.2,54.2,21.4,54.3,21.5,54.6z"/>
	<path class="st7" d="M59.5,42.6c-0.1,1.2-0.4,2.8-1.7,4.1c-1.5,1.5-3.5,1.3-4.8-0.4c-1.8-2.3-1.8-6.4,0.2-8.7
		c1.5-1.7,3.6-1.7,5.1,0.3C59.1,39.1,59.5,40.5,59.5,42.6z"/>
	<path class="st7" d="M38.5,42c0,1.6-0.3,3-1.2,4.2c-1.6,2.1-3.7,2.1-5.3,0.1c-1.8-2.3-1.7-6.9,0.5-8.9c1.5-1.4,3.3-1.1,4.6,0.3
		C38.1,39,38.5,40.5,38.5,42z"/>
	<path class="st15" d="M44.8,51.2c-1,0-1.7-0.5-2.1-1.4c-0.1-0.2-0.2-0.4,0.1-0.6c0.3-0.2,0.4,0.1,0.5,0.3c0.8,1.4,2.4,1.4,3.2,0
		c0.1-0.2,0.2-0.4,0.5-0.3c0.3,0.1,0.2,0.4,0.1,0.6C46.5,50.7,45.8,51.2,44.8,51.2z"/>
	<path class="st15" d="M44.8,46.1c0.5,0,1,0.5,0.9,1c0,0.5-0.5,1-1,0.9c-0.5,0-1-0.5-0.9-1C43.9,46.5,44.3,46.1,44.8,46.1z"/>
	<path class="st16" d="M57.8,42.2c0,1-0.2,1.9-0.8,2.7c-1,1.4-2.6,1.4-3.6,0c-1.1-1.5-1.1-4,0-5.4c1-1.4,2.6-1.4,3.6,0
		C57.6,40.3,57.8,41.2,57.8,42.2z"/>
	<path class="st16" d="M32.4,42.1c0-1.1,0.3-2.2,1.1-3c0.9-1,2.2-0.9,3.1,0c1.4,1.5,1.4,4.5,0,6c-1,1.1-2.3,1-3.2-0.1
		C32.6,44.2,32.4,43.2,32.4,42.1z"/>
	<path class="st17" d="M55,40.4c0,0.4-0.2,0.7-0.6,0.7c-0.4,0-0.6-0.2-0.7-0.6c0-0.4,0.2-0.7,0.6-0.7C54.8,39.8,55,40,55,40.4z"/>
	<path class="st18" d="M33.9,39.7c0.4,0,0.8,0.3,0.8,0.7c0,0.4-0.3,0.8-0.7,0.8c-0.4,0-0.8-0.3-0.8-0.7
		C33.1,40.1,33.4,39.8,33.9,39.7z"/>
</g>
<g>
	<path class="st19" d="M32.2,117.4h-1c-0.1-0.2-0.1-0.6-0.1-1.3c-0.4,0.7-1.3,1.5-3,1.5c-2.8,0-4.3-2.1-4.3-4.9
		c0-2.9,1.6-5.1,4.5-5.1c2.3,0,3.7,1.2,4,3H31c-0.3-1.1-1.1-1.9-2.7-1.9c-2.3,0-3.2,1.8-3.2,4c0,2,0.9,3.9,3.1,3.9
		c2.2,0,2.7-1.5,2.7-3.1v-0.1h-2.7v-1.1h4V117.4z"/>
	<path class="st19" d="M34.4,107.1h1.2v1.5h-1.2V107.1z M34.4,110.3h1.2v7.1h-1.2V110.3z"/>
	<path class="st19" d="M36.9,110.3h1.2v-2.1h1.2v2.1h1.6v1h-1.6v4.2c0,0.7,0.2,1,0.8,1c0.2,0,0.4,0,0.6-0.1v0.9
		c-0.3,0.1-0.7,0.1-1.1,0.1c-1.1,0-1.6-0.6-1.6-1.8v-4.4h-1.2V110.3z"/>
	<path class="st19" d="M42.5,107.6h1.3v4.1h5.1v-4.1h1.3v9.7h-1.3v-4.6h-5.1v4.6h-1.3V107.6z"/>
	<path class="st19" d="M57.9,115.3c0,0.7,0,1.7,0,2.1h-1.2c0-0.2,0-0.6,0-1.1c-0.3,0.8-1,1.2-2.2,1.2c-1.2,0-2.3-0.6-2.3-2.6v-4.7
		h1.2v4.4c0,0.9,0.3,1.8,1.5,1.8c1.3,0,1.8-0.7,1.8-2.5v-3.7h1.2V115.3z"/>
	<path class="st19" d="M60,107.1h1.2v4.2c0.3-0.6,1-1.2,2.3-1.2c1.8,0,2.9,1.5,2.9,3.6c0,2.2-1.1,3.9-3.1,3.9
		c-1.1,0-1.7-0.4-2.1-1.1c0,0.4,0,0.7,0,0.9H60c0-0.8,0-1.6,0-2.4V107.1z M65.1,113.7c0-1.5-0.7-2.6-1.9-2.6c-1.5,0-2,1-2,2.7
		c0,1.5,0.5,2.7,2,2.7C64.4,116.5,65.1,115.4,65.1,113.7z"/>
</g>
<g>
</g>
<g>
</g>
<g>
</g>
<g>
</g>
<g>
</g>
<g>
</g>
</svg>
