<svg height="127" viewBox="0 0 90 127" width="90" xmlns="http://www.w3.org/2000/svg" xmlns:xlink="http://www.w3.org/1999/xlink"><linearGradient id="a" x1="0%" x2="100%" y1="-.169661%" y2="100.169661%"><stop offset="0" stop-color="#f6c338"/><stop offset=".523" stop-color="#ffd351"/><stop offset="1" stop-color="#f6c338"/></linearGradient><linearGradient id="b" x1="100%" x2="0%" y1="-.169661%" y2="100.169661%"><stop offset="0" stop-color="#286ee6"/><stop offset=".521" stop-color="#4286fb"/><stop offset="1" stop-color="#286ee6"/></linearGradient><linearGradient id="c" x1="65.237296%" x2="36.042361%" y1="0%" y2="100%"><stop offset="0" stop-color="#069b5a"/><stop offset=".531" stop-color="#11aa62"/><stop offset="1" stop-color="#069b5a"/></linearGradient><g fill="none" fill-rule="nonzero"><path d="m10.32 121.168c1.456 0 2.52-.49 3.15-1.456h.042l.112.924c.028.252.112.364.364.364h.224c.252 0 .364-.112.364-.364v-4.284c0-.308-.14-.448-.448-.448h-3.304c-.308 0-.448.14-.448.448v.224c0 .308.14.448.448.448h2.576v.28c0 1.736-1.47 2.688-3.08 2.688-1.974 0-3.36-1.624-3.36-3.808s1.33-3.808 3.416-3.808c1.344 0 2.198.56 2.646 1.344.168.294.294.504.63.504h.28c.336 0 .644-.168.42-.7-.546-1.288-1.918-2.324-3.976-2.324-2.814 0-4.76 2.114-4.76 4.984s1.946 4.984 4.704 4.984zm9.352 0c1.96 0 3.36-1.4 3.36-3.584s-1.288-3.584-3.36-3.584c-1.96 0-3.36 1.4-3.36 3.584s1.288 3.584 3.36 3.584zm0-1.064c-1.232 0-2.072-1.008-2.072-2.52s.84-2.52 2.072-2.52 2.072.952 2.072 2.52c0 1.512-.84 2.52-2.072 2.52zm7.952 1.064c1.96 0 3.36-1.4 3.36-3.584s-1.288-3.584-3.36-3.584c-1.96 0-3.36 1.4-3.36 3.584s1.288 3.584 3.36 3.584zm0-1.064c-1.232 0-2.072-1.008-2.072-2.52s.84-2.52 2.072-2.52 2.072.952 2.072 2.52c0 1.512-.84 2.52-2.072 2.52zm7.784 4.088c1.82 0 3.36-.938 3.36-3.528v-6.02c0-.322-.154-.476-.476-.476h-.224c-.322 0-.476.154-.476.476v.588h-.056c-.448-.896-1.232-1.232-2.184-1.232-1.736 0-3.136 1.4-3.136 3.64s1.288 3.528 3.024 3.528c.952 0 1.848-.336 2.296-1.232h.056v.728c0 1.918-.98 2.52-2.184 2.52-1.036 0-1.484-.35-1.806-1.022-.126-.266-.266-.322-.518-.322h-.28c-.322 0-.434.294-.35.574.364 1.19 1.47 1.778 2.954 1.778zm.112-4.088c-1.12 0-2.016-.84-2.016-2.464s.896-2.576 2.016-2.576 2.016.896 2.016 2.52-.896 2.52-2.016 2.52zm6.104.896c.336 0 .504-.168.504-.504v-9.24c0-.336-.168-.504-.504-.504h-.224c-.336 0-.504.168-.504.504v9.24c0 .336.168.504.504.504zm5.432.168c1.274 0 2.31-.658 2.744-1.68.098-.21.084-.56-.35-.56h-.322c-.252 0-.378.112-.546.406-.266.448-.742.77-1.526.77-1.19 0-1.96-.924-2.016-2.352h4.48c.336 0 .504-.168.504-.504 0-2.044-1.232-3.248-3.024-3.248-1.848 0-3.248 1.456-3.248 3.584 0 2.184 1.176 3.584 3.304 3.584zm1.708-4.34h-3.654c.224-1.106.966-1.764 1.89-1.764 1.022 0 1.652.532 1.764 1.764zm9.044 4.172c3.318 0 5.04-2.002 5.04-4.816s-1.722-4.816-5.04-4.816h-2.464c-.336 0-.504.168-.504.504v8.624c0 .336.168.504.504.504zm0-1.12h-1.68v-7.392h1.68c2.702 0 3.696 1.736 3.696 3.696s-.994 3.696-3.696 3.696zm7.448 1.12c.336 0 .504-.168.504-.504v-3.192c0-1.064.49-2.128 1.512-2.128.336 0 .504.112.728.112.112 0 .224-.07.28-.28l.112-.448c.07-.294-.098-.448-.364-.518-.14-.028-.308-.042-.476-.042-.868 0-1.47.434-1.806 1.176h-.042v-.532c0-.322-.154-.476-.476-.476h-.224c-.322 0-.476.154-.476.476v5.852c0 .336.168.504.504.504zm5.096-8.848c.336 0 .504-.168.504-.504v-.392c0-.336-.168-.504-.504-.504h-.336c-.336 0-.504.168-.504.504v.392c0 .336.168.504.504.504zm-.056 8.848c.336 0 .504-.168.504-.504v-5.824c0-.336-.168-.504-.504-.504h-.224c-.336 0-.504.168-.504.504v5.824c0 .336.168.504.504.504zm5.152 0c.336 0 .448-.168.574-.504l2.142-5.768c.126-.336-.028-.56-.35-.56h-.28c-.336 0-.462.168-.574.504l-1.736 4.984h-.056l-1.722-4.984c-.126-.336-.238-.504-.574-.504h-.406c-.322 0-.462.21-.336.56l2.17 5.768c.126.336.238.504.574.504zm6.72.168c1.274 0 2.31-.658 2.744-1.68.098-.21.084-.56-.35-.56h-.322c-.252 0-.378.112-.546.406-.266.448-.742.77-1.526.77-1.19 0-1.96-.924-2.016-2.352h4.48c.336 0 .504-.168.504-.504 0-2.044-1.232-3.248-3.024-3.248-1.848 0-3.248 1.456-3.248 3.584 0 2.184 1.176 3.584 3.304 3.584zm1.708-4.34h-3.654c.224-1.106.966-1.764 1.89-1.764 1.022 0 1.652.532 1.764 1.764z" fill="#727491"/><g transform="translate(0 11)"><path d="m29.2851562 0h31.2890626l29.4257812 50.8164658h-31.359375z" fill="url(#a)"/><path d="m90 50.8164658-15.6796875 27.1514173h-58.7109375l15.7148438-27.1514173z" fill="url(#b)"/><path d="m15.609375 77.9678831-15.609375-27.1514173 29.2851562-50.8164658 15.7148438 27.221849z" fill="url(#c)"/><path d="m15.609375 77.9678831 29.2148438-27.1514173h-13.5zm74.390625-27.1514173h-31.3242188l-6.890625-11.9029559zm-60.7148438-50.8164658 9.0351563 38.7374307 6.6796875-11.5155817z" fill="#000" opacity=".1"/></g></g></svg>