<svg height="127" viewBox="0 0 90 127" width="90" xmlns="http://www.w3.org/2000/svg"><g fill="none" fill-rule="nonzero"><g><path d="m32.9926471 0c-4.9742647.00366898-9 4.03220546-8.9963261 8.99633102-.0036739 4.96412558 4.0257378 8.99266208 9 8.99633098h9v-8.992662c.003679-4.96412556-4.0257328-8.99266205-9.0036739-9 .0036739 0 .0036739 0 0 0m0 23.995108h-23.9926471c-4.97426471.003669-9.00367647 4.0322055-9.00001005 8.9963311-.00734289 4.9641255 4.02206887 8.992662 8.99633358 9h23.99632357c4.9742647-.003669 9.0036764-4.0322055 9.0000025-8.9963311.0036739-4.9677945-4.0257378-8.996331-9.0000025-9z" fill="#36c5f0"/><path d="m89.9852916 32.9914391c.003679-4.9641256-4.0257328-8.9926621-9-8.9963311-4.9742622.003669-9.003674 4.0322055-9 8.9963311v9h9c4.9742672-.003669 9.003679-4.0322055 9-9zm-23.9963185 0v-23.99510808c.003674-4.96045658-4.0220613-8.98899307-8.996326-8.99633102-4.9742647.00366898-9.0036765 4.03220546-9.0000101 8.99633102v23.99510808c-.0073429 4.9641255 4.0220689 8.992662 8.9963336 9 4.9742647-.003669 9.0036765-4.0322055 9.0000025-9z" fill="#2eb67d"/><path d="m56.9889681 89.9816551c4.9742672-.003669 9.003679-4.0322054 9-8.996331.003679-4.9641256-4.0257328-8.9926621-9-8.996331h-9v8.996331c-.003674 4.9604566 4.0257378 8.9889931 9 8.996331zm.0000025-23.998777h23.9963235c4.9742647-.003669 9.0036765-4.0322055 9.0000101-8.996331.0073403-4.9641256-4.0220689-8.9926621-8.9963336-9h-23.9963261c-4.9742621.003669-9.0036739 4.0322054-9 8.996331-.0036739 4.9677945 4.0220614 8.996331 8.9963261 9z" fill="#ecb22e"/><path d="m-.00000251 56.9865471c-.00367396 4.9641255 4.0257378 8.992662 9 8.996331 4.97426721-.003669 9.00367901-4.0322055 9.00000001-8.996331v-8.996331h-9.00000001c-4.9742622.0036689-9.00367396 4.0322054-9 8.996331zm23.99631601 0v23.995108c-.0073429 4.9641256 4.0220689 8.9926621 8.9963336 9 4.9742647-.003669 9.0036764-4.0322054 9.00001-8.996331v-23.9914391c.0073429-4.9641255-4.0220689-8.992662-8.9963336-9-4.9779411 0-9.0036764 4.0285365-9.00001 8.9926621 0 0 0 .003669 0 0" fill="#e01e5a"/></g><path d="m32.424 121.168c2.352 0 3.752-1.176 3.752-2.856 0-2.002-1.554-2.492-3.08-2.772l-.616-.112c-1.232-.224-2.296-.504-2.296-1.596 0-1.022.938-1.568 2.184-1.568 1.176 0 1.834.434 2.184 1.288.126.322.266.504.602.504h.238c.336 0 .574-.168.462-.616-.364-1.414-1.512-2.24-3.486-2.24-2.142 0-3.5 1.162-3.5 2.744 0 1.946 1.61 2.38 3.164 2.66l.616.112c1.176.21 2.184.56 2.184 1.652 0 1.078-.896 1.736-2.408 1.736-1.428 0-2.184-.574-2.478-1.456-.112-.322-.266-.504-.602-.504h-.224c-.336 0-.574.168-.476.63.322 1.414 1.498 2.394 3.78 2.394zm6.16-.168c.336 0 .504-.168.504-.504v-9.24c0-.336-.168-.504-.504-.504h-.224c-.336 0-.504.168-.504.504v9.24c0 .336.168.504.504.504zm4.536.168c.994 0 1.792-.364 2.184-1.078h.056v.434c0 .322.154.476.476.476h.224c.322 0 .476-.154.476-.476v-4.116c0-1.512-.896-2.408-2.688-2.408-1.358 0-2.338.7-2.646 1.708-.084.28-.028.588.35.588h.196c.378 0 .49-.21.588-.392.252-.434.49-.896 1.512-.896.966 0 1.456.518 1.456 1.4 0 .322-.168.406-.896.532l-1.344.224c-1.596.28-2.24.966-2.24 2.1 0 1.148.84 1.904 2.296 1.904zm.224-1.008c-.868 0-1.288-.42-1.288-1.008s.336-.966 1.232-1.12l1.288-.224c.336-.056.588-.154.728-.322v.658c0 1.344-.896 2.016-1.96 2.016zm7.952 1.008c1.47 0 2.408-.728 2.8-1.792.126-.322.084-.672-.35-.672h-.266c-.252 0-.42.084-.546.392-.21.532-.644 1.008-1.582 1.008-1.12 0-2.016-1.008-2.016-2.52s.896-2.52 2.016-2.52c.882 0 1.372.476 1.582 1.008.126.308.294.392.546.392h.266c.434 0 .476-.35.35-.672-.392-1.064-1.33-1.792-2.8-1.792-1.848 0-3.248 1.4-3.248 3.584s1.232 3.584 3.248 3.584zm5.208-.168c.336 0 .504-.168.504-.504v-1.554l1.05-1.148 1.862 2.702c.238.336.364.504.7.504h.434c.336 0 .476-.252.238-.602l-2.394-3.5 2.044-2.198c.252-.28.112-.532-.224-.532h-.378c-.336 0-.504.168-.812.504l-2.52 2.786v-6.202c0-.336-.168-.504-.504-.504h-.224c-.336 0-.504.168-.504.504v9.24c0 .336.168.504.504.504z" fill="#727491"/></g></svg>