<?xml version="1.0" encoding="utf-8"?>
<!-- Generator: Adobe Illustrator 16.0.0, SVG Export Plug-In . SVG Version: 6.00 Build 0)  -->
<!DOCTYPE svg PUBLIC "-//W3C//DTD SVG 1.1//EN" "http://www.w3.org/Graphics/SVG/1.1/DTD/svg11.dtd">
<svg version="1.1" id="Layer_1" xmlns="http://www.w3.org/2000/svg" xmlns:xlink="http://www.w3.org/1999/xlink" x="0px" y="0px"
	 width="700px" height="700px" viewBox="0 0 700 700" enable-background="new 0 0 700 700" xml:space="preserve">
<g>
	<g>
		<rect x="21.712" y="28.556" fill="#CCD5FF" width="659.424" height="23.756"/>
		<rect x="21.712" y="61.089" fill="#E6EDFF" width="659.424" height="383.595"/>
		<g>
			<rect x="379.823" y="150.14" fill="#FFFFFF" width="7.585" height="259.234"/>
			<rect x="409.977" y="125.875" fill="#FFFFFF" width="7.582" height="283.499"/>
			<rect x="48.154" y="242.736" fill="#FFFFFF" width="7.583" height="166.638"/>
			<rect x="78.308" y="179.826" fill="#FFFFFF" width="7.583" height="229.548"/>
			<rect x="108.458" y="204.095" fill="#FFFFFF" width="7.583" height="205.279"/>
			<rect x="138.611" y="153.496" fill="#FFFFFF" width="7.583" height="255.878"/>
			<rect x="168.762" y="176.212" fill="#FFFFFF" width="7.583" height="233.162"/>
			<rect x="198.915" y="134.651" fill="#FFFFFF" width="7.583" height="274.723"/>
			<rect x="229.065" y="156.078" fill="#FFFFFF" width="7.583" height="253.296"/>
			<rect x="259.218" y="172.082" fill="#FFFFFF" width="7.583" height="237.292"/>
			<rect x="289.369" y="133.619" fill="#FFFFFF" width="7.583" height="275.755"/>
			<rect x="319.519" y="151.947" fill="#FFFFFF" width="7.585" height="257.427"/>
			<rect x="349.672" y="129.748" fill="#FFFFFF" width="7.583" height="279.626"/>
			<polyline fill="none" stroke="#FFFFFF" stroke-width="1.1953" stroke-linecap="round" stroke-miterlimit="10" points="
				51.946,225.108 81.76,151.947 112.25,185.506 142.403,133.619 172.553,163.821 202.706,116.84 232.857,145.751 263.009,157.626 
				293.16,117.873 323.313,142.654 353.464,112.452 383.617,138.523 413.768,108.579 			"/>
			<circle fill="#FFFFFF" cx="51.636" cy="224.905" r="3.132"/>
			<circle fill="#FFFFFF" cx="81.891" cy="152.003" r="3.131"/>
			<circle fill="#FFFFFF" cx="112.251" cy="184.992" r="3.132"/>
			<circle fill="#FFFFFF" cx="142.401" cy="133.622" r="3.132"/>
			<circle fill="#FFFFFF" cx="172.553" cy="163.18" r="3.131"/>
			<circle fill="#FFFFFF" cx="202.705" cy="116.971" r="3.132"/>
			<circle fill="#FFFFFF" cx="232.857" cy="145.625" r="3.131"/>
			<circle fill="#FFFFFF" cx="263.008" cy="156.915" r="3.132"/>
			<circle fill="#FFFFFF" cx="293.16" cy="117.808" r="3.131"/>
			<circle fill="#FFFFFF" cx="323.312" cy="142.493" r="3.132"/>
			<circle fill="#FFFFFF" cx="353.464" cy="112.766" r="3.131"/>
			<circle fill="#FFFFFF" cx="383.615" cy="138.581" r="3.132"/>
			<circle fill="#FFFFFF" cx="413.767" cy="108.579" r="3.13"/>
		</g>
		<g>
			<rect x="453.885" y="105.448" fill="#FFFFFF" width="54.599" height="54.599"/>
			<rect x="453.885" y="188.123" fill="#FFFFFF" width="54.599" height="54.6"/>
			<rect x="453.885" y="270.798" fill="#FFFFFF" width="54.599" height="54.599"/>
			<rect x="453.885" y="353.472" fill="#FFFFFF" width="54.599" height="54.602"/>
			<g>
				<rect x="520.452" y="105.448" fill="#FFFFFF" width="134.75" height="6.263"/>
				<rect x="520.452" y="121.56" fill="#FFFFFF" width="122.229" height="6.263"/>
				<rect x="520.452" y="137.672" fill="#FFFFFF" width="129.715" height="6.264"/>
				<rect x="520.452" y="153.784" fill="#FFFFFF" width="89.705" height="6.263"/>
			</g>
			<g>
				<rect x="520.452" y="188.123" fill="#FFFFFF" width="134.75" height="6.264"/>
				<rect x="520.452" y="204.235" fill="#FFFFFF" width="122.229" height="6.263"/>
				<rect x="520.452" y="220.347" fill="#FFFFFF" width="129.715" height="6.263"/>
				<rect x="520.452" y="236.46" fill="#FFFFFF" width="89.705" height="6.263"/>
			</g>
			<g>
				<rect x="520.452" y="270.798" fill="#FFFFFF" width="134.75" height="6.263"/>
				<rect x="520.452" y="286.911" fill="#FFFFFF" width="122.229" height="6.262"/>
				<rect x="520.452" y="303.022" fill="#FFFFFF" width="129.715" height="6.262"/>
				<rect x="520.452" y="319.135" fill="#FFFFFF" width="89.705" height="6.261"/>
			</g>
			<g>
				<rect x="520.452" y="353.472" fill="#FFFFFF" width="134.75" height="6.265"/>
				<rect x="520.452" y="369.586" fill="#FFFFFF" width="122.229" height="6.262"/>
				<rect x="520.452" y="385.698" fill="#FFFFFF" width="129.715" height="6.262"/>
				<rect x="520.452" y="401.81" fill="#FFFFFF" width="89.705" height="6.264"/>
			</g>
		</g>
	</g>
	<g>
		<g>
			<g>
				<path fill="#3B4C9E" d="M512.745,517.978l36.005,144.977c0.354,1.42,1.627,2.418,3.09,2.418l0,0
					c1.992,0,3.496-1.811,3.128-3.769l-27.584-147.167"/>
				<path fill="#3B4C9E" d="M450.916,517.978l-36.004,144.977c-0.353,1.42-1.628,2.418-3.091,2.418l0,0
					c-1.991,0-3.495-1.811-3.128-3.769l27.586-147.167"/>
			</g>
			<path fill="#CCD5FF" d="M539.664,515.195c-12.893,12.384-100.112,25.297-104.949,8.601
				c-4.836-16.693,38.389-36.931,38.389-36.931l9.391-128.362c0,0,14.833-2.265,30.254-0.989
				c10.807,0.909,21.918,3.561,28.432,9.957c16.879,16.512-2.021,75.117-3.54,96.748
				C536.121,485.853,557.168,498.378,539.664,515.195z"/>
			<path fill="#C1CCF4" d="M539.664,515.195c7.932-11.475-8.946-31.023-9.957-44.177c-1.012-13.152,8.512-45.877,8.095-66.577
				c-0.669-33.178-10.534-30.901-19.003-34.605c-4.17-1.824-4.674-8.072-6.051-12.322c10.807,0.909,21.918,3.561,28.432,9.957
				c16.879,16.512-2.021,75.117-3.54,96.748C536.121,485.853,557.168,498.378,539.664,515.195z"/>
		</g>
		<g>
			<path fill="#FF9391" d="M453.136,624.381l5.874,13.596c0,0,11.328,2.91,14.033-3.368l-5.932-15.666"/>
			<path fill="#FF9391" d="M337.792,632.115l-1.8,16.935c0,0,8.304,5.102,13.814,1.948l2.794-16.514"/>
			<path fill="#4D5BB2" d="M518.799,492.37c-2.024,12.465-16.858,21.975-32.276,28.593c-16.636,2.084-38.773,4.25-58.605,4.776
				c-7.63,0.223-14.914,0.203-21.391-0.182c-2.225-0.122-4.492-0.283-6.718-0.486c-7.994-0.709-15.541-1.7-19.386-2.024
				c-3.037-0.243-1.519-3.622-1.519-3.622l-12.021-30.842c2.309-0.969,4.573-1.799,6.76-2.527c0.021,0,0.061,0,0.081-0.021
				l15.441-3.885l48.851-10.24l74.793-3.642C512.809,468.269,520.136,477.516,518.799,492.37z"/>
			<path fill="#FAB620" d="M468.06,357.104c0,0-14.321,75.087-22.841,79.703l-15.434-6.696c0,0,0.122-39.738,1.45-53.755
				C434.336,343.606,462.358,343.252,468.06,357.104z"/>
			<g>
				<path fill="#F47F7F" d="M354.092,427.87c0,0-7.535,5.512-7.123,5.968c0.41,0.458,1.324,0.503,2.875,0
					c1.551-0.501,5.89-3.333,7.122-3.652c1.231-0.318,6.526-1.566,6.526-1.566l-0.283-2.404"/>
				<path fill="#F47F7F" d="M359.245,427.902c0,0-8.219,5.479-7.807,5.936c0.411,0.458,1.324,0.503,2.876,0
					c1.551-0.501,5.889-3.333,7.122-3.652c1.231-0.318,6.529-1.566,6.529-1.566l-0.286-2.404"/>
				<path fill="#F47F7F" d="M362.763,427.902c0,0-8.219,5.479-7.809,5.936c0.41,0.458,1.324,0.503,2.878,0
					c1.551-0.501,5.887-3.333,7.119-3.652c1.233-0.318,6.53-1.566,6.53-1.566l-0.283-2.404"/>
				<path fill="#FF9391" d="M378.15,425.714c0,0-4.478,0.092-6.669-0.367c-2.192-0.455-7.92-2.675-10.385-2.949
					c-2.464-0.272-8.924,3.086-10.751,4.091c-1.825,1.005-6.955,6.155-6.937,6.437c0.04,0.657,1.369,0.703,2.943,0.064
					s5.89-3.515,6.986-3.995c1.096-0.479,6.564-1.084,7.668-1.087c1.986-0.005,2.328,1.539,1.782,2.853
					c-0.55,1.316-5.242,0.93-6.232,1.795c-0.832,0.727-0.479,1.576,1.094,2.056c1.577,0.478,4.632,0.544,7.578,0.404
					c2.943-0.137,6.097-1.2,7.124-1.404c1.028-0.205,5.799-0.273,5.799-0.273"/>
			</g>
			<path fill="#FAB620" d="M440.071,416.117c0,0-23.733,3.98-44.572,7.379c-5.109,0.833-20.821,1.078-20.821,1.078
				s-0.701,2.309-0.891,5.25c-0.097,1.501,0.347,5.975,0.347,5.975l57.041,4.139c0,0,16.569,1.091,17.557-3.689l-10.032-14.463
				L440.071,416.117z"/>
			<path fill="#F99C21" d="M439.906,371.264c0,0-1.007,59.213-2.04,68.499h5.545C443.411,439.763,441.584,376.072,439.906,371.264z"
				/>
			<path fill="#FAB620" d="M464.429,342.455c0,0-11.314,3.902-19.984,8.653c-7.633,4.184-3.513,51.104-3.688,59.617
				c-0.149,7.289,2.108,48.819-2.614,59.443c-0.896,2.015,0.619,2.442,1.331,2.652c11.527,3.419,75.995,0,75.995,0
				s1.382-0.808,1.091-3.412c-0.52-4.649-2.87-12.521-3.035-13.911c-1.146-9.674-1.991-24.125,0.762-45.746
				c3.375-26.477,8.282-51.613,5.583-57.012c-2.697-5.396-32.603-11.381-32.603-11.381"/>
			<g>
				<path fill="#012851" d="M459.43,261.552c0,0-6.307,3.854-13.812,4.012c-7.501,0.157-11.441-2.679-16.011,2.206
					c-4.186,4.475-0.571,16.317,6.485,21.154c2.447,1.678,4.184,4.292,4.782,7.198c0.183,0.883,0.26,1.795,0.158,2.69
					c-0.475,4.175-1.104,7.8,5.593,10.164"/>
				<path fill="#FF9391" d="M494.351,344.646c0,0-5.112,11.289-23.44,10.708c-18.433-0.582-8.041-10.961-8.041-10.961
					s0.607-2.771,1.316-6.436c0.686-3.581,1.475-7.993,1.9-11.432l6.214-6.274l13.173-13.294
					C485.473,306.957,486.255,336.046,494.351,344.646z"/>
				<path fill="#E96362" d="M481.122,319.462c0,0-4.574,13.153-16.937,18.496c0.686-3.581,1.475-7.993,1.9-11.432l6.214-6.274
					L481.122,319.462z"/>
				<path fill="#FF9391" d="M441.584,289.83c0,0,1.418,40.34,14.023,43.648c0,0,13.789,1.637,24.36-12.298
					c3.045-4.014,5.117-8.663,6.405-13.535c2.094-7.912,5.08-22.514,1.537-31.367C482.868,263.672,442.371,259.261,441.584,289.83z"
					/>
				<path fill="#012851" d="M443.08,273.246c0,0,2.258-4.738,9.845-2.04c7.59,2.697,5.298,17.538,11.504,22.935
					c6.205,5.396,27.282-2.193,27.282-2.193s5.565-13.804-4.213-28.993C477.715,247.764,450.602,253.869,443.08,273.246z"/>
				<path fill="#012851" d="M473.886,290.776c0,0,5.988,0.385,8.51,9.332c2.52,8.947,2.11,24.896,5.074,24.644
					c2.964-0.255-0.03-10.496,3.276-16.957c3.312-6.461,12.45-11.503,12.291-18.751c-0.157-7.248-9.453-7.248-7.563-17.334
					c1.891-10.084-15.436-24.731-36.045-14.951C449.309,261.561,473.886,290.776,473.886,290.776z"/>
				<path fill="#FF9391" d="M474.468,296.585c0,0,0.596-7.145,6.031-6.282c7.165,1.139,4.067,19.524-3.467,16.471"/>
			</g>
			<path fill="#F99C21" d="M495.381,378.829c0,0,6.803,29.325,8.318,34.638c0,0-10.117,3.92-17.832,6.451
				c-7.714,2.528-33.269,7.147-33.269,7.147l34.534,2.969c0,0,18.592-2.959,18.972-3.313c0.379-0.354,8.726-10.979,8.726-11.611
				c0-0.63-3.92-12.647-4.553-14.292C509.646,399.175,495.381,378.829,495.381,378.829z"/>
			<path fill="#FAB620" d="M522.694,358.221c2.928,15.531,13.386,68.778,10.769,75.301l-17.488,1.557
				c0,0-15.757-39.783-19.751-53.286c-7.628-25.781,8.286-35.277,20.001-31.919C519.358,350.769,522.089,355.019,522.694,358.221z"
				/>
			<path fill="#FF9391" d="M451.89,427.333c-1.201,0.025-2.401-0.166-3.535-0.574c-1.736-0.627-4.525-1.565-7.35-2.234
				c-4.609-1.094-12.189,0.428-13.717,0.334c-1.526-0.095-11.073,8.523-11.111,9.151c-0.04,0.631,1.592,1.225,3.082,0.461
				c1.491-0.768,5.193-3.789,6.229-4.493c0.539-0.366,2.641-0.896,4.611-1.28c-1.629,0.474-3.193,0.992-3.55,1.337
				c-0.801,0.779-4.807,4.279-4.638,4.616c0.17,0.336,1.772,0.652,2.909,0.21c1.138-0.44,4.3-2.445,5.229-2.864
				c0.161-0.076,0.516-0.175,0.979-0.286c-1.438,1.313-3.896,3.541-3.761,3.806c0.167,0.336,1.769,0.653,2.907,0.21
				c0.413-0.159,1.094-0.526,1.836-0.946c-0.354,0.377-0.57,0.653-0.527,0.736c0.167,0.336,1.769,0.653,2.908,0.21
				c0.638-0.245,1.905-0.982,3.063-1.654c1.242-0.725,2.756-0.661,4.009,0.048c0.178,0.102,0.342,0.185,0.494,0.25
				c2.191,0.943,5.145,1.307,7.025,1.557c1.877,0.25,5.448-2.103,7.668-2.237C458.756,433.56,462.305,427.104,451.89,427.333z"/>
			<path fill="#FAB620" d="M512.322,415.109c0,0-30.036,7.886-39.944,9.528c-8.391,1.393-19.779,2.428-19.779,2.428
				s-1.047,1.959-1.047,5.057c0,3.311,1.047,6.208,1.047,6.208h63.578c0,0,16.605,0.025,17.286-4.809l-10.941-13.788
				L512.322,415.109z"/>
			<path fill="#FAB620" d="M515.975,472.821"/>
			<path fill="#3A4993" d="M444.813,487.412l-16.896,38.327c-7.63,0.223-14.914,0.203-21.391-0.182
				c-2.225-0.122-4.492-0.283-6.718-0.486C405.838,501.415,444.813,487.412,444.813,487.412z"/>
			<path fill="#4D5BB2" d="M518.797,492.367c-2.012,12.465-16.861,21.978-32.279,28.604c-17.954,7.699-39.775,11.503-39.775,11.503
				s12.638,18.217,15.895,52.837c2.341,24.843,7.04,37.821,7.04,37.821c-4.841,5.548-15.605,6.694-15.605,6.694
				s-39.896-78.872-45.231-91.426c-3.108-7.327-2.604-13.252-1.643-16.926c0.701-2.647,1.643-4.134,1.643-4.134
				c10.604-21.302,47.345-34.992,47.345-34.992L518.797,492.367z"/>
			<path fill="#4D5BB2" d="M383.559,515.155c0.087,1.509,0.005,3.063,0.087,4.68c1.553,31.13-11.767,60.073-18.327,79.996
				c-6.998,21.258-13.098,40.958-13.098,40.958c-8.473,1.012-15.871-2.645-15.871-2.645s8.019-99.766,7.208-123.121
				c-0.458-13.166,11.549-21.477,23.335-26.44c2.299-0.962,4.57-1.794,6.757-2.536c0.023,0,0.047,0,0.066-0.021
				c8.486-2.799,15.441-3.87,15.441-3.87L383.559,515.155z"/>
			<path fill="#4D5BB2" d="M518.797,485.25c0,0,2.8,16.896-5.567,26.655c-9.107,10.625-66.487,20.569-66.487,20.569l29.432-25.725
				L518.797,485.25z"/>
			<path fill="#4D5BB2" d="M457.203,640.761c-0.96-1.739-0.34-3.936,1.425-4.844c1.444-0.739,3.414-1.468,5.35-1.278
				c3.721,0.362,4.632,1.218,5.626,1.311c2.541,0.243,3.439-1.341,3.439-1.341s1.37,0.484,2.731,2.298
				c1.359,1.814,3.241,7.712,3.241,9.253c0,1.544-6.2,4.065-8.923,6.423c-2.721,2.359-5.389,9.001-7.748,11.18
				c-2.357,2.177-15.423,1.404-17.872,0.771c-2.451-0.635-3.721-6.078-0.544-8.982c3.175-2.902,6.304-2.143,7.665-2.96
				c1.362-0.815,4.321-8.426,5.139-9.97C457.073,641.98,457.463,641.234,457.203,640.761z"/>
			<path fill="#4D5BB2" d="M335.993,647.67c0,0,2.822,0.243,4.341,1.086s2.364,2.024,3.963,2.868c1.602,0.843,5.51-0.626,5.51-0.626
				s1.488,1.806,1.91,3.829c0.421,2.023-0.592,5.479-0.845,6.408c-0.253,0.927,0.253,2.108,0.086,2.782
				c-0.17,0.676-11.047,0.929-12.986,0.593c-1.938-0.34-4.553-0.253-6.155-0.17s-9.784,0.531-14.502,0.842
				c-3.984,0.264-8.18-0.063-8.517-0.991c-0.336-0.927-0.296-6.386,3.078-7.567c3.372-1.18,10.498-1.979,13.11-3.161
				C327.601,652.383,333.092,648.093,335.993,647.67z"/>
		</g>
	</g>
	<g>
		<g>
			<path fill="#FE9393" d="M114.664,632.159l1.559,18.227c0,0,6.816,4.21,14.578,0l0.392-21.866"/>
			<path fill="#252BA2" d="M116.223,650.386c0,0-2.784,2.799-3.404,6.985c-0.62,4.188,0.542,7.677,0.542,8.607
				c0,0.932,3.715,1.775,8.833,1.854c5.117,0.078,7.755-1.162,9.848-1.473c2.093-0.313,11.088,1.326,15.507,1.475
				c4.421,0.152,10.625-0.39,12.485-1.243c1.86-0.853,2.248-7.056-7.134-7.83c-5.424-0.447-11.48-3.748-16.034-5.973
				c-3.32-1.62-6.064-2.402-6.064-2.402S119.009,651.53,116.223,650.386z"/>
		</g>
		<g>
			<path fill="#FE9393" d="M43.921,630.827v19.559c0,0,6.815,4.21,14.577,0l2.38-21.866"/>
			<path fill="#252BA2" d="M43.921,650.386c0,0-2.784,2.799-3.405,6.985c-0.62,4.188,0.543,7.677,0.543,8.607
				c0,0.932,3.714,1.775,8.831,1.854c5.118,0.078,7.755-1.162,9.848-1.473c2.095-0.313,11.088,1.326,15.509,1.475
				c4.419,0.152,10.622-0.39,12.482-1.243c1.863-0.853,2.25-7.056-7.132-7.83c-5.426-0.447-11.482-3.748-16.036-5.973
				c-3.32-1.62-6.064-2.402-6.064-2.402S46.707,651.53,43.921,650.386z"/>
		</g>
		<path fill="#252BA2" d="M140.416,527.721c-0.777,17.772-4.262,71.218-7.621,107.741c-9.4,1.328-16.019,0.428-19.126-0.251
			c-1.028-15.115-3.06-30.13-5.115-45.824c-3.184-24.391-6.317-47.854,1.404-62.896c-0.977-2.956-2.156-6.467-3.435-10.301
			l-0.025-0.025c-0.026-0.101-0.076-0.226-0.124-0.353c-0.352-1.103-0.729-2.255-1.104-3.408c-0.051-0.076-0.076-0.149-0.076-0.251
			c-5.34-16.018-12.082-36.573-15.942-50.961c-1.756,25.091-4.138,61.087-5.391,69.637c-0.149,1.002-0.326,1.931-0.501,2.808
			c-2.883,18.626-15.492,63.146-21.206,100.372c-11.283,1.104-16.722-0.127-19.604-0.752c0.403-12.961,0.152-25.42-0.149-39.006
			c-0.501-22.963-0.853-45.697,9.047-62.444c-2.682-19.479-9.777-57.556-11.004-77.157c-1.453-5.49-11.756-49.811,23.062-79.039
			c0,0,30.006,8.999,49.183,10.077c15.117,0.853,22.788-0.45,22.788-0.45s1.278,38.728,1.329,59.636
			c1.053,23.838,2.706,63.796,3.435,73.147c0.2,2.204,0.175,4.186,0,5.965C140.391,525.14,140.492,526.367,140.416,527.721z"/>
		<path fill="#172577" d="M105.196,512.153c-5.34-16.018-12.082-36.573-15.942-50.961l2.381-32.465
			C91.635,428.728,97.851,487.814,105.196,512.153z"/>
		<path fill="#FF9391" d="M153.584,280.281l29.191,50.762c0,0,2.508,14.215-13.368,11.396c-15.876-2.822-37.48-43.733-37.48-43.733"
			/>
		<path fill="#FF9391" d="M146.407,321.896c0,0,11.017,14.621,15.792,18.225c3.845,2.9,10.126,6.031,15.557,2.45
			c5.429-3.581,32.016-25.919,52.458-49.376c0,0-3.153-3.057-6.14-6.913c0,0-11.159,9.507-25.702,17.2
			c-14.54,7.691-26.574,17.779-26.574,17.779"/>
		<path fill="#9FDEF7" d="M167.463,300.281c0,0-8.071,10.052-21.057,15.04c-2.281,0.878-4.713,1.604-7.294,2.081l0.701-34.316
			l0.577-27.926C140.391,255.16,161.622,288.148,167.463,300.281z"/>
		<path fill="#7FD5EF" d="M146.407,315.321c-2.281,0.878-4.713,1.604-7.294,2.081l0.701-34.316
			C141.846,290.882,144.853,303.415,146.407,315.321z"/>
		<path fill="#9FDEF7" d="M134.977,374.858c0.552,5.79,2.981,9.875,0.828,12.735c-2.333,3.107-19.979,5.238-32.337,5.238
			c-13.915,0-43.493-1.379-50.613-5.488c-0.676-0.378-2.331-1.732-2.331-3.035c0-1.855,1.703-3.986,1.703-8.698
			c0-7.244-2.281-39.105-3.032-51.489c-0.149-2.582-0.352-5.265-0.577-7.998c-1.43-17.997-3.936-38.804-4.411-50.385
			c2.156-3.71,4.538-6.744,6.869-9.226c6.967-7.444,13.687-9.951,14.689-10.277c0.076-0.026,0.124-0.05,0.124-0.05
			c10.329-2.808,21.935-4.538,29.105-4.763c20.604-0.626,40.535,8.472,45.396,13.736
			C145.255,260.398,134.45,369.042,134.977,374.858z"/>
		<path fill="#9FDEF7" d="M50.212,339.777c0,0-1.916,41.484-7.034,55.963c0,0,55.064,15.456,95.883,2.299
			c0,0,1.321-72.584,1.093-95.793"/>
		<g>
			<path fill="#012851" d="M132.838,173.145c0,0,2.506,20.21-4.072,22.247c-6.58,2.038-5.798-6.737-5.798-6.737l-0.028-9.713"/>
			<path fill="#FF9391" d="M82.448,246.008c0,0,6.112,10.779,24.312,8.547c18.304-2.247,7.019-11.644,7.019-11.644
				s-0.855-2.707-1.893-6.291c-1.007-3.505-2.192-7.827-2.929-11.216l-6.752-5.686L87.882,207.67
				C87.882,207.67,89.732,236.71,82.448,246.008z"/>
			<path fill="#E96362" d="M93.347,219.731c0,0,5.742,12.686,18.539,16.89c-1.007-3.505-2.192-7.827-2.929-11.216l-6.752-5.686
				L93.347,219.731z"/>
			<path fill="#FF9391" d="M130.044,186.647c0,0,2.232,40.302-10.022,44.737c0,0-13.583,2.875-25.37-10.046
				c-3.396-3.723-5.882-8.167-7.605-12.901c-2.799-7.69-7.092-21.963-4.366-31.1C86.563,164.327,126.496,156.273,130.044,186.647z"
				/>
			<path fill="#012851" d="M127.055,170.265c0,0-9.658-0.858-16.972,2.514c-7.314,3.374-2.455,15.791-8.147,21.726
				c-5.691,5.935-24.783-0.418-24.783-0.418s-5.299-13.915,4.657-27.991C94.202,148.573,117.813,151.647,127.055,170.265z"/>
			<path fill="#012851" d="M97.958,190.508c0,0-5.927,0.925-7.63,10.063c-1.701,9.138,0.248,22.107-2.726,22.123
				c-2.974,0.014-1.017-7.579-4.897-13.714c-1.916-3.032-9.324-17.307-4.991-30.821c4.431-13.825,20.743-26.819,31.567-22.836
				C119.796,159.192,97.958,190.508,97.958,190.508z"/>
			<path fill="#FF9391" d="M97.904,196.813c0,0-1.238-7.529-6.573-6.179c-7.036,1.782-2.288,19.813,4.94,16.091"/>
			<path fill="#012851" d="M103.92,178.001c0,0,32.587,9.713,37.812-13.787c0,0,0.861-5.405-0.785-6.033
				c-1.645-0.626-19.349,0.04-33.362-3.338"/>
		</g>
		<path fill="#FF9391" d="M37.907,285.214c0,0-7.68,54.75-6.427,59.137c1.254,4.386,16.503,7.416,22.769,0.939
			c6.267-6.474,12.743-48.045,12.743-48.045"/>
		<path fill="#9FDEF7" d="M72.307,281.054c0,11.582-3.285,34.318-3.285,34.318c-5.563,2.356-13.459,1.905-20.404,0.751
			c-8.323-1.427-16.511-4.153-16.511-4.153s1.245-13.114,4.229-25.226c2.391-9.709,6.431-18.574,7.871-21.006
			c2.156-3.71,4.538-6.744,6.869-9.226L72.307,281.054z"/>
		<path fill="#4D5BB2" d="M131.482,368.396l-54.045,7.254c-1.083,0.145-2.083-0.618-2.227-1.701l-9.802-73.042
			c-0.146-1.084,0.615-2.083,1.701-2.229l54.042-7.253c1.085-0.146,2.083,0.616,2.229,1.702l9.802,73.039
			C133.33,367.253,132.567,368.25,131.482,368.396z"/>
		<path fill="#FF9391" d="M31.877,334.113c0,0-1.613,18.385-0.535,20.265c1.079,1.881,3.48,5.014,9.957,4.387
			c6.477-0.626,40.421-7.938,69.458-19.114c0,0-1.356-4.179-2.192-8.982c0,0-14.31,3.184-30.76,3.184s-31.806,3.29-31.806,3.29"/>
		<path fill="#9FDEF7" d="M65.765,246.236c0,0-14.841,4.472-18.981,10.639c-4.057,6.038-10.447,29.87-10.447,29.87l16.468-7.1"/>
		<path fill="#FF9391" d="M106.441,331.097c0,0,3.832-0.428,6.074-3.035c1.241-1.443,1.372-2.503,2.318-3.531
			c0.947-1.03,3.583-3.616,4.482-5.426c0.899-1.81,1.403-2.318,2.458-0.833c1.058,1.485-0.828,4.912-1.293,5.902
			c-0.463,0.992-0.449,3.017-0.431,3.257c0.021,0.24,6.804-0.931,7.712-2.442c0,0,1.28,0.871,1.556,1.688
			c0.278,0.819-0.542,1.812-0.37,2.196c0.172,0.387,0.99,0.822,1.172,1.506c0.183,0.683-0.706,1.366-0.42,2.485
			c0.289,1.118,0.693,0.83,1.106,1.91c0.413,1.079-0.592,2.099-0.458,2.716c0.135,0.618,0.653,1.061,0.42,1.734
			c-0.233,0.676-5.659,2.609-7.77,3.146s-11.04-2.329-17.336-0.815"/>
		<path fill="#FF9391" d="M222.66,287.374c0,0,6.668-13.906,11.247-17.147c0,0,1.595,0.268,1.387,2.209
			c-0.21,1.94-2.994,4.292-3.138,6.108c-0.145,1.817,1.081,1.58,2.589,1.25c1.509-0.328,12.7-6.392,13.791-5.838
			c1.111,0.566-0.05,1.709-0.84,2.326c-0.79,0.619-6.77,4.284-6.77,4.284s10.764-5.748,11.541-3.698
			c0.504,1.329-9.5,6.321-9.5,6.321s8.6-4.689,8.969-2.91c0.316,1.52-6.96,4.833-6.96,4.833s4.5-2.29,4.824-1.259
			c0.413,1.309-5.839,4.612-7.653,5.768c-1.814,1.156-6.224,2.989-7.962,2.924c-1.739-0.066-3.022-0.252-3.986,0.708"/>
	</g>
	<g>
		<path fill="#4D5BB2" d="M630.04,446.128H109.331c-2.629,0-4.763-2.131-4.763-4.761l0,0c0-2.632,2.133-4.764,4.763-4.764H630.04
			c2.629,0,4.763,2.132,4.763,4.764l0,0C634.803,443.997,632.669,446.128,630.04,446.128z"/>
		
			<line fill="none" stroke="#4D5BB2" stroke-width="1.5617" stroke-linecap="round" stroke-miterlimit="10" x1="119.767" y1="439.763" x2="75.433" y2="665.201"/>
		
			<line fill="none" stroke="#4D5BB2" stroke-width="1.5617" stroke-linecap="round" stroke-miterlimit="10" x1="617.269" y1="439.763" x2="663.326" y2="665.201"/>
	</g>
	<g>
		<g>
			<rect x="155.72" y="357.638" fill="#7686D3" width="33.529" height="62.387"/>
			<rect x="129.922" y="354.527" fill="#FAB620" width="18.802" height="82.092"/>
			<polygon fill="#E89F0F" points="148.725,354.527 159.375,354.527 170.344,394.225 192.631,394.225 192.631,436.619 
				148.725,436.619 			"/>
			<circle fill="#FFD180" cx="139.325" cy="369.819" r="5.849"/>
			<rect x="134.312" y="379.026" fill="#FFD180" width="10.027" height="35.67"/>
			<rect x="134.312" y="416.365" fill="#FFD180" width="10.027" height="3.659"/>
			<rect x="134.312" y="421.532" fill="#FFD180" width="10.027" height="3.663"/>
		</g>
		<g>
			<rect x="182.687" y="357.638" fill="#7686D3" width="33.529" height="62.387"/>
			<rect x="156.89" y="354.527" fill="#4D5BB2" width="18.802" height="82.092"/>
			<polygon fill="#3F4E99" points="175.691,354.527 186.341,354.527 197.308,394.225 219.595,394.225 219.595,436.619 
				175.691,436.619 			"/>
			<circle fill="#7686D3" cx="166.29" cy="369.819" r="5.85"/>
			<rect x="161.278" y="379.026" fill="#7686D3" width="10.025" height="35.67"/>
			<rect x="161.278" y="416.365" fill="#7686D3" width="10.025" height="3.659"/>
			<rect x="161.278" y="421.532" fill="#7686D3" width="10.025" height="3.663"/>
		</g>
	</g>
	<g>
		<g>
			<g>
				<path fill="#7686D3" d="M255.81,434.39h-50.38c-2.462,0-4.457-1.997-4.457-4.459l0,0c0-2.463,1.995-4.46,4.457-4.46h50.38
					V434.39z"/>
			</g>
			<g>
				<path fill="#9FDEF7" d="M200.97,429.933c0,2.458,2.007,4.462,4.462,4.462h51.433v1.253h-51.709
					c-3.158,0-5.714-2.557-5.714-5.715c0-1.579,0.627-3.009,1.681-4.037c1.027-1.027,2.455-1.678,4.034-1.678h51.709v1.253h-51.433
					C202.977,425.471,200.97,427.475,200.97,429.933z"/>
				<path fill="#9FDEF7" d="M257.836,436.619h-52.681c-3.688,0-6.687-2.999-6.687-6.687c0-1.81,0.702-3.49,1.975-4.732
					c1.257-1.258,2.933-1.954,4.712-1.954h52.681v3.196h-52.404c-1.924,0-3.491,1.566-3.491,3.49s1.567,3.49,3.491,3.49h52.404
					V436.619z"/>
			</g>
		</g>
		<g>
			<g>
				<path fill="#7686D3" d="M251.345,420.95h-50.38c-2.462,0-4.459-1.996-4.459-4.459l0,0c0-2.463,1.997-4.459,4.459-4.459h50.38
					V420.95z"/>
			</g>
			<g>
				<path fill="#FAB620" d="M196.506,416.493c0,2.458,2.004,4.463,4.461,4.463H252.4v1.252h-51.708
					c-3.159,0-5.715-2.556-5.715-5.715c0-1.579,0.625-3.009,1.678-4.036c1.027-1.027,2.458-1.678,4.037-1.678H252.4v1.253h-51.433
					C198.51,412.032,196.506,414.036,196.506,416.493z"/>
				<path fill="#FAB620" d="M253.372,423.183h-52.68c-3.688,0-6.687-3.002-6.687-6.691c0-1.807,0.701-3.49,1.972-4.728
					c1.258-1.258,2.936-1.96,4.715-1.96h52.68v3.197h-52.405c-1.924,0-3.49,1.567-3.49,3.49c0,1.926,1.566,3.493,3.49,3.493h52.405
					V423.183z"/>
			</g>
		</g>
	</g>
	<g>
		<g>
			<rect x="339.422" y="433.269" fill="#ACB7E2" width="117.132" height="3.335"/>
			<rect x="331.951" y="433.269" fill="#CCD5FF" width="117.135" height="3.335"/>
		</g>
		<g>
			<path fill="#96A5D6" d="M415.197,409.468l-10.331-115.399c-0.195-2.173-2.015-3.837-4.195-3.837H230.467
				c-0.936,0-1.794,0.306-2.49,0.817v-0.001l-4.254,3.369c-0.056,0.041-0.106,0.086-0.162,0.128l-0.053,0.044l0.005,0.001
				c-1.052,0.849-1.695,2.181-1.563,3.643l10.328,115.401c0.195,2.172,2.017,3.837,4.196,3.837h170.203
				c1.063,0,2.015-0.408,2.751-1.051l0,0l3.873-3.064C414.549,412.535,415.342,411.083,415.197,409.468z"/>
			<path fill="#BAC8F7" d="M406.676,417.471H236.473c-2.179,0-4.001-1.665-4.196-3.837l-10.328-115.401
				c-0.22-2.463,1.721-4.587,4.193-4.587h170.203c2.182,0,4.001,1.664,4.196,3.837l10.331,115.399
				C411.093,415.347,409.151,417.471,406.676,417.471z"/>
			<polygon fill="#8F9ECC" points="334.505,350.045 316.199,436.396 285.408,436.396 304.823,344.887 333.444,338.292 			"/>
			<polygon fill="#ACB7E2" points="312.686,436.404 281.916,436.404 302.676,338.302 333.449,338.302 			"/>
			<rect x="275.824" y="429.933" fill="#8F9ECC" width="65.368" height="6.671"/>
			<rect x="261.486" y="429.933" fill="#ACB7E2" width="65.368" height="6.671"/>
		</g>
	</g>
	<g>
		<g>
			<path fill="#FE9393" d="M610.975,617.214l4.928,16.511c0,0-5.049,6.217-13.766,4.794l-8.362-20.239"/>
			<path fill="#1D2C87" d="M615.902,633.725c0,0-7.778,4.731-13.766,4.794c0,0-5.52,7.585-7.79,11.501
				c-2.272,3.917-4.153,7.678-7.208,8.696c-3.056,1.017-7.598,2.037-8.147,4.699c-0.546,2.663,2.509,5.131,14.336,4.444
				c0,0,4.935,0.021,9.637-3.271c4.7-3.29,6.813-8.615,9.086-10.26c2.272-1.646,9.774-4.856,11.389-6.501
				C625.055,646.182,622.419,635.996,615.902,633.725z"/>
		</g>
		<g>
			<path fill="#FE9393" d="M645.719,633.171l-0.777,17.215c0,0-6.813,4.21-14.575,0l-1.243-21.866"/>
			<path fill="#252BA2" d="M644.941,650.386c0,0,2.786,2.799,3.406,6.985c0.62,4.188-0.542,7.677-0.542,8.607
				c0,0.932-3.718,1.775-8.835,1.854s-7.751-1.162-9.848-1.473c-2.093-0.313-11.085,1.326-15.506,1.475
				c-4.42,0.152-10.623-0.39-12.482-1.243c-1.863-0.853-2.25-7.056,7.132-7.83c5.424-0.447,11.482-3.748,16.032-5.973
				c3.323-1.62,6.067-2.402,6.067-2.402S642.158,651.53,644.941,650.386z"/>
		</g>
		<path fill="#252BA2" d="M657.31,401.304c0,0,6.979,7.911,7.408,26.012c0.431,18.102-8.851,63.713-11.622,72.154
			c-2.771,8.437-4.917,15.121-11.549,21.061c-6.633,5.938-22.651,0.446-25.188-9.847c-4.801-19.478-15.17-103.071-15.17-103.071
			S641.114,397.365,657.31,401.304z"/>
		<path fill="#252BA2" d="M633.041,440.912c-2.131,6.916-7.145,17.47-12.71,28.125c-5.213,9.926-10.902,19.929-15.264,27.124
			c-2.657,4.437-4.814,7.795-6.044,9.426c-5.337,7.119-9.499,12.757-17.671,16.268c-8.173,3.51-21.608-6.792-20.729-17.372
			c1.652-19.979,18.498-102.501,18.498-102.501s41.111,3.01,55.198,11.908C634.319,413.89,638.407,423.615,633.041,440.912z"/>
		<path fill="#172577" d="M620.331,469.037c-5.213,9.926-10.902,19.929-15.264,27.124c-1.354-26.923-1.782-72.045-1.782-72.045
			L620.331,469.037z"/>
		<path fill="#252BA2" d="M646.439,635.449c0,0-9.741,1.252-18.409,0.562c0,0-4.072-26.883-6.085-43.261
			c-1.826-14.896-18.724-164.789-18.66-172.465c0.066-7.676,31.502,45.551,56.258,49.861l-9.09,63.768c0,0-1.1,21.842-0.306,38.133
			C650.939,588.339,646.399,628.256,646.439,635.449z"/>
		<path fill="#FE9393" d="M562.819,314.686c0,0-6.788,20.151-10.417,34.051c-1.248,4.773-5.146,19.052-5.146,19.052
			s-7.391,10.637-10.653,17.089c-5.367,10.604-19.847,43.202-19.847,43.202l8.567,2.336c0,0,32.453-35.506,39.348-44.389
			c6.894-8.887,16.949-35.097,16.949-35.097"/>
		<g>
			<path fill="#FE9393" d="M541.051,257.163l0.032,0.019c3.855,0.558,6.98,2.421,9.408,4.706c4.769,4.362,6.97,10.117,6.97,10.117
				s-0.017,3.27,2.541,6.044c2.586,2.767,19.762-0.433,25.178-4.64c5.416-4.209,7.472-9.313,4.328-11.55
				c-3.142-2.237-14.912-5.982-18.59-10.086c-3.649-4.11-3.343-20.397-3.343-20.397l-9.545-0.152
				C558.03,231.223,529.669,255.497,541.051,257.163z"/>
			<path fill="#E15F60" d="M541.083,257.182c3.855,0.558,6.98,2.421,9.408,4.706c11.349-11.354,10.614-21.472,10.614-21.472
				l-18.554,13.046C542.552,253.461,541.849,255.052,541.083,257.182z"/>
			<path fill="#FE9393" d="M516.453,214.277c0,0,4.737,39.216,12.05,48.642c0,0,16.237,1.682,33.426-18.38
				c17.187-20.063-1.858-39.807-8.307-43.954C547.174,196.439,520.234,193.856,516.453,214.277z"/>
			<path fill="#FAB620" d="M581.613,258.06c0,0-5.815,13.184-23.689,16.379c0,0-3.209,13.611-2.416,29.972
				c0.795,16.361,7.197,34.45,10.877,47.505c2.673,9.477,7.196,37.729,9.873,49.51c0.836,3.671,2.781,3.649,2.781,3.649
				s48.417,16.092,80.979-2.209c0,0,3.884-2.344,1.406-6.772c-12.077-17.674-32.112-74.522-37.833-90.047
				C616.697,287.334,600.195,262.564,581.613,258.06z"/>
			<path fill="#252BA2" d="M574.51,226.592c-2.073,3.355-3.506,7.055-4.266,10.924c-0.397,2.039-1.098,3.69-2.317,3.495
				c-3.027-0.483-2.68-5.042-4.115-8.457c-1.433-3.414-2.926-2.375-5.024-4.974c-2.098-2.601-1.139-6.538-3.646-8.774
				c-2.509-2.234-6.222-0.974-5.915,2.494c0.306,3.465,1.468,8.221-0.089,7.629c-1.554-0.593-3.697-7.561-5.011-9.134
				c-1.313-1.574-3.364,0.686-6.849,1.856c-3.484,1.171-3.503-1.867-8.397-5.103c-4.892-3.237-7.216,2.083-11.693,3.169
				c-4.477,1.088-14.808-9.422-11.535-15.125c3.27-5.704,11.344-1.174,14.16-4.347c2.814-3.173-1.44-14.188,11.255-18.517
				c11.67-3.98,18.453,8.984,22.795,10.975c4.344,1.992,9.651-3.8,16.446,0.695c6.798,4.496,0.56,16.202,1.972,21.999
				c0.529,2.168,3.113,7.126,2.934,9.179C575.146,225.321,574.881,225.99,574.51,226.592z"/>
			<path fill="#F99C21" d="M601.932,302.681c0,0-2.199,17.738-26.519,41.037c0,0-2.921-1.784-8.391-7.195
				c-5.472-5.411,22.812-31.355,22.812-31.355"/>
			<g>
				<path fill="#FE9393" d="M594.67,301.494c0,0-37.543,49.703-48.313,54.94c-10.771,5.236-19.212-7.712-15.811-16.94
					c3.403-9.225,37.988-53.751,37.988-53.751"/>
				<path fill="#FE9393" d="M533.701,334.822c0,0-14.254,5.816-27.67,12.171c-13.42,6.352-38.272,13.789-38.272,13.789
					s-0.836,7.762,2.404,11.026c0,0,5.47-0.847,20.616-3.398c15.15-2.554,49.143-5.581,57.388-13.103"/>
			</g>
			<path fill="#FAB620" d="M590.481,276.357c0,0,8.575,0.809,11.868,15.842c3.292,15.034-11.463,30.591-28.205,45.834
				c0,0-19.13-12.895-28.08-25.891C546.064,312.143,567.916,271.595,590.481,276.357z"/>
		</g>
		<path fill="#252BA2" d="M564.654,477.504c0,0-6.187,36.933-5.979,41.903c0.509,12.09,36.453,106.484,36.453,106.484
			s11.438-2.037,18.174-6.108c0,0-9.334-42.038-10.652-56.561c-1.612-17.742-1.714-36.817-10.803-53.738"/>
		<path fill="#FE9393" d="M520.756,419.136c0,0-3.614,7.181-5.416,8.514c-1.803,1.331-7.78,3.602-8.878,4.229
			c-1.097,0.628-9.582,1.463-11.698,2.088c-2.113,0.628-0.914,2.637,3.551,2.637c4.467,0,14.402,0,18.442,0
			c4.042,0,6.973-0.331,8.036-1.748c2.193-2.926,2.626-6.74,4.162-8.426"/>
		<path fill="#FE9393" d="M467.759,360.781c0,0-4.748,0.855-11.857-0.99c-5.15-1.336-8.005,1.291-13.512,3.358
			c-5.51,2.066-10.709,3.519-10.762,4.39c-0.056,0.87-0.517,1.837,2.068,1.893c2.581,0.059,11.131-2.695,12.163-2.754
			c1.035-0.059,1.665,2.066,3.042,3.098c1.377,1.032,0.747,1.982,1.951,2.973c1.205,0.988,0.909,2.308,2.463,2.995
			c1.553,0.689,1.964,1.987,5.488,1.253c3.526-0.735,5.826-4.287,11.359-5.188"/>
	</g>
	<g>
		<rect x="466.431" y="406.955" fill="#FFFFFF" width="21.621" height="29.648"/>
		<rect x="482.334" y="406.955" fill="#EAEBF4" width="5.718" height="29.648"/>
		<g>
			<path fill="#EAEBF4" d="M487.899,433.036l-1.159-1.481c0.089-0.071,8.849-6.995,9.188-12.918c0.149-2.664-0.48-4.728-1.822-5.964
				c-0.946-0.872-2.242-1.283-3.468-1.122c-1.974,0.276-4.201,2.293-4.224,2.311l-1.268-1.385c0.108-0.101,2.675-2.43,5.23-2.786
				c1.78-0.251,3.647,0.35,5.002,1.6c1.236,1.135,2.659,3.354,2.425,7.456C497.419,425.517,488.287,432.729,487.899,433.036z"/>
		</g>
	</g>
	<g>
		<g>
			<path fill="#7EC9E0" d="M231.953,597.604c0,0-13.009-120.858,30.302-124.581c43.311-3.726-4.535,87.154-6.54,124.581"/>
			<g>
				<path fill="none" stroke="#FFFFFF" stroke-width="0.5653" stroke-linecap="round" stroke-miterlimit="10" d="M262.972,481.905
					c0,0-16.585,55.176-20.361,126.395"/>
				<path fill="none" stroke="#FFFFFF" stroke-width="0.5653" stroke-linecap="round" stroke-miterlimit="10" d="M248.083,484.969
					c0,0,4.171,8.272,9.749,16.836"/>
				<path fill="none" stroke="#FFFFFF" stroke-width="0.5653" stroke-linecap="round" stroke-miterlimit="10" d="M236.494,518.251
					c0,0,6.071,9.056,14.522,17.007"/>
				<path fill="none" stroke="#FFFFFF" stroke-width="0.5653" stroke-linecap="round" stroke-miterlimit="10" d="M232.92,549.317
					c0,0,4.791,4.721,14.054,12.225"/>
				<path fill="none" stroke="#FFFFFF" stroke-width="0.5653" stroke-linecap="round" stroke-miterlimit="10" d="M256.634,507.026
					c0,0,13.371-6.127,19.379-11.71"/>
				<path fill="none" stroke="#FFFFFF" stroke-width="0.5653" stroke-linecap="round" stroke-miterlimit="10" d="M250.224,539.88
					c0,0,10.577-1.934,16.752-6.09"/>
				<path fill="none" stroke="#FFFFFF" stroke-width="0.5653" stroke-linecap="round" stroke-miterlimit="10" d="M245.989,569.359
					c0,0,8.167-1.678,15.694-5.674"/>
				<path fill="none" stroke="#FFFFFF" stroke-width="0.5653" stroke-linecap="round" stroke-miterlimit="10" d="M239.948,549.338
					c0,0,3.708,4.187,7.699,7.269"/>
				<path fill="none" stroke="#FFFFFF" stroke-width="0.5653" stroke-linecap="round" stroke-miterlimit="10" d="M247.647,505.169
					c0,0,3.449,3.651,7.58,8.313"/>
				<path fill="none" stroke="#FFFFFF" stroke-width="0.5653" stroke-linecap="round" stroke-miterlimit="10" d="M245.557,573.085
					c0,0,6.188-1.387,10.159-3.204"/>
			</g>
		</g>
		<g>
			<path fill="#6ABBCE" d="M239.351,593.353c0,0,1.586-100.421-34.329-100.218c-35.918,0.201,10.306,71.365,14.778,102.01"/>
			<g>
				<path fill="none" stroke="#FFFFFF" stroke-width="0.4671" stroke-linecap="round" stroke-miterlimit="10" d="M205.101,500.496
					c0,0,17.81,44.146,26.291,102.458"/>
				<path fill="none" stroke="#FFFFFF" stroke-width="0.4671" stroke-linecap="round" stroke-miterlimit="10" d="M217.583,501.894
					c0,0-2.807,7.121-6.75,14.588"/>
				<path fill="none" stroke="#FFFFFF" stroke-width="0.4671" stroke-linecap="round" stroke-miterlimit="10" d="M229.629,528.401
					c0,0-4.313,7.909-10.667,15.092"/>
				<path fill="none" stroke="#FFFFFF" stroke-width="0.4671" stroke-linecap="round" stroke-miterlimit="10" d="M234.912,553.695
					c0,0-3.584,4.245-10.64,11.119"/>
				<path fill="none" stroke="#FFFFFF" stroke-width="0.4671" stroke-linecap="round" stroke-miterlimit="10" d="M212.21,520.688
					c0,0-11.462-4.035-16.826-8.176"/>
				<path fill="none" stroke="#FFFFFF" stroke-width="0.4671" stroke-linecap="round" stroke-miterlimit="10" d="M219.964,547.234
					c0,0-8.848-0.792-14.244-3.746"/>
				<path fill="none" stroke="#FFFFFF" stroke-width="0.4671" stroke-linecap="round" stroke-miterlimit="10" d="M225.671,571.172
					c0,0-6.846-0.764-13.34-3.485"/>
				<path fill="none" stroke="#FFFFFF" stroke-width="0.4671" stroke-linecap="round" stroke-miterlimit="10" d="M229.131,554.243
					c0,0-2.733,3.725-5.785,6.56"/>
				<path fill="none" stroke="#FFFFFF" stroke-width="0.4671" stroke-linecap="round" stroke-miterlimit="10" d="M219.466,518.481
					c0,0-2.564,3.264-5.611,7.41"/>
				<path fill="none" stroke="#FFFFFF" stroke-width="0.4671" stroke-linecap="round" stroke-miterlimit="10" d="M226.31,574.204
					c0,0-5.196-0.676-8.6-1.871"/>
			</g>
		</g>
		<g>
			<path fill="#9FDEF7" d="M224.474,598.69c0,0-21.186,4.136-29.191-23.138c-7.661-26.109-24.714-17.364-30.039-39.495
				c-4.252-17.667,29.73-14.043,51.587,25.064c5.398,9.66,18.767,6.337,15.785,31.868"/>
			<path fill="none" stroke="#FFFFFF" stroke-width="0.5069" stroke-linecap="round" stroke-miterlimit="10" d="M170.655,532.517
				c0,0,36.875,14.789,56.249,72.974"/>
			<path fill="none" stroke="#FFFFFF" stroke-width="0.5069" stroke-linecap="round" stroke-miterlimit="10" d="M171.665,542.271
				c0,0,7.952-1.671,13.604-0.514"/>
			<path fill="none" stroke="#FFFFFF" stroke-width="0.5069" stroke-linecap="round" stroke-miterlimit="10" d="M186.86,531.968
				c0,0,0.517,8.625,2.536,13.277"/>
			<path fill="none" stroke="#FFFFFF" stroke-width="0.5069" stroke-linecap="round" stroke-miterlimit="10" d="M185.334,554.333
				c0,0,9.691-1.95,13.363,0.294"/>
			<path fill="none" stroke="#FFFFFF" stroke-width="0.5069" stroke-linecap="round" stroke-miterlimit="10" d="M203.03,545.827
				c0,0-1.943,8.494-1.3,12.382"/>
			<path fill="none" stroke="#FFFFFF" stroke-width="0.5069" stroke-linecap="round" stroke-miterlimit="10" d="M199.244,572.247
				c0,0,10.007-1.275,12.73,0.537"/>
			<path fill="none" stroke="#FFFFFF" stroke-width="0.5069" stroke-linecap="round" stroke-miterlimit="10" d="M219.989,568.696
				c0,0-3.434,7.596-3.862,11.404"/>
			<path fill="none" stroke="#FFFFFF" stroke-width="0.5069" stroke-linecap="round" stroke-miterlimit="10" d="M201.562,568.605
				c0,0,4.128-1.068,7.679-0.14"/>
			<path fill="none" stroke="#FFFFFF" stroke-width="0.5069" stroke-linecap="round" stroke-miterlimit="10" d="M190.919,539.449
				c0,0,0.292,4.449,1.516,8.615"/>
		</g>
		<g>
			<path fill="#9FDEF7" d="M263.192,598.971c0,0,23.851-3.277,22.461-34.949c-1.333-30.316,19.82-27.239,17.456-52.516
				c-1.888-20.179-36.444-4.095-45.401,45.063c-2.212,12.141-17.519,13.454-5.163,39.325"/>
			<path fill="none" stroke="#FFFFFF" stroke-width="0.5653" stroke-linecap="round" stroke-miterlimit="10" d="M296.119,509.724
				c0,0-33.58,28.905-33.036,97.301"/>
			<path fill="none" stroke="#FFFFFF" stroke-width="0.5653" stroke-linecap="round" stroke-miterlimit="10" d="M298.574,520.379
				c0,0-8.998,1.106-14.541,4.366"/>
			<path fill="none" stroke="#FFFFFF" stroke-width="0.5653" stroke-linecap="round" stroke-miterlimit="10" d="M278.817,514.988
				c0,0,2.572,9.288,2.113,14.928"/>
			<path fill="none" stroke="#FFFFFF" stroke-width="0.5653" stroke-linecap="round" stroke-miterlimit="10" d="M288.496,538.04
				c0,0-10.928,1.438-13.996,5.13"/>
			<path fill="none" stroke="#FFFFFF" stroke-width="0.5653" stroke-linecap="round" stroke-miterlimit="10" d="M266.755,535.448
				c0,0,5.118,8.263,5.839,12.596"/>
			<path fill="none" stroke="#FFFFFF" stroke-width="0.5653" stroke-linecap="round" stroke-miterlimit="10" d="M280.281,561.965
				c0,0-11.02,2.263-13.239,5.157"/>
			<path fill="none" stroke="#FFFFFF" stroke-width="0.5653" stroke-linecap="round" stroke-miterlimit="10" d="M257.107,565.7
				c0,0,6.363,6.774,8.19,10.642"/>
			<path fill="none" stroke="#FFFFFF" stroke-width="0.5653" stroke-linecap="round" stroke-miterlimit="10" d="M276.522,558.957
				c0,0-4.743,0.363-8.154,2.623"/>
			<path fill="none" stroke="#FFFFFF" stroke-width="0.5653" stroke-linecap="round" stroke-miterlimit="10" d="M277.236,524.348
				c0,0,1.298,4.801,1.508,9.637"/>
		</g>
		<g>
			<polygon fill="#E6EDFF" points="237.883,601.054 201.863,601.054 212.923,668.028 237.883,668.028 262.845,668.028 
				273.905,601.054 			"/>
			<rect x="198.363" y="592.079" fill="#E6EDFF" width="79.042" height="8.975"/>
			<polygon fill="#D1DBF2" points="201.863,601.054 202.714,606.212 271.731,614.217 273.905,601.054 			"/>
		</g>
	</g>
</g>
</svg>
