<?xml version="1.0" encoding="UTF-8"?>
<!DOCTYPE svg PUBLIC "-//W3C//DTD SVG 1.1//EN" "http://www.w3.org/Graphics/SVG/1.1/DTD/svg11.dtd">
<!-- Creator: CorelDRAW X6 -->
<svg xmlns="http://www.w3.org/2000/svg" xml:space="preserve" width="1.5625in" height="0.427079in" version="1.1" style="shape-rendering:geometricPrecision; text-rendering:geometricPrecision; image-rendering:optimizeQuality; fill-rule:evenodd; clip-rule:evenodd"
viewBox="0 0 1562 427"
 xmlns:xlink="http://www.w3.org/1999/xlink">
 <defs>
  <style type="text/css">
   <![CDATA[
    .str1 {stroke:#33475B;stroke-width:3}
    .str0 {stroke:#FF7A59;stroke-width:3}
    .fil0 {fill:#FF7A59}
    .fil2 {fill:#33475B;fill-rule:nonzero}
    .fil1 {fill:#FF7A59;fill-rule:nonzero}
   ]]>
  </style>
 </defs>
 <g id="Layer_x0020_1">
  <metadata id="CorelCorpID_0Corel-Layer"/>
  <path class="fil0" d="M196 67c-2,15 -4,29 -4,32 0,12 -10,21 -21,21 -12,0 -21,-10 -21,-21 2,-9 4,-21 8,-31 -57,12 -100,62 -100,122 0,69 56,124 124,124 69,0 124,-56 124,-124 0,-63 -48,-116 -109,-123l0 0zm15 30c40,13 67,50 67,93 0,54 -44,97 -97,97 -54,0 -97,-44 -97,-97 0,-36 20,-68 49,-85 0,21 17,38 39,38 21,0 38,-17 39,-38 0,-1 0,-5 1,-9z"/>
  <path class="fil0" d="M35 150c0,0 -2,-26 30,-67 33,-41 40,-8 66,-25 0,0 -90,61 -96,92z"/>
  <path class="fil0" d="M82 24c-21,13 -29,44 -29,66 3,-5 7,-10 11,-15 31,-40 39,-8 64,-24 0,0 0,0 0,0 4,-4 7,-10 4,-16 0,0 -13,-33 -50,-11z"/>
  <path class="fil0" d="M160 95c0,0 1,8 7,9 6,1 10,-1 12,-6 2,-4 -1,-18 -1,-46 0,-30 15,-31 15,-31 0,0 -13,-6 -11,-20 0,0 -12,24 -14,41 0,0 -13,-10 -31,-10 0,0 2,7 0,9 0,0 20,-2 29,11 0,0 8,21 -7,42z"/>
  <path class="fil1 str0" d="M880 239c5,-1 9,-2 13,-4l1 -1 0 1 4 19 0 1 -1 0c-5,2 -11,4 -19,6 -6,1 -14,2 -22,2 -19,0 -34,-6 -44,-17 -11,-11 -16,-28 -16,-47 0,-19 6,-37 16,-49 10,-12 24,-19 41,-19 17,0 29,6 37,16 10,12 14,28 14,45 0,2 0,4 0,6 0,2 0,4 -1,5l0 1 -1 0 -78 0c1,12 4,21 10,26 7,7 16,10 27,10 7,0 13,-1 18,-2zm-45 -79c-5,6 -8,15 -9,23l52 0c0,-7 -2,-15 -5,-21 -4,-6 -10,-10 -19,-10l0 0 0 0c-8,0 -14,3 -18,8z"/>
  <path class="fil1 str0" d="M748 148l1 -13 0 -1 1 0 23 0 1 0 0 1c0,4 -1,9 -1,15 0,6 0,13 0,21l0 71c0,13 -1,31 -9,45 -8,15 -24,27 -54,27 -8,0 -15,-1 -22,-2 -7,-2 -13,-4 -18,-7l-1 0 0 -1 6 -20 0 -2 1 1c4,2 10,5 16,6 5,1 11,2 17,2 10,0 19,-3 25,-10 5,-6 9,-16 9,-29l0 -9c-3,5 -8,8 -13,11 -6,3 -13,5 -21,5 -15,0 -28,-7 -37,-18 -9,-11 -14,-27 -14,-45 0,-20 6,-36 15,-48l0 0c10,-13 24,-19 39,-19 9,0 16,2 21,5 6,3 10,8 13,12zm-10 81c4,-5 7,-12 7,-22l0 -25c0,-8 -3,-16 -7,-21 -4,-5 -11,-8 -18,-8 -9,0 -16,4 -21,12 -5,7 -8,18 -8,31 0,12 3,23 8,30 5,7 12,11 21,11 7,0 14,-3 19,-9z"/>
  <path class="fil1 str0" d="M489 144c9,10 12,24 12,39l0 47c0,5 0,11 0,16 0,5 1,10 1,14l0 1 -1 0 -24 0 -1 0 0 -1 -2 -12c-4,5 -8,9 -14,11 -6,3 -13,5 -20,5 -12,0 -21,-4 -27,-10 -7,-7 -11,-17 -11,-27 0,-16 7,-27 19,-35 12,-8 30,-12 51,-12 0,-4 0,-11 -3,-16 -3,-5 -9,-10 -21,-10 -5,0 -11,1 -16,2 -5,1 -10,4 -14,6l-1 1 0 -2 -5 -17 0 -1 1 -1c5,-3 11,-6 19,-8 7,-2 14,-3 22,-3 17,0 28,5 36,13zm-23 91c4,-4 7,-10 7,-17l0 -19c-10,0 -20,1 -28,5 -8,4 -14,10 -14,20 0,6 2,11 5,14 3,3 8,5 13,5 7,0 13,-3 18,-7z"/>
  <path class="fil1 str0" d="M627 145c7,8 11,21 11,38l0 77 0 1 -1 0 -26 0 -1 0 0 -1 0 -73c0,-9 -2,-18 -6,-24 -4,-5 -9,-8 -17,-8 -7,0 -13,3 -18,9 -4,5 -7,12 -7,21l0 75 0 1 -1 0 -26 0 -1 0 0 -1 0 -90c0,-14 0,-24 -1,-35l0 0 0 0 0 -1 1 0 23 0 1 0 0 1 1 16c3,-5 8,-10 15,-14 6,-4 14,-6 23,-6 11,0 23,4 31,14z"/>
  <path class="fil1 str0" d="M389 131c1,0 2,0 3,1l1 0 0 1 0 25 0 1 -1 0c-1,0 -2,0 -3,0 -1,0 -3,0 -4,0 -8,0 -15,3 -20,9 -5,6 -8,15 -8,26l0 66 0 1 -1 0 -26 0 -1 0 0 -1 0 -87c0,-7 0,-14 0,-20 0,-6 0,-12 -1,-18l0 -1 1 0 23 0 1 0 0 1 1 19c3,-7 7,-12 12,-16 6,-5 13,-7 20,-7 1,0 2,0 4,0z"/>
  <path class="fil2 str1" d="M1517 145c6,8 10,21 10,39l0 76 0 1 -1 0 -26 0 -1 0 0 -1 0 -72c0,-11 -2,-19 -6,-25 -3,-5 -9,-8 -16,-8 -6,0 -12,3 -16,8 -4,5 -7,11 -7,20l0 77 0 1 -1 0 -26 0 -1 0 0 -1 0 -75c0,-9 -2,-17 -6,-22 -3,-5 -8,-8 -15,-8 -6,0 -13,3 -17,9 -4,5 -7,12 -7,21l0 76 0 1 -1 0 -26 0 -1 0 0 -1 0 -90c0,-14 0,-24 -1,-34l0 -1 0 -1 1 0 23 0 1 0 0 1 1 16c3,-5 8,-10 15,-14 6,-3 13,-6 22,-6 8,0 15,2 21,6 5,4 10,9 13,16 4,-6 9,-12 15,-15 7,-4 14,-6 24,-6 11,0 22,4 30,15l0 0z"/>
  <path class="fil2 str1" d="M1295 134l26 0 1 0 0 1 0 89c0,12 0,22 1,31l0 5 0 1 -1 0 -23 0 -1 0 0 -1 -1 -15c-3,5 -8,10 -15,14 -6,3 -13,6 -22,6 -12,0 -23,-4 -31,-14 -7,-9 -11,-22 -11,-40l0 -74 0 -1 1 0 26 0 1 0 0 1 0 70c0,11 1,19 5,25 3,6 9,9 17,9 6,0 13,-3 18,-8 4,-4 7,-11 7,-19l0 -77 0 -1 1 0z"/>
  <path class="fil2 str1" d="M1196 131c1,0 2,0 3,1l1 0 0 1 0 25 0 1 -1 0c-1,0 -2,0 -3,0 -1,0 -3,0 -4,0 -8,0 -15,3 -20,9 -5,6 -8,15 -8,26l0 66 0 1 -1 0 -26 0 -1 0 0 -1 0 -87c0,-7 0,-14 0,-20 0,-6 0,-12 -1,-18l0 -1 1 0 23 0 1 0 0 1 1 19c3,-7 7,-12 12,-16 6,-5 13,-7 20,-7 1,0 2,0 4,0z"/>
  <path class="fil2 str1" d="M1098 238c4,-1 7,-2 10,-3l1 -1 0 1 4 20 0 1 -1 0c-3,2 -9,3 -16,5 -5,1 -11,2 -17,2 -18,0 -34,-6 -44,-18 -11,-11 -17,-27 -17,-47 0,-20 7,-37 18,-49 11,-12 28,-19 48,-19 5,0 11,1 15,2l0 0c6,1 10,3 13,4l1 0 0 1 -5 20 0 1 -1 -1c-2,-1 -5,-2 -9,-3 -4,-1 -8,-2 -13,-2 -11,0 -20,4 -27,12 -7,8 -10,19 -10,32 0,13 4,24 10,31 7,8 16,12 27,12 5,0 9,-1 13,-2z"/>
  <path class="fil2 str1" d="M984 133c6,1 11,3 14,6l1 0 0 1 -6 19 0 2 -1 -1c-3,-2 -7,-4 -11,-5 -4,-1 -8,-2 -12,-2 -5,0 -10,1 -12,4 -3,3 -5,6 -5,10 0,4 1,7 4,10l0 0c3,3 8,6 16,9l0 0c11,4 19,9 24,16 6,6 8,14 8,23 0,12 -5,22 -13,29 -8,7 -20,11 -35,11 -7,0 -13,-1 -19,-2 -6,-2 -12,-4 -16,-6l-1 0 0 -1 6 -20 0 -2 1 1c3,2 8,4 14,6 4,1 9,2 14,2 6,0 11,-1 15,-4 3,-3 5,-7 5,-11 0,-4 -1,-8 -4,-11 -3,-3 -8,-6 -15,-9l0 0c-11,-4 -19,-10 -24,-16l0 0c-6,-6 -8,-14 -8,-21 0,-11 5,-21 13,-28 8,-7 19,-11 32,-11 6,0 11,1 16,2z"/>
  <path class="fil2" d="M142 405l6 -18 11 0 2 -7 -11 0 6 -18 11 0 2 -7 -10 0 6 -18 -8 0 -6 18 -10 0 6 -18 -8 0 -6 18 -11 0 -2 7 10 0 -6 18 -10 0 -2 7 10 0 -6 18 8 0 6 -18 10 0 -6 18 8 0zm0 -25l-10 0 6 -18 10 0 -6 18zm87 25l0 -68 -10 0 -20 20 7 7 11 -12 0 53 12 0zm69 0l0 -58 21 0 0 -11 -53 0 0 11 21 0 0 58 12 0zm63 0l0 -33c0,-13 -10,-18 -21,-18 -8,0 -15,3 -21,8l4 7c4,-4 9,-6 15,-6 7,0 12,3 12,9l0 7c-4,-4 -9,-6 -16,-6 -8,0 -17,5 -17,16 0,11 9,16 17,16 7,0 12,-2 16,-7l0 5 11 0zm-22 -6c-6,0 -11,-3 -11,-9 0,-5 4,-9 11,-9 5,0 9,2 12,5l0 7c-2,3 -7,5 -12,5zm53 7c13,0 21,-7 21,-15 0,-20 -30,-13 -30,-22 0,-3 4,-6 9,-6 6,0 12,3 15,6l4 -8c-4,-4 -11,-7 -19,-7 -12,0 -19,7 -19,15 0,19 30,12 30,22 0,4 -3,7 -10,7 -6,0 -13,-3 -17,-7l-5 8c5,5 13,8 21,8zm78 -1l-21 -27 21 -22 -13 0 -22 24 0 -43 -11 0 0 68 11 0 0 -13 7 -7 15 20 13 0zm105 0l0 -68 -17 0 -19 45 -18 -45 -17 0 0 68 12 0 0 -51 21 51 5 0 21 -51 0 51 12 0zm55 0l0 -33c0,-13 -10,-18 -21,-18 -8,0 -15,3 -21,8l4 7c4,-4 9,-6 15,-6 7,0 12,3 12,9l0 7c-4,-4 -9,-6 -16,-6 -8,0 -17,5 -17,16 0,11 9,16 17,16 7,0 12,-2 16,-7l0 5 11 0zm-22 -6c-6,0 -11,-3 -11,-9 0,-5 4,-9 11,-9 5,0 9,2 12,5l0 7c-2,3 -7,5 -12,5zm80 6l0 -35c0,-10 -5,-16 -16,-16 -8,0 -14,4 -17,8l0 -7 -11 0 0 49 11 0 0 -34c2,-3 7,-7 13,-7 6,0 10,3 10,10l0 31 11 0zm55 0l0 -33c0,-13 -10,-18 -21,-18 -8,0 -15,3 -21,8l4 7c4,-4 9,-6 15,-6 7,0 12,3 12,9l0 7c-4,-4 -9,-6 -16,-6 -8,0 -17,5 -17,16 0,11 9,16 17,16 7,0 12,-2 16,-7l0 5 11 0zm-22 -6c-6,0 -11,-3 -11,-9 0,-5 4,-9 11,-9 5,0 9,2 12,5l0 7c-2,3 -7,5 -12,5zm56 26c12,0 25,-5 25,-23l0 -47 -11 0 0 7c-4,-5 -10,-8 -16,-8 -13,0 -22,9 -22,25 0,16 9,25 22,25 6,0 12,-3 16,-8l0 6c0,10 -8,13 -15,13 -7,0 -12,-2 -16,-6l-5 8c6,6 12,7 21,7zm2 -30c-8,0 -14,-6 -14,-16 0,-9 5,-16 14,-16 5,0 10,3 13,7l0 18c-2,4 -8,7 -13,7zm60 11c8,0 15,-2 20,-7l-5 -7c-3,3 -9,5 -14,5 -9,0 -15,-6 -16,-14l38 0 0 -3c0,-16 -10,-27 -24,-27 -15,0 -25,12 -25,26 0,16 11,26 26,26zm13 -30l-28 0c1,-6 5,-13 14,-13 10,0 14,7 14,13zm92 29l0 -36c0,-10 -5,-15 -14,-15 -7,0 -14,5 -17,9 -2,-5 -6,-9 -13,-9 -7,0 -14,5 -16,8l0 -7 -11 0 0 49 11 0 0 -34c2,-3 7,-7 11,-7 6,0 8,4 8,9l0 32 11 0 0 -35c2,-3 7,-7 11,-7 6,0 8,4 8,9l0 32 11 0zm37 1c8,0 15,-2 20,-7l-5 -7c-3,3 -9,5 -14,5 -9,0 -15,-6 -16,-14l38 0 0 -3c0,-16 -10,-27 -24,-27 -15,0 -25,12 -25,26 0,16 11,26 26,26zm13 -30l-28 0c1,-6 5,-13 14,-13 10,0 14,7 14,13zm65 29l0 -35c0,-10 -5,-16 -16,-16 -8,0 -14,4 -17,8l0 -7 -11 0 0 49 11 0 0 -34c2,-3 7,-7 13,-7 6,0 10,3 10,10l0 31 11 0zm29 1c5,0 8,-1 10,-3l-3 -8c-1,1 -3,2 -5,2 -3,0 -5,-2 -5,-6l0 -26 10 0 0 -9 -10 0 0 -13 -11 0 0 13 -8 0 0 9 8 0 0 29c0,8 4,13 13,13zm68 0c18,0 26,-10 26,-21 0,-25 -40,-18 -40,-30 0,-5 4,-8 12,-8 7,0 14,2 20,8l7 -9c-6,-6 -15,-10 -26,-10 -15,0 -25,9 -25,20 0,25 40,16 40,31 0,4 -4,9 -14,9 -10,0 -17,-4 -22,-9l-7 9c6,6 15,11 28,11zm59 0c16,0 25,-12 25,-26 0,-14 -10,-26 -25,-26 -16,0 -25,12 -25,26 0,14 10,26 25,26zm0 -10c-9,0 -14,-8 -14,-16 0,-9 5,-16 14,-16 9,0 14,8 14,16 0,9 -5,16 -14,16zm50 8l0 -40 10 0 0 -9 -10 0 0 -3c0,-6 3,-8 7,-8 2,0 4,1 6,2l4 -7c-3,-3 -7,-4 -12,-4 -9,0 -16,6 -16,17l0 3 -8 0 0 9 8 0 0 40 11 0zm33 1c5,0 8,-1 10,-3l-3 -8c-1,1 -3,2 -5,2 -3,0 -5,-2 -5,-6l0 -26 10 0 0 -9 -10 0 0 -13 -11 0 0 13 -8 0 0 9 8 0 0 29c0,8 4,13 13,13zm72 -1l15 -49 -11 0 -10 36 -12 -36 -9 0 -12 36 -10 -36 -11 0 15 49 11 0 11 -36 11 36 11 0zm64 0l0 -33c0,-13 -10,-18 -21,-18 -8,0 -15,3 -21,8l4 7c4,-4 9,-6 15,-6 7,0 12,3 12,9l0 7c-4,-4 -9,-6 -16,-6 -8,0 -17,5 -17,16 0,11 9,16 17,16 7,0 12,-2 16,-7l0 5 11 0zm-22 -6c-6,0 -11,-3 -11,-9 0,-5 4,-9 11,-9 5,0 9,2 12,5l0 7c-2,3 -7,5 -12,5zm47 6l0 -34c2,-3 8,-7 13,-7 1,0 2,0 3,0l0 -11c-6,0 -12,4 -16,8l0 -7 -11 0 0 49 11 0zm48 1c8,0 15,-2 20,-7l-5 -7c-3,3 -9,5 -14,5 -9,0 -15,-6 -16,-14l38 0 0 -3c0,-16 -10,-27 -24,-27 -15,0 -25,12 -25,26 0,16 11,26 26,26zm13 -30l-28 0c1,-6 5,-13 14,-13 10,0 14,7 14,13z"/>
  <path class="fil0" d="M187 3c0,0 -3,2 2,11 2,4 8,8 9,3 1,-5 -7,-17 -11,-14z"/>
 </g>
</svg>
