<svg xmlns="http://www.w3.org/2000/svg" width="115.25" height="125.198" viewBox="0 0 115.25 125.198">
  <g id="Group_9" data-name="Group 9" transform="translate(-339.073 -267.934)">
    <g id="Group_6" data-name="Group 6" transform="translate(0 -12.422)">
      <g id="Group_2" data-name="Group 2" transform="translate(339.573 280.356)">
        <g id="Group_1" data-name="Group 1" transform="translate(0)">
          <path id="Path_18" data-name="Path 18" d="M505.434,178.791l-5.226.125-.125-5.226a1.743,1.743,0,0,0-3.484.084l.125,5.226-5.226.125a1.742,1.742,0,0,0,.084,3.484l5.226-.125.125,5.226a1.743,1.743,0,1,0,3.484-.084l-.125-5.226,5.226-.125a1.742,1.742,0,0,0-.084-3.484Z" transform="translate(-441.133 -118.351)" fill="#fff"/>
          <path id="Path_22" data-name="Path 22" d="M508.577,292.259H446.54a4.756,4.756,0,0,0-4.75,4.75v31.085h9.548a4.1,4.1,0,0,1,3.492,1.931l3.309,5.268,3.164,5.033.594.946,3.62,5.758.041.066h47.768V297.009a4.756,4.756,0,0,0-4.75-4.75Z" transform="translate(-430.546 -292.259)" fill="#ccc"/>
          <path id="Path_23" data-name="Path 23" d="M499.877,319.769H469.137a3.073,3.073,0,1,0,0,6.145h30.739a3.073,3.073,0,1,0,0-6.145Z" transform="translate(-446.436 -310.266)" fill="#fff"/>
          <path id="Path_24" data-name="Path 24" d="M516.92,363.449H469.414a3.354,3.354,0,1,0,0,6.708H516.92a3.354,3.354,0,0,0,0-6.708Z" transform="translate(-446.433 -338.858)" fill="#fff"/>
          <path id="Path_25" data-name="Path 25" d="M525.9,399.36a3.352,3.352,0,0,0-3.033-1.931H475.364c-.073,0-.142,0-.214.007a4.115,4.115,0,0,1,1.516,1.43l3.309,5.268H522.87a3.35,3.35,0,0,0,3.033-4.774Z" transform="translate(-452.383 -361.101)" fill="#fff"/>
          <path id="Path_26" data-name="Path 26" d="M541.33,434.31a3.354,3.354,0,0,0-3.32-2.9H498.28l.594.946,3.62,5.758H538.01a3.316,3.316,0,0,0,1.945-.625,3.35,3.35,0,0,0,1.406-2.729,3.213,3.213,0,0,0-.031-.449Z" transform="translate(-467.524 -383.343)" fill="#fff"/>
          <path id="Path_27" data-name="Path 27" d="M580.377,326.4l-4.836-1.889L551.43,315.1l-28.846-11.257a4.758,4.758,0,0,0-6.152,2.7l-1.009,2.587-2.4,6.145-3.489,8.943-2.618,6.708-1.962,5.029-2.618,6.7L500.37,347.7l-.055.145-.314.8,3.62,5.758.041.066h67.05A4.116,4.116,0,0,1,573.921,356l.283-.718,3.461-8.864,5.409-13.862A4.759,4.759,0,0,0,580.377,326.4Z" transform="translate(-468.649 -299.632)" fill="#b1b1b1"/>
          <path id="Path_28" data-name="Path 28" d="M594.162,347.928l-2.584-1.009-26.052-10.166a3.074,3.074,0,1,0-2.235,5.727l8.6,3.357,10.643,4.152,9.04,3.53.349.135a3.074,3.074,0,1,0,2.235-5.727Z" transform="translate(-508.798 -321.247)" fill="#fff"/>
          <path id="Path_29" data-name="Path 29" d="M593.927,394.974l-12.974-5.064-9.261-3.613-4.947-1.931-12.884-5.029-4.186-1.634a3.354,3.354,0,0,0-4.224,1.634c-.041.086-.083.176-.117.269a3.352,3.352,0,0,0,1.9,4.342l1.071.418,17.174,6.7,15.472,6.038,10.535,4.114a3.354,3.354,0,1,0,2.439-6.249Z" transform="translate(-498.172 -348.038)" fill="#fff"/>
          <path id="Path_30" data-name="Path 30" d="M572.864,423.226l-.833-.325-8.142-3.178-7.437-2.9-12.9-5.033-6.238-2.435a3.353,3.353,0,0,0-2.435,6.249L538,416.822l15.578,6.079,1.6.625.166.066H573.8Z" transform="translate(-490.083 -368.756)" fill="#fff"/>
          <path id="Path_31" data-name="Path 31" d="M533.266,444.242l-1.6-.625-6.7-2.615a3.349,3.349,0,0,0-4.532,2.615,3.191,3.191,0,0,0-.038.625.394.394,0,0,0,0,.066h13.036Z" transform="translate(-481.998 -389.472)" fill="#fff"/>
          <path id="Path_32" data-name="Path 32" d="M474.342,413.626l-1.6-.625H447.675a3.176,3.176,0,0,0-.038.625H444.21l.042.066h30.256Zm0,0H444.211l.041.066h30.256Zm0,0H444.211l.041.066h30.256Zm.166.066-.166-.066H444.211l.041.066Zm-60.452,69.171a4.131,4.131,0,0,1-4.124-4.124v-79.92a4.131,4.131,0,0,1,4.124-4.128h6.428V394h-6.428a4.824,4.824,0,0,0-4.815,4.819v79.92a4.819,4.819,0,0,0,2.822,4.38h60.856c-.055-.083-.11-.169-.166-.256Zm100.739-68.356A4.794,4.794,0,0,0,511.3,413H444.636l-3.73-5.934-.09-.145-3.164-5.033-3.544-5.637A4.828,4.828,0,0,0,430.031,394H414.055a4.824,4.824,0,0,0-4.815,4.819v79.92a4.819,4.819,0,0,0,2.822,4.38,4.749,4.749,0,0,0,1.993.435H511.3a4.766,4.766,0,0,0,2-.435,4.819,4.819,0,0,0,2.822-4.38V417.819a4.79,4.79,0,0,0-1.327-3.313Zm.636,64.231a4.131,4.131,0,0,1-4.128,4.124H414.055a4.131,4.131,0,0,1-4.124-4.124v-79.92a4.131,4.131,0,0,1,4.124-4.128h15.976a4.1,4.1,0,0,1,3.492,1.931l3.309,5.268L440,406.921l.594.946,3.62,5.758.041.066H511.3a4.131,4.131,0,0,1,4.128,4.128Zm-41.088-65.112H444.211l.041.066h30.256Zm0,0H444.211l.041.066h30.256Zm0,0H444.211l.041.066h30.256Zm0,0-1.6-.625h-28.1l-3.73-5.934-.314.8,3.62,5.758.041.066h30.256Z" transform="translate(-409.24 -358.856)" fill="none" stroke="#cecece" stroke-width="1"/>
        </g>
        <path id="Path_45" data-name="Path 45" d="M467.828,173.891a.8.8,0,0,1-.263-.042.512.512,0,0,1-.387-.458l-.319-33.9a.583.583,0,0,1,.635-.509l26.114-.2a.589.589,0,0,1,.648.5l.319,33.9a.512.512,0,0,1-.376.464.782.782,0,0,1-.692-.082h0l-12.594-8.78a.257.257,0,0,0-.287,0l-12.372,8.973A.736.736,0,0,1,467.828,173.891Z" transform="translate(-427.313 -68.656)" fill="#6c63ff"/>
        <path id="Path_46" data-name="Path 46" d="M498.619,175.827l-2.948.071-.071-2.948a.983.983,0,0,0-1.966.047l.071,2.948-2.948.071a.983.983,0,1,0,.047,1.966l2.948-.071.071,2.948a.983.983,0,0,0,1.966-.047l-.071-2.948,2.948-.071a.983.983,0,0,0-.047-1.966Z" transform="translate(-441.308 -93.202)" fill="#fff"/>
      </g>
    </g>
  </g>
</svg>
