<svg xmlns="http://www.w3.org/2000/svg" width="989" height="371" viewBox="0 0 989 371">
  <g id="Group_4" data-name="Group 4" transform="translate(-305.5 -314.5)">
    <g id="Group_3" data-name="Group 3" transform="translate(37.5 -37.5)">
      <rect id="Rectangle_3" data-name="Rectangle 3" width="988" height="370" transform="translate(268.5 352.5)" fill="#fff" stroke="#e8e7e7" stroke-width="1"/>
      <g id="Group_1" data-name="Group 1" transform="translate(253 337)" opacity="0.65">
        <path id="Path_1" data-name="Path 1" d="M117,124H954.5" fill="none" stroke="#e5e5e5" stroke-width="1"/>
        <path id="Path_2" data-name="Path 2" d="M117,158.4H954.5" fill="none" stroke="#e5e5e5" stroke-width="1"/>
        <path id="Path_3" data-name="Path 3" d="M117,192.8H954.5" fill="none" stroke="#e5e5e5" stroke-width="1"/>
        <path id="Path_4" data-name="Path 4" d="M117,227.2H954.5" fill="none" stroke="#e5e5e5" stroke-width="1"/>
        <path id="Path_5" data-name="Path 5" d="M117,261.6H954.5" fill="none" stroke="#e5e5e5" stroke-width="1"/>
        <path id="Path_6" data-name="Path 6" d="M117,296H954.5" fill="none" stroke="#e5e5e5" stroke-width="1"/>
      </g>
      <path id="Path_7" data-name="Path 7" d="M417.99,356v-8.531h2.789a3.224,3.224,0,0,1,2.086.574,2.064,2.064,0,0,1,.7,1.7,1.75,1.75,0,0,1-.339,1.061,2.226,2.226,0,0,1-.926.709,1.962,1.962,0,0,1,1.09.738,2.09,2.09,0,0,1,.4,1.289,2.283,2.283,0,0,1-.744,1.8,3.081,3.081,0,0,1-2.1.656Zm1.125-3.99v3.07h1.858a1.788,1.788,0,0,0,1.236-.4,1.435,1.435,0,0,0,.457-1.125q0-1.542-1.676-1.541Zm0-.9h1.7a1.772,1.772,0,0,0,1.178-.369,1.233,1.233,0,0,0,.446-1,1.206,1.206,0,0,0-.411-1.019,2,2,0,0,0-1.248-.322h-1.664Zm10.1,4.266a2.3,2.3,0,0,1-1.857.744,1.984,1.984,0,0,1-1.547-.586,2.566,2.566,0,0,1-.534-1.746V349.66h1.084v4.1q0,1.441,1.172,1.441a1.623,1.623,0,0,0,1.653-.926V349.66h1.084V356h-1.032Zm2.443-2.6a3.7,3.7,0,0,1,.692-2.343,2.349,2.349,0,0,1,3.574-.129V347H437v9h-1l-.053-.68a2.205,2.205,0,0,1-1.81.8,2.174,2.174,0,0,1-1.8-.9,3.769,3.769,0,0,1-.692-2.356Zm1.084.123a2.812,2.812,0,0,0,.446,1.688,1.439,1.439,0,0,0,1.23.609,1.58,1.58,0,0,0,1.506-.926v-2.912a1.594,1.594,0,0,0-1.494-.9,1.446,1.446,0,0,0-1.242.615A3.1,3.1,0,0,0,432.738,352.9Zm5.7-.123a3.713,3.713,0,0,1,.685-2.355,2.361,2.361,0,0,1,3.627-.059l.053-.7h.99v6.188a2.574,2.574,0,0,1-.732,1.939,2.682,2.682,0,0,1-1.957.709,3.265,3.265,0,0,1-1.342-.293,2.3,2.3,0,0,1-1-.8l.562-.65a2.121,2.121,0,0,0,1.705.861,1.65,1.65,0,0,0,1.231-.445,1.7,1.7,0,0,0,.445-1.254v-.545a2.226,2.226,0,0,1-1.775.75,2.176,2.176,0,0,1-1.805-.9A3.931,3.931,0,0,1,438.434,352.777Zm1.089.123a2.857,2.857,0,0,0,.44,1.688,1.43,1.43,0,0,0,1.23.609,1.587,1.587,0,0,0,1.506-.931v-2.895a1.607,1.607,0,0,0-1.494-.908,1.441,1.441,0,0,0-1.236.615A3.1,3.1,0,0,0,439.523,352.9Zm8.538,3.217a2.773,2.773,0,0,1-2.1-.844,3.152,3.152,0,0,1-.809-2.267v-.2a3.8,3.8,0,0,1,.358-1.682,2.809,2.809,0,0,1,1.008-1.16,2.535,2.535,0,0,1,1.406-.422,2.374,2.374,0,0,1,1.922.814,3.528,3.528,0,0,1,.685,2.332v.452h-4.295a2.277,2.277,0,0,0,.545,1.517,1.735,1.735,0,0,0,1.336.574,1.892,1.892,0,0,0,.973-.234,2.441,2.441,0,0,0,.7-.621l.662.516A2.662,2.662,0,0,1,448.061,356.117Zm-.135-5.683a1.443,1.443,0,0,0-1.1.48,2.31,2.31,0,0,0-.551,1.336h3.176v-.082a2.044,2.044,0,0,0-.445-1.277A1.357,1.357,0,0,0,447.926,350.434Zm5.338-2.309v1.535h1.183v.838h-1.183v3.932a.887.887,0,0,0,.158.574.671.671,0,0,0,.539.187,2.615,2.615,0,0,0,.516-.07V356a3.155,3.155,0,0,1-.832.117,1.349,1.349,0,0,1-1.1-.439,1.888,1.888,0,0,1-.369-1.248V350.5h-1.155v-.838h1.155v-1.535Z" transform="translate(253 337)"/>
      <path id="Path_8" data-name="Path 8" d="M519.99,356v-8.531h2.789a3.224,3.224,0,0,1,2.086.574,2.064,2.064,0,0,1,.7,1.7,1.749,1.749,0,0,1-.339,1.061,2.226,2.226,0,0,1-.926.709,1.962,1.962,0,0,1,1.09.738,2.09,2.09,0,0,1,.4,1.289,2.283,2.283,0,0,1-.744,1.8,3.081,3.081,0,0,1-2.1.656Zm1.125-3.99v3.07h1.858a1.788,1.788,0,0,0,1.236-.4,1.435,1.435,0,0,0,.457-1.125q0-1.542-1.676-1.541Zm0-.9h1.7a1.772,1.772,0,0,0,1.178-.369,1.233,1.233,0,0,0,.446-1,1.206,1.206,0,0,0-.411-1.019,2,2,0,0,0-1.248-.322h-1.664Zm7.36,4.893h-1.084v-6.34h1.084Zm-1.172-8.021a.653.653,0,0,1,.158-.446.728.728,0,0,1,.961,0,.643.643,0,0,1,.164.446.621.621,0,0,1-.164.439.639.639,0,0,1-1.119-.439Zm4.09,8.021h-1.084v-9h1.084Zm2.918,0h-1.084v-9h1.084Zm5.654,0a2.287,2.287,0,0,1-.153-.668,2.418,2.418,0,0,1-1.8.785,2.259,2.259,0,0,1-1.541-.527,1.728,1.728,0,0,1-.6-1.348,1.787,1.787,0,0,1,.75-1.535,3.551,3.551,0,0,1,2.121-.551h1.055v-.5a1.205,1.205,0,0,0-.34-.9,1.355,1.355,0,0,0-1-.34,1.584,1.584,0,0,0-.973.293.864.864,0,0,0-.392.709H536a1.491,1.491,0,0,1,.334-.914,2.317,2.317,0,0,1,.914-.7,3.1,3.1,0,0,1,1.272-.258,2.5,2.5,0,0,1,1.716.551,1.968,1.968,0,0,1,.645,1.506v2.918a3.554,3.554,0,0,0,.223,1.388V356Zm-1.8-.826a1.9,1.9,0,0,0,.967-.264,1.6,1.6,0,0,0,.662-.685v-1.3h-.85q-1.992,0-1.992,1.166a.986.986,0,0,0,.34.8A1.31,1.31,0,0,0,538.166,355.174Zm9.779-2.274a3.778,3.778,0,0,1-.668,2.338,2.136,2.136,0,0,1-1.793.879,2.21,2.21,0,0,1-1.857-.849l-.053.732h-1v-9h1.084v3.357a2.2,2.2,0,0,1,1.811-.814,2.139,2.139,0,0,1,1.81.873,3.867,3.867,0,0,1,.662,2.391Zm-1.084-.123a2.933,2.933,0,0,0-.427-1.711,1.419,1.419,0,0,0-1.231-.6,1.592,1.592,0,0,0-1.541,1V354.2a1.636,1.636,0,0,0,1.553,1,1.409,1.409,0,0,0,1.213-.6A3.118,3.118,0,0,0,546.861,352.777ZM550.494,356H549.41v-9h1.084Zm4.371.117a2.772,2.772,0,0,1-2.1-.844,3.152,3.152,0,0,1-.809-2.267v-.2a3.817,3.817,0,0,1,.357-1.682,2.824,2.824,0,0,1,1.008-1.16,2.54,2.54,0,0,1,1.406-.422,2.373,2.373,0,0,1,1.922.814,3.528,3.528,0,0,1,.686,2.332v.452h-4.295a2.272,2.272,0,0,0,.545,1.517,1.734,1.734,0,0,0,1.336.574A1.886,1.886,0,0,0,555.9,355a2.431,2.431,0,0,0,.7-.621l.662.516A2.662,2.662,0,0,1,554.865,356.117Zm-.135-5.683a1.442,1.442,0,0,0-1.1.48,2.3,2.3,0,0,0-.551,1.336h3.176v-.082a2.05,2.05,0,0,0-.445-1.277A1.357,1.357,0,0,0,554.73,350.434Zm13.29,2.859a3.15,3.15,0,0,1-1,2.092,3.274,3.274,0,0,1-2.233.732,3.015,3.015,0,0,1-2.426-1.084,4.371,4.371,0,0,1-.908-2.9v-.821a4.891,4.891,0,0,1,.422-2.091,3.171,3.171,0,0,1,1.207-1.383,3.34,3.34,0,0,1,1.8-.486,3.072,3.072,0,0,1,2.179.761,3.166,3.166,0,0,1,.956,2.1h-1.131a2.434,2.434,0,0,0-.639-1.477,1.918,1.918,0,0,0-1.365-.457,2.024,2.024,0,0,0-1.694.8,3.67,3.67,0,0,0-.609,2.268v.826a3.756,3.756,0,0,0,.58,2.209,1.875,1.875,0,0,0,1.623.82,2.16,2.16,0,0,0,1.436-.422,2.363,2.363,0,0,0,.668-1.482Zm1.084-.522a3.769,3.769,0,0,1,.363-1.675,2.766,2.766,0,0,1,1.019-1.149,2.8,2.8,0,0,1,1.494-.4,2.666,2.666,0,0,1,2.092.9,3.444,3.444,0,0,1,.8,2.385v.076a3.771,3.771,0,0,1-.357,1.664,2.672,2.672,0,0,1-1.014,1.143,2.8,2.8,0,0,1-1.512.41,2.68,2.68,0,0,1-2.092-.9,3.441,3.441,0,0,1-.8-2.373Zm1.089.129a2.72,2.72,0,0,0,.487,1.694,1.664,1.664,0,0,0,2.625-.006,2.982,2.982,0,0,0,.486-1.817,2.684,2.684,0,0,0-.5-1.687,1.641,1.641,0,0,0-2.607-.012A2.938,2.938,0,0,0,570.193,352.9Zm9.733,1.418a.788.788,0,0,0-.334-.679,3.117,3.117,0,0,0-1.154-.422,5.51,5.51,0,0,1-1.307-.422,1.885,1.885,0,0,1-.715-.586,1.418,1.418,0,0,1-.228-.809,1.645,1.645,0,0,1,.656-1.318,2.587,2.587,0,0,1,1.687-.539,2.637,2.637,0,0,1,1.746.557,1.761,1.761,0,0,1,.674,1.423h-1.09a.976.976,0,0,0-.381-.767,1.4,1.4,0,0,0-.949-.322,1.49,1.49,0,0,0-.926.257.814.814,0,0,0-.334.674.658.658,0,0,0,.311.592,3.807,3.807,0,0,0,1.119.381,5.9,5.9,0,0,1,1.319.433,1.891,1.891,0,0,1,.744.61,1.463,1.463,0,0,1,.246.861,1.629,1.629,0,0,1-.68,1.365,2.862,2.862,0,0,1-1.764.51,3.2,3.2,0,0,1-1.347-.269,2.22,2.22,0,0,1-.92-.75,1.84,1.84,0,0,1-.328-1.049h1.084a1.134,1.134,0,0,0,.433.867,1.718,1.718,0,0,0,1.078.316,1.75,1.75,0,0,0,.985-.246A.77.77,0,0,0,579.926,354.318Zm3.967-6.193v1.535h1.183v.838h-1.183v3.932a.887.887,0,0,0,.158.574.671.671,0,0,0,.539.187,2.6,2.6,0,0,0,.515-.07V356a3.143,3.143,0,0,1-.832.117,1.349,1.349,0,0,1-1.1-.439,1.889,1.889,0,0,1-.369-1.248V350.5h-1.155v-.838h1.155v-1.535Z" transform="translate(253 337)"/>
      <path id="Path_9" data-name="Path 9" d="M652.115,352.66V356H650.99v-8.531h3.147a3.147,3.147,0,0,1,2.191.715,2.694,2.694,0,0,1,.018,3.808,3.3,3.3,0,0,1-2.221.668Zm0-.92h2.022a2.032,2.032,0,0,0,1.383-.422,1.561,1.561,0,0,0,.48-1.23,1.6,1.6,0,0,0-.48-1.219,1.893,1.893,0,0,0-1.319-.474h-2.086Zm9.34-1.107a3.18,3.18,0,0,0-.533-.041,1.429,1.429,0,0,0-1.447.908V356h-1.084v-6.34h1.054l.018.733a1.686,1.686,0,0,1,1.512-.85,1.1,1.1,0,0,1,.48.082Zm.6,2.138a3.769,3.769,0,0,1,.363-1.675,2.761,2.761,0,0,1,1.02-1.149,2.792,2.792,0,0,1,1.494-.4,2.665,2.665,0,0,1,2.091.9,3.439,3.439,0,0,1,.8,2.385v.076a3.77,3.77,0,0,1-.357,1.664,2.665,2.665,0,0,1-1.014,1.143,2.794,2.794,0,0,1-1.512.41,2.676,2.676,0,0,1-2.091-.9,3.437,3.437,0,0,1-.8-2.373Zm1.09.129a2.726,2.726,0,0,0,.486,1.694,1.664,1.664,0,0,0,2.625-.006,2.982,2.982,0,0,0,.486-1.817,2.684,2.684,0,0,0-.5-1.687,1.641,1.641,0,0,0-2.607-.012A2.945,2.945,0,0,0,663.143,352.9Zm6.4,3.1v-5.5h-1v-.838h1v-.539a2.208,2.208,0,0,1,.6-1.652,2.362,2.362,0,0,1,1.717-.592,5.162,5.162,0,0,1,1.658.357l-.181.914a3.765,3.765,0,0,0-1.4-.293,1.367,1.367,0,0,0-1.008.317,1.288,1.288,0,0,0-.3.937v.551h1.295v.838h-1.295V356Zm4.517,0h-1.089v-6.34h1.089Zm3.235-7.875v1.535h1.183v.838H677.3v3.932a.893.893,0,0,0,.158.574.671.671,0,0,0,.539.187,2.616,2.616,0,0,0,.516-.07V356a3.15,3.15,0,0,1-.832.117,1.349,1.349,0,0,1-1.1-.439,1.889,1.889,0,0,1-.369-1.248V350.5h-1.154v-.838h1.154v-1.535Z" transform="translate(253 337)"/>
      <circle id="Ellipse_1" data-name="Ellipse 1" cx="6" cy="6" r="6" transform="translate(657 695) rotate(180)" fill="#5151f6"/>
      <circle id="Ellipse_2" data-name="Ellipse 2" cx="6" cy="6" r="6" transform="translate(759 695) rotate(180)" fill="#ffab02"/>
      <circle id="Ellipse_3" data-name="Ellipse 3" cx="6" cy="6" r="6" transform="translate(890 695) rotate(180)" fill="#57e9a9"/>
      <g id="Group_2" data-name="Group 2" transform="translate(253 337)" opacity="0.4">
        <rect id="Rectangle_4" data-name="Rectangle 4" width="15" height="64" transform="translate(199 163)" fill="#5151f6"/>
        <rect id="Rectangle_5" data-name="Rectangle 5" width="15" height="40" transform="translate(322 187)" fill="#5151f6"/>
        <rect id="Rectangle_6" data-name="Rectangle 6" width="15" height="74" transform="translate(445 153)" fill="#5151f6"/>
        <rect id="Rectangle_7" data-name="Rectangle 7" width="15" height="55" transform="translate(568 172)" fill="#5151f6"/>
        <rect id="Rectangle_8" data-name="Rectangle 8" width="15" height="40" transform="translate(691 187)" fill="#5151f6"/>
        <rect id="Rectangle_9" data-name="Rectangle 9" width="15" height="40" transform="translate(814 187)" fill="#5151f6"/>
        <rect id="Rectangle_10" data-name="Rectangle 10" width="15" height="40" transform="translate(220 187)" fill="#ffab02"/>
        <rect id="Rectangle_11" data-name="Rectangle 11" width="15" height="21" transform="translate(343 227)" fill="#ffab02"/>
        <rect id="Rectangle_12" data-name="Rectangle 12" width="15" height="28" transform="translate(466 199)" fill="#ffab02"/>
        <rect id="Rectangle_13" data-name="Rectangle 13" width="15" height="28" transform="translate(589 199)" fill="#ffab02"/>
        <rect id="Rectangle_14" data-name="Rectangle 14" width="15" height="28" transform="translate(712 199)" fill="#ffab02"/>
        <rect id="Rectangle_15" data-name="Rectangle 15" width="15" height="55" transform="translate(835 172)" fill="#ffab02"/>
        <rect id="Rectangle_16" data-name="Rectangle 16" width="15" height="64" transform="translate(241 163)" fill="#57e9a9"/>
        <rect id="Rectangle_17" data-name="Rectangle 17" width="15" height="64" transform="translate(364 163)" fill="#57e9a9"/>
        <rect id="Rectangle_18" data-name="Rectangle 18" width="15" height="18" transform="translate(487 209)" fill="#57e9a9"/>
        <rect id="Rectangle_19" data-name="Rectangle 19" width="15" height="14" transform="translate(610 227)" fill="#57e9a9"/>
        <rect id="Rectangle_20" data-name="Rectangle 20" width="15" height="64" transform="translate(733 163)" fill="#57e9a9"/>
        <rect id="Rectangle_21" data-name="Rectangle 21" width="15" height="95" transform="translate(856 132)" fill="#57e9a9"/>
      </g>
      <rect id="Rectangle_22" data-name="Rectangle 22" width="46" height="4" rx="2" transform="translate(457 645)" fill="rgba(196,196,196,0.45)"/>
      <rect id="Rectangle_23" data-name="Rectangle 23" width="46" height="4" rx="2" transform="translate(313 569) rotate(-90)" fill="rgba(196,196,196,0.45)"/>
      <rect id="Rectangle_24" data-name="Rectangle 24" width="11" height="8" rx="4" transform="translate(347 457)" fill="rgba(196,196,196,0.45)"/>
      <rect id="Rectangle_25" data-name="Rectangle 25" width="11" height="8" rx="4" transform="translate(347 491)" fill="rgba(196,196,196,0.45)"/>
      <rect id="Rectangle_26" data-name="Rectangle 26" width="11" height="8" rx="4" transform="translate(347 525)" fill="rgba(196,196,196,0.45)"/>
      <rect id="Rectangle_27" data-name="Rectangle 27" width="11" height="8" rx="4" transform="translate(347 559)" fill="rgba(196,196,196,0.45)"/>
      <rect id="Rectangle_28" data-name="Rectangle 28" width="11" height="8" rx="4" transform="translate(347 593)" fill="rgba(196,196,196,0.45)"/>
      <rect id="Rectangle_29" data-name="Rectangle 29" width="11" height="8" rx="4" transform="translate(347 627)" fill="rgba(196,196,196,0.45)"/>
      <rect id="Rectangle_30" data-name="Rectangle 30" width="46" height="4" rx="2" transform="translate(580 645)" fill="rgba(196,196,196,0.45)"/>
      <rect id="Rectangle_31" data-name="Rectangle 31" width="46" height="4" rx="2" transform="translate(704 645)" fill="rgba(196,196,196,0.45)"/>
      <rect id="Rectangle_32" data-name="Rectangle 32" width="46" height="4" rx="2" transform="translate(828 645)" fill="rgba(196,196,196,0.45)"/>
      <rect id="Rectangle_33" data-name="Rectangle 33" width="46" height="4" rx="2" transform="translate(952 645)" fill="rgba(196,196,196,0.45)"/>
      <rect id="Rectangle_34" data-name="Rectangle 34" width="46" height="4" rx="2" transform="translate(1076 645)" fill="rgba(196,196,196,0.45)"/>
      <path id="Path_10" data-name="Path 10" d="M380.094,204h-2.262l-8.59-13.148V204H366.98V186.938h2.262l8.613,13.207V186.938h2.239Zm3.082-6.457a7.55,7.55,0,0,1,.726-3.352,5.389,5.389,0,0,1,5.028-3.1,5.329,5.329,0,0,1,4.183,1.793,6.878,6.878,0,0,1,1.606,4.769v.153a7.547,7.547,0,0,1-.715,3.328,5.349,5.349,0,0,1-2.027,2.285,5.584,5.584,0,0,1-3.024.82,5.348,5.348,0,0,1-4.183-1.793,6.876,6.876,0,0,1-1.594-4.746Zm2.179.258a5.453,5.453,0,0,0,.973,3.387,3.327,3.327,0,0,0,5.25-.012,5.954,5.954,0,0,0,.973-3.633,5.366,5.366,0,0,0-1-3.375,3.281,3.281,0,0,0-5.215-.023A5.887,5.887,0,0,0,385.355,197.8Zm17.508-.246a7.4,7.4,0,0,1,1.383-4.688,4.7,4.7,0,0,1,7.149-.258V186h2.167v18H411.57l-.105-1.359a4.415,4.415,0,0,1-3.621,1.593,4.347,4.347,0,0,1-3.6-1.8,7.535,7.535,0,0,1-1.383-4.711Zm2.168.246a5.624,5.624,0,0,0,.891,3.375,2.881,2.881,0,0,0,2.461,1.219,3.164,3.164,0,0,0,3.012-1.852v-5.824a3.187,3.187,0,0,0-2.989-1.793,2.893,2.893,0,0,0-2.484,1.23A6.192,6.192,0,0,0,405.031,197.8Zm19.735,6.2a4.545,4.545,0,0,1-.3-1.336,4.837,4.837,0,0,1-3.609,1.57,4.512,4.512,0,0,1-3.082-1.054,3.458,3.458,0,0,1-1.2-2.7,3.574,3.574,0,0,1,1.5-3.07,7.1,7.1,0,0,1,4.242-1.1h2.11v-1a2.415,2.415,0,0,0-.68-1.8,2.718,2.718,0,0,0-2-.68,3.158,3.158,0,0,0-1.945.586,1.725,1.725,0,0,0-.785,1.418h-2.18a2.985,2.985,0,0,1,.668-1.828,4.617,4.617,0,0,1,1.828-1.406,6.188,6.188,0,0,1,2.543-.516,4.993,4.993,0,0,1,3.434,1.1,3.934,3.934,0,0,1,1.289,3.011v5.836a7.13,7.13,0,0,0,.445,2.777V204Zm-3.6-1.652a3.809,3.809,0,0,0,1.934-.528,3.189,3.189,0,0,0,1.324-1.371v-2.6h-1.7q-3.985,0-3.985,2.332a1.972,1.972,0,0,0,.68,1.593A2.611,2.611,0,0,0,421.168,202.348Zm11.766-14.1v3.07H435.3V193h-2.367v7.863a1.783,1.783,0,0,0,.316,1.149,1.344,1.344,0,0,0,1.078.375,5.229,5.229,0,0,0,1.031-.141V204a6.293,6.293,0,0,1-1.664.234,2.7,2.7,0,0,1-2.191-.879,3.773,3.773,0,0,1-.738-2.5V193h-2.309V191.32h2.309v-3.07ZM445.672,204a4.545,4.545,0,0,1-.3-1.336,4.837,4.837,0,0,1-3.609,1.57,4.512,4.512,0,0,1-3.082-1.054,3.458,3.458,0,0,1-1.2-2.7,3.574,3.574,0,0,1,1.5-3.07,7.1,7.1,0,0,1,4.243-1.1h2.109v-1a2.415,2.415,0,0,0-.68-1.8,2.718,2.718,0,0,0-2-.68,3.16,3.16,0,0,0-1.945.586,1.728,1.728,0,0,0-.785,1.418h-2.18a2.985,2.985,0,0,1,.668-1.828,4.624,4.624,0,0,1,1.828-1.406,6.188,6.188,0,0,1,2.543-.516,4.993,4.993,0,0,1,3.434,1.1A3.931,3.931,0,0,1,447.5,195.2v5.836a7.13,7.13,0,0,0,.445,2.777V204Zm-3.6-1.652a3.809,3.809,0,0,0,1.934-.528,3.183,3.183,0,0,0,1.324-1.371v-2.6h-1.7q-3.984,0-3.985,2.332a1.972,1.972,0,0,0,.68,1.593A2.611,2.611,0,0,0,442.074,202.348ZM464.68,204a4.545,4.545,0,0,1-.3-1.336,4.837,4.837,0,0,1-3.609,1.57,4.512,4.512,0,0,1-3.082-1.054,3.458,3.458,0,0,1-1.2-2.7,3.574,3.574,0,0,1,1.5-3.07,7.1,7.1,0,0,1,4.242-1.1h2.11v-1a2.415,2.415,0,0,0-.68-1.8,2.718,2.718,0,0,0-2-.68,3.158,3.158,0,0,0-1.945.586,1.728,1.728,0,0,0-.785,1.418h-2.18a2.985,2.985,0,0,1,.668-1.828,4.624,4.624,0,0,1,1.828-1.406,6.188,6.188,0,0,1,2.543-.516,4.993,4.993,0,0,1,3.434,1.1,3.931,3.931,0,0,1,1.289,3.011v5.836a7.13,7.13,0,0,0,.445,2.777V204Zm-3.6-1.652a3.809,3.809,0,0,0,1.934-.528,3.189,3.189,0,0,0,1.324-1.371v-2.6h-1.7q-3.985,0-3.985,2.332a1.972,1.972,0,0,0,.68,1.593A2.611,2.611,0,0,0,461.082,202.348Zm12.82-1.289,3.141-9.739h2.215L474.711,204h-1.652l-4.594-12.68h2.215ZM488.984,204a4.552,4.552,0,0,1-.3-1.336,4.837,4.837,0,0,1-3.61,1.57,4.514,4.514,0,0,1-3.082-1.054,3.457,3.457,0,0,1-1.2-2.7,3.574,3.574,0,0,1,1.5-3.07,7.1,7.1,0,0,1,4.242-1.1h2.11v-1a2.415,2.415,0,0,0-.68-1.8,2.718,2.718,0,0,0-2-.68,3.158,3.158,0,0,0-1.945.586,1.726,1.726,0,0,0-.786,1.418h-2.179a2.979,2.979,0,0,1,.668-1.828,4.617,4.617,0,0,1,1.828-1.406,6.185,6.185,0,0,1,2.543-.516,4.99,4.99,0,0,1,3.433,1.1,3.928,3.928,0,0,1,1.289,3.011v5.836a7.128,7.128,0,0,0,.446,2.777V204Zm-3.6-1.652a3.805,3.805,0,0,0,1.933-.528,3.186,3.186,0,0,0,1.325-1.371v-2.6h-1.7q-3.984,0-3.984,2.332a1.972,1.972,0,0,0,.68,1.593A2.611,2.611,0,0,0,485.387,202.348ZM496.566,204H494.4V191.32h2.168Zm-2.343-16.043a1.309,1.309,0,0,1,.316-.891,1.454,1.454,0,0,1,1.922,0,1.281,1.281,0,0,1,.328.891,1.236,1.236,0,0,1-.328.879,1.278,1.278,0,0,1-2.238-.879ZM502.4,204h-2.168V186H502.4Zm11.309,0a4.545,4.545,0,0,1-.3-1.336,4.837,4.837,0,0,1-3.609,1.57,4.514,4.514,0,0,1-3.082-1.054,3.457,3.457,0,0,1-1.2-2.7,3.574,3.574,0,0,1,1.5-3.07,7.1,7.1,0,0,1,4.242-1.1h2.109v-1a2.411,2.411,0,0,0-.68-1.8,2.717,2.717,0,0,0-2-.68,3.161,3.161,0,0,0-1.946.586,1.728,1.728,0,0,0-.785,1.418h-2.18a2.985,2.985,0,0,1,.668-1.828,4.624,4.624,0,0,1,1.828-1.406,6.192,6.192,0,0,1,2.543-.516,4.993,4.993,0,0,1,3.434,1.1,3.931,3.931,0,0,1,1.289,3.011v5.836a7.148,7.148,0,0,0,.445,2.777V204Zm-3.6-1.652a3.806,3.806,0,0,0,1.934-.528,3.183,3.183,0,0,0,1.324-1.371v-2.6h-1.7q-3.984,0-3.984,2.332a1.972,1.972,0,0,0,.679,1.593A2.611,2.611,0,0,0,510.113,202.348Zm19.559-4.547a7.565,7.565,0,0,1-1.336,4.676,4.276,4.276,0,0,1-3.586,1.757,4.419,4.419,0,0,1-3.715-1.7l-.1,1.465h-1.992V186H521.1v6.715a4.4,4.4,0,0,1,3.622-1.629,4.279,4.279,0,0,1,3.621,1.746,7.746,7.746,0,0,1,1.324,4.781Zm-2.168-.246a5.853,5.853,0,0,0-.856-3.422,2.83,2.83,0,0,0-2.46-1.207,3.184,3.184,0,0,0-3.083,1.992V200.4a3.275,3.275,0,0,0,3.106,1.993,2.818,2.818,0,0,0,2.426-1.207A6.233,6.233,0,0,0,527.5,197.555ZM534.77,204H532.6V186h2.168Zm8.742.234a5.552,5.552,0,0,1-4.2-1.687,6.307,6.307,0,0,1-1.617-4.535v-.4a7.628,7.628,0,0,1,.715-3.363,5.619,5.619,0,0,1,2.016-2.32,5.064,5.064,0,0,1,2.812-.844,4.748,4.748,0,0,1,3.844,1.629,7.052,7.052,0,0,1,1.371,4.664v.9h-8.59a4.546,4.546,0,0,0,1.09,3.035,3.47,3.47,0,0,0,2.672,1.149,3.768,3.768,0,0,0,1.945-.469,4.886,4.886,0,0,0,1.4-1.242l1.324,1.031A5.324,5.324,0,0,1,543.512,204.234Zm-.27-11.367a2.886,2.886,0,0,0-2.2.961,4.609,4.609,0,0,0-1.1,2.672h6.351v-.164a4.1,4.1,0,0,0-.891-2.555A2.715,2.715,0,0,0,543.242,192.867Zm21.07,7.77a1.578,1.578,0,0,0-.667-1.36,6.23,6.23,0,0,0-2.309-.843,11.054,11.054,0,0,1-2.613-.844,3.771,3.771,0,0,1-1.43-1.172,2.826,2.826,0,0,1-.457-1.617,3.3,3.3,0,0,1,1.312-2.637,5.172,5.172,0,0,1,3.375-1.078,5.277,5.277,0,0,1,3.493,1.113,3.531,3.531,0,0,1,1.347,2.848h-2.179a1.95,1.95,0,0,0-.762-1.535,2.809,2.809,0,0,0-1.9-.645,2.96,2.96,0,0,0-1.851.516A1.624,1.624,0,0,0,559,194.73a1.316,1.316,0,0,0,.621,1.184,7.612,7.612,0,0,0,2.238.762,11.678,11.678,0,0,1,2.637.867,3.757,3.757,0,0,1,1.488,1.219,2.928,2.928,0,0,1,.492,1.722,3.262,3.262,0,0,1-1.359,2.731,5.722,5.722,0,0,1-3.527,1.019,6.38,6.38,0,0,1-2.7-.539,4.435,4.435,0,0,1-1.839-1.5,3.673,3.673,0,0,1-.657-2.1h2.168a2.268,2.268,0,0,0,.868,1.734,3.43,3.43,0,0,0,2.156.633,3.5,3.5,0,0,0,1.968-.492A1.543,1.543,0,0,0,564.312,200.637ZM577.133,204a4.545,4.545,0,0,1-.3-1.336,4.837,4.837,0,0,1-3.609,1.57,4.512,4.512,0,0,1-3.082-1.054,3.458,3.458,0,0,1-1.2-2.7,3.574,3.574,0,0,1,1.5-3.07,7.1,7.1,0,0,1,4.243-1.1h2.109v-1a2.415,2.415,0,0,0-.68-1.8,2.718,2.718,0,0,0-2-.68,3.16,3.16,0,0,0-1.945.586,1.728,1.728,0,0,0-.785,1.418H569.2a2.985,2.985,0,0,1,.668-1.828A4.624,4.624,0,0,1,571.7,191.6a6.188,6.188,0,0,1,2.543-.516,4.993,4.993,0,0,1,3.434,1.1,3.931,3.931,0,0,1,1.289,3.011v5.836a7.13,7.13,0,0,0,.445,2.777V204Zm-3.6-1.652a3.809,3.809,0,0,0,1.934-.528,3.183,3.183,0,0,0,1.324-1.371v-2.6h-1.7q-3.984,0-3.985,2.332a1.972,1.972,0,0,0,.68,1.593A2.611,2.611,0,0,0,573.535,202.348ZM584.4,191.32l.059,1.407a4.683,4.683,0,0,1,3.762-1.641,3.626,3.626,0,0,1,3.621,2.039,4.832,4.832,0,0,1,1.64-1.477,4.9,4.9,0,0,1,2.4-.562q4.172,0,4.242,4.418V204h-2.168v-8.367a2.892,2.892,0,0,0-.621-2.028,2.721,2.721,0,0,0-2.086-.679,2.862,2.862,0,0,0-2,.726,2.9,2.9,0,0,0-.926,1.934V204h-2.179v-8.309q0-2.764-2.707-2.765a2.9,2.9,0,0,0-2.918,1.816V204h-2.168V191.32Zm29.719,6.481a7.593,7.593,0,0,1-1.324,4.664,4.243,4.243,0,0,1-3.586,1.769,4.652,4.652,0,0,1-3.633-1.464v6.1h-2.168V191.32h1.981l.1,1.407a4.467,4.467,0,0,1,3.68-1.641,4.307,4.307,0,0,1,3.609,1.723,7.647,7.647,0,0,1,1.336,4.793Zm-2.168-.246a5.6,5.6,0,0,0-.914-3.387,2.944,2.944,0,0,0-2.508-1.242,3.187,3.187,0,0,0-2.953,1.746v6.058a3.194,3.194,0,0,0,2.977,1.735,2.917,2.917,0,0,0,2.472-1.231A6.105,6.105,0,0,0,611.949,197.555ZM619.238,204H617.07V186h2.168Zm8.742.234a5.55,5.55,0,0,1-4.2-1.687,6.307,6.307,0,0,1-1.617-4.535v-.4a7.614,7.614,0,0,1,.715-3.363,5.623,5.623,0,0,1,2.015-2.32,5.07,5.07,0,0,1,2.813-.844,4.75,4.75,0,0,1,3.844,1.629,7.052,7.052,0,0,1,1.371,4.664v.9h-8.59a4.54,4.54,0,0,0,1.09,3.035,3.47,3.47,0,0,0,2.672,1.149,3.771,3.771,0,0,0,1.945-.469,4.887,4.887,0,0,0,1.395-1.242l1.324,1.031A5.326,5.326,0,0,1,627.98,204.234Zm-.269-11.367a2.886,2.886,0,0,0-2.2.961,4.616,4.616,0,0,0-1.1,2.672h6.352v-.164a4.108,4.108,0,0,0-.891-2.555A2.715,2.715,0,0,0,627.711,192.867ZM643.754,204h-2.168V191.32h2.168Zm-2.344-16.043a1.31,1.31,0,0,1,.317-.891,1.452,1.452,0,0,1,1.921,0,1.282,1.282,0,0,1,.329.891,1.237,1.237,0,0,1-.329.879,1.486,1.486,0,0,1-1.921,0A1.264,1.264,0,0,1,641.41,187.957Zm7.863,3.363.059,1.407a4.683,4.683,0,0,1,3.762-1.641,3.626,3.626,0,0,1,3.621,2.039,4.832,4.832,0,0,1,1.64-1.477,4.9,4.9,0,0,1,2.4-.562q4.172,0,4.242,4.418V204h-2.168v-8.367a2.892,2.892,0,0,0-.621-2.028,2.721,2.721,0,0,0-2.086-.679,2.862,2.862,0,0,0-2,.726,2.9,2.9,0,0,0-.926,1.934V204h-2.179v-8.309q0-2.764-2.707-2.765a2.9,2.9,0,0,0-2.918,1.816V204h-2.168V191.32ZM676.109,204a4.552,4.552,0,0,1-.3-1.336,4.837,4.837,0,0,1-3.61,1.57,4.514,4.514,0,0,1-3.082-1.054,3.457,3.457,0,0,1-1.195-2.7,3.574,3.574,0,0,1,1.5-3.07,7.1,7.1,0,0,1,4.242-1.1h2.11v-1a2.415,2.415,0,0,0-.68-1.8,2.718,2.718,0,0,0-2-.68,3.156,3.156,0,0,0-1.945.586,1.726,1.726,0,0,0-.786,1.418h-2.179a2.979,2.979,0,0,1,.668-1.828,4.617,4.617,0,0,1,1.828-1.406,6.185,6.185,0,0,1,2.543-.516,4.99,4.99,0,0,1,3.433,1.1,3.932,3.932,0,0,1,1.29,3.011v5.836a7.13,7.13,0,0,0,.445,2.777V204Zm-3.6-1.652a3.806,3.806,0,0,0,1.933-.528,3.186,3.186,0,0,0,1.325-1.371v-2.6h-1.7q-3.984,0-3.984,2.332a1.97,1.97,0,0,0,.68,1.593A2.611,2.611,0,0,0,672.512,202.348Zm8.308-4.793a7.426,7.426,0,0,1,1.371-4.711,4.721,4.721,0,0,1,7.254-.117l.106-1.407h1.98V203.7a5.144,5.144,0,0,1-1.465,3.879,5.359,5.359,0,0,1-3.914,1.418,6.513,6.513,0,0,1-2.683-.586,4.62,4.62,0,0,1-2-1.605l1.125-1.3a4.241,4.241,0,0,0,3.41,1.723,3.3,3.3,0,0,0,2.461-.891,3.391,3.391,0,0,0,.891-2.508v-1.09a4.457,4.457,0,0,1-3.551,1.5,4.346,4.346,0,0,1-3.61-1.793A7.858,7.858,0,0,1,680.82,197.555Zm2.18.246a5.716,5.716,0,0,0,.879,3.375,2.861,2.861,0,0,0,2.461,1.219,3.178,3.178,0,0,0,3.012-1.864v-5.789a3.213,3.213,0,0,0-2.989-1.816,2.881,2.881,0,0,0-2.472,1.23A6.192,6.192,0,0,0,683,197.8Zm17.074,6.433a5.548,5.548,0,0,1-4.195-1.687,6.307,6.307,0,0,1-1.617-4.535v-.4a7.614,7.614,0,0,1,.715-3.363,5.623,5.623,0,0,1,2.015-2.32,5.068,5.068,0,0,1,2.813-.844,4.748,4.748,0,0,1,3.843,1.629,7.052,7.052,0,0,1,1.372,4.664v.9h-8.59a4.54,4.54,0,0,0,1.09,3.035,3.468,3.468,0,0,0,2.671,1.149,3.775,3.775,0,0,0,1.946-.469,4.87,4.87,0,0,0,1.394-1.242l1.324,1.031A5.323,5.323,0,0,1,700.074,204.234Zm-.269-11.367a2.884,2.884,0,0,0-2.2.961,4.616,4.616,0,0,0-1.1,2.672h6.352v-.164a4.108,4.108,0,0,0-.891-2.555A2.715,2.715,0,0,0,699.8,192.867Z" transform="translate(253 337)" fill="rgba(0,0,0,0.54)"/>
      <path id="Path_11" data-name="Path 11" d="M471.173,74.99V80h-1.688V67.2h4.72a4.725,4.725,0,0,1,3.287,1.072,4.041,4.041,0,0,1,.027,5.713,4.952,4.952,0,0,1-3.331,1Zm0-1.38H474.2a3.048,3.048,0,0,0,2.074-.633A2.34,2.34,0,0,0,477,71.132a2.4,2.4,0,0,0-.721-1.828,2.841,2.841,0,0,0-1.977-.712h-3.129Zm14.01-1.661a4.877,4.877,0,0,0-.8-.062,2.142,2.142,0,0,0-2.171,1.362V80h-1.626V70.49h1.582l.026,1.1a2.533,2.533,0,0,1,2.268-1.274,1.664,1.664,0,0,1,.721.123Zm.9,3.208a5.658,5.658,0,0,1,.545-2.514,4.138,4.138,0,0,1,1.529-1.723,4.19,4.19,0,0,1,2.242-.606,4,4,0,0,1,3.137,1.345,5.16,5.16,0,0,1,1.2,3.577v.114a5.647,5.647,0,0,1-.536,2.5,4,4,0,0,1-1.52,1.714,4.19,4.19,0,0,1-2.268.615,4.015,4.015,0,0,1-3.138-1.345,5.164,5.164,0,0,1-1.195-3.56Zm1.635.193a4.088,4.088,0,0,0,.729,2.54,2.362,2.362,0,0,0,1.969.958,2.338,2.338,0,0,0,1.969-.967,4.471,4.471,0,0,0,.729-2.725,4.026,4.026,0,0,0-.747-2.531,2.461,2.461,0,0,0-3.911-.018A4.417,4.417,0,0,0,487.714,75.351ZM497.32,80V71.747h-1.5V70.49h1.5v-.809a3.311,3.311,0,0,1,.906-2.479,3.541,3.541,0,0,1,2.575-.888,7.739,7.739,0,0,1,2.487.536l-.272,1.371a5.637,5.637,0,0,0-2.092-.439,2.052,2.052,0,0,0-1.512.475,1.933,1.933,0,0,0-.457,1.406v.826H500.9v1.257h-1.942V80Zm6.777,0h-1.635V70.49H504.1Zm4.851-11.812v2.3h1.776v1.257h-1.776v5.9a1.332,1.332,0,0,0,.238.861,1.006,1.006,0,0,0,.808.281,3.939,3.939,0,0,0,.774-.105V80a4.716,4.716,0,0,1-1.248.176,2.025,2.025,0,0,1-1.644-.659,2.833,2.833,0,0,1-.554-1.872v-5.9h-1.731V70.49h1.731v-2.3ZM518.5,80a3.416,3.416,0,0,1-.229-1,3.626,3.626,0,0,1-2.707,1.178,3.384,3.384,0,0,1-2.311-.791,2.592,2.592,0,0,1-.9-2.022,2.681,2.681,0,0,1,1.125-2.3,5.327,5.327,0,0,1,3.182-.826h1.582v-.747a1.811,1.811,0,0,0-.51-1.354,2.038,2.038,0,0,0-1.5-.51,2.372,2.372,0,0,0-1.459.439,1.3,1.3,0,0,0-.588,1.063h-1.635a2.238,2.238,0,0,1,.5-1.371,3.474,3.474,0,0,1,1.371-1.055,4.643,4.643,0,0,1,1.907-.387,3.745,3.745,0,0,1,2.575.826,2.949,2.949,0,0,1,.967,2.259v4.377a5.346,5.346,0,0,0,.334,2.083V80Zm-2.7-1.239a2.859,2.859,0,0,0,1.45-.4,2.391,2.391,0,0,0,.993-1.028V75.386h-1.274q-2.99,0-2.989,1.749a1.48,1.48,0,0,0,.51,1.2A1.961,1.961,0,0,0,515.8,78.761Zm14.669-3.41a5.674,5.674,0,0,1-1,3.507,3.206,3.206,0,0,1-2.69,1.318,3.315,3.315,0,0,1-2.786-1.274l-.079,1.1h-1.494V66.5h1.626v5.036a3.3,3.3,0,0,1,2.716-1.222,3.208,3.208,0,0,1,2.715,1.31,5.8,5.8,0,0,1,.994,3.586Zm-1.626-.185a4.392,4.392,0,0,0-.642-2.566,2.125,2.125,0,0,0-1.846-.905,2.387,2.387,0,0,0-2.311,1.494V77.3a2.453,2.453,0,0,0,2.329,1.494,2.111,2.111,0,0,0,1.819-.905A4.669,4.669,0,0,0,528.847,75.166ZM534.3,80H532.67V66.5H534.3Zm6.557.176a4.163,4.163,0,0,1-3.147-1.266,4.728,4.728,0,0,1-1.213-3.4v-.3a5.724,5.724,0,0,1,.536-2.522,4.224,4.224,0,0,1,1.512-1.74,3.8,3.8,0,0,1,2.109-.633,3.56,3.56,0,0,1,2.883,1.222,5.287,5.287,0,0,1,1.029,3.5v.677h-6.443a3.41,3.41,0,0,0,.818,2.276,2.6,2.6,0,0,0,2,.861A2.83,2.83,0,0,0,542.4,78.5a3.662,3.662,0,0,0,1.046-.932l.993.773A3.992,3.992,0,0,1,540.853,80.176Zm-.2-8.525a2.162,2.162,0,0,0-1.652.721,3.458,3.458,0,0,0-.826,2h4.764v-.123a3.08,3.08,0,0,0-.668-1.916A2.038,2.038,0,0,0,540.65,71.65Zm15.214,3.173h-3.006V80h-1.7V67.2H555.4a5,5,0,0,1,3.323.984,3.536,3.536,0,0,1,1.169,2.865,3.427,3.427,0,0,1-.651,2.083,3.823,3.823,0,0,1-1.793,1.327l3.006,5.432V80h-1.81Zm-3.006-1.38h2.593a2.91,2.91,0,0,0,1.995-.65,2.192,2.192,0,0,0,.747-1.74,2.305,2.305,0,0,0-.712-1.819,2.98,2.98,0,0,0-2.039-.642h-2.584Zm13.1,6.732a4.161,4.161,0,0,1-3.146-1.266,4.728,4.728,0,0,1-1.213-3.4v-.3a5.71,5.71,0,0,1,.536-2.522,4.217,4.217,0,0,1,1.512-1.74,3.8,3.8,0,0,1,2.109-.633,3.563,3.563,0,0,1,2.883,1.222,5.293,5.293,0,0,1,1.028,3.5v.677h-6.442a3.41,3.41,0,0,0,.817,2.276,2.6,2.6,0,0,0,2,.861A2.832,2.832,0,0,0,567.5,78.5a3.675,3.675,0,0,0,1.046-.932l.993.773A3.993,3.993,0,0,1,565.954,80.176Zm-.2-8.525a2.162,2.162,0,0,0-1.652.721,3.459,3.459,0,0,0-.827,2h4.764v-.123a3.075,3.075,0,0,0-.668-1.916A2.034,2.034,0,0,0,565.752,71.65Zm13.834,3.7a5.7,5.7,0,0,1-.993,3.5,3.184,3.184,0,0,1-2.69,1.327,3.486,3.486,0,0,1-2.724-1.1v4.579h-1.626V70.49h1.485l.079,1.055a3.349,3.349,0,0,1,2.76-1.23,3.23,3.23,0,0,1,2.707,1.292,5.738,5.738,0,0,1,1,3.595Zm-1.626-.185a4.2,4.2,0,0,0-.686-2.54,2.208,2.208,0,0,0-1.88-.932A2.39,2.39,0,0,0,573.179,73v4.544a2.394,2.394,0,0,0,2.232,1.3,2.191,2.191,0,0,0,1.855-.923A4.584,4.584,0,0,0,577.96,75.166Zm3.269-.009a5.659,5.659,0,0,1,.545-2.514,4.14,4.14,0,0,1,1.53-1.723,4.184,4.184,0,0,1,2.241-.606,4,4,0,0,1,3.138,1.345,5.165,5.165,0,0,1,1.2,3.577v.114a5.661,5.661,0,0,1-.536,2.5,4.009,4.009,0,0,1-1.521,1.714,4.188,4.188,0,0,1-2.268.615,4.013,4.013,0,0,1-3.137-1.345,5.159,5.159,0,0,1-1.2-3.56Zm1.635.193a4.081,4.081,0,0,0,.73,2.54,2.494,2.494,0,0,0,3.937-.009,4.464,4.464,0,0,0,.73-2.725,4.025,4.025,0,0,0-.747-2.531,2.461,2.461,0,0,0-3.911-.018A4.41,4.41,0,0,0,582.864,75.351Zm13.658-3.4a4.864,4.864,0,0,0-.8-.062,2.142,2.142,0,0,0-2.171,1.362V80h-1.626V70.49h1.582l.026,1.1a2.532,2.532,0,0,1,2.268-1.274,1.659,1.659,0,0,1,.72.123Zm4.149-3.762v2.3h1.775v1.257h-1.775v5.9a1.337,1.337,0,0,0,.237.861,1.009,1.009,0,0,0,.809.281,3.931,3.931,0,0,0,.773-.105V80a4.716,4.716,0,0,1-1.248.176,2.024,2.024,0,0,1-1.643-.659,2.827,2.827,0,0,1-.554-1.872v-5.9h-1.732V70.49h1.732v-2.3Z" transform="translate(253 337)"/>
    </g>
  </g>
</svg>
