<svg xmlns="http://www.w3.org/2000/svg" width="487.808" height="310.45" viewBox="0 0 487.808 310.45">
  <g id="Group_47" data-name="Group 47" transform="translate(-172.414 -139)">
    <g id="Group_44" data-name="Group 44">
      <g id="Group_19" data-name="Group 19" transform="translate(-223.502 -269)">
        <g id="Group_15" data-name="Group 15">
          <path id="Path_153" data-name="Path 153" d="M568.9,220.745V202.554a13.079,13.079,0,0,0-13.079-13.079H509.659A13.079,13.079,0,0,1,496.579,176.4V158.2a13.079,13.079,0,0,1,13.079-13.079h1.458A13.079,13.079,0,0,0,524.2,132.045V113.854a13.079,13.079,0,0,0-13.079-13.079H169.209a13.079,13.079,0,0,0-13.079,13.079v18.191a13.079,13.079,0,0,0,13.079,13.079h0A13.079,13.079,0,0,1,182.288,158.2V176.4a13.079,13.079,0,0,1-13.079,13.079H118.63a13.079,13.079,0,0,0-13.079,13.079v18.191a13.079,13.079,0,0,0,13.079,13.079h19.847A13.079,13.079,0,0,1,151.556,246.9V265.1a13.079,13.079,0,0,1-13.079,13.079h-.048a13.079,13.079,0,0,0-13.08,13.08v18.191a13.079,13.079,0,0,0,13.08,13.08H141.3A13.079,13.079,0,0,1,154.379,335.6V353.8A13.079,13.079,0,0,1,141.3,366.876H94.175A13.079,13.079,0,0,0,81.1,379.955v18.191a13.079,13.079,0,0,0,13.079,13.079H518.138a13.079,13.079,0,0,0,13.079-13.079V379.955a13.079,13.079,0,0,0-13.079-13.079H506.8A13.079,13.079,0,0,1,493.719,353.8V335.605A13.079,13.079,0,0,1,506.8,322.526h26.74a13.079,13.079,0,0,0,13.079-13.079V291.255a13.079,13.079,0,0,0-13.079-13.079h-8.112A13.079,13.079,0,0,1,512.347,265.1V246.9a13.079,13.079,0,0,1,13.079-13.079h30.4a13.079,13.079,0,0,0,13.079-13.08Z" transform="translate(314.82 307.225)" fill="#e1f6ff"/>
          <rect id="Rectangle_7" data-name="Rectangle 7" width="159.84" height="145.44" transform="translate(532.381 539.022)" fill="#1e7eb8"/>
          <rect id="Rectangle_8" data-name="Rectangle 8" width="84.96" height="145.44" transform="translate(692.221 539.022)" fill="#0a5c8d"/>
          <path id="Path_154" data-name="Path 154" d="M462.361,232.157H377.4l29.1-39.694a3,3,0,0,1,2.419-1.226h77.52a3,3,0,0,1,2.419,4.774Z" transform="translate(314.82 307.225)" fill="#0f71ac"/>
          <path id="Path_155" data-name="Path 155" d="M217.956,232.157h84.96l-29.1-39.694a3,3,0,0,0-2.419-1.226h-77.52a3,3,0,0,0-2.419,4.774Z" transform="translate(314.82 307.225)" fill="#0a5c8d"/>
          <path id="Path_156" data-name="Path 156" d="M510.293,285.158l-47.932-53h0v57.96h45.66a3,3,0,0,0,2.271-4.96Z" transform="translate(314.82 307.225)" fill="#0f71ac"/>
          <rect id="Rectangle_9" data-name="Rectangle 9" width="105.018" height="100.135" rx="8" transform="translate(561.713 447.247)" fill="#9fe1f9"/>
          <path id="Path_157" data-name="Path 157" d="M318.137,262.935H270.47a5.343,5.343,0,0,1-4.54-2.408,4.478,4.478,0,0,1,0-4.815l23.833-37.921L313.6,179.871a5.484,5.484,0,0,1,9.079,0l23.833,37.921,23.833,37.921a4.478,4.478,0,0,1,0,4.815,5.343,5.343,0,0,1-4.54,2.408Z" transform="translate(295.685 294.6)" fill="#fff"/>
          <path id="Path_159" data-name="Path 159" d="M474.287,338.334c3.79,0,3.79,2,7.579,2s3.788-2,7.577-2,3.791,2,7.582,2,3.791-2,7.582-2" transform="translate(314.82 307.225)" fill="none" stroke="#cff5ff" stroke-linecap="round" stroke-miterlimit="10" stroke-width="3"/>
          <path id="Path_160" data-name="Path 160" d="M474.287,347.074c3.79,0,3.79,2,7.579,2s3.788-2,7.577-2,3.791,2,7.582,2,3.791-2,7.582-2" transform="translate(314.82 307.225)" fill="none" stroke="#cff5ff" stroke-linecap="round" stroke-miterlimit="10" stroke-width="3"/>
          <path id="Path_161" data-name="Path 161" d="M474.287,355.813c3.79,0,3.79,2,7.579,2s3.788-2,7.577-2,3.791,2,7.582,2,3.791-2,7.582-2" transform="translate(314.82 307.225)" fill="none" stroke="#cff5ff" stroke-linecap="round" stroke-miterlimit="10" stroke-width="3"/>
          <path id="Path_162" data-name="Path 162" d="M111.183,292.117c3.79,0,3.79,2,7.579,2s3.788-2,7.577-2,3.791,2,7.582,2,3.791-2,7.582-2" transform="translate(314.82 307.225)" fill="none" stroke="#cff5ff" stroke-linecap="round" stroke-miterlimit="10" stroke-width="3"/>
          <path id="Path_163" data-name="Path 163" d="M111.183,300.856c3.79,0,3.79,2,7.579,2s3.788-2,7.577-2,3.791,2,7.582,2,3.791-2,7.582-2" transform="translate(314.82 307.225)" fill="none" stroke="#cff5ff" stroke-linecap="round" stroke-miterlimit="10" stroke-width="3"/>
          <path id="Path_164" data-name="Path 164" d="M111.183,309.6c3.79,0,3.79,2,7.579,2s3.788-2,7.577-2,3.791,2,7.582,2,3.791-2,7.582-2" transform="translate(314.82 307.225)" fill="none" stroke="#cff5ff" stroke-linecap="round" stroke-miterlimit="10" stroke-width="3"/>
          <path id="Path_165" data-name="Path 165" d="M279.9,120.543c3.79,0,3.79,2,7.579,2s3.788-2,7.577-2,3.791,2,7.582,2,3.791-2,7.582-2" transform="translate(314.82 299.225)" fill="none" stroke="#cff5ff" stroke-linecap="round" stroke-miterlimit="10" stroke-width="3"/>
          <path id="Path_166" data-name="Path 166" d="M279.9,129.282c3.79,0,3.79,2,7.579,2s3.788-2,7.577-2,3.791,2,7.582,2,3.791-2,7.582-2" transform="translate(314.82 299.225)" fill="none" stroke="#cff5ff" stroke-linecap="round" stroke-miterlimit="10" stroke-width="3"/>
          <path id="Path_167" data-name="Path 167" d="M279.9,138.022c3.79,0,3.79,2,7.579,2s3.788-2,7.577-2,3.791,2,7.582,2,3.791-2,7.582-2" transform="translate(314.82 299.225)" fill="none" stroke="#cff5ff" stroke-linecap="round" stroke-miterlimit="10" stroke-width="3"/>
          <g id="Group_11" data-name="Group 11" transform="translate(314.82 307.225)">
            <circle id="Ellipse_45" data-name="Ellipse 45" cx="12.96" cy="12.96" r="12.96" transform="translate(170.745 378.25)" fill="#c2ecfe"/>
            <circle id="Ellipse_46" data-name="Ellipse 46" cx="6.72" cy="6.72" r="6.72" transform="translate(186.389 350.304)" fill="#c2ecfe"/>
            <circle id="Ellipse_47" data-name="Ellipse 47" cx="9.6" cy="9.6" r="9.6" transform="translate(210.123 383.05)" fill="#c2ecfe"/>
            <circle id="Ellipse_48" data-name="Ellipse 48" cx="15.42" cy="15.42" r="15.42" transform="translate(155.549 197.281)" fill="#c2ecfe"/>
            <circle id="Ellipse_49" data-name="Ellipse 49" cx="8.032" cy="8.032" r="8.032" transform="translate(133.472 193.686)" fill="#c2ecfe"/>
            <circle id="Ellipse_50" data-name="Ellipse 50" cx="4.633" cy="4.633" r="4.633" transform="translate(144.249 169.782)" fill="#c2ecfe"/>
            <circle id="Ellipse_51" data-name="Ellipse 51" cx="11.106" cy="11.106" r="11.106" transform="translate(163.422 166.586)" fill="#c2ecfe"/>
            <circle id="Ellipse_52" data-name="Ellipse 52" cx="15.42" cy="15.42" r="15.42" transform="translate(423.568 122.497)" fill="#c2ecfe"/>
            <circle id="Ellipse_53" data-name="Ellipse 53" cx="8.032" cy="8.032" r="8.032" transform="translate(455.491 110.217)" fill="#c2ecfe"/>
            <circle id="Ellipse_54" data-name="Ellipse 54" cx="6.952" cy="6.952" r="6.952" transform="translate(487.253 155.371)" fill="#c2ecfe"/>
            <circle id="Ellipse_55" data-name="Ellipse 55" cx="4.633" cy="4.633" r="4.633" transform="translate(478.55 133.947)" fill="#c2ecfe"/>
            <circle id="Ellipse_56" data-name="Ellipse 56" cx="11.106" cy="11.106" r="11.106" transform="translate(456.114 147.814)" fill="#c2ecfe"/>
          </g>
          <g id="Group_12" data-name="Group 12" transform="translate(-87.851 42.83)">
            <path id="Path_170" data-name="Path 170" d="M526.747,333.625c-1.1,1.972-2.7,3.216-4.483,3.216s-3.38-1.244-4.483-3.216a7.017,7.017,0,0,1,1.062-2.15,4.1,4.1,0,0,1,4.381-1.776A5.5,5.5,0,0,1,526.747,333.625Z" transform="translate(179.41 124.277)" fill="#d93434"/>
            <path id="Path_168" data-name="Path 168" d="M541.972,336.024a14.562,14.562,0,0,0-24.192,0,13.059,13.059,0,0,0,24.192,0Z" transform="translate(171.798 127.913)" fill="#fb5454"/>
            <path id="Path_169" data-name="Path 169" d="M495.452,346.166a3.124,3.124,0,0,1-.6-.341,2.408,2.408,0,0,1-.662-.856,2.449,2.449,0,1,0-4,.594,2.729,2.729,0,0,0,.58.467,1.685,1.685,0,0,1,.652.682,4.926,4.926,0,0,0,1.132,1.487,9.9,9.9,0,0,0,1.552,1.092,22.621,22.621,0,0,0-1.276,6.672,9.225,9.225,0,0,0-2.6.42,4.192,4.192,0,0,0-1.2.6,2.888,2.888,0,0,0-.3-.021,2.453,2.453,0,1,0,2.3,3.316,1.566,1.566,0,0,1,1.266-1.023,5.739,5.739,0,0,1,.631-.041,21.967,21.967,0,0,0,2.917,9.1,7.156,7.156,0,0,0-2.712,3.7,1.022,1.022,0,0,0-.194.14,2.328,2.328,0,0,0-.287.266,2.449,2.449,0,1,0,4.11.8,1.607,1.607,0,0,1,.4-1.733,6.875,6.875,0,0,1,.58-.5c2.766,3.23,6.058,5.3,10.169,5.547V354.622A15.129,15.129,0,0,1,495.452,346.166Zm34.053,10.82a2.7,2.7,0,0,0-.3.02,4.624,4.624,0,0,0-1.2-.6,9.164,9.164,0,0,0-2.6-.42,23.113,23.113,0,0,0-1.276-6.669,9.9,9.9,0,0,0,1.552-1.092,5.316,5.316,0,0,0,1.173-1.559,1.439,1.439,0,0,1,.6-.6h0a2.449,2.449,0,1,0-3.411-1.081,2.326,2.326,0,0,1-.662.856,6.433,6.433,0,0,1-.6.44,15.024,15.024,0,0,1-12.444,8.354v21.937c4.093-.246,7.406-2.326,10.169-5.546.215.171.4.324.549.467a1.658,1.658,0,0,1,.43,1.784,2.449,2.449,0,1,0,4.121-.795,2.327,2.327,0,0,0-.286-.266c-.113-.089-.194-.14-.194-.14a7.058,7.058,0,0,0-2.729-3.7,21.967,21.967,0,0,0,2.916-9.1,5.413,5.413,0,0,1,.6.041,1.637,1.637,0,0,1,1.313,1.023,2.449,2.449,0,0,0,4.724-.744,2.487,2.487,0,0,0-2.453-2.613Z" transform="translate(192.553 120.087)" fill="#fb5454"/>
          </g>
          <g id="Group_13" data-name="Group 13" transform="translate(281.356 -255.091) rotate(25)" style="isolation: isolate">
            <path id="Path_168-2" data-name="Path 168" d="M533.322,333.716a9.355,9.355,0,0,0-15.542,0,8.389,8.389,0,0,0,15.542,0Z" transform="translate(167.956 128.83)" fill="#9cd4ec"/>
            <path id="Path_169-2" data-name="Path 169" d="M492.172,344.478a2.006,2.006,0,0,1-.386-.219,1.547,1.547,0,0,1-.425-.55,1.573,1.573,0,1,0-2.568.381,1.753,1.753,0,0,0,.373.3,1.083,1.083,0,0,1,.419.438,3.163,3.163,0,0,0,.728.956,6.36,6.36,0,0,0,1,.7,14.532,14.532,0,0,0-.82,4.286,5.927,5.927,0,0,0-1.67.27,2.693,2.693,0,0,0-.774.386,1.853,1.853,0,0,0-.191-.013,1.576,1.576,0,1,0,1.475,2.13,1.006,1.006,0,0,1,.813-.657,3.688,3.688,0,0,1,.405-.026,14.113,14.113,0,0,0,1.874,5.845,4.6,4.6,0,0,0-1.742,2.38.657.657,0,0,0-.125.09,1.494,1.494,0,0,0-.184.171,1.573,1.573,0,1,0,2.641.515,1.032,1.032,0,0,1,.256-1.113,4.424,4.424,0,0,1,.372-.32,9.194,9.194,0,0,0,6.533,3.563v-14.08A9.719,9.719,0,0,1,492.172,344.478Zm21.877,6.951a1.737,1.737,0,0,0-.191.013,2.972,2.972,0,0,0-.774-.386,5.889,5.889,0,0,0-1.67-.27,14.851,14.851,0,0,0-.82-4.284,6.36,6.36,0,0,0,1-.7,3.415,3.415,0,0,0,.754-1,.924.924,0,0,1,.388-.384h0a1.573,1.573,0,1,0-2.191-.695,1.494,1.494,0,0,1-.425.55,4.13,4.13,0,0,1-.386.283,9.652,9.652,0,0,1-7.994,5.367v14.093a9.234,9.234,0,0,0,6.533-3.563c.138.11.254.208.353.3a1.065,1.065,0,0,1,.276,1.146,1.573,1.573,0,1,0,2.647-.511,1.492,1.492,0,0,0-.184-.171c-.072-.057-.125-.09-.125-.09a4.534,4.534,0,0,0-1.753-2.38,14.112,14.112,0,0,0,1.874-5.845,3.479,3.479,0,0,1,.388.026,1.052,1.052,0,0,1,.844.657,1.574,1.574,0,0,0,3.035-.478,1.6,1.6,0,0,0-1.576-1.679Z" transform="translate(192.553 119.556)" fill="#9cd4ec"/>
          </g>
          <g id="Group_20" data-name="Group 20" transform="translate(32.007 138.582)" opacity="0.3" style="isolation: isolate">
            <path id="Path_168-3" data-name="Path 168" d="M544.931,336.813a16.344,16.344,0,0,0-27.151,0,14.656,14.656,0,0,0,27.151,0Z" transform="translate(173.113 128.83)" fill="#9cd4ec"/>
            <path id="Path_169-3" data-name="Path 169" d="M496.574,346.743a3.506,3.506,0,0,1-.674-.383,2.7,2.7,0,0,1-.743-.961,2.749,2.749,0,1,0-4.487.666,3.065,3.065,0,0,0,.651.525,1.891,1.891,0,0,1,.731.766,5.526,5.526,0,0,0,1.271,1.669,11.111,11.111,0,0,0,1.742,1.225,25.389,25.389,0,0,0-1.432,7.488,10.355,10.355,0,0,0-2.917.471,4.7,4.7,0,0,0-1.352.674,3.234,3.234,0,0,0-.333-.023,2.753,2.753,0,1,0,2.577,3.721,1.757,1.757,0,0,1,1.42-1.149,6.432,6.432,0,0,1,.708-.046,24.656,24.656,0,0,0,3.273,10.211,8.032,8.032,0,0,0-3.044,4.158,1.149,1.149,0,0,0-.218.157,2.607,2.607,0,0,0-.322.3,2.749,2.749,0,1,0,4.613.9,1.8,1.8,0,0,1,.448-1.945,7.729,7.729,0,0,1,.651-.559c3.1,3.626,6.8,5.949,11.413,6.225v-24.6A16.98,16.98,0,0,1,496.574,346.743Zm38.22,12.144a3.035,3.035,0,0,0-.333.023,5.189,5.189,0,0,0-1.351-.674,10.289,10.289,0,0,0-2.917-.471,25.943,25.943,0,0,0-1.432-7.485,11.114,11.114,0,0,0,1.742-1.225,5.965,5.965,0,0,0,1.317-1.75,1.615,1.615,0,0,1,.678-.67h0a2.749,2.749,0,1,0-3.828-1.214,2.61,2.61,0,0,1-.743.961,7.2,7.2,0,0,1-.674.494,16.862,16.862,0,0,1-13.966,9.376v24.621c4.594-.276,8.312-2.611,11.413-6.225.241.191.444.364.616.525a1.861,1.861,0,0,1,.482,2,2.749,2.749,0,1,0,4.625-.892,2.609,2.609,0,0,0-.322-.3c-.126-.1-.218-.157-.218-.157a7.921,7.921,0,0,0-3.063-4.158,24.654,24.654,0,0,0,3.273-10.21,6.076,6.076,0,0,1,.678.046,1.838,1.838,0,0,1,1.474,1.149,2.749,2.749,0,0,0,5.3-.835,2.791,2.791,0,0,0-2.753-2.933Z" transform="translate(192.553 121.5)" fill="#9cd4ec"/>
          </g>
          <g id="Group_14" data-name="Group 14" transform="translate(-289.675 659.925) rotate(-49)" style="isolation: isolate">
            <path id="Path_168-4" data-name="Path 168" d="M533.322,333.716a9.355,9.355,0,0,0-15.542,0,8.389,8.389,0,0,0,15.542,0Z" transform="translate(167.956 128.83)" fill="#9cd4ec"/>
            <path id="Path_169-4" data-name="Path 169" d="M492.172,344.478a2.006,2.006,0,0,1-.386-.219,1.547,1.547,0,0,1-.425-.55,1.573,1.573,0,1,0-2.568.381,1.753,1.753,0,0,0,.373.3,1.083,1.083,0,0,1,.419.438,3.163,3.163,0,0,0,.728.956,6.36,6.36,0,0,0,1,.7,14.532,14.532,0,0,0-.82,4.286,5.927,5.927,0,0,0-1.67.27,2.693,2.693,0,0,0-.774.386,1.853,1.853,0,0,0-.191-.013,1.576,1.576,0,1,0,1.475,2.13,1.006,1.006,0,0,1,.813-.657,3.688,3.688,0,0,1,.405-.026,14.113,14.113,0,0,0,1.874,5.845,4.6,4.6,0,0,0-1.742,2.38.657.657,0,0,0-.125.09,1.494,1.494,0,0,0-.184.171,1.573,1.573,0,1,0,2.641.515,1.032,1.032,0,0,1,.256-1.113,4.424,4.424,0,0,1,.372-.32,9.194,9.194,0,0,0,6.533,3.563v-14.08A9.719,9.719,0,0,1,492.172,344.478Zm21.877,6.951a1.737,1.737,0,0,0-.191.013,2.972,2.972,0,0,0-.774-.386,5.889,5.889,0,0,0-1.67-.27,14.851,14.851,0,0,0-.82-4.284,6.36,6.36,0,0,0,1-.7,3.415,3.415,0,0,0,.754-1,.924.924,0,0,1,.388-.384h0a1.573,1.573,0,1,0-2.191-.695,1.494,1.494,0,0,1-.425.55,4.13,4.13,0,0,1-.386.283,9.652,9.652,0,0,1-7.994,5.367v14.093a9.234,9.234,0,0,0,6.533-3.563c.138.11.254.208.353.3a1.065,1.065,0,0,1,.276,1.146,1.573,1.573,0,1,0,2.647-.511,1.492,1.492,0,0,0-.184-.171c-.072-.057-.125-.09-.125-.09a4.534,4.534,0,0,0-1.753-2.38,14.112,14.112,0,0,0,1.874-5.845,3.479,3.479,0,0,1,.388.026,1.052,1.052,0,0,1,.844.657,1.574,1.574,0,0,0,3.035-.478,1.6,1.6,0,0,0-1.576-1.679Z" transform="translate(192.553 119.556)" fill="#9cd4ec"/>
          </g>
          <path id="Path_158" data-name="Path 158" d="M325.667,290.117H173.751a3,3,0,0,1-2.272-4.96l45.721-53h159.84l-49.1,56.92A3,3,0,0,1,325.667,290.117Z" transform="translate(315.181 306.865)" fill="#3ba0dc"/>
        </g>
      </g>
    </g>
  </g>
</svg>
