<svg xmlns="http://www.w3.org/2000/svg" width="118.924" height="128.748" viewBox="0 0 118.924 128.748">
  <g id="Group_10" data-name="Group 10" transform="translate(-849.538 -254.252)">
    <g id="Group_8" data-name="Group 8">
      <g id="Group_7" data-name="Group 7">
        <g id="Group_5" data-name="Group 5" transform="translate(10.939 -117)">
          <path id="Path_18" data-name="Path 18" d="M503.876,178.114l-4.705.113-.113-4.705a1.569,1.569,0,1,0-3.137.075l.113,4.705-4.705.113a1.569,1.569,0,0,0,.075,3.137l4.705-.113.113,4.705a1.569,1.569,0,1,0,3.137-.075l-.113-4.705,4.705-.113a1.569,1.569,0,0,0-.075-3.137Z" transform="translate(420.592 273.662)" fill="#fff"/>
          <path id="Path_26" data-name="Path 26" d="M537.041,434.021a3.02,3.02,0,0,0-2.989-2.612H498.28l.535.852,3.26,5.185h31.978a2.986,2.986,0,0,0,1.751-.563,3.016,3.016,0,0,0,1.266-2.457,2.89,2.89,0,0,0-.028-.4Z" transform="translate(395.985 9.225)" fill="#fff"/>
          <path id="Path_31" data-name="Path 31" d="M531.984,443.9l-1.443-.563-6.031-2.354a3.015,3.015,0,0,0-4.081,2.354,2.873,2.873,0,0,0-.034.563.342.342,0,0,0,0,.059h11.737Z" transform="translate(380.75 2.774)" fill="#fff"/>
          <g id="Group_4" data-name="Group 4">
            <path id="Path_66" data-name="Path 66" d="M796.995,211.654H683.412c-1.475,0-2.67,1.6-2.67,3.576v121.6c0,1.975,1.2,3.576,2.67,3.576H796.995c1.475,0,2.67-1.6,2.67-3.576V215.231C799.665,213.256,798.469,211.655,796.995,211.654Z" transform="translate(157.857 159.598)" fill="#fff"/>
            <path id="Path_67" data-name="Path 67" d="M796.995,211.654H683.412c-1.475,0-2.67,1.6-2.67,3.576v121.6c0,1.975,1.2,3.576,2.67,3.576H796.995c1.475,0,2.67-1.6,2.67-3.576V215.231C799.665,213.256,798.469,211.655,796.995,211.654Zm1.6,125.172c0,1.184-.718,2.144-1.6,2.146H683.412c-.884,0-1.6-.961-1.6-2.146V215.231c0-1.184.718-2.144,1.6-2.146H796.995c.884,0,1.6.961,1.6,2.146Z" transform="translate(157.857 159.598)" fill="#bbb"/>
            <path id="b7b74475-3363-467c-a0a1-8003b6263e2a" d="M766.33,333.356a2.835,2.835,0,1,0,0,5.671H837.42a2.836,2.836,0,1,0,.093-5.671H766.33Z" transform="translate(96.15 110.294)" fill="#cacaca"/>
            <path id="b7b74475-3363-467c-a0a1-8003b6263e2a-2" data-name="b7b74475-3363-467c-a0a1-8003b6263e2a" d="M766.33,379.606a2.836,2.836,0,1,0,0,5.671H837.42a2.836,2.836,0,1,0,.093-5.671H766.33Z" transform="translate(96.15 81.175)" fill="#cacaca"/>
            <path id="b7b74475-3363-467c-a0a1-8003b6263e2a-3" data-name="b7b74475-3363-467c-a0a1-8003b6263e2a" d="M766.33,425.856a2.836,2.836,0,1,0,0,5.671H837.42a2.836,2.836,0,0,0,.093-5.671H766.33Z" transform="translate(96.15 52.056)" fill="#cacaca"/>
          </g>
          <g id="Group_3" data-name="Group 3" transform="translate(-1395.441 332.014) rotate(-21)">
            <path id="Path_63" data-name="Path 63" d="M499.5,446.241q-.338.213-.7.4a8.278,8.278,0,0,1-11.106-3.659l-1.783-3.536,1.2-.6,1.783,3.536a6.928,6.928,0,1,0,12.372-6.239l-7.49-14.851a6.928,6.928,0,1,0-12.372,6.239l2.652,5.258-1.2.6-2.652-5.258a8.269,8.269,0,0,1,14.766-7.446l7.49,14.851a8.27,8.27,0,0,1-2.96,10.711Z" transform="translate(1619.5 453.355)" fill="#6c63ff" stroke="#6c63ff" stroke-width="1"/>
            <path id="Path_64" data-name="Path 64" d="M502.224,514.6q-.333.21-.691.391a8.278,8.278,0,0,1-11.106-3.659l-7.49-14.851a8.268,8.268,0,1,1,14.766-7.446l1.967,3.9-1.2.6-1.967-3.9a6.928,6.928,0,0,0-12.372,6.239l7.49,14.851A6.928,6.928,0,1,0,504,504.489l-2.578-5.112,1.2-.6,2.578,5.112A8.28,8.28,0,0,1,502.224,514.6Z" transform="translate(1617.5 403.325)" fill="#6c63ff" stroke="#6c63ff" stroke-width="1"/>
          </g>
        </g>
      </g>
    </g>
  </g>
</svg>
