<svg xmlns="http://www.w3.org/2000/svg" width="119.692" height="96.358" viewBox="0 0 119.692 96.358">
  <g id="Group_17" data-name="Group 17" transform="translate(-916.104 -452.071)">
    <g id="Group_14" data-name="Group 14">
      <g id="Group_10" data-name="Group 10" transform="translate(175)">
        <g id="Group_8" data-name="Group 8" transform="translate(354.104 285.071)">
          <g id="Group_5" data-name="Group 5" transform="translate(387 167)">
            <path id="Path_217" data-name="Path 217" d="M531.34,163.3H504.277a2.553,2.553,0,0,1-1.674-.632l-11.147-9.831a2.092,2.092,0,0,0-1.386-.524h-9.62v-33.18a2.388,2.388,0,0,1,2.385-2.385h46.119a2.388,2.388,0,0,1,2.385,2.385Z" transform="translate(-437.888 -116.75)" fill="#e6e6e6"/>
            <circle id="Ellipse_24" data-name="Ellipse 24" cx="5.06" cy="5.06" r="5.06" transform="translate(48.562 5.277)" fill="#fff"/>
            <path id="Path_218" data-name="Path 218" d="M633.5,169.5h-9.4a.651.651,0,0,0,0,1.3h9.4a.651.651,0,0,0,0-1.3Z" transform="translate(-560.214 -161.874)" fill="#fff"/>
            <path id="Path_219" data-name="Path 219" d="M647.14,198H623.976a.665.665,0,0,0,0,1.3H647.14a.665.665,0,0,0,0-1.3Z" transform="translate(-560.213 -186.253)" fill="#fff"/>
            <path id="Path_220" data-name="Path 220" d="M569.4,258.25H535.2a.672.672,0,0,0,0,1.3h34.2a.672.672,0,0,0,0-1.3Z" transform="translate(-484.295 -237.793)" fill="#fff"/>
            <path id="Path_221" data-name="Path 221" d="M569.4,286.25H535.2a.672.672,0,0,0,0,1.3h34.2a.672.672,0,0,0,0-1.3Z" transform="translate(-484.295 -261.745)" fill="#fff"/>
            <path id="Path_222" data-name="Path 222" d="M569.4,314.25H535.2a.672.672,0,0,0,0,1.3h34.2a.672.672,0,0,0,0-1.3Z" transform="translate(-484.295 -285.697)" fill="#fff"/>
            <path id="Path_223" data-name="Path 223" d="M569.4,342.25H535.2a.672.672,0,0,0,0,1.3h34.2a.672.672,0,0,0,0-1.3Z" transform="translate(-484.295 -309.649)" fill="#fff"/>
            <path id="Path_224" data-name="Path 224" d="M686.34,222.327H636.868a2.512,2.512,0,0,1-1.386-.414l-.033-.021V188.135a2.388,2.388,0,0,1,2.385-2.385h46.119a2.388,2.388,0,0,1,2.385,2.385Z" transform="translate(-570.479 -175.774)" fill="#45c2f9"/>
            <circle id="Ellipse_25" data-name="Ellipse 25" cx="5.06" cy="5.06" r="5.06" transform="translate(70.971 15.252)" fill="#fff"/>
            <path id="Path_225" data-name="Path 225" d="M788.5,238.5h-9.4a.651.651,0,0,0,0,1.3h9.4a.651.651,0,0,0,0-1.3Z" transform="translate(-692.805 -220.898)" fill="#fff"/>
            <path id="Path_226" data-name="Path 226" d="M802.14,267H778.976a.665.665,0,0,0,0,1.3H802.14a.665.665,0,0,0,0-1.3Z" transform="translate(-692.805 -245.278)" fill="#fff"/>
            <path id="Path_227" data-name="Path 227" d="M724.4,327.25H690.2a.672.672,0,0,0,0,1.3h34.2a.672.672,0,0,0,0-1.3Z" transform="translate(-616.886 -296.817)" fill="#fff"/>
            <path id="Path_228" data-name="Path 228" d="M724.4,355.25H690.2a.672.672,0,0,0,0,1.3h34.2a.672.672,0,0,0,0-1.3Z" transform="translate(-616.886 -320.769)" fill="#fff"/>
            <path id="Path_229" data-name="Path 229" d="M724.4,383.25H690.2a.672.672,0,0,0,0,1.3h34.2a.672.672,0,0,0,0-1.3Z" transform="translate(-616.886 -344.721)" fill="#fff"/>
            <path id="Path_230" data-name="Path 230" d="M724.4,411.25H690.2a.672.672,0,0,0,0,1.3h34.2a.672.672,0,0,0,0-1.3Z" transform="translate(-616.886 -368.673)" fill="#fff"/>
            <path id="Path_231" data-name="Path 231" d="M523.9,371.238H473.054a2.161,2.161,0,0,1-1.346-.468c-.03-.023-.059-.048-.088-.074l-4.3-3.8-6.844-6.036a2.454,2.454,0,0,0-1.625-.614H446.408a2.461,2.461,0,0,0-2.458,2.458v56.239a2.461,2.461,0,0,0,2.458,2.458H523.9a2.461,2.461,0,0,0,2.458-2.458V373.7A2.461,2.461,0,0,0,523.9,371.238Zm2.169,47.709a2.171,2.171,0,0,1-2.169,2.169H446.408a2.171,2.171,0,0,1-2.169-2.169V362.708a2.171,2.171,0,0,1,2.169-2.169h12.439a2.164,2.164,0,0,1,1.434.542l6.6,5.819,4.548,4.012a2.479,2.479,0,0,0,1.626.614H523.9a2.171,2.171,0,0,1,2.169,2.169Z" transform="translate(-406.665 -325.046)" fill="#3f3d56"/>
            <path id="Path_244" data-name="Path 244" d="M242.75,781.539h-22.7a.145.145,0,1,1,0-.289h22.7a.145.145,0,1,1,0,.289Z" transform="translate(-215.012 -685.181)" fill="#3f3d56"/>
            <path id="Path_215" data-name="Path 215" d="M323.434,484.487a1.017,1.017,0,0,1-.31-.049,1,1,0,0,1-.592-.5l-.978-1.9a1.013,1.013,0,0,1,.436-1.363l15.807-8.15a1.013,1.013,0,0,1,1.363.436l.978,1.9a1.013,1.013,0,0,1-.436,1.363l-15.807,8.15A1,1,0,0,1,323.434,484.487Z" transform="translate(-301.868 -420.997)" fill="#fed6ad"/>
            <path id="Path_216" data-name="Path 216" d="M329.214,502.338a1.017,1.017,0,0,1,.107.187l1.67,3.648a1.012,1.012,0,0,1-.517,1.335l-5.618,1.964a2.528,2.528,0,0,1-3.1-1.278l.065-.032-.065.032a2.526,2.526,0,0,1,1.049-3.318l5.18-2.864A1.014,1.014,0,0,1,329.214,502.338Z" transform="translate(-301.914 -446.236)" fill="#4ac7c7"/>
            <path id="Path_290" data-name="Path 290" d="M7.737,0A7.737,7.737,0,1,1,0,7.737,7.737,7.737,0,0,1,7.737,0Z" transform="translate(7.19 39.404)" fill="#fed6ad"/>
            <path id="Path_232" data-name="Path 232" d="M270.258,665.462h-2.134a1.013,1.013,0,0,1-1.012-1.012V646.666a1.013,1.013,0,0,1,1.012-1.012h2.134a1.013,1.013,0,0,1,1.012,1.012V664.45a1.013,1.013,0,0,1-1.012,1.012Z" transform="translate(-255.393 -569.189)" fill="#fed6ad"/>
            <path id="Path_233" data-name="Path 233" d="M302.258,665.462h-2.134a1.013,1.013,0,0,1-1.012-1.012V646.666a1.013,1.013,0,0,1,1.012-1.012h2.134a1.013,1.013,0,0,1,1.012,1.012V664.45a1.013,1.013,0,0,1-1.012,1.012Z" transform="translate(-282.766 -569.189)" fill="#fed6ad"/>
            <path id="Path_234" data-name="Path 234" d="M239.31,524.479c0,6.308-5.933,8.343-12.241,8.343s-10.6-2.035-10.6-8.343,4.246-17.06,10.554-17.06S239.31,518.171,239.31,524.479Z" transform="translate(-212.07 -450.939)" fill="#71d8d7"/>
            <g id="Group_11" data-name="Group 11">
              <path id="Path_235" data-name="Path 235" d="M288.131,433.533l-.008-.289a2.391,2.391,0,0,0,1.368-.309.889.889,0,0,0,.344-.655.508.508,0,0,0-.167-.418.876.876,0,0,0-.895-.008l-.239.11.459-3.353.286.039-.39,2.852a1.021,1.021,0,0,1,.965.139.791.791,0,0,1,.269.649,1.176,1.176,0,0,1-.463.878A2.661,2.661,0,0,1,288.131,433.533Z" transform="translate(-273.366 -383.524)"/>
              <rect id="Rectangle_16" data-name="Rectangle 16" width="1.557" height="0.289" transform="translate(17.331 45.372)"/>
              <rect id="Rectangle_17" data-name="Rectangle 17" width="1.557" height="0.289" transform="translate(12.416 45.372)"/>
            </g>
            <path id="Path_241" data-name="Path 241" d="M194.8,360.8a3.5,3.5,0,0,1,2.7-1.383,12.391,12.391,0,0,1,3.458.342,9.227,9.227,0,0,0,3.872.163,3.817,3.817,0,0,0,2.595-2.1,4.882,4.882,0,0,0,.284-3.255,5.918,5.918,0,0,0-1.936-2.938,9.927,9.927,0,0,0-6.693-2.2,11.316,11.316,0,0,0-6.56,2.307,10.655,10.655,0,0,0-3.78,5.923,11.107,11.107,0,0,0,.538,6.986c.522,1.21,1.276,2.3,1.858,3.48a5.177,5.177,0,0,1,.622,3.6,3.339,3.339,0,0,1-2.255,2.322,2.368,2.368,0,0,1-2.634-1.075,1.981,1.981,0,0,1,3.159-2.391,2.068,2.068,0,0,1,.414,1.516c-.04.273.378.391.418.115a2.447,2.447,0,0,0-4.562-1.58,2.643,2.643,0,0,0,.4,2.841,2.769,2.769,0,0,0,2.823,1.015,3.738,3.738,0,0,0,2.513-2.235,4.824,4.824,0,0,0-.212-3.66c-.515-1.244-1.279-2.36-1.884-3.559a10.136,10.136,0,0,1-1.028-3.463,10.957,10.957,0,0,1,1.563-6.941,10.184,10.184,0,0,1,5.609-4.263,10.643,10.643,0,0,1,7.043.186c2.2.868,4.332,2.761,4.306,5.3a3.908,3.908,0,0,1-1.246,2.917,4.651,4.651,0,0,1-3.627.8c-1.257-.136-2.478-.5-3.741-.6a5.843,5.843,0,0,0-3.264.549,3.263,3.263,0,0,0-1.134,1.052c-.155.233.221.451.375.219Z" transform="translate(-186.05 -315.789)"/>
            <path id="Path_242" data-name="Path 242" d="M212.7,561.05a1.017,1.017,0,0,1-.153-.012l-2.109-.321a1.013,1.013,0,0,1-.848-1.153l2.676-17.582a1.013,1.013,0,0,1,1.153-.848l2.11.321a1.013,1.013,0,0,1,.848,1.153L213.7,560.19a1.014,1.014,0,0,1-1,.86Z" transform="translate(-206.176 -479.77)" fill="#fed6ad"/>
            <path id="Path_243" data-name="Path 243" d="M219.336,539.766a1.018,1.018,0,0,1-.215-.023l-3.933-.791a1.012,1.012,0,0,1-.777-1.2l1.712-5.7a2.528,2.528,0,0,1,2.859-1.762l-.013.071.013-.071a2.526,2.526,0,0,1,2.069,2.8l-.726,5.875A1.014,1.014,0,0,1,219.336,539.766Z" transform="translate(-210.291 -470.468)" fill="#4ac7c7"/>
          </g>
          <g id="Group_7" data-name="Group 7" transform="translate(448.147 220.318)">
            <path id="Path_268" data-name="Path 268" d="M434.834,407.664a.313.313,0,0,1-.313-.313c0-3.265-1.431-5.085-3.74-6.966a.313.313,0,1,1,.4-.486c2.452,2,3.971,3.939,3.971,7.451a.313.313,0,0,1-.313.313Z" transform="translate(-403.677 -372.171)"/>
            <path id="Path_269" data-name="Path 269" d="M357.63,407.664a.313.313,0,0,1-.313-.313c0-3.512,1.519-5.455,3.971-7.451a.313.313,0,1,1,.4.486c-2.309,1.88-3.74,3.7-3.74,6.966a.313.313,0,0,1-.313.313Z" transform="translate(-353.294 -372.171)"/>
            <path id="Path_270" data-name="Path 270" d="M434.726,337.3a.313.313,0,0,1-.2-.556c2.374-1.932,2.567-4.677,2.567-7.8a.313.313,0,1,1,.626,0c0,3.289-.21,6.183-2.8,8.289a.311.311,0,0,1-.2.07Z" transform="translate(-406.251 -323.259)"/>
            <path id="Path_271" data-name="Path 271" d="M360.311,337.128a.311.311,0,0,1-.2-.07c-2.587-2.106-2.8-4.924-2.8-8.121a.313.313,0,1,1,.626,0c0,3.142.189,5.7,2.567,7.636a.313.313,0,0,1-.2.556Z" transform="translate(-353.293 -323.259)"/>
            <path id="Path_272" data-name="Path 272" d="M441.431,376.4h-6.705a.313.313,0,1,1,0-.626h6.705a.313.313,0,1,1,0,.626Z" transform="translate(-406.251 -355.646)"/>
            <path id="Path_273" data-name="Path 273" d="M351.485,376.4H344.78a.313.313,0,1,1,0-.626h6.705a.313.313,0,1,1,0,.626Z" transform="translate(-344.467 -355.646)"/>
            <path id="Path_274" data-name="Path 274" d="M400.461,372.122a.313.313,0,0,1-.313-.313V350.352a.313.313,0,1,1,.626,0v21.457a.313.313,0,0,1-.313.313Z" transform="translate(-382.714 -337.97)"/>
            <path id="Path_275" data-name="Path 275" d="M376.924,360.34A11.054,11.054,0,0,1,365.883,349.3v-8.052c0-5.156,4.231-8.359,11.041-8.359,7.12,0,11.041,2.969,11.041,8.359V349.3A11.054,11.054,0,0,1,376.924,360.34Zm0-26.827c-5.035,0-10.415,2.031-10.415,7.733V349.3a10.415,10.415,0,0,0,20.83,0v-8.052c0-6.728-6.526-7.733-10.415-7.733Z" transform="translate(-359.178 -326.188)"/>
            <path id="Path_276" data-name="Path 276" d="M379.334,320.124a.313.313,0,0,1-.291-.2,4.41,4.41,0,0,1-.309-1.419,7.037,7.037,0,0,1,7-7.016h.036a7.034,7.034,0,0,1,7,7,3.828,3.828,0,0,1-.285,1.318.313.313,0,0,1-.579-.238,3.192,3.192,0,0,0,.238-1.092,6.4,6.4,0,0,0-6.376-6.362h-.034a6.406,6.406,0,0,0-6.375,6.375,3.781,3.781,0,0,0,.265,1.2.313.313,0,0,1-.291.429Z" transform="translate(-368.005 -311.491)"/>
          </g>
        </g>
      </g>
    </g>
  </g>
</svg>
