<svg xmlns="http://www.w3.org/2000/svg" width="200" height="200" viewBox="0 0 200 200">
  <g id="Group_6" data-name="Group 6" transform="translate(-856 -276)">
    <g id="Group_3" data-name="Group 3">
      <circle id="Ellipse_5" data-name="Ellipse 5" cx="100" cy="100" r="100" transform="translate(856 276)" fill="#f6f6f6"/>
      <g id="Group_1" data-name="Group 1" transform="translate(864.29 291.502)">
        <path id="Path_1" data-name="Path 1" d="M313.506,99.464l-6.641,1.713-81.817,21.1-6.641,1.713a12.574,12.574,0,0,0-9.025,15.3l28.8,111.665a12.574,12.574,0,0,0,15.3,9.025l.017,0,95.064-24.515.017,0a12.574,12.574,0,0,0,9.025-15.3L328.8,108.489A12.574,12.574,0,0,0,313.506,99.464Z" transform="translate(-208.978 -99.06)" fill="#f2f2f2"/>
        <path id="Path_2" data-name="Path 2" d="M324.647,113.2l-7.866,2.028L237.414,135.7l-7.866,2.028a8.954,8.954,0,0,0-6.427,10.894l28.8,111.665a8.954,8.954,0,0,0,10.894,6.427l.017,0,95.064-24.515.017,0a8.954,8.954,0,0,0,6.427-10.894l-28.8-111.665A8.954,8.954,0,0,0,324.647,113.2Z" transform="translate(-219.216 -109.298)" fill="#fff"/>
        <path id="Path_3" data-name="Path 3" d="M446.6,240.9l-48.091,12.4a2.092,2.092,0,0,1-1.045-4.051l48.091-12.4a2.091,2.091,0,1,1,1.045,4.05Z" transform="translate(-347.113 -200.839)" fill="#f2f2f2"/>
        <path id="Path_4" data-name="Path 4" d="M461.713,258.84,405.268,273.4a2.091,2.091,0,0,1-1.045-4.05l56.445-14.556a2.092,2.092,0,1,1,1.045,4.05Z" transform="translate(-352.105 -214.094)" fill="#f2f2f2"/>
        <path id="Path_5" data-name="Path 5" d="M476.873,358.278l-48.091,12.4a2.092,2.092,0,0,1-1.045-4.051l48.091-12.4a2.091,2.091,0,1,1,1.044,4.05Z" transform="translate(-369.482 -287.581)" fill="#f2f2f2"/>
        <path id="Path_6" data-name="Path 6" d="M491.981,376.214,435.536,390.77a2.091,2.091,0,0,1-1.045-4.05l56.445-14.556a2.091,2.091,0,1,1,1.044,4.05Z" transform="translate(-374.474 -300.836)" fill="#f2f2f2"/>
        <path id="Path_7" data-name="Path 7" d="M507.142,475.651l-48.091,12.4a2.091,2.091,0,1,1-1.045-4.05L506.1,471.6a2.091,2.091,0,0,1,1.045,4.05Z" transform="translate(-391.852 -374.323)" fill="#f2f2f2"/>
        <path id="Path_8" data-name="Path 8" d="M522.25,493.587,465.8,508.143a2.091,2.091,0,0,1-1.045-4.05l56.445-14.556a2.091,2.091,0,1,1,1.044,4.05Z" transform="translate(-396.843 -387.578)" fill="#f2f2f2"/>
        <path id="Path_9" data-name="Path 9" d="M311.653,300.32l-17.019,4.389a1,1,0,0,1-1.222-.721l-3.907-15.149a1,1,0,0,1,.721-1.221l17.019-4.389a1,1,0,0,1,1.222.721l3.907,15.149A1,1,0,0,1,311.653,300.32Z" transform="translate(-268.462 -235.137)" fill="#e6e6e6"/>
        <path id="Path_10" data-name="Path 10" d="M341.922,417.693,324.9,422.082a1,1,0,0,1-1.222-.721l-3.907-15.149a1,1,0,0,1,.721-1.221l17.019-4.389a1,1,0,0,1,1.222.721l3.907,15.149A1,1,0,0,1,341.922,417.693Z" transform="translate(-290.831 -321.879)" fill="#e6e6e6"/>
        <path id="Path_11" data-name="Path 11" d="M372.189,535.067l-17.019,4.389a1,1,0,0,1-1.222-.721l-3.907-15.149a1,1,0,0,1,.721-1.221l17.019-4.389A1,1,0,0,1,369,518.7l3.907,15.149A1,1,0,0,1,372.189,535.067Z" transform="translate(-313.2 -408.621)" fill="#e6e6e6"/>
        <path id="Path_12" data-name="Path 12" d="M549.962,209.052h-98.21a12.574,12.574,0,0,0-12.559,12.559V336.93a12.574,12.574,0,0,0,12.559,12.559h98.21a12.574,12.574,0,0,0,12.559-12.559V221.611A12.574,12.574,0,0,0,549.962,209.052Z" transform="translate(-379.108 -180.342)" fill="#e6e6e6"/>
        <path id="Path_13" data-name="Path 13" d="M560.2,222.906h-98.21a8.954,8.954,0,0,0-8.944,8.944V347.169a8.954,8.954,0,0,0,8.944,8.944H560.2a8.954,8.954,0,0,0,8.944-8.944V231.85A8.954,8.954,0,0,0,560.2,222.906Z" transform="translate(-389.347 -190.581)" fill="#fff"/>
        <path id="Path_15" data-name="Path 15" d="M660.441,453.871H610.776a2.091,2.091,0,1,1,0-4.183h49.664a2.091,2.091,0,1,1,0,4.183Z" transform="translate(-504.367 -358.178)" fill="#e6e6e6"/>
        <path id="Path_16" data-name="Path 16" d="M669.068,480.918H610.776a2.091,2.091,0,0,1,0-4.183h58.292a2.091,2.091,0,1,1,0,4.183Z" transform="translate(-504.367 -378.167)" fill="#e6e6e6"/>
        <path id="Path_17" data-name="Path 17" d="M660.441,575.084H610.776a2.091,2.091,0,0,1,0-4.183h49.664a2.091,2.091,0,0,1,0,4.183Z" transform="translate(-504.367 -447.758)" fill="#e6e6e6"/>
        <path id="Path_18" data-name="Path 18" d="M669.068,602.132H610.776a2.091,2.091,0,0,1,0-4.183h58.292a2.091,2.091,0,0,1,0,4.183Z" transform="translate(-504.367 -467.747)" fill="#e6e6e6"/>
        <path id="Path_19" data-name="Path 19" d="M521.46,455.06H503.884a1,1,0,0,1-1-1V438.412a1,1,0,0,1,1-1H521.46a1,1,0,0,1,1,1v15.645A1,1,0,0,1,521.46,455.06Z" transform="translate(-426.175 -349.104)" fill="#e6e6e6"/>
        <path id="Path_20" data-name="Path 20" d="M521.46,576.273H503.884a1,1,0,0,1-1-1V559.625a1,1,0,0,1,1-1H521.46a1,1,0,0,1,1,1V575.27A1,1,0,0,1,521.46,576.273Z" transform="translate(-426.175 -438.683)" fill="#e6e6e6"/>
        <path id="Path_21" data-name="Path 21" d="M697.6,318.936H660.987a2.091,2.091,0,1,1,0-4.183H697.6a2.091,2.091,0,1,1,0,4.183Z" transform="translate(-541.474 -258.458)" fill="#ccc"/>
        <path id="Path_22" data-name="Path 22" d="M706.23,345.984H660.987a2.091,2.091,0,1,1,0-4.183H706.23a2.091,2.091,0,1,1,0,4.183Z" transform="translate(-541.474 -278.447)" fill="#ccc"/>
        <path id="Path_23" data-name="Path 23" d="M537.429,310.325H503.673a1,1,0,0,1-1-1V282.977a1,1,0,0,1,1-1h33.756a1,1,0,0,1,1,1v26.345a1,1,0,0,1-1,1Z" transform="translate(-426.019 -234.234)" fill="#6c63ff"/>
      </g>
    </g>
  </g>
</svg>
