<svg xmlns="http://www.w3.org/2000/svg" width="174.582" height="32" viewBox="0 0 174.582 32">
  <g id="Group_1919" data-name="Group 1919" transform="translate(-509 -622)">
    <g id="Group_1918" data-name="Group 1918">
      <g id="Group_99" data-name="Group 99" transform="translate(0.082 66)">
        <g id="Group_1917" data-name="Group 1917">
          <g id="Ellipse_37" data-name="Ellipse 37" transform="translate(579.921 556)" fill="#fff" stroke="rgba(141,141,141,0.7)" stroke-width="0.5" stroke-dasharray="2 1">
            <circle cx="16" cy="16" r="16" stroke="none"/>
            <circle cx="16" cy="16" r="15.75" fill="none"/>
          </g>
          <path id="Path_730" data-name="Path 730" d="M-2.668.176q-1.426,0-1.426-2.535a7.542,7.542,0,0,1,.66-3.164q.715-1.582,1.863-1.582a1.311,1.311,0,0,1,.84.32.239.239,0,0,1,.07.16q0,.191-.129.191a.7.7,0,0,1-.184-.082,1.485,1.485,0,0,0-.723-.2,1.294,1.294,0,0,0-.961.627,5.008,5.008,0,0,0-.777,1.611,6.712,6.712,0,0,0-.3,1.945q0,1.855.688,2.246a.921.921,0,0,0,.441.09A1.422,1.422,0,0,0-2.02-.328,3.1,3.1,0,0,0-.609-1.961,7.96,7.96,0,0,0-.062-3.633,8.292,8.292,0,0,0,.125-5.35,3.3,3.3,0,0,0-.184-6.812a.965.965,0,0,0-.578-.547q-.18-.047-.342-.078a2.045,2.045,0,0,1-.275-.07q-.113-.039-.113-.117,0-.148.2-.176Q.273-7.8.465-5.75A7.476,7.476,0,0,1,.5-5,7.209,7.209,0,0,1,.268-3.225a7.136,7.136,0,0,1-.66,1.693A4.061,4.061,0,0,1-1.4-.289,1.989,1.989,0,0,1-2.668.176Zm4.6-3.824q0-.238.133-.238a.151.151,0,0,1,.1.023.962.962,0,0,0,.088.072.789.789,0,0,0,.367.049,1.348,1.348,0,0,0,.629-.172,1.833,1.833,0,0,0,.564-.461,2.234,2.234,0,0,0,.5-1.457A1.89,1.89,0,0,0,4-6.943.975.975,0,0,0,3.164-7.4a2.373,2.373,0,0,0-.625.063L1.063-.121A.2.2,0,0,1,.84.016Q.66.016.66-.113a.321.321,0,0,1,.012-.08Q.684-.238.719-.414.8-.855,1.3-3.232t.846-3.92a2.186,2.186,0,0,0-.281.223.216.216,0,0,1-.082.148.259.259,0,0,1-.172.063l-.1-.023a.17.17,0,0,1-.109-.164.513.513,0,0,1,.256-.4A1.862,1.862,0,0,1,2.3-7.594q.141-.336.258-.336.094,0,.141.266a2.321,2.321,0,0,1,.32-.023,1.467,1.467,0,0,1,1.27.594,2.174,2.174,0,0,1,.355,1.3,2.524,2.524,0,0,1-.611,1.732,2.159,2.159,0,0,1-1.709.693A7.7,7.7,0,0,0,2.777-.762a4.214,4.214,0,0,0,1.6,2.207,3.4,3.4,0,0,0,1.934.547,3.15,3.15,0,0,0,2.035-.75q.277-.23.578-.5a.139.139,0,0,1,.1-.031.128.128,0,0,1,.145.145.255.255,0,0,1-.062.16,4.866,4.866,0,0,1-1.16.918A3.617,3.617,0,0,1,6.2,2.352a3.577,3.577,0,0,1-1.893-.562A5.078,5.078,0,0,1,2.125-1.656,9.4,9.4,0,0,1,1.934-3.648Z" transform="translate(593.952 575)" fill="#8d8d8d" stroke="#8d8d8d" stroke-width="0.5"/>
          <line id="Line_2" data-name="Line 2" x2="65.582" transform="translate(617.918 572.035)" fill="none" stroke="#8d8d8d" stroke-width="0.5" stroke-dasharray="2"/>
          <line id="Line_3" data-name="Line 3" x2="65.582" transform="translate(508.918 572.035)" fill="none" stroke="#8d8d8d" stroke-width="0.5" stroke-dasharray="2"/>
        </g>
      </g>
    </g>
  </g>
</svg>
