<svg xmlns="http://www.w3.org/2000/svg" width="657.631" height="639.281" viewBox="0 0 657.631 639.281">
  <g id="Group_46" data-name="Group 46" transform="translate(-419 -152.904)">
    <g id="Group_45" data-name="Group 45">
      <g id="Group_44" data-name="Group 44">
        <path id="Path_210" data-name="Path 210" d="M420.576,164.024a38.407,38.407,0,0,0-71.806-10.258,30.738,30.738,0,0,0,3.335,61.3h66.677a25.722,25.722,0,0,0,25.645-25.645A25.332,25.332,0,0,0,420.576,164.024Z" transform="translate(383.423 259.849)" fill="#6c63ff"/>
        <path id="Path_27" data-name="Path 27" d="M367.793,608.641v2.081a13.016,13.016,0,0,0,13,13H491.079a13.01,13.01,0,0,0,13-13v-2.081a12.911,12.911,0,0,0-3.018-8.323,13.384,13.384,0,0,0-2.2-2.081h-57.2a2.6,2.6,0,0,1-2.6-2.6H380.8a13.023,13.023,0,0,0-13,13Z" transform="translate(84.638 72.897)" fill="#3f3d56"/>
        <rect id="Rectangle_10" data-name="Rectangle 10" width="13.525" height="95.716" transform="translate(526.824 791.823) rotate(180)" fill="#3f3d56"/>
        <path id="Path_28" data-name="Path 28" d="M390.167,718.451c0,1.461,20.5.565,45.777.565s45.777.9,45.777-.565-20.5-13.05-45.777-13.05S390.167,716.99,390.167,718.451Z" transform="translate(84.638 72.897)" fill="#3f3d56"/>
        <path id="Path_29" data-name="Path 29" d="M389.017,606.446l46.152,7.366,53.622,8.562,18.592,2.965a6.826,6.826,0,0,0,7.8-5.66l.843-5.264.78-4.9.645-4.037a6.749,6.749,0,0,0-1.29-5.16,6.586,6.586,0,0,0-2.528-2.081H441.671a2.6,2.6,0,0,1-2.6-2.6v-2.049a2.6,2.6,0,0,1,2.6-2.6h28.278l-13.036-2.081-40.076-6.4-23.4-3.735a6.84,6.84,0,0,0-7.824,5.67l-2.268,14.191a6.853,6.853,0,0,0,5.67,7.813Z" transform="translate(84.638 72.897)" fill="#6c63ff"/>
        <path id="Path_30" data-name="Path 30" d="M488.79,604.47v79.288a6.824,6.824,0,0,0,6.814,6.815h14.389a6.824,6.824,0,0,0,6.815-6.815V604.47a6.726,6.726,0,0,0-1.425-4.151,6.576,6.576,0,0,0-2.643-2.081H492.848a6.613,6.613,0,0,0-2.632,2.081,6.745,6.745,0,0,0-1.426,4.151Z" transform="translate(84.638 72.897)" fill="#6c63ff"/>
        <path id="Path_31" data-name="Path 31" d="M445.427,470.269a6.868,6.868,0,0,0,.541,2.05,6.717,6.717,0,0,0,1.946,2.549l.031.021L489,508.191l.6.479,8.5,6.9,2.569,2.081h44.456l-2.559-2.081-35.134-28.507-23.544-19.1L465.569,453.1a6.747,6.747,0,0,0-3.766-1.5.033.033,0,0,0-.021-.01,6.913,6.913,0,0,0-1.228.021,6.555,6.555,0,0,0-1.779.437,5.008,5.008,0,0,0-1.1.562,6.569,6.569,0,0,0-1.7,1.488l-8.927,11-.135.177a6.764,6.764,0,0,0-1.488,4.993Z" transform="translate(84.638 72.897)" fill="#6c63ff"/>
        <path id="Path_32" data-name="Path 32" d="M447.945,474.889a16.869,16.869,0,0,0,3.319,5.233l27.331,29.36a6.814,6.814,0,0,0,9.644-.427l.76-.864.333-.375,11.808-13.244,5.077-5.7a5.989,5.989,0,0,0,.874-1.165c.125-.208.239-.427.343-.645a6.9,6.9,0,0,0,.572-3.09,6.723,6.723,0,0,0-2.237-4.755L474.079,455A16.973,16.973,0,0,0,461.8,451.6a.033.033,0,0,0-.021-.01,17.839,17.839,0,0,0-2.872.6c-.416.115-.821.26-1.238.416a16.769,16.769,0,0,0-6.918,4.89,16.987,16.987,0,0,0-2.809,17.385Z" transform="translate(84.638 72.897)" fill="#2f2e41"/>
        <circle id="Ellipse_19" data-name="Ellipse 19" cx="52.146" cy="52.146" r="52.146" transform="translate(467.459 396.029)" fill="#6c63ff"/>
        <path id="Path_33" data-name="Path 33" d="M421.082,599.257l19.341,3.08.437.073,29.4,4.692,18.529,2.965,27.238,4.349.78.125,4.047.645,18.592,2.965a6.826,6.826,0,0,0,7.8-5.66l1.623-10.154.645-4.037c0-.021.01-.042.01-.062H441.671a2.6,2.6,0,0,1-2.6-2.6v-2.049a2.6,2.6,0,0,1,2.6-2.6h34.083V579.615l-2.081-.333-10.279-1.644-37.9-6.045a6.828,6.828,0,0,0-7.814,5.66l-.843,5.254-1.425,8.947A6.834,6.834,0,0,0,421.082,599.257Z" transform="translate(84.638 72.897)" fill="#6c63ff"/>
        <path id="Path_34" data-name="Path 34" d="M363.995,553.189c0,42.51,4.318,67.938,70.9,60.655l.27-.031a197.709,197.709,0,0,0,35.093-6.711,104.225,104.225,0,0,0,17.312-6.783c1.311-.666,2.57-1.363,3.808-2.081h-49.71a2.6,2.6,0,0,1-2.6-2.6v-2.05a2.6,2.6,0,0,1,2.6-2.6h34.083V525.275a7.637,7.637,0,0,1,7.626-7.626h27.727c-.24-.687-.479-1.384-.739-2.081a170.435,170.435,0,0,0-9.228-21,160.153,160.153,0,0,0-17.25-26.613,110.829,110.829,0,0,0-15.439-15.8c-10.435-8.614-21.8-13.941-33.324-13.941C392.617,438.215,363.995,510.678,363.995,553.189Z" transform="translate(84.638 72.897)" fill="#2f2e41"/>
        <path id="Path_35" data-name="Path 35" d="M433.872,394.606l-.054-1.949c3.625-.1,6.821-.328,9.223-2.083a5.99,5.99,0,0,0,2.32-4.412,3.424,3.424,0,0,0-1.123-2.82c-1.594-1.346-4.159-.911-6.029-.053l-1.612.739,3.092-22.6,1.931.265-2.63,19.221c2.541-.747,4.895-.425,6.507.936a5.331,5.331,0,0,1,1.813,4.377,7.924,7.924,0,0,1-3.118,5.917C441.1,394.4,437.094,394.516,433.872,394.606Z" transform="translate(84.638 72.897)" fill="#2f2e41"/>
        <rect id="Rectangle_11" data-name="Rectangle 11" width="10.495" height="1.949" transform="translate(535.804 436.251)" fill="#2f2e41"/>
        <rect id="Rectangle_12" data-name="Rectangle 12" width="10.495" height="1.949" transform="translate(502.676 436.251)" fill="#2f2e41"/>
        <path id="Path_36" data-name="Path 36" d="M393.35,360.951c4.056-6.1,11.192-8.693,18.229-9.322,7.921-.709,15.574.819,23.307,2.3,8.511,1.633,17.518,3.161,26.094,1.1A25.724,25.724,0,0,0,478.466,340.9a32.9,32.9,0,0,0,1.916-21.941c-2.01-7.781-7-14.628-13.045-19.8-12.342-10.555-29.044-15.3-45.108-14.852a76.262,76.262,0,0,0-44.211,15.546,71.807,71.807,0,0,0-25.474,39.921,74.858,74.858,0,0,0,3.625,47.085c3.515,8.155,8.6,15.506,12.522,23.456,3.653,7.4,6.466,16.007,4.193,24.262-1.994,7.244-7.849,13.68-15.2,15.646a15.961,15.961,0,0,1-17.749-7.246c-3.674-5.794-3.762-13.383,1.755-18.061a13.542,13.542,0,0,1,19.536,1.949,13.939,13.939,0,0,1,2.788,10.22c-.272,1.84,2.544,2.634,2.819.777a16.489,16.489,0,0,0-30.744-10.647c-3.327,6.255-1.532,13.8,2.691,19.147a18.662,18.662,0,0,0,19.028,6.842c7.688-1.775,13.976-7.885,16.934-15.065,3.293-7.993,1.784-16.913-1.426-24.67-3.47-8.385-8.622-15.9-12.7-23.984a68.307,68.307,0,0,1-6.931-23.339,73.847,73.847,0,0,1,10.532-46.776,68.635,68.635,0,0,1,37.8-28.731c15.4-4.834,32.385-4.686,47.463,1.255,14.853,5.852,29.195,18.606,29.023,35.735-.074,7.317-2.79,14.779-8.394,19.659-6.7,5.832-16.024,6.331-24.444,5.421-8.473-.916-16.7-3.391-25.211-4.022-7.4-.549-15.387.022-22,3.7a21.992,21.992,0,0,0-7.64,7.087c-1.044,1.571,1.487,3.037,2.524,1.475Z" transform="translate(84.638 72.897)" fill="#2f2e41"/>
        <path id="Path_37" data-name="Path 37" d="M401.648,488.58a5.486,5.486,0,0,0,.28.551,5.921,5.921,0,0,0,.343.541L425.077,522.5l1.769,2.549,18.6,26.759,17.947,25.833,7.262,10.466a6.064,6.064,0,0,0,.656.8,6.8,6.8,0,0,0,4.255,2.081h.187V546.343l-2.081-3-23.336-33.584-25.063-36.071a6.829,6.829,0,0,0-9.489-1.717l-7.689,5.337-4.131,2.871a6.815,6.815,0,0,0-2.319,8.4Z" transform="translate(84.638 72.897)" fill="#6c63ff"/>
        <path id="Path_38" data-name="Path 38" d="M398.079,487.779l1.03,2.07.011.01.281.551L416.119,523.6a6.839,6.839,0,0,0,9.374,2.289l1.082-.676.27-.166L448.4,511.521a6.812,6.812,0,0,0,2.268-9.405l-23.679-32.106a17.02,17.02,0,0,0-20.787-5.368,16.735,16.735,0,0,0-2.31,1.269,17.024,17.024,0,0,0-5.816,21.869Z" transform="translate(84.638 72.897)" fill="#2f2e41"/>
        <path id="Path_39" data-name="Path 39" d="M520.855,598.238v78.331a6.824,6.824,0,0,0,6.815,6.815h14.389a6.825,6.825,0,0,0,6.814-6.815V598.238Z" transform="translate(84.638 72.897)" fill="#6c63ff"/>
        <path id="Path_40" data-name="Path 40" d="M436.989,593.587v2.05a4.7,4.7,0,0,0,3.766,4.6c.145.021.291.052.437.062s.312.021.479.021H602.058a9.719,9.719,0,0,0,9.717-9.7V525.275a9.719,9.719,0,0,0-9.717-9.707H483.38a9.718,9.718,0,0,0-9.707,9.707v63.63h-32A4.682,4.682,0,0,0,436.989,593.587Z" transform="translate(84.638 72.897)" fill="#fff"/>
        <path id="Path_41" data-name="Path 41" d="M436.989,593.587v2.05a4.7,4.7,0,0,0,3.766,4.6c.145.021.291.052.437.062s.312.021.479.021H602.058a9.719,9.719,0,0,0,9.717-9.7V525.275a9.719,9.719,0,0,0-9.717-9.707H483.38a9.718,9.718,0,0,0-9.707,9.707v63.63h-32A4.682,4.682,0,0,0,436.989,593.587Zm2.081,2.05v-2.05a2.6,2.6,0,0,1,2.6-2.6h34.083V525.275a7.637,7.637,0,0,1,7.626-7.626H602.058a7.639,7.639,0,0,1,7.636,7.626v65.336a7.639,7.639,0,0,1-7.636,7.626H441.671a2.6,2.6,0,0,1-2.6-2.6Z" transform="translate(84.638 72.897)" fill="#3f3d56"/>
        <rect id="Rectangle_13" data-name="Rectangle 13" width="2.081" height="9.364" transform="translate(558.343 662.905)" fill="#3f3d56"/>
        <path id="Path_25" data-name="Path 25" d="M703.709,353.123a86.206,86.206,0,1,1,86.205-86.206,86.206,86.206,0,0,1-86.205,86.206Zm0-166.466a80.26,80.26,0,1,0,80.26,80.26,80.26,80.26,0,0,0-80.26-80.26Z" transform="translate(62.036 174.964)" fill="#3f3d56"/>
        <path id="Path_214" data-name="Path 214" d="M6.8-8.854A4.9,4.9,0,0,0,8.417-5.206a6.612,6.612,0,0,0,4.2,1.14,7.6,7.6,0,0,0,2.242-.285,4.289,4.289,0,0,0,1.482-.76,2.7,2.7,0,0,0,.817-1.121A3.9,3.9,0,0,0,17.4-7.638a3.015,3.015,0,0,0-.8-2,5.089,5.089,0,0,0-2.926-1.349l-3.534-.646a20.9,20.9,0,0,1-3.686-.988,8.514,8.514,0,0,1-2.679-1.577,6.325,6.325,0,0,1-1.653-2.375,8.881,8.881,0,0,1-.57-3.344,7.243,7.243,0,0,1,.779-3.42A6.991,6.991,0,0,1,4.5-25.8a10.153,10.153,0,0,1,3.325-1.5,16.609,16.609,0,0,1,4.256-.513,15.278,15.278,0,0,1,4.94.684,8.973,8.973,0,0,1,3.192,1.805,7.048,7.048,0,0,1,1.805,2.6,12.2,12.2,0,0,1,.779,3.078l-5.358.684a5.286,5.286,0,0,0-1.615-3.23A5.615,5.615,0,0,0,12.2-23.18a9.483,9.483,0,0,0-2.375.247,4.732,4.732,0,0,0-1.5.646,2.21,2.21,0,0,0-.8.931,2.77,2.77,0,0,0-.228,1.1,2.893,2.893,0,0,0,.855,2.28A6.361,6.361,0,0,0,11.058-16.8l3.724.722a12.9,12.9,0,0,1,6.46,2.831A7.432,7.432,0,0,1,23.294-7.6a8.024,8.024,0,0,1-.665,3.287,7.33,7.33,0,0,1-1.976,2.622A9.333,9.333,0,0,1,17.366.057,15.375,15.375,0,0,1,12.73.684q-5.548,0-8.493-2.375T1.064-8.854Zm24.89,0a4.9,4.9,0,0,0,1.615,3.648,6.612,6.612,0,0,0,4.2,1.14,7.6,7.6,0,0,0,2.242-.285,4.289,4.289,0,0,0,1.482-.76,2.7,2.7,0,0,0,.817-1.121,3.9,3.9,0,0,0,.247-1.406,3.015,3.015,0,0,0-.8-2,5.089,5.089,0,0,0-2.926-1.349l-3.534-.646a20.9,20.9,0,0,1-3.686-.988,8.514,8.514,0,0,1-2.679-1.577,6.325,6.325,0,0,1-1.653-2.375,8.881,8.881,0,0,1-.57-3.344,7.243,7.243,0,0,1,.779-3.42,6.991,6.991,0,0,1,2.166-2.47,10.153,10.153,0,0,1,3.325-1.5,16.609,16.609,0,0,1,4.256-.513,15.278,15.278,0,0,1,4.94.684,8.973,8.973,0,0,1,3.192,1.805,7.048,7.048,0,0,1,1.805,2.6,12.2,12.2,0,0,1,.779,3.078l-5.358.684a5.286,5.286,0,0,0-1.615-3.23,5.615,5.615,0,0,0-3.629-.988,9.483,9.483,0,0,0-2.375.247,4.732,4.732,0,0,0-1.5.646,2.21,2.21,0,0,0-.8.931,2.77,2.77,0,0,0-.228,1.1,2.893,2.893,0,0,0,.855,2.28A6.361,6.361,0,0,0,35.948-16.8l3.724.722a12.9,12.9,0,0,1,6.46,2.831A7.432,7.432,0,0,1,48.184-7.6a8.024,8.024,0,0,1-.665,3.287,7.33,7.33,0,0,1-1.976,2.622A9.333,9.333,0,0,1,42.256.057,15.375,15.375,0,0,1,37.62.684q-5.548,0-8.493-2.375T25.954-8.854ZM63.878.684A14.136,14.136,0,0,1,58.444-.3a11.049,11.049,0,0,1-4.066-2.85,12.788,12.788,0,0,1-2.565-4.484,18.33,18.33,0,0,1-.893-5.928,18.33,18.33,0,0,1,.893-5.928A12.631,12.631,0,0,1,54.4-23.978a11.225,11.225,0,0,1,4.085-2.85,14.03,14.03,0,0,1,5.4-.988,14.136,14.136,0,0,1,5.434.988,10.876,10.876,0,0,1,4.047,2.85,12.716,12.716,0,0,1,2.527,4.484,18.7,18.7,0,0,1,.874,5.928A19.08,19.08,0,0,1,75.9-7.638,12.489,12.489,0,0,1,73.4-3.154,10.876,10.876,0,0,1,69.35-.3,14.243,14.243,0,0,1,63.878.684ZM63.84-4.18a6.116,6.116,0,0,0,5.32-2.432q1.748-2.432,1.748-6.954A11.812,11.812,0,0,0,69.16-20.5a6.1,6.1,0,0,0-5.32-2.451A6.1,6.1,0,0,0,58.52-20.5a11.812,11.812,0,0,0-1.748,6.935q0,4.522,1.748,6.954A6.116,6.116,0,0,0,63.84-4.18Z" transform="translate(726 457)" fill="#fff"/>
        <circle id="Ellipse_18" data-name="Ellipse 18" cx="25.915" cy="25.915" r="25.915" transform="translate(601.446 598.17)" fill="#3f3d56"/>
        <g id="Group_28" data-name="Group 28" transform="translate(615.559 606.446)">
          <path id="Path_58" data-name="Path 58" d="M16.418,391.049a11.8,11.8,0,1,0,11.8,11.8A11.794,11.794,0,0,0,16.418,391.049Zm0,19.9a8.1,8.1,0,1,1,8.1-8.1A8.109,8.109,0,0,1,16.418,410.95Z" transform="translate(-4.616 -384.092)" fill="#fff"/>
          <path id="Path_59" data-name="Path 59" d="M43.191,374.322s-.311-5.157,6.818-5.365C50.009,368.957,50.009,374.46,43.191,374.322Z" transform="translate(-31.042 -368.957)" fill="#fff"/>
        </g>
        <rect id="Rectangle_14" data-name="Rectangle 14" width="14" height="10" transform="translate(695 645)" fill="#3f3d56"/>
        <path id="Path_60" data-name="Path 60" d="M704.753,650s49.328,5.5,67.113-32.608,5.081-92.99,5.081-92.99" fill="none" stroke="#3f3d56" stroke-width="4"/>
        <path id="Path_89" data-name="Path 89" d="M704.753,632.15s41-13.276,55.294-45.971,2.724-61.778,2.724-61.778" transform="translate(454.208 -486.391) rotate(25)" fill="none" stroke="#3f3d56" stroke-width="4"/>
        <path id="Path_90" data-name="Path 90" d="M0,0S35.837,11.6,48.33,40.181s2.381,54,2.381,54" transform="translate(736.908 364.029) rotate(-178)" fill="none" stroke="#3f3d56" stroke-width="4"/>
        <path id="Path_91" data-name="Path 91" d="M0,0S35.837,11.6,48.33,40.181s2.381,54,2.381,54" transform="matrix(-0.469, 0.883, -0.883, -0.469, 933.548, 500.014)" fill="none" stroke="#3f3d56" stroke-width="4"/>
        <g id="Group_30" data-name="Group 30" transform="translate(40 24.8)">
          <path id="Path_212" data-name="Path 212" d="M.23-16.422H4.094L6.739-5.014,9.43-16.33h3.634L15.87-5.014l2.484-11.408h3.68L17.572,0H14.237L11.178-12.144,8.211,0H4.968Zm33.3,12.673A4.715,4.715,0,0,1,31.913-.679,5.917,5.917,0,0,1,28.129.368a5.776,5.776,0,0,1-4.5-1.656A6.728,6.728,0,0,1,22.126-5.98a7.776,7.776,0,0,1,.437-2.7A5.734,5.734,0,0,1,23.794-10.7a5.164,5.164,0,0,1,1.9-1.253,6.727,6.727,0,0,1,2.438-.426,5.228,5.228,0,0,1,4.152,1.587,6.259,6.259,0,0,1,1.391,4.278v1.288H25.346a3.589,3.589,0,0,0,.736,2.266,2.558,2.558,0,0,0,2.07.816,2,2,0,0,0,2.254-1.61ZM30.567-7.337a2.821,2.821,0,0,0-.61-1.932,2.4,2.4,0,0,0-1.9-.69,2.843,2.843,0,0,0-1.127.207,2.391,2.391,0,0,0-.816.564,2.563,2.563,0,0,0-.517.828,3.158,3.158,0,0,0-.207,1.024Zm5.52-9.085h3.22v5.865a4.351,4.351,0,0,1,3.68-1.817,4.338,4.338,0,0,1,3.749,1.7A7.778,7.778,0,0,1,47.978-6a8.914,8.914,0,0,1-.357,2.6,5.883,5.883,0,0,1-1.035,2.012,4.674,4.674,0,0,1-1.645,1.3,5.021,5.021,0,0,1-2.185.46A4.863,4.863,0,0,1,40.894,0a4.31,4.31,0,0,1-1.679-1.334V0H36.087Zm3.2,10.511a7.225,7.225,0,0,0,.2,1.874A2.536,2.536,0,0,0,40.112-2.9a2.3,2.3,0,0,0,.931.54A3.668,3.668,0,0,0,42-2.231a2.543,2.543,0,0,0,1.012-.207,2.147,2.147,0,0,0,.84-.656,3.35,3.35,0,0,0,.564-1.161A6.251,6.251,0,0,0,44.62-5.98a6.811,6.811,0,0,0-.2-1.771,3.336,3.336,0,0,0-.541-1.161,1.985,1.985,0,0,0-.817-.644,2.586,2.586,0,0,0-1-.2,3,3,0,0,0-1.035.161,2.9,2.9,0,0,0-.851.506,2.613,2.613,0,0,0-.679,1.1,5.565,5.565,0,0,0-.218,1.7ZM52.739-3.818a1.66,1.66,0,0,0,.851,1.38,3.89,3.89,0,0,0,1.656.322A3.459,3.459,0,0,0,56.89-2.4a1,1,0,0,0,.494-.932,1.166,1.166,0,0,0-.311-.805,2.016,2.016,0,0,0-1.184-.483L54.234-4.9a7.083,7.083,0,0,1-3.254-1.185,3.032,3.032,0,0,1-1.07-2.542,3.191,3.191,0,0,1,.38-1.564,3.46,3.46,0,0,1,1.069-1.173A5.321,5.321,0,0,1,53-12.11a7.868,7.868,0,0,1,2.1-.265,8.5,8.5,0,0,1,2.392.288,4.65,4.65,0,0,1,1.576.771,3.155,3.155,0,0,1,.92,1.15,5.838,5.838,0,0,1,.449,1.426l-2.875.368a2.1,2.1,0,0,0-.725-1.219,2.8,2.8,0,0,0-1.667-.391,4.625,4.625,0,0,0-1.069.1,2.115,2.115,0,0,0-.667.264.976.976,0,0,0-.345.368.877.877,0,0,0-.1.391.976.976,0,0,0,.357.84,3.623,3.623,0,0,0,1.391.448l1.518.253a10.6,10.6,0,0,1,2.093.529,3.987,3.987,0,0,1,1.323.793,2.536,2.536,0,0,1,.69,1.115,5.16,5.16,0,0,1,.2,1.5A3.306,3.306,0,0,1,59.271-.656,6.355,6.355,0,0,1,55.292.368a10.48,10.48,0,0,1-2.059-.2,5.166,5.166,0,0,1-1.748-.679A3.909,3.909,0,0,1,50.22-1.794a4.283,4.283,0,0,1-.563-2.024ZM62.79-12.006h3.22V0H62.79Zm-.046-4.416h3.312v2.9H62.744ZM69.621-9.5H67.735v-2.507h1.886v-3.2h3.22v3.2H75.6V-9.5h-2.76v5.543a1.637,1.637,0,0,0,.391,1.276,1.505,1.505,0,0,0,1.012.333,6.368,6.368,0,0,0,.655-.035,3.808,3.808,0,0,0,.656-.126l.46,2.369a7.642,7.642,0,0,1-1.3.287A9.576,9.576,0,0,1,73.508.23a4.024,4.024,0,0,1-2.933-.943,4.352,4.352,0,0,1-.954-3.174Zm18.745,5.75A4.715,4.715,0,0,1,86.744-.679,5.917,5.917,0,0,1,82.961.368a5.776,5.776,0,0,1-4.5-1.656A6.728,6.728,0,0,1,76.958-5.98a7.776,7.776,0,0,1,.437-2.7,5.734,5.734,0,0,1,1.23-2.012,5.164,5.164,0,0,1,1.9-1.253,6.727,6.727,0,0,1,2.438-.426,5.228,5.228,0,0,1,4.152,1.587A6.259,6.259,0,0,1,88.5-6.509v1.288H80.178a3.589,3.589,0,0,0,.736,2.266,2.558,2.558,0,0,0,2.07.816,2,2,0,0,0,2.254-1.61ZM85.4-7.337a2.821,2.821,0,0,0-.61-1.932,2.4,2.4,0,0,0-1.9-.69,2.843,2.843,0,0,0-1.127.207,2.391,2.391,0,0,0-.816.564,2.563,2.563,0,0,0-.518.828,3.158,3.158,0,0,0-.207,1.024Z" transform="translate(889 244)" fill="#6c63ff"/>
          <g id="Group_29" data-name="Group 29" transform="translate(-0.46)">
            <path id="Path_65" data-name="Path 65" d="M450.911,328.322H290.086a2.312,2.312,0,0,0-2.31,2.31v108.98a2.312,2.312,0,0,0,2.31,2.31H450.911a2.308,2.308,0,0,0,1.757-.811.545.545,0,0,0,.05-.064,2.163,2.163,0,0,0,.331-.559,2.254,2.254,0,0,0,.175-.877V330.632A2.313,2.313,0,0,0,450.911,328.322Zm1.653,111.29a1.636,1.636,0,0,1-.273.906,1.708,1.708,0,0,1-.625.562,1.638,1.638,0,0,1-.755.183H290.086a1.653,1.653,0,0,1-1.651-1.651V330.632a1.653,1.653,0,0,1,1.651-1.651H450.911a1.653,1.653,0,0,1,1.653,1.651Z" transform="translate(562.685 -154.918)" fill="#3f3d56" stroke="#3f3d56" stroke-width="3"/>
            <rect id="Rectangle_15" data-name="Rectangle 15" width="164.788" height="0.66" transform="translate(850.79 186.663)" fill="#3f3d56" stroke="#3f3d56" stroke-width="2"/>
            <circle id="Ellipse_21" data-name="Ellipse 21" cx="1.981" cy="1.981" r="1.981" transform="translate(856.422 178.376)" fill="#3f3d56"/>
            <circle id="Ellipse_22" data-name="Ellipse 22" cx="1.981" cy="1.981" r="1.981" transform="translate(862.119 178.376)" fill="#3f3d56"/>
            <circle id="Ellipse_23" data-name="Ellipse 23" cx="1.981" cy="1.981" r="1.981" transform="translate(867.815 178.376)" fill="#3f3d56"/>
            <path id="Path_87" data-name="Path 87" d="M516.55,690.061H429.116a2.12,2.12,0,0,1,0-4.239H516.55a2.12,2.12,0,0,1,0,4.239Z" transform="translate(460.351 -417.698)" fill="#ccc"/>
            <path id="Path_88" data-name="Path 88" d="M560.034,425.061H521.616a2.12,2.12,0,1,1,0-4.239h38.418a2.12,2.12,0,0,1,0,4.239Z" transform="translate(392.359 -216.91)" fill="#6c63ff"/>
          </g>
        </g>
        <g id="Group_32" data-name="Group 32" transform="translate(59.682 212.996)">
          <path id="Path_213" data-name="Path 213" d="M.23-16.422H4.094L6.739-5.014,9.43-16.33h3.634L15.87-5.014l2.484-11.408h3.68L17.572,0H14.237L11.178-12.144,8.211,0H4.968Zm33.3,12.673A4.715,4.715,0,0,1,31.913-.679,5.917,5.917,0,0,1,28.129.368a5.776,5.776,0,0,1-4.5-1.656A6.728,6.728,0,0,1,22.126-5.98a7.776,7.776,0,0,1,.437-2.7A5.734,5.734,0,0,1,23.794-10.7a5.164,5.164,0,0,1,1.9-1.253,6.727,6.727,0,0,1,2.438-.426,5.228,5.228,0,0,1,4.152,1.587,6.259,6.259,0,0,1,1.391,4.278v1.288H25.346a3.589,3.589,0,0,0,.736,2.266,2.558,2.558,0,0,0,2.07.816,2,2,0,0,0,2.254-1.61ZM30.567-7.337a2.821,2.821,0,0,0-.61-1.932,2.4,2.4,0,0,0-1.9-.69,2.843,2.843,0,0,0-1.127.207,2.391,2.391,0,0,0-.816.564,2.563,2.563,0,0,0-.517.828,3.158,3.158,0,0,0-.207,1.024Zm5.52-9.085h3.22v5.865a4.351,4.351,0,0,1,3.68-1.817,4.338,4.338,0,0,1,3.749,1.7A7.778,7.778,0,0,1,47.978-6a8.914,8.914,0,0,1-.357,2.6,5.883,5.883,0,0,1-1.035,2.012,4.674,4.674,0,0,1-1.645,1.3,5.021,5.021,0,0,1-2.185.46A4.863,4.863,0,0,1,40.894,0a4.31,4.31,0,0,1-1.679-1.334V0H36.087Zm3.2,10.511a7.225,7.225,0,0,0,.2,1.874A2.536,2.536,0,0,0,40.112-2.9a2.3,2.3,0,0,0,.931.54A3.668,3.668,0,0,0,42-2.231a2.543,2.543,0,0,0,1.012-.207,2.147,2.147,0,0,0,.84-.656,3.35,3.35,0,0,0,.564-1.161A6.251,6.251,0,0,0,44.62-5.98a6.811,6.811,0,0,0-.2-1.771,3.336,3.336,0,0,0-.541-1.161,1.985,1.985,0,0,0-.817-.644,2.586,2.586,0,0,0-1-.2,3,3,0,0,0-1.035.161,2.9,2.9,0,0,0-.851.506,2.613,2.613,0,0,0-.679,1.1,5.565,5.565,0,0,0-.218,1.7ZM52.739-3.818a1.66,1.66,0,0,0,.851,1.38,3.89,3.89,0,0,0,1.656.322A3.459,3.459,0,0,0,56.89-2.4a1,1,0,0,0,.494-.932,1.166,1.166,0,0,0-.311-.805,2.016,2.016,0,0,0-1.184-.483L54.234-4.9a7.083,7.083,0,0,1-3.254-1.185,3.032,3.032,0,0,1-1.07-2.542,3.191,3.191,0,0,1,.38-1.564,3.46,3.46,0,0,1,1.069-1.173A5.321,5.321,0,0,1,53-12.11a7.868,7.868,0,0,1,2.1-.265,8.5,8.5,0,0,1,2.392.288,4.65,4.65,0,0,1,1.576.771,3.155,3.155,0,0,1,.92,1.15,5.838,5.838,0,0,1,.449,1.426l-2.875.368a2.1,2.1,0,0,0-.725-1.219,2.8,2.8,0,0,0-1.667-.391,4.625,4.625,0,0,0-1.069.1,2.115,2.115,0,0,0-.667.264.976.976,0,0,0-.345.368.877.877,0,0,0-.1.391.976.976,0,0,0,.357.84,3.623,3.623,0,0,0,1.391.448l1.518.253a10.6,10.6,0,0,1,2.093.529,3.987,3.987,0,0,1,1.323.793,2.536,2.536,0,0,1,.69,1.115,5.16,5.16,0,0,1,.2,1.5A3.306,3.306,0,0,1,59.271-.656,6.355,6.355,0,0,1,55.292.368a10.48,10.48,0,0,1-2.059-.2,5.166,5.166,0,0,1-1.748-.679A3.909,3.909,0,0,1,50.22-1.794a4.283,4.283,0,0,1-.563-2.024ZM62.79-12.006h3.22V0H62.79Zm-.046-4.416h3.312v2.9H62.744ZM69.621-9.5H67.735v-2.507h1.886v-3.2h3.22v3.2H75.6V-9.5h-2.76v5.543a1.637,1.637,0,0,0,.391,1.276,1.505,1.505,0,0,0,1.012.333,6.368,6.368,0,0,0,.655-.035,3.808,3.808,0,0,0,.656-.126l.46,2.369a7.642,7.642,0,0,1-1.3.287A9.576,9.576,0,0,1,73.508.23a4.024,4.024,0,0,1-2.933-.943,4.352,4.352,0,0,1-.954-3.174Zm18.745,5.75A4.715,4.715,0,0,1,86.744-.679,5.917,5.917,0,0,1,82.961.368a5.776,5.776,0,0,1-4.5-1.656A6.728,6.728,0,0,1,76.958-5.98a7.776,7.776,0,0,1,.437-2.7,5.734,5.734,0,0,1,1.23-2.012,5.164,5.164,0,0,1,1.9-1.253,6.727,6.727,0,0,1,2.438-.426,5.228,5.228,0,0,1,4.152,1.587A6.259,6.259,0,0,1,88.5-6.509v1.288H80.178a3.589,3.589,0,0,0,.736,2.266,2.558,2.558,0,0,0,2.07.816,2,2,0,0,0,2.254-1.61ZM85.4-7.337a2.821,2.821,0,0,0-.61-1.932,2.4,2.4,0,0,0-1.9-.69,2.843,2.843,0,0,0-1.127.207,2.391,2.391,0,0,0-.816.564,2.563,2.563,0,0,0-.518.828,3.158,3.158,0,0,0-.207,1.024Z" transform="translate(889 244)" fill="#6c63ff"/>
          <g id="Group_29-2" data-name="Group 29" transform="translate(-0.46)">
            <path id="Path_65-2" data-name="Path 65" d="M450.911,328.322H290.086a2.312,2.312,0,0,0-2.31,2.31v108.98a2.312,2.312,0,0,0,2.31,2.31H450.911a2.308,2.308,0,0,0,1.757-.811.545.545,0,0,0,.05-.064,2.163,2.163,0,0,0,.331-.559,2.254,2.254,0,0,0,.175-.877V330.632A2.313,2.313,0,0,0,450.911,328.322Zm1.653,111.29a1.636,1.636,0,0,1-.273.906,1.708,1.708,0,0,1-.625.562,1.638,1.638,0,0,1-.755.183H290.086a1.653,1.653,0,0,1-1.651-1.651V330.632a1.653,1.653,0,0,1,1.651-1.651H450.911a1.653,1.653,0,0,1,1.653,1.651Z" transform="translate(562.685 -154.918)" fill="#3f3d56" stroke="#3f3d56" stroke-width="3"/>
            <rect id="Rectangle_15-2" data-name="Rectangle 15" width="164.788" height="0.66" transform="translate(850.79 186.663)" fill="#3f3d56" stroke="#3f3d56" stroke-width="2"/>
            <circle id="Ellipse_21-2" data-name="Ellipse 21" cx="1.981" cy="1.981" r="1.981" transform="translate(856.422 178.376)" fill="#3f3d56"/>
            <circle id="Ellipse_22-2" data-name="Ellipse 22" cx="1.981" cy="1.981" r="1.981" transform="translate(862.119 178.376)" fill="#3f3d56"/>
            <circle id="Ellipse_23-2" data-name="Ellipse 23" cx="1.981" cy="1.981" r="1.981" transform="translate(867.815 178.376)" fill="#3f3d56"/>
            <path id="Path_87-2" data-name="Path 87" d="M516.55,690.061H429.116a2.12,2.12,0,0,1,0-4.239H516.55a2.12,2.12,0,0,1,0,4.239Z" transform="translate(460.351 -417.698)" fill="#ccc"/>
            <path id="Path_88-2" data-name="Path 88" d="M560.034,425.061H521.616a2.12,2.12,0,1,1,0-4.239h38.418a2.12,2.12,0,0,1,0,4.239Z" transform="translate(392.359 -216.91)" fill="#6c63ff"/>
          </g>
        </g>
        <path id="Path_211" data-name="Path 211" d="M.23-16.422H4.094L6.739-5.014,9.43-16.33h3.634L15.87-5.014l2.484-11.408h3.68L17.572,0H14.237L11.178-12.144,8.211,0H4.968Zm33.3,12.673A4.715,4.715,0,0,1,31.913-.679,5.917,5.917,0,0,1,28.129.368a5.776,5.776,0,0,1-4.5-1.656A6.728,6.728,0,0,1,22.126-5.98a7.776,7.776,0,0,1,.437-2.7A5.734,5.734,0,0,1,23.794-10.7a5.164,5.164,0,0,1,1.9-1.253,6.727,6.727,0,0,1,2.438-.426,5.228,5.228,0,0,1,4.152,1.587,6.259,6.259,0,0,1,1.391,4.278v1.288H25.346a3.589,3.589,0,0,0,.736,2.266,2.558,2.558,0,0,0,2.07.816,2,2,0,0,0,2.254-1.61ZM30.567-7.337a2.821,2.821,0,0,0-.61-1.932,2.4,2.4,0,0,0-1.9-.69,2.843,2.843,0,0,0-1.127.207,2.391,2.391,0,0,0-.816.564,2.563,2.563,0,0,0-.517.828,3.158,3.158,0,0,0-.207,1.024Zm5.52-9.085h3.22v5.865a4.351,4.351,0,0,1,3.68-1.817,4.338,4.338,0,0,1,3.749,1.7A7.778,7.778,0,0,1,47.978-6a8.914,8.914,0,0,1-.357,2.6,5.883,5.883,0,0,1-1.035,2.012,4.674,4.674,0,0,1-1.645,1.3,5.021,5.021,0,0,1-2.185.46A4.863,4.863,0,0,1,40.894,0a4.31,4.31,0,0,1-1.679-1.334V0H36.087Zm3.2,10.511a7.225,7.225,0,0,0,.2,1.874A2.536,2.536,0,0,0,40.112-2.9a2.3,2.3,0,0,0,.931.54A3.668,3.668,0,0,0,42-2.231a2.543,2.543,0,0,0,1.012-.207,2.147,2.147,0,0,0,.84-.656,3.35,3.35,0,0,0,.564-1.161A6.251,6.251,0,0,0,44.62-5.98a6.811,6.811,0,0,0-.2-1.771,3.336,3.336,0,0,0-.541-1.161,1.985,1.985,0,0,0-.817-.644,2.586,2.586,0,0,0-1-.2,3,3,0,0,0-1.035.161,2.9,2.9,0,0,0-.851.506,2.613,2.613,0,0,0-.679,1.1,5.565,5.565,0,0,0-.218,1.7ZM52.739-3.818a1.66,1.66,0,0,0,.851,1.38,3.89,3.89,0,0,0,1.656.322A3.459,3.459,0,0,0,56.89-2.4a1,1,0,0,0,.494-.932,1.166,1.166,0,0,0-.311-.805,2.016,2.016,0,0,0-1.184-.483L54.234-4.9a7.083,7.083,0,0,1-3.254-1.185,3.032,3.032,0,0,1-1.07-2.542,3.191,3.191,0,0,1,.38-1.564,3.46,3.46,0,0,1,1.069-1.173A5.321,5.321,0,0,1,53-12.11a7.868,7.868,0,0,1,2.1-.265,8.5,8.5,0,0,1,2.392.288,4.65,4.65,0,0,1,1.576.771,3.155,3.155,0,0,1,.92,1.15,5.838,5.838,0,0,1,.449,1.426l-2.875.368a2.1,2.1,0,0,0-.725-1.219,2.8,2.8,0,0,0-1.667-.391,4.625,4.625,0,0,0-1.069.1,2.115,2.115,0,0,0-.667.264.976.976,0,0,0-.345.368.877.877,0,0,0-.1.391.976.976,0,0,0,.357.84,3.623,3.623,0,0,0,1.391.448l1.518.253a10.6,10.6,0,0,1,2.093.529,3.987,3.987,0,0,1,1.323.793,2.536,2.536,0,0,1,.69,1.115,5.16,5.16,0,0,1,.2,1.5A3.306,3.306,0,0,1,59.271-.656,6.355,6.355,0,0,1,55.292.368a10.48,10.48,0,0,1-2.059-.2,5.166,5.166,0,0,1-1.748-.679A3.909,3.909,0,0,1,50.22-1.794a4.283,4.283,0,0,1-.563-2.024ZM62.79-12.006h3.22V0H62.79Zm-.046-4.416h3.312v2.9H62.744ZM69.621-9.5H67.735v-2.507h1.886v-3.2h3.22v3.2H75.6V-9.5h-2.76v5.543a1.637,1.637,0,0,0,.391,1.276,1.505,1.505,0,0,0,1.012.333,6.368,6.368,0,0,0,.655-.035,3.808,3.808,0,0,0,.656-.126l.46,2.369a7.642,7.642,0,0,1-1.3.287A9.576,9.576,0,0,1,73.508.23a4.024,4.024,0,0,1-2.933-.943,4.352,4.352,0,0,1-.954-3.174Zm18.745,5.75A4.715,4.715,0,0,1,86.744-.679,5.917,5.917,0,0,1,82.961.368a5.776,5.776,0,0,1-4.5-1.656A6.728,6.728,0,0,1,76.958-5.98a7.776,7.776,0,0,1,.437-2.7,5.734,5.734,0,0,1,1.23-2.012,5.164,5.164,0,0,1,1.9-1.253,6.727,6.727,0,0,1,2.438-.426,5.228,5.228,0,0,1,4.152,1.587A6.259,6.259,0,0,1,88.5-6.509v1.288H80.178a3.589,3.589,0,0,0,.736,2.266,2.558,2.558,0,0,0,2.07.816,2,2,0,0,0,2.254-1.61ZM85.4-7.337a2.821,2.821,0,0,0-.61-1.932,2.4,2.4,0,0,0-1.9-.69,2.843,2.843,0,0,0-1.127.207,2.391,2.391,0,0,0-.816.564,2.563,2.563,0,0,0-.518.828,3.158,3.158,0,0,0-.207,1.024Z" transform="translate(699.324 225)" fill="#6c63ff"/>
        <g id="Group_29-3" data-name="Group 29" transform="translate(-190.136 -19)">
          <path id="Path_65-3" data-name="Path 65" d="M450.911,328.322H290.086a2.312,2.312,0,0,0-2.31,2.31v108.98a2.312,2.312,0,0,0,2.31,2.31H450.911a2.308,2.308,0,0,0,1.757-.811.545.545,0,0,0,.05-.064,2.163,2.163,0,0,0,.331-.559,2.254,2.254,0,0,0,.175-.877V330.632A2.313,2.313,0,0,0,450.911,328.322Zm1.653,111.29a1.636,1.636,0,0,1-.273.906,1.708,1.708,0,0,1-.625.562,1.638,1.638,0,0,1-.755.183H290.086a1.653,1.653,0,0,1-1.651-1.651V330.632a1.653,1.653,0,0,1,1.651-1.651H450.911a1.653,1.653,0,0,1,1.653,1.651Z" transform="translate(562.685 -154.918)" fill="#3f3d56" stroke="#3f3d56" stroke-width="3"/>
          <rect id="Rectangle_15-3" data-name="Rectangle 15" width="164.788" height="0.66" transform="translate(850.79 186.663)" fill="#3f3d56" stroke="#3f3d56" stroke-width="2"/>
          <circle id="Ellipse_21-3" data-name="Ellipse 21" cx="1.981" cy="1.981" r="1.981" transform="translate(856.422 178.376)" fill="#3f3d56"/>
          <circle id="Ellipse_22-3" data-name="Ellipse 22" cx="1.981" cy="1.981" r="1.981" transform="translate(862.119 178.376)" fill="#3f3d56"/>
          <circle id="Ellipse_23-3" data-name="Ellipse 23" cx="1.981" cy="1.981" r="1.981" transform="translate(867.815 178.376)" fill="#3f3d56"/>
          <path id="Path_87-3" data-name="Path 87" d="M516.55,690.061H429.116a2.12,2.12,0,0,1,0-4.239H516.55a2.12,2.12,0,0,1,0,4.239Z" transform="translate(460.351 -417.698)" fill="#ccc"/>
          <path id="Path_88-3" data-name="Path 88" d="M560.034,425.061H521.616a2.12,2.12,0,1,1,0-4.239h38.418a2.12,2.12,0,0,1,0,4.239Z" transform="translate(392.359 -216.91)" fill="#6c63ff"/>
        </g>
        <g id="Group_33" data-name="Group 33" transform="translate(609.02 651.583)">
          <path id="Path_141" data-name="Path 141" d="M42.121,189.58a7.1,7.1,0,1,0,7.1,7.1A7.1,7.1,0,0,0,42.121,189.58Zm0,9.249a2.151,2.151,0,1,1,2.151-2.151A2.151,2.151,0,0,1,42.121,198.829Z" transform="translate(-35.023 -189.58)" fill="#6c63ff"/>
          <path id="Path_142" data-name="Path 142" d="M133.869,219.934h-16.9a4.928,4.928,0,0,0-.566,2.291,4.135,4.135,0,0,0,.566,2.291h8.662a.629.629,0,0,1,.629.629v2.807a1.23,1.23,0,0,0,1.23,1.23h.848a1.23,1.23,0,0,0,1.23-1.23v-2.807a.629.629,0,0,1,.629-.629h1.414a.629.629,0,0,1,.629.629v2.807a1.23,1.23,0,0,0,1.23,1.23h.849a1.23,1.23,0,0,0,1.23-1.23v-6.335A1.683,1.683,0,0,0,133.869,219.934Z" transform="translate(-103.139 -214.986)" fill="#6c63ff"/>
        </g>
      </g>
    </g>
  </g>
</svg>
