<svg xmlns="http://www.w3.org/2000/svg" width="553" height="355" viewBox="0 0 553 355">
  <g id="Group_5" data-name="Group 5" transform="translate(-911 -298)">
    <g id="Group_4" data-name="Group 4">
      <g id="Group_3" data-name="Group 3" transform="translate(-58.104 -37.302)">
        <g id="Group_1" data-name="Group 1" transform="translate(1025.058 335.302)">
          <path id="Path_1" data-name="Path 1" d="M290.665,676.011v1.69a10.572,10.572,0,0,0,10.563,10.563H390.8A10.567,10.567,0,0,0,401.36,677.7v-1.69a10.487,10.487,0,0,0-2.451-6.76,10.864,10.864,0,0,0-1.783-1.69H350.668a2.113,2.113,0,0,1-2.113-2.113H301.227A10.577,10.577,0,0,0,290.665,676.011Z" transform="translate(-159.987 -412.566)" fill="#3f3d56"/>
          <rect id="Rectangle_3" data-name="Rectangle 3" width="10.985" height="77.74" transform="translate(191.1 353.019) rotate(180)" fill="#3f3d56"/>
          <path id="Path_2" data-name="Path 2" d="M308.122,761.7c0,1.187,16.646.459,37.18.459s37.18.728,37.18-.459-16.646-10.6-37.18-10.6S308.122,760.51,308.122,761.7Z" transform="translate(-159.273 -409.064)" fill="#3f3d56"/>
          <path id="Path_3" data-name="Path 3" d="M307.409,674.769l37.484,5.983,43.551,6.954,15.1,2.408a5.544,5.544,0,0,0,6.338-4.6l.684-4.276.634-3.98.524-3.279a5.481,5.481,0,0,0-1.048-4.191,5.35,5.35,0,0,0-2.054-1.69H350.174a2.113,2.113,0,0,1-2.113-2.113v-1.664a2.113,2.113,0,0,1,2.113-2.113h22.967l-10.588-1.69-32.55-5.2-19-3.034a5.556,5.556,0,0,0-6.354,4.605L302.8,668.423a5.566,5.566,0,0,0,4.6,6.346Z" transform="translate(-159.493 -413.107)" fill="#6c63ff"/>
          <path id="Path_4" data-name="Path 4" d="M385.078,672.54v64.4a5.543,5.543,0,0,0,5.535,5.535H402.3a5.543,5.543,0,0,0,5.535-5.535v-64.4a5.464,5.464,0,0,0-1.158-3.372,5.34,5.34,0,0,0-2.146-1.69H388.373a5.372,5.372,0,0,0-2.138,1.69,5.479,5.479,0,0,0-1.158,3.372Z" transform="translate(-156.126 -412.483)" fill="#6c63ff"/>
          <path id="Path_5" data-name="Path 5" d="M351.243,568.221a5.577,5.577,0,0,0,.439,1.665,5.456,5.456,0,0,0,1.58,2.07l.026.017,33.344,27.049.49.389,6.9,5.6,2.087,1.69h36.106l-2.079-1.69L401.6,581.86l-19.122-15.514L367.6,554.279a5.481,5.481,0,0,0-3.059-1.217.027.027,0,0,0-.017-.008,5.611,5.611,0,0,0-1,.017,5.325,5.325,0,0,0-1.445.355,4.066,4.066,0,0,0-.9.456,5.335,5.335,0,0,0-1.377,1.208l-7.25,8.932-.11.144A5.494,5.494,0,0,0,351.243,568.221Z" transform="translate(-157.511 -417.162)" fill="#6c63ff"/>
          <path id="Path_6" data-name="Path 6" d="M353.246,571.976a13.7,13.7,0,0,0,2.7,4.25l22.2,23.846a5.534,5.534,0,0,0,7.833-.346l.617-.7.27-.3,9.591-10.757,4.124-4.631a4.865,4.865,0,0,0,.71-.946c.1-.169.194-.346.279-.524a5.605,5.605,0,0,0,.465-2.51,5.46,5.46,0,0,0-1.817-3.862L374.472,555.82a13.785,13.785,0,0,0-9.971-2.755.026.026,0,0,0-.017-.008,14.5,14.5,0,0,0-2.332.49c-.338.093-.667.211-1.005.338a13.618,13.618,0,0,0-5.619,3.972A13.8,13.8,0,0,0,353.246,571.976Z" transform="translate(-157.469 -417.165)" fill="#2f2e41"/>
          <circle id="Ellipse_1" data-name="Ellipse 1" cx="42.353" cy="42.353" r="42.353" transform="translate(142.883 31.555)" fill="#6c63ff"/>
          <path id="Path_7" data-name="Path 7" d="M332.429,669.159l15.708,2.5.355.059,23.88,3.811,15.05,2.408,22.122,3.532.634.1,3.287.524,15.1,2.408a5.544,5.544,0,0,0,6.338-4.6l1.318-8.247.524-3.279c0-.017.008-.034.008-.051h-87.6a2.113,2.113,0,0,1-2.113-2.113v-1.665a2.113,2.113,0,0,1,2.113-2.113h27.682v-9.236l-1.69-.27L366.8,651.6l-30.783-4.909a5.546,5.546,0,0,0-6.346,4.6l-.685,4.267-1.158,7.267A5.55,5.55,0,0,0,332.429,669.159Z" transform="translate(-158.47 -413.336)" fill="#6c63ff"/>
          <path id="Path_8" data-name="Path 8" d="M287.7,636c0,34.527,3.507,55.179,57.587,49.264l.219-.025a160.572,160.572,0,0,0,28.5-5.45,84.65,84.65,0,0,0,14.061-5.509c1.064-.541,2.087-1.107,3.093-1.69H350.789a2.113,2.113,0,0,1-2.113-2.113v-1.665a2.113,2.113,0,0,1,2.113-2.113h27.682v-53.37a6.2,6.2,0,0,1,6.194-6.194h22.52c-.195-.558-.389-1.124-.6-1.69a138.436,138.436,0,0,0-7.5-17.052,130.08,130.08,0,0,0-14.01-21.615,90.028,90.028,0,0,0-12.54-12.836c-8.476-7-17.7-11.323-27.066-11.323C310.947,542.614,287.7,601.468,287.7,636Z" transform="translate(-160.108 -417.588)" fill="#2f2e41"/>
          <path id="Path_9" data-name="Path 9" d="M342.227,509.644l-.044-1.583c2.944-.082,5.54-.267,7.491-1.692a4.866,4.866,0,0,0,1.885-3.584,2.781,2.781,0,0,0-.912-2.291c-1.295-1.094-3.378-.74-4.9-.043l-1.31.6,2.511-18.352,1.568.215-2.136,15.611a5.587,5.587,0,0,1,5.285.76,4.33,4.33,0,0,1,1.472,3.555,6.435,6.435,0,0,1-2.532,4.806C348.1,509.48,344.845,509.57,342.227,509.644Z" transform="translate(-157.88 -420.038)" fill="#2f2e41"/>
          <rect id="Rectangle_4" data-name="Rectangle 4" width="8.524" height="1.583" transform="translate(198.393 64.224)" fill="#2f2e41"/>
          <rect id="Rectangle_5" data-name="Rectangle 5" width="8.524" height="1.583" transform="translate(171.487 64.224)" fill="#2f2e41"/>
          <path id="Path_10" data-name="Path 10" d="M312.488,484.771c3.294-4.958,9.09-7.06,14.805-7.571,6.433-.575,12.649.665,18.93,1.87,6.913,1.326,14.228,2.567,21.193.89a20.893,20.893,0,0,0,14.2-11.473,26.724,26.724,0,0,0,1.556-17.82,32.393,32.393,0,0,0-10.595-16.081c-10.024-8.573-23.589-12.426-36.636-12.063a61.94,61.94,0,0,0-35.908,12.626,58.322,58.322,0,0,0-20.69,32.424,60.8,60.8,0,0,0,2.944,38.242c2.855,6.623,6.984,12.594,10.171,19.051,2.967,6.011,5.251,13,3.406,19.706a18.278,18.278,0,0,1-12.345,12.708,12.964,12.964,0,0,1-14.416-5.885c-2.984-4.706-3.056-10.87,1.425-14.669a11,11,0,0,1,15.867,1.583,11.321,11.321,0,0,1,2.265,8.3c-.221,1.495,2.067,2.139,2.289.631a13.392,13.392,0,0,0-24.97-8.648c-2.7,5.081-1.244,11.209,2.186,15.551a15.158,15.158,0,0,0,15.454,5.557c6.244-1.442,11.352-6.4,13.754-12.236,2.674-6.492,1.449-13.737-1.158-20.037-2.818-6.81-7-12.918-10.312-19.48a55.481,55.481,0,0,1-5.63-18.956A59.979,59.979,0,0,1,288.83,451a55.744,55.744,0,0,1,30.7-23.335,58.258,58.258,0,0,1,38.55,1.019c12.063,4.753,23.712,15.112,23.572,29.024-.06,5.943-2.266,12-6.818,15.967-5.44,4.737-13.014,5.142-19.853,4.4-6.882-.744-13.565-2.754-20.476-3.266-6.012-.446-12.5.018-17.865,3a17.862,17.862,0,0,0-6.205,5.756c-.848,1.276,1.208,2.466,2.05,1.2Z" transform="translate(-161.053 -422.5)" fill="#2f2e41"/>
          <path id="Path_11" data-name="Path 11" d="M317.1,582.482a4.464,4.464,0,0,0,.228.448,4.8,4.8,0,0,0,.279.44l18.522,26.66,1.437,2.07,15.109,21.734,14.576,20.982,5.9,8.5a4.933,4.933,0,0,0,.533.651,5.519,5.519,0,0,0,3.456,1.69h.152V629.4l-1.69-2.434-18.953-27.277-20.356-29.3A5.546,5.546,0,0,0,328.584,569l-6.245,4.335-3.355,2.332a5.535,5.535,0,0,0-1.884,6.819Z" transform="translate(-158.926 -416.55)" fill="#6c63ff"/>
          <path id="Path_12" data-name="Path 12" d="M314.354,582.076l.836,1.682.009.008.228.448,13.579,26.956a5.554,5.554,0,0,0,7.614,1.859l.879-.549.22-.135,17.509-10.985a5.532,5.532,0,0,0,1.842-7.639l-19.232-26.077a13.823,13.823,0,0,0-16.883-4.36,13.586,13.586,0,0,0-1.876,1.031,13.827,13.827,0,0,0-4.724,17.762Z" transform="translate(-159.079 -416.795)" fill="#2f2e41"/>
          <path id="Path_13" data-name="Path 13" d="M410.1,667.478V731.1a5.543,5.543,0,0,0,5.535,5.535h11.686a5.543,5.543,0,0,0,5.535-5.535v-63.62Z" transform="translate(-155.103 -412.483)" fill="#6c63ff"/>
          <path id="Path_14" data-name="Path 14" d="M344.658,666.338V668a3.816,3.816,0,0,0,3.059,3.735c.118.017.236.042.355.051s.253.017.389.017H478.727a7.894,7.894,0,0,0,7.892-7.882V610.856a7.894,7.894,0,0,0-7.892-7.884h-96.39a7.893,7.893,0,0,0-7.884,7.884v51.68H348.46a3.8,3.8,0,0,0-3.8,3.8Z" transform="translate(-157.779 -415.121)" fill="#fff"/>
          <path id="Path_15" data-name="Path 15" d="M344.658,666.338V668a3.816,3.816,0,0,0,3.059,3.735c.118.017.236.042.355.051s.253.017.389.017H478.727a7.894,7.894,0,0,0,7.892-7.882V610.856a7.894,7.894,0,0,0-7.892-7.884h-96.39a7.893,7.893,0,0,0-7.884,7.884v51.68H348.46a3.8,3.8,0,0,0-3.8,3.8Zm1.69,1.665v-1.665a2.113,2.113,0,0,1,2.113-2.113h27.682v-53.37a6.2,6.2,0,0,1,6.194-6.194h96.39a6.2,6.2,0,0,1,6.2,6.194v53.066a6.2,6.2,0,0,1-6.2,6.194H348.46A2.113,2.113,0,0,1,346.348,668Z" transform="translate(-158.779 -415.121)" fill="#3f3d56"/>
          <rect id="Rectangle_6" data-name="Rectangle 6" width="1.69" height="7.605" transform="translate(216.7 248.311)" fill="#3f3d56"/>
          <path id="Path_33" data-name="Path 33" d="M562.739,763.582H166.161a1.041,1.041,0,1,1,0-2.082H562.739a1.041,1.041,0,1,1,0,2.082Z" transform="translate(-165.12 -408.639)" fill="#3f3d56"/>
        </g>
        <rect id="Rectangle_7" data-name="Rectangle 7" width="113" height="112" rx="16" transform="translate(969.104 578.302)"/>
        <rect id="Rectangle_8" data-name="Rectangle 8" width="113" height="112" rx="16" transform="translate(1409.104 578.302)" fill="#ff4a00"/>
        <path id="ed382d2a263c46a" d="M316.111,34.369a20.4,20.4,0,0,1-1.31,7.194,20.428,20.428,0,0,1-7.194,1.309h-.03a20.411,20.411,0,0,1-7.2-1.31,20.379,20.379,0,0,1-1.309-7.194v-.032a20.4,20.4,0,0,1,1.306-7.195,20.362,20.362,0,0,1,7.2-1.309h.028a20.328,20.328,0,0,1,7.195,1.309,20.368,20.368,0,0,1,1.309,7.195v.032h0Zm25.081-5.7H321.3l14.062-14.063a34.212,34.212,0,0,0-8.032-8.03L313.269,20.644V.754A34.236,34.236,0,0,0,307.61.28h-.036a34.13,34.13,0,0,0-5.661.474V20.644L287.845,6.58a34.029,34.029,0,0,0-4.347,3.679l-.006.006a34.293,34.293,0,0,0-3.676,4.347l14.067,14.062H273.991s-.473,3.737-.473,5.668v.024a34.085,34.085,0,0,0,.474,5.667h19.893L279.816,54.093a34.314,34.314,0,0,0,8.033,8.032l14.065-14.062v19.89a34.387,34.387,0,0,0,5.653.473h.048a34.378,34.378,0,0,0,5.653-.473V48.063l14.066,14.065a34.339,34.339,0,0,0,4.35-3.679h0a34.406,34.406,0,0,0,3.674-4.35L321.3,40.033h19.893a34.2,34.2,0,0,0,.471-5.655v-.049a34.244,34.244,0,0,0-.471-5.653v0Z" transform="translate(1158.801 600.471)" fill="#fff"/>
        <g id="Group_2" data-name="Group 2" transform="translate(1000.048 600.852)">
          <path id="Path_12-2" data-name="Path 12" d="M33.956,28.6A24.979,24.979,0,1,0,58.935,53.583,24.963,24.963,0,0,0,33.956,28.6Zm0,42.121A17.141,17.141,0,1,1,51.1,53.583,17.163,17.163,0,0,1,33.956,70.725Z" transform="translate(-8.977 -13.88)" fill="#fff"/>
          <path id="Path_13-2" data-name="Path 13" d="M47.554,17.866S46.894,6.951,61.984,6.512C61.984,6.512,61.984,18.159,47.554,17.866Z" transform="translate(-21.842 -6.512)" fill="#fff"/>
        </g>
        <rect id="Rectangle_9" data-name="Rectangle 9" width="14" height="12" transform="translate(1080.104 659.302)"/>
        <rect id="Rectangle_10" data-name="Rectangle 10" width="14" height="12" transform="translate(1397.104 659.302)" fill="#ff4a00"/>
        <path id="Path_34" data-name="Path 34" d="M1065.562,615.927s32.792,3.122,49.773-12.785,26.936-43.918,55.921-65S1250.7,518.7,1250.7,518.7" transform="translate(25.685 48.75)" fill="none" stroke="#000" stroke-linecap="round" stroke-width="3"/>
        <path id="Path_35" data-name="Path 35" d="M1151.047,615.927s-15.142,3.122-22.982-12.785-12.437-43.918-25.821-65-36.682-19.447-36.682-19.447" transform="translate(252.79 48.502)" fill="none" stroke="#ff4a00" stroke-linecap="round" stroke-width="3"/>
        <g id="Rectangle_11" data-name="Rectangle 11" transform="translate(1272.104 557.302)" fill="#3e3e3e" stroke="#3e3e3e" stroke-width="1">
          <path d="M8,0H18a0,0,0,0,1,0,0V22a0,0,0,0,1,0,0H8a8,8,0,0,1-8-8V8A8,8,0,0,1,8,0Z" stroke="none"/>
          <path d="M8,.5h9a.5.5,0,0,1,.5.5V21a.5.5,0,0,1-.5.5H8A7.5,7.5,0,0,1,.5,14V8A7.5,7.5,0,0,1,8,.5Z" fill="none"/>
        </g>
        <g id="Rectangle_15" data-name="Rectangle 15" transform="translate(1305.104 557.302)" fill="#ff6e33" stroke="#ff6e33" stroke-width="1">
          <path d="M0,0H12a8,8,0,0,1,8,8v6a8,8,0,0,1-8,8H0a0,0,0,0,1,0,0V0A0,0,0,0,1,0,0Z" stroke="none"/>
          <path d="M1,.5H12A7.5,7.5,0,0,1,19.5,8v6A7.5,7.5,0,0,1,12,21.5H1A.5.5,0,0,1,.5,21V1A.5.5,0,0,1,1,.5Z" fill="none"/>
        </g>
        <g id="Rectangle_13" data-name="Rectangle 13" transform="translate(1285.104 557.302)" fill="#fff" stroke="#3e3e3e" stroke-width="1">
          <rect width="10" height="22" rx="4" stroke="none"/>
          <rect x="0.5" y="0.5" width="9" height="21" rx="3.5" fill="none"/>
        </g>
        <g id="Path_36" data-name="Path 36" transform="translate(1301.935 557.712)" fill="#fff">
          <path d="M 4.43052339553833 21.01968193054199 C 2.26322340965271 21.01968193054199 0.5000033974647522 19.25646209716797 0.5000033974647522 17.08916282653809 L 0.5000033974647522 4.430522918701172 C 0.5000033974647522 2.263222932815552 2.26322340965271 0.5000028610229492 4.43052339553833 0.5000028610229492 C 6.597823619842529 0.5000028610229492 8.361042976379395 2.263222932815552 8.361042976379395 4.430522918701172 L 8.361042976379395 17.08916282653809 C 8.361042976379395 19.25646209716797 6.597823619842529 21.01968193054199 4.43052339553833 21.01968193054199 Z" stroke="none"/>
          <path d="M 4.43052339553833 1.000003814697266 C 2.538923263549805 1.000003814697266 1.000003337860107 2.538923263549805 1.000003337860107 4.430522918701172 L 1.000003337860107 17.08916282653809 C 1.000003337860107 18.98076248168945 2.538923263549805 20.51968383789062 4.43052339553833 20.51968383789062 C 6.322123527526855 20.51968383789062 7.861043453216553 18.98076248168945 7.861043453216553 17.08916282653809 L 7.861043453216553 4.430522918701172 C 7.861043453216553 2.538923263549805 6.322123527526855 1.000003814697266 4.43052339553833 1.000003814697266 M 4.43052339553833 3.814697265625e-06 C 6.877433300018311 3.814697265625e-06 8.861042976379395 1.983612060546875 8.861042976379395 4.430522918701172 L 8.861042976379395 17.08916282653809 C 8.861042976379395 19.53607368469238 6.877433300018311 21.51968193054199 4.43052339553833 21.51968193054199 C 1.98361349105835 21.51968193054199 3.814697265625e-06 19.53607368469238 3.814697265625e-06 17.08916282653809 L 3.814697265625e-06 4.430522918701172 C 3.814697265625e-06 1.983612060546875 1.98361349105835 3.814697265625e-06 4.43052339553833 3.814697265625e-06 Z" stroke="none" fill="#ff6e33"/>
        </g>
        <g id="Rectangle_16" data-name="Rectangle 16" transform="translate(1289.104 564.302)" fill="#3e3e3e" stroke="#3e3e3e" stroke-width="1">
          <rect width="10" height="2" rx="1" stroke="none"/>
          <rect x="0.5" y="0.5" width="9" height="1" rx="0.5" fill="none"/>
        </g>
        <g id="Rectangle_17" data-name="Rectangle 17" transform="translate(1289.104 570.302)" fill="#3e3e3e" stroke="#3e3e3e" stroke-width="1">
          <rect width="10" height="2" rx="1" stroke="none"/>
          <rect x="0.5" y="0.5" width="9" height="1" rx="0.5" fill="none"/>
        </g>
        <g id="Ellipse_2" data-name="Ellipse 2" transform="translate(1304.104 564.302)" fill="#fff" stroke="#ff6e33" stroke-width="1">
          <circle cx="1" cy="1" r="1" stroke="none"/>
          <circle cx="1" cy="1" r="0.5" fill="none"/>
        </g>
        <g id="Ellipse_3" data-name="Ellipse 3" transform="translate(1304.104 570.302)" fill="#fff" stroke="#ff6e33" stroke-width="1">
          <circle cx="1" cy="1" r="1" stroke="none"/>
          <circle cx="1" cy="1" r="0.5" fill="none"/>
        </g>
      </g>
    </g>
  </g>
</svg>
